solid OpenSCAD_Model
  facet normal -1 0 0
    outer loop
      vertex -15 -15 -5
      vertex -15 -15 0
      vertex -15 15 -5
    endloop
  endfacet
  facet normal -1 0 0
    outer loop
      vertex -15 15 -5
      vertex -15 -15 0
      vertex -15 15 0
    endloop
  endfacet
  facet normal 0 -1 0
    outer loop
      vertex -15 -15 0
      vertex -15 -15 -5
      vertex 15 -15 -5
    endloop
  endfacet
  facet normal 0 -1 0
    outer loop
      vertex 15 -15 0
      vertex -15 -15 0
      vertex 15 -15 -5
    endloop
  endfacet
  facet normal 0 0 -1
    outer loop
      vertex -15 -15 -5
      vertex -15 15 -5
      vertex 15 -15 -5
    endloop
  endfacet
  facet normal 0 0 -1
    outer loop
      vertex 15 -15 -5
      vertex -15 15 -5
      vertex 15 15 -5
    endloop
  endfacet
  facet normal 0 1 0
    outer loop
      vertex -15 15 -5
      vertex -15 15 0
      vertex 15 15 -5
    endloop
  endfacet
  facet normal 0 1 0
    outer loop
      vertex 15 15 -5
      vertex -15 15 0
      vertex 15 15 0
    endloop
  endfacet
  facet normal 0 0 1
    outer loop
      vertex 0.485746 -6.48182 0
      vertex -15 -15 0
      vertex 15 -15 0
    endloop
  endfacet
  facet normal 0 0 1
    outer loop
      vertex -15 15 0
      vertex -15 -15 0
      vertex -6.4274 -0.968775 0
    endloop
  endfacet
  facet normal 0 0 1
    outer loop
      vertex 2.37472 -6.05068 0
      vertex 0.485746 -6.48182 0
      vertex 15 -15 0
    endloop
  endfacet
  facet normal 0 0 1
    outer loop
      vertex -15 15 0
      vertex -6.4274 -0.968775 0
      vertex -6.4274 0.968775 0
    endloop
  endfacet
  facet normal 0 0 1
    outer loop
      vertex -15 15 0
      vertex -6.4274 0.968775 0
      vertex -5.8563 2.82024 0
    endloop
  endfacet
  facet normal 0 0 1
    outer loop
      vertex 6.21122 1.91591 0
      vertex 6.5 0 0
      vertex 15 -15 0
    endloop
  endfacet
  facet normal 0 0 1
    outer loop
      vertex -15 15 0
      vertex -5.8563 2.82024 0
      vertex -4.76484 4.42112 0
    endloop
  endfacet
  facet normal 0 0 1
    outer loop
      vertex 4.05268 -5.0819 0
      vertex 2.37472 -6.05068 0
      vertex 15 -15 0
    endloop
  endfacet
  facet normal 0 0 1
    outer loop
      vertex 15 15 0
      vertex -15 15 0
      vertex -3.25 5.62916 0
    endloop
  endfacet
  facet normal 0 0 1
    outer loop
      vertex 15 15 0
      vertex -3.25 5.62916 0
      vertex -1.44639 6.33703 0
    endloop
  endfacet
  facet normal 0 0 1
    outer loop
      vertex 5.37055 -3.66158 0
      vertex 4.05268 -5.0819 0
      vertex 15 -15 0
    endloop
  endfacet
  facet normal 0 0 1
    outer loop
      vertex 15 15 0
      vertex -1.44639 6.33703 0
      vertex 0.485746 6.48182 0
    endloop
  endfacet
  facet normal 0 0 1
    outer loop
      vertex 15 15 0
      vertex 0.485746 6.48182 0
      vertex 2.37472 6.05068 0
    endloop
  endfacet
  facet normal 0 0 1
    outer loop
      vertex 6.5 0 0
      vertex 6.21122 -1.91591 0
      vertex 15 -15 0
    endloop
  endfacet
  facet normal 0 0 1
    outer loop
      vertex 15 15 0
      vertex 2.37472 6.05068 0
      vertex 4.05268 5.0819 0
    endloop
  endfacet
  facet normal 0 0 1
    outer loop
      vertex 15 15 0
      vertex 5.37055 3.66158 0
      vertex 15 -15 0
    endloop
  endfacet
  facet normal 0 0 1
    outer loop
      vertex 15 15 0
      vertex 4.05268 5.0819 0
      vertex 5.37055 3.66158 0
    endloop
  endfacet
  facet normal 0 0 1
    outer loop
      vertex 5.37055 3.66158 0
      vertex 6.21122 1.91591 0
      vertex 15 -15 0
    endloop
  endfacet
  facet normal 0 0 1
    outer loop
      vertex -1.44639 -6.33703 0
      vertex -15 -15 0
      vertex 0.485746 -6.48182 0
    endloop
  endfacet
  facet normal 0 0 1
    outer loop
      vertex -3.25 -5.62916 0
      vertex -15 -15 0
      vertex -1.44639 -6.33703 0
    endloop
  endfacet
  facet normal 0 0 1
    outer loop
      vertex -4.76484 -4.42112 0
      vertex -15 -15 0
      vertex -3.25 -5.62916 0
    endloop
  endfacet
  facet normal 0 0 1
    outer loop
      vertex -5.8563 -2.82024 0
      vertex -15 -15 0
      vertex -4.76484 -4.42112 0
    endloop
  endfacet
  facet normal 0 0 1
    outer loop
      vertex -6.4274 -0.968775 0
      vertex -15 -15 0
      vertex -5.8563 -2.82024 0
    endloop
  endfacet
  facet normal 0 0 1
    outer loop
      vertex -4.76484 4.42112 0
      vertex -3.25 5.62916 0
      vertex -15 15 0
    endloop
  endfacet
  facet normal 0 0 1
    outer loop
      vertex 6.21122 -1.91591 0
      vertex 5.37055 -3.66158 0
      vertex 15 -15 0
    endloop
  endfacet
  facet normal 1 0 0
    outer loop
      vertex 15 -15 0
      vertex 15 -15 -5
      vertex 15 15 -5
    endloop
  endfacet
  facet normal 1 0 0
    outer loop
      vertex 15 15 0
      vertex 15 -15 0
      vertex 15 15 -5
    endloop
  endfacet
  facet normal 1 0 0
    outer loop
      vertex -6.4274 0.968775 -3
      vertex -6.4274 0.968775 0
      vertex -6.4274 -0.968775 0
    endloop
  endfacet
  facet normal 1 0 0
    outer loop
      vertex -6.4274 -0.968775 -3
      vertex -6.4274 0.968775 -3
      vertex -6.4274 -0.968775 0
    endloop
  endfacet
  facet normal 0.955573 0.294755 0
    outer loop
      vertex -6.4274 -0.968775 0
      vertex -5.8563 -2.82024 0
      vertex -5.8563 -2.82024 -3
    endloop
  endfacet
  facet normal 0.955573 0.294755 0
    outer loop
      vertex -6.4274 -0.968775 -3
      vertex -6.4274 -0.968775 0
      vertex -5.8563 -2.82024 -3
    endloop
  endfacet
  facet normal 0.826239 0.56332 0
    outer loop
      vertex -5.8563 -2.82024 0
      vertex -4.76484 -4.42112 0
      vertex -4.76484 -4.42112 -3
    endloop
  endfacet
  facet normal 0.826239 0.56332 0
    outer loop
      vertex -5.8563 -2.82024 -3
      vertex -5.8563 -2.82024 0
      vertex -4.76484 -4.42112 -3
    endloop
  endfacet
  facet normal 0.62349 0.781832 0
    outer loop
      vertex -3.25 -5.62916 0
      vertex -3.25 -5.62916 -3
      vertex -4.76484 -4.42112 0
    endloop
  endfacet
  facet normal 0.62349 0.781832 0
    outer loop
      vertex -4.76484 -4.42112 0
      vertex -3.25 -5.62916 -3
      vertex -4.76484 -4.42112 -3
    endloop
  endfacet
  facet normal 0.365341 0.930874 0
    outer loop
      vertex -1.44639 -6.33703 0
      vertex -1.44639 -6.33703 -3
      vertex -3.25 -5.62916 0
    endloop
  endfacet
  facet normal 0.365341 0.930874 0
    outer loop
      vertex -3.25 -5.62916 0
      vertex -1.44639 -6.33703 -3
      vertex -3.25 -5.62916 -3
    endloop
  endfacet
  facet normal 0.0747305 0.997204 0
    outer loop
      vertex 0.485746 -6.48182 0
      vertex 0.485746 -6.48182 -3
      vertex -1.44639 -6.33703 0
    endloop
  endfacet
  facet normal 0.0747305 0.997204 0
    outer loop
      vertex -1.44639 -6.33703 0
      vertex 0.485746 -6.48182 -3
      vertex -1.44639 -6.33703 -3
    endloop
  endfacet
  facet normal -0.222521 0.974928 0
    outer loop
      vertex 2.37472 -6.05068 0
      vertex 2.37472 -6.05068 -3
      vertex 0.485746 -6.48182 0
    endloop
  endfacet
  facet normal -0.222521 0.974928 0
    outer loop
      vertex 0.485746 -6.48182 0
      vertex 2.37472 -6.05068 -3
      vertex 0.485746 -6.48182 -3
    endloop
  endfacet
  facet normal -0.5 0.866026 0
    outer loop
      vertex 4.05268 -5.0819 0
      vertex 4.05268 -5.0819 -3
      vertex 2.37472 -6.05068 0
    endloop
  endfacet
  facet normal -0.5 0.866026 0
    outer loop
      vertex 2.37472 -6.05068 0
      vertex 4.05268 -5.0819 -3
      vertex 2.37472 -6.05068 -3
    endloop
  endfacet
  facet normal -0.733052 0.680172 0
    outer loop
      vertex 5.37055 -3.66158 0
      vertex 5.37055 -3.66158 -3
      vertex 4.05268 -5.0819 0
    endloop
  endfacet
  facet normal -0.733052 0.680172 0
    outer loop
      vertex 4.05268 -5.0819 0
      vertex 5.37055 -3.66158 -3
      vertex 4.05268 -5.0819 -3
    endloop
  endfacet
  facet normal -0.900969 0.433884 0
    outer loop
      vertex 6.21122 -1.91591 0
      vertex 6.21122 -1.91591 -3
      vertex 5.37055 -3.66158 0
    endloop
  endfacet
  facet normal -0.900969 0.433884 0
    outer loop
      vertex 5.37055 -3.66158 0
      vertex 6.21122 -1.91591 -3
      vertex 5.37055 -3.66158 -3
    endloop
  endfacet
  facet normal -0.988831 0.149042 0
    outer loop
      vertex 6.5 0 0
      vertex 6.5 0 -3
      vertex 6.21122 -1.91591 0
    endloop
  endfacet
  facet normal -0.988831 0.149042 0
    outer loop
      vertex 6.21122 -1.91591 0
      vertex 6.5 0 -3
      vertex 6.21122 -1.91591 -3
    endloop
  endfacet
  facet normal -0.988831 -0.149042 0
    outer loop
      vertex 6.5 0 0
      vertex 6.21122 1.91591 0
      vertex 6.5 0 -3
    endloop
  endfacet
  facet normal -0.988831 -0.149042 0
    outer loop
      vertex 6.5 0 -3
      vertex 6.21122 1.91591 0
      vertex 6.21122 1.91591 -3
    endloop
  endfacet
  facet normal -0.900969 -0.433884 0
    outer loop
      vertex 6.21122 1.91591 0
      vertex 5.37055 3.66158 0
      vertex 6.21122 1.91591 -3
    endloop
  endfacet
  facet normal -0.900969 -0.433884 0
    outer loop
      vertex 6.21122 1.91591 -3
      vertex 5.37055 3.66158 0
      vertex 5.37055 3.66158 -3
    endloop
  endfacet
  facet normal -0.733052 -0.680172 0
    outer loop
      vertex 5.37055 3.66158 0
      vertex 4.05268 5.0819 0
      vertex 5.37055 3.66158 -3
    endloop
  endfacet
  facet normal -0.733052 -0.680172 0
    outer loop
      vertex 5.37055 3.66158 -3
      vertex 4.05268 5.0819 0
      vertex 4.05268 5.0819 -3
    endloop
  endfacet
  facet normal -0.5 -0.866026 0
    outer loop
      vertex 4.05268 5.0819 -3
      vertex 4.05268 5.0819 0
      vertex 2.37472 6.05068 0
    endloop
  endfacet
  facet normal -0.5 -0.866026 0
    outer loop
      vertex 2.37472 6.05068 -3
      vertex 4.05268 5.0819 -3
      vertex 2.37472 6.05068 0
    endloop
  endfacet
  facet normal -0.222521 -0.974928 0
    outer loop
      vertex 2.37472 6.05068 -3
      vertex 2.37472 6.05068 0
      vertex 0.485746 6.48182 0
    endloop
  endfacet
  facet normal -0.222521 -0.974928 0
    outer loop
      vertex 0.485746 6.48182 -3
      vertex 2.37472 6.05068 -3
      vertex 0.485746 6.48182 0
    endloop
  endfacet
  facet normal 0.0747305 -0.997204 0
    outer loop
      vertex 0.485746 6.48182 -3
      vertex 0.485746 6.48182 0
      vertex -1.44639 6.33703 0
    endloop
  endfacet
  facet normal 0.0747305 -0.997204 0
    outer loop
      vertex -1.44639 6.33703 -3
      vertex 0.485746 6.48182 -3
      vertex -1.44639 6.33703 0
    endloop
  endfacet
  facet normal 0.365341 -0.930874 0
    outer loop
      vertex -1.44639 6.33703 -3
      vertex -1.44639 6.33703 0
      vertex -3.25 5.62916 0
    endloop
  endfacet
  facet normal 0.365341 -0.930874 0
    outer loop
      vertex -3.25 5.62916 -3
      vertex -1.44639 6.33703 -3
      vertex -3.25 5.62916 0
    endloop
  endfacet
  facet normal 0.62349 -0.781832 0
    outer loop
      vertex -3.25 5.62916 -3
      vertex -3.25 5.62916 0
      vertex -4.76484 4.42112 0
    endloop
  endfacet
  facet normal 0.62349 -0.781832 0
    outer loop
      vertex -4.76484 4.42112 -3
      vertex -3.25 5.62916 -3
      vertex -4.76484 4.42112 0
    endloop
  endfacet
  facet normal 0.826239 -0.56332 0
    outer loop
      vertex -4.76484 4.42112 -3
      vertex -4.76484 4.42112 0
      vertex -5.8563 2.82024 0
    endloop
  endfacet
  facet normal 0.826239 -0.56332 0
    outer loop
      vertex -5.8563 2.82024 -3
      vertex -4.76484 4.42112 -3
      vertex -5.8563 2.82024 0
    endloop
  endfacet
  facet normal 0.955573 -0.294755 0
    outer loop
      vertex -5.8563 2.82024 -3
      vertex -5.8563 2.82024 0
      vertex -6.4274 0.968775 0
    endloop
  endfacet
  facet normal 0.955573 -0.294755 0
    outer loop
      vertex -6.4274 0.968775 -3
      vertex -5.8563 2.82024 -3
      vertex -6.4274 0.968775 0
    endloop
  endfacet
  facet normal 0 0 1
    outer loop
      vertex -5.8563 -2.82024 -3
      vertex -4.76484 -4.42112 -3
      vertex -3.25 -5.62916 -3
    endloop
  endfacet
  facet normal 0 0 1
    outer loop
      vertex 0.485746 -6.48182 -3
      vertex -5.8563 -2.82024 -3
      vertex -1.44639 -6.33703 -3
    endloop
  endfacet
  facet normal 0 0 1
    outer loop
      vertex -1.44639 -6.33703 -3
      vertex -5.8563 -2.82024 -3
      vertex -3.25 -5.62916 -3
    endloop
  endfacet
  facet normal 0 0 1
    outer loop
      vertex 2.37472 -6.05068 -3
      vertex -5.8563 -2.82024 -3
      vertex 0.485746 -6.48182 -3
    endloop
  endfacet
  facet normal 0 0 1
    outer loop
      vertex 4.05268 -5.0819 -3
      vertex -5.8563 -2.82024 -3
      vertex 2.37472 -6.05068 -3
    endloop
  endfacet
  facet normal 0 0 1
    outer loop
      vertex 5.37055 -3.66158 -3
      vertex -5.8563 -2.82024 -3
      vertex 4.05268 -5.0819 -3
    endloop
  endfacet
  facet normal 0 0 1
    outer loop
      vertex 6.21122 -1.91591 -3
      vertex -5.8563 -2.82024 -3
      vertex 5.37055 -3.66158 -3
    endloop
  endfacet
  facet normal 0 0 1
    outer loop
      vertex 6.5 0 -3
      vertex -5.8563 -2.82024 -3
      vertex 6.21122 -1.91591 -3
    endloop
  endfacet
  facet normal 0 0 1
    outer loop
      vertex 6.21122 1.91591 -3
      vertex -5.8563 -2.82024 -3
      vertex 6.5 0 -3
    endloop
  endfacet
  facet normal 0 0 1
    outer loop
      vertex 5.37055 3.66158 -3
      vertex -5.8563 -2.82024 -3
      vertex 6.21122 1.91591 -3
    endloop
  endfacet
  facet normal 0 0 1
    outer loop
      vertex 4.05268 5.0819 -3
      vertex -5.8563 -2.82024 -3
      vertex 5.37055 3.66158 -3
    endloop
  endfacet
  facet normal 0 0 1
    outer loop
      vertex 2.37472 6.05068 -3
      vertex -5.8563 -2.82024 -3
      vertex 4.05268 5.0819 -3
    endloop
  endfacet
  facet normal 0 0 1
    outer loop
      vertex 0.485746 6.48182 -3
      vertex -5.8563 -2.82024 -3
      vertex 2.37472 6.05068 -3
    endloop
  endfacet
  facet normal 0 0 1
    outer loop
      vertex -1.44639 6.33703 -3
      vertex -5.8563 -2.82024 -3
      vertex 0.485746 6.48182 -3
    endloop
  endfacet
  facet normal 0 0 1
    outer loop
      vertex -3.25 5.62916 -3
      vertex -5.8563 -2.82024 -3
      vertex -1.44639 6.33703 -3
    endloop
  endfacet
  facet normal 0 0 1
    outer loop
      vertex -4.76484 4.42112 -3
      vertex -5.8563 -2.82024 -3
      vertex -3.25 5.62916 -3
    endloop
  endfacet
  facet normal 0 0 1
    outer loop
      vertex -5.8563 2.82024 -3
      vertex -5.8563 -2.82024 -3
      vertex -4.76484 4.42112 -3
    endloop
  endfacet
  facet normal 0 0 1
    outer loop
      vertex -6.4274 0.968775 -3
      vertex -5.8563 -2.82024 -3
      vertex -5.8563 2.82024 -3
    endloop
  endfacet
  facet normal 0 0 1
    outer loop
      vertex -6.4274 -0.968775 -3
      vertex -5.8563 -2.82024 -3
      vertex -6.4274 0.968775 -3
    endloop
  endfacet
endsolid OpenSCAD_Model
