solid model
facet normal 0.0 0.0 1.0
outer loop
vertex -24.0917178703614 -16.0267575976412 0.0
vertex -29.5451013095526 21.5925751558422 0.0
vertex -29.5451013095526 0.0 0.0
endloop
endfacet
facet normal 0.0 0.0 1.0
outer loop
vertex -29.5451013095526 21.5925751558422 0.0
vertex -24.0917178703614 -16.0267575976412 0.0
vertex -24.0917178703614 36.7408624869287 0.0
endloop
endfacet
facet normal 0.0 0.0 1.0
outer loop
vertex -24.0917178703614 36.7408624869287 0.0
vertex -24.0917178703614 -16.0267575976412 0.0
vertex -15.7805496344809 -26.1526887920989 0.0
endloop
endfacet
facet normal 0.0 0.0 1.0
outer loop
vertex -24.0917178703614 36.7408624869287 0.0
vertex -15.7805496344809 -26.1526887920989 0.0
vertex -12.7719665892749 63.2174236934478 0.0
endloop
endfacet
facet normal 0.0 0.0 1.0
outer loop
vertex -12.7719665892749 63.2174236934478 0.0
vertex -15.7805496344809 -26.1526887920989 0.0
vertex -6.56845016774707 -0.644563723632869 0.0
endloop
endfacet
facet normal 0.0 0.0 1.0
outer loop
vertex -6.56845016774707 -0.644563723632869 0.0
vertex -15.7805496344809 -26.1526887920989 0.0
vertex -6.17781028826128 -2.32264074756583 0.0
endloop
endfacet
facet normal 0.0 0.0 1.0
outer loop
vertex -6.17781028826128 -2.32264074756583 0.0
vertex -15.7805496344809 -26.1526887920989 0.0
vertex -5.36616284694469 -3.84243364289749 0.0
endloop
endfacet
facet normal 0.0 0.0 1.0
outer loop
vertex -5.36616284694469 -3.84243364289749 0.0
vertex -15.7805496344809 -26.1526887920989 0.0
vertex 13.7194503655191 -26.1526887920989 0.0
endloop
endfacet
facet normal 0.0 0.0 1.0
outer loop
vertex -5.36616284694469 -3.84243364289749 0.0
vertex 13.7194503655191 -26.1526887920989 0.0
vertex -4.18882027561222 -5.10037103538752 0.0
endloop
endfacet
facet normal 0.0 0.0 1.0
outer loop
vertex -4.18882027561222 -5.10037103538752 0.0
vertex 13.7194503655191 -26.1526887920989 0.0
vertex -2.72601652484958 -6.01072657057755 0.0
endloop
endfacet
facet normal 0.0 0.0 1.0
outer loop
vertex -2.72601652484958 -6.01072657057755 0.0
vertex 13.7194503655191 -26.1526887920989 0.0
vertex -1.07743925287375 -6.51146102317804 0.0
endloop
endfacet
facet normal 0.0 0.0 1.0
outer loop
vertex -1.07743925287375 -6.51146102317804 0.0
vertex 13.7194503655191 -26.1526887920989 0.0
vertex 0.644563723632866 -6.56845016774707 0.0
endloop
endfacet
facet normal 0.0 0.0 1.0
outer loop
vertex 0.644563723632866 -6.56845016774707 0.0
vertex 13.7194503655191 -26.1526887920989 0.0
vertex 2.32264074756582 -6.17781028826128 0.0
endloop
endfacet
facet normal 0.0 0.0 1.0
outer loop
vertex 2.32264074756582 -6.17781028826128 0.0
vertex 13.7194503655191 -26.1526887920989 0.0
vertex 3.84243364289749 -5.36616284694469 0.0
endloop
endfacet
facet normal 0.0 0.0 1.0
outer loop
vertex 3.84243364289749 -5.36616284694469 0.0
vertex 13.7194503655191 -26.1526887920989 0.0
vertex 5.10037103538752 -4.18882027561222 0.0
endloop
endfacet
facet normal 0.0 0.0 1.0
outer loop
vertex 5.10037103538752 -4.18882027561222 0.0
vertex 13.7194503655191 -26.1526887920989 0.0
vertex 6.01072657057755 -2.72601652484958 0.0
endloop
endfacet
facet normal 0.0 0.0 1.0
outer loop
vertex 6.01072657057755 -2.72601652484958 0.0
vertex 13.7194503655191 -26.1526887920989 0.0
vertex 6.51146102317804 -1.07743925287375 0.0
endloop
endfacet
facet normal 0.0 0.0 1.0
outer loop
vertex 6.51146102317804 -1.07743925287375 0.0
vertex 13.7194503655191 -26.1526887920989 0.0
vertex 6.56845016774707 0.644563723632866 0.0
endloop
endfacet
facet normal 0.0 0.0 1.0
outer loop
vertex -6.56845016774707 -0.644563723632869 0.0
vertex -5.67743823849606 42.7810488510107 0.0
vertex -12.7719665892749 63.2174236934478 0.0
endloop
endfacet
facet normal 0.0 0.0 1.0
outer loop
vertex -5.67743823849606 42.7810488510107 0.0
vertex -6.56845016774707 -0.644563723632869 0.0
vertex -6.51146102317804 1.07743925287375 0.0
endloop
endfacet
facet normal 0.0 0.0 1.0
outer loop
vertex -5.67743823849606 42.7810488510107 0.0
vertex -6.51146102317804 1.07743925287375 0.0
vertex -6.01072657057756 2.72601652484958 0.0
endloop
endfacet
facet normal 0.0 0.0 1.0
outer loop
vertex -5.67743823849606 42.7810488510107 0.0
vertex -6.01072657057756 2.72601652484958 0.0
vertex -5.10037103538752 4.18882027561222 0.0
endloop
endfacet
facet normal 0.0 0.0 1.0
outer loop
vertex -5.67743823849606 42.7810488510107 0.0
vertex -5.10037103538752 4.18882027561222 0.0
vertex 6.42256176150394 42.7810488510107 0.0
endloop
endfacet
facet normal 0.0 0.0 1.0
outer loop
vertex 6.42256176150394 42.7810488510107 0.0
vertex -5.10037103538752 4.18882027561222 0.0
vertex -3.84243364289749 5.36616284694469 0.0
endloop
endfacet
facet normal 0.0 0.0 1.0
outer loop
vertex 6.42256176150394 42.7810488510107 0.0
vertex -3.84243364289749 5.36616284694469 0.0
vertex -2.32264074756583 6.17781028826127 0.0
endloop
endfacet
facet normal 0.0 0.0 1.0
outer loop
vertex 6.42256176150394 42.7810488510107 0.0
vertex -2.32264074756583 6.17781028826127 0.0
vertex -0.644563723632867 6.56845016774707 0.0
endloop
endfacet
facet normal 0.0 0.0 1.0
outer loop
vertex 6.42256176150394 42.7810488510107 0.0
vertex -0.644563723632867 6.56845016774707 0.0
vertex 1.07743925287375 6.51146102317804 0.0
endloop
endfacet
facet normal 0.0 0.0 1.0
outer loop
vertex 6.42256176150394 42.7810488510107 0.0
vertex 1.07743925287375 6.51146102317804 0.0
vertex 2.72601652484958 6.01072657057756 0.0
endloop
endfacet
facet normal 0.0 0.0 1.0
outer loop
vertex 6.42256176150394 42.7810488510107 0.0
vertex 2.72601652484958 6.01072657057756 0.0
vertex 4.18882027561222 5.10037103538752 0.0
endloop
endfacet
facet normal 0.0 0.0 1.0
outer loop
vertex 6.42256176150394 42.7810488510107 0.0
vertex 4.18882027561222 5.10037103538752 0.0
vertex 5.36616284694469 3.84243364289749 0.0
endloop
endfacet
facet normal 0.0 0.0 1.0
outer loop
vertex 6.42256176150394 42.7810488510107 0.0
vertex 5.36616284694469 3.84243364289749 0.0
vertex 6.17781028826128 2.32264074756582 0.0
endloop
endfacet
facet normal 0.0 0.0 1.0
outer loop
vertex 6.42256176150394 42.7810488510107 0.0
vertex 6.17781028826128 2.32264074756582 0.0
vertex 6.56845016774707 0.644563723632866 0.0
endloop
endfacet
facet normal 0.0 0.0 1.0
outer loop
vertex 6.42256176150394 42.7810488510107 0.0
vertex 6.56845016774707 0.644563723632866 0.0
vertex 13.7194503655191 63.2174236934478 0.0
endloop
endfacet
facet normal 0.0 0.0 1.0
outer loop
vertex 13.7194503655191 63.2174236934478 0.0
vertex 6.56845016774707 0.644563723632866 0.0
vertex 13.7194503655191 -26.1526887920989 0.0
endloop
endfacet
facet normal 0.0 0.0 1.0
outer loop
vertex 13.7194503655191 63.2174236934478 0.0
vertex 13.7194503655191 -26.1526887920989 0.0
vertex 23.7996986064872 -16.0267575976412 0.0
endloop
endfacet
facet normal 0.0 0.0 1.0
outer loop
vertex 13.7194503655191 63.2174236934478 0.0
vertex 23.7996986064872 -16.0267575976412 0.0
vertex 23.7996986064872 36.3364586618341 0.0
endloop
endfacet
facet normal 0.0 0.0 1.0
outer loop
vertex 23.7996986064872 36.3364586618341 0.0
vertex 23.7996986064872 -16.0267575976412 0.0
vertex 29.4758066115754 0.0 0.0
endloop
endfacet
facet normal 0.0 0.0 1.0
outer loop
vertex 23.7996986064872 36.3364586618341 0.0
vertex 29.4758066115754 0.0 0.0
vertex 29.4758066115754 21.2 0.0
endloop
endfacet
facet normal 0.0 0.0 -1.0
outer loop
vertex -24.0917178703614 36.7408624869287 -4.0
vertex -29.5451013095526 0.0 -4.0
vertex -29.5451013095526 21.5925751558422 -4.0
endloop
endfacet
facet normal 0.0 0.0 -1.0
outer loop
vertex -29.5451013095526 0.0 -4.0
vertex -24.0917178703614 36.7408624869287 -4.0
vertex -24.0917178703614 -16.0267575976412 -4.0
endloop
endfacet
facet normal 0.0 0.0 -1.0
outer loop
vertex -24.0917178703614 -16.0267575976412 -4.0
vertex -24.0917178703614 36.7408624869287 -4.0
vertex -12.7719665892749 63.2174236934478 -4.0
endloop
endfacet
facet normal 0.0 0.0 -1.0
outer loop
vertex -24.0917178703614 -16.0267575976412 -4.0
vertex -12.7719665892749 63.2174236934478 -4.0
vertex -15.7805496344809 -26.1526887920989 -4.0
endloop
endfacet
facet normal 0.0 0.0 -1.0
outer loop
vertex -15.7805496344809 -26.1526887920989 -4.0
vertex -12.7719665892749 63.2174236934478 -4.0
vertex 13.7194503655191 -26.1526887920989 -4.0
endloop
endfacet
facet normal 0.0 0.0 -1.0
outer loop
vertex 13.7194503655191 -26.1526887920989 -4.0
vertex -12.7719665892749 63.2174236934478 -4.0
vertex -5.67743823849606 42.7810488510107 -4.0
endloop
endfacet
facet normal 0.0 0.0 -1.0
outer loop
vertex 13.7194503655191 -26.1526887920989 -4.0
vertex -5.67743823849606 42.7810488510107 -4.0
vertex 6.42256176150394 42.7810488510107 -4.0
endloop
endfacet
facet normal 0.0 0.0 -1.0
outer loop
vertex 13.7194503655191 -26.1526887920989 -4.0
vertex 6.42256176150394 42.7810488510107 -4.0
vertex 13.7194503655191 63.2174236934478 -4.0
endloop
endfacet
facet normal 0.0 0.0 -1.0
outer loop
vertex 13.7194503655191 -26.1526887920989 -4.0
vertex 13.7194503655191 63.2174236934478 -4.0
vertex 23.7996986064872 36.3364586618341 -4.0
endloop
endfacet
facet normal 0.0 0.0 -1.0
outer loop
vertex 13.7194503655191 -26.1526887920989 -4.0
vertex 23.7996986064872 36.3364586618341 -4.0
vertex 23.7996986064872 -16.0267575976412 -4.0
endloop
endfacet
facet normal 0.0 0.0 -1.0
outer loop
vertex 23.7996986064872 -16.0267575976412 -4.0
vertex 23.7996986064872 36.3364586618341 -4.0
vertex 29.4758066115754 21.2 -4.0
endloop
endfacet
facet normal 0.0 0.0 -1.0
outer loop
vertex 23.7996986064872 -16.0267575976412 -4.0
vertex 29.4758066115754 21.2 -4.0
vertex 29.4758066115754 0.0 -4.0
endloop
endfacet
facet normal -0.919488535252983 0.393116819200506 0.0
outer loop
vertex -12.7719665892749 63.2174236934478 0.0
vertex -24.0917178703614 36.7408624869287 -4.0
vertex -24.0917178703614 36.7408624869287 0.0
endloop
endfacet
facet normal -0.919488535252983 0.393116819200506 0.0
outer loop
vertex -24.0917178703614 36.7408624869287 -4.0
vertex -12.7719665892749 63.2174236934478 0.0
vertex -12.7719665892749 63.2174236934478 -4.0
endloop
endfacet
facet normal 0.944694218996401 0.327952485270017 0.0
outer loop
vertex -12.7719665892749 63.2174236934478 -4.0
vertex -5.67743823849606 42.7810488510107 0.0
vertex -5.67743823849606 42.7810488510107 -4.0
endloop
endfacet
facet normal 0.944694218996401 0.327952485270017 0.0
outer loop
vertex -5.67743823849606 42.7810488510107 0.0
vertex -12.7719665892749 63.2174236934478 -4.0
vertex -12.7719665892749 63.2174236934478 0.0
endloop
endfacet
facet normal 0.0 1.0 0.0
outer loop
vertex -5.67743823849606 42.7810488510107 0.0
vertex 6.42256176150394 42.7810488510107 -4.0
vertex -5.67743823849606 42.7810488510107 -4.0
endloop
endfacet
facet normal 0.0 1.0 0.0
outer loop
vertex 6.42256176150394 42.7810488510107 -4.0
vertex -5.67743823849606 42.7810488510107 0.0
vertex 6.42256176150394 42.7810488510107 0.0
endloop
endfacet
facet normal -0.941768425918757 0.33626214765047 0.0
outer loop
vertex 13.7194503655191 63.2174236934478 0.0
vertex 6.42256176150394 42.7810488510107 -4.0
vertex 6.42256176150394 42.7810488510107 0.0
endloop
endfacet
facet normal -0.941768425918757 0.33626214765047 0.0
outer loop
vertex 6.42256176150394 42.7810488510107 -4.0
vertex 13.7194503655191 63.2174236934478 0.0
vertex 13.7194503655191 63.2174236934478 -4.0
endloop
endfacet
facet normal 0.936330479009381 0.351119971061265 0.0
outer loop
vertex 13.7194503655191 63.2174236934478 -4.0
vertex 23.7996986064872 36.3364586618341 0.0
vertex 23.7996986064872 36.3364586618341 -4.0
endloop
endfacet
facet normal 0.936330479009381 0.351119971061265 0.0
outer loop
vertex 23.7996986064872 36.3364586618341 0.0
vertex 13.7194503655191 63.2174236934478 -4.0
vertex 13.7194503655191 63.2174236934478 0.0
endloop
endfacet
facet normal 0.936330479009381 0.351119971061265 0.0
outer loop
vertex 23.7996986064872 36.3364586618341 -4.0
vertex 29.4758066115754 21.2 0.0
vertex 29.4758066115754 21.2 -4.0
endloop
endfacet
facet normal 0.936330479009381 0.351119971061265 0.0
outer loop
vertex 29.4758066115754 21.2 0.0
vertex 23.7996986064872 36.3364586618341 -4.0
vertex 23.7996986064872 36.3364586618341 0.0
endloop
endfacet
facet normal 1.0 0.0 0.0
outer loop
vertex 29.4758066115754 21.2 -4.0
vertex 29.4758066115754 0.0 0.0
vertex 29.4758066115754 0.0 -4.0
endloop
endfacet
facet normal 1.0 0.0 0.0
outer loop
vertex 29.4758066115754 0.0 0.0
vertex 29.4758066115754 21.2 -4.0
vertex 29.4758066115754 21.2 0.0
endloop
endfacet
facet normal 0.942627878724889 -0.333845296882577 0.0
outer loop
vertex 29.4758066115754 0.0 -4.0
vertex 23.7996986064872 -16.0267575976412 0.0
vertex 23.7996986064872 -16.0267575976412 -4.0
endloop
endfacet
facet normal 0.942627878724889 -0.333845296882577 0.0
outer loop
vertex 23.7996986064872 -16.0267575976412 0.0
vertex 29.4758066115754 0.0 -4.0
vertex 29.4758066115754 0.0 0.0
endloop
endfacet
facet normal 0.708703625766933 -0.705506322313842 0.0
outer loop
vertex 23.7996986064872 -16.0267575976412 -4.0
vertex 13.7194503655191 -26.1526887920989 0.0
vertex 13.7194503655191 -26.1526887920989 -4.0
endloop
endfacet
facet normal 0.708703625766933 -0.705506322313842 0.0
outer loop
vertex 13.7194503655191 -26.1526887920989 0.0
vertex 23.7996986064872 -16.0267575976412 -4.0
vertex 23.7996986064872 -16.0267575976412 0.0
endloop
endfacet
facet normal 0.0 -1.0 0.0
outer loop
vertex 13.7194503655191 -26.1526887920989 0.0
vertex -15.7805496344809 -26.1526887920989 -4.0
vertex 13.7194503655191 -26.1526887920989 -4.0
endloop
endfacet
facet normal 0.0 -1.0 0.0
outer loop
vertex -15.7805496344809 -26.1526887920989 -4.0
vertex 13.7194503655191 -26.1526887920989 0.0
vertex -15.7805496344809 -26.1526887920989 0.0
endloop
endfacet
facet normal -0.772971846905162 -0.634440323349661 0.0
outer loop
vertex -24.0917178703614 -16.0267575976412 0.0
vertex -15.7805496344809 -26.1526887920989 -4.0
vertex -15.7805496344809 -26.1526887920989 0.0
endloop
endfacet
facet normal -0.772971846905162 -0.634440323349661 0.0
outer loop
vertex -15.7805496344809 -26.1526887920989 -4.0
vertex -24.0917178703614 -16.0267575976412 0.0
vertex -24.0917178703614 -16.0267575976412 -4.0
endloop
endfacet
facet normal -0.946695561098502 -0.322129654947185 0.0
outer loop
vertex -29.5451013095526 0.0 0.0
vertex -24.0917178703614 -16.0267575976412 -4.0
vertex -24.0917178703614 -16.0267575976412 0.0
endloop
endfacet
facet normal -0.946695561098502 -0.322129654947185 0.0
outer loop
vertex -24.0917178703614 -16.0267575976412 -4.0
vertex -29.5451013095526 0.0 0.0
vertex -29.5451013095526 0.0 -4.0
endloop
endfacet
facet normal -1.0 0.0 0.0
outer loop
vertex -29.5451013095526 21.5925751558422 0.0
vertex -29.5451013095526 0.0 -4.0
vertex -29.5451013095526 0.0 0.0
endloop
endfacet
facet normal -1.0 0.0 0.0
outer loop
vertex -29.5451013095526 0.0 -4.0
vertex -29.5451013095526 21.5925751558422 0.0
vertex -29.5451013095526 21.5925751558422 -4.0
endloop
endfacet
facet normal -0.940887411868727 0.338719468272742 0.0
outer loop
vertex -24.0917178703614 36.7408624869287 0.0
vertex -29.5451013095526 21.5925751558422 -4.0
vertex -29.5451013095526 21.5925751558422 0.0
endloop
endfacet
facet normal -0.940887411868727 0.338719468272742 0.0
outer loop
vertex -29.5451013095526 21.5925751558422 -4.0
vertex -24.0917178703614 36.7408624869287 0.0
vertex -24.0917178703614 36.7408624869287 -4.0
endloop
endfacet
facet normal 0.0 0.0 1.0
outer loop
vertex -6.17781028826128 -2.32264074756583 -2.5
vertex -6.51146102317804 1.07743925287375 -2.5
vertex -6.56845016774707 -0.644563723632869 -2.5
endloop
endfacet
facet normal 0.0 0.0 1.0
outer loop
vertex -6.51146102317804 1.07743925287375 -2.5
vertex -6.17781028826128 -2.32264074756583 -2.5
vertex -6.01072657057756 2.72601652484958 -2.5
endloop
endfacet
facet normal 0.0 0.0 1.0
outer loop
vertex -6.01072657057756 2.72601652484958 -2.5
vertex -6.17781028826128 -2.32264074756583 -2.5
vertex -5.36616284694469 -3.84243364289749 -2.5
endloop
endfacet
facet normal 0.0 0.0 1.0
outer loop
vertex -6.01072657057756 2.72601652484958 -2.5
vertex -5.36616284694469 -3.84243364289749 -2.5
vertex -5.10037103538752 4.18882027561222 -2.5
endloop
endfacet
facet normal 0.0 0.0 1.0
outer loop
vertex -5.10037103538752 4.18882027561222 -2.5
vertex -5.36616284694469 -3.84243364289749 -2.5
vertex -4.18882027561222 -5.10037103538752 -2.5
endloop
endfacet
facet normal 0.0 0.0 1.0
outer loop
vertex -5.10037103538752 4.18882027561222 -2.5
vertex -4.18882027561222 -5.10037103538752 -2.5
vertex -3.84243364289749 5.36616284694469 -2.5
endloop
endfacet
facet normal 0.0 0.0 1.0
outer loop
vertex -3.84243364289749 5.36616284694469 -2.5
vertex -4.18882027561222 -5.10037103538752 -2.5
vertex -2.72601652484958 -6.01072657057755 -2.5
endloop
endfacet
facet normal 0.0 0.0 1.0
outer loop
vertex -3.84243364289749 5.36616284694469 -2.5
vertex -2.72601652484958 -6.01072657057755 -2.5
vertex -2.32264074756583 6.17781028826127 -2.5
endloop
endfacet
facet normal 0.0 0.0 1.0
outer loop
vertex -2.32264074756583 6.17781028826127 -2.5
vertex -2.72601652484958 -6.01072657057755 -2.5
vertex -1.07743925287375 -6.51146102317804 -2.5
endloop
endfacet
facet normal 0.0 0.0 1.0
outer loop
vertex -2.32264074756583 6.17781028826127 -2.5
vertex -1.07743925287375 -6.51146102317804 -2.5
vertex -0.644563723632867 6.56845016774707 -2.5
endloop
endfacet
facet normal 0.0 0.0 1.0
outer loop
vertex -0.644563723632867 6.56845016774707 -2.5
vertex -1.07743925287375 -6.51146102317804 -2.5
vertex 0.644563723632866 -6.56845016774707 -2.5
endloop
endfacet
facet normal 0.0 0.0 1.0
outer loop
vertex -0.644563723632867 6.56845016774707 -2.5
vertex 0.644563723632866 -6.56845016774707 -2.5
vertex 1.07743925287375 6.51146102317804 -2.5
endloop
endfacet
facet normal 0.0 0.0 1.0
outer loop
vertex 1.07743925287375 6.51146102317804 -2.5
vertex 0.644563723632866 -6.56845016774707 -2.5
vertex 2.32264074756582 -6.17781028826128 -2.5
endloop
endfacet
facet normal 0.0 0.0 1.0
outer loop
vertex 1.07743925287375 6.51146102317804 -2.5
vertex 2.32264074756582 -6.17781028826128 -2.5
vertex 2.72601652484958 6.01072657057756 -2.5
endloop
endfacet
facet normal 0.0 0.0 1.0
outer loop
vertex 2.72601652484958 6.01072657057756 -2.5
vertex 2.32264074756582 -6.17781028826128 -2.5
vertex 3.84243364289749 -5.36616284694469 -2.5
endloop
endfacet
facet normal 0.0 0.0 1.0
outer loop
vertex 2.72601652484958 6.01072657057756 -2.5
vertex 3.84243364289749 -5.36616284694469 -2.5
vertex 4.18882027561222 5.10037103538752 -2.5
endloop
endfacet
facet normal 0.0 0.0 1.0
outer loop
vertex 4.18882027561222 5.10037103538752 -2.5
vertex 3.84243364289749 -5.36616284694469 -2.5
vertex 5.10037103538752 -4.18882027561222 -2.5
endloop
endfacet
facet normal 0.0 0.0 1.0
outer loop
vertex 4.18882027561222 5.10037103538752 -2.5
vertex 5.10037103538752 -4.18882027561222 -2.5
vertex 5.36616284694469 3.84243364289749 -2.5
endloop
endfacet
facet normal 0.0 0.0 1.0
outer loop
vertex 5.36616284694469 3.84243364289749 -2.5
vertex 5.10037103538752 -4.18882027561222 -2.5
vertex 6.01072657057755 -2.72601652484958 -2.5
endloop
endfacet
facet normal 0.0 0.0 1.0
outer loop
vertex 5.36616284694469 3.84243364289749 -2.5
vertex 6.01072657057755 -2.72601652484958 -2.5
vertex 6.17781028826128 2.32264074756582 -2.5
endloop
endfacet
facet normal 0.0 0.0 1.0
outer loop
vertex 6.17781028826128 2.32264074756582 -2.5
vertex 6.01072657057755 -2.72601652484958 -2.5
vertex 6.51146102317804 -1.07743925287375 -2.5
endloop
endfacet
facet normal 0.0 0.0 1.0
outer loop
vertex 6.17781028826128 2.32264074756582 -2.5
vertex 6.51146102317804 -1.07743925287375 -2.5
vertex 6.56845016774707 0.644563723632866 -2.5
endloop
endfacet
facet normal -0.634669738729124 -0.772783490210231 0.0
outer loop
vertex 4.18882027561222 5.10037103538752 0.0
vertex 2.72601652484958 6.01072657057756 -2.5
vertex 4.18882027561222 5.10037103538752 -2.5
endloop
endfacet
facet normal -0.413032806795391 -0.910716147057206 0.0
outer loop
vertex 2.72601652484958 6.01072657057756 -2.5
vertex 4.18882027561222 5.10037103538752 0.0
vertex 2.72601652484958 6.01072657057756 0.0
endloop
endfacet
facet normal -0.413032806795391 -0.910716147057206 0.0
outer loop
vertex 2.72601652484958 6.01072657057756 0.0
vertex 1.07743925287375 6.51146102317804 -2.5
vertex 2.72601652484958 6.01072657057756 -2.5
endloop
endfacet
facet normal -0.163248371647538 -0.986585003511825 0.0
outer loop
vertex 1.07743925287375 6.51146102317804 -2.5
vertex 2.72601652484958 6.01072657057756 0.0
vertex 1.07743925287375 6.51146102317804 0.0
endloop
endfacet
facet normal -0.163248371647538 -0.986585003511825 0.0
outer loop
vertex 1.07743925287375 6.51146102317804 0.0
vertex -0.644563723632867 6.56845016774707 -2.5
vertex 1.07743925287375 6.51146102317804 -2.5
endloop
endfacet
facet normal 0.0976611702474044 -0.99521972238592 0.0
outer loop
vertex -0.644563723632867 6.56845016774707 -2.5
vertex 1.07743925287375 6.51146102317804 0.0
vertex -0.644563723632867 6.56845016774707 0.0
endloop
endfacet
facet normal 0.0976611702474044 -0.99521972238592 0.0
outer loop
vertex -0.644563723632867 6.56845016774707 0.0
vertex -2.32264074756583 6.17781028826127 -2.5
vertex -0.644563723632867 6.56845016774707 -2.5
endloop
endfacet
facet normal 0.351915264782701 -0.936031861857769 0.0
outer loop
vertex -2.32264074756583 6.17781028826127 -2.5
vertex -0.644563723632867 6.56845016774707 0.0
vertex -2.32264074756583 6.17781028826127 0.0
endloop
endfacet
facet normal 0.351915264782701 -0.936031861857769 0.0
outer loop
vertex -2.32264074756583 6.17781028826127 0.0
vertex -3.84243364289749 5.36616284694469 -2.5
vertex -2.32264074756583 6.17781028826127 -2.5
endloop
endfacet
facet normal 0.582186915590529 -0.813054976809801 0.0
outer loop
vertex -3.84243364289749 5.36616284694469 -2.5
vertex -2.32264074756583 6.17781028826127 0.0
vertex -3.84243364289749 5.36616284694469 0.0
endloop
endfacet
facet normal 0.582186915590529 -0.813054976809801 0.0
outer loop
vertex -3.84243364289749 5.36616284694469 0.0
vertex -5.10037103538752 4.18882027561222 -2.5
vertex -3.84243364289749 5.36616284694469 -2.5
endloop
endfacet
facet normal 0.772783490210231 -0.634669738729123 0.0
outer loop
vertex -5.10037103538752 4.18882027561222 -2.5
vertex -3.84243364289749 5.36616284694469 0.0
vertex -5.10037103538752 4.18882027561222 0.0
endloop
endfacet
facet normal 0.772783490210231 -0.634669738729123 0.0
outer loop
vertex -5.10037103538752 4.18882027561222 -2.5
vertex -6.01072657057756 2.72601652484958 0.0
vertex -6.01072657057756 2.72601652484958 -2.5
endloop
endfacet
facet normal 0.910716147057206 -0.413032806795391 0.0
outer loop
vertex -6.01072657057756 2.72601652484958 0.0
vertex -5.10037103538752 4.18882027561222 -2.5
vertex -5.10037103538752 4.18882027561222 0.0
endloop
endfacet
facet normal 0.910716147057206 -0.413032806795391 0.0
outer loop
vertex -6.01072657057756 2.72601652484958 -2.5
vertex -6.51146102317804 1.07743925287375 0.0
vertex -6.51146102317804 1.07743925287375 -2.5
endloop
endfacet
facet normal 0.986585003511825 -0.163248371647538 0.0
outer loop
vertex -6.51146102317804 1.07743925287375 0.0
vertex -6.01072657057756 2.72601652484958 -2.5
vertex -6.01072657057756 2.72601652484958 0.0
endloop
endfacet
facet normal 0.986585003511825 -0.163248371647538 0.0
outer loop
vertex -6.51146102317804 1.07743925287375 -2.5
vertex -6.56845016774707 -0.644563723632869 0.0
vertex -6.56845016774707 -0.644563723632869 -2.5
endloop
endfacet
facet normal 0.99521972238592 0.0976611702474043 0.0
outer loop
vertex -6.56845016774707 -0.644563723632869 0.0
vertex -6.51146102317804 1.07743925287375 -2.5
vertex -6.51146102317804 1.07743925287375 0.0
endloop
endfacet
facet normal 0.99521972238592 0.0976611702474043 0.0
outer loop
vertex -6.56845016774707 -0.644563723632869 -2.5
vertex -6.17781028826128 -2.32264074756583 0.0
vertex -6.17781028826128 -2.32264074756583 -2.5
endloop
endfacet
facet normal 0.936031861857769 0.351915264782701 0.0
outer loop
vertex -6.17781028826128 -2.32264074756583 0.0
vertex -6.56845016774707 -0.644563723632869 -2.5
vertex -6.56845016774707 -0.644563723632869 0.0
endloop
endfacet
facet normal 0.936031861857769 0.351915264782701 0.0
outer loop
vertex -6.17781028826128 -2.32264074756583 -2.5
vertex -5.36616284694469 -3.84243364289749 0.0
vertex -5.36616284694469 -3.84243364289749 -2.5
endloop
endfacet
facet normal 0.813054976809801 0.582186915590529 0.0
outer loop
vertex -5.36616284694469 -3.84243364289749 0.0
vertex -6.17781028826128 -2.32264074756583 -2.5
vertex -6.17781028826128 -2.32264074756583 0.0
endloop
endfacet
facet normal 0.813054976809801 0.582186915590529 0.0
outer loop
vertex -5.36616284694469 -3.84243364289749 -2.5
vertex -4.18882027561222 -5.10037103538752 0.0
vertex -4.18882027561222 -5.10037103538752 -2.5
endloop
endfacet
facet normal 0.634669738729124 0.772783490210231 0.0
outer loop
vertex -4.18882027561222 -5.10037103538752 0.0
vertex -5.36616284694469 -3.84243364289749 -2.5
vertex -5.36616284694469 -3.84243364289749 0.0
endloop
endfacet
facet normal 0.634669738729124 0.772783490210231 0.0
outer loop
vertex -4.18882027561222 -5.10037103538752 0.0
vertex -2.72601652484958 -6.01072657057755 -2.5
vertex -4.18882027561222 -5.10037103538752 -2.5
endloop
endfacet
facet normal 0.413032806795391 0.910716147057205 0.0
outer loop
vertex -2.72601652484958 -6.01072657057755 -2.5
vertex -4.18882027561222 -5.10037103538752 0.0
vertex -2.72601652484958 -6.01072657057755 0.0
endloop
endfacet
facet normal 0.413032806795391 0.910716147057205 0.0
outer loop
vertex -2.72601652484958 -6.01072657057755 0.0
vertex -1.07743925287375 -6.51146102317804 -2.5
vertex -2.72601652484958 -6.01072657057755 -2.5
endloop
endfacet
facet normal 0.163248371647538 0.986585003511825 0.0
outer loop
vertex -1.07743925287375 -6.51146102317804 -2.5
vertex -2.72601652484958 -6.01072657057755 0.0
vertex -1.07743925287375 -6.51146102317804 0.0
endloop
endfacet
facet normal 0.163248371647538 0.986585003511825 0.0
outer loop
vertex -1.07743925287375 -6.51146102317804 0.0
vertex 0.644563723632866 -6.56845016774707 -2.5
vertex -1.07743925287375 -6.51146102317804 -2.5
endloop
endfacet
facet normal -0.0976611702474041 0.99521972238592 0.0
outer loop
vertex 0.644563723632866 -6.56845016774707 -2.5
vertex -1.07743925287375 -6.51146102317804 0.0
vertex 0.644563723632866 -6.56845016774707 0.0
endloop
endfacet
facet normal -0.0976611702474041 0.99521972238592 0.0
outer loop
vertex 0.644563723632866 -6.56845016774707 0.0
vertex 2.32264074756582 -6.17781028826128 -2.5
vertex 0.644563723632866 -6.56845016774707 -2.5
endloop
endfacet
facet normal -0.3519152647827 0.936031861857769 0.0
outer loop
vertex 2.32264074756582 -6.17781028826128 -2.5
vertex 0.644563723632866 -6.56845016774707 0.0
vertex 2.32264074756582 -6.17781028826128 0.0
endloop
endfacet
facet normal -0.3519152647827 0.936031861857769 0.0
outer loop
vertex 2.32264074756582 -6.17781028826128 0.0
vertex 3.84243364289749 -5.36616284694469 -2.5
vertex 2.32264074756582 -6.17781028826128 -2.5
endloop
endfacet
facet normal -0.582186915590529 0.813054976809801 0.0
outer loop
vertex 3.84243364289749 -5.36616284694469 -2.5
vertex 2.32264074756582 -6.17781028826128 0.0
vertex 3.84243364289749 -5.36616284694469 0.0
endloop
endfacet
facet normal -0.582186915590529 0.813054976809801 0.0
outer loop
vertex 3.84243364289749 -5.36616284694469 0.0
vertex 5.10037103538752 -4.18882027561222 -2.5
vertex 3.84243364289749 -5.36616284694469 -2.5
endloop
endfacet
facet normal -0.772783490210231 0.634669738729124 0.0
outer loop
vertex 5.10037103538752 -4.18882027561222 -2.5
vertex 3.84243364289749 -5.36616284694469 0.0
vertex 5.10037103538752 -4.18882027561222 0.0
endloop
endfacet
facet normal -0.910716147057205 0.413032806795391 0.0
outer loop
vertex 6.01072657057755 -2.72601652484958 0.0
vertex 5.10037103538752 -4.18882027561222 -2.5
vertex 5.10037103538752 -4.18882027561222 0.0
endloop
endfacet
facet normal -0.772783490210231 0.634669738729124 0.0
outer loop
vertex 5.10037103538752 -4.18882027561222 -2.5
vertex 6.01072657057755 -2.72601652484958 0.0
vertex 6.01072657057755 -2.72601652484958 -2.5
endloop
endfacet
facet normal -0.986585003511825 0.163248371647539 0.0
outer loop
vertex 6.51146102317804 -1.07743925287375 0.0
vertex 6.01072657057755 -2.72601652484958 -2.5
vertex 6.01072657057755 -2.72601652484958 0.0
endloop
endfacet
facet normal -0.910716147057205 0.413032806795391 0.0
outer loop
vertex 6.01072657057755 -2.72601652484958 -2.5
vertex 6.51146102317804 -1.07743925287375 0.0
vertex 6.51146102317804 -1.07743925287375 -2.5
endloop
endfacet
facet normal -0.99521972238592 -0.0976611702474042 0.0
outer loop
vertex 6.56845016774707 0.644563723632866 0.0
vertex 6.51146102317804 -1.07743925287375 -2.5
vertex 6.51146102317804 -1.07743925287375 0.0
endloop
endfacet
facet normal -0.986585003511825 0.163248371647539 0.0
outer loop
vertex 6.51146102317804 -1.07743925287375 -2.5
vertex 6.56845016774707 0.644563723632866 0.0
vertex 6.56845016774707 0.644563723632866 -2.5
endloop
endfacet
facet normal -0.936031861857769 -0.3519152647827 0.0
outer loop
vertex 6.17781028826128 2.32264074756582 0.0
vertex 6.56845016774707 0.644563723632866 -2.5
vertex 6.56845016774707 0.644563723632866 0.0
endloop
endfacet
facet normal -0.99521972238592 -0.0976611702474042 0.0
outer loop
vertex 6.56845016774707 0.644563723632866 -2.5
vertex 6.17781028826128 2.32264074756582 0.0
vertex 6.17781028826128 2.32264074756582 -2.5
endloop
endfacet
facet normal -0.813054976809801 -0.582186915590529 0.0
outer loop
vertex 5.36616284694469 3.84243364289749 0.0
vertex 6.17781028826128 2.32264074756582 -2.5
vertex 6.17781028826128 2.32264074756582 0.0
endloop
endfacet
facet normal -0.936031861857769 -0.3519152647827 0.0
outer loop
vertex 6.17781028826128 2.32264074756582 -2.5
vertex 5.36616284694469 3.84243364289749 0.0
vertex 5.36616284694469 3.84243364289749 -2.5
endloop
endfacet
facet normal -0.634669738729124 -0.772783490210231 0.0
outer loop
vertex 4.18882027561222 5.10037103538752 0.0
vertex 5.36616284694469 3.84243364289749 -2.5
vertex 5.36616284694469 3.84243364289749 0.0
endloop
endfacet
facet normal -0.813054976809801 -0.582186915590529 0.0
outer loop
vertex 5.36616284694469 3.84243364289749 -2.5
vertex 4.18882027561222 5.10037103538752 0.0
vertex 4.18882027561222 5.10037103538752 -2.5
endloop
endfacet
endsolid model
