solid model
facet normal 0.0 0.0 -1.0
outer loop
vertex -14.488887394336 3.88228567653782 0.0
vertex -14.488887394336 -3.88228567653781 0.0
vertex -15.0 1.83697019872103e-015 0.0
endloop
endfacet
facet normal 0.0 0.0 -1.0
outer loop
vertex -14.488887394336 -3.88228567653781 0.0
vertex -14.488887394336 3.88228567653782 0.0
vertex -12.9903810567666 -7.5 0.0
endloop
endfacet
facet normal 0.0 0.0 -1.0
outer loop
vertex -12.9903810567666 -7.5 0.0
vertex -14.488887394336 3.88228567653782 0.0
vertex -12.9903810567666 7.50000000000001 0.0
endloop
endfacet
facet normal 0.0 0.0 -1.0
outer loop
vertex -12.9903810567666 -7.5 0.0
vertex -12.9903810567666 7.50000000000001 0.0
vertex -10.6066017177982 -10.6066017177982 0.0
endloop
endfacet
facet normal 0.0 0.0 -1.0
outer loop
vertex -10.6066017177982 -10.6066017177982 0.0
vertex -12.9903810567666 7.50000000000001 0.0
vertex -10.6066017177982 10.6066017177982 0.0
endloop
endfacet
facet normal 0.0 0.0 -1.0
outer loop
vertex -10.6066017177982 -10.6066017177982 0.0
vertex -10.6066017177982 10.6066017177982 0.0
vertex -7.50000000000001 -12.9903810567666 0.0
endloop
endfacet
facet normal 0.0 0.0 -1.0
outer loop
vertex -7.50000000000001 -12.9903810567666 0.0
vertex -10.6066017177982 10.6066017177982 0.0
vertex -7.5 12.9903810567666 0.0
endloop
endfacet
facet normal 0.0 0.0 -1.0
outer loop
vertex -7.50000000000001 -12.9903810567666 0.0
vertex -7.5 12.9903810567666 0.0
vertex -3.88228567653782 -14.488887394336 0.0
endloop
endfacet
facet normal 0.0 0.0 -1.0
outer loop
vertex -3.88228567653782 -14.488887394336 0.0
vertex -7.5 12.9903810567666 0.0
vertex -3.88228567653781 14.488887394336 0.0
endloop
endfacet
facet normal 0.0 0.0 -1.0
outer loop
vertex -3.88228567653782 -14.488887394336 0.0
vertex -3.88228567653781 14.488887394336 0.0
vertex -2.75545529808154e-015 -15.0 0.0
endloop
endfacet
facet normal 0.0 0.0 -1.0
outer loop
vertex -2.75545529808154e-015 -15.0 0.0
vertex -3.88228567653781 14.488887394336 0.0
vertex 9.18485099360515e-016 15.0 0.0
endloop
endfacet
facet normal 0.0 0.0 -1.0
outer loop
vertex -2.75545529808154e-015 -15.0 0.0
vertex 9.18485099360515e-016 15.0 0.0
vertex 3.8822856765378 -14.488887394336 0.0
endloop
endfacet
facet normal 0.0 0.0 -1.0
outer loop
vertex 3.8822856765378 -14.488887394336 0.0
vertex 9.18485099360515e-016 15.0 0.0
vertex 3.88228567653781 14.488887394336 0.0
endloop
endfacet
facet normal 0.0 0.0 -1.0
outer loop
vertex 3.8822856765378 -14.488887394336 0.0
vertex 3.88228567653781 14.488887394336 0.0
vertex 7.49999999999999 -12.9903810567666 0.0
endloop
endfacet
facet normal 0.0 0.0 -1.0
outer loop
vertex 7.49999999999999 -12.9903810567666 0.0
vertex 3.88228567653781 14.488887394336 0.0
vertex 7.5 12.9903810567666 0.0
endloop
endfacet
facet normal 0.0 0.0 -1.0
outer loop
vertex 7.49999999999999 -12.9903810567666 0.0
vertex 7.5 12.9903810567666 0.0
vertex 10.6066017177982 -10.6066017177982 0.0
endloop
endfacet
facet normal 0.0 0.0 -1.0
outer loop
vertex 10.6066017177982 -10.6066017177982 0.0
vertex 7.5 12.9903810567666 0.0
vertex 10.6066017177982 10.6066017177982 0.0
endloop
endfacet
facet normal 0.0 0.0 -1.0
outer loop
vertex 10.6066017177982 -10.6066017177982 0.0
vertex 10.6066017177982 10.6066017177982 0.0
vertex 12.9903810567666 -7.50000000000001 0.0
endloop
endfacet
facet normal 0.0 0.0 -1.0
outer loop
vertex 12.9903810567666 -7.50000000000001 0.0
vertex 10.6066017177982 10.6066017177982 0.0
vertex 12.9903810567666 7.5 0.0
endloop
endfacet
facet normal 0.0 0.0 -1.0
outer loop
vertex 12.9903810567666 -7.50000000000001 0.0
vertex 12.9903810567666 7.5 0.0
vertex 14.488887394336 -3.88228567653782 0.0
endloop
endfacet
facet normal 0.0 0.0 -1.0
outer loop
vertex 14.488887394336 -3.88228567653782 0.0
vertex 12.9903810567666 7.5 0.0
vertex 14.488887394336 3.88228567653781 0.0
endloop
endfacet
facet normal 0.0 0.0 -1.0
outer loop
vertex 14.488887394336 -3.88228567653782 0.0
vertex 14.488887394336 3.88228567653781 0.0
vertex 15.0 0.0 0.0
endloop
endfacet
facet normal 0.0 0.0 1.0
outer loop
vertex -14.488887394336 -3.88228567653781 2.0
vertex -14.488887394336 3.88228567653782 2.0
vertex -15.0 1.83697019872103e-015 2.0
endloop
endfacet
facet normal 0.0 0.0 1.0
outer loop
vertex -14.488887394336 3.88228567653782 2.0
vertex -14.488887394336 -3.88228567653781 2.0
vertex -12.9903810567666 -7.5 2.0
endloop
endfacet
facet normal 0.0 0.0 1.0
outer loop
vertex -14.488887394336 3.88228567653782 2.0
vertex -12.9903810567666 -7.5 2.0
vertex -12.9903810567666 7.50000000000001 2.0
endloop
endfacet
facet normal 0.0 0.0 1.0
outer loop
vertex -12.9903810567666 7.50000000000001 2.0
vertex -12.9903810567666 -7.5 2.0
vertex -10.6066017177982 -10.6066017177982 2.0
endloop
endfacet
facet normal 0.0 0.0 1.0
outer loop
vertex -12.9903810567666 7.50000000000001 2.0
vertex -10.6066017177982 -10.6066017177982 2.0
vertex -10.6066017177982 10.6066017177982 2.0
endloop
endfacet
facet normal 0.0 0.0 1.0
outer loop
vertex -10.6066017177982 10.6066017177982 2.0
vertex -10.6066017177982 -10.6066017177982 2.0
vertex -7.50000000000001 -12.9903810567666 2.0
endloop
endfacet
facet normal 0.0 0.0 1.0
outer loop
vertex -10.6066017177982 10.6066017177982 2.0
vertex -7.50000000000001 -12.9903810567666 2.0
vertex -7.5 12.9903810567666 2.0
endloop
endfacet
facet normal 0.0 0.0 1.0
outer loop
vertex -7.5 12.9903810567666 2.0
vertex -7.50000000000001 -12.9903810567666 2.0
vertex -3.88228567653782 -14.488887394336 2.0
endloop
endfacet
facet normal 0.0 0.0 1.0
outer loop
vertex -7.5 12.9903810567666 2.0
vertex -3.88228567653782 -14.488887394336 2.0
vertex -3.88228567653781 14.488887394336 2.0
endloop
endfacet
facet normal 0.0 0.0 1.0
outer loop
vertex -3.88228567653781 14.488887394336 2.0
vertex -3.88228567653782 -14.488887394336 2.0
vertex -2.75545529808154e-015 -15.0 2.0
endloop
endfacet
facet normal 0.0 0.0 1.0
outer loop
vertex -3.88228567653781 14.488887394336 2.0
vertex -2.75545529808154e-015 -15.0 2.0
vertex 9.18485099360515e-016 15.0 2.0
endloop
endfacet
facet normal 0.0 0.0 1.0
outer loop
vertex 9.18485099360515e-016 15.0 2.0
vertex -2.75545529808154e-015 -15.0 2.0
vertex 3.8822856765378 -14.488887394336 2.0
endloop
endfacet
facet normal 0.0 0.0 1.0
outer loop
vertex 9.18485099360515e-016 15.0 2.0
vertex 3.8822856765378 -14.488887394336 2.0
vertex 3.88228567653781 14.488887394336 2.0
endloop
endfacet
facet normal 0.0 0.0 1.0
outer loop
vertex 3.88228567653781 14.488887394336 2.0
vertex 3.8822856765378 -14.488887394336 2.0
vertex 7.49999999999999 -12.9903810567666 2.0
endloop
endfacet
facet normal 0.0 0.0 1.0
outer loop
vertex 3.88228567653781 14.488887394336 2.0
vertex 7.49999999999999 -12.9903810567666 2.0
vertex 7.5 12.9903810567666 2.0
endloop
endfacet
facet normal 0.0 0.0 1.0
outer loop
vertex 7.5 12.9903810567666 2.0
vertex 7.49999999999999 -12.9903810567666 2.0
vertex 10.6066017177982 -10.6066017177982 2.0
endloop
endfacet
facet normal 0.0 0.0 1.0
outer loop
vertex 7.5 12.9903810567666 2.0
vertex 10.6066017177982 -10.6066017177982 2.0
vertex 10.6066017177982 10.6066017177982 2.0
endloop
endfacet
facet normal 0.0 0.0 1.0
outer loop
vertex 10.6066017177982 10.6066017177982 2.0
vertex 10.6066017177982 -10.6066017177982 2.0
vertex 12.9903810567666 -7.50000000000001 2.0
endloop
endfacet
facet normal 0.0 0.0 1.0
outer loop
vertex 10.6066017177982 10.6066017177982 2.0
vertex 12.9903810567666 -7.50000000000001 2.0
vertex 12.9903810567666 7.5 2.0
endloop
endfacet
facet normal 0.0 0.0 1.0
outer loop
vertex 12.9903810567666 7.5 2.0
vertex 12.9903810567666 -7.50000000000001 2.0
vertex 14.488887394336 -3.88228567653782 2.0
endloop
endfacet
facet normal 0.0 0.0 1.0
outer loop
vertex 12.9903810567666 7.5 2.0
vertex 14.488887394336 -3.88228567653782 2.0
vertex 14.488887394336 3.88228567653781 2.0
endloop
endfacet
facet normal 0.0 0.0 1.0
outer loop
vertex 14.488887394336 3.88228567653781 2.0
vertex 14.488887394336 -3.88228567653782 2.0
vertex 15.0 0.0 2.0
endloop
endfacet
facet normal 1.0 -1.42577758330351e-016 0.0
outer loop
vertex 15.0 0.0 0.0
vertex 14.488887394336 -3.88228567653782 2.0
vertex 14.488887394336 -3.88228567653782 0.0
endloop
endfacet
facet normal 0.965925826289068 -0.258819045102521 0.0
outer loop
vertex 14.488887394336 -3.88228567653782 2.0
vertex 15.0 0.0 0.0
vertex 15.0 0.0 2.0
endloop
endfacet
facet normal 0.965925826289068 -0.258819045102521 0.0
outer loop
vertex 14.488887394336 -3.88228567653782 0.0
vertex 12.9903810567666 -7.50000000000001 2.0
vertex 12.9903810567666 -7.50000000000001 0.0
endloop
endfacet
facet normal 0.866025403784438 -0.5 0.0
outer loop
vertex 12.9903810567666 -7.50000000000001 2.0
vertex 14.488887394336 -3.88228567653782 0.0
vertex 14.488887394336 -3.88228567653782 2.0
endloop
endfacet
facet normal 0.866025403784438 -0.5 0.0
outer loop
vertex 12.9903810567666 -7.50000000000001 0.0
vertex 10.6066017177982 -10.6066017177982 2.0
vertex 10.6066017177982 -10.6066017177982 0.0
endloop
endfacet
facet normal 0.707106781186547 -0.707106781186548 0.0
outer loop
vertex 10.6066017177982 -10.6066017177982 2.0
vertex 12.9903810567666 -7.50000000000001 0.0
vertex 12.9903810567666 -7.50000000000001 2.0
endloop
endfacet
facet normal 0.707106781186547 -0.707106781186548 0.0
outer loop
vertex 10.6066017177982 -10.6066017177982 2.0
vertex 7.49999999999999 -12.9903810567666 0.0
vertex 10.6066017177982 -10.6066017177982 0.0
endloop
endfacet
facet normal 0.5 -0.866025403784439 0.0
outer loop
vertex 7.49999999999999 -12.9903810567666 0.0
vertex 10.6066017177982 -10.6066017177982 2.0
vertex 7.49999999999999 -12.9903810567666 2.0
endloop
endfacet
facet normal 0.5 -0.866025403784439 0.0
outer loop
vertex 7.49999999999999 -12.9903810567666 2.0
vertex 3.8822856765378 -14.488887394336 0.0
vertex 7.49999999999999 -12.9903810567666 0.0
endloop
endfacet
facet normal 0.25881904510252 -0.965925826289068 0.0
outer loop
vertex 3.8822856765378 -14.488887394336 0.0
vertex 7.49999999999999 -12.9903810567666 2.0
vertex 3.8822856765378 -14.488887394336 2.0
endloop
endfacet
facet normal 0.25881904510252 -0.965925826289068 0.0
outer loop
vertex 3.8822856765378 -14.488887394336 2.0
vertex -2.75545529808154e-015 -15.0 0.0
vertex 3.8822856765378 -14.488887394336 0.0
endloop
endfacet
facet normal -5.07933264051874e-016 -1.0 0.0
outer loop
vertex -2.75545529808154e-015 -15.0 0.0
vertex 3.8822856765378 -14.488887394336 2.0
vertex -2.75545529808154e-015 -15.0 2.0
endloop
endfacet
facet normal -5.07933264051874e-016 -1.0 0.0
outer loop
vertex -2.75545529808154e-015 -15.0 2.0
vertex -3.88228567653782 -14.488887394336 0.0
vertex -2.75545529808154e-015 -15.0 0.0
endloop
endfacet
facet normal -0.258819045102521 -0.965925826289068 0.0
outer loop
vertex -3.88228567653782 -14.488887394336 0.0
vertex -2.75545529808154e-015 -15.0 2.0
vertex -3.88228567653782 -14.488887394336 2.0
endloop
endfacet
facet normal -0.258819045102521 -0.965925826289068 0.0
outer loop
vertex -3.88228567653782 -14.488887394336 2.0
vertex -7.50000000000001 -12.9903810567666 0.0
vertex -3.88228567653782 -14.488887394336 0.0
endloop
endfacet
facet normal -0.500000000000001 -0.866025403784438 0.0
outer loop
vertex -7.50000000000001 -12.9903810567666 0.0
vertex -3.88228567653782 -14.488887394336 2.0
vertex -7.50000000000001 -12.9903810567666 2.0
endloop
endfacet
facet normal -0.500000000000001 -0.866025403784438 0.0
outer loop
vertex -7.50000000000001 -12.9903810567666 2.0
vertex -10.6066017177982 -10.6066017177982 0.0
vertex -7.50000000000001 -12.9903810567666 0.0
endloop
endfacet
facet normal -0.707106781186548 -0.707106781186547 0.0
outer loop
vertex -10.6066017177982 -10.6066017177982 0.0
vertex -7.50000000000001 -12.9903810567666 2.0
vertex -10.6066017177982 -10.6066017177982 2.0
endloop
endfacet
facet normal -0.866025403784439 -0.5 0.0
outer loop
vertex -12.9903810567666 -7.5 2.0
vertex -10.6066017177982 -10.6066017177982 0.0
vertex -10.6066017177982 -10.6066017177982 2.0
endloop
endfacet
facet normal -0.707106781186548 -0.707106781186547 0.0
outer loop
vertex -10.6066017177982 -10.6066017177982 0.0
vertex -12.9903810567666 -7.5 2.0
vertex -12.9903810567666 -7.5 0.0
endloop
endfacet
facet normal -0.965925826289068 -0.258819045102521 0.0
outer loop
vertex -14.488887394336 -3.88228567653781 2.0
vertex -12.9903810567666 -7.5 0.0
vertex -12.9903810567666 -7.5 2.0
endloop
endfacet
facet normal -0.866025403784439 -0.5 0.0
outer loop
vertex -12.9903810567666 -7.5 0.0
vertex -14.488887394336 -3.88228567653781 2.0
vertex -14.488887394336 -3.88228567653781 0.0
endloop
endfacet
facet normal -1.0 2.67333296869407e-016 0.0
outer loop
vertex -15.0 1.83697019872103e-015 2.0
vertex -14.488887394336 -3.88228567653781 0.0
vertex -14.488887394336 -3.88228567653781 2.0
endloop
endfacet
facet normal -0.965925826289068 -0.258819045102521 0.0
outer loop
vertex -14.488887394336 -3.88228567653781 0.0
vertex -15.0 1.83697019872103e-015 2.0
vertex -15.0 1.83697019872103e-015 0.0
endloop
endfacet
facet normal -0.965925826289068 0.258819045102521 0.0
outer loop
vertex -14.488887394336 3.88228567653782 2.0
vertex -15.0 1.83697019872103e-015 0.0
vertex -15.0 1.83697019872103e-015 2.0
endloop
endfacet
facet normal -1.0 2.67333296869407e-016 0.0
outer loop
vertex -15.0 1.83697019872103e-015 0.0
vertex -14.488887394336 3.88228567653782 2.0
vertex -14.488887394336 3.88228567653782 0.0
endloop
endfacet
facet normal -0.866025403784438 0.5 0.0
outer loop
vertex -12.9903810567666 7.50000000000001 2.0
vertex -14.488887394336 3.88228567653782 0.0
vertex -14.488887394336 3.88228567653782 2.0
endloop
endfacet
facet normal -0.965925826289068 0.258819045102521 0.0
outer loop
vertex -14.488887394336 3.88228567653782 0.0
vertex -12.9903810567666 7.50000000000001 2.0
vertex -12.9903810567666 7.50000000000001 0.0
endloop
endfacet
facet normal -0.707106781186547 0.707106781186548 0.0
outer loop
vertex -10.6066017177982 10.6066017177982 2.0
vertex -12.9903810567666 7.50000000000001 0.0
vertex -12.9903810567666 7.50000000000001 2.0
endloop
endfacet
facet normal -0.866025403784438 0.5 0.0
outer loop
vertex -12.9903810567666 7.50000000000001 0.0
vertex -10.6066017177982 10.6066017177982 2.0
vertex -10.6066017177982 10.6066017177982 0.0
endloop
endfacet
facet normal -0.707106781186547 0.707106781186548 0.0
outer loop
vertex -10.6066017177982 10.6066017177982 2.0
vertex -7.5 12.9903810567666 0.0
vertex -10.6066017177982 10.6066017177982 0.0
endloop
endfacet
facet normal -0.5 0.866025403784439 0.0
outer loop
vertex -7.5 12.9903810567666 0.0
vertex -10.6066017177982 10.6066017177982 2.0
vertex -7.5 12.9903810567666 2.0
endloop
endfacet
facet normal -0.5 0.866025403784439 0.0
outer loop
vertex -7.5 12.9903810567666 2.0
vertex -3.88228567653781 14.488887394336 0.0
vertex -7.5 12.9903810567666 0.0
endloop
endfacet
facet normal -0.258819045102521 0.965925826289068 0.0
outer loop
vertex -3.88228567653781 14.488887394336 0.0
vertex -7.5 12.9903810567666 2.0
vertex -3.88228567653781 14.488887394336 2.0
endloop
endfacet
facet normal -0.258819045102521 0.965925826289068 0.0
outer loop
vertex -3.88228567653781 14.488887394336 2.0
vertex 9.18485099360515e-016 15.0 0.0
vertex -3.88228567653781 14.488887394336 0.0
endloop
endfacet
facet normal -6.23777692695283e-017 1.0 0.0
outer loop
vertex 9.18485099360515e-016 15.0 0.0
vertex -3.88228567653781 14.488887394336 2.0
vertex 9.18485099360515e-016 15.0 2.0
endloop
endfacet
facet normal -6.23777692695283e-017 1.0 0.0
outer loop
vertex 9.18485099360515e-016 15.0 2.0
vertex 3.88228567653781 14.488887394336 0.0
vertex 9.18485099360515e-016 15.0 0.0
endloop
endfacet
facet normal 0.258819045102521 0.965925826289068 0.0
outer loop
vertex 3.88228567653781 14.488887394336 0.0
vertex 9.18485099360515e-016 15.0 2.0
vertex 3.88228567653781 14.488887394336 2.0
endloop
endfacet
facet normal 0.258819045102521 0.965925826289068 0.0
outer loop
vertex 3.88228567653781 14.488887394336 2.0
vertex 7.5 12.9903810567666 0.0
vertex 3.88228567653781 14.488887394336 0.0
endloop
endfacet
facet normal 0.5 0.866025403784439 0.0
outer loop
vertex 7.5 12.9903810567666 0.0
vertex 3.88228567653781 14.488887394336 2.0
vertex 7.5 12.9903810567666 2.0
endloop
endfacet
facet normal 0.5 0.866025403784439 0.0
outer loop
vertex 7.5 12.9903810567666 2.0
vertex 10.6066017177982 10.6066017177982 0.0
vertex 7.5 12.9903810567666 0.0
endloop
endfacet
facet normal 0.707106781186547 0.707106781186548 0.0
outer loop
vertex 10.6066017177982 10.6066017177982 0.0
vertex 7.5 12.9903810567666 2.0
vertex 10.6066017177982 10.6066017177982 2.0
endloop
endfacet
facet normal 0.707106781186547 0.707106781186548 0.0
outer loop
vertex 10.6066017177982 10.6066017177982 0.0
vertex 12.9903810567666 7.5 2.0
vertex 12.9903810567666 7.5 0.0
endloop
endfacet
facet normal 0.866025403784439 0.5 0.0
outer loop
vertex 12.9903810567666 7.5 2.0
vertex 10.6066017177982 10.6066017177982 0.0
vertex 10.6066017177982 10.6066017177982 2.0
endloop
endfacet
facet normal 0.866025403784439 0.5 0.0
outer loop
vertex 12.9903810567666 7.5 0.0
vertex 14.488887394336 3.88228567653781 2.0
vertex 14.488887394336 3.88228567653781 0.0
endloop
endfacet
facet normal 0.965925826289068 0.258819045102521 0.0
outer loop
vertex 14.488887394336 3.88228567653781 2.0
vertex 12.9903810567666 7.5 0.0
vertex 12.9903810567666 7.5 2.0
endloop
endfacet
facet normal 0.965925826289068 0.258819045102521 0.0
outer loop
vertex 14.488887394336 3.88228567653781 0.0
vertex 15.0 0.0 2.0
vertex 15.0 0.0 0.0
endloop
endfacet
facet normal 1.0 -1.42577758330351e-016 0.0
outer loop
vertex 15.0 0.0 2.0
vertex 14.488887394336 3.88228567653781 0.0
vertex 14.488887394336 3.88228567653781 2.0
endloop
endfacet
endsolid model
