solid model
facet normal 0.0 0.0 1.0
outer loop
vertex -16.0 -16.0 0.0
vertex -6.92820323027551 -4.0 0.0
vertex -16.0 16.0 0.0
endloop
endfacet
facet normal 0.0 0.0 1.0
outer loop
vertex -6.92820323027551 -4.0 0.0
vertex -16.0 -16.0 0.0
vertex -5.65685424949238 -5.65685424949238 0.0
endloop
endfacet
facet normal 0.0 0.0 1.0
outer loop
vertex -5.65685424949238 -5.65685424949238 0.0
vertex -16.0 -16.0 0.0
vertex -4.0 -6.92820323027551 0.0
endloop
endfacet
facet normal 0.0 0.0 1.0
outer loop
vertex -4.0 -6.92820323027551 0.0
vertex -16.0 -16.0 0.0
vertex 16.0 -16.0 0.0
endloop
endfacet
facet normal 0.0 0.0 1.0
outer loop
vertex -16.0 16.0 0.0
vertex -6.92820323027551 -4.0 0.0
vertex -7.72740661031254 -2.07055236082017 0.0
endloop
endfacet
facet normal 0.0 0.0 1.0
outer loop
vertex -16.0 16.0 0.0
vertex -7.72740661031254 -2.07055236082017 0.0
vertex -8.0 -9.79717439317882e-016 0.0
endloop
endfacet
facet normal 0.0 0.0 1.0
outer loop
vertex -4.0 -6.92820323027551 0.0
vertex 16.0 -16.0 0.0
vertex -2.07055236082016 -7.72740661031255 0.0
endloop
endfacet
facet normal 0.0 0.0 1.0
outer loop
vertex -2.07055236082016 -7.72740661031255 0.0
vertex 16.0 -16.0 0.0
vertex 4.89858719658941e-016 -8.0 0.0
endloop
endfacet
facet normal 0.0 0.0 1.0
outer loop
vertex 4.89858719658941e-016 -8.0 0.0
vertex 16.0 -16.0 0.0
vertex 2.07055236082017 -7.72740661031255 0.0
endloop
endfacet
facet normal 0.0 0.0 1.0
outer loop
vertex 2.07055236082017 -7.72740661031255 0.0
vertex 16.0 -16.0 0.0
vertex 4.0 -6.92820323027551 0.0
endloop
endfacet
facet normal 0.0 0.0 1.0
outer loop
vertex 4.0 -6.92820323027551 0.0
vertex 16.0 -16.0 0.0
vertex 5.65685424949238 -5.65685424949238 0.0
endloop
endfacet
facet normal 0.0 0.0 1.0
outer loop
vertex 5.65685424949238 -5.65685424949238 0.0
vertex 16.0 -16.0 0.0
vertex 6.92820323027551 -4.0 0.0
endloop
endfacet
facet normal 0.0 0.0 1.0
outer loop
vertex 6.92820323027551 -4.0 0.0
vertex 16.0 -16.0 0.0
vertex 7.72740661031254 -2.07055236082017 0.0
endloop
endfacet
facet normal 0.0 0.0 1.0
outer loop
vertex 7.72740661031254 -2.07055236082017 0.0
vertex 16.0 -16.0 0.0
vertex 8.0 0.0 0.0
endloop
endfacet
facet normal 0.0 0.0 1.0
outer loop
vertex -16.0 16.0 0.0
vertex -4.0 6.92820323027551 0.0
vertex 16.0 16.0 0.0
endloop
endfacet
facet normal 0.0 0.0 1.0
outer loop
vertex -4.0 6.92820323027551 0.0
vertex -16.0 16.0 0.0
vertex -5.65685424949238 5.65685424949238 0.0
endloop
endfacet
facet normal 0.0 0.0 1.0
outer loop
vertex -5.65685424949238 5.65685424949238 0.0
vertex -16.0 16.0 0.0
vertex -6.92820323027551 4.0 0.0
endloop
endfacet
facet normal 0.0 0.0 1.0
outer loop
vertex -6.92820323027551 4.0 0.0
vertex -16.0 16.0 0.0
vertex -7.72740661031255 2.07055236082016 0.0
endloop
endfacet
facet normal 0.0 0.0 1.0
outer loop
vertex -7.72740661031255 2.07055236082016 0.0
vertex -16.0 16.0 0.0
vertex -8.0 -9.79717439317882e-016 0.0
endloop
endfacet
facet normal 0.0 0.0 1.0
outer loop
vertex 16.0 16.0 0.0
vertex -4.0 6.92820323027551 0.0
vertex -2.07055236082017 7.72740661031254 0.0
endloop
endfacet
facet normal 0.0 0.0 1.0
outer loop
vertex 16.0 16.0 0.0
vertex -2.07055236082017 7.72740661031254 0.0
vertex -1.46957615897682e-015 8.0 0.0
endloop
endfacet
facet normal 0.0 0.0 1.0
outer loop
vertex 16.0 16.0 0.0
vertex -1.46957615897682e-015 8.0 0.0
vertex 2.07055236082016 7.72740661031255 0.0
endloop
endfacet
facet normal 0.0 0.0 1.0
outer loop
vertex 16.0 16.0 0.0
vertex 2.07055236082016 7.72740661031255 0.0
vertex 3.99999999999999 6.92820323027551 0.0
endloop
endfacet
facet normal 0.0 0.0 1.0
outer loop
vertex 16.0 16.0 0.0
vertex 3.99999999999999 6.92820323027551 0.0
vertex 5.65685424949238 5.65685424949238 0.0
endloop
endfacet
facet normal 0.0 0.0 1.0
outer loop
vertex 16.0 16.0 0.0
vertex 5.65685424949238 5.65685424949238 0.0
vertex 6.92820323027551 4.0 0.0
endloop
endfacet
facet normal 0.0 0.0 1.0
outer loop
vertex 16.0 16.0 0.0
vertex 6.92820323027551 4.0 0.0
vertex 7.72740661031254 2.07055236082017 0.0
endloop
endfacet
facet normal 0.0 0.0 1.0
outer loop
vertex 16.0 16.0 0.0
vertex 7.72740661031254 2.07055236082017 0.0
vertex 8.0 0.0 0.0
endloop
endfacet
facet normal 0.0 0.0 1.0
outer loop
vertex 16.0 16.0 0.0
vertex 8.0 0.0 0.0
vertex 16.0 -16.0 0.0
endloop
endfacet
facet normal 0.0 0.0 -1.0
outer loop
vertex 16.0 16.0 -2.0
vertex -16.0 -16.0 -2.0
vertex -16.0 16.0 -2.0
endloop
endfacet
facet normal 0.0 0.0 -1.0
outer loop
vertex -16.0 -16.0 -2.0
vertex 16.0 16.0 -2.0
vertex 16.0 -16.0 -2.0
endloop
endfacet
facet normal 1.0 0.0 0.0
outer loop
vertex 16.0 16.0 -2.0
vertex 16.0 -16.0 0.0
vertex 16.0 -16.0 -2.0
endloop
endfacet
facet normal 1.0 0.0 0.0
outer loop
vertex 16.0 -16.0 0.0
vertex 16.0 16.0 -2.0
vertex 16.0 16.0 0.0
endloop
endfacet
facet normal 0.0 -1.0 0.0
outer loop
vertex 16.0 -16.0 0.0
vertex -16.0 -16.0 -2.0
vertex 16.0 -16.0 -2.0
endloop
endfacet
facet normal 0.0 -1.0 0.0
outer loop
vertex -16.0 -16.0 -2.0
vertex 16.0 -16.0 0.0
vertex -16.0 -16.0 0.0
endloop
endfacet
facet normal -1.0 0.0 0.0
outer loop
vertex -16.0 16.0 0.0
vertex -16.0 -16.0 -2.0
vertex -16.0 -16.0 0.0
endloop
endfacet
facet normal -1.0 0.0 0.0
outer loop
vertex -16.0 -16.0 -2.0
vertex -16.0 16.0 0.0
vertex -16.0 16.0 -2.0
endloop
endfacet
facet normal 0.0 1.0 0.0
outer loop
vertex -16.0 16.0 0.0
vertex 16.0 16.0 -2.0
vertex -16.0 16.0 -2.0
endloop
endfacet
facet normal 0.0 1.0 0.0
outer loop
vertex 16.0 16.0 -2.0
vertex -16.0 16.0 0.0
vertex 16.0 16.0 0.0
endloop
endfacet
facet normal 0.0 0.0 1.0
outer loop
vertex -6.37511045350785 -1.70820569767664 0.0
vertex -6.37511045350785 1.70820569767663 0.0
vertex -6.6 -8.08266887437253e-016 0.0
endloop
endfacet
facet normal 0.0 0.0 1.0
outer loop
vertex -6.37511045350785 1.70820569767663 0.0
vertex -6.37511045350785 -1.70820569767664 0.0
vertex -5.7157676649773 3.3 0.0
endloop
endfacet
facet normal 0.0 0.0 1.0
outer loop
vertex -5.7157676649773 3.3 0.0
vertex -6.37511045350785 -1.70820569767664 0.0
vertex -5.71576766497729 -3.3 0.0
endloop
endfacet
facet normal 0.0 0.0 1.0
outer loop
vertex -5.7157676649773 3.3 0.0
vertex -5.71576766497729 -3.3 0.0
vertex -4.66690475583122 4.66690475583121 0.0
endloop
endfacet
facet normal 0.0 0.0 1.0
outer loop
vertex -4.66690475583122 4.66690475583121 0.0
vertex -5.71576766497729 -3.3 0.0
vertex -4.66690475583121 -4.66690475583121 0.0
endloop
endfacet
facet normal 0.0 0.0 1.0
outer loop
vertex -4.66690475583122 4.66690475583121 0.0
vertex -4.66690475583121 -4.66690475583121 0.0
vertex -3.3 5.71576766497729 0.0
endloop
endfacet
facet normal 0.0 0.0 1.0
outer loop
vertex -3.3 5.71576766497729 0.0
vertex -4.66690475583121 -4.66690475583121 0.0
vertex -3.3 -5.71576766497729 0.0
endloop
endfacet
facet normal 0.0 0.0 1.0
outer loop
vertex -3.3 5.71576766497729 0.0
vertex -3.3 -5.71576766497729 0.0
vertex -1.70820569767664 6.37511045350785 0.0
endloop
endfacet
facet normal 0.0 0.0 1.0
outer loop
vertex -1.70820569767664 6.37511045350785 0.0
vertex -3.3 -5.71576766497729 0.0
vertex -1.70820569767664 -6.37511045350785 0.0
endloop
endfacet
facet normal 0.0 0.0 1.0
outer loop
vertex -1.70820569767664 6.37511045350785 0.0
vertex -1.70820569767664 -6.37511045350785 0.0
vertex -1.21240033115588e-015 6.6 0.0
endloop
endfacet
facet normal 0.0 0.0 1.0
outer loop
vertex -1.21240033115588e-015 6.6 0.0
vertex -1.70820569767664 -6.37511045350785 0.0
vertex 4.04133443718627e-016 -6.6 0.0
endloop
endfacet
facet normal 0.0 0.0 1.0
outer loop
vertex -1.21240033115588e-015 6.6 0.0
vertex 4.04133443718627e-016 -6.6 0.0
vertex 1.70820569767663 6.37511045350785 0.0
endloop
endfacet
facet normal 0.0 0.0 1.0
outer loop
vertex 1.70820569767663 6.37511045350785 0.0
vertex 4.04133443718627e-016 -6.6 0.0
vertex 1.70820569767664 -6.37511045350785 0.0
endloop
endfacet
facet normal 0.0 0.0 1.0
outer loop
vertex 1.70820569767663 6.37511045350785 0.0
vertex 1.70820569767664 -6.37511045350785 0.0
vertex 3.3 5.7157676649773 0.0
endloop
endfacet
facet normal 0.0 0.0 1.0
outer loop
vertex 3.3 5.7157676649773 0.0
vertex 1.70820569767664 -6.37511045350785 0.0
vertex 3.3 -5.71576766497729 0.0
endloop
endfacet
facet normal 0.0 0.0 1.0
outer loop
vertex 3.3 5.7157676649773 0.0
vertex 3.3 -5.71576766497729 0.0
vertex 4.66690475583121 4.66690475583121 0.0
endloop
endfacet
facet normal 0.0 0.0 1.0
outer loop
vertex 4.66690475583121 4.66690475583121 0.0
vertex 3.3 -5.71576766497729 0.0
vertex 4.66690475583121 -4.66690475583121 0.0
endloop
endfacet
facet normal 0.0 0.0 1.0
outer loop
vertex 4.66690475583121 4.66690475583121 0.0
vertex 4.66690475583121 -4.66690475583121 0.0
vertex 5.71576766497729 3.3 0.0
endloop
endfacet
facet normal 0.0 0.0 1.0
outer loop
vertex 5.71576766497729 3.3 0.0
vertex 4.66690475583121 -4.66690475583121 0.0
vertex 5.71576766497729 -3.3 0.0
endloop
endfacet
facet normal 0.0 0.0 1.0
outer loop
vertex 5.71576766497729 3.3 0.0
vertex 5.71576766497729 -3.3 0.0
vertex 6.37511045350785 1.70820569767664 0.0
endloop
endfacet
facet normal 0.0 0.0 1.0
outer loop
vertex 6.37511045350785 1.70820569767664 0.0
vertex 5.71576766497729 -3.3 0.0
vertex 6.37511045350785 -1.70820569767664 0.0
endloop
endfacet
facet normal 0.0 0.0 1.0
outer loop
vertex 6.37511045350785 1.70820569767664 0.0
vertex 6.37511045350785 -1.70820569767664 0.0
vertex 6.6 0.0 0.0
endloop
endfacet
facet normal 0.0 0.0 1.0
outer loop
vertex -6.92820323027551 -4.0 2.0
vertex -6.37511045350785 -1.70820569767664 2.0
vertex -6.6 -8.08266887437253e-016 2.0
endloop
endfacet
facet normal 0.0 0.0 1.0
outer loop
vertex -6.37511045350785 -1.70820569767664 2.0
vertex -6.92820323027551 -4.0 2.0
vertex -5.65685424949238 -5.65685424949238 2.0
endloop
endfacet
facet normal 0.0 0.0 1.0
outer loop
vertex -6.37511045350785 -1.70820569767664 2.0
vertex -5.65685424949238 -5.65685424949238 2.0
vertex -5.71576766497729 -3.3 2.0
endloop
endfacet
facet normal 0.0 0.0 1.0
outer loop
vertex -5.71576766497729 -3.3 2.0
vertex -5.65685424949238 -5.65685424949238 2.0
vertex -4.66690475583121 -4.66690475583121 2.0
endloop
endfacet
facet normal 0.0 0.0 1.0
outer loop
vertex -4.66690475583121 -4.66690475583121 2.0
vertex -5.65685424949238 -5.65685424949238 2.0
vertex -4.0 -6.92820323027551 2.0
endloop
endfacet
facet normal 0.0 0.0 1.0
outer loop
vertex -4.66690475583121 -4.66690475583121 2.0
vertex -4.0 -6.92820323027551 2.0
vertex -3.3 -5.71576766497729 2.0
endloop
endfacet
facet normal 0.0 0.0 1.0
outer loop
vertex -3.3 -5.71576766497729 2.0
vertex -4.0 -6.92820323027551 2.0
vertex -2.07055236082016 -7.72740661031255 2.0
endloop
endfacet
facet normal 0.0 0.0 1.0
outer loop
vertex -3.3 -5.71576766497729 2.0
vertex -2.07055236082016 -7.72740661031255 2.0
vertex -1.70820569767664 -6.37511045350785 2.0
endloop
endfacet
facet normal 0.0 0.0 1.0
outer loop
vertex -1.70820569767664 -6.37511045350785 2.0
vertex -2.07055236082016 -7.72740661031255 2.0
vertex 4.89858719658941e-016 -8.0 2.0
endloop
endfacet
facet normal 0.0 0.0 1.0
outer loop
vertex -1.70820569767664 -6.37511045350785 2.0
vertex 4.89858719658941e-016 -8.0 2.0
vertex 4.04133443718627e-016 -6.6 2.0
endloop
endfacet
facet normal 0.0 0.0 1.0
outer loop
vertex 4.04133443718627e-016 -6.6 2.0
vertex 4.89858719658941e-016 -8.0 2.0
vertex 1.70820569767664 -6.37511045350785 2.0
endloop
endfacet
facet normal 0.0 0.0 1.0
outer loop
vertex 1.70820569767664 -6.37511045350785 2.0
vertex 4.89858719658941e-016 -8.0 2.0
vertex 2.07055236082017 -7.72740661031255 2.0
endloop
endfacet
facet normal 0.0 0.0 1.0
outer loop
vertex 1.70820569767664 -6.37511045350785 2.0
vertex 2.07055236082017 -7.72740661031255 2.0
vertex 3.3 -5.71576766497729 2.0
endloop
endfacet
facet normal 0.0 0.0 1.0
outer loop
vertex 3.3 -5.71576766497729 2.0
vertex 2.07055236082017 -7.72740661031255 2.0
vertex 4.0 -6.92820323027551 2.0
endloop
endfacet
facet normal 0.0 0.0 1.0
outer loop
vertex 3.3 -5.71576766497729 2.0
vertex 4.0 -6.92820323027551 2.0
vertex 4.66690475583121 -4.66690475583121 2.0
endloop
endfacet
facet normal 0.0 0.0 1.0
outer loop
vertex 4.66690475583121 -4.66690475583121 2.0
vertex 4.0 -6.92820323027551 2.0
vertex 5.65685424949238 -5.65685424949238 2.0
endloop
endfacet
facet normal 0.0 0.0 1.0
outer loop
vertex 4.66690475583121 -4.66690475583121 2.0
vertex 5.65685424949238 -5.65685424949238 2.0
vertex 5.71576766497729 -3.3 2.0
endloop
endfacet
facet normal 0.0 0.0 1.0
outer loop
vertex 5.71576766497729 -3.3 2.0
vertex 5.65685424949238 -5.65685424949238 2.0
vertex 6.92820323027551 -4.0 2.0
endloop
endfacet
facet normal 0.0 0.0 1.0
outer loop
vertex 5.71576766497729 -3.3 2.0
vertex 6.92820323027551 -4.0 2.0
vertex 6.37511045350785 -1.70820569767664 2.0
endloop
endfacet
facet normal 0.0 0.0 1.0
outer loop
vertex 6.37511045350785 -1.70820569767664 2.0
vertex 6.92820323027551 -4.0 2.0
vertex 6.6 0.0 2.0
endloop
endfacet
facet normal 0.0 0.0 1.0
outer loop
vertex 6.6 0.0 2.0
vertex 6.92820323027551 -4.0 2.0
vertex 6.92820323027551 4.0 2.0
endloop
endfacet
facet normal 0.0 0.0 1.0
outer loop
vertex 6.92820323027551 4.0 2.0
vertex 6.92820323027551 -4.0 2.0
vertex 7.72740661031254 2.07055236082017 2.0
endloop
endfacet
facet normal 0.0 0.0 1.0
outer loop
vertex 7.72740661031254 2.07055236082017 2.0
vertex 6.92820323027551 -4.0 2.0
vertex 7.72740661031254 -2.07055236082017 2.0
endloop
endfacet
facet normal 0.0 0.0 1.0
outer loop
vertex 7.72740661031254 2.07055236082017 2.0
vertex 7.72740661031254 -2.07055236082017 2.0
vertex 8.0 0.0 2.0
endloop
endfacet
facet normal 0.0 0.0 1.0
outer loop
vertex -7.72740661031254 -2.07055236082017 2.0
vertex -7.72740661031255 2.07055236082016 2.0
vertex -8.0 -9.79717439317882e-016 2.0
endloop
endfacet
facet normal 0.0 0.0 1.0
outer loop
vertex -7.72740661031255 2.07055236082016 2.0
vertex -7.72740661031254 -2.07055236082017 2.0
vertex -6.92820323027551 4.0 2.0
endloop
endfacet
facet normal 0.0 0.0 1.0
outer loop
vertex -6.92820323027551 4.0 2.0
vertex -7.72740661031254 -2.07055236082017 2.0
vertex -6.92820323027551 -4.0 2.0
endloop
endfacet
facet normal 0.0 0.0 1.0
outer loop
vertex -6.92820323027551 4.0 2.0
vertex -6.92820323027551 -4.0 2.0
vertex -6.6 -8.08266887437253e-016 2.0
endloop
endfacet
facet normal 0.0 0.0 1.0
outer loop
vertex -6.92820323027551 4.0 2.0
vertex -6.6 -8.08266887437253e-016 2.0
vertex -6.37511045350785 1.70820569767663 2.0
endloop
endfacet
facet normal 0.0 0.0 1.0
outer loop
vertex -6.92820323027551 4.0 2.0
vertex -6.37511045350785 1.70820569767663 2.0
vertex -5.65685424949238 5.65685424949238 2.0
endloop
endfacet
facet normal 0.0 0.0 1.0
outer loop
vertex -5.65685424949238 5.65685424949238 2.0
vertex -6.37511045350785 1.70820569767663 2.0
vertex -5.7157676649773 3.3 2.0
endloop
endfacet
facet normal 0.0 0.0 1.0
outer loop
vertex -5.65685424949238 5.65685424949238 2.0
vertex -5.7157676649773 3.3 2.0
vertex -4.66690475583122 4.66690475583121 2.0
endloop
endfacet
facet normal 0.0 0.0 1.0
outer loop
vertex -5.65685424949238 5.65685424949238 2.0
vertex -4.66690475583122 4.66690475583121 2.0
vertex -4.0 6.92820323027551 2.0
endloop
endfacet
facet normal 0.0 0.0 1.0
outer loop
vertex -4.0 6.92820323027551 2.0
vertex -4.66690475583122 4.66690475583121 2.0
vertex -3.3 5.71576766497729 2.0
endloop
endfacet
facet normal 0.0 0.0 1.0
outer loop
vertex -4.0 6.92820323027551 2.0
vertex -3.3 5.71576766497729 2.0
vertex -2.07055236082017 7.72740661031254 2.0
endloop
endfacet
facet normal 0.0 0.0 1.0
outer loop
vertex -2.07055236082017 7.72740661031254 2.0
vertex -3.3 5.71576766497729 2.0
vertex -1.70820569767664 6.37511045350785 2.0
endloop
endfacet
facet normal 0.0 0.0 1.0
outer loop
vertex -2.07055236082017 7.72740661031254 2.0
vertex -1.70820569767664 6.37511045350785 2.0
vertex -1.46957615897682e-015 8.0 2.0
endloop
endfacet
facet normal 0.0 0.0 1.0
outer loop
vertex -1.46957615897682e-015 8.0 2.0
vertex -1.70820569767664 6.37511045350785 2.0
vertex -1.21240033115588e-015 6.6 2.0
endloop
endfacet
facet normal 0.0 0.0 1.0
outer loop
vertex -1.46957615897682e-015 8.0 2.0
vertex -1.21240033115588e-015 6.6 2.0
vertex 2.07055236082016 7.72740661031255 2.0
endloop
endfacet
facet normal 0.0 0.0 1.0
outer loop
vertex 2.07055236082016 7.72740661031255 2.0
vertex -1.21240033115588e-015 6.6 2.0
vertex 1.70820569767663 6.37511045350785 2.0
endloop
endfacet
facet normal 0.0 0.0 1.0
outer loop
vertex 2.07055236082016 7.72740661031255 2.0
vertex 1.70820569767663 6.37511045350785 2.0
vertex 3.3 5.7157676649773 2.0
endloop
endfacet
facet normal 0.0 0.0 1.0
outer loop
vertex 2.07055236082016 7.72740661031255 2.0
vertex 3.3 5.7157676649773 2.0
vertex 3.99999999999999 6.92820323027551 2.0
endloop
endfacet
facet normal 0.0 0.0 1.0
outer loop
vertex 3.99999999999999 6.92820323027551 2.0
vertex 3.3 5.7157676649773 2.0
vertex 4.66690475583121 4.66690475583121 2.0
endloop
endfacet
facet normal 0.0 0.0 1.0
outer loop
vertex 3.99999999999999 6.92820323027551 2.0
vertex 4.66690475583121 4.66690475583121 2.0
vertex 5.65685424949238 5.65685424949238 2.0
endloop
endfacet
facet normal 0.0 0.0 1.0
outer loop
vertex 5.65685424949238 5.65685424949238 2.0
vertex 4.66690475583121 4.66690475583121 2.0
vertex 5.71576766497729 3.3 2.0
endloop
endfacet
facet normal 0.0 0.0 1.0
outer loop
vertex 5.65685424949238 5.65685424949238 2.0
vertex 5.71576766497729 3.3 2.0
vertex 6.92820323027551 4.0 2.0
endloop
endfacet
facet normal 0.0 0.0 1.0
outer loop
vertex 6.92820323027551 4.0 2.0
vertex 5.71576766497729 3.3 2.0
vertex 6.37511045350785 1.70820569767664 2.0
endloop
endfacet
facet normal 0.0 0.0 1.0
outer loop
vertex 6.92820323027551 4.0 2.0
vertex 6.37511045350785 1.70820569767664 2.0
vertex 6.6 0.0 2.0
endloop
endfacet
facet normal 0.5 0.866025403784439 0.0
outer loop
vertex 3.99999999999999 6.92820323027551 2.0
vertex 5.65685424949238 5.65685424949238 0.0
vertex 3.99999999999999 6.92820323027551 0.0
endloop
endfacet
facet normal 0.707106781186547 0.707106781186548 0.0
outer loop
vertex 5.65685424949238 5.65685424949238 0.0
vertex 3.99999999999999 6.92820323027551 2.0
vertex 5.65685424949238 5.65685424949238 2.0
endloop
endfacet
facet normal 0.25881904510252 0.965925826289069 0.0
outer loop
vertex 2.07055236082016 7.72740661031255 2.0
vertex 3.99999999999999 6.92820323027551 0.0
vertex 2.07055236082016 7.72740661031255 0.0
endloop
endfacet
facet normal 0.5 0.866025403784439 0.0
outer loop
vertex 3.99999999999999 6.92820323027551 0.0
vertex 2.07055236082016 7.72740661031255 2.0
vertex 3.99999999999999 6.92820323027551 2.0
endloop
endfacet
facet normal -4.63377714573639e-016 1.0 0.0
outer loop
vertex -1.46957615897682e-015 8.0 2.0
vertex 2.07055236082016 7.72740661031255 0.0
vertex -1.46957615897682e-015 8.0 0.0
endloop
endfacet
facet normal 0.25881904510252 0.965925826289069 0.0
outer loop
vertex 2.07055236082016 7.72740661031255 0.0
vertex -1.46957615897682e-015 8.0 2.0
vertex 2.07055236082016 7.72740661031255 2.0
endloop
endfacet
facet normal -0.258819045102521 0.965925826289068 0.0
outer loop
vertex -2.07055236082017 7.72740661031254 2.0
vertex -1.46957615897682e-015 8.0 0.0
vertex -2.07055236082017 7.72740661031254 0.0
endloop
endfacet
facet normal -4.63377714573639e-016 1.0 0.0
outer loop
vertex -1.46957615897682e-015 8.0 0.0
vertex -2.07055236082017 7.72740661031254 2.0
vertex -1.46957615897682e-015 8.0 2.0
endloop
endfacet
facet normal -0.5 0.866025403784438 0.0
outer loop
vertex -4.0 6.92820323027551 2.0
vertex -2.07055236082017 7.72740661031254 0.0
vertex -4.0 6.92820323027551 0.0
endloop
endfacet
facet normal -0.258819045102521 0.965925826289068 0.0
outer loop
vertex -2.07055236082017 7.72740661031254 0.0
vertex -4.0 6.92820323027551 2.0
vertex -2.07055236082017 7.72740661031254 2.0
endloop
endfacet
facet normal -0.707106781186548 0.707106781186547 0.0
outer loop
vertex -5.65685424949238 5.65685424949238 2.0
vertex -4.0 6.92820323027551 0.0
vertex -5.65685424949238 5.65685424949238 0.0
endloop
endfacet
facet normal -0.5 0.866025403784438 0.0
outer loop
vertex -4.0 6.92820323027551 0.0
vertex -5.65685424949238 5.65685424949238 2.0
vertex -4.0 6.92820323027551 2.0
endloop
endfacet
facet normal -0.707106781186548 0.707106781186547 0.0
outer loop
vertex -5.65685424949238 5.65685424949238 2.0
vertex -6.92820323027551 4.0 0.0
vertex -6.92820323027551 4.0 2.0
endloop
endfacet
facet normal -0.866025403784439 0.5 0.0
outer loop
vertex -6.92820323027551 4.0 0.0
vertex -5.65685424949238 5.65685424949238 2.0
vertex -5.65685424949238 5.65685424949238 0.0
endloop
endfacet
facet normal -0.866025403784439 0.5 0.0
outer loop
vertex -6.92820323027551 4.0 2.0
vertex -7.72740661031255 2.07055236082016 0.0
vertex -7.72740661031255 2.07055236082016 2.0
endloop
endfacet
facet normal -0.965925826289068 0.25881904510252 0.0
outer loop
vertex -7.72740661031255 2.07055236082016 0.0
vertex -6.92820323027551 4.0 2.0
vertex -6.92820323027551 4.0 0.0
endloop
endfacet
facet normal -0.965925826289068 0.25881904510252 0.0
outer loop
vertex -7.72740661031255 2.07055236082016 2.0
vertex -8.0 -9.79717439317882e-016 0.0
vertex -8.0 -9.79717439317882e-016 2.0
endloop
endfacet
facet normal -1.0 -2.40599967182466e-016 0.0
outer loop
vertex -8.0 -9.79717439317882e-016 0.0
vertex -7.72740661031255 2.07055236082016 2.0
vertex -7.72740661031255 2.07055236082016 0.0
endloop
endfacet
facet normal -1.0 -2.40599967182466e-016 0.0
outer loop
vertex -8.0 -9.79717439317882e-016 2.0
vertex -7.72740661031254 -2.07055236082017 0.0
vertex -7.72740661031254 -2.07055236082017 2.0
endloop
endfacet
facet normal -0.965925826289068 -0.258819045102521 0.0
outer loop
vertex -7.72740661031254 -2.07055236082017 0.0
vertex -8.0 -9.79717439317882e-016 2.0
vertex -8.0 -9.79717439317882e-016 0.0
endloop
endfacet
facet normal -0.965925826289068 -0.258819045102521 0.0
outer loop
vertex -7.72740661031254 -2.07055236082017 2.0
vertex -6.92820323027551 -4.0 0.0
vertex -6.92820323027551 -4.0 2.0
endloop
endfacet
facet normal -0.866025403784439 -0.5 0.0
outer loop
vertex -6.92820323027551 -4.0 0.0
vertex -7.72740661031254 -2.07055236082017 2.0
vertex -7.72740661031254 -2.07055236082017 0.0
endloop
endfacet
facet normal -0.866025403784439 -0.5 0.0
outer loop
vertex -6.92820323027551 -4.0 2.0
vertex -5.65685424949238 -5.65685424949238 0.0
vertex -5.65685424949238 -5.65685424949238 2.0
endloop
endfacet
facet normal -0.707106781186547 -0.707106781186548 0.0
outer loop
vertex -5.65685424949238 -5.65685424949238 0.0
vertex -6.92820323027551 -4.0 2.0
vertex -6.92820323027551 -4.0 0.0
endloop
endfacet
facet normal -0.5 -0.866025403784439 0.0
outer loop
vertex -4.0 -6.92820323027551 2.0
vertex -5.65685424949238 -5.65685424949238 0.0
vertex -4.0 -6.92820323027551 0.0
endloop
endfacet
facet normal -0.707106781186547 -0.707106781186548 0.0
outer loop
vertex -5.65685424949238 -5.65685424949238 0.0
vertex -4.0 -6.92820323027551 2.0
vertex -5.65685424949238 -5.65685424949238 2.0
endloop
endfacet
facet normal -0.258819045102521 -0.965925826289068 0.0
outer loop
vertex -2.07055236082016 -7.72740661031255 2.0
vertex -4.0 -6.92820323027551 0.0
vertex -2.07055236082016 -7.72740661031255 0.0
endloop
endfacet
facet normal -0.5 -0.866025403784439 0.0
outer loop
vertex -4.0 -6.92820323027551 0.0
vertex -2.07055236082016 -7.72740661031255 2.0
vertex -4.0 -6.92820323027551 2.0
endloop
endfacet
facet normal -5.34666593738814e-017 -1.0 0.0
outer loop
vertex 4.89858719658941e-016 -8.0 2.0
vertex -2.07055236082016 -7.72740661031255 0.0
vertex 4.89858719658941e-016 -8.0 0.0
endloop
endfacet
facet normal -0.258819045102521 -0.965925826289068 0.0
outer loop
vertex -2.07055236082016 -7.72740661031255 0.0
vertex 4.89858719658941e-016 -8.0 2.0
vertex -2.07055236082016 -7.72740661031255 2.0
endloop
endfacet
facet normal 0.258819045102521 -0.965925826289068 0.0
outer loop
vertex 2.07055236082017 -7.72740661031255 2.0
vertex 4.89858719658941e-016 -8.0 0.0
vertex 2.07055236082017 -7.72740661031255 0.0
endloop
endfacet
facet normal -5.34666593738814e-017 -1.0 0.0
outer loop
vertex 4.89858719658941e-016 -8.0 0.0
vertex 2.07055236082017 -7.72740661031255 2.0
vertex 4.89858719658941e-016 -8.0 2.0
endloop
endfacet
facet normal 0.5 -0.866025403784439 0.0
outer loop
vertex 4.0 -6.92820323027551 2.0
vertex 2.07055236082017 -7.72740661031255 0.0
vertex 4.0 -6.92820323027551 0.0
endloop
endfacet
facet normal 0.258819045102521 -0.965925826289068 0.0
outer loop
vertex 2.07055236082017 -7.72740661031255 0.0
vertex 4.0 -6.92820323027551 2.0
vertex 2.07055236082017 -7.72740661031255 2.0
endloop
endfacet
facet normal 0.707106781186548 -0.707106781186547 0.0
outer loop
vertex 5.65685424949238 -5.65685424949238 2.0
vertex 4.0 -6.92820323027551 0.0
vertex 5.65685424949238 -5.65685424949238 0.0
endloop
endfacet
facet normal 0.5 -0.866025403784439 0.0
outer loop
vertex 4.0 -6.92820323027551 0.0
vertex 5.65685424949238 -5.65685424949238 2.0
vertex 4.0 -6.92820323027551 2.0
endloop
endfacet
facet normal 0.866025403784439 -0.5 0.0
outer loop
vertex 6.92820323027551 -4.0 0.0
vertex 5.65685424949238 -5.65685424949238 2.0
vertex 5.65685424949238 -5.65685424949238 0.0
endloop
endfacet
facet normal 0.707106781186548 -0.707106781186547 0.0
outer loop
vertex 5.65685424949238 -5.65685424949238 2.0
vertex 6.92820323027551 -4.0 0.0
vertex 6.92820323027551 -4.0 2.0
endloop
endfacet
facet normal 0.965925826289068 -0.258819045102521 0.0
outer loop
vertex 7.72740661031254 -2.07055236082017 0.0
vertex 6.92820323027551 -4.0 2.0
vertex 6.92820323027551 -4.0 0.0
endloop
endfacet
facet normal 0.866025403784439 -0.5 0.0
outer loop
vertex 6.92820323027551 -4.0 2.0
vertex 7.72740661031254 -2.07055236082017 0.0
vertex 7.72740661031254 -2.07055236082017 2.0
endloop
endfacet
facet normal 1.0 1.42577758330351e-016 0.0
outer loop
vertex 8.0 0.0 0.0
vertex 7.72740661031254 -2.07055236082017 2.0
vertex 7.72740661031254 -2.07055236082017 0.0
endloop
endfacet
facet normal 0.965925826289068 -0.258819045102521 0.0
outer loop
vertex 7.72740661031254 -2.07055236082017 2.0
vertex 8.0 0.0 0.0
vertex 8.0 0.0 2.0
endloop
endfacet
facet normal 0.965925826289068 0.258819045102521 0.0
outer loop
vertex 7.72740661031254 2.07055236082017 0.0
vertex 8.0 0.0 2.0
vertex 8.0 0.0 0.0
endloop
endfacet
facet normal 1.0 1.42577758330351e-016 0.0
outer loop
vertex 8.0 0.0 2.0
vertex 7.72740661031254 2.07055236082017 0.0
vertex 7.72740661031254 2.07055236082017 2.0
endloop
endfacet
facet normal 0.866025403784439 0.5 0.0
outer loop
vertex 6.92820323027551 4.0 0.0
vertex 7.72740661031254 2.07055236082017 2.0
vertex 7.72740661031254 2.07055236082017 0.0
endloop
endfacet
facet normal 0.965925826289068 0.258819045102521 0.0
outer loop
vertex 7.72740661031254 2.07055236082017 2.0
vertex 6.92820323027551 4.0 0.0
vertex 6.92820323027551 4.0 2.0
endloop
endfacet
facet normal 0.707106781186547 0.707106781186548 0.0
outer loop
vertex 5.65685424949238 5.65685424949238 0.0
vertex 6.92820323027551 4.0 2.0
vertex 6.92820323027551 4.0 0.0
endloop
endfacet
facet normal 0.866025403784439 0.5 0.0
outer loop
vertex 6.92820323027551 4.0 2.0
vertex 5.65685424949238 5.65685424949238 0.0
vertex 5.65685424949238 5.65685424949238 2.0
endloop
endfacet
facet normal 1.0 2.94066626556348e-016 0.0
outer loop
vertex -6.6 -8.08266887437253e-016 0.0
vertex -6.37511045350785 -1.70820569767664 2.0
vertex -6.37511045350785 -1.70820569767664 0.0
endloop
endfacet
facet normal 0.965925826289068 0.258819045102521 0.0
outer loop
vertex -6.37511045350785 -1.70820569767664 2.0
vertex -6.6 -8.08266887437253e-016 0.0
vertex -6.6 -8.08266887437253e-016 2.0
endloop
endfacet
facet normal 0.965925826289068 -0.258819045102521 0.0
outer loop
vertex -6.37511045350785 1.70820569767663 0.0
vertex -6.6 -8.08266887437253e-016 2.0
vertex -6.6 -8.08266887437253e-016 0.0
endloop
endfacet
facet normal 1.0 2.94066626556348e-016 0.0
outer loop
vertex -6.6 -8.08266887437253e-016 2.0
vertex -6.37511045350785 1.70820569767663 0.0
vertex -6.37511045350785 1.70820569767663 2.0
endloop
endfacet
facet normal 0.866025403784439 -0.5 0.0
outer loop
vertex -5.7157676649773 3.3 0.0
vertex -6.37511045350785 1.70820569767663 2.0
vertex -6.37511045350785 1.70820569767663 0.0
endloop
endfacet
facet normal 0.965925826289068 -0.258819045102521 0.0
outer loop
vertex -6.37511045350785 1.70820569767663 2.0
vertex -5.7157676649773 3.3 0.0
vertex -5.7157676649773 3.3 2.0
endloop
endfacet
facet normal 0.707106781186548 -0.707106781186547 0.0
outer loop
vertex -4.66690475583122 4.66690475583121 0.0
vertex -5.7157676649773 3.3 2.0
vertex -5.7157676649773 3.3 0.0
endloop
endfacet
facet normal 0.866025403784439 -0.5 0.0
outer loop
vertex -5.7157676649773 3.3 2.0
vertex -4.66690475583122 4.66690475583121 0.0
vertex -4.66690475583122 4.66690475583121 2.0
endloop
endfacet
facet normal 0.5 -0.866025403784438 0.0
outer loop
vertex -3.3 5.71576766497729 2.0
vertex -4.66690475583122 4.66690475583121 0.0
vertex -3.3 5.71576766497729 0.0
endloop
endfacet
facet normal 0.707106781186548 -0.707106781186547 0.0
outer loop
vertex -4.66690475583122 4.66690475583121 0.0
vertex -3.3 5.71576766497729 2.0
vertex -4.66690475583122 4.66690475583121 2.0
endloop
endfacet
facet normal 0.258819045102521 -0.965925826289068 0.0
outer loop
vertex -1.70820569767664 6.37511045350785 2.0
vertex -3.3 5.71576766497729 0.0
vertex -1.70820569767664 6.37511045350785 0.0
endloop
endfacet
facet normal 0.5 -0.866025403784438 0.0
outer loop
vertex -3.3 5.71576766497729 0.0
vertex -1.70820569767664 6.37511045350785 2.0
vertex -3.3 5.71576766497729 2.0
endloop
endfacet
facet normal 5.88133253112696e-016 -1.0 0.0
outer loop
vertex -1.21240033115588e-015 6.6 2.0
vertex -1.70820569767664 6.37511045350785 0.0
vertex -1.21240033115588e-015 6.6 0.0
endloop
endfacet
facet normal 0.258819045102521 -0.965925826289068 0.0
outer loop
vertex -1.70820569767664 6.37511045350785 0.0
vertex -1.21240033115588e-015 6.6 2.0
vertex -1.70820569767664 6.37511045350785 2.0
endloop
endfacet
facet normal -0.25881904510252 -0.965925826289068 0.0
outer loop
vertex 1.70820569767663 6.37511045350785 2.0
vertex -1.21240033115588e-015 6.6 0.0
vertex 1.70820569767663 6.37511045350785 0.0
endloop
endfacet
facet normal 5.88133253112696e-016 -1.0 0.0
outer loop
vertex -1.21240033115588e-015 6.6 0.0
vertex 1.70820569767663 6.37511045350785 2.0
vertex -1.21240033115588e-015 6.6 2.0
endloop
endfacet
facet normal -0.5 -0.866025403784439 0.0
outer loop
vertex 3.3 5.7157676649773 2.0
vertex 1.70820569767663 6.37511045350785 0.0
vertex 3.3 5.7157676649773 0.0
endloop
endfacet
facet normal -0.25881904510252 -0.965925826289068 0.0
outer loop
vertex 1.70820569767663 6.37511045350785 0.0
vertex 3.3 5.7157676649773 2.0
vertex 1.70820569767663 6.37511045350785 2.0
endloop
endfacet
facet normal -0.707106781186547 -0.707106781186548 0.0
outer loop
vertex 4.66690475583121 4.66690475583121 2.0
vertex 3.3 5.7157676649773 0.0
vertex 4.66690475583121 4.66690475583121 0.0
endloop
endfacet
facet normal -0.5 -0.866025403784439 0.0
outer loop
vertex 3.3 5.7157676649773 0.0
vertex 4.66690475583121 4.66690475583121 2.0
vertex 3.3 5.7157676649773 2.0
endloop
endfacet
facet normal -0.707106781186547 -0.707106781186548 0.0
outer loop
vertex 4.66690475583121 4.66690475583121 2.0
vertex 5.71576766497729 3.3 0.0
vertex 5.71576766497729 3.3 2.0
endloop
endfacet
facet normal -0.866025403784439 -0.5 0.0
outer loop
vertex 5.71576766497729 3.3 0.0
vertex 4.66690475583121 4.66690475583121 2.0
vertex 4.66690475583121 4.66690475583121 0.0
endloop
endfacet
facet normal -0.866025403784439 -0.5 0.0
outer loop
vertex 5.71576766497729 3.3 2.0
vertex 6.37511045350785 1.70820569767664 0.0
vertex 6.37511045350785 1.70820569767664 2.0
endloop
endfacet
facet normal -0.965925826289068 -0.258819045102521 0.0
outer loop
vertex 6.37511045350785 1.70820569767664 0.0
vertex 5.71576766497729 3.3 2.0
vertex 5.71576766497729 3.3 0.0
endloop
endfacet
facet normal -0.965925826289068 -0.258819045102521 0.0
outer loop
vertex 6.37511045350785 1.70820569767664 2.0
vertex 6.6 0.0 0.0
vertex 6.6 0.0 2.0
endloop
endfacet
facet normal -1.0 -5.88133253112696e-016 0.0
outer loop
vertex 6.6 0.0 0.0
vertex 6.37511045350785 1.70820569767664 2.0
vertex 6.37511045350785 1.70820569767664 0.0
endloop
endfacet
facet normal -1.0 -5.88133253112696e-016 0.0
outer loop
vertex 6.6 0.0 2.0
vertex 6.37511045350785 -1.70820569767664 0.0
vertex 6.37511045350785 -1.70820569767664 2.0
endloop
endfacet
facet normal -0.965925826289068 0.258819045102521 0.0
outer loop
vertex 6.37511045350785 -1.70820569767664 0.0
vertex 6.6 0.0 2.0
vertex 6.6 0.0 0.0
endloop
endfacet
facet normal -0.965925826289068 0.258819045102521 0.0
outer loop
vertex 6.37511045350785 -1.70820569767664 2.0
vertex 5.71576766497729 -3.3 0.0
vertex 5.71576766497729 -3.3 2.0
endloop
endfacet
facet normal -0.866025403784439 0.5 0.0
outer loop
vertex 5.71576766497729 -3.3 0.0
vertex 6.37511045350785 -1.70820569767664 2.0
vertex 6.37511045350785 -1.70820569767664 0.0
endloop
endfacet
facet normal -0.866025403784439 0.5 0.0
outer loop
vertex 5.71576766497729 -3.3 2.0
vertex 4.66690475583121 -4.66690475583121 0.0
vertex 4.66690475583121 -4.66690475583121 2.0
endloop
endfacet
facet normal -0.707106781186548 0.707106781186547 0.0
outer loop
vertex 4.66690475583121 -4.66690475583121 0.0
vertex 5.71576766497729 -3.3 2.0
vertex 5.71576766497729 -3.3 0.0
endloop
endfacet
facet normal -0.5 0.866025403784439 0.0
outer loop
vertex 3.3 -5.71576766497729 2.0
vertex 4.66690475583121 -4.66690475583121 0.0
vertex 3.3 -5.71576766497729 0.0
endloop
endfacet
facet normal -0.707106781186548 0.707106781186547 0.0
outer loop
vertex 4.66690475583121 -4.66690475583121 0.0
vertex 3.3 -5.71576766497729 2.0
vertex 4.66690475583121 -4.66690475583121 2.0
endloop
endfacet
facet normal -0.258819045102521 0.965925826289068 0.0
outer loop
vertex 1.70820569767664 -6.37511045350785 2.0
vertex 3.3 -5.71576766497729 0.0
vertex 1.70820569767664 -6.37511045350785 0.0
endloop
endfacet
facet normal -0.5 0.866025403784439 0.0
outer loop
vertex 3.3 -5.71576766497729 0.0
vertex 1.70820569767664 -6.37511045350785 2.0
vertex 3.3 -5.71576766497729 2.0
endloop
endfacet
facet normal -3.38622176034582e-016 1.0 0.0
outer loop
vertex 4.04133443718627e-016 -6.6 2.0
vertex 1.70820569767664 -6.37511045350785 0.0
vertex 4.04133443718627e-016 -6.6 0.0
endloop
endfacet
facet normal -0.258819045102521 0.965925826289068 0.0
outer loop
vertex 1.70820569767664 -6.37511045350785 0.0
vertex 4.04133443718627e-016 -6.6 2.0
vertex 1.70820569767664 -6.37511045350785 2.0
endloop
endfacet
facet normal 0.258819045102521 0.965925826289068 0.0
outer loop
vertex -1.70820569767664 -6.37511045350785 2.0
vertex 4.04133443718627e-016 -6.6 0.0
vertex -1.70820569767664 -6.37511045350785 0.0
endloop
endfacet
facet normal -3.38622176034582e-016 1.0 0.0
outer loop
vertex 4.04133443718627e-016 -6.6 0.0
vertex -1.70820569767664 -6.37511045350785 2.0
vertex 4.04133443718627e-016 -6.6 2.0
endloop
endfacet
facet normal 0.5 0.866025403784439 0.0
outer loop
vertex -3.3 -5.71576766497729 2.0
vertex -1.70820569767664 -6.37511045350785 0.0
vertex -3.3 -5.71576766497729 0.0
endloop
endfacet
facet normal 0.258819045102521 0.965925826289068 0.0
outer loop
vertex -1.70820569767664 -6.37511045350785 0.0
vertex -3.3 -5.71576766497729 2.0
vertex -1.70820569767664 -6.37511045350785 2.0
endloop
endfacet
facet normal 0.707106781186547 0.707106781186548 0.0
outer loop
vertex -4.66690475583121 -4.66690475583121 2.0
vertex -3.3 -5.71576766497729 0.0
vertex -4.66690475583121 -4.66690475583121 0.0
endloop
endfacet
facet normal 0.5 0.866025403784439 0.0
outer loop
vertex -3.3 -5.71576766497729 0.0
vertex -4.66690475583121 -4.66690475583121 2.0
vertex -3.3 -5.71576766497729 2.0
endloop
endfacet
facet normal 0.866025403784439 0.5 0.0
outer loop
vertex -5.71576766497729 -3.3 0.0
vertex -4.66690475583121 -4.66690475583121 2.0
vertex -4.66690475583121 -4.66690475583121 0.0
endloop
endfacet
facet normal 0.707106781186547 0.707106781186548 0.0
outer loop
vertex -4.66690475583121 -4.66690475583121 2.0
vertex -5.71576766497729 -3.3 0.0
vertex -5.71576766497729 -3.3 2.0
endloop
endfacet
facet normal 0.965925826289068 0.258819045102521 0.0
outer loop
vertex -6.37511045350785 -1.70820569767664 0.0
vertex -5.71576766497729 -3.3 2.0
vertex -5.71576766497729 -3.3 0.0
endloop
endfacet
facet normal 0.866025403784439 0.5 0.0
outer loop
vertex -5.71576766497729 -3.3 2.0
vertex -6.37511045350785 -1.70820569767664 0.0
vertex -6.37511045350785 -1.70820569767664 2.0
endloop
endfacet
endsolid model
