solid model
facet normal 0.0 0.0 -1.0
outer loop
vertex -14.866338335465 1.99799511898416 -2.0
vertex -13.8736242192592 -5.70285463805489 -2.0
vertex -14.8768993293918 -1.91777640592974 -2.0
endloop
endfacet
facet normal 0.0 0.0 -1.0
outer loop
vertex -13.8736242192592 -5.70285463805489 -2.0
vertex -14.866338335465 1.99799511898416 -2.0
vertex -13.8426609517619 5.77760657838234 -2.0
endloop
endfacet
facet normal 0.0 0.0 -1.0
outer loop
vertex -13.8736242192592 -5.70285463805489 -2.0
vertex -13.8426609517619 5.77760657838234 -2.0
vertex -11.9248845458321 -9.09929275100949 -2.0
endloop
endfacet
facet normal 0.0 0.0 -1.0
outer loop
vertex -11.9248845458321 -9.09929275100949 -2.0
vertex -13.8426609517619 5.77760657838234 -2.0
vertex -11.8756291002751 9.16348369741008 -2.0
endloop
endfacet
facet normal 0.0 0.0 -1.0
outer loop
vertex -11.9248845458321 -9.09929275100949 -2.0
vertex -11.8756291002751 9.16348369741008 -2.0
vertex -9.16348369741008 -11.8756291002751 -2.0
endloop
endfacet
facet normal 0.0 0.0 -1.0
outer loop
vertex -9.16348369741008 -11.8756291002751 -2.0
vertex -11.8756291002751 9.16348369741008 -2.0
vertex -9.09929275100949 11.9248845458321 -2.0
endloop
endfacet
facet normal 0.0 0.0 -1.0
outer loop
vertex -9.16348369741008 -11.8756291002751 -2.0
vertex -9.09929275100949 11.9248845458321 -2.0
vertex -5.77760657838234 -13.8426609517619 -2.0
endloop
endfacet
facet normal 0.0 0.0 -1.0
outer loop
vertex -5.77760657838234 -13.8426609517619 -2.0
vertex -9.09929275100949 11.9248845458321 -2.0
vertex -5.70285463805489 13.8736242192592 -2.0
endloop
endfacet
facet normal 0.0 0.0 -1.0
outer loop
vertex -5.77760657838234 -13.8426609517619 -2.0
vertex -5.70285463805489 13.8736242192592 -2.0
vertex -1.99799511898417 -14.866338335465 -2.0
endloop
endfacet
facet normal 0.0 0.0 -1.0
outer loop
vertex -1.99799511898417 -14.866338335465 -2.0
vertex -5.70285463805489 13.8736242192592 -2.0
vertex -1.91777640592974 14.8768993293918 -2.0
endloop
endfacet
facet normal 0.0 0.0 -1.0
outer loop
vertex -1.99799511898417 -14.866338335465 -2.0
vertex -1.91777640592974 14.8768993293918 -2.0
vertex 1.91777640592974 -14.8768993293918 -2.0
endloop
endfacet
facet normal 0.0 0.0 -1.0
outer loop
vertex 1.91777640592974 -14.8768993293918 -2.0
vertex -1.91777640592974 14.8768993293918 -2.0
vertex 1.99799511898416 14.866338335465 -2.0
endloop
endfacet
facet normal 0.0 0.0 -1.0
outer loop
vertex 1.91777640592974 -14.8768993293918 -2.0
vertex 1.99799511898416 14.866338335465 -2.0
vertex 5.70285463805488 -13.8736242192592 -2.0
endloop
endfacet
facet normal 0.0 0.0 -1.0
outer loop
vertex 5.70285463805488 -13.8736242192592 -2.0
vertex 1.99799511898416 14.866338335465 -2.0
vertex 5.77760657838234 13.8426609517619 -2.0
endloop
endfacet
facet normal 0.0 0.0 -1.0
outer loop
vertex 5.70285463805488 -13.8736242192592 -2.0
vertex 5.77760657838234 13.8426609517619 -2.0
vertex 9.09929275100949 -11.9248845458321 -2.0
endloop
endfacet
facet normal 0.0 0.0 -1.0
outer loop
vertex 9.09929275100949 -11.9248845458321 -2.0
vertex 5.77760657838234 13.8426609517619 -2.0
vertex 9.16348369741008 11.8756291002751 -2.0
endloop
endfacet
facet normal 0.0 0.0 -1.0
outer loop
vertex 9.09929275100949 -11.9248845458321 -2.0
vertex 9.16348369741008 11.8756291002751 -2.0
vertex 11.8756291002751 -9.16348369741009 -2.0
endloop
endfacet
facet normal 0.0 0.0 -1.0
outer loop
vertex 11.8756291002751 -9.16348369741009 -2.0
vertex 9.16348369741008 11.8756291002751 -2.0
vertex 11.9248845458321 9.09929275100949 -2.0
endloop
endfacet
facet normal 0.0 0.0 -1.0
outer loop
vertex 11.8756291002751 -9.16348369741009 -2.0
vertex 11.9248845458321 9.09929275100949 -2.0
vertex 13.8426609517619 -5.77760657838235 -2.0
endloop
endfacet
facet normal 0.0 0.0 -1.0
outer loop
vertex 13.8426609517619 -5.77760657838235 -2.0
vertex 11.9248845458321 9.09929275100949 -2.0
vertex 13.8736242192592 5.70285463805488 -2.0
endloop
endfacet
facet normal 0.0 0.0 -1.0
outer loop
vertex 13.8426609517619 -5.77760657838235 -2.0
vertex 13.8736242192592 5.70285463805488 -2.0
vertex 14.866338335465 -1.99799511898416 -2.0
endloop
endfacet
facet normal 0.0 0.0 -1.0
outer loop
vertex 14.866338335465 -1.99799511898416 -2.0
vertex 13.8736242192592 5.70285463805488 -2.0
vertex 14.8768993293918 1.91777640592974 -2.0
endloop
endfacet
facet normal 0.794992303055476 0.606619516733966 0.0
outer loop
vertex 11.9248845458321 9.09929275100949 -2.0
vertex 13.8736242192592 5.70285463805488 2.0
vertex 13.8736242192592 5.70285463805488 -2.0
endloop
endfacet
facet normal 0.924908281283947 0.380190309203659 0.0
outer loop
vertex 13.8736242192592 5.70285463805488 2.0
vertex 11.9248845458321 9.09929275100949 -2.0
vertex 11.9248845458321 9.09929275100949 2.0
endloop
endfacet
facet normal 0.924908281283947 0.380190309203659 0.0
outer loop
vertex 13.8736242192592 5.70285463805488 -2.0
vertex 14.8768993293918 1.91777640592974 2.0
vertex 14.8768993293918 1.91777640592974 -2.0
endloop
endfacet
facet normal 0.991793288626122 0.127851760395316 0.0
outer loop
vertex 14.8768993293918 1.91777640592974 2.0
vertex 13.8736242192592 5.70285463805488 -2.0
vertex 13.8736242192592 5.70285463805488 2.0
endloop
endfacet
facet normal 0.991793288626122 0.127851760395316 0.0
outer loop
vertex 14.8768993293918 1.91777640592974 -2.0
vertex 14.866338335465 -1.99799511898416 2.0
vertex 14.866338335465 -1.99799511898416 -2.0
endloop
endfacet
facet normal 0.991089222364332 -0.133199674598944 0.0
outer loop
vertex 14.866338335465 -1.99799511898416 2.0
vertex 14.8768993293918 1.91777640592974 -2.0
vertex 14.8768993293918 1.91777640592974 2.0
endloop
endfacet
facet normal 0.991089222364332 -0.133199674598944 0.0
outer loop
vertex 14.866338335465 -1.99799511898416 -2.0
vertex 13.8426609517619 -5.77760657838235 2.0
vertex 13.8426609517619 -5.77760657838235 -2.0
endloop
endfacet
facet normal 0.922844063450792 -0.385173771892156 0.0
outer loop
vertex 13.8426609517619 -5.77760657838235 2.0
vertex 14.866338335465 -1.99799511898416 -2.0
vertex 14.866338335465 -1.99799511898416 2.0
endloop
endfacet
facet normal 0.922844063450792 -0.385173771892156 0.0
outer loop
vertex 13.8426609517619 -5.77760657838235 -2.0
vertex 11.8756291002751 -9.16348369741009 2.0
vertex 11.8756291002751 -9.16348369741009 -2.0
endloop
endfacet
facet normal 0.791708606685003 -0.610898913160673 0.0
outer loop
vertex 11.8756291002751 -9.16348369741009 2.0
vertex 13.8426609517619 -5.77760657838235 -2.0
vertex 13.8426609517619 -5.77760657838235 2.0
endloop
endfacet
facet normal 0.791708606685003 -0.610898913160673 0.0
outer loop
vertex 11.8756291002751 -9.16348369741009 2.0
vertex 9.09929275100949 -11.9248845458321 -2.0
vertex 11.8756291002751 -9.16348369741009 -2.0
endloop
endfacet
facet normal 0.606619516733966 -0.794992303055476 0.0
outer loop
vertex 9.09929275100949 -11.9248845458321 -2.0
vertex 11.8756291002751 -9.16348369741009 2.0
vertex 9.09929275100949 -11.9248845458321 2.0
endloop
endfacet
facet normal 0.606619516733966 -0.794992303055476 0.0
outer loop
vertex 9.09929275100949 -11.9248845458321 2.0
vertex 5.70285463805488 -13.8736242192592 -2.0
vertex 9.09929275100949 -11.9248845458321 -2.0
endloop
endfacet
facet normal 0.380190309203659 -0.924908281283947 0.0
outer loop
vertex 5.70285463805488 -13.8736242192592 -2.0
vertex 9.09929275100949 -11.9248845458321 2.0
vertex 5.70285463805488 -13.8736242192592 2.0
endloop
endfacet
facet normal 0.380190309203659 -0.924908281283947 0.0
outer loop
vertex 5.70285463805488 -13.8736242192592 2.0
vertex 1.91777640592974 -14.8768993293918 -2.0
vertex 5.70285463805488 -13.8736242192592 -2.0
endloop
endfacet
facet normal 0.127851760395316 -0.991793288626122 0.0
outer loop
vertex 1.91777640592974 -14.8768993293918 -2.0
vertex 5.70285463805488 -13.8736242192592 2.0
vertex 1.91777640592974 -14.8768993293918 2.0
endloop
endfacet
facet normal 0.127851760395316 -0.991793288626122 0.0
outer loop
vertex 1.91777640592974 -14.8768993293918 2.0
vertex -1.99799511898417 -14.866338335465 -2.0
vertex 1.91777640592974 -14.8768993293918 -2.0
endloop
endfacet
facet normal -0.133199674598944 -0.991089222364332 0.0
outer loop
vertex -1.99799511898417 -14.866338335465 -2.0
vertex 1.91777640592974 -14.8768993293918 2.0
vertex -1.99799511898417 -14.866338335465 2.0
endloop
endfacet
facet normal -0.133199674598944 -0.991089222364332 0.0
outer loop
vertex -1.99799511898417 -14.866338335465 2.0
vertex -5.77760657838234 -13.8426609517619 -2.0
vertex -1.99799511898417 -14.866338335465 -2.0
endloop
endfacet
facet normal -0.385173771892156 -0.922844063450792 0.0
outer loop
vertex -5.77760657838234 -13.8426609517619 -2.0
vertex -1.99799511898417 -14.866338335465 2.0
vertex -5.77760657838234 -13.8426609517619 2.0
endloop
endfacet
facet normal -0.385173771892156 -0.922844063450792 0.0
outer loop
vertex -5.77760657838234 -13.8426609517619 2.0
vertex -9.16348369741008 -11.8756291002751 -2.0
vertex -5.77760657838234 -13.8426609517619 -2.0
endloop
endfacet
facet normal -0.610898913160672 -0.791708606685003 0.0
outer loop
vertex -9.16348369741008 -11.8756291002751 -2.0
vertex -5.77760657838234 -13.8426609517619 2.0
vertex -9.16348369741008 -11.8756291002751 2.0
endloop
endfacet
facet normal -0.794992303055476 -0.606619516733966 0.0
outer loop
vertex -11.9248845458321 -9.09929275100949 2.0
vertex -9.16348369741008 -11.8756291002751 -2.0
vertex -9.16348369741008 -11.8756291002751 2.0
endloop
endfacet
facet normal -0.610898913160672 -0.791708606685003 0.0
outer loop
vertex -9.16348369741008 -11.8756291002751 -2.0
vertex -11.9248845458321 -9.09929275100949 2.0
vertex -11.9248845458321 -9.09929275100949 -2.0
endloop
endfacet
facet normal -0.924908281283947 -0.38019030920366 0.0
outer loop
vertex -13.8736242192592 -5.70285463805489 2.0
vertex -11.9248845458321 -9.09929275100949 -2.0
vertex -11.9248845458321 -9.09929275100949 2.0
endloop
endfacet
facet normal -0.794992303055476 -0.606619516733966 0.0
outer loop
vertex -11.9248845458321 -9.09929275100949 -2.0
vertex -13.8736242192592 -5.70285463805489 2.0
vertex -13.8736242192592 -5.70285463805489 -2.0
endloop
endfacet
facet normal -0.991793288626122 -0.127851760395316 0.0
outer loop
vertex -14.8768993293918 -1.91777640592974 2.0
vertex -13.8736242192592 -5.70285463805489 -2.0
vertex -13.8736242192592 -5.70285463805489 2.0
endloop
endfacet
facet normal -0.924908281283947 -0.38019030920366 0.0
outer loop
vertex -13.8736242192592 -5.70285463805489 -2.0
vertex -14.8768993293918 -1.91777640592974 2.0
vertex -14.8768993293918 -1.91777640592974 -2.0
endloop
endfacet
facet normal -0.991089222364332 0.133199674598944 0.0
outer loop
vertex -14.866338335465 1.99799511898416 2.0
vertex -14.8768993293918 -1.91777640592974 -2.0
vertex -14.8768993293918 -1.91777640592974 2.0
endloop
endfacet
facet normal -0.991793288626122 -0.127851760395316 0.0
outer loop
vertex -14.8768993293918 -1.91777640592974 -2.0
vertex -14.866338335465 1.99799511898416 2.0
vertex -14.866338335465 1.99799511898416 -2.0
endloop
endfacet
facet normal -0.922844063450792 0.385173771892156 0.0
outer loop
vertex -13.8426609517619 5.77760657838234 2.0
vertex -14.866338335465 1.99799511898416 -2.0
vertex -14.866338335465 1.99799511898416 2.0
endloop
endfacet
facet normal -0.991089222364332 0.133199674598944 0.0
outer loop
vertex -14.866338335465 1.99799511898416 -2.0
vertex -13.8426609517619 5.77760657838234 2.0
vertex -13.8426609517619 5.77760657838234 -2.0
endloop
endfacet
facet normal -0.791708606685003 0.610898913160672 0.0
outer loop
vertex -11.8756291002751 9.16348369741008 2.0
vertex -13.8426609517619 5.77760657838234 -2.0
vertex -13.8426609517619 5.77760657838234 2.0
endloop
endfacet
facet normal -0.922844063450792 0.385173771892156 0.0
outer loop
vertex -13.8426609517619 5.77760657838234 -2.0
vertex -11.8756291002751 9.16348369741008 2.0
vertex -11.8756291002751 9.16348369741008 -2.0
endloop
endfacet
facet normal -0.791708606685003 0.610898913160672 0.0
outer loop
vertex -11.8756291002751 9.16348369741008 2.0
vertex -9.09929275100949 11.9248845458321 -2.0
vertex -11.8756291002751 9.16348369741008 -2.0
endloop
endfacet
facet normal -0.606619516733966 0.794992303055476 0.0
outer loop
vertex -9.09929275100949 11.9248845458321 -2.0
vertex -11.8756291002751 9.16348369741008 2.0
vertex -9.09929275100949 11.9248845458321 2.0
endloop
endfacet
facet normal -0.606619516733966 0.794992303055476 0.0
outer loop
vertex -9.09929275100949 11.9248845458321 2.0
vertex -5.70285463805489 13.8736242192592 -2.0
vertex -9.09929275100949 11.9248845458321 -2.0
endloop
endfacet
facet normal -0.38019030920366 0.924908281283947 0.0
outer loop
vertex -5.70285463805489 13.8736242192592 -2.0
vertex -9.09929275100949 11.9248845458321 2.0
vertex -5.70285463805489 13.8736242192592 2.0
endloop
endfacet
facet normal -0.38019030920366 0.924908281283947 0.0
outer loop
vertex -5.70285463805489 13.8736242192592 2.0
vertex -1.91777640592974 14.8768993293918 -2.0
vertex -5.70285463805489 13.8736242192592 -2.0
endloop
endfacet
facet normal -0.127851760395317 0.991793288626122 0.0
outer loop
vertex -1.91777640592974 14.8768993293918 -2.0
vertex -5.70285463805489 13.8736242192592 2.0
vertex -1.91777640592974 14.8768993293918 2.0
endloop
endfacet
facet normal -0.127851760395317 0.991793288626122 0.0
outer loop
vertex -1.91777640592974 14.8768993293918 2.0
vertex 1.99799511898416 14.866338335465 -2.0
vertex -1.91777640592974 14.8768993293918 -2.0
endloop
endfacet
facet normal 0.133199674598944 0.991089222364332 0.0
outer loop
vertex 1.99799511898416 14.866338335465 -2.0
vertex -1.91777640592974 14.8768993293918 2.0
vertex 1.99799511898416 14.866338335465 2.0
endloop
endfacet
facet normal 0.133199674598944 0.991089222364332 0.0
outer loop
vertex 1.99799511898416 14.866338335465 2.0
vertex 5.77760657838234 13.8426609517619 -2.0
vertex 1.99799511898416 14.866338335465 -2.0
endloop
endfacet
facet normal 0.385173771892156 0.922844063450792 0.0
outer loop
vertex 5.77760657838234 13.8426609517619 -2.0
vertex 1.99799511898416 14.866338335465 2.0
vertex 5.77760657838234 13.8426609517619 2.0
endloop
endfacet
facet normal 0.385173771892156 0.922844063450792 0.0
outer loop
vertex 5.77760657838234 13.8426609517619 2.0
vertex 9.16348369741008 11.8756291002751 -2.0
vertex 5.77760657838234 13.8426609517619 -2.0
endloop
endfacet
facet normal 0.610898913160672 0.791708606685004 0.0
outer loop
vertex 9.16348369741008 11.8756291002751 -2.0
vertex 5.77760657838234 13.8426609517619 2.0
vertex 9.16348369741008 11.8756291002751 2.0
endloop
endfacet
facet normal 0.610898913160672 0.791708606685004 0.0
outer loop
vertex 9.16348369741008 11.8756291002751 -2.0
vertex 11.9248845458321 9.09929275100949 2.0
vertex 11.9248845458321 9.09929275100949 -2.0
endloop
endfacet
facet normal 0.794992303055476 0.606619516733966 0.0
outer loop
vertex 11.9248845458321 9.09929275100949 2.0
vertex 9.16348369741008 11.8756291002751 -2.0
vertex 9.16348369741008 11.8756291002751 2.0
endloop
endfacet
facet normal 0.0 0.0 1.0
outer loop
vertex -12.7607903866905 -2.48238367440418 0.0
vertex -12.2923604844443 4.23058786937145 0.0
vertex -12.968465170553 0.904937080771303 0.0
endloop
endfacet
facet normal 0.0 0.0 1.0
outer loop
vertex -12.2923604844443 4.23058786937145 0.0
vertex -12.7607903866905 -2.48238367440418 0.0
vertex -11.6834888261782 -5.700534084502 0.0
endloop
endfacet
facet normal 0.0 0.0 1.0
outer loop
vertex -12.2923604844443 4.23058786937145 0.0
vertex -11.6834888261782 -5.700534084502 0.0
vertex -10.7785517454069 7.26793108605095 0.0
endloop
endfacet
facet normal 0.0 0.0 1.0
outer loop
vertex -10.7785517454069 7.26793108605095 0.0
vertex -11.6834888261782 -5.700534084502 0.0
vertex -9.8099768100401 -8.530202517319 0.0
endloop
endfacet
facet normal 0.0 0.0 1.0
outer loop
vertex -10.7785517454069 7.26793108605095 0.0
vertex -9.8099768100401 -8.530202517319 0.0
vertex -8.53020251731901 9.8099768100401 0.0
endloop
endfacet
facet normal 0.0 0.0 1.0
outer loop
vertex -8.53020251731901 9.8099768100401 0.0
vertex -9.8099768100401 -8.530202517319 0.0
vertex -7.26793108605096 -10.7785517454069 0.0
endloop
endfacet
facet normal 0.0 0.0 1.0
outer loop
vertex -8.53020251731901 9.8099768100401 0.0
vertex -7.26793108605096 -10.7785517454069 0.0
vertex -5.700534084502 11.6834888261782 0.0
endloop
endfacet
facet normal 0.0 0.0 1.0
outer loop
vertex -5.700534084502 11.6834888261782 0.0
vertex -7.26793108605096 -10.7785517454069 0.0
vertex -4.23058786937145 -12.2923604844443 0.0
endloop
endfacet
facet normal 0.0 0.0 1.0
outer loop
vertex -5.700534084502 11.6834888261782 0.0
vertex -4.23058786937145 -12.2923604844443 0.0
vertex -2.48238367440418 12.7607903866905 0.0
endloop
endfacet
facet normal 0.0 0.0 1.0
outer loop
vertex -2.48238367440418 12.7607903866905 0.0
vertex -4.23058786937145 -12.2923604844443 0.0
vertex -0.904937080771303 -12.968465170553 0.0
endloop
endfacet
facet normal 0.0 0.0 1.0
outer loop
vertex -2.48238367440418 12.7607903866905 0.0
vertex -0.904937080771303 -12.968465170553 0.0
vertex 0.904937080771296 12.968465170553 0.0
endloop
endfacet
facet normal 0.0 0.0 1.0
outer loop
vertex 0.904937080771296 12.968465170553 0.0
vertex -0.904937080771303 -12.968465170553 0.0
vertex 2.48238367440418 -12.7607903866905 0.0
endloop
endfacet
facet normal 0.0 0.0 1.0
outer loop
vertex 0.904937080771296 12.968465170553 0.0
vertex 2.48238367440418 -12.7607903866905 0.0
vertex 4.23058786937145 12.2923604844443 0.0
endloop
endfacet
facet normal 0.0 0.0 1.0
outer loop
vertex 4.23058786937145 12.2923604844443 0.0
vertex 2.48238367440418 -12.7607903866905 0.0
vertex 5.700534084502 -11.6834888261782 0.0
endloop
endfacet
facet normal 0.0 0.0 1.0
outer loop
vertex 4.23058786937145 12.2923604844443 0.0
vertex 5.700534084502 -11.6834888261782 0.0
vertex 7.26793108605095 10.7785517454069 0.0
endloop
endfacet
facet normal 0.0 0.0 1.0
outer loop
vertex 7.26793108605095 10.7785517454069 0.0
vertex 5.700534084502 -11.6834888261782 0.0
vertex 8.530202517319 -9.8099768100401 0.0
endloop
endfacet
facet normal 0.0 0.0 1.0
outer loop
vertex 7.26793108605095 10.7785517454069 0.0
vertex 8.530202517319 -9.8099768100401 0.0
vertex 9.80997681004009 8.53020251731901 0.0
endloop
endfacet
facet normal 0.0 0.0 1.0
outer loop
vertex 9.80997681004009 8.53020251731901 0.0
vertex 8.530202517319 -9.8099768100401 0.0
vertex 10.7785517454069 -7.26793108605096 0.0
endloop
endfacet
facet normal 0.0 0.0 1.0
outer loop
vertex 9.80997681004009 8.53020251731901 0.0
vertex 10.7785517454069 -7.26793108605096 0.0
vertex 11.6834888261782 5.700534084502 0.0
endloop
endfacet
facet normal 0.0 0.0 1.0
outer loop
vertex 11.6834888261782 5.700534084502 0.0
vertex 10.7785517454069 -7.26793108605096 0.0
vertex 12.2923604844443 -4.23058786937146 0.0
endloop
endfacet
facet normal 0.0 0.0 1.0
outer loop
vertex 11.6834888261782 5.700534084502 0.0
vertex 12.2923604844443 -4.23058786937146 0.0
vertex 12.7607903866905 2.48238367440418 0.0
endloop
endfacet
facet normal 0.0 0.0 1.0
outer loop
vertex 12.7607903866905 2.48238367440418 0.0
vertex 12.2923604844443 -4.23058786937146 0.0
vertex 12.968465170553 -0.904937080771295 0.0
endloop
endfacet
facet normal 0.0 0.0 1.0
outer loop
vertex -13.8736242192592 -5.70285463805489 2.0
vertex -14.866338335465 1.99799511898416 2.0
vertex -14.8768993293918 -1.91777640592974 2.0
endloop
endfacet
facet normal 0.0 0.0 1.0
outer loop
vertex -14.866338335465 1.99799511898416 2.0
vertex -13.8736242192592 -5.70285463805489 2.0
vertex -13.8426609517619 5.77760657838234 2.0
endloop
endfacet
facet normal 0.0 0.0 1.0
outer loop
vertex -13.8426609517619 5.77760657838234 2.0
vertex -13.8736242192592 -5.70285463805489 2.0
vertex -11.9248845458321 -9.09929275100949 2.0
endloop
endfacet
facet normal 0.0 0.0 1.0
outer loop
vertex -13.8426609517619 5.77760657838234 2.0
vertex -11.9248845458321 -9.09929275100949 2.0
vertex -12.7607903866905 -2.48238367440418 2.0
endloop
endfacet
facet normal 0.0 0.0 1.0
outer loop
vertex -13.8426609517619 5.77760657838234 2.0
vertex -12.7607903866905 -2.48238367440418 2.0
vertex -12.968465170553 0.904937080771303 2.0
endloop
endfacet
facet normal 0.0 0.0 1.0
outer loop
vertex -12.7607903866905 -2.48238367440418 2.0
vertex -11.9248845458321 -9.09929275100949 2.0
vertex -11.6834888261782 -5.700534084502 2.0
endloop
endfacet
facet normal 0.0 0.0 1.0
outer loop
vertex -11.6834888261782 -5.700534084502 2.0
vertex -11.9248845458321 -9.09929275100949 2.0
vertex -9.16348369741008 -11.8756291002751 2.0
endloop
endfacet
facet normal 0.0 0.0 1.0
outer loop
vertex -11.6834888261782 -5.700534084502 2.0
vertex -9.16348369741008 -11.8756291002751 2.0
vertex -9.8099768100401 -8.530202517319 2.0
endloop
endfacet
facet normal 0.0 0.0 1.0
outer loop
vertex -9.8099768100401 -8.530202517319 2.0
vertex -9.16348369741008 -11.8756291002751 2.0
vertex -7.26793108605096 -10.7785517454069 2.0
endloop
endfacet
facet normal 0.0 0.0 1.0
outer loop
vertex -7.26793108605096 -10.7785517454069 2.0
vertex -9.16348369741008 -11.8756291002751 2.0
vertex -5.77760657838234 -13.8426609517619 2.0
endloop
endfacet
facet normal 0.0 0.0 1.0
outer loop
vertex -7.26793108605096 -10.7785517454069 2.0
vertex -5.77760657838234 -13.8426609517619 2.0
vertex -4.23058786937145 -12.2923604844443 2.0
endloop
endfacet
facet normal 0.0 0.0 1.0
outer loop
vertex -4.23058786937145 -12.2923604844443 2.0
vertex -5.77760657838234 -13.8426609517619 2.0
vertex -1.99799511898417 -14.866338335465 2.0
endloop
endfacet
facet normal 0.0 0.0 1.0
outer loop
vertex -4.23058786937145 -12.2923604844443 2.0
vertex -1.99799511898417 -14.866338335465 2.0
vertex -0.904937080771303 -12.968465170553 2.0
endloop
endfacet
facet normal 0.0 0.0 1.0
outer loop
vertex -0.904937080771303 -12.968465170553 2.0
vertex -1.99799511898417 -14.866338335465 2.0
vertex 1.91777640592974 -14.8768993293918 2.0
endloop
endfacet
facet normal 0.0 0.0 1.0
outer loop
vertex -0.904937080771303 -12.968465170553 2.0
vertex 1.91777640592974 -14.8768993293918 2.0
vertex 2.48238367440418 -12.7607903866905 2.0
endloop
endfacet
facet normal 0.0 0.0 1.0
outer loop
vertex 2.48238367440418 -12.7607903866905 2.0
vertex 1.91777640592974 -14.8768993293918 2.0
vertex 5.70285463805488 -13.8736242192592 2.0
endloop
endfacet
facet normal 0.0 0.0 1.0
outer loop
vertex 2.48238367440418 -12.7607903866905 2.0
vertex 5.70285463805488 -13.8736242192592 2.0
vertex 5.700534084502 -11.6834888261782 2.0
endloop
endfacet
facet normal 0.0 0.0 1.0
outer loop
vertex 5.700534084502 -11.6834888261782 2.0
vertex 5.70285463805488 -13.8736242192592 2.0
vertex 8.530202517319 -9.8099768100401 2.0
endloop
endfacet
facet normal 0.0 0.0 1.0
outer loop
vertex 8.530202517319 -9.8099768100401 2.0
vertex 5.70285463805488 -13.8736242192592 2.0
vertex 9.09929275100949 -11.9248845458321 2.0
endloop
endfacet
facet normal 0.0 0.0 1.0
outer loop
vertex 8.530202517319 -9.8099768100401 2.0
vertex 9.09929275100949 -11.9248845458321 2.0
vertex 10.7785517454069 -7.26793108605096 2.0
endloop
endfacet
facet normal 0.0 0.0 1.0
outer loop
vertex 10.7785517454069 -7.26793108605096 2.0
vertex 9.09929275100949 -11.9248845458321 2.0
vertex 11.8756291002751 -9.16348369741009 2.0
endloop
endfacet
facet normal 0.0 0.0 1.0
outer loop
vertex 10.7785517454069 -7.26793108605096 2.0
vertex 11.8756291002751 -9.16348369741009 2.0
vertex 12.2923604844443 -4.23058786937146 2.0
endloop
endfacet
facet normal 0.0 0.0 1.0
outer loop
vertex 12.2923604844443 -4.23058786937146 2.0
vertex 11.8756291002751 -9.16348369741009 2.0
vertex 13.8426609517619 -5.77760657838235 2.0
endloop
endfacet
facet normal 0.0 0.0 1.0
outer loop
vertex 12.2923604844443 -4.23058786937146 2.0
vertex 13.8426609517619 -5.77760657838235 2.0
vertex 12.968465170553 -0.904937080771295 2.0
endloop
endfacet
facet normal 0.0 0.0 1.0
outer loop
vertex -12.968465170553 0.904937080771303 2.0
vertex -11.8756291002751 9.16348369741008 2.0
vertex -13.8426609517619 5.77760657838234 2.0
endloop
endfacet
facet normal 0.0 0.0 1.0
outer loop
vertex -11.8756291002751 9.16348369741008 2.0
vertex -12.968465170553 0.904937080771303 2.0
vertex -12.2923604844443 4.23058786937145 2.0
endloop
endfacet
facet normal 0.0 0.0 1.0
outer loop
vertex -11.8756291002751 9.16348369741008 2.0
vertex -12.2923604844443 4.23058786937145 2.0
vertex -10.7785517454069 7.26793108605095 2.0
endloop
endfacet
facet normal 0.0 0.0 1.0
outer loop
vertex -11.8756291002751 9.16348369741008 2.0
vertex -10.7785517454069 7.26793108605095 2.0
vertex -9.09929275100949 11.9248845458321 2.0
endloop
endfacet
facet normal 0.0 0.0 1.0
outer loop
vertex -9.09929275100949 11.9248845458321 2.0
vertex -10.7785517454069 7.26793108605095 2.0
vertex -8.53020251731901 9.8099768100401 2.0
endloop
endfacet
facet normal 0.0 0.0 1.0
outer loop
vertex -9.09929275100949 11.9248845458321 2.0
vertex -8.53020251731901 9.8099768100401 2.0
vertex -5.70285463805489 13.8736242192592 2.0
endloop
endfacet
facet normal 0.0 0.0 1.0
outer loop
vertex -5.70285463805489 13.8736242192592 2.0
vertex -8.53020251731901 9.8099768100401 2.0
vertex -5.700534084502 11.6834888261782 2.0
endloop
endfacet
facet normal 0.0 0.0 1.0
outer loop
vertex -5.70285463805489 13.8736242192592 2.0
vertex -5.700534084502 11.6834888261782 2.0
vertex -1.91777640592974 14.8768993293918 2.0
endloop
endfacet
facet normal 0.0 0.0 1.0
outer loop
vertex -1.91777640592974 14.8768993293918 2.0
vertex -5.700534084502 11.6834888261782 2.0
vertex -2.48238367440418 12.7607903866905 2.0
endloop
endfacet
facet normal 0.0 0.0 1.0
outer loop
vertex -1.91777640592974 14.8768993293918 2.0
vertex -2.48238367440418 12.7607903866905 2.0
vertex 0.904937080771296 12.968465170553 2.0
endloop
endfacet
facet normal 0.0 0.0 1.0
outer loop
vertex -1.91777640592974 14.8768993293918 2.0
vertex 0.904937080771296 12.968465170553 2.0
vertex 1.99799511898416 14.866338335465 2.0
endloop
endfacet
facet normal 0.0 0.0 1.0
outer loop
vertex 1.99799511898416 14.866338335465 2.0
vertex 0.904937080771296 12.968465170553 2.0
vertex 4.23058786937145 12.2923604844443 2.0
endloop
endfacet
facet normal 0.0 0.0 1.0
outer loop
vertex 1.99799511898416 14.866338335465 2.0
vertex 4.23058786937145 12.2923604844443 2.0
vertex 5.77760657838234 13.8426609517619 2.0
endloop
endfacet
facet normal 0.0 0.0 1.0
outer loop
vertex 5.77760657838234 13.8426609517619 2.0
vertex 4.23058786937145 12.2923604844443 2.0
vertex 7.26793108605095 10.7785517454069 2.0
endloop
endfacet
facet normal 0.0 0.0 1.0
outer loop
vertex 5.77760657838234 13.8426609517619 2.0
vertex 7.26793108605095 10.7785517454069 2.0
vertex 9.16348369741008 11.8756291002751 2.0
endloop
endfacet
facet normal 0.0 0.0 1.0
outer loop
vertex 9.16348369741008 11.8756291002751 2.0
vertex 7.26793108605095 10.7785517454069 2.0
vertex 9.80997681004009 8.53020251731901 2.0
endloop
endfacet
facet normal 0.0 0.0 1.0
outer loop
vertex 9.16348369741008 11.8756291002751 2.0
vertex 9.80997681004009 8.53020251731901 2.0
vertex 11.9248845458321 9.09929275100949 2.0
endloop
endfacet
facet normal 0.0 0.0 1.0
outer loop
vertex 11.9248845458321 9.09929275100949 2.0
vertex 9.80997681004009 8.53020251731901 2.0
vertex 11.6834888261782 5.700534084502 2.0
endloop
endfacet
facet normal 0.0 0.0 1.0
outer loop
vertex 11.9248845458321 9.09929275100949 2.0
vertex 11.6834888261782 5.700534084502 2.0
vertex 12.7607903866905 2.48238367440418 2.0
endloop
endfacet
facet normal 0.0 0.0 1.0
outer loop
vertex 11.9248845458321 9.09929275100949 2.0
vertex 12.7607903866905 2.48238367440418 2.0
vertex 13.8736242192592 5.70285463805488 2.0
endloop
endfacet
facet normal 0.0 0.0 1.0
outer loop
vertex 13.8736242192592 5.70285463805488 2.0
vertex 12.7607903866905 2.48238367440418 2.0
vertex 12.968465170553 -0.904937080771295 2.0
endloop
endfacet
facet normal 0.0 0.0 1.0
outer loop
vertex 13.8736242192592 5.70285463805488 2.0
vertex 12.968465170553 -0.904937080771295 2.0
vertex 13.8426609517619 -5.77760657838235 2.0
endloop
endfacet
facet normal 0.0 0.0 1.0
outer loop
vertex 13.8736242192592 5.70285463805488 2.0
vertex 13.8426609517619 -5.77760657838235 2.0
vertex 14.866338335465 -1.99799511898416 2.0
endloop
endfacet
facet normal 0.0 0.0 1.0
outer loop
vertex 13.8736242192592 5.70285463805488 2.0
vertex 14.866338335465 -1.99799511898416 2.0
vertex 14.8768993293918 1.91777640592974 2.0
endloop
endfacet
facet normal -0.981599260514651 -0.190952590338783 0.0
outer loop
vertex 12.7607903866905 2.48238367440418 2.0
vertex 12.968465170553 -0.904937080771295 0.0
vertex 12.968465170553 -0.904937080771295 2.0
endloop
endfacet
facet normal -0.997574243888689 0.0696105446747153 0.0
outer loop
vertex 12.968465170553 -0.904937080771295 0.0
vertex 12.7607903866905 2.48238367440418 2.0
vertex 12.7607903866905 2.48238367440418 0.0
endloop
endfacet
facet normal -0.997574243888689 0.0696105446747153 0.0
outer loop
vertex 12.968465170553 -0.904937080771295 2.0
vertex 12.2923604844443 -4.23058786937146 0.0
vertex 12.2923604844443 -4.23058786937146 2.0
endloop
endfacet
facet normal -0.945566191111098 0.325429836105496 0.0
outer loop
vertex 12.2923604844443 -4.23058786937146 0.0
vertex 12.968465170553 -0.904937080771295 2.0
vertex 12.968465170553 -0.904937080771295 0.0
endloop
endfacet
facet normal -0.945566191111098 0.325429836105496 0.0
outer loop
vertex 12.2923604844443 -4.23058786937146 2.0
vertex 10.7785517454069 -7.26793108605096 0.0
vertex 10.7785517454069 -7.26793108605096 2.0
endloop
endfacet
facet normal -0.8291193650313 0.55907162200392 0.0
outer loop
vertex 10.7785517454069 -7.26793108605096 0.0
vertex 12.2923604844443 -4.23058786937146 2.0
vertex 12.2923604844443 -4.23058786937146 0.0
endloop
endfacet
facet normal -0.8291193650313 0.55907162200392 0.0
outer loop
vertex 10.7785517454069 -7.26793108605096 2.0
vertex 8.530202517319 -9.8099768100401 0.0
vertex 8.530202517319 -9.8099768100401 2.0
endloop
endfacet
facet normal -0.656169424409154 0.754613600772315 0.0
outer loop
vertex 8.530202517319 -9.8099768100401 0.0
vertex 10.7785517454069 -7.26793108605096 2.0
vertex 10.7785517454069 -7.26793108605096 0.0
endloop
endfacet
facet normal -0.438502621884769 0.898729909706016 0.0
outer loop
vertex 5.700534084502 -11.6834888261782 2.0
vertex 8.530202517319 -9.8099768100401 0.0
vertex 5.700534084502 -11.6834888261782 0.0
endloop
endfacet
facet normal -0.656169424409154 0.754613600772315 0.0
outer loop
vertex 8.530202517319 -9.8099768100401 0.0
vertex 5.700534084502 -11.6834888261782 2.0
vertex 8.530202517319 -9.8099768100401 2.0
endloop
endfacet
facet normal -0.190952590338783 0.981599260514651 0.0
outer loop
vertex 2.48238367440418 -12.7607903866905 2.0
vertex 5.700534084502 -11.6834888261782 0.0
vertex 2.48238367440418 -12.7607903866905 0.0
endloop
endfacet
facet normal -0.438502621884769 0.898729909706016 0.0
outer loop
vertex 5.700534084502 -11.6834888261782 0.0
vertex 2.48238367440418 -12.7607903866905 2.0
vertex 5.700534084502 -11.6834888261782 2.0
endloop
endfacet
facet normal 0.0696105446747155 0.997574243888689 0.0
outer loop
vertex -0.904937080771303 -12.968465170553 2.0
vertex 2.48238367440418 -12.7607903866905 0.0
vertex -0.904937080771303 -12.968465170553 0.0
endloop
endfacet
facet normal -0.190952590338783 0.981599260514651 0.0
outer loop
vertex 2.48238367440418 -12.7607903866905 0.0
vertex -0.904937080771303 -12.968465170553 2.0
vertex 2.48238367440418 -12.7607903866905 2.0
endloop
endfacet
facet normal 0.325429836105496 0.945566191111098 0.0
outer loop
vertex -4.23058786937145 -12.2923604844443 2.0
vertex -0.904937080771303 -12.968465170553 0.0
vertex -4.23058786937145 -12.2923604844443 0.0
endloop
endfacet
facet normal 0.0696105446747155 0.997574243888689 0.0
outer loop
vertex -0.904937080771303 -12.968465170553 0.0
vertex -4.23058786937145 -12.2923604844443 2.0
vertex -0.904937080771303 -12.968465170553 2.0
endloop
endfacet
facet normal 0.55907162200392 0.8291193650313 0.0
outer loop
vertex -7.26793108605096 -10.7785517454069 2.0
vertex -4.23058786937145 -12.2923604844443 0.0
vertex -7.26793108605096 -10.7785517454069 0.0
endloop
endfacet
facet normal 0.325429836105496 0.945566191111098 0.0
outer loop
vertex -4.23058786937145 -12.2923604844443 0.0
vertex -7.26793108605096 -10.7785517454069 2.0
vertex -4.23058786937145 -12.2923604844443 2.0
endloop
endfacet
facet normal 0.754613600772315 0.656169424409154 0.0
outer loop
vertex -9.8099768100401 -8.530202517319 2.0
vertex -7.26793108605096 -10.7785517454069 0.0
vertex -9.8099768100401 -8.530202517319 0.0
endloop
endfacet
facet normal 0.55907162200392 0.8291193650313 0.0
outer loop
vertex -7.26793108605096 -10.7785517454069 0.0
vertex -9.8099768100401 -8.530202517319 2.0
vertex -7.26793108605096 -10.7785517454069 2.0
endloop
endfacet
facet normal 0.898729909706016 0.438502621884769 0.0
outer loop
vertex -11.6834888261782 -5.700534084502 0.0
vertex -9.8099768100401 -8.530202517319 2.0
vertex -9.8099768100401 -8.530202517319 0.0
endloop
endfacet
facet normal 0.754613600772315 0.656169424409154 0.0
outer loop
vertex -9.8099768100401 -8.530202517319 2.0
vertex -11.6834888261782 -5.700534084502 0.0
vertex -11.6834888261782 -5.700534084502 2.0
endloop
endfacet
facet normal 0.981599260514651 0.190952590338783 0.0
outer loop
vertex -12.7607903866905 -2.48238367440418 0.0
vertex -11.6834888261782 -5.700534084502 2.0
vertex -11.6834888261782 -5.700534084502 0.0
endloop
endfacet
facet normal 0.898729909706016 0.438502621884769 0.0
outer loop
vertex -11.6834888261782 -5.700534084502 2.0
vertex -12.7607903866905 -2.48238367440418 0.0
vertex -12.7607903866905 -2.48238367440418 2.0
endloop
endfacet
facet normal 0.997574243888689 -0.0696105446747156 0.0
outer loop
vertex -12.968465170553 0.904937080771303 0.0
vertex -12.7607903866905 -2.48238367440418 2.0
vertex -12.7607903866905 -2.48238367440418 0.0
endloop
endfacet
facet normal 0.981599260514651 0.190952590338783 0.0
outer loop
vertex -12.7607903866905 -2.48238367440418 2.0
vertex -12.968465170553 0.904937080771303 0.0
vertex -12.968465170553 0.904937080771303 2.0
endloop
endfacet
facet normal 0.945566191111098 -0.325429836105496 0.0
outer loop
vertex -12.2923604844443 4.23058786937145 0.0
vertex -12.968465170553 0.904937080771303 2.0
vertex -12.968465170553 0.904937080771303 0.0
endloop
endfacet
facet normal 0.997574243888689 -0.0696105446747156 0.0
outer loop
vertex -12.968465170553 0.904937080771303 2.0
vertex -12.2923604844443 4.23058786937145 0.0
vertex -12.2923604844443 4.23058786937145 2.0
endloop
endfacet
facet normal 0.8291193650313 -0.55907162200392 0.0
outer loop
vertex -10.7785517454069 7.26793108605095 0.0
vertex -12.2923604844443 4.23058786937145 2.0
vertex -12.2923604844443 4.23058786937145 0.0
endloop
endfacet
facet normal 0.945566191111098 -0.325429836105496 0.0
outer loop
vertex -12.2923604844443 4.23058786937145 2.0
vertex -10.7785517454069 7.26793108605095 0.0
vertex -10.7785517454069 7.26793108605095 2.0
endloop
endfacet
facet normal 0.656169424409154 -0.754613600772315 0.0
outer loop
vertex -8.53020251731901 9.8099768100401 0.0
vertex -10.7785517454069 7.26793108605095 2.0
vertex -10.7785517454069 7.26793108605095 0.0
endloop
endfacet
facet normal 0.8291193650313 -0.55907162200392 0.0
outer loop
vertex -10.7785517454069 7.26793108605095 2.0
vertex -8.53020251731901 9.8099768100401 0.0
vertex -8.53020251731901 9.8099768100401 2.0
endloop
endfacet
facet normal 0.438502621884769 -0.898729909706016 0.0
outer loop
vertex -5.700534084502 11.6834888261782 2.0
vertex -8.53020251731901 9.8099768100401 0.0
vertex -5.700534084502 11.6834888261782 0.0
endloop
endfacet
facet normal 0.656169424409154 -0.754613600772315 0.0
outer loop
vertex -8.53020251731901 9.8099768100401 0.0
vertex -5.700534084502 11.6834888261782 2.0
vertex -8.53020251731901 9.8099768100401 2.0
endloop
endfacet
facet normal 0.190952590338783 -0.981599260514651 0.0
outer loop
vertex -2.48238367440418 12.7607903866905 2.0
vertex -5.700534084502 11.6834888261782 0.0
vertex -2.48238367440418 12.7607903866905 0.0
endloop
endfacet
facet normal 0.438502621884769 -0.898729909706016 0.0
outer loop
vertex -5.700534084502 11.6834888261782 0.0
vertex -2.48238367440418 12.7607903866905 2.0
vertex -5.700534084502 11.6834888261782 2.0
endloop
endfacet
facet normal -0.0696105446747151 -0.997574243888689 0.0
outer loop
vertex 0.904937080771296 12.968465170553 2.0
vertex -2.48238367440418 12.7607903866905 0.0
vertex 0.904937080771296 12.968465170553 0.0
endloop
endfacet
facet normal 0.190952590338783 -0.981599260514651 0.0
outer loop
vertex -2.48238367440418 12.7607903866905 0.0
vertex 0.904937080771296 12.968465170553 2.0
vertex -2.48238367440418 12.7607903866905 2.0
endloop
endfacet
facet normal -0.325429836105496 -0.945566191111098 0.0
outer loop
vertex 4.23058786937145 12.2923604844443 2.0
vertex 0.904937080771296 12.968465170553 0.0
vertex 4.23058786937145 12.2923604844443 0.0
endloop
endfacet
facet normal -0.0696105446747151 -0.997574243888689 0.0
outer loop
vertex 0.904937080771296 12.968465170553 0.0
vertex 4.23058786937145 12.2923604844443 2.0
vertex 0.904937080771296 12.968465170553 2.0
endloop
endfacet
facet normal -0.55907162200392 -0.8291193650313 0.0
outer loop
vertex 7.26793108605095 10.7785517454069 2.0
vertex 4.23058786937145 12.2923604844443 0.0
vertex 7.26793108605095 10.7785517454069 0.0
endloop
endfacet
facet normal -0.325429836105496 -0.945566191111098 0.0
outer loop
vertex 4.23058786937145 12.2923604844443 0.0
vertex 7.26793108605095 10.7785517454069 2.0
vertex 4.23058786937145 12.2923604844443 2.0
endloop
endfacet
facet normal -0.754613600772315 -0.656169424409155 0.0
outer loop
vertex 9.80997681004009 8.53020251731901 2.0
vertex 7.26793108605095 10.7785517454069 0.0
vertex 9.80997681004009 8.53020251731901 0.0
endloop
endfacet
facet normal -0.55907162200392 -0.8291193650313 0.0
outer loop
vertex 7.26793108605095 10.7785517454069 0.0
vertex 9.80997681004009 8.53020251731901 2.0
vertex 7.26793108605095 10.7785517454069 2.0
endloop
endfacet
facet normal -0.754613600772315 -0.656169424409155 0.0
outer loop
vertex 9.80997681004009 8.53020251731901 2.0
vertex 11.6834888261782 5.700534084502 0.0
vertex 11.6834888261782 5.700534084502 2.0
endloop
endfacet
facet normal -0.898729909706016 -0.438502621884769 0.0
outer loop
vertex 11.6834888261782 5.700534084502 0.0
vertex 9.80997681004009 8.53020251731901 2.0
vertex 9.80997681004009 8.53020251731901 0.0
endloop
endfacet
facet normal -0.898729909706016 -0.438502621884769 0.0
outer loop
vertex 11.6834888261782 5.700534084502 2.0
vertex 12.7607903866905 2.48238367440418 0.0
vertex 12.7607903866905 2.48238367440418 2.0
endloop
endfacet
facet normal -0.981599260514651 -0.190952590338783 0.0
outer loop
vertex 12.7607903866905 2.48238367440418 0.0
vertex 11.6834888261782 5.700534084502 2.0
vertex 11.6834888261782 5.700534084502 0.0
endloop
endfacet
endsolid model
