solid model
facet normal 0.0 0.0 -1.0
outer loop
vertex 9.84251968503937 9.84251968503937 0.0
vertex 0.0 0.0 0.0
vertex 0.0 9.84251968503937 0.0
endloop
endfacet
facet normal 0.0 0.0 -1.0
outer loop
vertex 0.0 0.0 0.0
vertex 9.84251968503937 9.84251968503937 0.0
vertex 9.84251968503937 0.0 0.0
endloop
endfacet
facet normal 0.0 0.0 1.0
outer loop
vertex 9.84251968503937 0.0 9.84251968503937
vertex 0.0 9.84251968503937 9.84251968503937
vertex 0.0 0.0 9.84251968503937
endloop
endfacet
facet normal 0.0 0.0 1.0
outer loop
vertex 0.0 9.84251968503937 9.84251968503937
vertex 9.84251968503937 0.0 9.84251968503937
vertex 9.84251968503937 9.84251968503937 9.84251968503937
endloop
endfacet
facet normal 0.0 1.0 0.0
outer loop
vertex 0.0 9.84251968503937 9.84251968503937
vertex 9.84251968503937 9.84251968503937 0.0
vertex 0.0 9.84251968503937 0.0
endloop
endfacet
facet normal 0.0 1.0 0.0
outer loop
vertex 9.84251968503937 9.84251968503937 0.0
vertex 0.0 9.84251968503937 9.84251968503937
vertex 9.84251968503937 9.84251968503937 9.84251968503937
endloop
endfacet
facet normal 1.0 0.0 0.0
outer loop
vertex 9.84251968503937 9.84251968503937 0.0
vertex 9.84251968503937 0.0 9.84251968503937
vertex 9.84251968503937 0.0 0.0
endloop
endfacet
facet normal 1.0 0.0 0.0
outer loop
vertex 9.84251968503937 0.0 9.84251968503937
vertex 9.84251968503937 9.84251968503937 0.0
vertex 9.84251968503937 9.84251968503937 9.84251968503937
endloop
endfacet
facet normal 0.0 -1.0 0.0
outer loop
vertex 9.84251968503937 0.0 9.84251968503937
vertex 0.0 0.0 0.0
vertex 9.84251968503937 0.0 0.0
endloop
endfacet
facet normal 0.0 -1.0 0.0
outer loop
vertex 0.0 0.0 0.0
vertex 9.84251968503937 0.0 9.84251968503937
vertex 0.0 0.0 9.84251968503937
endloop
endfacet
facet normal -1.0 0.0 0.0
outer loop
vertex 0.0 9.84251968503937 9.84251968503937
vertex 0.0 0.0 0.0
vertex 0.0 0.0 9.84251968503937
endloop
endfacet
facet normal -1.0 0.0 0.0
outer loop
vertex 0.0 0.0 0.0
vertex 0.0 9.84251968503937 9.84251968503937
vertex 0.0 9.84251968503937 0.0
endloop
endfacet
endsolid model
