solid model
facet normal 0.0 0.0 -1.0
outer loop
vertex 250.0 250.0 0.0
vertex 0.0 0.0 0.0
vertex 0.0 250.0 0.0
endloop
endfacet
facet normal 0.0 0.0 -1.0
outer loop
vertex 0.0 0.0 0.0
vertex 250.0 250.0 0.0
vertex 250.0 0.0 0.0
endloop
endfacet
facet normal 0.0 0.0 1.0
outer loop
vertex 250.0 0.0 250.0
vertex 0.0 250.0 250.0
vertex 0.0 0.0 250.0
endloop
endfacet
facet normal 0.0 0.0 1.0
outer loop
vertex 0.0 250.0 250.0
vertex 250.0 0.0 250.0
vertex 250.0 250.0 250.0
endloop
endfacet
facet normal 0.0 1.0 0.0
outer loop
vertex 0.0 250.0 250.0
vertex 250.0 250.0 0.0
vertex 0.0 250.0 0.0
endloop
endfacet
facet normal 0.0 1.0 0.0
outer loop
vertex 250.0 250.0 0.0
vertex 0.0 250.0 250.0
vertex 250.0 250.0 250.0
endloop
endfacet
facet normal 1.0 0.0 0.0
outer loop
vertex 250.0 250.0 0.0
vertex 250.0 0.0 250.0
vertex 250.0 0.0 0.0
endloop
endfacet
facet normal 1.0 0.0 0.0
outer loop
vertex 250.0 0.0 250.0
vertex 250.0 250.0 0.0
vertex 250.0 250.0 250.0
endloop
endfacet
facet normal 0.0 -1.0 0.0
outer loop
vertex 250.0 0.0 250.0
vertex 0.0 0.0 0.0
vertex 250.0 0.0 0.0
endloop
endfacet
facet normal 0.0 -1.0 0.0
outer loop
vertex 0.0 0.0 0.0
vertex 250.0 0.0 250.0
vertex 0.0 0.0 250.0
endloop
endfacet
facet normal -1.0 0.0 0.0
outer loop
vertex 0.0 250.0 250.0
vertex 0.0 0.0 0.0
vertex 0.0 0.0 250.0
endloop
endfacet
facet normal -1.0 0.0 0.0
outer loop
vertex 0.0 0.0 0.0
vertex 0.0 250.0 250.0
vertex 0.0 250.0 0.0
endloop
endfacet
endsolid model
