solid model
facet normal 0.0 0.0 -1.0
outer loop
vertex 0.820209973753281 0.820209973753281 0.0
vertex 0.0 0.0 0.0
vertex 0.0 0.820209973753281 0.0
endloop
endfacet
facet normal 0.0 0.0 -1.0
outer loop
vertex 0.0 0.0 0.0
vertex 0.820209973753281 0.820209973753281 0.0
vertex 0.820209973753281 0.0 0.0
endloop
endfacet
facet normal 0.0 0.0 1.0
outer loop
vertex 0.820209973753281 0.0 0.820209973753281
vertex 0.0 0.820209973753281 0.820209973753281
vertex 0.0 0.0 0.820209973753281
endloop
endfacet
facet normal 0.0 0.0 1.0
outer loop
vertex 0.0 0.820209973753281 0.820209973753281
vertex 0.820209973753281 0.0 0.820209973753281
vertex 0.820209973753281 0.820209973753281 0.820209973753281
endloop
endfacet
facet normal 0.0 1.0 0.0
outer loop
vertex 0.0 0.820209973753281 0.820209973753281
vertex 0.820209973753281 0.820209973753281 0.0
vertex 0.0 0.820209973753281 0.0
endloop
endfacet
facet normal 0.0 1.0 0.0
outer loop
vertex 0.820209973753281 0.820209973753281 0.0
vertex 0.0 0.820209973753281 0.820209973753281
vertex 0.820209973753281 0.820209973753281 0.820209973753281
endloop
endfacet
facet normal 1.0 0.0 0.0
outer loop
vertex 0.820209973753281 0.820209973753281 0.0
vertex 0.820209973753281 0.0 0.820209973753281
vertex 0.820209973753281 0.0 0.0
endloop
endfacet
facet normal 1.0 0.0 0.0
outer loop
vertex 0.820209973753281 0.0 0.820209973753281
vertex 0.820209973753281 0.820209973753281 0.0
vertex 0.820209973753281 0.820209973753281 0.820209973753281
endloop
endfacet
facet normal 0.0 -1.0 0.0
outer loop
vertex 0.820209973753281 0.0 0.820209973753281
vertex 0.0 0.0 0.0
vertex 0.820209973753281 0.0 0.0
endloop
endfacet
facet normal 0.0 -1.0 0.0
outer loop
vertex 0.0 0.0 0.0
vertex 0.820209973753281 0.0 0.820209973753281
vertex 0.0 0.0 0.820209973753281
endloop
endfacet
facet normal -1.0 0.0 0.0
outer loop
vertex 0.0 0.820209973753281 0.820209973753281
vertex 0.0 0.0 0.0
vertex 0.0 0.0 0.820209973753281
endloop
endfacet
facet normal -1.0 0.0 0.0
outer loop
vertex 0.0 0.0 0.0
vertex 0.0 0.820209973753281 0.820209973753281
vertex 0.0 0.820209973753281 0.0
endloop
endfacet
endsolid model
