solid model
facet normal 0.0 0.0 1.0
outer loop
vertex -30.8062005614281 -31.1072950973938 0.0
vertex -38.1339021706445 -9.05231199882935 0.0
vertex -38.1339021706445 -22.3329419612307 0.0
endloop
endfacet
facet normal 0.0 0.0 1.0
outer loop
vertex -38.1339021706445 -9.05231199882935 0.0
vertex -30.8062005614281 -31.1072950973938 0.0
vertex -31.2991234775612 -15.7508802162325 0.0
endloop
endfacet
facet normal 0.0 0.0 1.0
outer loop
vertex -31.2991234775612 -15.7508802162325 0.0
vertex -30.8062005614281 -31.1072950973938 0.0
vertex -31.133522993326 -17.0087407754307 0.0
endloop
endfacet
facet normal 0.0 0.0 1.0
outer loop
vertex -31.133522993326 -17.0087407754307 0.0
vertex -30.8062005614281 -31.1072950973938 0.0
vertex -30.6480069399535 -18.1808802162325 0.0
endloop
endfacet
facet normal 0.0 0.0 1.0
outer loop
vertex -30.6480069399535 -18.1808802162325 0.0
vertex -30.8062005614281 -31.1072950973938 0.0
vertex -29.8756624341278 -19.1874191727991 0.0
endloop
endfacet
facet normal 0.0 0.0 1.0
outer loop
vertex -29.8756624341278 -19.1874191727991 0.0
vertex -30.8062005614281 -31.1072950973938 0.0
vertex -20.1142005614282 -31.1072950973938 0.0
endloop
endfacet
facet normal 0.0 0.0 1.0
outer loop
vertex -29.8756624341278 -19.1874191727991 0.0
vertex -20.1142005614282 -31.1072950973938 0.0
vertex -28.8691234775611 -19.9597636786249 0.0
endloop
endfacet
facet normal 0.0 0.0 1.0
outer loop
vertex -28.8691234775611 -19.9597636786249 0.0
vertex -20.1142005614282 -31.1072950973938 0.0
vertex -27.6969840367594 -20.4452797319974 0.0
endloop
endfacet
facet normal 0.0 0.0 1.0
outer loop
vertex -27.6969840367594 -20.4452797319974 0.0
vertex -20.1142005614282 -31.1072950973938 0.0
vertex -26.4391234775612 -20.6108802162325 0.0
endloop
endfacet
facet normal 0.0 0.0 1.0
outer loop
vertex -26.4391234775612 -20.6108802162325 0.0
vertex -20.1142005614282 -31.1072950973938 0.0
vertex -25.181262918363 -20.4452797319974 0.0
endloop
endfacet
facet normal 0.0 0.0 1.0
outer loop
vertex -25.181262918363 -20.4452797319974 0.0
vertex -20.1142005614282 -31.1072950973938 0.0
vertex -24.0091234775612 -19.9597636786249 0.0
endloop
endfacet
facet normal 0.0 0.0 1.0
outer loop
vertex -24.0091234775612 -19.9597636786249 0.0
vertex -20.1142005614282 -31.1072950973938 0.0
vertex -23.0025845209946 -19.1874191727991 0.0
endloop
endfacet
facet normal 0.0 0.0 1.0
outer loop
vertex -23.0025845209946 -19.1874191727991 0.0
vertex -20.1142005614282 -31.1072950973938 0.0
vertex -22.2302400151688 -18.1808802162325 0.0
endloop
endfacet
facet normal 0.0 0.0 1.0
outer loop
vertex -22.2302400151688 -18.1808802162325 0.0
vertex -20.1142005614282 -31.1072950973938 0.0
vertex -21.7447239617963 -17.0087407754307 0.0
endloop
endfacet
facet normal 0.0 0.0 1.0
outer loop
vertex -21.7447239617963 -17.0087407754307 0.0
vertex -20.1142005614282 -31.1072950973938 0.0
vertex -21.5791234775612 -15.7508802162325 0.0
endloop
endfacet
facet normal 0.0 0.0 1.0
outer loop
vertex -21.5791234775612 -15.7508802162325 0.0
vertex -20.1142005614282 -31.1072950973938 0.0
vertex -21.2173521111711 -0.826921726855128 0.0
endloop
endfacet
facet normal 0.0 0.0 1.0
outer loop
vertex -21.2173521111711 -0.826921726855128 0.0
vertex -20.1142005614282 -31.1072950973938 0.0
vertex -12.1869653389429 8.73818230626182 0.0
endloop
endfacet
facet normal 0.0 0.0 1.0
outer loop
vertex -12.1869653389429 8.73818230626182 0.0
vertex -20.1142005614282 -31.1072950973938 0.0
vertex -15.0710421393888 -6.94246266200036 0.0
endloop
endfacet
facet normal 0.0 0.0 1.0
outer loop
vertex -12.1869653389429 8.73818230626182 0.0
vertex -15.0710421393888 -6.94246266200036 0.0
vertex -7.29504213938874 -2.45298696878185 0.0
endloop
endfacet
facet normal 0.0 0.0 1.0
outer loop
vertex -12.1869653389429 8.73818230626182 0.0
vertex -7.29504213938874 -2.45298696878185 0.0
vertex -6.37511045350785 1.70820569767663 0.0
endloop
endfacet
facet normal 0.0 0.0 1.0
outer loop
vertex -12.1869653389429 8.73818230626182 0.0
vertex -6.37511045350785 1.70820569767663 0.0
vertex -5.7157676649773 3.3 0.0
endloop
endfacet
facet normal 0.0 0.0 1.0
outer loop
vertex -12.1869653389429 8.73818230626182 0.0
vertex -5.7157676649773 3.3 0.0
vertex -1.81896533894292 8.73818230626182 0.0
endloop
endfacet
facet normal 0.0 0.0 1.0
outer loop
vertex -6.37511045350785 1.70820569767663 0.0
vertex -7.29504213938874 -2.45298696878185 0.0
vertex -6.6 -8.08266887437253e-016 0.0
endloop
endfacet
facet normal 0.0 0.0 1.0
outer loop
vertex -1.81896533894292 8.73818230626182 0.0
vertex -5.7157676649773 3.3 0.0
vertex -4.66690475583122 4.66690475583121 0.0
endloop
endfacet
facet normal 0.0 0.0 1.0
outer loop
vertex -1.81896533894292 8.73818230626182 0.0
vertex -4.66690475583122 4.66690475583121 0.0
vertex -3.3 5.71576766497729 0.0
endloop
endfacet
facet normal 0.0 0.0 1.0
outer loop
vertex -1.81896533894292 8.73818230626182 0.0
vertex -3.3 5.71576766497729 0.0
vertex -1.70820569767664 6.37511045350785 0.0
endloop
endfacet
facet normal 0.0 0.0 1.0
outer loop
vertex -11.5966254941321 -19.6755650895177 0.0
vertex -15.0710421393888 -6.94246266200036 0.0
vertex -20.1142005614282 -31.1072950973938 0.0
endloop
endfacet
facet normal 0.0 0.0 1.0
outer loop
vertex -15.0710421393888 -6.94246266200036 0.0
vertex -11.5966254941321 -19.6755650895177 0.0
vertex -7.29504213938874 -11.4319383552189 0.0
endloop
endfacet
facet normal 0.0 0.0 1.0
outer loop
vertex -7.29504213938874 -11.4319383552189 0.0
vertex -11.5966254941321 -19.6755650895177 0.0
vertex -0.590062478413561 -22.3329419612307 0.0
endloop
endfacet
facet normal 0.0 0.0 1.0
outer loop
vertex -7.29504213938874 -11.4319383552189 0.0
vertex -0.590062478413561 -22.3329419612307 0.0
vertex -7.29504213938874 -2.45298696878185 0.0
endloop
endfacet
facet normal 0.0 0.0 1.0
outer loop
vertex -7.29504213938874 -2.45298696878185 0.0
vertex -0.590062478413561 -22.3329419612307 0.0
vertex -6.37511045350785 -1.70820569767664 0.0
endloop
endfacet
facet normal 0.0 0.0 1.0
outer loop
vertex -7.29504213938874 -2.45298696878185 0.0
vertex -6.37511045350785 -1.70820569767664 0.0
vertex -6.6 -8.08266887437253e-016 0.0
endloop
endfacet
facet normal 0.0 0.0 1.0
outer loop
vertex -6.37511045350785 -1.70820569767664 0.0
vertex -0.590062478413561 -22.3329419612307 0.0
vertex -5.71576766497729 -3.3 0.0
endloop
endfacet
facet normal 0.0 0.0 1.0
outer loop
vertex -5.71576766497729 -3.3 0.0
vertex -0.590062478413561 -22.3329419612307 0.0
vertex -4.66690475583121 -4.66690475583121 0.0
endloop
endfacet
facet normal 0.0 0.0 1.0
outer loop
vertex -4.66690475583121 -4.66690475583121 0.0
vertex -0.590062478413561 -22.3329419612307 0.0
vertex -3.3 -5.71576766497729 0.0
endloop
endfacet
facet normal 0.0 0.0 1.0
outer loop
vertex -3.3 -5.71576766497729 0.0
vertex -0.590062478413561 -22.3329419612307 0.0
vertex -1.70820569767664 -6.37511045350785 0.0
endloop
endfacet
facet normal 0.0 0.0 1.0
outer loop
vertex -1.70820569767664 -6.37511045350785 0.0
vertex -0.590062478413561 -22.3329419612307 0.0
vertex -0.590062478413561 -9.05231199882935 0.0
endloop
endfacet
facet normal 0.0 0.0 1.0
outer loop
vertex -1.70820569767664 -6.37511045350785 0.0
vertex -0.590062478413561 -9.05231199882935 0.0
vertex 4.04133443718627e-016 -6.6 0.0
endloop
endfacet
facet normal 0.0 0.0 1.0
outer loop
vertex 4.04133443718627e-016 -6.6 0.0
vertex -0.590062478413561 -9.05231199882935 0.0
vertex 25.0059375215864 -9.05231199882935 0.0
endloop
endfacet
facet normal 0.0 0.0 1.0
outer loop
vertex 4.04133443718627e-016 -6.6 0.0
vertex 25.0059375215864 -9.05231199882935 0.0
vertex 1.70820569767664 -6.37511045350785 0.0
endloop
endfacet
facet normal 0.0 0.0 1.0
outer loop
vertex 1.70820569767664 -6.37511045350785 0.0
vertex 25.0059375215864 -9.05231199882935 0.0
vertex 3.3 -5.71576766497729 0.0
endloop
endfacet
facet normal 0.0 0.0 1.0
outer loop
vertex 3.3 -5.71576766497729 0.0
vertex 25.0059375215864 -9.05231199882935 0.0
vertex 4.66690475583121 -4.66690475583121 0.0
endloop
endfacet
facet normal 0.0 0.0 1.0
outer loop
vertex 4.66690475583121 -4.66690475583121 0.0
vertex 25.0059375215864 -9.05231199882935 0.0
vertex 5.71576766497729 -3.3 0.0
endloop
endfacet
facet normal 0.0 0.0 1.0
outer loop
vertex 5.71576766497729 -3.3 0.0
vertex 25.0059375215864 -9.05231199882935 0.0
vertex 6.37511045350785 -1.70820569767664 0.0
endloop
endfacet
facet normal 0.0 0.0 1.0
outer loop
vertex 6.37511045350785 -1.70820569767664 0.0
vertex 25.0059375215864 -9.05231199882935 0.0
vertex 7.23563938909535 -0.826921726855128 0.0
endloop
endfacet
facet normal 0.0 0.0 1.0
outer loop
vertex 6.37511045350785 -1.70820569767664 0.0
vertex 7.23563938909535 -0.826921726855128 0.0
vertex 6.6 0.0 0.0
endloop
endfacet
facet normal 0.0 0.0 1.0
outer loop
vertex 7.23563938909535 -0.826921726855128 0.0
vertex 25.0059375215864 -9.05231199882935 0.0
vertex 15.4483914306755 -0.826921726855128 0.0
endloop
endfacet
facet normal 0.0 0.0 1.0
outer loop
vertex 15.4483914306755 -0.826921726855128 0.0
vertex 25.0059375215864 -9.05231199882935 0.0
vertex 20.479479996807 14.6344480950773 0.0
endloop
endfacet
facet normal 0.0 0.0 1.0
outer loop
vertex 20.479479996807 14.6344480950773 0.0
vertex 25.0059375215864 -9.05231199882935 0.0
vertex 26.894679996807 6.08084809507729 0.0
endloop
endfacet
facet normal 0.0 0.0 1.0
outer loop
vertex 26.894679996807 6.08084809507729 0.0
vertex 25.0059375215864 -9.05231199882935 0.0
vertex 42.576279996807 8.93204809507729 0.0
endloop
endfacet
facet normal 0.0 0.0 1.0
outer loop
vertex 26.894679996807 6.08084809507729 0.0
vertex 42.576279996807 8.93204809507729 0.0
vertex 38.299479996807 14.6344480950773 0.0
endloop
endfacet
facet normal 0.0 0.0 1.0
outer loop
vertex 10.933540915852 19.7434386207129 0.0
vertex 20.479479996807 14.6344480950773 0.0
vertex 25.0415973299612 24.5488480950773 0.0
endloop
endfacet
facet normal 0.0 0.0 1.0
outer loop
vertex 20.479479996807 14.6344480950773 0.0
vertex 10.933540915852 19.7434386207129 0.0
vertex 15.4483914306755 -0.826921726855128 0.0
endloop
endfacet
facet normal 0.0 0.0 1.0
outer loop
vertex 25.0415973299612 24.5488480950773 0.0
vertex 20.479479996807 14.6344480950773 0.0
vertex 33.698679996807 24.5488480950773 0.0
endloop
endfacet
facet normal 0.0 0.0 1.0
outer loop
vertex 7.23563938909535 24.5488480950773 0.0
vertex 23.589879996807 38.0272480950773 0.0
vertex 3.26051876487306 30.4144735744744 0.0
endloop
endfacet
facet normal 0.0 0.0 1.0
outer loop
vertex 23.589879996807 38.0272480950773 0.0
vertex 7.23563938909535 24.5488480950773 0.0
vertex 20.479479996807 30.4144735744744 0.0
endloop
endfacet
facet normal 0.0 0.0 1.0
outer loop
vertex 23.589879996807 38.0272480950773 0.0
vertex 20.479479996807 30.4144735744744 0.0
vertex 25.0415973299612 24.5488480950773 0.0
endloop
endfacet
facet normal 0.0 0.0 1.0
outer loop
vertex 23.589879996807 38.0272480950773 0.0
vertex 25.0415973299612 24.5488480950773 0.0
vertex 33.698679996807 24.5488480950773 0.0
endloop
endfacet
facet normal 0.0 0.0 1.0
outer loop
vertex -1.81896533894292 8.73818230626182 0.0
vertex -5.24862923985948 19.7434386207129 0.0
vertex -5.24862923985948 18.5224977921172 0.0
endloop
endfacet
facet normal 0.0 0.0 1.0
outer loop
vertex -5.24862923985948 19.7434386207129 0.0
vertex -1.81896533894292 8.73818230626182 0.0
vertex 7.23563938909535 19.7434386207129 0.0
endloop
endfacet
facet normal 0.0 0.0 1.0
outer loop
vertex 7.23563938909535 19.7434386207129 0.0
vertex -1.81896533894292 8.73818230626182 0.0
vertex -1.70820569767664 6.37511045350785 0.0
endloop
endfacet
facet normal 0.0 0.0 1.0
outer loop
vertex 7.23563938909535 19.7434386207129 0.0
vertex -1.70820569767664 6.37511045350785 0.0
vertex -1.21240033115588e-015 6.6 0.0
endloop
endfacet
facet normal 0.0 0.0 1.0
outer loop
vertex 7.23563938909535 19.7434386207129 0.0
vertex -1.21240033115588e-015 6.6 0.0
vertex 1.70820569767663 6.37511045350785 0.0
endloop
endfacet
facet normal 0.0 0.0 1.0
outer loop
vertex 7.23563938909535 19.7434386207129 0.0
vertex 1.70820569767663 6.37511045350785 0.0
vertex 3.3 5.7157676649773 0.0
endloop
endfacet
facet normal 0.0 0.0 1.0
outer loop
vertex 7.23563938909535 19.7434386207129 0.0
vertex 3.3 5.7157676649773 0.0
vertex 4.66690475583121 4.66690475583121 0.0
endloop
endfacet
facet normal 0.0 0.0 1.0
outer loop
vertex 7.23563938909535 19.7434386207129 0.0
vertex 4.66690475583121 4.66690475583121 0.0
vertex 5.71576766497729 3.3 0.0
endloop
endfacet
facet normal 0.0 0.0 1.0
outer loop
vertex 7.23563938909535 19.7434386207129 0.0
vertex 5.71576766497729 3.3 0.0
vertex 6.37511045350785 1.70820569767664 0.0
endloop
endfacet
facet normal 0.0 0.0 1.0
outer loop
vertex 7.23563938909535 19.7434386207129 0.0
vertex 6.37511045350785 1.70820569767664 0.0
vertex 6.6 0.0 0.0
endloop
endfacet
facet normal 0.0 0.0 1.0
outer loop
vertex 7.23563938909535 19.7434386207129 0.0
vertex 6.6 0.0 0.0
vertex 7.23563938909535 -0.826921726855128 0.0
endloop
endfacet
facet normal 0.0 0.0 1.0
outer loop
vertex -31.2991234775612 -15.7508802162325 0.0
vertex -30.8062005614281 -0.826921726855128 0.0
vertex -38.1339021706445 -9.05231199882935 0.0
endloop
endfacet
facet normal 0.0 0.0 1.0
outer loop
vertex -30.8062005614281 -0.826921726855128 0.0
vertex -31.2991234775612 -15.7508802162325 0.0
vertex -31.133522993326 -14.4930196570342 0.0
endloop
endfacet
facet normal 0.0 0.0 1.0
outer loop
vertex -30.8062005614281 -0.826921726855128 0.0
vertex -31.133522993326 -14.4930196570342 0.0
vertex -30.6480069399535 -13.3208802162325 0.0
endloop
endfacet
facet normal 0.0 0.0 1.0
outer loop
vertex -30.8062005614281 -0.826921726855128 0.0
vertex -30.6480069399535 -13.3208802162325 0.0
vertex -21.2173521111711 -0.826921726855128 0.0
endloop
endfacet
facet normal 0.0 0.0 1.0
outer loop
vertex -21.2173521111711 -0.826921726855128 0.0
vertex -30.6480069399535 -13.3208802162325 0.0
vertex -29.8756624341278 -12.3143412596659 0.0
endloop
endfacet
facet normal 0.0 0.0 1.0
outer loop
vertex -21.2173521111711 -0.826921726855128 0.0
vertex -29.8756624341278 -12.3143412596659 0.0
vertex -28.8691234775611 -11.5419967538401 0.0
endloop
endfacet
facet normal 0.0 0.0 1.0
outer loop
vertex -21.2173521111711 -0.826921726855128 0.0
vertex -28.8691234775611 -11.5419967538401 0.0
vertex -27.6969840367594 -11.0564807004676 0.0
endloop
endfacet
facet normal 0.0 0.0 1.0
outer loop
vertex -21.2173521111711 -0.826921726855128 0.0
vertex -27.6969840367594 -11.0564807004676 0.0
vertex -26.4391234775612 -10.8908802162325 0.0
endloop
endfacet
facet normal 0.0 0.0 1.0
outer loop
vertex -21.2173521111711 -0.826921726855128 0.0
vertex -26.4391234775612 -10.8908802162325 0.0
vertex -25.181262918363 -11.0564807004676 0.0
endloop
endfacet
facet normal 0.0 0.0 1.0
outer loop
vertex -21.2173521111711 -0.826921726855128 0.0
vertex -25.181262918363 -11.0564807004676 0.0
vertex -24.0091234775612 -11.5419967538401 0.0
endloop
endfacet
facet normal 0.0 0.0 1.0
outer loop
vertex -21.2173521111711 -0.826921726855128 0.0
vertex -24.0091234775612 -11.5419967538401 0.0
vertex -23.0025845209946 -12.3143412596659 0.0
endloop
endfacet
facet normal 0.0 0.0 1.0
outer loop
vertex -21.2173521111711 -0.826921726855128 0.0
vertex -23.0025845209946 -12.3143412596659 0.0
vertex -22.2302400151688 -13.3208802162325 0.0
endloop
endfacet
facet normal 0.0 0.0 1.0
outer loop
vertex -21.2173521111711 -0.826921726855128 0.0
vertex -22.2302400151688 -13.3208802162325 0.0
vertex -21.7447239617963 -14.4930196570342 0.0
endloop
endfacet
facet normal 0.0 0.0 1.0
outer loop
vertex -21.2173521111711 -0.826921726855128 0.0
vertex -21.7447239617963 -14.4930196570342 0.0
vertex -21.5791234775612 -15.7508802162325 0.0
endloop
endfacet
facet normal 0.0 0.0 -1.0
outer loop
vertex -31.2991234775612 -15.7508802162325 -4.0
vertex -30.8062005614281 -31.1072950973938 -4.0
vertex -38.1339021706445 -22.3329419612307 -4.0
endloop
endfacet
facet normal 0.0 0.0 -1.0
outer loop
vertex -30.8062005614281 -31.1072950973938 -4.0
vertex -31.2991234775612 -15.7508802162325 -4.0
vertex -31.133522993326 -17.0087407754307 -4.0
endloop
endfacet
facet normal 0.0 0.0 -1.0
outer loop
vertex -30.8062005614281 -31.1072950973938 -4.0
vertex -31.133522993326 -17.0087407754307 -4.0
vertex -30.6480069399535 -18.1808802162325 -4.0
endloop
endfacet
facet normal 0.0 0.0 -1.0
outer loop
vertex -30.8062005614281 -31.1072950973938 -4.0
vertex -30.6480069399535 -18.1808802162325 -4.0
vertex -29.8756624341278 -19.1874191727991 -4.0
endloop
endfacet
facet normal 0.0 0.0 -1.0
outer loop
vertex -30.8062005614281 -31.1072950973938 -4.0
vertex -29.8756624341278 -19.1874191727991 -4.0
vertex -20.1142005614282 -31.1072950973938 -4.0
endloop
endfacet
facet normal 0.0 0.0 -1.0
outer loop
vertex -20.1142005614282 -31.1072950973938 -4.0
vertex -29.8756624341278 -19.1874191727991 -4.0
vertex -28.8691234775611 -19.9597636786249 -4.0
endloop
endfacet
facet normal 0.0 0.0 -1.0
outer loop
vertex -20.1142005614282 -31.1072950973938 -4.0
vertex -28.8691234775611 -19.9597636786249 -4.0
vertex -27.6969840367594 -20.4452797319974 -4.0
endloop
endfacet
facet normal 0.0 0.0 -1.0
outer loop
vertex -20.1142005614282 -31.1072950973938 -4.0
vertex -27.6969840367594 -20.4452797319974 -4.0
vertex -26.4391234775612 -20.6108802162325 -4.0
endloop
endfacet
facet normal 0.0 0.0 -1.0
outer loop
vertex -20.1142005614282 -31.1072950973938 -4.0
vertex -26.4391234775612 -20.6108802162325 -4.0
vertex -25.181262918363 -20.4452797319974 -4.0
endloop
endfacet
facet normal 0.0 0.0 -1.0
outer loop
vertex -20.1142005614282 -31.1072950973938 -4.0
vertex -25.181262918363 -20.4452797319974 -4.0
vertex -24.0091234775612 -19.9597636786249 -4.0
endloop
endfacet
facet normal 0.0 0.0 -1.0
outer loop
vertex -20.1142005614282 -31.1072950973938 -4.0
vertex -24.0091234775612 -19.9597636786249 -4.0
vertex -23.0025845209946 -19.1874191727991 -4.0
endloop
endfacet
facet normal 0.0 0.0 -1.0
outer loop
vertex -20.1142005614282 -31.1072950973938 -4.0
vertex -23.0025845209946 -19.1874191727991 -4.0
vertex -22.2302400151688 -18.1808802162325 -4.0
endloop
endfacet
facet normal 0.0 0.0 -1.0
outer loop
vertex -20.1142005614282 -31.1072950973938 -4.0
vertex -22.2302400151688 -18.1808802162325 -4.0
vertex -21.7447239617963 -17.0087407754307 -4.0
endloop
endfacet
facet normal 0.0 0.0 -1.0
outer loop
vertex -20.1142005614282 -31.1072950973938 -4.0
vertex -21.7447239617963 -17.0087407754307 -4.0
vertex -21.5791234775612 -15.7508802162325 -4.0
endloop
endfacet
facet normal 0.0 0.0 -1.0
outer loop
vertex -20.1142005614282 -31.1072950973938 -4.0
vertex -21.5791234775612 -15.7508802162325 -4.0
vertex -21.2173521111711 -0.826921726855128 -4.0
endloop
endfacet
facet normal 0.0 0.0 -1.0
outer loop
vertex -20.1142005614282 -31.1072950973938 -4.0
vertex -21.2173521111711 -0.826921726855128 -4.0
vertex -12.1869653389429 8.73818230626182 -4.0
endloop
endfacet
facet normal 0.0 0.0 -1.0
outer loop
vertex -20.1142005614282 -31.1072950973938 -4.0
vertex -12.1869653389429 8.73818230626182 -4.0
vertex -15.0710421393888 -6.94246266200036 -4.0
endloop
endfacet
facet normal 0.0 0.0 -1.0
outer loop
vertex -15.0710421393888 -6.94246266200036 -4.0
vertex -12.1869653389429 8.73818230626182 -4.0
vertex -7.29504213938874 -2.45298696878185 -4.0
endloop
endfacet
facet normal 0.0 0.0 -1.0
outer loop
vertex -7.29504213938874 -2.45298696878185 -4.0
vertex -12.1869653389429 8.73818230626182 -4.0
vertex -1.81896533894292 8.73818230626182 -4.0
endloop
endfacet
facet normal 0.0 0.0 -1.0
outer loop
vertex -7.29504213938874 -2.45298696878185 -4.0
vertex -1.81896533894292 8.73818230626182 -4.0
vertex -7.29504213938874 -11.4319383552189 -4.0
endloop
endfacet
facet normal 0.0 0.0 -1.0
outer loop
vertex 23.589879996807 38.0272480950773 -4.0
vertex 7.23563938909535 24.5488480950773 -4.0
vertex 3.26051876487306 30.4144735744744 -4.0
endloop
endfacet
facet normal 0.0 0.0 -1.0
outer loop
vertex 7.23563938909535 24.5488480950773 -4.0
vertex 23.589879996807 38.0272480950773 -4.0
vertex 20.479479996807 30.4144735744744 -4.0
endloop
endfacet
facet normal 0.0 0.0 -1.0
outer loop
vertex 20.479479996807 30.4144735744744 -4.0
vertex 23.589879996807 38.0272480950773 -4.0
vertex 25.0415973299612 24.5488480950773 -4.0
endloop
endfacet
facet normal 0.0 0.0 -1.0
outer loop
vertex 25.0415973299612 24.5488480950773 -4.0
vertex 23.589879996807 38.0272480950773 -4.0
vertex 33.698679996807 24.5488480950773 -4.0
endloop
endfacet
facet normal 0.0 0.0 -1.0
outer loop
vertex 10.933540915852 19.7434386207129 -4.0
vertex 20.479479996807 14.6344480950773 -4.0
vertex 15.4483914306755 -0.826921726855128 -4.0
endloop
endfacet
facet normal 0.0 0.0 -1.0
outer loop
vertex 20.479479996807 14.6344480950773 -4.0
vertex 10.933540915852 19.7434386207129 -4.0
vertex 25.0415973299612 24.5488480950773 -4.0
endloop
endfacet
facet normal 0.0 0.0 -1.0
outer loop
vertex 20.479479996807 14.6344480950773 -4.0
vertex 25.0415973299612 24.5488480950773 -4.0
vertex 33.698679996807 24.5488480950773 -4.0
endloop
endfacet
facet normal 0.0 0.0 -1.0
outer loop
vertex 7.23563938909535 19.7434386207129 -4.0
vertex -5.24862923985948 18.5224977921172 -4.0
vertex -5.24862923985948 19.7434386207129 -4.0
endloop
endfacet
facet normal 0.0 0.0 -1.0
outer loop
vertex -5.24862923985948 18.5224977921172 -4.0
vertex 7.23563938909535 19.7434386207129 -4.0
vertex -1.81896533894292 8.73818230626182 -4.0
endloop
endfacet
facet normal 0.0 0.0 -1.0
outer loop
vertex -1.81896533894292 8.73818230626182 -4.0
vertex 7.23563938909535 19.7434386207129 -4.0
vertex -0.590062478413561 -9.05231199882935 -4.0
endloop
endfacet
facet normal 0.0 0.0 -1.0
outer loop
vertex -0.590062478413561 -9.05231199882935 -4.0
vertex 7.23563938909535 19.7434386207129 -4.0
vertex 7.23563938909535 -0.826921726855128 -4.0
endloop
endfacet
facet normal 0.0 0.0 -1.0
outer loop
vertex -0.590062478413561 -9.05231199882935 -4.0
vertex 7.23563938909535 -0.826921726855128 -4.0
vertex 25.0059375215864 -9.05231199882935 -4.0
endloop
endfacet
facet normal 0.0 0.0 -1.0
outer loop
vertex 25.0059375215864 -9.05231199882935 -4.0
vertex 7.23563938909535 -0.826921726855128 -4.0
vertex 15.4483914306755 -0.826921726855128 -4.0
endloop
endfacet
facet normal 0.0 0.0 -1.0
outer loop
vertex 25.0059375215864 -9.05231199882935 -4.0
vertex 15.4483914306755 -0.826921726855128 -4.0
vertex 20.479479996807 14.6344480950773 -4.0
endloop
endfacet
facet normal 0.0 0.0 -1.0
outer loop
vertex 25.0059375215864 -9.05231199882935 -4.0
vertex 20.479479996807 14.6344480950773 -4.0
vertex 26.894679996807 6.08084809507729 -4.0
endloop
endfacet
facet normal 0.0 0.0 -1.0
outer loop
vertex 25.0059375215864 -9.05231199882935 -4.0
vertex 26.894679996807 6.08084809507729 -4.0
vertex 42.576279996807 8.93204809507729 -4.0
endloop
endfacet
facet normal 0.0 0.0 -1.0
outer loop
vertex 42.576279996807 8.93204809507729 -4.0
vertex 26.894679996807 6.08084809507729 -4.0
vertex 38.299479996807 14.6344480950773 -4.0
endloop
endfacet
facet normal 0.0 0.0 -1.0
outer loop
vertex -15.0710421393888 -6.94246266200036 -4.0
vertex -11.5966254941321 -19.6755650895177 -4.0
vertex -20.1142005614282 -31.1072950973938 -4.0
endloop
endfacet
facet normal 0.0 0.0 -1.0
outer loop
vertex -11.5966254941321 -19.6755650895177 -4.0
vertex -15.0710421393888 -6.94246266200036 -4.0
vertex -7.29504213938874 -11.4319383552189 -4.0
endloop
endfacet
facet normal 0.0 0.0 -1.0
outer loop
vertex -11.5966254941321 -19.6755650895177 -4.0
vertex -7.29504213938874 -11.4319383552189 -4.0
vertex -0.590062478413561 -22.3329419612307 -4.0
endloop
endfacet
facet normal 0.0 0.0 -1.0
outer loop
vertex -0.590062478413561 -22.3329419612307 -4.0
vertex -7.29504213938874 -11.4319383552189 -4.0
vertex -1.81896533894292 8.73818230626182 -4.0
endloop
endfacet
facet normal 0.0 0.0 -1.0
outer loop
vertex -0.590062478413561 -22.3329419612307 -4.0
vertex -1.81896533894292 8.73818230626182 -4.0
vertex -0.590062478413561 -9.05231199882935 -4.0
endloop
endfacet
facet normal 0.0 0.0 -1.0
outer loop
vertex -30.8062005614281 -0.826921726855128 -4.0
vertex -38.1339021706445 -22.3329419612307 -4.0
vertex -38.1339021706445 -9.05231199882935 -4.0
endloop
endfacet
facet normal 0.0 0.0 -1.0
outer loop
vertex -38.1339021706445 -22.3329419612307 -4.0
vertex -30.8062005614281 -0.826921726855128 -4.0
vertex -31.2991234775612 -15.7508802162325 -4.0
endloop
endfacet
facet normal 0.0 0.0 -1.0
outer loop
vertex -31.2991234775612 -15.7508802162325 -4.0
vertex -30.8062005614281 -0.826921726855128 -4.0
vertex -31.133522993326 -14.4930196570342 -4.0
endloop
endfacet
facet normal 0.0 0.0 -1.0
outer loop
vertex -31.133522993326 -14.4930196570342 -4.0
vertex -30.8062005614281 -0.826921726855128 -4.0
vertex -30.6480069399535 -13.3208802162325 -4.0
endloop
endfacet
facet normal 0.0 0.0 -1.0
outer loop
vertex -30.6480069399535 -13.3208802162325 -4.0
vertex -30.8062005614281 -0.826921726855128 -4.0
vertex -21.2173521111711 -0.826921726855128 -4.0
endloop
endfacet
facet normal 0.0 0.0 -1.0
outer loop
vertex -30.6480069399535 -13.3208802162325 -4.0
vertex -21.2173521111711 -0.826921726855128 -4.0
vertex -29.8756624341278 -12.3143412596659 -4.0
endloop
endfacet
facet normal 0.0 0.0 -1.0
outer loop
vertex -29.8756624341278 -12.3143412596659 -4.0
vertex -21.2173521111711 -0.826921726855128 -4.0
vertex -28.8691234775611 -11.5419967538401 -4.0
endloop
endfacet
facet normal 0.0 0.0 -1.0
outer loop
vertex -28.8691234775611 -11.5419967538401 -4.0
vertex -21.2173521111711 -0.826921726855128 -4.0
vertex -27.6969840367594 -11.0564807004676 -4.0
endloop
endfacet
facet normal 0.0 0.0 -1.0
outer loop
vertex -27.6969840367594 -11.0564807004676 -4.0
vertex -21.2173521111711 -0.826921726855128 -4.0
vertex -26.4391234775612 -10.8908802162325 -4.0
endloop
endfacet
facet normal 0.0 0.0 -1.0
outer loop
vertex -26.4391234775612 -10.8908802162325 -4.0
vertex -21.2173521111711 -0.826921726855128 -4.0
vertex -25.181262918363 -11.0564807004676 -4.0
endloop
endfacet
facet normal 0.0 0.0 -1.0
outer loop
vertex -25.181262918363 -11.0564807004676 -4.0
vertex -21.2173521111711 -0.826921726855128 -4.0
vertex -24.0091234775612 -11.5419967538401 -4.0
endloop
endfacet
facet normal 0.0 0.0 -1.0
outer loop
vertex -24.0091234775612 -11.5419967538401 -4.0
vertex -21.2173521111711 -0.826921726855128 -4.0
vertex -23.0025845209946 -12.3143412596659 -4.0
endloop
endfacet
facet normal 0.0 0.0 -1.0
outer loop
vertex -23.0025845209946 -12.3143412596659 -4.0
vertex -21.2173521111711 -0.826921726855128 -4.0
vertex -22.2302400151688 -13.3208802162325 -4.0
endloop
endfacet
facet normal 0.0 0.0 -1.0
outer loop
vertex -22.2302400151688 -13.3208802162325 -4.0
vertex -21.2173521111711 -0.826921726855128 -4.0
vertex -21.7447239617963 -14.4930196570342 -4.0
endloop
endfacet
facet normal 0.0 0.0 -1.0
outer loop
vertex -21.7447239617963 -14.4930196570342 -4.0
vertex -21.2173521111711 -0.826921726855128 -4.0
vertex -21.5791234775612 -15.7508802162325 -4.0
endloop
endfacet
facet normal -1.0 0.0 0.0
outer loop
vertex -5.24862923985948 19.7434386207129 0.0
vertex -5.24862923985948 18.5224977921172 -4.0
vertex -5.24862923985948 18.5224977921172 0.0
endloop
endfacet
facet normal -1.0 0.0 0.0
outer loop
vertex -5.24862923985948 18.5224977921172 -4.0
vertex -5.24862923985948 19.7434386207129 0.0
vertex -5.24862923985948 19.7434386207129 -4.0
endloop
endfacet
facet normal 0.0 1.0 0.0
outer loop
vertex -5.24862923985948 19.7434386207129 0.0
vertex 7.23563938909535 19.7434386207129 -4.0
vertex -5.24862923985948 19.7434386207129 -4.0
endloop
endfacet
facet normal 0.0 1.0 0.0
outer loop
vertex 7.23563938909535 19.7434386207129 -4.0
vertex -5.24862923985948 19.7434386207129 0.0
vertex 7.23563938909535 19.7434386207129 0.0
endloop
endfacet
facet normal 1.0 0.0 0.0
outer loop
vertex 7.23563938909535 19.7434386207129 -4.0
vertex 7.23563938909535 -0.826921726855128 0.0
vertex 7.23563938909535 -0.826921726855128 -4.0
endloop
endfacet
facet normal 1.0 0.0 0.0
outer loop
vertex 7.23563938909535 -0.826921726855128 0.0
vertex 7.23563938909535 19.7434386207129 -4.0
vertex 7.23563938909535 19.7434386207129 0.0
endloop
endfacet
facet normal 0.0 1.0 0.0
outer loop
vertex 7.23563938909535 -0.826921726855128 0.0
vertex 15.4483914306755 -0.826921726855128 -4.0
vertex 7.23563938909535 -0.826921726855128 -4.0
endloop
endfacet
facet normal 0.0 1.0 0.0
outer loop
vertex 15.4483914306755 -0.826921726855128 -4.0
vertex 7.23563938909535 -0.826921726855128 0.0
vertex 15.4483914306755 -0.826921726855128 0.0
endloop
endfacet
facet normal -0.976750253920608 -0.214380366325903 0.0
outer loop
vertex 10.933540915852 19.7434386207129 0.0
vertex 15.4483914306755 -0.826921726855128 -4.0
vertex 15.4483914306755 -0.826921726855128 0.0
endloop
endfacet
facet normal -0.976750253920608 -0.214380366325903 0.0
outer loop
vertex 15.4483914306755 -0.826921726855128 -4.0
vertex 10.933540915852 19.7434386207129 0.0
vertex 10.933540915852 19.7434386207129 -4.0
endloop
endfacet
facet normal -0.322424146159716 0.946595304220963 0.0
outer loop
vertex 10.933540915852 19.7434386207129 0.0
vertex 25.0415973299612 24.5488480950773 -4.0
vertex 10.933540915852 19.7434386207129 -4.0
endloop
endfacet
facet normal -0.322424146159716 0.946595304220963 0.0
outer loop
vertex 25.0415973299612 24.5488480950773 -4.0
vertex 10.933540915852 19.7434386207129 0.0
vertex 25.0415973299612 24.5488480950773 0.0
endloop
endfacet
facet normal -0.789354553248362 -0.613937610239085 0.0
outer loop
vertex 20.479479996807 30.4144735744744 0.0
vertex 25.0415973299612 24.5488480950773 -4.0
vertex 25.0415973299612 24.5488480950773 0.0
endloop
endfacet
facet normal -0.789354553248362 -0.613937610239085 0.0
outer loop
vertex 25.0415973299612 24.5488480950773 -4.0
vertex 20.479479996807 30.4144735744744 0.0
vertex 20.479479996807 30.4144735744744 -4.0
endloop
endfacet
facet normal 0.404954790441461 -0.914336709149596 0.0
outer loop
vertex 20.479479996807 30.4144735744744 0.0
vertex 7.23563938909535 24.5488480950773 -4.0
vertex 20.479479996807 30.4144735744744 -4.0
endloop
endfacet
facet normal 0.404954790441461 -0.914336709149596 0.0
outer loop
vertex 7.23563938909535 24.5488480950773 -4.0
vertex 20.479479996807 30.4144735744744 0.0
vertex 7.23563938909535 24.5488480950773 0.0
endloop
endfacet
facet normal -0.827811702030092 -0.561006048079736 0.0
outer loop
vertex 3.26051876487306 30.4144735744744 0.0
vertex 7.23563938909535 24.5488480950773 -4.0
vertex 7.23563938909535 24.5488480950773 0.0
endloop
endfacet
facet normal -0.827811702030092 -0.561006048079736 0.0
outer loop
vertex 7.23563938909535 24.5488480950773 -4.0
vertex 3.26051876487306 30.4144735744744 0.0
vertex 3.26051876487306 30.4144735744744 -4.0
endloop
endfacet
facet normal -0.350689815763908 0.936491672744331 0.0
outer loop
vertex 3.26051876487306 30.4144735744744 0.0
vertex 23.589879996807 38.0272480950773 -4.0
vertex 3.26051876487306 30.4144735744744 -4.0
endloop
endfacet
facet normal -0.350689815763908 0.936491672744331 0.0
outer loop
vertex 23.589879996807 38.0272480950773 -4.0
vertex 3.26051876487306 30.4144735744744 0.0
vertex 23.589879996807 38.0272480950773 0.0
endloop
endfacet
facet normal 0.800000000000001 0.599999999999999 0.0
outer loop
vertex 23.589879996807 38.0272480950773 -4.0
vertex 33.698679996807 24.5488480950773 0.0
vertex 33.698679996807 24.5488480950773 -4.0
endloop
endfacet
facet normal 0.800000000000001 0.599999999999999 0.0
outer loop
vertex 33.698679996807 24.5488480950773 0.0
vertex 23.589879996807 38.0272480950773 -4.0
vertex 23.589879996807 38.0272480950773 0.0
endloop
endfacet
facet normal 0.599999999999999 -0.800000000000001 0.0
outer loop
vertex 33.698679996807 24.5488480950773 0.0
vertex 20.479479996807 14.6344480950773 -4.0
vertex 33.698679996807 24.5488480950773 -4.0
endloop
endfacet
facet normal 0.599999999999999 -0.800000000000001 0.0
outer loop
vertex 20.479479996807 14.6344480950773 -4.0
vertex 33.698679996807 24.5488480950773 0.0
vertex 20.479479996807 14.6344480950773 0.0
endloop
endfacet
facet normal 0.8 0.599999999999999 0.0
outer loop
vertex 20.479479996807 14.6344480950773 -4.0
vertex 26.894679996807 6.08084809507729 0.0
vertex 26.894679996807 6.08084809507729 -4.0
endloop
endfacet
facet normal 0.8 0.599999999999999 0.0
outer loop
vertex 26.894679996807 6.08084809507729 0.0
vertex 20.479479996807 14.6344480950773 -4.0
vertex 20.479479996807 14.6344480950773 0.0
endloop
endfacet
facet normal -0.6 0.8 0.0
outer loop
vertex 26.894679996807 6.08084809507729 0.0
vertex 38.299479996807 14.6344480950773 -4.0
vertex 26.894679996807 6.08084809507729 -4.0
endloop
endfacet
facet normal -0.6 0.8 0.0
outer loop
vertex 38.299479996807 14.6344480950773 -4.0
vertex 26.894679996807 6.08084809507729 0.0
vertex 38.299479996807 14.6344480950773 0.0
endloop
endfacet
facet normal 0.800000000000002 0.599999999999998 0.0
outer loop
vertex 38.299479996807 14.6344480950773 -4.0
vertex 42.576279996807 8.93204809507729 0.0
vertex 42.576279996807 8.93204809507729 -4.0
endloop
endfacet
facet normal 0.800000000000002 0.599999999999998 0.0
outer loop
vertex 42.576279996807 8.93204809507729 0.0
vertex 38.299479996807 14.6344480950773 -4.0
vertex 38.299479996807 14.6344480950773 0.0
endloop
endfacet
facet normal 0.715292210327861 -0.698825481679284 0.0
outer loop
vertex 42.576279996807 8.93204809507729 -4.0
vertex 25.0059375215864 -9.05231199882935 0.0
vertex 25.0059375215864 -9.05231199882935 -4.0
endloop
endfacet
facet normal 0.715292210327861 -0.698825481679284 0.0
outer loop
vertex 25.0059375215864 -9.05231199882935 0.0
vertex 42.576279996807 8.93204809507729 -4.0
vertex 42.576279996807 8.93204809507729 0.0
endloop
endfacet
facet normal 0.0 -1.0 0.0
outer loop
vertex 25.0059375215864 -9.05231199882935 0.0
vertex -0.590062478413561 -9.05231199882935 -4.0
vertex 25.0059375215864 -9.05231199882935 -4.0
endloop
endfacet
facet normal 0.0 -1.0 0.0
outer loop
vertex -0.590062478413561 -9.05231199882935 -4.0
vertex 25.0059375215864 -9.05231199882935 0.0
vertex -0.590062478413561 -9.05231199882935 0.0
endloop
endfacet
facet normal 1.0 0.0 0.0
outer loop
vertex -0.590062478413561 -9.05231199882935 -4.0
vertex -0.590062478413561 -22.3329419612307 0.0
vertex -0.590062478413561 -22.3329419612307 -4.0
endloop
endfacet
facet normal 1.0 0.0 0.0
outer loop
vertex -0.590062478413561 -22.3329419612307 0.0
vertex -0.590062478413561 -9.05231199882935 -4.0
vertex -0.590062478413561 -9.05231199882935 0.0
endloop
endfacet
facet normal -0.234692298299799 -0.97206971206738 0.0
outer loop
vertex -0.590062478413561 -22.3329419612307 0.0
vertex -11.5966254941321 -19.6755650895177 -4.0
vertex -0.590062478413561 -22.3329419612307 -4.0
endloop
endfacet
facet normal -0.234692298299799 -0.97206971206738 0.0
outer loop
vertex -11.5966254941321 -19.6755650895177 -4.0
vertex -0.590062478413561 -22.3329419612307 0.0
vertex -11.5966254941321 -19.6755650895177 0.0
endloop
endfacet
facet normal 0.801889029733176 -0.597472998547705 0.0
outer loop
vertex -11.5966254941321 -19.6755650895177 -4.0
vertex -20.1142005614282 -31.1072950973938 0.0
vertex -20.1142005614282 -31.1072950973938 -4.0
endloop
endfacet
facet normal 0.801889029733176 -0.597472998547705 0.0
outer loop
vertex -20.1142005614282 -31.1072950973938 0.0
vertex -11.5966254941321 -19.6755650895177 -4.0
vertex -11.5966254941321 -19.6755650895177 0.0
endloop
endfacet
facet normal 0.0 -1.0 0.0
outer loop
vertex -20.1142005614282 -31.1072950973938 0.0
vertex -30.8062005614281 -31.1072950973938 -4.0
vertex -20.1142005614282 -31.1072950973938 -4.0
endloop
endfacet
facet normal 0.0 -1.0 0.0
outer loop
vertex -30.8062005614281 -31.1072950973938 -4.0
vertex -20.1142005614282 -31.1072950973938 0.0
vertex -30.8062005614281 -31.1072950973938 0.0
endloop
endfacet
facet normal -0.767543672481947 -0.640996654307123 0.0
outer loop
vertex -38.1339021706445 -22.3329419612307 0.0
vertex -30.8062005614281 -31.1072950973938 -4.0
vertex -30.8062005614281 -31.1072950973938 0.0
endloop
endfacet
facet normal -0.767543672481947 -0.640996654307123 0.0
outer loop
vertex -30.8062005614281 -31.1072950973938 -4.0
vertex -38.1339021706445 -22.3329419612307 0.0
vertex -38.1339021706445 -22.3329419612307 -4.0
endloop
endfacet
facet normal -1.0 0.0 0.0
outer loop
vertex -38.1339021706445 -9.05231199882935 0.0
vertex -38.1339021706445 -22.3329419612307 -4.0
vertex -38.1339021706445 -22.3329419612307 0.0
endloop
endfacet
facet normal -1.0 0.0 0.0
outer loop
vertex -38.1339021706445 -22.3329419612307 -4.0
vertex -38.1339021706445 -9.05231199882935 0.0
vertex -38.1339021706445 -9.05231199882935 -4.0
endloop
endfacet
facet normal -0.746676676831357 0.665187146806131 0.0
outer loop
vertex -30.8062005614281 -0.826921726855128 0.0
vertex -38.1339021706445 -9.05231199882935 -4.0
vertex -38.1339021706445 -9.05231199882935 0.0
endloop
endfacet
facet normal -0.746676676831357 0.665187146806131 0.0
outer loop
vertex -38.1339021706445 -9.05231199882935 -4.0
vertex -30.8062005614281 -0.826921726855128 0.0
vertex -30.8062005614281 -0.826921726855128 -4.0
endloop
endfacet
facet normal 0.0 1.0 0.0
outer loop
vertex -30.8062005614281 -0.826921726855128 0.0
vertex -21.2173521111711 -0.826921726855128 -4.0
vertex -30.8062005614281 -0.826921726855128 -4.0
endloop
endfacet
facet normal 0.0 1.0 0.0
outer loop
vertex -21.2173521111711 -0.826921726855128 -4.0
vertex -30.8062005614281 -0.826921726855128 0.0
vertex -21.2173521111711 -0.826921726855128 0.0
endloop
endfacet
facet normal -0.727139226009243 0.686490018863115 0.0
outer loop
vertex -12.1869653389429 8.73818230626182 0.0
vertex -21.2173521111711 -0.826921726855128 -4.0
vertex -21.2173521111711 -0.826921726855128 0.0
endloop
endfacet
facet normal -0.727139226009243 0.686490018863115 0.0
outer loop
vertex -21.2173521111711 -0.826921726855128 -4.0
vertex -12.1869653389429 8.73818230626182 0.0
vertex -12.1869653389429 8.73818230626182 -4.0
endloop
endfacet
facet normal 0.0 1.0 0.0
outer loop
vertex -12.1869653389429 8.73818230626182 0.0
vertex -1.81896533894292 8.73818230626182 -4.0
vertex -12.1869653389429 8.73818230626182 -4.0
endloop
endfacet
facet normal 0.0 1.0 0.0
outer loop
vertex -1.81896533894292 8.73818230626182 -4.0
vertex -12.1869653389429 8.73818230626182 0.0
vertex -1.81896533894292 8.73818230626182 0.0
endloop
endfacet
facet normal -0.943703268311671 -0.330793200319884 0.0
outer loop
vertex -5.24862923985948 18.5224977921172 0.0
vertex -1.81896533894292 8.73818230626182 -4.0
vertex -1.81896533894292 8.73818230626182 0.0
endloop
endfacet
facet normal -0.943703268311671 -0.330793200319884 0.0
outer loop
vertex -1.81896533894292 8.73818230626182 -4.0
vertex -5.24862923985948 18.5224977921172 0.0
vertex -5.24862923985948 18.5224977921172 -4.0
endloop
endfacet
facet normal -2.04064416610314e-015 -1.0 0.0
outer loop
vertex -26.4391234775612 -10.8908802162325 0.0
vertex -27.6969840367594 -11.0564807004676 -4.0
vertex -26.4391234775612 -10.8908802162325 -4.0
endloop
endfacet
facet normal 0.258819045102527 -0.965925826289067 0.0
outer loop
vertex -27.6969840367594 -11.0564807004676 -4.0
vertex -26.4391234775612 -10.8908802162325 0.0
vertex -27.6969840367594 -11.0564807004676 0.0
endloop
endfacet
facet normal 0.258819045102527 -0.965925826289067 0.0
outer loop
vertex -27.6969840367594 -11.0564807004676 0.0
vertex -28.8691234775611 -11.5419967538401 -4.0
vertex -27.6969840367594 -11.0564807004676 -4.0
endloop
endfacet
facet normal 0.499999999999994 -0.866025403784442 0.0
outer loop
vertex -28.8691234775611 -11.5419967538401 -4.0
vertex -27.6969840367594 -11.0564807004676 0.0
vertex -28.8691234775611 -11.5419967538401 0.0
endloop
endfacet
facet normal 0.499999999999994 -0.866025403784442 0.0
outer loop
vertex -28.8691234775611 -11.5419967538401 0.0
vertex -29.8756624341278 -12.3143412596659 -4.0
vertex -28.8691234775611 -11.5419967538401 -4.0
endloop
endfacet
facet normal 0.707106781186547 -0.707106781186548 0.0
outer loop
vertex -29.8756624341278 -12.3143412596659 -4.0
vertex -28.8691234775611 -11.5419967538401 0.0
vertex -29.8756624341278 -12.3143412596659 0.0
endloop
endfacet
facet normal 0.707106781186547 -0.707106781186548 0.0
outer loop
vertex -29.8756624341278 -12.3143412596659 -4.0
vertex -30.6480069399535 -13.3208802162325 0.0
vertex -30.6480069399535 -13.3208802162325 -4.0
endloop
endfacet
facet normal 0.866025403784442 -0.499999999999995 0.0
outer loop
vertex -30.6480069399535 -13.3208802162325 0.0
vertex -29.8756624341278 -12.3143412596659 -4.0
vertex -29.8756624341278 -12.3143412596659 0.0
endloop
endfacet
facet normal 0.866025403784442 -0.499999999999995 0.0
outer loop
vertex -30.6480069399535 -13.3208802162325 -4.0
vertex -31.133522993326 -14.4930196570342 0.0
vertex -31.133522993326 -14.4930196570342 -4.0
endloop
endfacet
facet normal 0.965925826289066 -0.258819045102529 0.0
outer loop
vertex -31.133522993326 -14.4930196570342 0.0
vertex -30.6480069399535 -13.3208802162325 -4.0
vertex -30.6480069399535 -13.3208802162325 0.0
endloop
endfacet
facet normal 0.965925826289066 -0.258819045102529 0.0
outer loop
vertex -31.133522993326 -14.4930196570342 -4.0
vertex -31.2991234775612 -15.7508802162325 0.0
vertex -31.2991234775612 -15.7508802162325 -4.0
endloop
endfacet
facet normal 1.0 -8.64377659877751e-016 0.0
outer loop
vertex -31.2991234775612 -15.7508802162325 0.0
vertex -31.133522993326 -14.4930196570342 -4.0
vertex -31.133522993326 -14.4930196570342 0.0
endloop
endfacet
facet normal 1.0 -8.64377659877751e-016 0.0
outer loop
vertex -31.2991234775612 -15.7508802162325 -4.0
vertex -31.133522993326 -17.0087407754307 0.0
vertex -31.133522993326 -17.0087407754307 -4.0
endloop
endfacet
facet normal 0.965925826289064 0.258819045102536 0.0
outer loop
vertex -31.133522993326 -17.0087407754307 0.0
vertex -31.2991234775612 -15.7508802162325 -4.0
vertex -31.2991234775612 -15.7508802162325 0.0
endloop
endfacet
facet normal 0.965925826289064 0.258819045102536 0.0
outer loop
vertex -31.133522993326 -17.0087407754307 -4.0
vertex -30.6480069399535 -18.1808802162325 0.0
vertex -30.6480069399535 -18.1808802162325 -4.0
endloop
endfacet
facet normal 0.866025403784444 0.499999999999991 0.0
outer loop
vertex -30.6480069399535 -18.1808802162325 0.0
vertex -31.133522993326 -17.0087407754307 -4.0
vertex -31.133522993326 -17.0087407754307 0.0
endloop
endfacet
facet normal 0.866025403784444 0.499999999999991 0.0
outer loop
vertex -30.6480069399535 -18.1808802162325 -4.0
vertex -29.8756624341278 -19.1874191727991 0.0
vertex -29.8756624341278 -19.1874191727991 -4.0
endloop
endfacet
facet normal 0.707106781186555 0.70710678118654 0.0
outer loop
vertex -29.8756624341278 -19.1874191727991 0.0
vertex -30.6480069399535 -18.1808802162325 -4.0
vertex -30.6480069399535 -18.1808802162325 0.0
endloop
endfacet
facet normal 0.707106781186555 0.70710678118654 0.0
outer loop
vertex -29.8756624341278 -19.1874191727991 0.0
vertex -28.8691234775611 -19.9597636786249 -4.0
vertex -29.8756624341278 -19.1874191727991 -4.0
endloop
endfacet
facet normal 0.499999999999993 0.866025403784443 0.0
outer loop
vertex -28.8691234775611 -19.9597636786249 -4.0
vertex -29.8756624341278 -19.1874191727991 0.0
vertex -28.8691234775611 -19.9597636786249 0.0
endloop
endfacet
facet normal 0.499999999999993 0.866025403784443 0.0
outer loop
vertex -28.8691234775611 -19.9597636786249 0.0
vertex -27.6969840367594 -20.4452797319974 -4.0
vertex -28.8691234775611 -19.9597636786249 -4.0
endloop
endfacet
facet normal 0.25881904510252 0.965925826289068 0.0
outer loop
vertex -27.6969840367594 -20.4452797319974 -4.0
vertex -28.8691234775611 -19.9597636786249 0.0
vertex -27.6969840367594 -20.4452797319974 0.0
endloop
endfacet
facet normal 0.25881904510252 0.965925826289068 0.0
outer loop
vertex -27.6969840367594 -20.4452797319974 0.0
vertex -26.4391234775612 -20.6108802162325 -4.0
vertex -27.6969840367594 -20.4452797319974 -4.0
endloop
endfacet
facet normal -2.02282194631185e-015 1.0 0.0
outer loop
vertex -26.4391234775612 -20.6108802162325 -4.0
vertex -27.6969840367594 -20.4452797319974 0.0
vertex -26.4391234775612 -20.6108802162325 0.0
endloop
endfacet
facet normal -2.02282194631185e-015 1.0 0.0
outer loop
vertex -26.4391234775612 -20.6108802162325 0.0
vertex -25.181262918363 -20.4452797319974 -4.0
vertex -26.4391234775612 -20.6108802162325 -4.0
endloop
endfacet
facet normal -0.258819045102517 0.965925826289069 0.0
outer loop
vertex -25.181262918363 -20.4452797319974 -4.0
vertex -26.4391234775612 -20.6108802162325 0.0
vertex -25.181262918363 -20.4452797319974 0.0
endloop
endfacet
facet normal -0.258819045102517 0.965925826289069 0.0
outer loop
vertex -25.181262918363 -20.4452797319974 0.0
vertex -24.0091234775612 -19.9597636786249 -4.0
vertex -25.181262918363 -20.4452797319974 -4.0
endloop
endfacet
facet normal -0.499999999999996 0.866025403784441 0.0
outer loop
vertex -24.0091234775612 -19.9597636786249 -4.0
vertex -25.181262918363 -20.4452797319974 0.0
vertex -24.0091234775612 -19.9597636786249 0.0
endloop
endfacet
facet normal -0.499999999999996 0.866025403784441 0.0
outer loop
vertex -24.0091234775612 -19.9597636786249 0.0
vertex -23.0025845209946 -19.1874191727991 -4.0
vertex -24.0091234775612 -19.9597636786249 -4.0
endloop
endfacet
facet normal -0.707106781186551 0.707106781186544 0.0
outer loop
vertex -23.0025845209946 -19.1874191727991 -4.0
vertex -24.0091234775612 -19.9597636786249 0.0
vertex -23.0025845209946 -19.1874191727991 0.0
endloop
endfacet
facet normal -0.866025403784437 0.500000000000003 0.0
outer loop
vertex -22.2302400151688 -18.1808802162325 0.0
vertex -23.0025845209946 -19.1874191727991 -4.0
vertex -23.0025845209946 -19.1874191727991 0.0
endloop
endfacet
facet normal -0.707106781186551 0.707106781186544 0.0
outer loop
vertex -23.0025845209946 -19.1874191727991 -4.0
vertex -22.2302400151688 -18.1808802162325 0.0
vertex -22.2302400151688 -18.1808802162325 -4.0
endloop
endfacet
facet normal -0.965925826289067 0.258819045102526 0.0
outer loop
vertex -21.7447239617963 -17.0087407754307 0.0
vertex -22.2302400151688 -18.1808802162325 -4.0
vertex -22.2302400151688 -18.1808802162325 0.0
endloop
endfacet
facet normal -0.866025403784437 0.500000000000003 0.0
outer loop
vertex -22.2302400151688 -18.1808802162325 -4.0
vertex -21.7447239617963 -17.0087407754307 0.0
vertex -21.7447239617963 -17.0087407754307 -4.0
endloop
endfacet
facet normal -1.0 -8.46555440086455e-016 0.0
outer loop
vertex -21.5791234775612 -15.7508802162325 0.0
vertex -21.7447239617963 -17.0087407754307 -4.0
vertex -21.7447239617963 -17.0087407754307 0.0
endloop
endfacet
facet normal -0.965925826289067 0.258819045102526 0.0
outer loop
vertex -21.7447239617963 -17.0087407754307 -4.0
vertex -21.5791234775612 -15.7508802162325 0.0
vertex -21.5791234775612 -15.7508802162325 -4.0
endloop
endfacet
facet normal -0.965925826289068 -0.258819045102522 0.0
outer loop
vertex -21.7447239617963 -14.4930196570342 0.0
vertex -21.5791234775612 -15.7508802162325 -4.0
vertex -21.5791234775612 -15.7508802162325 0.0
endloop
endfacet
facet normal -1.0 -8.46555440086455e-016 0.0
outer loop
vertex -21.5791234775612 -15.7508802162325 -4.0
vertex -21.7447239617963 -14.4930196570342 0.0
vertex -21.7447239617963 -14.4930196570342 -4.0
endloop
endfacet
facet normal -0.866025403784434 -0.500000000000007 0.0
outer loop
vertex -22.2302400151688 -13.3208802162325 0.0
vertex -21.7447239617963 -14.4930196570342 -4.0
vertex -21.7447239617963 -14.4930196570342 0.0
endloop
endfacet
facet normal -0.965925826289068 -0.258819045102522 0.0
outer loop
vertex -21.7447239617963 -14.4930196570342 -4.0
vertex -22.2302400151688 -13.3208802162325 0.0
vertex -22.2302400151688 -13.3208802162325 -4.0
endloop
endfacet
facet normal -0.707106781186547 -0.707106781186548 0.0
outer loop
vertex -23.0025845209946 -12.3143412596659 0.0
vertex -22.2302400151688 -13.3208802162325 -4.0
vertex -22.2302400151688 -13.3208802162325 0.0
endloop
endfacet
facet normal -0.866025403784434 -0.500000000000007 0.0
outer loop
vertex -22.2302400151688 -13.3208802162325 -4.0
vertex -23.0025845209946 -12.3143412596659 0.0
vertex -23.0025845209946 -12.3143412596659 -4.0
endloop
endfacet
facet normal -0.707106781186547 -0.707106781186548 0.0
outer loop
vertex -23.0025845209946 -12.3143412596659 0.0
vertex -24.0091234775612 -11.5419967538401 -4.0
vertex -23.0025845209946 -12.3143412596659 -4.0
endloop
endfacet
facet normal -0.499999999999997 -0.86602540378444 0.0
outer loop
vertex -24.0091234775612 -11.5419967538401 -4.0
vertex -23.0025845209946 -12.3143412596659 0.0
vertex -24.0091234775612 -11.5419967538401 0.0
endloop
endfacet
facet normal -0.499999999999997 -0.86602540378444 0.0
outer loop
vertex -24.0091234775612 -11.5419967538401 0.0
vertex -25.181262918363 -11.0564807004676 -4.0
vertex -24.0091234775612 -11.5419967538401 -4.0
endloop
endfacet
facet normal -0.258819045102521 -0.965925826289068 0.0
outer loop
vertex -25.181262918363 -11.0564807004676 -4.0
vertex -24.0091234775612 -11.5419967538401 0.0
vertex -25.181262918363 -11.0564807004676 0.0
endloop
endfacet
facet normal -0.258819045102521 -0.965925826289068 0.0
outer loop
vertex -25.181262918363 -11.0564807004676 0.0
vertex -26.4391234775612 -10.8908802162325 -4.0
vertex -25.181262918363 -11.0564807004676 -4.0
endloop
endfacet
facet normal -2.04064416610314e-015 -1.0 0.0
outer loop
vertex -26.4391234775612 -10.8908802162325 -4.0
vertex -25.181262918363 -11.0564807004676 0.0
vertex -26.4391234775612 -10.8908802162325 0.0
endloop
endfacet
facet normal 0.500000000000001 0.866025403784438 0.0
outer loop
vertex -15.0710421393888 -6.94246266200036 0.0
vertex -7.29504213938874 -11.4319383552189 -4.0
vertex -15.0710421393888 -6.94246266200036 -4.0
endloop
endfacet
facet normal 0.500000000000001 0.866025403784438 0.0
outer loop
vertex -7.29504213938874 -11.4319383552189 -4.0
vertex -15.0710421393888 -6.94246266200036 0.0
vertex -7.29504213938874 -11.4319383552189 0.0
endloop
endfacet
facet normal -1.0 0.0 0.0
outer loop
vertex -7.29504213938874 -2.45298696878185 0.0
vertex -7.29504213938874 -11.4319383552189 -4.0
vertex -7.29504213938874 -11.4319383552189 0.0
endloop
endfacet
facet normal -1.0 0.0 0.0
outer loop
vertex -7.29504213938874 -11.4319383552189 -4.0
vertex -7.29504213938874 -2.45298696878185 0.0
vertex -7.29504213938874 -2.45298696878185 -4.0
endloop
endfacet
facet normal 0.499999999999998 -0.86602540378444 0.0
outer loop
vertex -7.29504213938874 -2.45298696878185 0.0
vertex -15.0710421393888 -6.94246266200036 -4.0
vertex -7.29504213938874 -2.45298696878185 -4.0
endloop
endfacet
facet normal 0.499999999999998 -0.86602540378444 0.0
outer loop
vertex -15.0710421393888 -6.94246266200036 -4.0
vertex -7.29504213938874 -2.45298696878185 0.0
vertex -15.0710421393888 -6.94246266200036 0.0
endloop
endfacet
facet normal 0.0 0.0 1.0
outer loop
vertex -6.37511045350785 -1.70820569767664 -2.0
vertex -6.37511045350785 1.70820569767663 -2.0
vertex -6.6 -8.08266887437253e-016 -2.0
endloop
endfacet
facet normal 0.0 0.0 1.0
outer loop
vertex -6.37511045350785 1.70820569767663 -2.0
vertex -6.37511045350785 -1.70820569767664 -2.0
vertex -5.7157676649773 3.3 -2.0
endloop
endfacet
facet normal 0.0 0.0 1.0
outer loop
vertex -5.7157676649773 3.3 -2.0
vertex -6.37511045350785 -1.70820569767664 -2.0
vertex -5.71576766497729 -3.3 -2.0
endloop
endfacet
facet normal 0.0 0.0 1.0
outer loop
vertex -5.7157676649773 3.3 -2.0
vertex -5.71576766497729 -3.3 -2.0
vertex -4.66690475583122 4.66690475583121 -2.0
endloop
endfacet
facet normal 0.0 0.0 1.0
outer loop
vertex -4.66690475583122 4.66690475583121 -2.0
vertex -5.71576766497729 -3.3 -2.0
vertex -4.66690475583121 -4.66690475583121 -2.0
endloop
endfacet
facet normal 0.0 0.0 1.0
outer loop
vertex -4.66690475583122 4.66690475583121 -2.0
vertex -4.66690475583121 -4.66690475583121 -2.0
vertex -3.3 5.71576766497729 -2.0
endloop
endfacet
facet normal 0.0 0.0 1.0
outer loop
vertex -3.3 5.71576766497729 -2.0
vertex -4.66690475583121 -4.66690475583121 -2.0
vertex -3.3 -5.71576766497729 -2.0
endloop
endfacet
facet normal 0.0 0.0 1.0
outer loop
vertex -3.3 5.71576766497729 -2.0
vertex -3.3 -5.71576766497729 -2.0
vertex -1.70820569767664 6.37511045350785 -2.0
endloop
endfacet
facet normal 0.0 0.0 1.0
outer loop
vertex -1.70820569767664 6.37511045350785 -2.0
vertex -3.3 -5.71576766497729 -2.0
vertex -1.70820569767664 -6.37511045350785 -2.0
endloop
endfacet
facet normal 0.0 0.0 1.0
outer loop
vertex -1.70820569767664 6.37511045350785 -2.0
vertex -1.70820569767664 -6.37511045350785 -2.0
vertex -1.21240033115588e-015 6.6 -2.0
endloop
endfacet
facet normal 0.0 0.0 1.0
outer loop
vertex -1.21240033115588e-015 6.6 -2.0
vertex -1.70820569767664 -6.37511045350785 -2.0
vertex 4.04133443718627e-016 -6.6 -2.0
endloop
endfacet
facet normal 0.0 0.0 1.0
outer loop
vertex -1.21240033115588e-015 6.6 -2.0
vertex 4.04133443718627e-016 -6.6 -2.0
vertex 1.70820569767663 6.37511045350785 -2.0
endloop
endfacet
facet normal 0.0 0.0 1.0
outer loop
vertex 1.70820569767663 6.37511045350785 -2.0
vertex 4.04133443718627e-016 -6.6 -2.0
vertex 1.70820569767664 -6.37511045350785 -2.0
endloop
endfacet
facet normal 0.0 0.0 1.0
outer loop
vertex 1.70820569767663 6.37511045350785 -2.0
vertex 1.70820569767664 -6.37511045350785 -2.0
vertex 3.3 5.7157676649773 -2.0
endloop
endfacet
facet normal 0.0 0.0 1.0
outer loop
vertex 3.3 5.7157676649773 -2.0
vertex 1.70820569767664 -6.37511045350785 -2.0
vertex 3.3 -5.71576766497729 -2.0
endloop
endfacet
facet normal 0.0 0.0 1.0
outer loop
vertex 3.3 5.7157676649773 -2.0
vertex 3.3 -5.71576766497729 -2.0
vertex 4.66690475583121 4.66690475583121 -2.0
endloop
endfacet
facet normal 0.0 0.0 1.0
outer loop
vertex 4.66690475583121 4.66690475583121 -2.0
vertex 3.3 -5.71576766497729 -2.0
vertex 4.66690475583121 -4.66690475583121 -2.0
endloop
endfacet
facet normal 0.0 0.0 1.0
outer loop
vertex 4.66690475583121 4.66690475583121 -2.0
vertex 4.66690475583121 -4.66690475583121 -2.0
vertex 5.71576766497729 3.3 -2.0
endloop
endfacet
facet normal 0.0 0.0 1.0
outer loop
vertex 5.71576766497729 3.3 -2.0
vertex 4.66690475583121 -4.66690475583121 -2.0
vertex 5.71576766497729 -3.3 -2.0
endloop
endfacet
facet normal 0.0 0.0 1.0
outer loop
vertex 5.71576766497729 3.3 -2.0
vertex 5.71576766497729 -3.3 -2.0
vertex 6.37511045350785 1.70820569767664 -2.0
endloop
endfacet
facet normal 0.0 0.0 1.0
outer loop
vertex 6.37511045350785 1.70820569767664 -2.0
vertex 5.71576766497729 -3.3 -2.0
vertex 6.37511045350785 -1.70820569767664 -2.0
endloop
endfacet
facet normal 0.0 0.0 1.0
outer loop
vertex 6.37511045350785 1.70820569767664 -2.0
vertex 6.37511045350785 -1.70820569767664 -2.0
vertex 6.6 0.0 -2.0
endloop
endfacet
facet normal -1.0 -5.88133253112696e-016 0.0
outer loop
vertex 6.6 0.0 0.0
vertex 6.37511045350785 -1.70820569767664 -2.0
vertex 6.37511045350785 -1.70820569767664 0.0
endloop
endfacet
facet normal -0.965925826289068 0.258819045102521 0.0
outer loop
vertex 6.37511045350785 -1.70820569767664 -2.0
vertex 6.6 0.0 0.0
vertex 6.6 0.0 -2.0
endloop
endfacet
facet normal -0.965925826289068 -0.258819045102521 0.0
outer loop
vertex 6.37511045350785 1.70820569767664 0.0
vertex 6.6 0.0 -2.0
vertex 6.6 0.0 0.0
endloop
endfacet
facet normal -1.0 -5.88133253112696e-016 0.0
outer loop
vertex 6.6 0.0 -2.0
vertex 6.37511045350785 1.70820569767664 0.0
vertex 6.37511045350785 1.70820569767664 -2.0
endloop
endfacet
facet normal -0.866025403784439 -0.5 0.0
outer loop
vertex 5.71576766497729 3.3 0.0
vertex 6.37511045350785 1.70820569767664 -2.0
vertex 6.37511045350785 1.70820569767664 0.0
endloop
endfacet
facet normal -0.965925826289068 -0.258819045102521 0.0
outer loop
vertex 6.37511045350785 1.70820569767664 -2.0
vertex 5.71576766497729 3.3 0.0
vertex 5.71576766497729 3.3 -2.0
endloop
endfacet
facet normal -0.707106781186547 -0.707106781186548 0.0
outer loop
vertex 4.66690475583121 4.66690475583121 0.0
vertex 5.71576766497729 3.3 -2.0
vertex 5.71576766497729 3.3 0.0
endloop
endfacet
facet normal -0.866025403784439 -0.5 0.0
outer loop
vertex 5.71576766497729 3.3 -2.0
vertex 4.66690475583121 4.66690475583121 0.0
vertex 4.66690475583121 4.66690475583121 -2.0
endloop
endfacet
facet normal -0.707106781186547 -0.707106781186548 0.0
outer loop
vertex 4.66690475583121 4.66690475583121 0.0
vertex 3.3 5.7157676649773 -2.0
vertex 4.66690475583121 4.66690475583121 -2.0
endloop
endfacet
facet normal -0.5 -0.866025403784439 0.0
outer loop
vertex 3.3 5.7157676649773 -2.0
vertex 4.66690475583121 4.66690475583121 0.0
vertex 3.3 5.7157676649773 0.0
endloop
endfacet
facet normal -0.5 -0.866025403784439 0.0
outer loop
vertex 3.3 5.7157676649773 0.0
vertex 1.70820569767663 6.37511045350785 -2.0
vertex 3.3 5.7157676649773 -2.0
endloop
endfacet
facet normal -0.25881904510252 -0.965925826289068 0.0
outer loop
vertex 1.70820569767663 6.37511045350785 -2.0
vertex 3.3 5.7157676649773 0.0
vertex 1.70820569767663 6.37511045350785 0.0
endloop
endfacet
facet normal -0.25881904510252 -0.965925826289068 0.0
outer loop
vertex 1.70820569767663 6.37511045350785 0.0
vertex -1.21240033115588e-015 6.6 -2.0
vertex 1.70820569767663 6.37511045350785 -2.0
endloop
endfacet
facet normal 5.88133253112696e-016 -1.0 0.0
outer loop
vertex -1.21240033115588e-015 6.6 -2.0
vertex 1.70820569767663 6.37511045350785 0.0
vertex -1.21240033115588e-015 6.6 0.0
endloop
endfacet
facet normal 5.88133253112696e-016 -1.0 0.0
outer loop
vertex -1.21240033115588e-015 6.6 0.0
vertex -1.70820569767664 6.37511045350785 -2.0
vertex -1.21240033115588e-015 6.6 -2.0
endloop
endfacet
facet normal 0.258819045102521 -0.965925826289068 0.0
outer loop
vertex -1.70820569767664 6.37511045350785 -2.0
vertex -1.21240033115588e-015 6.6 0.0
vertex -1.70820569767664 6.37511045350785 0.0
endloop
endfacet
facet normal 0.258819045102521 -0.965925826289068 0.0
outer loop
vertex -1.70820569767664 6.37511045350785 0.0
vertex -3.3 5.71576766497729 -2.0
vertex -1.70820569767664 6.37511045350785 -2.0
endloop
endfacet
facet normal 0.5 -0.866025403784438 0.0
outer loop
vertex -3.3 5.71576766497729 -2.0
vertex -1.70820569767664 6.37511045350785 0.0
vertex -3.3 5.71576766497729 0.0
endloop
endfacet
facet normal 0.5 -0.866025403784438 0.0
outer loop
vertex -3.3 5.71576766497729 0.0
vertex -4.66690475583122 4.66690475583121 -2.0
vertex -3.3 5.71576766497729 -2.0
endloop
endfacet
facet normal 0.707106781186548 -0.707106781186547 0.0
outer loop
vertex -4.66690475583122 4.66690475583121 -2.0
vertex -3.3 5.71576766497729 0.0
vertex -4.66690475583122 4.66690475583121 0.0
endloop
endfacet
facet normal 0.707106781186548 -0.707106781186547 0.0
outer loop
vertex -4.66690475583122 4.66690475583121 -2.0
vertex -5.7157676649773 3.3 0.0
vertex -5.7157676649773 3.3 -2.0
endloop
endfacet
facet normal 0.866025403784439 -0.5 0.0
outer loop
vertex -5.7157676649773 3.3 0.0
vertex -4.66690475583122 4.66690475583121 -2.0
vertex -4.66690475583122 4.66690475583121 0.0
endloop
endfacet
facet normal 0.866025403784439 -0.5 0.0
outer loop
vertex -5.7157676649773 3.3 -2.0
vertex -6.37511045350785 1.70820569767663 0.0
vertex -6.37511045350785 1.70820569767663 -2.0
endloop
endfacet
facet normal 0.965925826289068 -0.258819045102521 0.0
outer loop
vertex -6.37511045350785 1.70820569767663 0.0
vertex -5.7157676649773 3.3 -2.0
vertex -5.7157676649773 3.3 0.0
endloop
endfacet
facet normal 0.965925826289068 -0.258819045102521 0.0
outer loop
vertex -6.37511045350785 1.70820569767663 -2.0
vertex -6.6 -8.08266887437253e-016 0.0
vertex -6.6 -8.08266887437253e-016 -2.0
endloop
endfacet
facet normal 1.0 2.94066626556348e-016 0.0
outer loop
vertex -6.6 -8.08266887437253e-016 0.0
vertex -6.37511045350785 1.70820569767663 -2.0
vertex -6.37511045350785 1.70820569767663 0.0
endloop
endfacet
facet normal 1.0 2.94066626556348e-016 0.0
outer loop
vertex -6.6 -8.08266887437253e-016 -2.0
vertex -6.37511045350785 -1.70820569767664 0.0
vertex -6.37511045350785 -1.70820569767664 -2.0
endloop
endfacet
facet normal 0.965925826289068 0.258819045102521 0.0
outer loop
vertex -6.37511045350785 -1.70820569767664 0.0
vertex -6.6 -8.08266887437253e-016 -2.0
vertex -6.6 -8.08266887437253e-016 0.0
endloop
endfacet
facet normal 0.965925826289068 0.258819045102521 0.0
outer loop
vertex -6.37511045350785 -1.70820569767664 -2.0
vertex -5.71576766497729 -3.3 0.0
vertex -5.71576766497729 -3.3 -2.0
endloop
endfacet
facet normal 0.866025403784439 0.5 0.0
outer loop
vertex -5.71576766497729 -3.3 0.0
vertex -6.37511045350785 -1.70820569767664 -2.0
vertex -6.37511045350785 -1.70820569767664 0.0
endloop
endfacet
facet normal 0.866025403784439 0.5 0.0
outer loop
vertex -5.71576766497729 -3.3 -2.0
vertex -4.66690475583121 -4.66690475583121 0.0
vertex -4.66690475583121 -4.66690475583121 -2.0
endloop
endfacet
facet normal 0.707106781186547 0.707106781186548 0.0
outer loop
vertex -4.66690475583121 -4.66690475583121 0.0
vertex -5.71576766497729 -3.3 -2.0
vertex -5.71576766497729 -3.3 0.0
endloop
endfacet
facet normal 0.707106781186547 0.707106781186548 0.0
outer loop
vertex -4.66690475583121 -4.66690475583121 0.0
vertex -3.3 -5.71576766497729 -2.0
vertex -4.66690475583121 -4.66690475583121 -2.0
endloop
endfacet
facet normal 0.5 0.866025403784439 0.0
outer loop
vertex -3.3 -5.71576766497729 -2.0
vertex -4.66690475583121 -4.66690475583121 0.0
vertex -3.3 -5.71576766497729 0.0
endloop
endfacet
facet normal 0.5 0.866025403784439 0.0
outer loop
vertex -3.3 -5.71576766497729 0.0
vertex -1.70820569767664 -6.37511045350785 -2.0
vertex -3.3 -5.71576766497729 -2.0
endloop
endfacet
facet normal 0.258819045102521 0.965925826289068 0.0
outer loop
vertex -1.70820569767664 -6.37511045350785 -2.0
vertex -3.3 -5.71576766497729 0.0
vertex -1.70820569767664 -6.37511045350785 0.0
endloop
endfacet
facet normal 0.258819045102521 0.965925826289068 0.0
outer loop
vertex -1.70820569767664 -6.37511045350785 0.0
vertex 4.04133443718627e-016 -6.6 -2.0
vertex -1.70820569767664 -6.37511045350785 -2.0
endloop
endfacet
facet normal -3.38622176034582e-016 1.0 0.0
outer loop
vertex 4.04133443718627e-016 -6.6 -2.0
vertex -1.70820569767664 -6.37511045350785 0.0
vertex 4.04133443718627e-016 -6.6 0.0
endloop
endfacet
facet normal -3.38622176034582e-016 1.0 0.0
outer loop
vertex 4.04133443718627e-016 -6.6 0.0
vertex 1.70820569767664 -6.37511045350785 -2.0
vertex 4.04133443718627e-016 -6.6 -2.0
endloop
endfacet
facet normal -0.258819045102521 0.965925826289068 0.0
outer loop
vertex 1.70820569767664 -6.37511045350785 -2.0
vertex 4.04133443718627e-016 -6.6 0.0
vertex 1.70820569767664 -6.37511045350785 0.0
endloop
endfacet
facet normal -0.258819045102521 0.965925826289068 0.0
outer loop
vertex 1.70820569767664 -6.37511045350785 0.0
vertex 3.3 -5.71576766497729 -2.0
vertex 1.70820569767664 -6.37511045350785 -2.0
endloop
endfacet
facet normal -0.5 0.866025403784439 0.0
outer loop
vertex 3.3 -5.71576766497729 -2.0
vertex 1.70820569767664 -6.37511045350785 0.0
vertex 3.3 -5.71576766497729 0.0
endloop
endfacet
facet normal -0.5 0.866025403784439 0.0
outer loop
vertex 3.3 -5.71576766497729 0.0
vertex 4.66690475583121 -4.66690475583121 -2.0
vertex 3.3 -5.71576766497729 -2.0
endloop
endfacet
facet normal -0.707106781186548 0.707106781186547 0.0
outer loop
vertex 4.66690475583121 -4.66690475583121 -2.0
vertex 3.3 -5.71576766497729 0.0
vertex 4.66690475583121 -4.66690475583121 0.0
endloop
endfacet
facet normal -0.866025403784439 0.5 0.0
outer loop
vertex 5.71576766497729 -3.3 0.0
vertex 4.66690475583121 -4.66690475583121 -2.0
vertex 4.66690475583121 -4.66690475583121 0.0
endloop
endfacet
facet normal -0.707106781186548 0.707106781186547 0.0
outer loop
vertex 4.66690475583121 -4.66690475583121 -2.0
vertex 5.71576766497729 -3.3 0.0
vertex 5.71576766497729 -3.3 -2.0
endloop
endfacet
facet normal -0.965925826289068 0.258819045102521 0.0
outer loop
vertex 6.37511045350785 -1.70820569767664 0.0
vertex 5.71576766497729 -3.3 -2.0
vertex 5.71576766497729 -3.3 0.0
endloop
endfacet
facet normal -0.866025403784439 0.5 0.0
outer loop
vertex 5.71576766497729 -3.3 -2.0
vertex 6.37511045350785 -1.70820569767664 0.0
vertex 6.37511045350785 -1.70820569767664 -2.0
endloop
endfacet
endsolid model
