  0
SECTION
  2
HEADER
  9
$ACADVER
  1
AC1014
  9
$HANDSEED
  5
FFFF
  9
$MEASUREMENT
 70
     1
  0
ENDSEC
  0
SECTION
  2
TABLES
  0
TABLE
  2
VPORT
  5
8
330
0
100
AcDbSymbolTable
 70
     4
  0
VPORT
  5
2E
330
8
100
AcDbSymbolTableRecord
100
AcDbViewportTableRecord
  2
*ACTIVE
 70
     0
 10
0.0
 20
0.0
 11
1.0
 21
1.0
 12
210.0
 22
148.5
 13
0.0
 23
0.0
 14
10.0
 24
10.0
 15
10.0
 25
10.0
 16
0.0
 26
0.0
 36
1.0
 17
0.0
 27
0.0
 37
0.0
 40
341.0
 41
1.24
 42
50.0
 43
0.0
 44
0.0
 50
0.0
 51
0.0
 71
     0
 72
   100
 73
     1
 74
     3
 75
     0
 76
     0
 77
     0
 78
     0
  0
ENDTAB
  0
TABLE
  2
LTYPE
  5
5
330
0
100
AcDbSymbolTable
 70
     1
  0
LTYPE
  5
14
330
5
100
AcDbSymbolTableRecord
100
AcDbLinetypeTableRecord
  2
BYBLOCK
 70
     0
  3

 72
    65
 73
     0
 40
0.0
  0
LTYPE
  5
15
330
5
100
AcDbSymbolTableRecord
100
AcDbLinetypeTableRecord
  2
BYLAYER
 70
     0
  3

 72
    65
 73
     0
 40
0.0
  0
LTYPE
  5
16
330
5
100
AcDbSymbolTableRecord
100
AcDbLinetypeTableRecord
  2
CONTINUOUS
 70
     0
  3
Solid line
 72
    65
 73
     0
 40
0.0
  0
ENDTAB
  0
TABLE
  2
LAYER
  5
2
100
AcDbSymbolTable
 70
2
  0
LAYER
  5
50
100
AcDbSymbolTableRecord
100
AcDbLayerTableRecord
  2
0
 70
0
  6
CONTINUOUS
  0
LAYER
  5
51
100
AcDbSymbolTableRecord
100
AcDbLayerTableRecord
  2
Layer_1
 70
0
  6
CONTINUOUS
  0
ENDTAB
  0
TABLE
  2
STYLE
  5
3
330
0
100
AcDbSymbolTable
 70
     1
  0
STYLE
  5
11
330
3
100
AcDbSymbolTableRecord
100
AcDbTextStyleTableRecord
  2
STANDARD
 70
     0
 40
0.0
 41
1.0
 50
0.0
 71
     0
 42
2.5
  3
txt
  4

  0
ENDTAB
  0
TABLE
  2
VIEW
  5
6
330
0
100
AcDbSymbolTable
 70
     0
  0
ENDTAB
  0
TABLE
  2
UCS
  5
7
330
0
100
AcDbSymbolTable
 70
     0
  0
ENDTAB
  0
TABLE
  2
APPID
  5
9
330
0
100
AcDbSymbolTable
 70
     2
  0
APPID
  5
12
330
9
100
AcDbSymbolTableRecord
100
AcDbRegAppTableRecord
  2
ACAD
 70
     0
  0
ENDTAB
  0
TABLE
  2
DIMSTYLE
  5
A
330
0
100
AcDbSymbolTable
 70
     1
  0
DIMSTYLE
105
27
330
A
100
AcDbSymbolTableRecord
100
AcDbDimStyleTableRecord
  2
ISO-25
 70
     0
  3

  4

  5

  6

  7

 40
1.0
 41
2.5
 42
0.625
 43
3.75
 44
1.25
 45
0.0
 46
0.0
 47
0.0
 48
0.0
140
2.5
141
2.5
142
0.0
143
0.03937007874016
144
1.0
145
0.0
146
1.0
147
0.625
 71
     0
 72
     0
 73
     0
 74
     0
 75
     0
 76
     0
 77
     1
 78
     8
170
     0
171
     3
172
     1
173
     0
174
     0
175
     0
176
     0
177
     0
178
     0
270
     2
271
     2
272
     2
273
     2
274
     3
340
11
275
     0
280
     0
281
     0
282
     0
283
     0
284
     8
285
     0
286
     0
287
     3
288
     0
  0
ENDTAB
  0
TABLE
  2
BLOCK_RECORD
  5
1
330
0
100
AcDbSymbolTable
 70
     1
  0
BLOCK_RECORD
  5
1F
330
1
100
AcDbSymbolTableRecord
100
AcDbBlockTableRecord
  2
*MODEL_SPACE
  0
BLOCK_RECORD
  5
1B
330
1
100
AcDbSymbolTableRecord
100
AcDbBlockTableRecord
  2
*PAPER_SPACE
  0
ENDTAB
  0
ENDSEC
  0
SECTION
  2
BLOCKS
  0
BLOCK
  5
20
330
1F
100
AcDbEntity
  8
0
100
AcDbBlockBegin
  2
*MODEL_SPACE
 70
     0
 10
0.0
 20
0.0
 30
0.0
  3
*MODEL_SPACE
  1

  0
ENDBLK
  5
21
330
1F
100
AcDbEntity
  8
0
100
AcDbBlockEnd
  0
BLOCK
  5
1C
330
1B
100
AcDbEntity
 67
     1
  8
0
100
AcDbBlockBegin
  2
*PAPER_SPACE
  1

  0
ENDBLK
  5
1D
330
1B
100
AcDbEntity
 67
     1
  8
0
100
AcDbBlockEnd
  0
ENDSEC
  0
SECTION
  2
ENTITIES
  0
LWPOLYLINE
  5
100
100
AcDbEntity
  8
Layer_1
 62
7
100
AcDbPolyline
 90
45
 70
0
 10
3.231185
 20
34.793627
 30
0.0
 10
4.900541
 20
34.793627
 30
0.0
 10
6.569896
 20
34.793627
 30
0.0
 10
8.239252
 20
34.793627
 30
0.0
 10
9.908607
 20
34.793627
 30
0.0
 10
10.848079
 20
34.760133
 30
0.0
 10
11.692057
 20
34.659670
 30
0.0
 10
12.440540
 20
34.492242
 30
0.0
 10
13.093529
 20
34.257845
 30
0.0
 10
13.677052
 20
33.960803
 30
0.0
 10
14.207250
 20
33.605474
 30
0.0
 10
14.684122
 20
33.191858
 30
0.0
 10
15.107670
 20
32.719957
 30
0.0
 10
15.477252
 20
32.198433
 30
0.0
 10
15.792268
 20
31.635984
 30
0.0
 10
16.052720
 20
31.032609
 30
0.0
 10
16.258607
 20
30.388316
 30
0.0
 10
16.414868
 20
29.713624
 30
0.0
 10
16.526487
 20
29.019089
 30
0.0
 10
16.593462
 20
28.304717
 30
0.0
 10
16.615794
 20
27.570502
 30
0.0
 10
16.582300
 20
26.469790
 30
0.0
 10
16.481838
 20
25.499307
 30
0.0
 10
16.314409
 20
24.659049
 30
0.0
 10
16.080013
 20
23.949018
 30
0.0
 10
15.791031
 20
23.334479
 30
0.0
 10
15.449964
 20
22.770794
 30
0.0
 10
15.056812
 20
22.257956
 30
0.0
 10
14.611575
 20
21.795970
 30
0.0
 10
14.131598
 20
21.400337
 30
0.0
 10
13.634262
 20
21.076636
 30
0.0
 10
13.119567
 20
20.824869
 30
0.0
 10
12.587513
 20
20.645034
 30
0.0
 10
11.865691
 20
20.471402
 30
0.0
 10
11.178600
 20
20.347377
 30
0.0
 10
10.526238
 20
20.272963
 30
0.0
 10
9.908607
 20
20.248156
 30
0.0
 10
8.239251
 20
20.248156
 30
0.0
 10
6.569896
 20
20.248156
 30
0.0
 10
4.900540
 20
20.248156
 30
0.0
 10
3.231185
 20
20.248156
 30
0.0
 10
3.231185
 20
23.884522
 30
0.0
 10
3.231185
 20
27.520890
 30
0.0
 10
3.231185
 20
31.157256
 30
0.0
 10
3.231185
 20
34.793624
 30
0.0
  0
LWPOLYLINE
  5
101
100
AcDbEntity
  8
Layer_1
 62
7
100
AcDbPolyline
 90
33
 70
0
 10
7.725794
 20
31.499563
 30
0.0
 10
7.725794
 20
29.512707
 30
0.0
 10
7.725794
 20
27.525852
 30
0.0
 10
7.725794
 20
25.538996
 30
0.0
 10
7.725794
 20
23.552140
 30
0.0
 10
8.001126
 20
23.552140
 30
0.0
 10
8.276458
 20
23.552140
 30
0.0
 10
8.551790
 20
23.552140
 30
0.0
 10
8.827122
 20
23.552140
 30
0.0
 10
9.480721
 20
23.571359
 30
0.0
 10
10.032624
 20
23.629029
 30
0.0
 10
10.482831
 20
23.725148
 30
0.0
 10
10.831341
 20
23.859714
 30
0.0
 10
11.112869
 20
24.046988
 30
0.0
 10
11.362154
 20
24.291314
 30
0.0
 10
11.579197
 20
24.592691
 30
0.0
 10
11.763997
 20
24.951121
 30
0.0
 10
11.911579
 20
25.403185
 30
0.0
 10
12.016997
 20
25.975551
 30
0.0
 10
12.080251
 20
26.668223
 30
0.0
 10
12.101342
 20
27.481201
 30
0.0
 10
12.054207
 20
28.545935
 30
0.0
 10
11.912818
 20
29.428359
 30
0.0
 10
11.677176
 20
30.128474
 30
0.0
 10
11.347279
 20
30.646278
 30
0.0
 10
10.908231
 20
31.019582
 30
0.0
 10
10.345163
 20
31.286231
 30
0.0
 10
9.658075
 20
31.446226
 30
0.0
 10
8.846967
 20
31.499560
 30
0.0
 10
8.566674
 20
31.499560
 30
0.0
 10
8.286381
 20
31.499560
 30
0.0
 10
8.006088
 20
31.499560
 30
0.0
 10
7.725795
 20
31.499560
 30
0.0
  0
LWPOLYLINE
  5
102
100
AcDbEntity
  8
Layer_1
 62
7
100
AcDbPolyline
 90
41
 70
0
 10
18.401732
 20
27.510970
 30
0.0
 10
18.525755
 20
29.193342
 30
0.0
 10
18.897825
 20
30.678522
 30
0.0
 10
19.517942
 20
31.966508
 30
0.0
 10
20.386107
 20
33.057300
 30
0.0
 10
21.475646
 20
33.925461
 30
0.0
 10
22.759908
 20
34.545573
 30
0.0
 10
24.238891
 20
34.917644
 30
0.0
 10
25.912591
 20
35.041675
 30
0.0
 10
27.624109
 20
34.919504
 30
0.0
 10
29.127269
 20
34.553010
 30
0.0
 10
30.422077
 20
33.942199
 30
0.0
 10
31.508528
 20
33.087066
 30
0.0
 10
32.368002
 20
32.016738
 30
0.0
 10
32.981914
 20
30.750455
 30
0.0
 10
33.350268
 20
29.288222
 30
0.0
 10
33.473060
 20
27.630034
 30
0.0
 10
33.419099
 20
26.412121
 30
0.0
 10
33.257247
 20
25.308310
 30
0.0
 10
32.987499
 20
24.318605
 30
0.0
 10
32.609858
 20
23.443002
 30
0.0
 10
32.134838
 20
22.674056
 30
0.0
 10
31.563090
 20
21.994406
 30
0.0
 10
30.894607
 20
21.404056
 30
0.0
 10
30.129390
 20
20.903002
 30
0.0
 10
29.270520
 20
20.507987
 30
0.0
 10
28.311196
 20
20.225835
 30
0.0
 10
27.251418
 20
20.056541
 30
0.0
 10
26.091185
 20
20.000111
 30
0.0
 10
24.913579
 20
20.049099
 30
0.0
 10
23.841395
 20
20.196069
 30
0.0
 10
22.874634
 20
20.441015
 30
0.0
 10
22.013295
 20
20.783941
 30
0.0
 10
21.247448
 20
21.232906
 30
0.0
 10
20.557257
 20
21.795970
 30
0.0
 10
19.942722
 20
22.473140
 30
0.0
 10
19.403841
 20
23.264409
 30
0.0
 10
18.965420
 20
24.166058
 30
0.0
 10
18.652261
 20
25.174367
 30
0.0
 10
18.464364
 20
26.289337
 30
0.0
 10
18.401732
 20
27.510970
 30
0.0
  0
LWPOLYLINE
  5
103
100
AcDbEntity
  8
Layer_1
 62
7
100
AcDbPolyline
 90
33
 70
0
 10
22.896341
 20
27.491130
 30
0.0
 10
22.947188
 20
26.467315
 30
0.0
 10
23.099736
 20
25.598528
 30
0.0
 10
23.353985
 20
24.884776
 30
0.0
 10
23.709935
 20
24.326053
 30
0.0
 10
24.158276
 20
23.904991
 30
0.0
 10
24.679793
 20
23.604233
 30
0.0
 10
25.274487
 20
23.423780
 30
0.0
 10
25.942357
 20
23.363630
 30
0.0
 10
26.625721
 20
23.422541
 30
0.0
 10
27.227233
 20
23.599274
 30
0.0
 10
27.746893
 20
23.893829
 30
0.0
 10
28.184701
 20
24.306210
 30
0.0
 10
28.531964
 20
24.871131
 30
0.0
 10
28.780006
 20
25.623332
 30
0.0
 10
28.928836
 20
26.562811
 30
0.0
 10
28.978451
 20
27.689569
 30
0.0
 10
28.926355
 20
28.647024
 30
0.0
 10
28.770083
 20
29.465576
 30
0.0
 10
28.509637
 20
30.145227
 30
0.0
 10
28.145013
 20
30.685973
 30
0.0
 10
27.696043
 20
31.102685
 30
0.0
 10
27.172662
 20
31.400339
 30
0.0
 10
26.574871
 20
31.578935
 30
0.0
 10
25.902670
 20
31.638473
 30
0.0
 10
25.256504
 20
31.578314
 30
0.0
 10
24.677313
 20
31.397859
 30
0.0
 10
24.165097
 20
31.097106
 30
0.0
 10
23.719857
 20
30.676053
 30
0.0
 10
23.359565
 20
30.116081
 30
0.0
 10
23.102215
 20
29.398605
 30
0.0
 10
22.947808
 20
28.523620
 30
0.0
 10
22.896341
 20
27.491130
 30
0.0
  0
LWPOLYLINE
  5
104
100
AcDbEntity
  8
Layer_1
 62
7
100
AcDbPolyline
 90
77
 70
0
 10
45.379310
 20
34.793627
 30
0.0
 10
46.500483
 20
34.793627
 30
0.0
 10
47.621653
 20
34.793627
 30
0.0
 10
48.742826
 20
34.793627
 30
0.0
 10
49.863999
 20
34.793627
 30
0.0
 10
49.863999
 20
32.625697
 30
0.0
 10
49.863999
 20
30.457768
 30
0.0
 10
49.863999
 20
28.289838
 30
0.0
 10
49.863999
 20
26.121909
 30
0.0
 10
49.838570
 20
25.485667
 30
0.0
 10
49.762291
 20
24.866788
 30
0.0
 10
49.635170
 20
24.265276
 30
0.0
 10
49.457206
 20
23.681127
 30
0.0
 10
49.229617
 20
23.127983
 30
0.0
 10
48.943740
 20
22.609563
 30
0.0
 10
48.599578
 20
22.125874
 30
0.0
 10
48.197129
 20
21.676909
 30
0.0
 10
47.764900
 20
21.281894
 30
0.0
 10
47.321512
 20
20.950130
 30
0.0
 10
46.866971
 20
20.681618
 30
0.0
 10
46.401270
 20
20.476361
 30
0.0
 10
45.713554
 20
20.263661
 30
0.0
 10
44.960108
 20
20.111733
 30
0.0
 10
44.140936
 20
20.020578
 30
0.0
 10
43.256033
 20
19.990191
 30
0.0
 10
42.712807
 20
19.999504
 30
0.0
 10
42.144778
 20
20.027416
 30
0.0
 10
41.551947
 20
20.073926
 30
0.0
 10
40.934315
 20
20.139038
 30
0.0
 10
40.334661
 20
20.231434
 30
0.0
 10
39.785854
 20
20.359800
 30
0.0
 10
39.287902
 20
20.524130
 30
0.0
 10
38.840799
 20
20.724429
 30
0.0
 10
38.427798
 20
20.970614
 30
0.0
 10
38.032165
 20
21.262688
 30
0.0
 10
37.653894
 20
21.600652
 30
0.0
 10
37.292988
 20
21.984506
 30
0.0
 10
36.973005
 20
22.394402
 30
0.0
 10
36.707595
 20
22.810500
 30
0.0
 10
36.496758
 20
23.232800
 30
0.0
 10
36.340488
 20
23.661304
 30
0.0
 10
36.158173
 20
24.335987
 30
0.0
 10
36.027947
 20
24.970987
 30
0.0
 10
35.949814
 20
25.566301
 30
0.0
 10
35.923765
 20
26.121929
 30
0.0
 10
35.923765
 20
28.289858
 30
0.0
 10
35.923765
 20
30.457788
 30
0.0
 10
35.923765
 20
32.625717
 30
0.0
 10
35.923765
 20
34.793647
 30
0.0
 10
37.044935
 20
34.793647
 30
0.0
 10
38.166108
 20
34.793647
 30
0.0
 10
39.287278
 20
34.793647
 30
0.0
 10
40.408451
 20
34.793647
 30
0.0
 10
40.408451
 20
32.573627
 30
0.0
 10
40.408451
 20
30.353608
 30
0.0
 10
40.408451
 20
28.133589
 30
0.0
 10
40.408451
 20
25.913570
 30
0.0
 10
40.449376
 20
25.350500
 30
0.0
 10
40.572157
 20
24.851926
 30
0.0
 10
40.776796
 20
24.417843
 30
0.0
 10
41.063294
 20
24.048256
 30
0.0
 10
41.427298
 20
23.757420
 30
0.0
 10
41.854557
 20
23.549679
 30
0.0
 10
42.345074
 20
23.425036
 30
0.0
 10
42.898842
 20
23.383490
 30
0.0
 10
43.447640
 20
23.424418
 30
0.0
 10
43.933189
 20
23.547201
 30
0.0
 10
44.355489
 20
23.751840
 30
0.0
 10
44.714544
 20
24.038336
 30
0.0
 10
45.005374
 20
24.404821
 30
0.0
 10
45.213112
 20
24.839522
 30
0.0
 10
45.337755
 20
25.342439
 30
0.0
 10
45.379310
 20
25.913570
 30
0.0
 10
45.379310
 20
28.133589
 30
0.0
 10
45.379310
 20
30.353608
 30
0.0
 10
45.379310
 20
32.573627
 30
0.0
 10
45.379310
 20
34.793647
 30
0.0
  0
LWPOLYLINE
  5
105
100
AcDbEntity
  8
Layer_1
 62
7
100
AcDbPolyline
 90
53
 70
0
 10
52.870326
 20
34.793627
 30
0.0
 10
54.973762
 20
34.793627
 30
0.0
 10
57.077201
 20
34.793627
 30
0.0
 10
59.180637
 20
34.793627
 30
0.0
 10
61.284076
 20
34.793627
 30
0.0
 10
62.274396
 20
34.728507
 30
0.0
 10
63.141939
 20
34.533167
 30
0.0
 10
63.886701
 20
34.207609
 30
0.0
 10
64.508685
 20
33.751832
 30
0.0
 10
65.003530
 20
33.199918
 30
0.0
 10
65.356994
 20
32.586000
 30
0.0
 10
65.569076
 20
31.910075
 30
0.0
 10
65.639778
 20
31.172143
 30
0.0
 10
65.589539
 20
30.550159
 30
0.0
 10
65.438850
 20
29.974070
 30
0.0
 10
65.187706
 20
29.443870
 30
0.0
 10
64.836108
 20
28.959566
 30
0.0
 10
64.537206
 20
28.668104
 30
0.0
 10
64.176295
 20
28.408894
 30
0.0
 10
63.753376
 20
28.181934
 30
0.0
 10
63.268451
 20
27.987220
 30
0.0
 10
64.000182
 20
27.764595
 30
0.0
 10
64.627737
 20
27.473759
 30
0.0
 10
65.151119
 20
27.114713
 30
0.0
 10
65.570326
 20
26.687457
 30
0.0
 10
65.895880
 20
26.201281
 30
0.0
 10
66.128420
 20
25.655576
 30
0.0
 10
66.267951
 20
25.050345
 30
0.0
 10
66.314467
 20
24.385582
 30
0.0
 10
66.281594
 20
23.834295
 30
0.0
 10
66.182991
 20
23.311534
 30
0.0
 10
66.018661
 20
22.817301
 30
0.0
 10
65.788608
 20
22.351595
 30
0.0
 10
65.501486
 20
21.923715
 30
0.0
 10
65.166000
 20
21.542963
 30
0.0
 10
64.782150
 20
21.209340
 30
0.0
 10
64.349935
 20
20.922845
 30
0.0
 10
64.031187
 20
20.770298
 30
0.0
 10
63.640513
 20
20.640072
 30
0.0
 10
63.177908
 20
20.532173
 30
0.0
 10
62.643374
 20
20.446595
 30
0.0
 10
61.948215
 20
20.359778
 30
0.0
 10
61.380807
 20
20.297768
 30
0.0
 10
60.941145
 20
20.260560
 30
0.0
 10
60.629233
 20
20.248170
 30
0.0
 10
58.689505
 20
20.248170
 30
0.0
 10
56.749781
 20
20.248170
 30
0.0
 10
54.810053
 20
20.248170
 30
0.0
 10
52.870326
 20
20.248170
 30
0.0
 10
52.870326
 20
23.884536
 30
0.0
 10
52.870326
 20
27.520904
 30
0.0
 10
52.870326
 20
31.157270
 30
0.0
 10
52.870326
 20
34.793638
 30
0.0
  0
LWPOLYLINE
  5
106
100
AcDbEntity
  8
Layer_1
 62
7
100
AcDbPolyline
 90
29
 70
0
 10
57.404624
 20
29.088561
 30
0.0
 10
57.893277
 20
29.088561
 30
0.0
 10
58.381928
 20
29.088561
 30
0.0
 10
58.870582
 20
29.088561
 30
0.0
 10
59.359233
 20
29.088561
 30
0.0
 10
59.844779
 20
29.110885
 30
0.0
 10
60.249714
 20
29.177856
 30
0.0
 10
60.574039
 20
29.289478
 30
0.0
 10
60.817749
 20
29.445753
 30
0.0
 10
61.000059
 20
29.649148
 30
0.0
 10
61.130279
 20
29.892231
 30
0.0
 10
61.208415
 20
30.175007
 30
0.0
 10
61.234464
 20
30.497474
 30
0.0
 10
61.208415
 20
30.797603
 30
0.0
 10
61.130279
 20
31.063010
 30
0.0
 10
61.000059
 20
31.293696
 30
0.0
 10
60.817749
 20
31.489660
 30
0.0
 10
60.575898
 20
31.645923
 30
0.0
 10
60.257157
 20
31.757542
 30
0.0
 10
59.861523
 20
31.824516
 30
0.0
 10
59.388999
 20
31.846840
 30
0.0
 10
58.892906
 20
31.846840
 30
0.0
 10
58.396813
 20
31.846840
 30
0.0
 10
57.900717
 20
31.846840
 30
0.0
 10
57.404624
 20
31.846840
 30
0.0
 10
57.404624
 20
31.157270
 30
0.0
 10
57.404624
 20
30.467699
 30
0.0
 10
57.404624
 20
29.778129
 30
0.0
 10
57.404624
 20
29.088558
 30
0.0
  0
LWPOLYLINE
  5
107
100
AcDbEntity
  8
Layer_1
 62
7
100
AcDbPolyline
 90
29
 70
0
 10
57.404624
 20
23.373558
 30
0.0
 10
57.977611
 20
23.373558
 30
0.0
 10
58.550601
 20
23.373558
 30
0.0
 10
59.123588
 20
23.373558
 30
0.0
 10
59.696576
 20
23.373558
 30
0.0
 10
60.234212
 20
23.398987
 30
0.0
 10
60.686275
 20
23.475260
 30
0.0
 10
61.052766
 20
23.602384
 30
0.0
 10
61.333685
 20
23.780359
 30
0.0
 10
61.542038
 20
24.006080
 30
0.0
 10
61.690865
 20
24.266529
 30
0.0
 10
61.780163
 20
24.561705
 30
0.0
 10
61.809935
 20
24.891609
 30
0.0
 10
61.780163
 20
25.197944
 30
0.0
 10
61.690865
 20
25.472036
 30
0.0
 10
61.542038
 20
25.713880
 30
0.0
 10
61.333685
 20
25.923484
 30
0.0
 10
61.055865
 20
26.097113
 30
0.0
 10
60.688756
 20
26.221135
 30
0.0
 10
60.232352
 20
26.295552
 30
0.0
 10
59.686653
 20
26.320359
 30
0.0
 10
59.116146
 20
26.320359
 30
0.0
 10
58.545640
 20
26.320359
 30
0.0
 10
57.975130
 20
26.320359
 30
0.0
 10
57.404624
 20
26.320359
 30
0.0
 10
57.404624
 20
25.583660
 30
0.0
 10
57.404624
 20
24.846961
 30
0.0
 10
57.404624
 20
24.110263
 30
0.0
 10
57.404624
 20
23.373564
 30
0.0
  0
LWPOLYLINE
  5
108
100
AcDbEntity
  8
Layer_1
 62
7
100
AcDbPolyline
 90
25
 70
0
 10
68.656028
 20
34.793627
 30
0.0
 10
69.779682
 20
34.793627
 30
0.0
 10
70.903332
 20
34.793627
 30
0.0
 10
72.026986
 20
34.793627
 30
0.0
 10
73.150640
 20
34.793627
 30
0.0
 10
73.150640
 20
32.052710
 30
0.0
 10
73.150640
 20
29.311790
 30
0.0
 10
73.150640
 20
26.570874
 30
0.0
 10
73.150640
 20
23.829957
 30
0.0
 10
74.904329
 20
23.829957
 30
0.0
 10
76.658021
 20
23.829957
 30
0.0
 10
78.411711
 20
23.829957
 30
0.0
 10
80.165403
 20
23.829957
 30
0.0
 10
80.165403
 20
22.934508
 30
0.0
 10
80.165403
 20
22.039056
 30
0.0
 10
80.165403
 20
21.143608
 30
0.0
 10
80.165403
 20
20.248159
 30
0.0
 10
77.288060
 20
20.248159
 30
0.0
 10
74.410714
 20
20.248159
 30
0.0
 10
71.533371
 20
20.248159
 30
0.0
 10
68.656028
 20
20.248159
 30
0.0
 10
68.656028
 20
23.884524
 30
0.0
 10
68.656028
 20
27.520893
 30
0.0
 10
68.656028
 20
31.157258
 30
0.0
 10
68.656028
 20
34.793627
 30
0.0
  0
LWPOLYLINE
  5
109
100
AcDbEntity
  8
Layer_1
 62
7
100
AcDbPolyline
 90
49
 70
0
 10
82.219233
 20
34.793627
 30
0.0
 10
85.230521
 20
34.793627
 30
0.0
 10
88.241810
 20
34.793627
 30
0.0
 10
91.253101
 20
34.793627
 30
0.0
 10
94.264390
 20
34.793627
 30
0.0
 10
94.264390
 20
34.017239
 30
0.0
 10
94.264390
 20
33.240854
 30
0.0
 10
94.264390
 20
32.464467
 30
0.0
 10
94.264390
 20
31.688082
 30
0.0
 10
92.379233
 20
31.688082
 30
0.0
 10
90.494076
 20
31.688082
 30
0.0
 10
88.608922
 20
31.688082
 30
0.0
 10
86.723765
 20
31.688082
 30
0.0
 10
86.723765
 20
31.110133
 30
0.0
 10
86.723765
 20
30.532181
 30
0.0
 10
86.723765
 20
29.954233
 30
0.0
 10
86.723765
 20
29.376284
 30
0.0
 10
88.472495
 20
29.376284
 30
0.0
 10
90.221226
 20
29.376284
 30
0.0
 10
91.969954
 20
29.376284
 30
0.0
 10
93.718685
 20
29.376284
 30
0.0
 10
93.718685
 20
28.634624
 30
0.0
 10
93.718685
 20
27.892963
 30
0.0
 10
93.718685
 20
27.151303
 30
0.0
 10
93.718685
 20
26.409643
 30
0.0
 10
91.969954
 20
26.409643
 30
0.0
 10
90.221226
 20
26.409643
 30
0.0
 10
88.472495
 20
26.409643
 30
0.0
 10
86.723765
 20
26.409643
 30
0.0
 10
86.723765
 20
25.692787
 30
0.0
 10
86.723765
 20
24.975931
 30
0.0
 10
86.723765
 20
24.259076
 30
0.0
 10
86.723765
 20
23.542220
 30
0.0
 10
88.663489
 20
23.542220
 30
0.0
 10
90.603217
 20
23.542220
 30
0.0
 10
92.542944
 20
23.542220
 30
0.0
 10
94.482669
 20
23.542220
 30
0.0
 10
94.482669
 20
22.718704
 30
0.0
 10
94.482669
 20
21.895188
 30
0.0
 10
94.482669
 20
21.071675
 30
0.0
 10
94.482669
 20
20.248159
 30
0.0
 10
91.416810
 20
20.248159
 30
0.0
 10
88.350951
 20
20.248159
 30
0.0
 10
85.285092
 20
20.248159
 30
0.0
 10
82.219233
 20
20.248159
 30
0.0
 10
82.219233
 20
23.884524
 30
0.0
 10
82.219233
 20
27.520893
 30
0.0
 10
82.219233
 20
31.157258
 30
0.0
 10
82.219233
 20
34.793627
 30
0.0
  0
LWPOLYLINE
  5
10a
100
AcDbEntity
  8
Layer_1
 62
7
100
AcDbPolyline
 90
77
 70
0
 10
21.666029
 20
18.537627
 30
0.0
 10
22.787201
 20
18.537627
 30
0.0
 10
23.908373
 20
18.537627
 30
0.0
 10
25.029545
 20
18.537627
 30
0.0
 10
26.150716
 20
18.537627
 30
0.0
 10
26.150716
 20
16.369695
 30
0.0
 10
26.150716
 20
14.201762
 30
0.0
 10
26.150716
 20
12.033844
 30
0.0
 10
26.150716
 20
9.865898
 30
0.0
 10
26.125283
 20
9.229656
 30
0.0
 10
26.049006
 20
8.610771
 30
0.0
 10
25.921884
 20
8.009270
 30
0.0
 10
25.743919
 20
7.425127
 30
0.0
 10
25.516328
 20
6.871971
 30
0.0
 10
25.230451
 20
6.353557
 30
0.0
 10
24.886289
 20
5.869857
 30
0.0
 10
24.483841
 20
5.420898
 30
0.0
 10
24.051612
 20
5.025899
 30
0.0
 10
23.608226
 20
4.694119
 30
0.0
 10
23.153683
 20
4.425613
 30
0.0
 10
22.687982
 20
4.220352
 30
0.0
 10
22.000266
 20
4.007670
 30
0.0
 10
21.246821
 20
3.855750
 30
0.0
 10
20.427649
 20
3.764592
 30
0.0
 10
19.542747
 20
3.734196
 30
0.0
 10
18.999520
 20
3.743510
 30
0.0
 10
18.431492
 20
3.771450
 30
0.0
 10
17.838661
 20
3.817960
 30
0.0
 10
17.221029
 20
3.883069
 30
0.0
 10
16.621372
 20
3.975468
 30
0.0
 10
16.072568
 20
4.103823
 30
0.0
 10
15.574615
 20
4.268161
 30
0.0
 10
15.127513
 20
4.468454
 30
0.0
 10
14.714513
 20
4.714636
 30
0.0
 10
14.318877
 20
5.006708
 30
0.0
 10
13.940607
 20
5.344698
 30
0.0
 10
13.579700
 20
5.728548
 30
0.0
 10
13.259719
 20
6.138448
 30
0.0
 10
12.994308
 20
6.554528
 30
0.0
 10
12.783469
 20
6.976845
 30
0.0
 10
12.627200
 20
7.405343
 30
0.0
 10
12.444885
 20
8.080024
 30
0.0
 10
12.314660
 20
8.715024
 30
0.0
 10
12.236526
 20
9.310343
 30
0.0
 10
12.210483
 20
9.865954
 30
0.0
 10
12.210483
 20
12.033872
 30
0.0
 10
12.210483
 20
14.201819
 30
0.0
 10
12.210483
 20
16.369751
 30
0.0
 10
12.210483
 20
18.537683
 30
0.0
 10
13.331655
 20
18.537683
 30
0.0
 10
14.452827
 20
18.537683
 30
0.0
 10
15.573998
 20
18.537683
 30
0.0
 10
16.695170
 20
18.537683
 30
0.0
 10
16.695170
 20
16.317667
 30
0.0
 10
16.695170
 20
14.097650
 30
0.0
 10
16.695170
 20
11.877634
 30
0.0
 10
16.695170
 20
9.657618
 30
0.0
 10
16.736096
 20
9.094528
 30
0.0
 10
16.858876
 20
8.595954
 30
0.0
 10
17.063516
 20
8.161868
 30
0.0
 10
17.350014
 20
7.792298
 30
0.0
 10
17.714019
 20
7.501468
 30
0.0
 10
18.141278
 20
7.293724
 30
0.0
 10
18.631792
 20
7.169067
 30
0.0
 10
19.185561
 20
7.127524
 30
0.0
 10
19.734359
 20
7.168446
 30
0.0
 10
20.219909
 20
7.291241
 30
0.0
 10
20.642211
 20
7.495880
 30
0.0
 10
21.001264
 20
7.782364
 30
0.0
 10
21.292095
 20
8.148858
 30
0.0
 10
21.499832
 20
8.583564
 30
0.0
 10
21.624476
 20
9.086484
 30
0.0
 10
21.666030
 20
9.657618
 30
0.0
 10
21.666030
 20
11.877634
 30
0.0
 10
21.666030
 20
14.097650
 30
0.0
 10
21.666030
 20
16.317667
 30
0.0
 10
21.666030
 20
18.537683
 30
0.0
  0
LWPOLYLINE
  5
10b
100
AcDbEntity
  8
Layer_1
 62
7
100
AcDbPolyline
 90
41
 70
0
 10
29.176890
 20
18.537627
 30
0.0
 10
30.226127
 20
18.537627
 30
0.0
 10
31.275364
 20
18.537627
 30
0.0
 10
32.324604
 20
18.537627
 30
0.0
 10
33.373842
 20
18.537627
 30
0.0
 10
34.743060
 20
16.525969
 30
0.0
 10
36.112278
 20
14.514323
 30
0.0
 10
37.481499
 20
12.502643
 30
0.0
 10
38.850717
 20
10.490992
 30
0.0
 10
38.850717
 20
12.502643
 30
0.0
 10
38.850717
 20
14.514323
 30
0.0
 10
38.850717
 20
16.525969
 30
0.0
 10
38.850717
 20
18.537627
 30
0.0
 10
39.909877
 20
18.537627
 30
0.0
 10
40.969037
 20
18.537627
 30
0.0
 10
42.028197
 20
18.537627
 30
0.0
 10
43.087358
 20
18.537627
 30
0.0
 10
43.087358
 20
14.901258
 30
0.0
 10
43.087358
 20
11.264901
 30
0.0
 10
43.087358
 20
7.628524
 30
0.0
 10
43.087358
 20
3.992148
 30
0.0
 10
42.028197
 20
3.992148
 30
0.0
 10
40.969037
 20
3.992148
 30
0.0
 10
39.909877
 20
3.992148
 30
0.0
 10
38.850717
 20
3.992148
 30
0.0
 10
37.488938
 20
5.988926
 30
0.0
 10
36.127162
 20
7.985705
 30
0.0
 10
34.765384
 20
9.982484
 30
0.0
 10
33.403608
 20
11.979262
 30
0.0
 10
33.403608
 20
9.982484
 30
0.0
 10
33.403608
 20
7.985705
 30
0.0
 10
33.403608
 20
5.988926
 30
0.0
 10
33.403608
 20
3.992148
 30
0.0
 10
32.346928
 20
3.992148
 30
0.0
 10
31.290249
 20
3.992148
 30
0.0
 10
30.233569
 20
3.992148
 30
0.0
 10
29.176890
 20
3.992148
 30
0.0
 10
29.176890
 20
7.628524
 30
0.0
 10
29.176890
 20
11.264901
 30
0.0
 10
29.176890
 20
14.901258
 30
0.0
 10
29.176890
 20
18.537627
 30
0.0
  0
LWPOLYLINE
  5
10c
100
AcDbEntity
  8
Layer_1
 62
7
100
AcDbPolyline
 90
17
 70
0
 10
46.272278
 20
18.537627
 30
0.0
 10
47.398409
 20
18.537627
 30
0.0
 10
48.524544
 20
18.537627
 30
0.0
 10
49.650675
 20
18.537627
 30
0.0
 10
50.776810
 20
18.537627
 30
0.0
 10
50.776810
 20
14.901258
 30
0.0
 10
50.776810
 20
11.264901
 30
0.0
 10
50.776810
 20
7.628524
 30
0.0
 10
50.776810
 20
3.992148
 30
0.0
 10
49.650675
 20
3.992148
 30
0.0
 10
48.524544
 20
3.992148
 30
0.0
 10
47.398409
 20
3.992148
 30
0.0
 10
46.272278
 20
3.992148
 30
0.0
 10
46.272278
 20
7.628524
 30
0.0
 10
46.272278
 20
11.264901
 30
0.0
 10
46.272278
 20
14.901258
 30
0.0
 10
46.272278
 20
18.537627
 30
0.0
  0
LWPOLYLINE
  5
10d
100
AcDbEntity
  8
Layer_1
 62
7
100
AcDbPolyline
 90
41
 70
0
 10
53.425951
 20
11.254967
 30
0.0
 10
53.549973
 20
12.937350
 30
0.0
 10
53.922044
 20
14.422516
 30
0.0
 10
54.542159
 20
15.710505
 30
0.0
 10
55.410326
 20
16.801300
 30
0.0
 10
56.499864
 20
17.669461
 30
0.0
 10
57.784128
 20
18.289573
 30
0.0
 10
59.263108
 20
18.661644
 30
0.0
 10
60.936810
 20
18.785675
 30
0.0
 10
62.648327
 20
18.663504
 30
0.0
 10
64.151490
 20
18.297013
 30
0.0
 10
65.446298
 20
17.686199
 30
0.0
 10
66.532749
 20
16.831066
 30
0.0
 10
67.392223
 20
15.760735
 30
0.0
 10
68.006135
 20
14.494455
 30
0.0
 10
68.374486
 20
13.032205
 30
0.0
 10
68.497278
 20
11.374037
 30
0.0
 10
68.443320
 20
10.156107
 30
0.0
 10
68.281468
 20
9.052307
 30
0.0
 10
68.011720
 20
8.062610
 30
0.0
 10
67.634076
 20
7.187016
 30
0.0
 10
67.159056
 20
6.418073
 30
0.0
 10
66.587308
 20
5.738398
 30
0.0
 10
65.918825
 20
5.148073
 30
0.0
 10
65.153608
 20
4.647016
 30
0.0
 10
64.294738
 20
4.251990
 30
0.0
 10
63.335416
 20
3.969824
 30
0.0
 10
62.275638
 20
3.800547
 30
0.0
 10
61.115403
 20
3.744102
 30
0.0
 10
59.937797
 20
3.793096
 30
0.0
 10
58.865615
 20
3.940078
 30
0.0
 10
57.898854
 20
4.185018
 30
0.0
 10
57.037515
 20
4.527946
 30
0.0
 10
56.271668
 20
4.976906
 30
0.0
 10
55.581477
 20
5.539967
 30
0.0
 10
54.966941
 20
6.217131
 30
0.0
 10
54.428060
 20
7.008398
 30
0.0
 10
53.989639
 20
7.910041
 30
0.0
 10
53.676479
 20
8.918365
 30
0.0
 10
53.488582
 20
10.033340
 30
0.0
 10
53.425951
 20
11.254967
 30
0.0
  0
LWPOLYLINE
  5
10e
100
AcDbEntity
  8
Layer_1
 62
7
100
AcDbPolyline
 90
33
 70
0
 10
57.920560
 20
11.235212
 30
0.0
 10
57.971405
 20
10.211394
 30
0.0
 10
58.123955
 20
9.342629
 30
0.0
 10
58.378203
 20
8.628861
 30
0.0
 10
58.734153
 20
8.070146
 30
0.0
 10
59.182494
 20
7.649070
 30
0.0
 10
59.704012
 20
7.348306
 30
0.0
 10
60.298705
 20
7.167853
 30
0.0
 10
60.966576
 20
7.107712
 30
0.0
 10
61.649940
 20
7.166611
 30
0.0
 10
62.251452
 20
7.343367
 30
0.0
 10
62.771110
 20
7.637922
 30
0.0
 10
63.208919
 20
8.050277
 30
0.0
 10
63.556179
 20
8.615202
 30
0.0
 10
63.804221
 20
9.367408
 30
0.0
 10
63.953054
 20
10.306898
 30
0.0
 10
64.002669
 20
11.433642
 30
0.0
 10
63.950573
 20
12.391109
 30
0.0
 10
63.794301
 20
13.209666
 30
0.0
 10
63.533855
 20
13.889314
 30
0.0
 10
63.169233
 20
14.430052
 30
0.0
 10
62.720262
 20
14.846767
 30
0.0
 10
62.196881
 20
15.144421
 30
0.0
 10
61.599089
 20
15.323017
 30
0.0
 10
60.926890
 20
15.382555
 30
0.0
 10
60.280722
 20
15.322396
 30
0.0
 10
59.701532
 20
15.141943
 30
0.0
 10
59.189315
 20
14.841193
 30
0.0
 10
58.744076
 20
14.420146
 30
0.0
 10
58.383785
 20
13.860160
 30
0.0
 10
58.126435
 20
13.142695
 30
0.0
 10
57.972026
 20
12.267693
 30
0.0
 10
57.920560
 20
11.235212
 30
0.0
  0
LWPOLYLINE
  5
10f
100
AcDbEntity
  8
Layer_1
 62
7
100
AcDbPolyline
 90
41
 70
0
 10
70.967826
 20
18.537627
 30
0.0
 10
72.017063
 20
18.537627
 30
0.0
 10
73.066300
 20
18.537627
 30
0.0
 10
74.115541
 20
18.537627
 30
0.0
 10
75.164778
 20
18.537627
 30
0.0
 10
76.533996
 20
16.525969
 30
0.0
 10
77.903214
 20
14.514323
 30
0.0
 10
79.272435
 20
12.502643
 30
0.0
 10
80.641653
 20
10.490992
 30
0.0
 10
80.641653
 20
12.502643
 30
0.0
 10
80.641653
 20
14.514323
 30
0.0
 10
80.641653
 20
16.525969
 30
0.0
 10
80.641653
 20
18.537627
 30
0.0
 10
81.700813
 20
18.537627
 30
0.0
 10
82.759973
 20
18.537627
 30
0.0
 10
83.819134
 20
18.537627
 30
0.0
 10
84.878294
 20
18.537627
 30
0.0
 10
84.878294
 20
14.901258
 30
0.0
 10
84.878294
 20
11.264901
 30
0.0
 10
84.878294
 20
7.628524
 30
0.0
 10
84.878294
 20
3.992148
 30
0.0
 10
83.819134
 20
3.992148
 30
0.0
 10
82.759973
 20
3.992148
 30
0.0
 10
81.700813
 20
3.992148
 30
0.0
 10
80.641653
 20
3.992148
 30
0.0
 10
79.279877
 20
5.988926
 30
0.0
 10
77.918098
 20
7.985705
 30
0.0
 10
76.556322
 20
9.982484
 30
0.0
 10
75.194544
 20
11.979262
 30
0.0
 10
75.194544
 20
9.982484
 30
0.0
 10
75.194544
 20
7.985705
 30
0.0
 10
75.194544
 20
5.988926
 30
0.0
 10
75.194544
 20
3.992148
 30
0.0
 10
74.137864
 20
3.992148
 30
0.0
 10
73.081185
 20
3.992148
 30
0.0
 10
72.024505
 20
3.992148
 30
0.0
 10
70.967826
 20
3.992148
 30
0.0
 10
70.967826
 20
7.628524
 30
0.0
 10
70.967826
 20
11.264901
 30
0.0
 10
70.967826
 20
14.901258
 30
0.0
 10
70.967826
 20
18.537627
 30
0.0
  0
ENDSEC
  0
SECTION
  2
OBJECTS
  0
DICTIONARY
  5
C
330
0
100
AcDbDictionary
  3
ACAD_GROUP
350
D
  3
ACAD_MLINESTYLE
350
17
  0
DICTIONARY
  5
D
330
C
100
AcDbDictionary
  0
DICTIONARY
  5
1A
330
C
100
AcDbDictionary
  0
DICTIONARY
  5
17
330
C
100
AcDbDictionary
  3
STANDARD
350
18
  0
DICTIONARY
  5
19
330
C
100
AcDbDictionary
  0
ENDSEC
  0
EOF
