solid model
facet normal 0.0 0.0 1.0
outer loop
vertex -74.378842369615 -68.4082253406188 -2.00370669926137e-029
vertex -5.71576766497729 -3.3 0.0
vertex -13.6643554153342 11.7008341036915 -2.00370669926137e-029
endloop
endfacet
facet normal 0.0 0.0 1.0
outer loop
vertex -5.71576766497729 -3.3 0.0
vertex -74.378842369615 -68.4082253406188 -2.00370669926137e-029
vertex -4.66690475583121 -4.66690475583121 0.0
endloop
endfacet
facet normal 0.0 0.0 1.0
outer loop
vertex -4.66690475583121 -4.66690475583121 0.0
vertex -74.378842369615 -68.4082253406188 -2.00370669926137e-029
vertex -3.3 -5.71576766497729 0.0
endloop
endfacet
facet normal 0.0 0.0 1.0
outer loop
vertex -3.3 -5.71576766497729 0.0
vertex -74.378842369615 -68.4082253406188 -2.00370669926137e-029
vertex -1.70820569767664 -6.37511045350785 0.0
endloop
endfacet
facet normal 0.0 0.0 1.0
outer loop
vertex -1.70820569767664 -6.37511045350785 0.0
vertex -74.378842369615 -68.4082253406188 -2.00370669926137e-029
vertex 4.04133443718627e-016 -6.6 0.0
endloop
endfacet
facet normal 0.0 0.0 1.0
outer loop
vertex 4.04133443718627e-016 -6.6 0.0
vertex -74.378842369615 -68.4082253406188 -2.00370669926137e-029
vertex 1.70820569767664 -6.37511045350785 0.0
endloop
endfacet
facet normal 0.0 0.0 1.0
outer loop
vertex 1.70820569767664 -6.37511045350785 0.0
vertex -74.378842369615 -68.4082253406188 -2.00370669926137e-029
vertex 3.3 -5.71576766497729 0.0
endloop
endfacet
facet normal 0.0 0.0 1.0
outer loop
vertex 3.3 -5.71576766497729 0.0
vertex -74.378842369615 -68.4082253406188 -2.00370669926137e-029
vertex 134.184045859114 60.0466991592146 -2.00370669926137e-029
endloop
endfacet
facet normal 0.0 0.0 1.0
outer loop
vertex -13.6643554153342 11.7008341036915 -2.00370669926137e-029
vertex -5.71576766497729 -3.3 0.0
vertex -6.37511045350785 -1.70820569767664 0.0
endloop
endfacet
facet normal 0.0 0.0 1.0
outer loop
vertex -13.6643554153342 11.7008341036915 -2.00370669926137e-029
vertex -6.37511045350785 -1.70820569767664 0.0
vertex -6.6 -8.08266887437253e-016 0.0
endloop
endfacet
facet normal 0.0 0.0 1.0
outer loop
vertex 3.3 -5.71576766497729 0.0
vertex 134.184045859114 60.0466991592146 -2.00370669926137e-029
vertex 4.66690475583121 -4.66690475583121 0.0
endloop
endfacet
facet normal 0.0 0.0 1.0
outer loop
vertex 4.66690475583121 -4.66690475583121 0.0
vertex 134.184045859114 60.0466991592146 -2.00370669926137e-029
vertex 5.71576766497729 -3.3 0.0
endloop
endfacet
facet normal 0.0 0.0 1.0
outer loop
vertex 5.71576766497729 -3.3 0.0
vertex 134.184045859114 60.0466991592146 -2.00370669926137e-029
vertex 6.37511045350785 -1.70820569767664 0.0
endloop
endfacet
facet normal 0.0 0.0 1.0
outer loop
vertex 6.37511045350785 -1.70820569767664 0.0
vertex 134.184045859114 60.0466991592146 -2.00370669926137e-029
vertex 6.6 0.0 0.0
endloop
endfacet
facet normal 0.0 0.0 1.0
outer loop
vertex -13.6643554153342 11.7008341036915 -2.00370669926137e-029
vertex -1.70820569767664 6.37511045350785 0.0
vertex 134.184045859114 60.0466991592146 -2.00370669926137e-029
endloop
endfacet
facet normal 0.0 0.0 1.0
outer loop
vertex -1.70820569767664 6.37511045350785 0.0
vertex -13.6643554153342 11.7008341036915 -2.00370669926137e-029
vertex -3.3 5.71576766497729 0.0
endloop
endfacet
facet normal 0.0 0.0 1.0
outer loop
vertex -3.3 5.71576766497729 0.0
vertex -13.6643554153342 11.7008341036915 -2.00370669926137e-029
vertex -4.66690475583122 4.66690475583121 0.0
endloop
endfacet
facet normal 0.0 0.0 1.0
outer loop
vertex -4.66690475583122 4.66690475583121 0.0
vertex -13.6643554153342 11.7008341036915 -2.00370669926137e-029
vertex -5.7157676649773 3.3 0.0
endloop
endfacet
facet normal 0.0 0.0 1.0
outer loop
vertex -5.7157676649773 3.3 0.0
vertex -13.6643554153342 11.7008341036915 -2.00370669926137e-029
vertex -6.37511045350785 1.70820569767663 0.0
endloop
endfacet
facet normal 0.0 0.0 1.0
outer loop
vertex -6.37511045350785 1.70820569767663 0.0
vertex -13.6643554153342 11.7008341036915 -2.00370669926137e-029
vertex -6.6 -8.08266887437253e-016 0.0
endloop
endfacet
facet normal 0.0 0.0 1.0
outer loop
vertex 134.184045859114 60.0466991592146 -2.00370669926137e-029
vertex -1.70820569767664 6.37511045350785 0.0
vertex -1.21240033115588e-015 6.6 0.0
endloop
endfacet
facet normal 0.0 0.0 1.0
outer loop
vertex 134.184045859114 60.0466991592146 -2.00370669926137e-029
vertex -1.21240033115588e-015 6.6 0.0
vertex 1.70820569767663 6.37511045350785 0.0
endloop
endfacet
facet normal 0.0 0.0 1.0
outer loop
vertex 134.184045859114 60.0466991592146 -2.00370669926137e-029
vertex 1.70820569767663 6.37511045350785 0.0
vertex 3.3 5.7157676649773 0.0
endloop
endfacet
facet normal 0.0 0.0 1.0
outer loop
vertex 134.184045859114 60.0466991592146 -2.00370669926137e-029
vertex 3.3 5.7157676649773 0.0
vertex 4.66690475583121 4.66690475583121 0.0
endloop
endfacet
facet normal 0.0 0.0 1.0
outer loop
vertex 134.184045859114 60.0466991592146 -2.00370669926137e-029
vertex 4.66690475583121 4.66690475583121 0.0
vertex 5.71576766497729 3.3 0.0
endloop
endfacet
facet normal 0.0 0.0 1.0
outer loop
vertex 134.184045859114 60.0466991592146 -2.00370669926137e-029
vertex 5.71576766497729 3.3 0.0
vertex 6.37511045350785 1.70820569767664 0.0
endloop
endfacet
facet normal 0.0 0.0 1.0
outer loop
vertex 134.184045859114 60.0466991592146 -2.00370669926137e-029
vertex 6.37511045350785 1.70820569767664 0.0
vertex 6.6 0.0 0.0
endloop
endfacet
facet normal 0.0 0.0 -1.0
outer loop
vertex 134.184045859114 60.0466991592146 -4.0
vertex -74.378842369615 -68.4082253406188 -4.0
vertex -13.6643554153342 11.7008341036915 -4.0
endloop
endfacet
facet normal -0.796968560645213 0.604020788833545 0.0
outer loop
vertex -13.6643554153342 11.7008341036915 -2.00370669926137e-029
vertex -74.378842369615 -68.4082253406188 -4.0
vertex -74.378842369615 -68.4082253406188 -2.00370669926137e-029
endloop
endfacet
facet normal -0.796968560645213 0.604020788833545 0.0
outer loop
vertex -74.378842369615 -68.4082253406188 -4.0
vertex -13.6643554153342 11.7008341036915 -2.00370669926137e-029
vertex -13.6643554153342 11.7008341036915 -4.0
endloop
endfacet
facet normal -0.310801644328269 0.950474796027146 0.0
outer loop
vertex -13.6643554153342 11.7008341036915 -2.00370669926137e-029
vertex 134.184045859114 60.0466991592146 -4.0
vertex -13.6643554153342 11.7008341036915 -4.0
endloop
endfacet
facet normal -0.310801644328269 0.950474796027146 0.0
outer loop
vertex 134.184045859114 60.0466991592146 -4.0
vertex -13.6643554153342 11.7008341036915 -2.00370669926137e-029
vertex 134.184045859114 60.0466991592146 -2.00370669926137e-029
endloop
endfacet
facet normal 0.52441876552519 -0.851460485498321 0.0
outer loop
vertex 134.184045859114 60.0466991592146 -2.00370669926137e-029
vertex -74.378842369615 -68.4082253406188 -4.0
vertex 134.184045859114 60.0466991592146 -4.0
endloop
endfacet
facet normal 0.52441876552519 -0.851460485498321 0.0
outer loop
vertex -74.378842369615 -68.4082253406188 -4.0
vertex 134.184045859114 60.0466991592146 -2.00370669926137e-029
vertex -74.378842369615 -68.4082253406188 -2.00370669926137e-029
endloop
endfacet
facet normal 0.0 0.0 1.0
outer loop
vertex -6.37511045350785 -1.70820569767664 -2.0
vertex -6.37511045350785 1.70820569767663 -2.0
vertex -6.6 -8.08266887437253e-016 -2.0
endloop
endfacet
facet normal 0.0 0.0 1.0
outer loop
vertex -6.37511045350785 1.70820569767663 -2.0
vertex -6.37511045350785 -1.70820569767664 -2.0
vertex -5.7157676649773 3.3 -2.0
endloop
endfacet
facet normal 0.0 0.0 1.0
outer loop
vertex -5.7157676649773 3.3 -2.0
vertex -6.37511045350785 -1.70820569767664 -2.0
vertex -5.71576766497729 -3.3 -2.0
endloop
endfacet
facet normal 0.0 0.0 1.0
outer loop
vertex -5.7157676649773 3.3 -2.0
vertex -5.71576766497729 -3.3 -2.0
vertex -4.66690475583122 4.66690475583121 -2.0
endloop
endfacet
facet normal 0.0 0.0 1.0
outer loop
vertex -4.66690475583122 4.66690475583121 -2.0
vertex -5.71576766497729 -3.3 -2.0
vertex -4.66690475583121 -4.66690475583121 -2.0
endloop
endfacet
facet normal 0.0 0.0 1.0
outer loop
vertex -4.66690475583122 4.66690475583121 -2.0
vertex -4.66690475583121 -4.66690475583121 -2.0
vertex -3.3 5.71576766497729 -2.0
endloop
endfacet
facet normal 0.0 0.0 1.0
outer loop
vertex -3.3 5.71576766497729 -2.0
vertex -4.66690475583121 -4.66690475583121 -2.0
vertex -3.3 -5.71576766497729 -2.0
endloop
endfacet
facet normal 0.0 0.0 1.0
outer loop
vertex -3.3 5.71576766497729 -2.0
vertex -3.3 -5.71576766497729 -2.0
vertex -1.70820569767664 6.37511045350785 -2.0
endloop
endfacet
facet normal 0.0 0.0 1.0
outer loop
vertex -1.70820569767664 6.37511045350785 -2.0
vertex -3.3 -5.71576766497729 -2.0
vertex -1.70820569767664 -6.37511045350785 -2.0
endloop
endfacet
facet normal 0.0 0.0 1.0
outer loop
vertex -1.70820569767664 6.37511045350785 -2.0
vertex -1.70820569767664 -6.37511045350785 -2.0
vertex -1.21240033115588e-015 6.6 -2.0
endloop
endfacet
facet normal 0.0 0.0 1.0
outer loop
vertex -1.21240033115588e-015 6.6 -2.0
vertex -1.70820569767664 -6.37511045350785 -2.0
vertex 4.04133443718627e-016 -6.6 -2.0
endloop
endfacet
facet normal 0.0 0.0 1.0
outer loop
vertex -1.21240033115588e-015 6.6 -2.0
vertex 4.04133443718627e-016 -6.6 -2.0
vertex 1.70820569767663 6.37511045350785 -2.0
endloop
endfacet
facet normal 0.0 0.0 1.0
outer loop
vertex 1.70820569767663 6.37511045350785 -2.0
vertex 4.04133443718627e-016 -6.6 -2.0
vertex 1.70820569767664 -6.37511045350785 -2.0
endloop
endfacet
facet normal 0.0 0.0 1.0
outer loop
vertex 1.70820569767663 6.37511045350785 -2.0
vertex 1.70820569767664 -6.37511045350785 -2.0
vertex 3.3 5.7157676649773 -2.0
endloop
endfacet
facet normal 0.0 0.0 1.0
outer loop
vertex 3.3 5.7157676649773 -2.0
vertex 1.70820569767664 -6.37511045350785 -2.0
vertex 3.3 -5.71576766497729 -2.0
endloop
endfacet
facet normal 0.0 0.0 1.0
outer loop
vertex 3.3 5.7157676649773 -2.0
vertex 3.3 -5.71576766497729 -2.0
vertex 4.66690475583121 4.66690475583121 -2.0
endloop
endfacet
facet normal 0.0 0.0 1.0
outer loop
vertex 4.66690475583121 4.66690475583121 -2.0
vertex 3.3 -5.71576766497729 -2.0
vertex 4.66690475583121 -4.66690475583121 -2.0
endloop
endfacet
facet normal 0.0 0.0 1.0
outer loop
vertex 4.66690475583121 4.66690475583121 -2.0
vertex 4.66690475583121 -4.66690475583121 -2.0
vertex 5.71576766497729 3.3 -2.0
endloop
endfacet
facet normal 0.0 0.0 1.0
outer loop
vertex 5.71576766497729 3.3 -2.0
vertex 4.66690475583121 -4.66690475583121 -2.0
vertex 5.71576766497729 -3.3 -2.0
endloop
endfacet
facet normal 0.0 0.0 1.0
outer loop
vertex 5.71576766497729 3.3 -2.0
vertex 5.71576766497729 -3.3 -2.0
vertex 6.37511045350785 1.70820569767664 -2.0
endloop
endfacet
facet normal 0.0 0.0 1.0
outer loop
vertex 6.37511045350785 1.70820569767664 -2.0
vertex 5.71576766497729 -3.3 -2.0
vertex 6.37511045350785 -1.70820569767664 -2.0
endloop
endfacet
facet normal 0.0 0.0 1.0
outer loop
vertex 6.37511045350785 1.70820569767664 -2.0
vertex 6.37511045350785 -1.70820569767664 -2.0
vertex 6.6 0.0 -2.0
endloop
endfacet
facet normal -0.965925826289068 -0.258819045102521 0.0
outer loop
vertex 6.37511045350785 1.70820569767664 0.0
vertex 6.6 0.0 -2.0
vertex 6.6 0.0 0.0
endloop
endfacet
facet normal -1.0 -5.88133253112696e-016 0.0
outer loop
vertex 6.6 0.0 -2.0
vertex 6.37511045350785 1.70820569767664 0.0
vertex 6.37511045350785 1.70820569767664 -2.0
endloop
endfacet
facet normal -0.866025403784439 -0.5 0.0
outer loop
vertex 5.71576766497729 3.3 0.0
vertex 6.37511045350785 1.70820569767664 -2.0
vertex 6.37511045350785 1.70820569767664 0.0
endloop
endfacet
facet normal -0.965925826289068 -0.258819045102521 0.0
outer loop
vertex 6.37511045350785 1.70820569767664 -2.0
vertex 5.71576766497729 3.3 0.0
vertex 5.71576766497729 3.3 -2.0
endloop
endfacet
facet normal -0.707106781186547 -0.707106781186548 0.0
outer loop
vertex 4.66690475583121 4.66690475583121 0.0
vertex 5.71576766497729 3.3 -2.0
vertex 5.71576766497729 3.3 0.0
endloop
endfacet
facet normal -0.866025403784439 -0.5 0.0
outer loop
vertex 5.71576766497729 3.3 -2.0
vertex 4.66690475583121 4.66690475583121 0.0
vertex 4.66690475583121 4.66690475583121 -2.0
endloop
endfacet
facet normal -0.707106781186547 -0.707106781186548 0.0
outer loop
vertex 4.66690475583121 4.66690475583121 0.0
vertex 3.3 5.7157676649773 -2.0
vertex 4.66690475583121 4.66690475583121 -2.0
endloop
endfacet
facet normal -0.5 -0.866025403784439 0.0
outer loop
vertex 3.3 5.7157676649773 -2.0
vertex 4.66690475583121 4.66690475583121 0.0
vertex 3.3 5.7157676649773 0.0
endloop
endfacet
facet normal -0.5 -0.866025403784439 0.0
outer loop
vertex 3.3 5.7157676649773 0.0
vertex 1.70820569767663 6.37511045350785 -2.0
vertex 3.3 5.7157676649773 -2.0
endloop
endfacet
facet normal -0.25881904510252 -0.965925826289068 0.0
outer loop
vertex 1.70820569767663 6.37511045350785 -2.0
vertex 3.3 5.7157676649773 0.0
vertex 1.70820569767663 6.37511045350785 0.0
endloop
endfacet
facet normal -0.25881904510252 -0.965925826289068 0.0
outer loop
vertex 1.70820569767663 6.37511045350785 0.0
vertex -1.21240033115588e-015 6.6 -2.0
vertex 1.70820569767663 6.37511045350785 -2.0
endloop
endfacet
facet normal 5.88133253112696e-016 -1.0 0.0
outer loop
vertex -1.21240033115588e-015 6.6 -2.0
vertex 1.70820569767663 6.37511045350785 0.0
vertex -1.21240033115588e-015 6.6 0.0
endloop
endfacet
facet normal 5.88133253112696e-016 -1.0 0.0
outer loop
vertex -1.21240033115588e-015 6.6 0.0
vertex -1.70820569767664 6.37511045350785 -2.0
vertex -1.21240033115588e-015 6.6 -2.0
endloop
endfacet
facet normal 0.258819045102521 -0.965925826289068 0.0
outer loop
vertex -1.70820569767664 6.37511045350785 -2.0
vertex -1.21240033115588e-015 6.6 0.0
vertex -1.70820569767664 6.37511045350785 0.0
endloop
endfacet
facet normal 0.258819045102521 -0.965925826289068 0.0
outer loop
vertex -1.70820569767664 6.37511045350785 0.0
vertex -3.3 5.71576766497729 -2.0
vertex -1.70820569767664 6.37511045350785 -2.0
endloop
endfacet
facet normal 0.5 -0.866025403784438 0.0
outer loop
vertex -3.3 5.71576766497729 -2.0
vertex -1.70820569767664 6.37511045350785 0.0
vertex -3.3 5.71576766497729 0.0
endloop
endfacet
facet normal 0.5 -0.866025403784438 0.0
outer loop
vertex -3.3 5.71576766497729 0.0
vertex -4.66690475583122 4.66690475583121 -2.0
vertex -3.3 5.71576766497729 -2.0
endloop
endfacet
facet normal 0.707106781186548 -0.707106781186547 0.0
outer loop
vertex -4.66690475583122 4.66690475583121 -2.0
vertex -3.3 5.71576766497729 0.0
vertex -4.66690475583122 4.66690475583121 0.0
endloop
endfacet
facet normal 0.707106781186548 -0.707106781186547 0.0
outer loop
vertex -4.66690475583122 4.66690475583121 -2.0
vertex -5.7157676649773 3.3 0.0
vertex -5.7157676649773 3.3 -2.0
endloop
endfacet
facet normal 0.866025403784439 -0.5 0.0
outer loop
vertex -5.7157676649773 3.3 0.0
vertex -4.66690475583122 4.66690475583121 -2.0
vertex -4.66690475583122 4.66690475583121 0.0
endloop
endfacet
facet normal 0.866025403784439 -0.5 0.0
outer loop
vertex -5.7157676649773 3.3 -2.0
vertex -6.37511045350785 1.70820569767663 0.0
vertex -6.37511045350785 1.70820569767663 -2.0
endloop
endfacet
facet normal 0.965925826289068 -0.258819045102521 0.0
outer loop
vertex -6.37511045350785 1.70820569767663 0.0
vertex -5.7157676649773 3.3 -2.0
vertex -5.7157676649773 3.3 0.0
endloop
endfacet
facet normal 0.965925826289068 -0.258819045102521 0.0
outer loop
vertex -6.37511045350785 1.70820569767663 -2.0
vertex -6.6 -8.08266887437253e-016 0.0
vertex -6.6 -8.08266887437253e-016 -2.0
endloop
endfacet
facet normal 1.0 2.94066626556348e-016 0.0
outer loop
vertex -6.6 -8.08266887437253e-016 0.0
vertex -6.37511045350785 1.70820569767663 -2.0
vertex -6.37511045350785 1.70820569767663 0.0
endloop
endfacet
facet normal 1.0 2.94066626556348e-016 0.0
outer loop
vertex -6.6 -8.08266887437253e-016 -2.0
vertex -6.37511045350785 -1.70820569767664 0.0
vertex -6.37511045350785 -1.70820569767664 -2.0
endloop
endfacet
facet normal 0.965925826289068 0.258819045102521 0.0
outer loop
vertex -6.37511045350785 -1.70820569767664 0.0
vertex -6.6 -8.08266887437253e-016 -2.0
vertex -6.6 -8.08266887437253e-016 0.0
endloop
endfacet
facet normal 0.965925826289068 0.258819045102521 0.0
outer loop
vertex -6.37511045350785 -1.70820569767664 -2.0
vertex -5.71576766497729 -3.3 0.0
vertex -5.71576766497729 -3.3 -2.0
endloop
endfacet
facet normal 0.866025403784439 0.5 0.0
outer loop
vertex -5.71576766497729 -3.3 0.0
vertex -6.37511045350785 -1.70820569767664 -2.0
vertex -6.37511045350785 -1.70820569767664 0.0
endloop
endfacet
facet normal 0.866025403784439 0.5 0.0
outer loop
vertex -5.71576766497729 -3.3 -2.0
vertex -4.66690475583121 -4.66690475583121 0.0
vertex -4.66690475583121 -4.66690475583121 -2.0
endloop
endfacet
facet normal 0.707106781186547 0.707106781186548 0.0
outer loop
vertex -4.66690475583121 -4.66690475583121 0.0
vertex -5.71576766497729 -3.3 -2.0
vertex -5.71576766497729 -3.3 0.0
endloop
endfacet
facet normal 0.707106781186547 0.707106781186548 0.0
outer loop
vertex -4.66690475583121 -4.66690475583121 0.0
vertex -3.3 -5.71576766497729 -2.0
vertex -4.66690475583121 -4.66690475583121 -2.0
endloop
endfacet
facet normal 0.5 0.866025403784439 0.0
outer loop
vertex -3.3 -5.71576766497729 -2.0
vertex -4.66690475583121 -4.66690475583121 0.0
vertex -3.3 -5.71576766497729 0.0
endloop
endfacet
facet normal 0.5 0.866025403784439 0.0
outer loop
vertex -3.3 -5.71576766497729 0.0
vertex -1.70820569767664 -6.37511045350785 -2.0
vertex -3.3 -5.71576766497729 -2.0
endloop
endfacet
facet normal 0.258819045102521 0.965925826289068 0.0
outer loop
vertex -1.70820569767664 -6.37511045350785 -2.0
vertex -3.3 -5.71576766497729 0.0
vertex -1.70820569767664 -6.37511045350785 0.0
endloop
endfacet
facet normal 0.258819045102521 0.965925826289068 0.0
outer loop
vertex -1.70820569767664 -6.37511045350785 0.0
vertex 4.04133443718627e-016 -6.6 -2.0
vertex -1.70820569767664 -6.37511045350785 -2.0
endloop
endfacet
facet normal -3.38622176034582e-016 1.0 0.0
outer loop
vertex 4.04133443718627e-016 -6.6 -2.0
vertex -1.70820569767664 -6.37511045350785 0.0
vertex 4.04133443718627e-016 -6.6 0.0
endloop
endfacet
facet normal -3.38622176034582e-016 1.0 0.0
outer loop
vertex 4.04133443718627e-016 -6.6 0.0
vertex 1.70820569767664 -6.37511045350785 -2.0
vertex 4.04133443718627e-016 -6.6 -2.0
endloop
endfacet
facet normal -0.258819045102521 0.965925826289068 0.0
outer loop
vertex 1.70820569767664 -6.37511045350785 -2.0
vertex 4.04133443718627e-016 -6.6 0.0
vertex 1.70820569767664 -6.37511045350785 0.0
endloop
endfacet
facet normal -0.258819045102521 0.965925826289068 0.0
outer loop
vertex 1.70820569767664 -6.37511045350785 0.0
vertex 3.3 -5.71576766497729 -2.0
vertex 1.70820569767664 -6.37511045350785 -2.0
endloop
endfacet
facet normal -0.5 0.866025403784439 0.0
outer loop
vertex 3.3 -5.71576766497729 -2.0
vertex 1.70820569767664 -6.37511045350785 0.0
vertex 3.3 -5.71576766497729 0.0
endloop
endfacet
facet normal -0.5 0.866025403784439 0.0
outer loop
vertex 3.3 -5.71576766497729 0.0
vertex 4.66690475583121 -4.66690475583121 -2.0
vertex 3.3 -5.71576766497729 -2.0
endloop
endfacet
facet normal -0.707106781186548 0.707106781186547 0.0
outer loop
vertex 4.66690475583121 -4.66690475583121 -2.0
vertex 3.3 -5.71576766497729 0.0
vertex 4.66690475583121 -4.66690475583121 0.0
endloop
endfacet
facet normal -0.866025403784439 0.5 0.0
outer loop
vertex 5.71576766497729 -3.3 0.0
vertex 4.66690475583121 -4.66690475583121 -2.0
vertex 4.66690475583121 -4.66690475583121 0.0
endloop
endfacet
facet normal -0.707106781186548 0.707106781186547 0.0
outer loop
vertex 4.66690475583121 -4.66690475583121 -2.0
vertex 5.71576766497729 -3.3 0.0
vertex 5.71576766497729 -3.3 -2.0
endloop
endfacet
facet normal -0.965925826289068 0.258819045102521 0.0
outer loop
vertex 6.37511045350785 -1.70820569767664 0.0
vertex 5.71576766497729 -3.3 -2.0
vertex 5.71576766497729 -3.3 0.0
endloop
endfacet
facet normal -0.866025403784439 0.5 0.0
outer loop
vertex 5.71576766497729 -3.3 -2.0
vertex 6.37511045350785 -1.70820569767664 0.0
vertex 6.37511045350785 -1.70820569767664 -2.0
endloop
endfacet
facet normal -1.0 -5.88133253112696e-016 0.0
outer loop
vertex 6.6 0.0 0.0
vertex 6.37511045350785 -1.70820569767664 -2.0
vertex 6.37511045350785 -1.70820569767664 0.0
endloop
endfacet
facet normal -0.965925826289068 0.258819045102521 0.0
outer loop
vertex 6.37511045350785 -1.70820569767664 -2.0
vertex 6.6 0.0 0.0
vertex 6.6 0.0 -2.0
endloop
endfacet
endsolid model
