  0
SECTION
  2
HEADER
  9
$ACADVER
  1
AC1014
  9
$HANDSEED
  5
FFFF
  9
$MEASUREMENT
 70
     1
  0
ENDSEC
  0
SECTION
  2
TABLES
  0
TABLE
  2
VPORT
  5
8
330
0
100
AcDbSymbolTable
 70
     4
  0
VPORT
  5
2E
330
8
100
AcDbSymbolTableRecord
100
AcDbViewportTableRecord
  2
*ACTIVE
 70
     0
 10
0.0
 20
0.0
 11
1.0
 21
1.0
 12
210.0
 22
148.5
 13
0.0
 23
0.0
 14
10.0
 24
10.0
 15
10.0
 25
10.0
 16
0.0
 26
0.0
 36
1.0
 17
0.0
 27
0.0
 37
0.0
 40
341.0
 41
1.24
 42
50.0
 43
0.0
 44
0.0
 50
0.0
 51
0.0
 71
     0
 72
   100
 73
     1
 74
     3
 75
     0
 76
     0
 77
     0
 78
     0
  0
ENDTAB
  0
TABLE
  2
LTYPE
  5
5
330
0
100
AcDbSymbolTable
 70
     1
  0
LTYPE
  5
14
330
5
100
AcDbSymbolTableRecord
100
AcDbLinetypeTableRecord
  2
BYBLOCK
 70
     0
  3

 72
    65
 73
     0
 40
0.0
  0
LTYPE
  5
15
330
5
100
AcDbSymbolTableRecord
100
AcDbLinetypeTableRecord
  2
BYLAYER
 70
     0
  3

 72
    65
 73
     0
 40
0.0
  0
LTYPE
  5
16
330
5
100
AcDbSymbolTableRecord
100
AcDbLinetypeTableRecord
  2
CONTINUOUS
 70
     0
  3
Solid line
 72
    65
 73
     0
 40
0.0
  0
ENDTAB
  0
TABLE
  2
LAYER
  5
2
100
AcDbSymbolTable
 70
2
  0
LAYER
  5
50
100
AcDbSymbolTableRecord
100
AcDbLayerTableRecord
  2
0
 70
0
  6
CONTINUOUS
  0
LAYER
  5
51
100
AcDbSymbolTableRecord
100
AcDbLayerTableRecord
  2
Layer_1
 70
0
  6
CONTINUOUS
  0
ENDTAB
  0
TABLE
  2
STYLE
  5
3
330
0
100
AcDbSymbolTable
 70
     1
  0
STYLE
  5
11
330
3
100
AcDbSymbolTableRecord
100
AcDbTextStyleTableRecord
  2
STANDARD
 70
     0
 40
0.0
 41
1.0
 50
0.0
 71
     0
 42
2.5
  3
txt
  4

  0
ENDTAB
  0
TABLE
  2
VIEW
  5
6
330
0
100
AcDbSymbolTable
 70
     0
  0
ENDTAB
  0
TABLE
  2
UCS
  5
7
330
0
100
AcDbSymbolTable
 70
     0
  0
ENDTAB
  0
TABLE
  2
APPID
  5
9
330
0
100
AcDbSymbolTable
 70
     2
  0
APPID
  5
12
330
9
100
AcDbSymbolTableRecord
100
AcDbRegAppTableRecord
  2
ACAD
 70
     0
  0
ENDTAB
  0
TABLE
  2
DIMSTYLE
  5
A
330
0
100
AcDbSymbolTable
 70
     1
  0
DIMSTYLE
105
27
330
A
100
AcDbSymbolTableRecord
100
AcDbDimStyleTableRecord
  2
ISO-25
 70
     0
  3

  4

  5

  6

  7

 40
1.0
 41
2.5
 42
0.625
 43
3.75
 44
1.25
 45
0.0
 46
0.0
 47
0.0
 48
0.0
140
2.5
141
2.5
142
0.0
143
0.03937007874016
144
1.0
145
0.0
146
1.0
147
0.625
 71
     0
 72
     0
 73
     0
 74
     0
 75
     0
 76
     0
 77
     1
 78
     8
170
     0
171
     3
172
     1
173
     0
174
     0
175
     0
176
     0
177
     0
178
     0
270
     2
271
     2
272
     2
273
     2
274
     3
340
11
275
     0
280
     0
281
     0
282
     0
283
     0
284
     8
285
     0
286
     0
287
     3
288
     0
  0
ENDTAB
  0
TABLE
  2
BLOCK_RECORD
  5
1
330
0
100
AcDbSymbolTable
 70
     1
  0
BLOCK_RECORD
  5
1F
330
1
100
AcDbSymbolTableRecord
100
AcDbBlockTableRecord
  2
*MODEL_SPACE
  0
BLOCK_RECORD
  5
1B
330
1
100
AcDbSymbolTableRecord
100
AcDbBlockTableRecord
  2
*PAPER_SPACE
  0
ENDTAB
  0
ENDSEC
  0
SECTION
  2
BLOCKS
  0
BLOCK
  5
20
330
1F
100
AcDbEntity
  8
0
100
AcDbBlockBegin
  2
*MODEL_SPACE
 70
     0
 10
0.0
 20
0.0
 30
0.0
  3
*MODEL_SPACE
  1

  0
ENDBLK
  5
21
330
1F
100
AcDbEntity
  8
0
100
AcDbBlockEnd
  0
BLOCK
  5
1C
330
1B
100
AcDbEntity
 67
     1
  8
0
100
AcDbBlockBegin
  2
*PAPER_SPACE
  1

  0
ENDBLK
  5
1D
330
1B
100
AcDbEntity
 67
     1
  8
0
100
AcDbBlockEnd
  0
ENDSEC
  0
SECTION
  2
ENTITIES
  0
LWPOLYLINE
  5
100
100
AcDbEntity
  8
Layer_1
 62
7
100
AcDbPolyline
 90
225
 70
0
 10
21.372547
 20
156.005320
 30
0.0
 10
21.372547
 20
155.503825
 30
0.0
 10
21.372547
 20
155.002330
 30
0.0
 10
21.372547
 20
154.500835
 30
0.0
 10
21.372547
 20
153.999341
 30
0.0
 10
21.372547
 20
153.497846
 30
0.0
 10
21.372547
 20
152.996351
 30
0.0
 10
21.372547
 20
152.494856
 30
0.0
 10
21.372547
 20
151.993361
 30
0.0
 10
20.791176
 20
152.264467
 30
0.0
 10
20.218080
 20
152.517753
 30
0.0
 10
19.653259
 20
152.753222
 30
0.0
 10
19.096714
 20
152.970875
 30
0.0
 10
18.548444
 20
153.170711
 30
0.0
 10
18.008449
 20
153.352727
 30
0.0
 10
17.476730
 20
153.516930
 30
0.0
 10
16.953285
 20
153.663313
 30
0.0
 10
16.436193
 20
153.792178
 30
0.0
 10
15.923557
 20
153.903862
 30
0.0
 10
15.415378
 20
153.998367
 30
0.0
 10
14.911656
 20
154.075690
 30
0.0
 10
14.412389
 20
154.135832
 30
0.0
 10
13.917579
 20
154.178794
 30
0.0
 10
13.427226
 20
154.204589
 30
0.0
 10
12.941328
 20
154.213197
 30
0.0
 10
12.125123
 20
154.192821
 30
0.0
 10
11.356650
 20
154.131720
 30
0.0
 10
10.635909
 20
154.029888
 30
0.0
 10
9.962900
 20
153.887332
 30
0.0
 10
9.337623
 20
153.704046
 30
0.0
 10
8.760079
 20
153.480032
 30
0.0
 10
8.230266
 20
153.215291
 30
0.0
 10
7.748186
 20
152.909819
 30
0.0
 10
7.323377
 20
152.566783
 30
0.0
 10
6.955209
 20
152.189385
 30
0.0
 10
6.643683
 20
151.777619
 30
0.0
 10
6.388799
 20
151.331494
 30
0.0
 10
6.190556
 20
150.850999
 30
0.0
 10
6.048955
 20
150.336144
 30
0.0
 10
5.963995
 20
149.786926
 30
0.0
 10
5.935677
 20
149.203341
 30
0.0
 10
5.954453
 20
148.714569
 30
0.0
 10
6.010776
 20
148.256344
 30
0.0
 10
6.104646
 20
147.828670
 30
0.0
 10
6.236065
 20
147.431547
 30
0.0
 10
6.405032
 20
147.064974
 30
0.0
 10
6.611548
 20
146.728949
 30
0.0
 10
6.855613
 20
146.423474
 30
0.0
 10
7.137228
 20
146.148551
 30
0.0
 10
7.476434
 20
145.900026
 30
0.0
 10
7.883101
 20
145.663591
 30
0.0
 10
8.357228
 20
145.439253
 30
0.0
 10
8.898816
 20
145.227007
 30
0.0
 10
9.507865
 20
145.026858
 30
0.0
 10
10.184375
 20
144.838800
 30
0.0
 10
10.928346
 20
144.662834
 30
0.0
 10
11.739778
 20
144.498964
 30
0.0
 10
12.050348
 20
144.435323
 30
0.0
 10
12.360919
 20
144.371682
 30
0.0
 10
12.671489
 20
144.308041
 30
0.0
 10
12.982059
 20
144.244397
 30
0.0
 10
13.292629
 20
144.180756
 30
0.0
 10
13.603200
 20
144.117115
 30
0.0
 10
13.913770
 20
144.053474
 30
0.0
 10
14.224340
 20
143.989833
 30
0.0
 10
15.337105
 20
143.749899
 30
0.0
 10
16.374138
 20
143.467964
 30
0.0
 10
17.335439
 20
143.144027
 30
0.0
 10
18.221009
 20
142.778086
 30
0.0
 10
19.030847
 20
142.370145
 30
0.0
 10
19.764954
 20
141.920204
 30
0.0
 10
20.423329
 20
141.428260
 30
0.0
 10
21.005973
 20
140.894312
 30
0.0
 10
21.521461
 20
140.320899
 30
0.0
 10
21.968219
 20
139.700391
 30
0.0
 10
22.346245
 20
139.032791
 30
0.0
 10
22.655542
 20
138.318097
 30
0.0
 10
22.896108
 20
137.556309
 30
0.0
 10
23.067943
 20
136.747429
 30
0.0
 10
23.171048
 20
135.891455
 30
0.0
 10
23.205422
 20
134.988386
 30
0.0
 10
23.158956
 20
133.916980
 30
0.0
 10
23.019575
 20
132.912399
 30
0.0
 10
22.787281
 20
131.974642
 30
0.0
 10
22.462072
 20
131.103710
 30
0.0
 10
22.043949
 20
130.299600
 30
0.0
 10
21.532912
 20
129.562314
 30
0.0
 10
20.928960
 20
128.891853
 30
0.0
 10
20.232093
 20
128.288213
 30
0.0
 10
19.450570
 20
127.753625
 30
0.0
 10
18.582497
 20
127.290315
 30
0.0
 10
17.627872
 20
126.898286
 30
0.0
 10
16.586698
 20
126.577532
 30
0.0
 10
15.458972
 20
126.328058
 30
0.0
 10
14.244696
 20
126.149861
 30
0.0
 10
12.943869
 20
126.042943
 30
0.0
 10
11.556491
 20
126.007304
 30
0.0
 10
11.012353
 20
126.014953
 30
0.0
 10
10.459306
 20
126.037869
 30
0.0
 10
9.897351
 20
126.076054
 30
0.0
 10
9.326487
 20
126.129512
 30
0.0
 10
8.746714
 20
126.198248
 30
0.0
 10
8.158032
 20
126.282254
 30
0.0
 10
7.560441
 20
126.381534
 30
0.0
 10
6.953941
 20
126.496088
 30
0.0
 10
6.345208
 20
126.625600
 30
0.0
 10
5.730749
 20
126.769748
 30
0.0
 10
5.110562
 20
126.928531
 30
0.0
 10
4.484649
 20
127.101954
 30
0.0
 10
3.853008
 20
127.290016
 30
0.0
 10
3.215639
 20
127.492713
 30
0.0
 10
2.572544
 20
127.710050
 30
0.0
 10
1.923721
 20
127.942022
 30
0.0
 10
1.923721
 20
128.471519
 30
0.0
 10
1.923721
 20
129.001016
 30
0.0
 10
1.923721
 20
129.530513
 30
0.0
 10
1.923721
 20
130.060010
 30
0.0
 10
1.923721
 20
130.589507
 30
0.0
 10
1.923721
 20
131.119004
 30
0.0
 10
1.923721
 20
131.648500
 30
0.0
 10
1.923721
 20
132.177997
 30
0.0
 10
2.548360
 20
131.837513
 30
0.0
 10
3.169817
 20
131.518670
 30
0.0
 10
3.788093
 20
131.221462
 30
0.0
 10
4.403187
 20
130.945894
 30
0.0
 10
5.015100
 20
130.691968
 30
0.0
 10
5.623831
 20
130.459676
 30
0.0
 10
6.229381
 20
130.249023
 30
0.0
 10
6.831749
 20
130.060010
 30
0.0
 10
7.431250
 20
129.892954
 30
0.0
 10
8.028205
 20
129.748168
 30
0.0
 10
8.622614
 20
129.625659
 30
0.0
 10
9.214479
 20
129.525422
 30
0.0
 10
9.803799
 20
129.447461
 30
0.0
 10
10.390574
 20
129.391773
 30
0.0
 10
10.974804
 20
129.358360
 30
0.0
 10
11.556491
 20
129.347213
 30
0.0
 10
12.412145
 20
129.368859
 30
0.0
 10
13.217524
 20
129.433776
 30
0.0
 10
13.972627
 20
129.541966
 30
0.0
 10
14.677455
 20
129.693431
 30
0.0
 10
15.332008
 20
129.888173
 30
0.0
 10
15.936286
 20
130.126194
 30
0.0
 10
16.490289
 20
130.407488
 30
0.0
 10
16.994016
 20
130.732060
 30
0.0
 10
17.442685
 20
131.096719
 30
0.0
 10
17.831530
 20
131.498296
 30
0.0
 10
18.160554
 20
131.936782
 30
0.0
 10
18.429756
 20
132.412185
 30
0.0
 10
18.639136
 20
132.924501
 30
0.0
 10
18.788695
 20
133.473728
 30
0.0
 10
18.878433
 20
134.059869
 30
0.0
 10
18.908351
 20
134.682920
 30
0.0
 10
18.886707
 20
135.227688
 30
0.0
 10
18.821788
 20
135.741908
 30
0.0
 10
18.713595
 20
136.225583
 30
0.0
 10
18.562128
 20
136.678708
 30
0.0
 10
18.367386
 20
137.101288
 30
0.0
 10
18.129370
 20
137.493320
 30
0.0
 10
17.848079
 20
137.854807
 30
0.0
 10
17.523514
 20
138.185746
 30
0.0
 10
17.154706
 20
138.491540
 30
0.0
 10
16.730532
 20
138.777606
 30
0.0
 10
16.250991
 20
139.043945
 30
0.0
 10
15.716084
 20
139.290553
 30
0.0
 10
15.125811
 20
139.517437
 30
0.0
 10
14.480171
 20
139.724591
 30
0.0
 10
13.779164
 20
139.912018
 30
0.0
 10
13.022791
 20
140.079717
 30
0.0
 10
12.709675
 20
140.140813
 30
0.0
 10
12.396559
 20
140.201908
 30
0.0
 10
12.083443
 20
140.263004
 30
0.0
 10
11.770327
 20
140.324099
 30
0.0
 10
11.457211
 20
140.385197
 30
0.0
 10
11.144095
 20
140.446293
 30
0.0
 10
10.830979
 20
140.507388
 30
0.0
 10
10.517863
 20
140.568484
 30
0.0
 10
9.406999
 20
140.813817
 30
0.0
 10
8.375688
 20
141.091608
 30
0.0
 10
7.423929
 20
141.401858
 30
0.0
 10
6.551722
 20
141.744566
 30
0.0
 10
5.759069
 20
142.119732
 30
0.0
 10
5.045967
 20
142.527357
 30
0.0
 10
4.412418
 20
142.967443
 30
0.0
 10
3.858422
 20
143.439985
 30
0.0
 10
3.376336
 20
143.952610
 30
0.0
 10
2.958530
 20
144.512968
 30
0.0
 10
2.605001
 20
145.121061
 30
0.0
 10
2.315751
 20
145.776884
 30
0.0
 10
2.090778
 20
146.480441
 30
0.0
 10
1.930084
 20
147.231731
 30
0.0
 10
1.833668
 20
148.030753
 30
0.0
 10
1.801530
 20
148.877510
 30
0.0
 10
1.845761
 20
149.858853
 30
0.0
 10
1.978454
 20
150.786740
 30
0.0
 10
2.199608
 20
151.661169
 30
0.0
 10
2.509223
 20
152.482142
 30
0.0
 10
2.907299
 20
153.249660
 30
0.0
 10
3.393838
 20
153.963721
 30
0.0
 10
3.968839
 20
154.624324
 30
0.0
 10
4.632302
 20
155.231472
 30
0.0
 10
5.378495
 20
155.775596
 30
0.0
 10
6.191512
 20
156.247173
 30
0.0
 10
7.071354
 20
156.646201
 30
0.0
 10
8.018020
 20
156.972681
 30
0.0
 10
9.031511
 20
157.226611
 30
0.0
 10
10.111825
 20
157.407995
 30
0.0
 10
11.258965
 20
157.516829
 30
0.0
 10
12.472929
 20
157.553114
 30
0.0
 10
13.008785
 20
157.547046
 30
0.0
 10
13.547188
 20
157.528899
 30
0.0
 10
14.088138
 20
157.498665
 30
0.0
 10
14.631635
 20
157.456340
 30
0.0
 10
15.177679
 20
157.401927
 30
0.0
 10
15.726271
 20
157.335427
 30
0.0
 10
16.277409
 20
157.256837
 30
0.0
 10
16.831095
 20
157.166159
 30
0.0
 10
17.387633
 20
157.063368
 30
0.0
 10
17.947355
 20
156.948489
 30
0.0
 10
18.510261
 20
156.821520
 30
0.0
 10
19.076351
 20
156.682461
 30
0.0
 10
19.645624
 20
156.531314
 30
0.0
 10
20.218082
 20
156.368080
 30
0.0
 10
20.793723
 20
156.192755
 30
0.0
 10
21.372549
 20
156.005339
 30
0.0
  0
LWPOLYLINE
  5
101
100
AcDbEntity
  8
Layer_1
 62
7
100
AcDbPolyline
 90
105
 70
0
 10
29.620481
 20
157.003218
 30
0.0
 10
30.386723
 20
157.003218
 30
0.0
 10
31.152967
 20
157.003218
 30
0.0
 10
31.919209
 20
157.003218
 30
0.0
 10
32.685451
 20
157.003218
 30
0.0
 10
33.451696
 20
157.003218
 30
0.0
 10
34.217937
 20
157.003218
 30
0.0
 10
34.984182
 20
157.003218
 30
0.0
 10
35.750424
 20
157.003218
 30
0.0
 10
36.720320
 20
154.416829
 30
0.0
 10
37.690216
 20
151.830440
 30
0.0
 10
38.660112
 20
149.244051
 30
0.0
 10
39.630009
 20
146.657662
 30
0.0
 10
40.599902
 20
144.071276
 30
0.0
 10
41.569798
 20
141.484888
 30
0.0
 10
42.539694
 20
138.898499
 30
0.0
 10
43.509590
 20
136.312110
 30
0.0
 10
44.484578
 20
138.898499
 30
0.0
 10
45.459565
 20
141.484888
 30
0.0
 10
46.434553
 20
144.071276
 30
0.0
 10
47.409540
 20
146.657662
 30
0.0
 10
48.384525
 20
149.244051
 30
0.0
 10
49.359512
 20
151.830440
 30
0.0
 10
50.334500
 20
154.416829
 30
0.0
 10
51.309487
 20
157.003218
 30
0.0
 10
52.075729
 20
157.003218
 30
0.0
 10
52.841974
 20
157.003218
 30
0.0
 10
53.608216
 20
157.003218
 30
0.0
 10
54.374460
 20
157.003218
 30
0.0
 10
55.140702
 20
157.003218
 30
0.0
 10
55.906944
 20
157.003218
 30
0.0
 10
56.673188
 20
157.003218
 30
0.0
 10
57.439430
 20
157.003218
 30
0.0
 10
57.439430
 20
153.202551
 30
0.0
 10
57.439430
 20
149.401881
 30
0.0
 10
57.439430
 20
145.601214
 30
0.0
 10
57.439430
 20
141.800547
 30
0.0
 10
57.439430
 20
137.999881
 30
0.0
 10
57.439430
 20
134.199211
 30
0.0
 10
57.439430
 20
130.398544
 30
0.0
 10
57.439430
 20
126.597877
 30
0.0
 10
56.937935
 20
126.597877
 30
0.0
 10
56.436441
 20
126.597877
 30
0.0
 10
55.934946
 20
126.597877
 30
0.0
 10
55.433454
 20
126.597877
 30
0.0
 10
54.931959
 20
126.597877
 30
0.0
 10
54.430464
 20
126.597877
 30
0.0
 10
53.928970
 20
126.597877
 30
0.0
 10
53.427475
 20
126.597877
 30
0.0
 10
53.427475
 20
129.935234
 30
0.0
 10
53.427475
 20
133.272593
 30
0.0
 10
53.427475
 20
136.609950
 30
0.0
 10
53.427475
 20
139.947310
 30
0.0
 10
53.427475
 20
143.284667
 30
0.0
 10
53.427475
 20
146.622023
 30
0.0
 10
53.427475
 20
149.959383
 30
0.0
 10
53.427475
 20
153.296740
 30
0.0
 10
52.447396
 20
150.689986
 30
0.0
 10
51.467317
 20
148.083232
 30
0.0
 10
50.487239
 20
145.476478
 30
0.0
 10
49.507163
 20
142.869724
 30
0.0
 10
48.527084
 20
140.262970
 30
0.0
 10
47.547005
 20
137.656216
 30
0.0
 10
46.566926
 20
135.049462
 30
0.0
 10
45.586848
 20
132.442708
 30
0.0
 10
45.070079
 20
132.442708
 30
0.0
 10
44.553310
 20
132.442708
 30
0.0
 10
44.036542
 20
132.442708
 30
0.0
 10
43.519773
 20
132.442708
 30
0.0
 10
43.003004
 20
132.442708
 30
0.0
 10
42.486236
 20
132.442708
 30
0.0
 10
41.969467
 20
132.442708
 30
0.0
 10
41.452698
 20
132.442708
 30
0.0
 10
40.472620
 20
135.049462
 30
0.0
 10
39.492541
 20
137.656216
 30
0.0
 10
38.512462
 20
140.262970
 30
0.0
 10
37.532386
 20
142.869724
 30
0.0
 10
36.552307
 20
145.476478
 30
0.0
 10
35.572229
 20
148.083232
 30
0.0
 10
34.592150
 20
150.689986
 30
0.0
 10
33.612071
 20
153.296740
 30
0.0
 10
33.612071
 20
149.959383
 30
0.0
 10
33.612071
 20
146.622023
 30
0.0
 10
33.612071
 20
143.284667
 30
0.0
 10
33.612071
 20
139.947310
 30
0.0
 10
33.612071
 20
136.609950
 30
0.0
 10
33.612071
 20
133.272593
 30
0.0
 10
33.612071
 20
129.935234
 30
0.0
 10
33.612071
 20
126.597877
 30
0.0
 10
33.113122
 20
126.597877
 30
0.0
 10
32.614173
 20
126.597877
 30
0.0
 10
32.115224
 20
126.597877
 30
0.0
 10
31.616277
 20
126.597877
 30
0.0
 10
31.117328
 20
126.597877
 30
0.0
 10
30.618379
 20
126.597877
 30
0.0
 10
30.119430
 20
126.597877
 30
0.0
 10
29.620481
 20
126.597877
 30
0.0
 10
29.620481
 20
130.398544
 30
0.0
 10
29.620481
 20
134.199211
 30
0.0
 10
29.620481
 20
137.999881
 30
0.0
 10
29.620481
 20
141.800547
 30
0.0
 10
29.620481
 20
145.601214
 30
0.0
 10
29.620481
 20
149.401881
 30
0.0
 10
29.620481
 20
153.202551
 30
0.0
 10
29.620481
 20
157.003218
 30
0.0
  0
LWPOLYLINE
  5
102
100
AcDbEntity
  8
Layer_1
 62
7
100
AcDbPolyline
 90
25
 70
0
 10
75.788534
 20
152.950529
 30
0.0
 10
75.091025
 20
151.059104
 30
0.0
 10
74.393512
 20
149.167682
 30
0.0
 10
73.696003
 20
147.276257
 30
0.0
 10
72.998491
 20
145.384832
 30
0.0
 10
72.300981
 20
143.493409
 30
0.0
 10
71.603472
 20
141.601984
 30
0.0
 10
70.905960
 20
139.710562
 30
0.0
 10
70.208450
 20
137.819137
 30
0.0
 10
71.606018
 20
137.819137
 30
0.0
 10
73.003582
 20
137.819137
 30
0.0
 10
74.401149
 20
137.819137
 30
0.0
 10
75.798717
 20
137.819137
 30
0.0
 10
77.196281
 20
137.819137
 30
0.0
 10
78.593848
 20
137.819137
 30
0.0
 10
79.991413
 20
137.819137
 30
0.0
 10
81.388980
 20
137.819137
 30
0.0
 10
80.688925
 20
139.710562
 30
0.0
 10
79.988870
 20
141.601984
 30
0.0
 10
79.288812
 20
143.493409
 30
0.0
 10
78.588757
 20
145.384832
 30
0.0
 10
77.888702
 20
147.276257
 30
0.0
 10
77.188647
 20
149.167682
 30
0.0
 10
76.488589
 20
151.059104
 30
0.0
 10
75.788534
 20
152.950529
 30
0.0
  0
LWPOLYLINE
  5
103
100
AcDbEntity
  8
Layer_1
 62
7
100
AcDbPolyline
 90
65
 70
0
 10
73.466892
 20
157.003218
 30
0.0
 10
74.049848
 20
157.003218
 30
0.0
 10
74.632803
 20
157.003218
 30
0.0
 10
75.215758
 20
157.003218
 30
0.0
 10
75.798717
 20
157.003218
 30
0.0
 10
76.381672
 20
157.003218
 30
0.0
 10
76.964627
 20
157.003218
 30
0.0
 10
77.547583
 20
157.003218
 30
0.0
 10
78.130538
 20
157.003218
 30
0.0
 10
79.579018
 20
153.202551
 30
0.0
 10
81.027496
 20
149.401881
 30
0.0
 10
82.475976
 20
145.601214
 30
0.0
 10
83.924456
 20
141.800547
 30
0.0
 10
85.372936
 20
137.999881
 30
0.0
 10
86.821414
 20
134.199211
 30
0.0
 10
88.269894
 20
130.398544
 30
0.0
 10
89.718374
 20
126.597877
 30
0.0
 10
89.183786
 20
126.597877
 30
0.0
 10
88.649198
 20
126.597877
 30
0.0
 10
88.114609
 20
126.597877
 30
0.0
 10
87.580021
 20
126.597877
 30
0.0
 10
87.045433
 20
126.597877
 30
0.0
 10
86.510845
 20
126.597877
 30
0.0
 10
85.976257
 20
126.597877
 30
0.0
 10
85.441669
 20
126.597877
 30
0.0
 10
85.095458
 20
127.572864
 30
0.0
 10
84.749251
 20
128.547852
 30
0.0
 10
84.403040
 20
129.522839
 30
0.0
 10
84.056830
 20
130.497824
 30
0.0
 10
83.710622
 20
131.472812
 30
0.0
 10
83.364411
 20
132.447799
 30
0.0
 10
83.018204
 20
133.422786
 30
0.0
 10
82.671993
 20
134.397774
 30
0.0
 10
80.958766
 20
134.397774
 30
0.0
 10
79.245536
 20
134.397774
 30
0.0
 10
77.532309
 20
134.397774
 30
0.0
 10
75.819082
 20
134.397774
 30
0.0
 10
74.105855
 20
134.397774
 30
0.0
 10
72.392625
 20
134.397774
 30
0.0
 10
70.679397
 20
134.397774
 30
0.0
 10
68.966170
 20
134.397774
 30
0.0
 10
68.619960
 20
133.422786
 30
0.0
 10
68.273752
 20
132.447799
 30
0.0
 10
67.927542
 20
131.472812
 30
0.0
 10
67.581331
 20
130.497824
 30
0.0
 10
67.235124
 20
129.522839
 30
0.0
 10
66.888913
 20
128.547852
 30
0.0
 10
66.542706
 20
127.572864
 30
0.0
 10
66.196495
 20
126.597877
 30
0.0
 10
65.654270
 20
126.597877
 30
0.0
 10
65.112045
 20
126.597877
 30
0.0
 10
64.569820
 20
126.597877
 30
0.0
 10
64.027592
 20
126.597877
 30
0.0
 10
63.485367
 20
126.597877
 30
0.0
 10
62.943142
 20
126.597877
 30
0.0
 10
62.400917
 20
126.597877
 30
0.0
 10
61.858692
 20
126.597877
 30
0.0
 10
63.309717
 20
130.398544
 30
0.0
 10
64.760743
 20
134.199211
 30
0.0
 10
66.211766
 20
137.999881
 30
0.0
 10
67.662792
 20
141.800547
 30
0.0
 10
69.113818
 20
145.601214
 30
0.0
 10
70.564841
 20
149.401881
 30
0.0
 10
72.015866
 20
153.202551
 30
0.0
 10
73.466892
 20
157.003218
 30
0.0
  0
LWPOLYLINE
  5
104
100
AcDbEntity
  8
Layer_1
 62
7
100
AcDbPolyline
 90
225
 70
0
 10
112.364548
 20
156.005320
 30
0.0
 10
112.364548
 20
155.503825
 30
0.0
 10
112.364548
 20
155.002330
 30
0.0
 10
112.364548
 20
154.500835
 30
0.0
 10
112.364548
 20
153.999341
 30
0.0
 10
112.364548
 20
153.497846
 30
0.0
 10
112.364548
 20
152.996351
 30
0.0
 10
112.364548
 20
152.494856
 30
0.0
 10
112.364548
 20
151.993361
 30
0.0
 10
111.783176
 20
152.264467
 30
0.0
 10
111.210082
 20
152.517753
 30
0.0
 10
110.645259
 20
152.753222
 30
0.0
 10
110.088714
 20
152.970875
 30
0.0
 10
109.540444
 20
153.170711
 30
0.0
 10
109.000448
 20
153.352727
 30
0.0
 10
108.468730
 20
153.516930
 30
0.0
 10
107.945284
 20
153.663313
 30
0.0
 10
107.428194
 20
153.792178
 30
0.0
 10
106.915557
 20
153.903862
 30
0.0
 10
106.407379
 20
153.998367
 30
0.0
 10
105.903655
 20
154.075690
 30
0.0
 10
105.404389
 20
154.135832
 30
0.0
 10
104.909580
 20
154.178794
 30
0.0
 10
104.419225
 20
154.204589
 30
0.0
 10
103.933329
 20
154.213197
 30
0.0
 10
103.117122
 20
154.192821
 30
0.0
 10
102.348648
 20
154.131720
 30
0.0
 10
101.627909
 20
154.029888
 30
0.0
 10
100.954899
 20
153.887332
 30
0.0
 10
100.329625
 20
153.704046
 30
0.0
 10
99.752079
 20
153.480032
 30
0.0
 10
99.222266
 20
153.215291
 30
0.0
 10
98.740186
 20
152.909819
 30
0.0
 10
98.315376
 20
152.566783
 30
0.0
 10
97.947209
 20
152.189385
 30
0.0
 10
97.635684
 20
151.777619
 30
0.0
 10
97.380798
 20
151.331494
 30
0.0
 10
97.182556
 20
150.850999
 30
0.0
 10
97.040954
 20
150.336144
 30
0.0
 10
96.955994
 20
149.786926
 30
0.0
 10
96.927676
 20
149.203341
 30
0.0
 10
96.946443
 20
148.714569
 30
0.0
 10
97.002767
 20
148.256344
 30
0.0
 10
97.096636
 20
147.828670
 30
0.0
 10
97.228053
 20
147.431547
 30
0.0
 10
97.397022
 20
147.064974
 30
0.0
 10
97.603539
 20
146.728949
 30
0.0
 10
97.847604
 20
146.423474
 30
0.0
 10
98.129220
 20
146.148551
 30
0.0
 10
98.468426
 20
145.900026
 30
0.0
 10
98.875091
 20
145.663591
 30
0.0
 10
99.349219
 20
145.439253
 30
0.0
 10
99.890809
 20
145.227007
 30
0.0
 10
100.499855
 20
145.026858
 30
0.0
 10
101.176365
 20
144.838800
 30
0.0
 10
101.920336
 20
144.662834
 30
0.0
 10
102.731768
 20
144.498964
 30
0.0
 10
103.042339
 20
144.435323
 30
0.0
 10
103.352908
 20
144.371682
 30
0.0
 10
103.663479
 20
144.308041
 30
0.0
 10
103.974048
 20
144.244397
 30
0.0
 10
104.284619
 20
144.180756
 30
0.0
 10
104.595191
 20
144.117115
 30
0.0
 10
104.905759
 20
144.053474
 30
0.0
 10
105.216331
 20
143.989833
 30
0.0
 10
106.329096
 20
143.749899
 30
0.0
 10
107.366127
 20
143.467964
 30
0.0
 10
108.327430
 20
143.144027
 30
0.0
 10
109.213001
 20
142.778086
 30
0.0
 10
110.022838
 20
142.370145
 30
0.0
 10
110.756946
 20
141.920204
 30
0.0
 10
111.415319
 20
141.428260
 30
0.0
 10
111.997964
 20
140.894312
 30
0.0
 10
112.513451
 20
140.320899
 30
0.0
 10
112.960209
 20
139.700391
 30
0.0
 10
113.338237
 20
139.032791
 30
0.0
 10
113.647533
 20
138.318097
 30
0.0
 10
113.888099
 20
137.556309
 30
0.0
 10
114.059933
 20
136.747429
 30
0.0
 10
114.163038
 20
135.891455
 30
0.0
 10
114.197412
 20
134.988386
 30
0.0
 10
114.150947
 20
133.916980
 30
0.0
 10
114.011566
 20
132.912399
 30
0.0
 10
113.779272
 20
131.974642
 30
0.0
 10
113.454061
 20
131.103710
 30
0.0
 10
113.035941
 20
130.299600
 30
0.0
 10
112.524901
 20
129.562314
 30
0.0
 10
111.920951
 20
128.891853
 30
0.0
 10
111.224085
 20
128.288213
 30
0.0
 10
110.442561
 20
127.753625
 30
0.0
 10
109.574488
 20
127.290315
 30
0.0
 10
108.619863
 20
126.898286
 30
0.0
 10
107.578689
 20
126.577532
 30
0.0
 10
106.450963
 20
126.328058
 30
0.0
 10
105.236687
 20
126.149861
 30
0.0
 10
103.935860
 20
126.042943
 30
0.0
 10
102.548481
 20
126.007304
 30
0.0
 10
102.004343
 20
126.014953
 30
0.0
 10
101.451297
 20
126.037869
 30
0.0
 10
100.889342
 20
126.076054
 30
0.0
 10
100.318477
 20
126.129512
 30
0.0
 10
99.738705
 20
126.198248
 30
0.0
 10
99.150023
 20
126.282254
 30
0.0
 10
98.552432
 20
126.381534
 30
0.0
 10
97.945931
 20
126.496088
 30
0.0
 10
97.337200
 20
126.625600
 30
0.0
 10
96.722740
 20
126.769748
 30
0.0
 10
96.102554
 20
126.928531
 30
0.0
 10
95.476639
 20
127.101954
 30
0.0
 10
94.845000
 20
127.290016
 30
0.0
 10
94.207629
 20
127.492713
 30
0.0
 10
93.564535
 20
127.710050
 30
0.0
 10
92.915712
 20
127.942022
 30
0.0
 10
92.915712
 20
128.471519
 30
0.0
 10
92.915712
 20
129.001016
 30
0.0
 10
92.915712
 20
129.530513
 30
0.0
 10
92.915712
 20
130.060010
 30
0.0
 10
92.915712
 20
130.589507
 30
0.0
 10
92.915712
 20
131.119004
 30
0.0
 10
92.915712
 20
131.648500
 30
0.0
 10
92.915712
 20
132.177997
 30
0.0
 10
93.540351
 20
131.837513
 30
0.0
 10
94.161808
 20
131.518670
 30
0.0
 10
94.780083
 20
131.221462
 30
0.0
 10
95.395178
 20
130.945894
 30
0.0
 10
96.007089
 20
130.691968
 30
0.0
 10
96.615820
 20
130.459676
 30
0.0
 10
97.221370
 20
130.249023
 30
0.0
 10
97.823740
 20
130.060010
 30
0.0
 10
98.423242
 20
129.892954
 30
0.0
 10
99.020195
 20
129.748168
 30
0.0
 10
99.614606
 20
129.625659
 30
0.0
 10
100.206469
 20
129.525422
 30
0.0
 10
100.795788
 20
129.447461
 30
0.0
 10
101.382565
 20
129.391773
 30
0.0
 10
101.966796
 20
129.358360
 30
0.0
 10
102.548481
 20
129.347213
 30
0.0
 10
103.404137
 20
129.368859
 30
0.0
 10
104.209514
 20
129.433776
 30
0.0
 10
104.964619
 20
129.541966
 30
0.0
 10
105.669447
 20
129.693431
 30
0.0
 10
106.323999
 20
129.888173
 30
0.0
 10
106.928277
 20
130.126194
 30
0.0
 10
107.482279
 20
130.407488
 30
0.0
 10
107.986006
 20
130.732060
 30
0.0
 10
108.434674
 20
131.096719
 30
0.0
 10
108.823520
 20
131.498296
 30
0.0
 10
109.152543
 20
131.936785
 30
0.0
 10
109.421747
 20
132.412185
 30
0.0
 10
109.631127
 20
132.924501
 30
0.0
 10
109.780685
 20
133.473728
 30
0.0
 10
109.870423
 20
134.059869
 30
0.0
 10
109.900342
 20
134.682920
 30
0.0
 10
109.878695
 20
135.227688
 30
0.0
 10
109.813776
 20
135.741908
 30
0.0
 10
109.705583
 20
136.225583
 30
0.0
 10
109.554114
 20
136.678708
 30
0.0
 10
109.359373
 20
137.101288
 30
0.0
 10
109.121358
 20
137.493320
 30
0.0
 10
108.840067
 20
137.854807
 30
0.0
 10
108.515500
 20
138.185746
 30
0.0
 10
108.146692
 20
138.491540
 30
0.0
 10
107.722518
 20
138.777606
 30
0.0
 10
107.242980
 20
139.043945
 30
0.0
 10
106.708073
 20
139.290553
 30
0.0
 10
106.117799
 20
139.517437
 30
0.0
 10
105.472159
 20
139.724591
 30
0.0
 10
104.771150
 20
139.912018
 30
0.0
 10
104.014778
 20
140.079717
 30
0.0
 10
103.701661
 20
140.140813
 30
0.0
 10
103.388547
 20
140.201908
 30
0.0
 10
103.075430
 20
140.263004
 30
0.0
 10
102.762312
 20
140.324099
 30
0.0
 10
102.449198
 20
140.385197
 30
0.0
 10
102.136081
 20
140.446293
 30
0.0
 10
101.822967
 20
140.507388
 30
0.0
 10
101.509850
 20
140.568484
 30
0.0
 10
100.398986
 20
140.813817
 30
0.0
 10
99.367676
 20
141.091608
 30
0.0
 10
98.415915
 20
141.401858
 30
0.0
 10
97.543710
 20
141.744566
 30
0.0
 10
96.751055
 20
142.119732
 30
0.0
 10
96.037956
 20
142.527357
 30
0.0
 10
95.404407
 20
142.967443
 30
0.0
 10
94.850410
 20
143.439985
 30
0.0
 10
94.368324
 20
143.952610
 30
0.0
 10
93.950516
 20
144.512968
 30
0.0
 10
93.596988
 20
145.121061
 30
0.0
 10
93.307738
 20
145.776884
 30
0.0
 10
93.082765
 20
146.480441
 30
0.0
 10
92.922073
 20
147.231731
 30
0.0
 10
92.825655
 20
148.030753
 30
0.0
 10
92.793518
 20
148.877510
 30
0.0
 10
92.837751
 20
149.858853
 30
0.0
 10
92.970443
 20
150.786740
 30
0.0
 10
93.191595
 20
151.661169
 30
0.0
 10
93.501210
 20
152.482142
 30
0.0
 10
93.899287
 20
153.249660
 30
0.0
 10
94.385824
 20
153.963721
 30
0.0
 10
94.960827
 20
154.624324
 30
0.0
 10
95.624289
 20
155.231472
 30
0.0
 10
96.370481
 20
155.775596
 30
0.0
 10
97.183499
 20
156.247173
 30
0.0
 10
98.063341
 20
156.646201
 30
0.0
 10
99.010007
 20
156.972681
 30
0.0
 10
100.023498
 20
157.226611
 30
0.0
 10
101.103814
 20
157.407995
 30
0.0
 10
102.250951
 20
157.516829
 30
0.0
 10
103.464916
 20
157.553114
 30
0.0
 10
104.000771
 20
157.547046
 30
0.0
 10
104.539175
 20
157.528899
 30
0.0
 10
105.080125
 20
157.498665
 30
0.0
 10
105.623622
 20
157.456340
 30
0.0
 10
106.169666
 20
157.401927
 30
0.0
 10
106.718258
 20
157.335427
 30
0.0
 10
107.269396
 20
157.256837
 30
0.0
 10
107.823082
 20
157.166159
 30
0.0
 10
108.379621
 20
157.063368
 30
0.0
 10
108.939341
 20
156.948489
 30
0.0
 10
109.502248
 20
156.821520
 30
0.0
 10
110.068337
 20
156.682461
 30
0.0
 10
110.637611
 20
156.531314
 30
0.0
 10
111.210067
 20
156.368080
 30
0.0
 10
111.785710
 20
156.192755
 30
0.0
 10
112.364537
 20
156.005339
 30
0.0
  0
LWPOLYLINE
  5
105
100
AcDbEntity
  8
Layer_1
 62
7
100
AcDbPolyline
 90
97
 70
0
 10
120.612479
 20
157.003218
 30
0.0
 10
121.126702
 20
157.003218
 30
0.0
 10
121.640925
 20
157.003218
 30
0.0
 10
122.155148
 20
157.003218
 30
0.0
 10
122.669371
 20
157.003218
 30
0.0
 10
123.183594
 20
157.003218
 30
0.0
 10
123.697817
 20
157.003218
 30
0.0
 10
124.212040
 20
157.003218
 30
0.0
 10
124.726263
 20
157.003218
 30
0.0
 10
124.726263
 20
155.445275
 30
0.0
 10
124.726263
 20
153.887332
 30
0.0
 10
124.726263
 20
152.329389
 30
0.0
 10
124.726263
 20
150.771446
 30
0.0
 10
124.726263
 20
149.213504
 30
0.0
 10
124.726263
 20
147.655561
 30
0.0
 10
124.726263
 20
146.097618
 30
0.0
 10
124.726263
 20
144.539675
 30
0.0
 10
126.594777
 20
144.539675
 30
0.0
 10
128.463288
 20
144.539675
 30
0.0
 10
130.331800
 20
144.539675
 30
0.0
 10
132.200314
 20
144.539675
 30
0.0
 10
134.068826
 20
144.539675
 30
0.0
 10
135.937340
 20
144.539675
 30
0.0
 10
137.805851
 20
144.539675
 30
0.0
 10
139.674366
 20
144.539675
 30
0.0
 10
139.674366
 20
146.097618
 30
0.0
 10
139.674366
 20
147.655561
 30
0.0
 10
139.674366
 20
149.213504
 30
0.0
 10
139.674366
 20
150.771446
 30
0.0
 10
139.674366
 20
152.329389
 30
0.0
 10
139.674366
 20
153.887332
 30
0.0
 10
139.674366
 20
155.445275
 30
0.0
 10
139.674366
 20
157.003218
 30
0.0
 10
140.188589
 20
157.003218
 30
0.0
 10
140.702812
 20
157.003218
 30
0.0
 10
141.217035
 20
157.003218
 30
0.0
 10
141.731258
 20
157.003218
 30
0.0
 10
142.245481
 20
157.003218
 30
0.0
 10
142.759704
 20
157.003218
 30
0.0
 10
143.273927
 20
157.003218
 30
0.0
 10
143.788150
 20
157.003218
 30
0.0
 10
143.788150
 20
153.202551
 30
0.0
 10
143.788150
 20
149.401881
 30
0.0
 10
143.788150
 20
145.601214
 30
0.0
 10
143.788150
 20
141.800547
 30
0.0
 10
143.788150
 20
137.999881
 30
0.0
 10
143.788150
 20
134.199211
 30
0.0
 10
143.788150
 20
130.398544
 30
0.0
 10
143.788150
 20
126.597877
 30
0.0
 10
143.273927
 20
126.597877
 30
0.0
 10
142.759704
 20
126.597877
 30
0.0
 10
142.245481
 20
126.597877
 30
0.0
 10
141.731258
 20
126.597877
 30
0.0
 10
141.217035
 20
126.597877
 30
0.0
 10
140.702812
 20
126.597877
 30
0.0
 10
140.188589
 20
126.597877
 30
0.0
 10
139.674366
 20
126.597877
 30
0.0
 10
139.674366
 20
128.407841
 30
0.0
 10
139.674366
 20
130.217803
 30
0.0
 10
139.674366
 20
132.027768
 30
0.0
 10
139.674366
 20
133.837729
 30
0.0
 10
139.674366
 20
135.647691
 30
0.0
 10
139.674366
 20
137.457655
 30
0.0
 10
139.674366
 20
139.267620
 30
0.0
 10
139.674366
 20
141.077582
 30
0.0
 10
137.805851
 20
141.077582
 30
0.0
 10
135.937340
 20
141.077582
 30
0.0
 10
134.068826
 20
141.077582
 30
0.0
 10
132.200314
 20
141.077582
 30
0.0
 10
130.331800
 20
141.077582
 30
0.0
 10
128.463288
 20
141.077582
 30
0.0
 10
126.594777
 20
141.077582
 30
0.0
 10
124.726263
 20
141.077582
 30
0.0
 10
124.726263
 20
139.267620
 30
0.0
 10
124.726263
 20
137.457655
 30
0.0
 10
124.726263
 20
135.647691
 30
0.0
 10
124.726263
 20
133.837729
 30
0.0
 10
124.726263
 20
132.027768
 30
0.0
 10
124.726263
 20
130.217803
 30
0.0
 10
124.726263
 20
128.407841
 30
0.0
 10
124.726263
 20
126.597877
 30
0.0
 10
124.212040
 20
126.597877
 30
0.0
 10
123.697817
 20
126.597877
 30
0.0
 10
123.183594
 20
126.597877
 30
0.0
 10
122.669371
 20
126.597877
 30
0.0
 10
122.155148
 20
126.597877
 30
0.0
 10
121.640925
 20
126.597877
 30
0.0
 10
121.126702
 20
126.597877
 30
0.0
 10
120.612479
 20
126.597877
 30
0.0
 10
120.612479
 20
130.398544
 30
0.0
 10
120.612479
 20
134.199211
 30
0.0
 10
120.612479
 20
137.999881
 30
0.0
 10
120.612479
 20
141.800547
 30
0.0
 10
120.612479
 20
145.601214
 30
0.0
 10
120.612479
 20
149.401881
 30
0.0
 10
120.612479
 20
153.202551
 30
0.0
 10
120.612479
 20
157.003218
 30
0.0
  0
LWPOLYLINE
  5
106
100
AcDbEntity
  8
Layer_1
 62
7
100
AcDbPolyline
 90
65
 70
0
 10
31.718103
 20
115.295156
 30
0.0
 10
34.933269
 20
115.295156
 30
0.0
 10
38.148435
 20
115.295156
 30
0.0
 10
41.363601
 20
115.295156
 30
0.0
 10
44.578767
 20
115.295156
 30
0.0
 10
47.793933
 20
115.295156
 30
0.0
 10
51.009098
 20
115.295156
 30
0.0
 10
54.224264
 20
115.295156
 30
0.0
 10
57.439430
 20
115.295156
 30
0.0
 10
57.439430
 20
114.862394
 30
0.0
 10
57.439430
 20
114.429632
 30
0.0
 10
57.439430
 20
113.996869
 30
0.0
 10
57.439430
 20
113.564107
 30
0.0
 10
57.439430
 20
113.131347
 30
0.0
 10
57.439430
 20
112.698585
 30
0.0
 10
57.439430
 20
112.265823
 30
0.0
 10
57.439430
 20
111.833060
 30
0.0
 10
56.090230
 20
111.833060
 30
0.0
 10
54.741033
 20
111.833060
 30
0.0
 10
53.391833
 20
111.833060
 30
0.0
 10
52.042636
 20
111.833060
 30
0.0
 10
50.693436
 20
111.833060
 30
0.0
 10
49.344239
 20
111.833060
 30
0.0
 10
47.995038
 20
111.833060
 30
0.0
 10
46.645841
 20
111.833060
 30
0.0
 10
46.645841
 20
108.465156
 30
0.0
 10
46.645841
 20
105.097248
 30
0.0
 10
46.645841
 20
101.729344
 30
0.0
 10
46.645841
 20
98.361436
 30
0.0
 10
46.645841
 20
94.993532
 30
0.0
 10
46.645841
 20
91.625627
 30
0.0
 10
46.645841
 20
88.257720
 30
0.0
 10
46.645841
 20
84.889815
 30
0.0
 10
46.129073
 20
84.889815
 30
0.0
 10
45.612304
 20
84.889815
 30
0.0
 10
45.095535
 20
84.889815
 30
0.0
 10
44.578767
 20
84.889815
 30
0.0
 10
44.061998
 20
84.889815
 30
0.0
 10
43.545229
 20
84.889815
 30
0.0
 10
43.028461
 20
84.889815
 30
0.0
 10
42.511692
 20
84.889815
 30
0.0
 10
42.511692
 20
88.257720
 30
0.0
 10
42.511692
 20
91.625627
 30
0.0
 10
42.511692
 20
94.993532
 30
0.0
 10
42.511692
 20
98.361436
 30
0.0
 10
42.511692
 20
101.729344
 30
0.0
 10
42.511692
 20
105.097248
 30
0.0
 10
42.511692
 20
108.465156
 30
0.0
 10
42.511692
 20
111.833060
 30
0.0
 10
41.162492
 20
111.833060
 30
0.0
 10
39.813295
 20
111.833060
 30
0.0
 10
38.464095
 20
111.833060
 30
0.0
 10
37.114898
 20
111.833060
 30
0.0
 10
35.765698
 20
111.833060
 30
0.0
 10
34.416500
 20
111.833060
 30
0.0
 10
33.067300
 20
111.833060
 30
0.0
 10
31.718103
 20
111.833060
 30
0.0
 10
31.718103
 20
112.265823
 30
0.0
 10
31.718103
 20
112.698585
 30
0.0
 10
31.718103
 20
113.131347
 30
0.0
 10
31.718103
 20
113.564107
 30
0.0
 10
31.718103
 20
113.996869
 30
0.0
 10
31.718103
 20
114.429632
 30
0.0
 10
31.718103
 20
114.862394
 30
0.0
 10
31.718103
 20
115.295156
 30
0.0
  0
LWPOLYLINE
  5
107
100
AcDbEntity
  8
Layer_1
 62
7
100
AcDbPolyline
 90
97
 70
0
 10
61.431023
 20
115.295156
 30
0.0
 10
61.945246
 20
115.295156
 30
0.0
 10
62.459469
 20
115.295156
 30
0.0
 10
62.973692
 20
115.295156
 30
0.0
 10
63.487915
 20
115.295156
 30
0.0
 10
64.002138
 20
115.295156
 30
0.0
 10
64.516361
 20
115.295156
 30
0.0
 10
65.030584
 20
115.295156
 30
0.0
 10
65.544807
 20
115.295156
 30
0.0
 10
65.544807
 20
113.737214
 30
0.0
 10
65.544807
 20
112.179271
 30
0.0
 10
65.544807
 20
110.621328
 30
0.0
 10
65.544807
 20
109.063385
 30
0.0
 10
65.544807
 20
107.505442
 30
0.0
 10
65.544807
 20
105.947499
 30
0.0
 10
65.544807
 20
104.389556
 30
0.0
 10
65.544807
 20
102.831613
 30
0.0
 10
67.413322
 20
102.831613
 30
0.0
 10
69.281833
 20
102.831613
 30
0.0
 10
71.150347
 20
102.831613
 30
0.0
 10
73.018859
 20
102.831613
 30
0.0
 10
74.887373
 20
102.831613
 30
0.0
 10
76.755885
 20
102.831613
 30
0.0
 10
78.624396
 20
102.831613
 30
0.0
 10
80.492910
 20
102.831613
 30
0.0
 10
80.492910
 20
104.389556
 30
0.0
 10
80.492910
 20
105.947499
 30
0.0
 10
80.492910
 20
107.505442
 30
0.0
 10
80.492910
 20
109.063385
 30
0.0
 10
80.492910
 20
110.621328
 30
0.0
 10
80.492910
 20
112.179271
 30
0.0
 10
80.492910
 20
113.737214
 30
0.0
 10
80.492910
 20
115.295156
 30
0.0
 10
81.007133
 20
115.295156
 30
0.0
 10
81.521356
 20
115.295156
 30
0.0
 10
82.035579
 20
115.295156
 30
0.0
 10
82.549802
 20
115.295156
 30
0.0
 10
83.064025
 20
115.295156
 30
0.0
 10
83.578248
 20
115.295156
 30
0.0
 10
84.092471
 20
115.295156
 30
0.0
 10
84.606694
 20
115.295156
 30
0.0
 10
84.606694
 20
111.494489
 30
0.0
 10
84.606694
 20
107.693823
 30
0.0
 10
84.606694
 20
103.893153
 30
0.0
 10
84.606694
 20
100.092486
 30
0.0
 10
84.606694
 20
96.291819
 30
0.0
 10
84.606694
 20
92.491152
 30
0.0
 10
84.606694
 20
88.690482
 30
0.0
 10
84.606694
 20
84.889815
 30
0.0
 10
84.092471
 20
84.889815
 30
0.0
 10
83.578248
 20
84.889815
 30
0.0
 10
83.064025
 20
84.889815
 30
0.0
 10
82.549802
 20
84.889815
 30
0.0
 10
82.035579
 20
84.889815
 30
0.0
 10
81.521356
 20
84.889815
 30
0.0
 10
81.007133
 20
84.889815
 30
0.0
 10
80.492910
 20
84.889815
 30
0.0
 10
80.492910
 20
86.699777
 30
0.0
 10
80.492910
 20
88.509742
 30
0.0
 10
80.492910
 20
90.319706
 30
0.0
 10
80.492910
 20
92.129668
 30
0.0
 10
80.492910
 20
93.939632
 30
0.0
 10
80.492910
 20
95.749594
 30
0.0
 10
80.492910
 20
97.559558
 30
0.0
 10
80.492910
 20
99.369520
 30
0.0
 10
78.624396
 20
99.369520
 30
0.0
 10
76.755885
 20
99.369520
 30
0.0
 10
74.887370
 20
99.369520
 30
0.0
 10
73.018859
 20
99.369520
 30
0.0
 10
71.150345
 20
99.369520
 30
0.0
 10
69.281833
 20
99.369520
 30
0.0
 10
67.413319
 20
99.369520
 30
0.0
 10
65.544807
 20
99.369520
 30
0.0
 10
65.544807
 20
97.559558
 30
0.0
 10
65.544807
 20
95.749594
 30
0.0
 10
65.544807
 20
93.939632
 30
0.0
 10
65.544807
 20
92.129668
 30
0.0
 10
65.544807
 20
90.319706
 30
0.0
 10
65.544807
 20
88.509742
 30
0.0
 10
65.544807
 20
86.699777
 30
0.0
 10
65.544807
 20
84.889815
 30
0.0
 10
65.030584
 20
84.889815
 30
0.0
 10
64.516361
 20
84.889815
 30
0.0
 10
64.002138
 20
84.889815
 30
0.0
 10
63.487915
 20
84.889815
 30
0.0
 10
62.973692
 20
84.889815
 30
0.0
 10
62.459469
 20
84.889815
 30
0.0
 10
61.945246
 20
84.889815
 30
0.0
 10
61.431023
 20
84.889815
 30
0.0
 10
61.431023
 20
88.690482
 30
0.0
 10
61.431023
 20
92.491152
 30
0.0
 10
61.431023
 20
96.291819
 30
0.0
 10
61.431023
 20
100.092486
 30
0.0
 10
61.431023
 20
103.893153
 30
0.0
 10
61.431023
 20
107.693823
 30
0.0
 10
61.431023
 20
111.494489
 30
0.0
 10
61.431023
 20
115.295156
 30
0.0
  0
LWPOLYLINE
  5
108
100
AcDbEntity
  8
Layer_1
 62
7
100
AcDbPolyline
 90
97
 70
0
 10
92.793532
 20
115.295156
 30
0.0
 10
95.196632
 20
115.295156
 30
0.0
 10
97.599734
 20
115.295156
 30
0.0
 10
100.002837
 20
115.295156
 30
0.0
 10
102.405936
 20
115.295156
 30
0.0
 10
104.809039
 20
115.295156
 30
0.0
 10
107.212138
 20
115.295156
 30
0.0
 10
109.615238
 20
115.295156
 30
0.0
 10
112.018341
 20
115.295156
 30
0.0
 10
112.018341
 20
114.862394
 30
0.0
 10
112.018341
 20
114.429632
 30
0.0
 10
112.018341
 20
113.996869
 30
0.0
 10
112.018341
 20
113.564107
 30
0.0
 10
112.018341
 20
113.131347
 30
0.0
 10
112.018341
 20
112.698585
 30
0.0
 10
112.018341
 20
112.265823
 30
0.0
 10
112.018341
 20
111.833060
 30
0.0
 10
110.129461
 20
111.833060
 30
0.0
 10
108.240584
 20
111.833060
 30
0.0
 10
106.351705
 20
111.833060
 30
0.0
 10
104.462826
 20
111.833060
 30
0.0
 10
102.573949
 20
111.833060
 30
0.0
 10
100.685069
 20
111.833060
 30
0.0
 10
98.796193
 20
111.833060
 30
0.0
 10
96.907313
 20
111.833060
 30
0.0
 10
96.907313
 20
110.707880
 30
0.0
 10
96.907313
 20
109.582699
 30
0.0
 10
96.907313
 20
108.457519
 30
0.0
 10
96.907313
 20
107.332335
 30
0.0
 10
96.907313
 20
106.207155
 30
0.0
 10
96.907313
 20
105.081974
 30
0.0
 10
96.907313
 20
103.956794
 30
0.0
 10
96.907313
 20
102.831613
 30
0.0
 10
98.717275
 20
102.831613
 30
0.0
 10
100.527239
 20
102.831613
 30
0.0
 10
102.337204
 20
102.831613
 30
0.0
 10
104.147166
 20
102.831613
 30
0.0
 10
105.957130
 20
102.831613
 30
0.0
 10
107.767092
 20
102.831613
 30
0.0
 10
109.577053
 20
102.831613
 30
0.0
 10
111.387018
 20
102.831613
 30
0.0
 10
111.387018
 20
102.398851
 30
0.0
 10
111.387018
 20
101.966089
 30
0.0
 10
111.387018
 20
101.533329
 30
0.0
 10
111.387018
 20
101.100567
 30
0.0
 10
111.387018
 20
100.667804
 30
0.0
 10
111.387018
 20
100.235042
 30
0.0
 10
111.387018
 20
99.802282
 30
0.0
 10
111.387018
 20
99.369520
 30
0.0
 10
109.577053
 20
99.369520
 30
0.0
 10
107.767092
 20
99.369520
 30
0.0
 10
105.957130
 20
99.369520
 30
0.0
 10
104.147166
 20
99.369520
 30
0.0
 10
102.337204
 20
99.369520
 30
0.0
 10
100.527239
 20
99.369520
 30
0.0
 10
98.717275
 20
99.369520
 30
0.0
 10
96.907313
 20
99.369520
 30
0.0
 10
96.907313
 20
97.992318
 30
0.0
 10
96.907313
 20
96.615119
 30
0.0
 10
96.907313
 20
95.237917
 30
0.0
 10
96.907313
 20
93.860714
 30
0.0
 10
96.907313
 20
92.483515
 30
0.0
 10
96.907313
 20
91.106313
 30
0.0
 10
96.907313
 20
89.729114
 30
0.0
 10
96.907313
 20
88.351912
 30
0.0
 10
98.842014
 20
88.351912
 30
0.0
 10
100.776715
 20
88.351912
 30
0.0
 10
102.711414
 20
88.351912
 30
0.0
 10
104.646115
 20
88.351912
 30
0.0
 10
106.580816
 20
88.351912
 30
0.0
 10
108.515514
 20
88.351912
 30
0.0
 10
110.450215
 20
88.351912
 30
0.0
 10
112.384916
 20
88.351912
 30
0.0
 10
112.384916
 20
87.919149
 30
0.0
 10
112.384916
 20
87.486387
 30
0.0
 10
112.384916
 20
87.053625
 30
0.0
 10
112.384916
 20
86.620862
 30
0.0
 10
112.384916
 20
86.188103
 30
0.0
 10
112.384916
 20
85.755340
 30
0.0
 10
112.384916
 20
85.322578
 30
0.0
 10
112.384916
 20
84.889815
 30
0.0
 10
109.935992
 20
84.889815
 30
0.0
 10
107.487071
 20
84.889815
 30
0.0
 10
105.038147
 20
84.889815
 30
0.0
 10
102.589226
 20
84.889815
 30
0.0
 10
100.140302
 20
84.889815
 30
0.0
 10
97.691377
 20
84.889815
 30
0.0
 10
95.242456
 20
84.889815
 30
0.0
 10
92.793532
 20
84.889815
 30
0.0
 10
92.793532
 20
88.690482
 30
0.0
 10
92.793532
 20
92.491149
 30
0.0
 10
92.793532
 20
96.291819
 30
0.0
 10
92.793532
 20
100.092486
 30
0.0
 10
92.793532
 20
103.893153
 30
0.0
 10
92.793532
 20
107.693820
 30
0.0
 10
92.793532
 20
111.494489
 30
0.0
 10
92.793532
 20
115.295156
 30
0.0
  0
LWPOLYLINE
  5
109
100
AcDbEntity
  8
Layer_1
 62
7
100
AcDbPolyline
 90
57
 70
0
 10
7.137228
 20
70.206459
 30
0.0
 10
7.137228
 20
68.778344
 30
0.0
 10
7.137228
 20
67.350232
 30
0.0
 10
7.137228
 20
65.922117
 30
0.0
 10
7.137228
 20
64.494002
 30
0.0
 10
7.137228
 20
63.065890
 30
0.0
 10
7.137228
 20
61.637775
 30
0.0
 10
7.137228
 20
60.209663
 30
0.0
 10
7.137228
 20
58.781548
 30
0.0
 10
7.783825
 20
58.781548
 30
0.0
 10
8.430422
 20
58.781548
 30
0.0
 10
9.077019
 20
58.781548
 30
0.0
 10
9.723616
 20
58.781548
 30
0.0
 10
10.370214
 20
58.781548
 30
0.0
 10
11.016811
 20
58.781548
 30
0.0
 10
11.663408
 20
58.781548
 30
0.0
 10
12.310005
 20
58.781548
 30
0.0
 10
13.007510
 20
58.804775
 30
0.0
 10
13.664286
 20
58.874458
 30
0.0
 10
14.280333
 20
58.990598
 30
0.0
 10
14.855651
 20
59.153201
 30
0.0
 10
15.390240
 20
59.362265
 30
0.0
 10
15.884100
 20
59.617786
 30
0.0
 10
16.337231
 20
59.919770
 30
0.0
 10
16.749633
 20
60.268213
 30
0.0
 10
17.117155
 20
60.659601
 30
0.0
 10
17.435676
 20
61.090450
 30
0.0
 10
17.705195
 20
61.560756
 30
0.0
 10
17.925712
 20
62.070523
 30
0.0
 10
18.097227
 20
62.619750
 30
0.0
 10
18.219739
 20
63.208438
 30
0.0
 10
18.293250
 20
63.836582
 30
0.0
 10
18.317758
 20
64.504188
 30
0.0
 10
18.293250
 20
65.167006
 30
0.0
 10
18.219739
 20
65.791002
 30
0.0
 10
18.097227
 20
66.376182
 30
0.0
 10
17.925712
 20
66.922544
 30
0.0
 10
17.705196
 20
67.430084
 30
0.0
 10
17.435677
 20
67.898807
 30
0.0
 10
17.117156
 20
68.328711
 30
0.0
 10
16.749633
 20
68.719797
 30
0.0
 10
16.337231
 20
69.068226
 30
0.0
 10
15.884100
 20
69.370198
 30
0.0
 10
15.390240
 20
69.625714
 30
0.0
 10
14.855651
 20
69.834775
 30
0.0
 10
14.280333
 20
69.997381
 30
0.0
 10
13.664286
 20
70.113529
 30
0.0
 10
13.007510
 20
70.183221
 30
0.0
 10
12.310005
 20
70.206448
 30
0.0
 10
11.663408
 20
70.206448
 30
0.0
 10
11.016811
 20
70.206448
 30
0.0
 10
10.370214
 20
70.206448
 30
0.0
 10
9.723616
 20
70.206448
 30
0.0
 10
9.077019
 20
70.206448
 30
0.0
 10
8.430422
 20
70.206448
 30
0.0
 10
7.783825
 20
70.206448
 30
0.0
 10
7.137228
 20
70.206448
 30
0.0
  0
LWPOLYLINE
  5
10a
100
AcDbEntity
  8
Layer_1
 62
7
100
AcDbPolyline
 90
73
 70
0
 10
3.023444
 20
73.587084
 30
0.0
 10
4.184264
 20
73.587084
 30
0.0
 10
5.345085
 20
73.587084
 30
0.0
 10
6.505905
 20
73.587084
 30
0.0
 10
7.666725
 20
73.587084
 30
0.0
 10
8.827545
 20
73.587084
 30
0.0
 10
9.988365
 20
73.587084
 30
0.0
 10
11.149185
 20
73.587084
 30
0.0
 10
12.310005
 20
73.587084
 30
0.0
 10
13.548780
 20
73.550804
 30
0.0
 10
14.709278
 20
73.441971
 30
0.0
 10
15.791498
 20
73.260584
 30
0.0
 10
16.795441
 20
73.006651
 30
0.0
 10
17.721106
 20
72.680171
 30
0.0
 10
18.568495
 20
72.281143
 30
0.0
 10
19.337606
 20
71.809566
 30
0.0
 10
20.028440
 20
71.265442
 30
0.0
 10
20.644164
 20
70.656386
 30
0.0
 10
21.177792
 20
69.979872
 30
0.0
 10
21.629325
 20
69.235900
 30
0.0
 10
21.998762
 20
68.424469
 30
0.0
 10
22.286104
 20
67.545584
 30
0.0
 10
22.491351
 20
66.599239
 30
0.0
 10
22.614503
 20
65.585437
 30
0.0
 10
22.655559
 20
64.504176
 30
0.0
 10
22.614503
 20
63.413356
 30
0.0
 10
22.491351
 20
62.391269
 30
0.0
 10
22.286104
 20
61.437916
 30
0.0
 10
21.998762
 20
60.553299
 30
0.0
 10
21.629325
 20
59.737417
 30
0.0
 10
21.177792
 20
58.990271
 30
0.0
 10
20.644164
 20
58.311857
 30
0.0
 10
20.028440
 20
57.702178
 30
0.0
 10
19.337606
 20
57.162811
 30
0.0
 10
18.568495
 20
56.695361
 30
0.0
 10
17.721106
 20
56.299829
 30
0.0
 10
16.795441
 20
55.976211
 30
0.0
 10
15.791498
 20
55.724511
 30
0.0
 10
14.709278
 20
55.544727
 30
0.0
 10
13.548780
 20
55.436856
 30
0.0
 10
12.310005
 20
55.400901
 30
0.0
 10
11.663408
 20
55.400901
 30
0.0
 10
11.016811
 20
55.400901
 30
0.0
 10
10.370214
 20
55.400901
 30
0.0
 10
9.723616
 20
55.400901
 30
0.0
 10
9.077019
 20
55.400901
 30
0.0
 10
8.430422
 20
55.400901
 30
0.0
 10
7.783825
 20
55.400901
 30
0.0
 10
7.137228
 20
55.400901
 30
0.0
 10
7.137228
 20
53.873506
 30
0.0
 10
7.137228
 20
52.346111
 30
0.0
 10
7.137228
 20
50.818715
 30
0.0
 10
7.137228
 20
49.291320
 30
0.0
 10
7.137228
 20
47.763928
 30
0.0
 10
7.137228
 20
46.236533
 30
0.0
 10
7.137228
 20
44.709138
 30
0.0
 10
7.137228
 20
43.181743
 30
0.0
 10
6.623005
 20
43.181743
 30
0.0
 10
6.108782
 20
43.181743
 30
0.0
 10
5.594559
 20
43.181743
 30
0.0
 10
5.080336
 20
43.181743
 30
0.0
 10
4.566113
 20
43.181743
 30
0.0
 10
4.051890
 20
43.181743
 30
0.0
 10
3.537667
 20
43.181743
 30
0.0
 10
3.023444
 20
43.181743
 30
0.0
 10
3.023444
 20
46.982410
 30
0.0
 10
3.023444
 20
50.783076
 30
0.0
 10
3.023444
 20
54.583746
 30
0.0
 10
3.023444
 20
58.384413
 30
0.0
 10
3.023444
 20
62.185080
 30
0.0
 10
3.023444
 20
65.985747
 30
0.0
 10
3.023444
 20
69.786417
 30
0.0
 10
3.023444
 20
73.587084
 30
0.0
  0
LWPOLYLINE
  5
10b
100
AcDbEntity
  8
Layer_1
 62
7
100
AcDbPolyline
 90
65
 70
0
 10
40.536261
 20
70.797054
 30
0.0
 10
39.444806
 20
70.744860
 30
0.0
 10
38.410631
 20
70.588295
 30
0.0
 10
37.433733
 20
70.327360
 30
0.0
 10
36.514111
 20
69.962058
 30
0.0
 10
35.651773
 20
69.492383
 30
0.0
 10
34.846709
 20
68.918341
 30
0.0
 10
34.098924
 20
68.239929
 30
0.0
 10
33.408420
 20
67.457149
 30
0.0
 10
32.792687
 20
66.584301
 30
0.0
 10
32.259050
 20
65.635718
 30
0.0
 10
31.807514
 20
64.611407
 30
0.0
 10
31.438077
 20
63.511364
 30
0.0
 10
31.150735
 20
62.335589
 30
0.0
 10
30.945492
 20
61.084083
 30
0.0
 10
30.822347
 20
59.756846
 30
0.0
 10
30.781300
 20
58.353877
 30
0.0
 10
30.822350
 20
56.955672
 30
0.0
 10
30.945497
 20
55.632563
 30
0.0
 10
31.150741
 20
54.384551
 30
0.0
 10
31.438080
 20
53.211641
 30
0.0
 10
31.807517
 20
52.113825
 30
0.0
 10
32.259053
 20
51.091108
 30
0.0
 10
32.792687
 20
50.143490
 30
0.0
 10
33.408420
 20
49.270969
 30
0.0
 10
34.098924
 20
48.488178
 30
0.0
 10
34.846709
 20
47.809758
 30
0.0
 10
35.651773
 20
47.235712
 30
0.0
 10
36.514111
 20
46.766038
 30
0.0
 10
37.433733
 20
46.400735
 30
0.0
 10
38.410631
 20
46.139807
 30
0.0
 10
39.444806
 20
45.983250
 30
0.0
 10
40.536261
 20
45.931064
 30
0.0
 10
41.627069
 20
45.983250
 30
0.0
 10
42.659328
 20
46.139810
 30
0.0
 10
43.633040
 20
46.400738
 30
0.0
 10
44.548205
 20
46.766041
 30
0.0
 10
45.404820
 20
47.235715
 30
0.0
 10
46.202885
 20
47.809761
 30
0.0
 10
46.942403
 20
48.488178
 30
0.0
 10
47.623374
 20
49.270969
 30
0.0
 10
48.239096
 20
50.143490
 30
0.0
 10
48.772724
 20
51.091108
 30
0.0
 10
49.224257
 20
52.113825
 30
0.0
 10
49.593695
 20
53.211641
 30
0.0
 10
49.881036
 20
54.384551
 30
0.0
 10
50.086285
 20
55.632563
 30
0.0
 10
50.209436
 20
56.955672
 30
0.0
 10
50.250494
 20
58.353877
 30
0.0
 10
50.209436
 20
59.756846
 30
0.0
 10
50.086285
 20
61.084083
 30
0.0
 10
49.881036
 20
62.335589
 30
0.0
 10
49.593695
 20
63.511364
 30
0.0
 10
49.224257
 20
64.611407
 30
0.0
 10
48.772724
 20
65.635718
 30
0.0
 10
48.239096
 20
66.584301
 30
0.0
 10
47.623374
 20
67.457149
 30
0.0
 10
46.942403
 20
68.239929
 30
0.0
 10
46.202885
 20
68.918341
 30
0.0
 10
45.404820
 20
69.492383
 30
0.0
 10
44.548205
 20
69.962058
 30
0.0
 10
43.633040
 20
70.327360
 30
0.0
 10
42.659328
 20
70.588295
 30
0.0
 10
41.627069
 20
70.744860
 30
0.0
 10
40.536261
 20
70.797054
 30
0.0
  0
LWPOLYLINE
  5
10c
100
AcDbEntity
  8
Layer_1
 62
7
100
AcDbPolyline
 90
65
 70
0
 10
40.536261
 20
74.136957
 30
0.0
 10
42.094833
 20
74.069805
 30
0.0
 10
43.573220
 20
73.868372
 30
0.0
 10
44.971420
 20
73.532660
 30
0.0
 10
46.289431
 20
73.062667
 30
0.0
 10
47.527261
 20
72.458392
 30
0.0
 10
48.684900
 20
71.719836
 30
0.0
 10
49.762356
 20
70.847002
 30
0.0
 10
50.759625
 20
69.839886
 30
0.0
 10
51.656959
 20
68.724880
 30
0.0
 10
52.434651
 20
67.518233
 30
0.0
 10
53.092700
 20
66.219943
 30
0.0
 10
53.631104
 20
64.830016
 30
0.0
 10
54.049868
 20
63.348442
 30
0.0
 10
54.348987
 20
61.775228
 30
0.0
 10
54.528460
 20
60.110374
 30
0.0
 10
54.588294
 20
58.353877
 30
0.0
 10
54.528460
 20
56.601824
 30
0.0
 10
54.348987
 20
54.940145
 30
0.0
 10
54.049868
 20
53.368836
 30
0.0
 10
53.631104
 20
51.887900
 30
0.0
 10
53.092700
 20
50.497335
 30
0.0
 10
52.434651
 20
49.197140
 30
0.0
 10
51.656959
 20
47.987318
 30
0.0
 10
50.759625
 20
46.867867
 30
0.0
 10
49.762356
 20
45.865515
 30
0.0
 10
48.684900
 20
44.996810
 30
0.0
 10
47.527261
 20
44.261751
 30
0.0
 10
46.289431
 20
43.660338
 30
0.0
 10
44.971420
 20
43.192574
 30
0.0
 10
43.573220
 20
42.858457
 30
0.0
 10
42.094833
 20
42.657986
 30
0.0
 10
40.536261
 20
42.591162
 30
0.0
 10
38.972586
 20
42.657986
 30
0.0
 10
37.489102
 20
42.858457
 30
0.0
 10
36.085808
 20
43.192574
 30
0.0
 10
34.762702
 20
43.660338
 30
0.0
 10
33.519785
 20
44.261751
 30
0.0
 10
32.357057
 20
44.996810
 30
0.0
 10
31.274518
 20
45.865515
 30
0.0
 10
30.272169
 20
46.867867
 30
0.0
 10
29.374823
 20
47.982862
 30
0.0
 10
28.597123
 20
49.189503
 30
0.0
 10
27.939071
 20
50.487787
 30
0.0
 10
27.400664
 20
51.877715
 30
0.0
 10
26.981904
 20
53.359288
 30
0.0
 10
26.682789
 20
54.932508
 30
0.0
 10
26.503321
 20
56.597368
 30
0.0
 10
26.443499
 20
58.353877
 30
0.0
 10
26.503323
 20
60.110374
 30
0.0
 10
26.682792
 20
61.775228
 30
0.0
 10
26.981906
 20
63.348442
 30
0.0
 10
27.400666
 20
64.830016
 30
0.0
 10
27.939072
 20
66.219943
 30
0.0
 10
28.597123
 20
67.518233
 30
0.0
 10
29.374823
 20
68.724880
 30
0.0
 10
30.272169
 20
69.839886
 30
0.0
 10
31.274518
 20
70.847002
 30
0.0
 10
32.357057
 20
71.719836
 30
0.0
 10
33.519785
 20
72.458392
 30
0.0
 10
34.762702
 20
73.062667
 30
0.0
 10
36.085808
 20
73.532660
 30
0.0
 10
37.489102
 20
73.868372
 30
0.0
 10
38.972586
 20
74.069805
 30
0.0
 10
40.536261
 20
74.136957
 30
0.0
  0
LWPOLYLINE
  5
10d
100
AcDbEntity
  8
Layer_1
 62
7
100
AcDbPolyline
 90
49
 70
0
 10
61.023720
 20
73.587095
 30
0.0
 10
61.537943
 20
73.587095
 30
0.0
 10
62.052166
 20
73.587095
 30
0.0
 10
62.566389
 20
73.587095
 30
0.0
 10
63.080612
 20
73.587095
 30
0.0
 10
63.594835
 20
73.587095
 30
0.0
 10
64.109058
 20
73.587095
 30
0.0
 10
64.623281
 20
73.587095
 30
0.0
 10
65.137504
 20
73.587095
 30
0.0
 10
65.137504
 20
70.219190
 30
0.0
 10
65.137504
 20
66.851283
 30
0.0
 10
65.137504
 20
63.483378
 30
0.0
 10
65.137504
 20
60.115471
 30
0.0
 10
65.137504
 20
56.747567
 30
0.0
 10
65.137504
 20
53.379662
 30
0.0
 10
65.137504
 20
50.011755
 30
0.0
 10
65.137504
 20
46.643850
 30
0.0
 10
66.988199
 20
46.643850
 30
0.0
 10
68.838891
 20
46.643850
 30
0.0
 10
70.689586
 20
46.643850
 30
0.0
 10
72.540278
 20
46.643850
 30
0.0
 10
74.390972
 20
46.643850
 30
0.0
 10
76.241664
 20
46.643850
 30
0.0
 10
78.092359
 20
46.643850
 30
0.0
 10
79.943051
 20
46.643850
 30
0.0
 10
79.943051
 20
46.211088
 30
0.0
 10
79.943051
 20
45.778325
 30
0.0
 10
79.943051
 20
45.345563
 30
0.0
 10
79.943051
 20
44.912801
 30
0.0
 10
79.943051
 20
44.480041
 30
0.0
 10
79.943051
 20
44.047279
 30
0.0
 10
79.943051
 20
43.614516
 30
0.0
 10
79.943051
 20
43.181754
 30
0.0
 10
77.578133
 20
43.181754
 30
0.0
 10
75.213218
 20
43.181754
 30
0.0
 10
72.848303
 20
43.181754
 30
0.0
 10
70.483386
 20
43.181754
 30
0.0
 10
68.118468
 20
43.181754
 30
0.0
 10
65.753553
 20
43.181754
 30
0.0
 10
63.388638
 20
43.181754
 30
0.0
 10
61.023720
 20
43.181754
 30
0.0
 10
61.023720
 20
46.982421
 30
0.0
 10
61.023720
 20
50.783088
 30
0.0
 10
61.023720
 20
54.583757
 30
0.0
 10
61.023720
 20
58.384424
 30
0.0
 10
61.023720
 20
62.185091
 30
0.0
 10
61.023720
 20
65.985758
 30
0.0
 10
61.023720
 20
69.786428
 30
0.0
 10
61.023720
 20
73.587095
 30
0.0
  0
LWPOLYLINE
  5
10e
100
AcDbEntity
  8
Layer_1
 62
7
100
AcDbPolyline
 90
33
 70
0
 10
84.240124
 20
73.587095
 30
0.0
 10
84.754347
 20
73.587095
 30
0.0
 10
85.268570
 20
73.587095
 30
0.0
 10
85.782793
 20
73.587095
 30
0.0
 10
86.297016
 20
73.587095
 30
0.0
 10
86.811237
 20
73.587095
 30
0.0
 10
87.325460
 20
73.587095
 30
0.0
 10
87.839683
 20
73.587095
 30
0.0
 10
88.353906
 20
73.587095
 30
0.0
 10
88.353906
 20
69.786428
 30
0.0
 10
88.353906
 20
65.985761
 30
0.0
 10
88.353906
 20
62.185091
 30
0.0
 10
88.353906
 20
58.384424
 30
0.0
 10
88.353906
 20
54.583757
 30
0.0
 10
88.353906
 20
50.783088
 30
0.0
 10
88.353906
 20
46.982421
 30
0.0
 10
88.353906
 20
43.181754
 30
0.0
 10
87.839683
 20
43.181754
 30
0.0
 10
87.325460
 20
43.181754
 30
0.0
 10
86.811237
 20
43.181754
 30
0.0
 10
86.297016
 20
43.181754
 30
0.0
 10
85.782793
 20
43.181754
 30
0.0
 10
85.268570
 20
43.181754
 30
0.0
 10
84.754347
 20
43.181754
 30
0.0
 10
84.240124
 20
43.181754
 30
0.0
 10
84.240124
 20
46.982421
 30
0.0
 10
84.240124
 20
50.783088
 30
0.0
 10
84.240124
 20
54.583757
 30
0.0
 10
84.240124
 20
58.384424
 30
0.0
 10
84.240124
 20
62.185091
 30
0.0
 10
84.240124
 20
65.985761
 30
0.0
 10
84.240124
 20
69.786428
 30
0.0
 10
84.240124
 20
73.587095
 30
0.0
  0
LWPOLYLINE
  5
10f
100
AcDbEntity
  8
Layer_1
 62
7
100
AcDbPolyline
 90
145
 70
0
 10
119.309109
 20
71.245088
 30
0.0
 10
119.309109
 20
70.702863
 30
0.0
 10
119.309109
 20
70.160638
 30
0.0
 10
119.309109
 20
69.618413
 30
0.0
 10
119.309109
 20
69.076188
 30
0.0
 10
119.309109
 20
68.533962
 30
0.0
 10
119.309109
 20
67.991737
 30
0.0
 10
119.309109
 20
67.449512
 30
0.0
 10
119.309109
 20
66.907287
 30
0.0
 10
118.785330
 20
67.375680
 30
0.0
 10
118.252646
 20
67.813528
 30
0.0
 10
117.711053
 20
68.220828
 30
0.0
 10
117.160554
 20
68.597587
 30
0.0
 10
116.601147
 20
68.943797
 30
0.0
 10
116.032830
 20
69.259463
 30
0.0
 10
115.455610
 20
69.544580
 30
0.0
 10
114.869479
 20
69.799156
 30
0.0
 10
114.279197
 20
70.023483
 30
0.0
 10
113.679374
 20
70.217901
 30
0.0
 10
113.070002
 20
70.382411
 30
0.0
 10
112.451089
 20
70.517011
 30
0.0
 10
111.822631
 20
70.621701
 30
0.0
 10
111.184628
 20
70.696485
 30
0.0
 10
110.537083
 20
70.741358
 30
0.0
 10
109.879991
 20
70.756316
 30
0.0
 10
108.614794
 20
70.706348
 30
0.0
 10
107.425970
 20
70.556468
 30
0.0
 10
106.313515
 20
70.306671
 30
0.0
 10
105.277432
 20
69.956961
 30
0.0
 10
104.317718
 20
69.507336
 30
0.0
 10
103.434377
 20
68.957795
 30
0.0
 10
102.627407
 20
68.308340
 30
0.0
 10
101.896807
 20
67.558969
 30
0.0
 10
101.247662
 20
66.720168
 30
0.0
 10
100.685069
 20
65.792269
 30
0.0
 10
100.209031
 20
64.775279
 30
0.0
 10
99.819545
 20
63.669188
 30
0.0
 10
99.516610
 20
62.474005
 30
0.0
 10
99.300230
 20
61.189722
 30
0.0
 10
99.170403
 20
59.816344
 30
0.0
 10
99.127129
 20
58.353871
 30
0.0
 10
99.170408
 20
56.895843
 30
0.0
 10
99.300236
 20
55.525640
 30
0.0
 10
99.516616
 20
54.243262
 30
0.0
 10
99.819547
 20
53.048711
 30
0.0
 10
100.209034
 20
51.941988
 30
0.0
 10
100.685072
 20
50.923090
 30
0.0
 10
101.247662
 20
49.992019
 30
0.0
 10
101.896807
 20
49.148773
 30
0.0
 10
102.627407
 20
48.404166
 30
0.0
 10
103.434377
 20
47.758840
 30
0.0
 10
104.317718
 20
47.212796
 30
0.0
 10
105.277432
 20
46.766033
 30
0.0
 10
106.313515
 20
46.418552
 30
0.0
 10
107.425970
 20
46.170352
 30
0.0
 10
108.614794
 20
46.021432
 30
0.0
 10
109.879991
 20
45.971792
 30
0.0
 10
110.537083
 20
45.986749
 30
0.0
 10
111.184628
 20
46.031617
 30
0.0
 10
111.822631
 20
46.106395
 30
0.0
 10
112.451089
 20
46.211085
 30
0.0
 10
113.070002
 20
46.345685
 30
0.0
 10
113.679374
 20
46.510198
 30
0.0
 10
114.279197
 20
46.704624
 30
0.0
 10
114.869479
 20
46.928959
 30
0.0
 10
115.455610
 20
47.183524
 30
0.0
 10
116.032830
 20
47.468636
 30
0.0
 10
116.601147
 20
47.784299
 30
0.0
 10
117.160554
 20
48.130506
 30
0.0
 10
117.711053
 20
48.507265
 30
0.0
 10
118.252646
 20
48.914571
 30
0.0
 10
118.785330
 20
49.352424
 30
0.0
 10
119.309109
 20
49.820829
 30
0.0
 10
119.309109
 20
49.283695
 30
0.0
 10
119.309109
 20
48.746561
 30
0.0
 10
119.309109
 20
48.209427
 30
0.0
 10
119.309109
 20
47.672293
 30
0.0
 10
119.309109
 20
47.135160
 30
0.0
 10
119.309109
 20
46.598026
 30
0.0
 10
119.309109
 20
46.060892
 30
0.0
 10
119.309109
 20
45.523758
 30
0.0
 10
118.765283
 20
45.168638
 30
0.0
 10
118.213189
 20
44.836428
 30
0.0
 10
117.652823
 20
44.527130
 30
0.0
 10
117.084184
 20
44.240745
 30
0.0
 10
116.507277
 20
43.977268
 30
0.0
 10
115.922095
 20
43.736704
 30
0.0
 10
115.328646
 20
43.519052
 30
0.0
 10
114.726923
 20
43.324310
 30
0.0
 10
114.121686
 20
43.152479
 30
0.0
 10
113.507543
 20
43.003556
 30
0.0
 10
112.884489
 20
42.877547
 30
0.0
 10
112.252529
 20
42.774448
 30
0.0
 10
111.611661
 20
42.694257
 30
0.0
 10
110.961884
 20
42.636980
 30
0.0
 10
110.303200
 20
42.602614
 30
0.0
 10
109.635606
 20
42.591156
 30
0.0
 10
107.955467
 20
42.657024
 30
0.0
 10
106.366976
 20
42.854630
 30
0.0
 10
104.870126
 20
43.183975
 30
0.0
 10
103.464924
 20
43.645058
 30
0.0
 10
102.151366
 20
44.237877
 30
0.0
 10
100.929451
 20
44.962435
 30
0.0
 10
99.799182
 20
45.818731
 30
0.0
 10
98.760557
 20
46.806766
 30
0.0
 10
97.829799
 20
47.913808
 30
0.0
 10
97.023143
 20
49.116947
 30
0.0
 10
96.340586
 20
50.416185
 30
0.0
 10
95.782133
 20
51.811522
 30
0.0
 10
95.347779
 20
53.302962
 30
0.0
 10
95.037529
 20
54.890499
 30
0.0
 10
94.851378
 20
56.574135
 30
0.0
 10
94.789329
 20
58.353871
 30
0.0
 10
94.851381
 20
60.138052
 30
0.0
 10
95.037532
 20
61.824863
 30
0.0
 10
95.347782
 20
63.414305
 30
0.0
 10
95.782136
 20
64.906377
 30
0.0
 10
96.340589
 20
66.301082
 30
0.0
 10
97.023143
 20
67.598416
 30
0.0
 10
97.829799
 20
68.798379
 30
0.0
 10
98.760557
 20
69.900976
 30
0.0
 10
99.799182
 20
70.893772
 30
0.0
 10
100.929451
 20
71.754197
 30
0.0
 10
102.151366
 20
72.482251
 30
0.0
 10
103.464924
 20
73.077935
 30
0.0
 10
104.870126
 20
73.541245
 30
0.0
 10
106.366976
 20
73.872184
 30
0.0
 10
107.955467
 20
74.070753
 30
0.0
 10
109.635606
 20
74.136951
 30
0.0
 10
110.312745
 20
74.125493
 30
0.0
 10
110.979704
 20
74.091121
 30
0.0
 10
111.636480
 20
74.033839
 30
0.0
 10
112.283076
 20
73.953648
 30
0.0
 10
112.919490
 20
73.850552
 30
0.0
 10
113.545727
 20
73.724546
 30
0.0
 10
114.161779
 20
73.575631
 30
0.0
 10
114.767654
 20
73.403808
 30
0.0
 10
115.368739
 20
73.214147
 30
0.0
 10
115.960282
 20
73.001580
 30
0.0
 10
116.542278
 20
72.766102
 30
0.0
 10
117.114732
 20
72.507716
 30
0.0
 10
117.677641
 20
72.226423
 30
0.0
 10
118.231008
 20
71.922221
 30
0.0
 10
118.774831
 20
71.595108
 30
0.0
 10
119.309109
 20
71.245091
 30
0.0
  0
LWPOLYLINE
  5
110
100
AcDbEntity
  8
Layer_1
 62
7
100
AcDbPolyline
 90
97
 70
0
 10
125.703793
 20
73.587095
 30
0.0
 10
128.106895
 20
73.587095
 30
0.0
 10
130.509995
 20
73.587095
 30
0.0
 10
132.913097
 20
73.587095
 30
0.0
 10
135.316200
 20
73.587095
 30
0.0
 10
137.719300
 20
73.587095
 30
0.0
 10
140.122402
 20
73.587095
 30
0.0
 10
142.525502
 20
73.587095
 30
0.0
 10
144.928604
 20
73.587095
 30
0.0
 10
144.928604
 20
73.154332
 30
0.0
 10
144.928604
 20
72.721570
 30
0.0
 10
144.928604
 20
72.288808
 30
0.0
 10
144.928604
 20
71.856045
 30
0.0
 10
144.928604
 20
71.423286
 30
0.0
 10
144.928604
 20
70.990523
 30
0.0
 10
144.928604
 20
70.557761
 30
0.0
 10
144.928604
 20
70.124999
 30
0.0
 10
143.039725
 20
70.124999
 30
0.0
 10
141.150848
 20
70.124999
 30
0.0
 10
139.261969
 20
70.124999
 30
0.0
 10
137.373092
 20
70.124999
 30
0.0
 10
135.484212
 20
70.124999
 30
0.0
 10
133.595333
 20
70.124999
 30
0.0
 10
131.706456
 20
70.124999
 30
0.0
 10
129.817577
 20
70.124999
 30
0.0
 10
129.817577
 20
68.999818
 30
0.0
 10
129.817577
 20
67.874638
 30
0.0
 10
129.817577
 20
66.749457
 30
0.0
 10
129.817577
 20
65.624274
 30
0.0
 10
129.817577
 20
64.499093
 30
0.0
 10
129.817577
 20
63.373913
 30
0.0
 10
129.817577
 20
62.248732
 30
0.0
 10
129.817577
 20
61.123552
 30
0.0
 10
131.627541
 20
61.123552
 30
0.0
 10
133.437503
 20
61.123552
 30
0.0
 10
135.247467
 20
61.123552
 30
0.0
 10
137.057429
 20
61.123552
 30
0.0
 10
138.867394
 20
61.123552
 30
0.0
 10
140.677355
 20
61.123552
 30
0.0
 10
142.487320
 20
61.123552
 30
0.0
 10
144.297281
 20
61.123552
 30
0.0
 10
144.297281
 20
60.690790
 30
0.0
 10
144.297281
 20
60.258027
 30
0.0
 10
144.297281
 20
59.825268
 30
0.0
 10
144.297281
 20
59.392505
 30
0.0
 10
144.297281
 20
58.959743
 30
0.0
 10
144.297281
 20
58.526980
 30
0.0
 10
144.297281
 20
58.094221
 30
0.0
 10
144.297281
 20
57.661459
 30
0.0
 10
142.487320
 20
57.661459
 30
0.0
 10
140.677355
 20
57.661459
 30
0.0
 10
138.867394
 20
57.661459
 30
0.0
 10
137.057429
 20
57.661459
 30
0.0
 10
135.247467
 20
57.661459
 30
0.0
 10
133.437503
 20
57.661459
 30
0.0
 10
131.627541
 20
57.661459
 30
0.0
 10
129.817577
 20
57.661459
 30
0.0
 10
129.817577
 20
56.284256
 30
0.0
 10
129.817577
 20
54.907057
 30
0.0
 10
129.817577
 20
53.529855
 30
0.0
 10
129.817577
 20
52.152653
 30
0.0
 10
129.817577
 20
50.775454
 30
0.0
 10
129.817577
 20
49.398252
 30
0.0
 10
129.817577
 20
48.021052
 30
0.0
 10
129.817577
 20
46.643850
 30
0.0
 10
131.752278
 20
46.643850
 30
0.0
 10
133.686979
 20
46.643850
 30
0.0
 10
135.621677
 20
46.643850
 30
0.0
 10
137.556378
 20
46.643850
 30
0.0
 10
139.491079
 20
46.643850
 30
0.0
 10
141.425780
 20
46.643850
 30
0.0
 10
143.360479
 20
46.643850
 30
0.0
 10
145.295180
 20
46.643850
 30
0.0
 10
145.295180
 20
46.211088
 30
0.0
 10
145.295180
 20
45.778325
 30
0.0
 10
145.295180
 20
45.345563
 30
0.0
 10
145.295180
 20
44.912801
 30
0.0
 10
145.295180
 20
44.480041
 30
0.0
 10
145.295180
 20
44.047279
 30
0.0
 10
145.295180
 20
43.614516
 30
0.0
 10
145.295180
 20
43.181754
 30
0.0
 10
142.846256
 20
43.181754
 30
0.0
 10
140.397334
 20
43.181754
 30
0.0
 10
137.948410
 20
43.181754
 30
0.0
 10
135.499486
 20
43.181754
 30
0.0
 10
133.050562
 20
43.181754
 30
0.0
 10
130.601641
 20
43.181754
 30
0.0
 10
128.152717
 20
43.181754
 30
0.0
 10
125.703793
 20
43.181754
 30
0.0
 10
125.703793
 20
46.982421
 30
0.0
 10
125.703793
 20
50.783088
 30
0.0
 10
125.703793
 20
54.583757
 30
0.0
 10
125.703793
 20
58.384424
 30
0.0
 10
125.703793
 20
62.185091
 30
0.0
 10
125.703793
 20
65.985758
 30
0.0
 10
125.703793
 20
69.786428
 30
0.0
 10
125.703793
 20
73.587095
 30
0.0
  0
LWPOLYLINE
  5
111
100
AcDbEntity
  8
Layer_1
 62
7
100
AcDbPolyline
 90
225
 70
0
 10
32.858558
 20
30.881135
 30
0.0
 10
32.858558
 20
30.379640
 30
0.0
 10
32.858558
 20
29.878146
 30
0.0
 10
32.858558
 20
29.376651
 30
0.0
 10
32.858558
 20
28.875156
 30
0.0
 10
32.858558
 20
28.373661
 30
0.0
 10
32.858558
 20
27.872166
 30
0.0
 10
32.858558
 20
27.370672
 30
0.0
 10
32.858558
 20
26.869177
 30
0.0
 10
32.277185
 20
27.140282
 30
0.0
 10
31.704091
 20
27.393568
 30
0.0
 10
31.139268
 20
27.629038
 30
0.0
 10
30.582723
 20
27.846690
 30
0.0
 10
30.034453
 20
28.046526
 30
0.0
 10
29.494457
 20
28.228545
 30
0.0
 10
28.962739
 20
28.392745
 30
0.0
 10
28.439293
 20
28.539131
 30
0.0
 10
27.922202
 20
28.667996
 30
0.0
 10
27.409566
 20
28.779680
 30
0.0
 10
26.901387
 20
28.874182
 30
0.0
 10
26.397665
 20
28.951506
 30
0.0
 10
25.898398
 20
29.011647
 30
0.0
 10
25.403588
 20
29.054610
 30
0.0
 10
24.913235
 20
29.080377
 30
0.0
 10
24.427337
 20
29.088984
 30
0.0
 10
23.611132
 20
29.068608
 30
0.0
 10
22.842659
 20
29.007504
 30
0.0
 10
22.121918
 20
28.905675
 30
0.0
 10
21.448909
 20
28.763117
 30
0.0
 10
20.823633
 20
28.579830
 30
0.0
 10
20.246088
 20
28.355816
 30
0.0
 10
19.716276
 20
28.091075
 30
0.0
 10
19.234195
 20
27.785603
 30
0.0
 10
18.809386
 20
27.442568
 30
0.0
 10
18.441218
 20
27.065169
 30
0.0
 10
18.129692
 20
26.653404
 30
0.0
 10
17.874808
 20
26.207275
 30
0.0
 10
17.676565
 20
25.726784
 30
0.0
 10
17.534964
 20
25.211928
 30
0.0
 10
17.450004
 20
24.662710
 30
0.0
 10
17.421686
 20
24.079125
 30
0.0
 10
17.440462
 20
23.590353
 30
0.0
 10
17.496785
 20
23.132128
 30
0.0
 10
17.590655
 20
22.704455
 30
0.0
 10
17.722074
 20
22.307331
 30
0.0
 10
17.891041
 20
21.940758
 30
0.0
 10
18.097557
 20
21.604733
 30
0.0
 10
18.341622
 20
21.299259
 30
0.0
 10
18.623237
 20
21.024335
 30
0.0
 10
18.962443
 20
20.775810
 30
0.0
 10
19.369110
 20
20.539375
 30
0.0
 10
19.843237
 20
20.315037
 30
0.0
 10
20.384826
 20
20.102792
 30
0.0
 10
20.993874
 20
19.902643
 30
0.0
 10
21.670385
 20
19.714584
 30
0.0
 10
22.414355
 20
19.538618
 30
0.0
 10
23.225787
 20
19.374749
 30
0.0
 10
23.536357
 20
19.311108
 30
0.0
 10
23.846928
 20
19.247467
 30
0.0
 10
24.157498
 20
19.183825
 30
0.0
 10
24.468068
 20
19.120182
 30
0.0
 10
24.778638
 20
19.056540
 30
0.0
 10
25.089209
 20
18.992899
 30
0.0
 10
25.399779
 20
18.929258
 30
0.0
 10
25.710349
 20
18.865617
 30
0.0
 10
26.823114
 20
18.625683
 30
0.0
 10
27.860147
 20
18.343749
 30
0.0
 10
28.821448
 20
18.019811
 30
0.0
 10
29.707019
 20
17.653871
 30
0.0
 10
30.516856
 20
17.245930
 30
0.0
 10
31.250964
 20
16.795988
 30
0.0
 10
31.909338
 20
16.304044
 30
0.0
 10
32.491983
 20
15.770097
 30
0.0
 10
33.007470
 20
15.196680
 30
0.0
 10
33.454228
 20
14.576175
 30
0.0
 10
33.832256
 20
13.908578
 30
0.0
 10
34.141552
 20
13.193879
 30
0.0
 10
34.382118
 20
12.432076
 30
0.0
 10
34.553952
 20
11.623199
 30
0.0
 10
34.657056
 20
10.767219
 30
0.0
 10
34.691431
 20
9.864165
 30
0.0
 10
34.644966
 20
8.792764
 30
0.0
 10
34.505584
 20
7.788194
 30
0.0
 10
34.273290
 20
6.850426
 30
0.0
 10
33.948083
 20
5.979489
 30
0.0
 10
33.529959
 20
5.175381
 30
0.0
 10
33.018920
 20
4.438104
 30
0.0
 10
32.414970
 20
3.767657
 30
0.0
 10
31.718104
 20
3.164012
 30
0.0
 10
30.936580
 20
2.629426
 30
0.0
 10
30.068506
 20
2.166102
 30
0.0
 10
29.113881
 20
1.774067
 30
0.0
 10
28.072707
 20
1.453322
 30
0.0
 10
26.944981
 20
1.203837
 30
0.0
 10
25.730705
 20
1.025642
 30
0.0
 10
24.429878
 20
0.918736
 30
0.0
 10
23.042500
 20
0.883092
 30
0.0
 10
22.498362
 20
0.890712
 30
0.0
 10
21.945315
 20
0.913572
 30
0.0
 10
21.383360
 20
0.951756
 30
0.0
 10
20.812496
 20
1.005237
 30
0.0
 10
20.232723
 20
1.073958
 30
0.0
 10
19.644041
 20
1.157976
 30
0.0
 10
19.046450
 20
1.257234
 30
0.0
 10
18.439950
 20
1.371788
 30
0.0
 10
17.831218
 20
1.501299
 30
0.0
 10
17.216758
 20
1.645458
 30
0.0
 10
16.596571
 20
1.804237
 30
0.0
 10
15.970658
 20
1.977662
 30
0.0
 10
15.339017
 20
2.165735
 30
0.0
 10
14.701648
 20
2.368427
 30
0.0
 10
14.058553
 20
2.585766
 30
0.0
 10
13.409730
 20
2.817725
 30
0.0
 10
13.409730
 20
3.347230
 30
0.0
 10
13.409730
 20
3.876707
 30
0.0
 10
13.409730
 20
4.406213
 30
0.0
 10
13.409730
 20
4.935718
 30
0.0
 10
13.409730
 20
5.465223
 30
0.0
 10
13.409730
 20
5.994700
 30
0.0
 10
13.409730
 20
6.524206
 30
0.0
 10
13.409730
 20
7.053711
 30
0.0
 10
14.034369
 20
6.713238
 30
0.0
 10
14.655827
 20
6.394384
 30
0.0
 10
15.274102
 20
6.097175
 30
0.0
 10
15.889197
 20
5.821614
 30
0.0
 10
16.501109
 20
5.567670
 30
0.0
 10
17.109840
 20
5.335373
 30
0.0
 10
17.715390
 20
5.124722
 30
0.0
 10
18.317758
 20
4.935718
 30
0.0
 10
18.917258
 20
4.768671
 30
0.0
 10
19.514213
 20
4.623891
 30
0.0
 10
20.108622
 20
4.501378
 30
0.0
 10
20.700487
 20
4.401133
 30
0.0
 10
21.289807
 20
4.323183
 30
0.0
 10
21.876583
 20
4.267500
 30
0.0
 10
22.460814
 20
4.234085
 30
0.0
 10
23.042500
 20
4.223079
 30
0.0
 10
23.898154
 20
4.244810
 30
0.0
 10
24.703533
 20
4.309721
 30
0.0
 10
25.458636
 20
4.417897
 30
0.0
 10
26.163465
 20
4.569365
 30
0.0
 10
26.818017
 20
4.764099
 30
0.0
 10
27.422295
 20
5.002125
 30
0.0
 10
27.976297
 20
5.283416
 30
0.0
 10
28.480024
 20
5.608000
 30
0.0
 10
28.928693
 20
5.972659
 30
0.0
 10
29.317541
 20
6.374233
 30
0.0
 10
29.646564
 20
6.812722
 30
0.0
 10
29.915765
 20
7.288125
 30
0.0
 10
30.125146
 20
7.800443
 30
0.0
 10
30.274704
 20
8.349676
 30
0.0
 10
30.364442
 20
8.935795
 30
0.0
 10
30.394360
 20
9.558857
 30
0.0
 10
30.372714
 20
10.103630
 30
0.0
 10
30.307794
 20
10.617839
 30
0.0
 10
30.199601
 20
11.101512
 30
0.0
 10
30.048133
 20
11.554648
 30
0.0
 10
29.853391
 20
11.977219
 30
0.0
 10
29.615376
 20
12.369254
 30
0.0
 10
29.334085
 20
12.730752
 30
0.0
 10
29.009518
 20
13.061686
 30
0.0
 10
28.640710
 20
13.367474
 30
0.0
 10
28.216537
 20
13.653534
 30
0.0
 10
27.736996
 20
13.919896
 30
0.0
 10
27.202090
 20
14.166501
 30
0.0
 10
26.611816
 20
14.393380
 30
0.0
 10
25.966176
 20
14.600531
 30
0.0
 10
25.265169
 20
14.787960
 30
0.0
 10
24.508796
 20
14.955657
 30
0.0
 10
24.195680
 20
15.016752
 30
0.0
 10
23.882564
 20
15.077848
 30
0.0
 10
23.569448
 20
15.138943
 30
0.0
 10
23.256332
 20
15.200039
 30
0.0
 10
22.943216
 20
15.261137
 30
0.0
 10
22.630100
 20
15.322232
 30
0.0
 10
22.316984
 20
15.383328
 30
0.0
 10
22.003868
 20
15.444423
 30
0.0
 10
20.893004
 20
15.689756
 30
0.0
 10
19.861693
 20
15.967548
 30
0.0
 10
18.909934
 20
16.277797
 30
0.0
 10
18.037728
 20
16.620505
 30
0.0
 10
17.245074
 20
16.995672
 30
0.0
 10
16.531973
 20
17.403297
 30
0.0
 10
15.898424
 20
17.843383
 30
0.0
 10
15.344427
 20
18.315924
 30
0.0
 10
14.862342
 20
18.828550
 30
0.0
 10
14.444535
 20
19.388908
 30
0.0
 10
14.091006
 20
19.997001
 30
0.0
 10
13.801756
 20
20.652823
 30
0.0
 10
13.576784
 20
21.356381
 30
0.0
 10
13.416090
 20
22.107670
 30
0.0
 10
13.319673
 20
22.906692
 30
0.0
 10
13.287535
 20
23.753449
 30
0.0
 10
13.331767
 20
24.734792
 30
0.0
 10
13.464459
 20
25.662680
 30
0.0
 10
13.685613
 20
26.537109
 30
0.0
 10
13.995228
 20
27.358082
 30
0.0
 10
14.393305
 20
28.125599
 30
0.0
 10
14.879843
 20
28.839661
 30
0.0
 10
15.454844
 20
29.500264
 30
0.0
 10
16.118307
 20
30.107412
 30
0.0
 10
16.864500
 20
30.651536
 30
0.0
 10
17.677518
 20
31.123112
 30
0.0
 10
18.557360
 20
31.522141
 30
0.0
 10
19.504026
 20
31.848621
 30
0.0
 10
20.517516
 20
32.102551
 30
0.0
 10
21.597831
 20
32.283935
 30
0.0
 10
22.744970
 20
32.392768
 30
0.0
 10
23.958934
 20
32.429053
 30
0.0
 10
24.494790
 20
32.422986
 30
0.0
 10
25.033193
 20
32.404839
 30
0.0
 10
25.574143
 20
32.374604
 30
0.0
 10
26.117640
 20
32.332279
 30
0.0
 10
26.663684
 20
32.277867
 30
0.0
 10
27.212276
 20
32.211367
 30
0.0
 10
27.763414
 20
32.132777
 30
0.0
 10
28.317100
 20
32.042099
 30
0.0
 10
28.873640
 20
31.939308
 30
0.0
 10
29.433360
 20
31.824429
 30
0.0
 10
29.996266
 20
31.697460
 30
0.0
 10
30.562356
 20
31.558401
 30
0.0
 10
31.131629
 20
31.407254
 30
0.0
 10
31.704086
 20
31.244019
 30
0.0
 10
32.279729
 20
31.068694
 30
0.0
 10
32.858555
 20
30.881279
 30
0.0
  0
LWPOLYLINE
  5
112
100
AcDbEntity
  8
Layer_1
 62
7
100
AcDbPolyline
 90
65
 70
0
 10
36.890878
 20
31.879033
 30
0.0
 10
40.106044
 20
31.879033
 30
0.0
 10
43.321210
 20
31.879033
 30
0.0
 10
46.536376
 20
31.879033
 30
0.0
 10
49.751544
 20
31.879033
 30
0.0
 10
52.966710
 20
31.879033
 30
0.0
 10
56.181876
 20
31.879033
 30
0.0
 10
59.397042
 20
31.879033
 30
0.0
 10
62.612208
 20
31.879033
 30
0.0
 10
62.612208
 20
31.446271
 30
0.0
 10
62.612208
 20
31.013509
 30
0.0
 10
62.612208
 20
30.580746
 30
0.0
 10
62.612208
 20
30.147987
 30
0.0
 10
62.612208
 20
29.715224
 30
0.0
 10
62.612208
 20
29.282462
 30
0.0
 10
62.612208
 20
28.849700
 30
0.0
 10
62.612208
 20
28.416937
 30
0.0
 10
61.263011
 20
28.416937
 30
0.0
 10
59.913811
 20
28.416937
 30
0.0
 10
58.564613
 20
28.416937
 30
0.0
 10
57.215413
 20
28.416937
 30
0.0
 10
55.866216
 20
28.416937
 30
0.0
 10
54.517016
 20
28.416937
 30
0.0
 10
53.167816
 20
28.416937
 30
0.0
 10
51.818619
 20
28.416937
 30
0.0
 10
51.818619
 20
25.049030
 30
0.0
 10
51.818619
 20
21.681122
 30
0.0
 10
51.818619
 20
18.313215
 30
0.0
 10
51.818619
 20
14.945308
 30
0.0
 10
51.818619
 20
11.577406
 30
0.0
 10
51.818619
 20
8.209507
 30
0.0
 10
51.818619
 20
4.841580
 30
0.0
 10
51.818619
 20
1.473681
 30
0.0
 10
51.301850
 20
1.473681
 30
0.0
 10
50.785082
 20
1.473681
 30
0.0
 10
50.268313
 20
1.473681
 30
0.0
 10
49.751544
 20
1.473681
 30
0.0
 10
49.234776
 20
1.473681
 30
0.0
 10
48.718007
 20
1.473681
 30
0.0
 10
48.201239
 20
1.473681
 30
0.0
 10
47.684470
 20
1.473681
 30
0.0
 10
47.684470
 20
4.841580
 30
0.0
 10
47.684470
 20
8.209507
 30
0.0
 10
47.684470
 20
11.577406
 30
0.0
 10
47.684470
 20
14.945308
 30
0.0
 10
47.684470
 20
18.313215
 30
0.0
 10
47.684470
 20
21.681122
 30
0.0
 10
47.684470
 20
25.049030
 30
0.0
 10
47.684470
 20
28.416937
 30
0.0
 10
46.335270
 20
28.416937
 30
0.0
 10
44.986073
 20
28.416937
 30
0.0
 10
43.636873
 20
28.416937
 30
0.0
 10
42.287673
 20
28.416937
 30
0.0
 10
40.938475
 20
28.416937
 30
0.0
 10
39.589275
 20
28.416937
 30
0.0
 10
38.240078
 20
28.416937
 30
0.0
 10
36.890878
 20
28.416937
 30
0.0
 10
36.890878
 20
28.849700
 30
0.0
 10
36.890878
 20
29.282462
 30
0.0
 10
36.890878
 20
29.715224
 30
0.0
 10
36.890878
 20
30.147987
 30
0.0
 10
36.890878
 20
30.580746
 30
0.0
 10
36.890878
 20
31.013509
 30
0.0
 10
36.890878
 20
31.446271
 30
0.0
 10
36.890878
 20
31.879033
 30
0.0
  0
LWPOLYLINE
  5
113
100
AcDbEntity
  8
Layer_1
 62
7
100
AcDbPolyline
 90
25
 70
0
 10
73.507623
 20
27.826345
 30
0.0
 10
72.810113
 20
25.934920
 30
0.0
 10
72.112601
 20
24.043495
 30
0.0
 10
71.415092
 20
22.152072
 30
0.0
 10
70.717582
 20
20.260647
 30
0.0
 10
70.020070
 20
18.369222
 30
0.0
 10
69.322561
 20
16.477800
 30
0.0
 10
68.625048
 20
14.586375
 30
0.0
 10
67.927539
 20
12.694950
 30
0.0
 10
69.325106
 20
12.694950
 30
0.0
 10
70.722673
 20
12.694950
 30
0.0
 10
72.120238
 20
12.694950
 30
0.0
 10
73.517805
 20
12.694950
 30
0.0
 10
74.915372
 20
12.694950
 30
0.0
 10
76.312937
 20
12.694950
 30
0.0
 10
77.710504
 20
12.694950
 30
0.0
 10
79.108071
 20
12.694950
 30
0.0
 10
78.408016
 20
14.586375
 30
0.0
 10
77.707958
 20
16.477800
 30
0.0
 10
77.007903
 20
18.369222
 30
0.0
 10
76.307848
 20
20.260647
 30
0.0
 10
75.607791
 20
22.152072
 30
0.0
 10
74.907735
 20
24.043495
 30
0.0
 10
74.207678
 20
25.934920
 30
0.0
 10
73.507623
 20
27.826345
 30
0.0
  0
LWPOLYLINE
  5
114
100
AcDbEntity
  8
Layer_1
 62
7
100
AcDbPolyline
 90
65
 70
0
 10
71.185984
 20
31.879033
 30
0.0
 10
71.768939
 20
31.879033
 30
0.0
 10
72.351894
 20
31.879033
 30
0.0
 10
72.934850
 20
31.879033
 30
0.0
 10
73.517805
 20
31.879033
 30
0.0
 10
74.100761
 20
31.879033
 30
0.0
 10
74.683716
 20
31.879033
 30
0.0
 10
75.266671
 20
31.879033
 30
0.0
 10
75.849627
 20
31.879033
 30
0.0
 10
77.298107
 20
28.078364
 30
0.0
 10
78.746584
 20
24.277697
 30
0.0
 10
80.195064
 20
20.477027
 30
0.0
 10
81.643545
 20
16.676357
 30
0.0
 10
83.092025
 20
12.875685
 30
0.0
 10
84.540502
 20
9.075026
 30
0.0
 10
85.988982
 20
5.274340
 30
0.0
 10
87.437462
 20
1.473681
 30
0.0
 10
86.902874
 20
1.473681
 30
0.0
 10
86.368286
 20
1.473681
 30
0.0
 10
85.833698
 20
1.473681
 30
0.0
 10
85.299110
 20
1.473681
 30
0.0
 10
84.764522
 20
1.473681
 30
0.0
 10
84.229933
 20
1.473681
 30
0.0
 10
83.695345
 20
1.473681
 30
0.0
 10
83.160757
 20
1.473681
 30
0.0
 10
82.814547
 20
2.448674
 30
0.0
 10
82.468339
 20
3.423667
 30
0.0
 10
82.122129
 20
4.398660
 30
0.0
 10
81.775918
 20
5.373625
 30
0.0
 10
81.429710
 20
6.348618
 30
0.0
 10
81.083500
 20
7.323612
 30
0.0
 10
80.737292
 20
8.298605
 30
0.0
 10
80.391082
 20
9.273598
 30
0.0
 10
78.677855
 20
9.273598
 30
0.0
 10
76.964625
 20
9.273598
 30
0.0
 10
75.251397
 20
9.273598
 30
0.0
 10
73.538170
 20
9.273598
 30
0.0
 10
71.824943
 20
9.273598
 30
0.0
 10
70.111713
 20
9.273598
 30
0.0
 10
68.398486
 20
9.273598
 30
0.0
 10
66.685259
 20
9.273598
 30
0.0
 10
66.339048
 20
8.298605
 30
0.0
 10
65.992841
 20
7.323612
 30
0.0
 10
65.646630
 20
6.348618
 30
0.0
 10
65.300420
 20
5.373625
 30
0.0
 10
64.954212
 20
4.398660
 30
0.0
 10
64.608002
 20
3.423667
 30
0.0
 10
64.261794
 20
2.448674
 30
0.0
 10
63.915584
 20
1.473681
 30
0.0
 10
63.373358
 20
1.473681
 30
0.0
 10
62.831133
 20
1.473681
 30
0.0
 10
62.288908
 20
1.473681
 30
0.0
 10
61.746683
 20
1.473681
 30
0.0
 10
61.204458
 20
1.473681
 30
0.0
 10
60.662233
 20
1.473681
 30
0.0
 10
60.120008
 20
1.473681
 30
0.0
 10
59.577783
 20
1.473681
 30
0.0
 10
61.028809
 20
5.274340
 30
0.0
 10
62.479832
 20
9.075026
 30
0.0
 10
63.930857
 20
12.875685
 30
0.0
 10
65.381883
 20
16.676357
 30
0.0
 10
66.832909
 20
20.477027
 30
0.0
 10
68.283932
 20
24.277697
 30
0.0
 10
69.734958
 20
28.078364
 30
0.0
 10
71.185984
 20
31.879033
 30
0.0
  0
LWPOLYLINE
  5
115
100
AcDbEntity
  8
Layer_1
 62
7
100
AcDbPolyline
 90
65
 70
0
 10
84.382675
 20
31.879033
 30
0.0
 10
87.597841
 20
31.879033
 30
0.0
 10
90.813007
 20
31.879033
 30
0.0
 10
94.028173
 20
31.879033
 30
0.0
 10
97.243341
 20
31.879033
 30
0.0
 10
100.458507
 20
31.879033
 30
0.0
 10
103.673673
 20
31.879033
 30
0.0
 10
106.888839
 20
31.879033
 30
0.0
 10
110.104005
 20
31.879033
 30
0.0
 10
110.104005
 20
31.446271
 30
0.0
 10
110.104005
 20
31.013509
 30
0.0
 10
110.104005
 20
30.580746
 30
0.0
 10
110.104005
 20
30.147987
 30
0.0
 10
110.104005
 20
29.715224
 30
0.0
 10
110.104005
 20
29.282462
 30
0.0
 10
110.104005
 20
28.849700
 30
0.0
 10
110.104005
 20
28.416937
 30
0.0
 10
108.754805
 20
28.416937
 30
0.0
 10
107.405607
 20
28.416937
 30
0.0
 10
106.056407
 20
28.416937
 30
0.0
 10
104.707210
 20
28.416937
 30
0.0
 10
103.358010
 20
28.416937
 30
0.0
 10
102.008810
 20
28.416937
 30
0.0
 10
100.659613
 20
28.416937
 30
0.0
 10
99.310413
 20
28.416937
 30
0.0
 10
99.310413
 20
25.049030
 30
0.0
 10
99.310413
 20
21.681122
 30
0.0
 10
99.310413
 20
18.313215
 30
0.0
 10
99.310413
 20
14.945308
 30
0.0
 10
99.310413
 20
11.577406
 30
0.0
 10
99.310413
 20
8.209507
 30
0.0
 10
99.310413
 20
4.841580
 30
0.0
 10
99.310413
 20
1.473681
 30
0.0
 10
98.793644
 20
1.473681
 30
0.0
 10
98.276876
 20
1.473681
 30
0.0
 10
97.760107
 20
1.473681
 30
0.0
 10
97.243338
 20
1.473681
 30
0.0
 10
96.726570
 20
1.473681
 30
0.0
 10
96.209801
 20
1.473681
 30
0.0
 10
95.693032
 20
1.473681
 30
0.0
 10
95.176264
 20
1.473681
 30
0.0
 10
95.176264
 20
4.841580
 30
0.0
 10
95.176264
 20
8.209507
 30
0.0
 10
95.176264
 20
11.577406
 30
0.0
 10
95.176264
 20
14.945308
 30
0.0
 10
95.176264
 20
18.313215
 30
0.0
 10
95.176264
 20
21.681122
 30
0.0
 10
95.176264
 20
25.049030
 30
0.0
 10
95.176264
 20
28.416937
 30
0.0
 10
93.827067
 20
28.416937
 30
0.0
 10
92.477867
 20
28.416937
 30
0.0
 10
91.128669
 20
28.416937
 30
0.0
 10
89.779469
 20
28.416937
 30
0.0
 10
88.430272
 20
28.416937
 30
0.0
 10
87.081072
 20
28.416937
 30
0.0
 10
85.731875
 20
28.416937
 30
0.0
 10
84.382675
 20
28.416937
 30
0.0
 10
84.382675
 20
28.849700
 30
0.0
 10
84.382675
 20
29.282462
 30
0.0
 10
84.382675
 20
29.715224
 30
0.0
 10
84.382675
 20
30.147987
 30
0.0
 10
84.382675
 20
30.580746
 30
0.0
 10
84.382675
 20
31.013509
 30
0.0
 10
84.382675
 20
31.446271
 30
0.0
 10
84.382675
 20
31.879033
 30
0.0
  0
LWPOLYLINE
  5
116
100
AcDbEntity
  8
Layer_1
 62
7
100
AcDbPolyline
 90
97
 70
0
 10
114.095601
 20
31.879033
 30
0.0
 10
116.498703
 20
31.879033
 30
0.0
 10
118.901803
 20
31.879033
 30
0.0
 10
121.304905
 20
31.879033
 30
0.0
 10
123.708005
 20
31.879033
 30
0.0
 10
126.111107
 20
31.879033
 30
0.0
 10
128.514207
 20
31.879033
 30
0.0
 10
130.917307
 20
31.879033
 30
0.0
 10
133.320409
 20
31.879033
 30
0.0
 10
133.320409
 20
31.446271
 30
0.0
 10
133.320409
 20
31.013509
 30
0.0
 10
133.320409
 20
30.580746
 30
0.0
 10
133.320409
 20
30.147987
 30
0.0
 10
133.320409
 20
29.715224
 30
0.0
 10
133.320409
 20
29.282462
 30
0.0
 10
133.320409
 20
28.849700
 30
0.0
 10
133.320409
 20
28.416937
 30
0.0
 10
131.431530
 20
28.416937
 30
0.0
 10
129.542653
 20
28.416937
 30
0.0
 10
127.653773
 20
28.416937
 30
0.0
 10
125.764897
 20
28.416937
 30
0.0
 10
123.876017
 20
28.416937
 30
0.0
 10
121.987138
 20
28.416937
 30
0.0
 10
120.098261
 20
28.416937
 30
0.0
 10
118.209382
 20
28.416937
 30
0.0
 10
118.209382
 20
27.291757
 30
0.0
 10
118.209382
 20
26.166576
 30
0.0
 10
118.209382
 20
25.041396
 30
0.0
 10
118.209382
 20
23.916212
 30
0.0
 10
118.209382
 20
22.791032
 30
0.0
 10
118.209382
 20
21.665851
 30
0.0
 10
118.209382
 20
20.540671
 30
0.0
 10
118.209382
 20
19.415490
 30
0.0
 10
120.019346
 20
19.415490
 30
0.0
 10
121.829308
 20
19.415490
 30
0.0
 10
123.639272
 20
19.415490
 30
0.0
 10
125.449234
 20
19.415490
 30
0.0
 10
127.259199
 20
19.415490
 30
0.0
 10
129.069160
 20
19.415490
 30
0.0
 10
130.879125
 20
19.415490
 30
0.0
 10
132.689086
 20
19.415490
 30
0.0
 10
132.689086
 20
18.982728
 30
0.0
 10
132.689086
 20
18.549966
 30
0.0
 10
132.689086
 20
18.117206
 30
0.0
 10
132.689086
 20
17.684444
 30
0.0
 10
132.689086
 20
17.251681
 30
0.0
 10
132.689086
 20
16.818919
 30
0.0
 10
132.689086
 20
16.386159
 30
0.0
 10
132.689086
 20
15.953397
 30
0.0
 10
130.879125
 20
15.953397
 30
0.0
 10
129.069160
 20
15.953397
 30
0.0
 10
127.259199
 20
15.953397
 30
0.0
 10
125.449234
 20
15.953397
 30
0.0
 10
123.639272
 20
15.953397
 30
0.0
 10
121.829308
 20
15.953397
 30
0.0
 10
120.019346
 20
15.953397
 30
0.0
 10
118.209382
 20
15.953397
 30
0.0
 10
118.209382
 20
14.576186
 30
0.0
 10
118.209382
 20
13.198998
 30
0.0
 10
118.209382
 20
11.821782
 30
0.0
 10
118.209382
 20
10.444594
 30
0.0
 10
118.209382
 20
9.067378
 30
0.0
 10
118.209382
 20
7.690190
 30
0.0
 10
118.209382
 20
6.312974
 30
0.0
 10
118.209382
 20
4.935786
 30
0.0
 10
120.144083
 20
4.935786
 30
0.0
 10
122.078784
 20
4.935786
 30
0.0
 10
124.013482
 20
4.935786
 30
0.0
 10
125.948183
 20
4.935786
 30
0.0
 10
127.882884
 20
4.935786
 30
0.0
 10
129.817582
 20
4.935786
 30
0.0
 10
131.752284
 20
4.935786
 30
0.0
 10
133.686985
 20
4.935786
 30
0.0
 10
133.686985
 20
4.503026
 30
0.0
 10
133.686985
 20
4.070267
 30
0.0
 10
133.686985
 20
3.637507
 30
0.0
 10
133.686985
 20
3.204748
 30
0.0
 10
133.686985
 20
2.771960
 30
0.0
 10
133.686985
 20
2.339200
 30
0.0
 10
133.686985
 20
1.906441
 30
0.0
 10
133.686985
 20
1.473681
 30
0.0
 10
131.238061
 20
1.473681
 30
0.0
 10
128.789139
 20
1.473681
 30
0.0
 10
126.340215
 20
1.473681
 30
0.0
 10
123.891294
 20
1.473681
 30
0.0
 10
121.442370
 20
1.473681
 30
0.0
 10
118.993446
 20
1.473681
 30
0.0
 10
116.544525
 20
1.473681
 30
0.0
 10
114.095601
 20
1.473681
 30
0.0
 10
114.095601
 20
5.274340
 30
0.0
 10
114.095601
 20
9.075026
 30
0.0
 10
114.095601
 20
12.875685
 30
0.0
 10
114.095601
 20
16.676357
 30
0.0
 10
114.095601
 20
20.477027
 30
0.0
 10
114.095601
 20
24.277697
 30
0.0
 10
114.095601
 20
28.078364
 30
0.0
 10
114.095601
 20
31.879033
 30
0.0
  0
ENDSEC
  0
SECTION
  2
OBJECTS
  0
DICTIONARY
  5
C
330
0
100
AcDbDictionary
  3
ACAD_GROUP
350
D
  3
ACAD_MLINESTYLE
350
17
  0
DICTIONARY
  5
D
330
C
100
AcDbDictionary
  0
DICTIONARY
  5
1A
330
C
100
AcDbDictionary
  0
DICTIONARY
  5
17
330
C
100
AcDbDictionary
  3
STANDARD
350
18
  0
DICTIONARY
  5
19
330
C
100
AcDbDictionary
  0
ENDSEC
  0
EOF
