solid heart
facet normal 0.0 0.0 -1.0
outer loop
vertex -4.13860524735403 19.9432117944075 0.0
vertex -6.5 7.96020419445779e-016 0.0
vertex -6.69627787493763 21.6856329724627 0.0
endloop
endfacet
facet normal 0.0 0.0 -1.0
outer loop
vertex -6.5 7.96020419445779e-016 0.0
vertex -4.13860524735403 19.9432117944075 0.0
vertex -6.27851787087894 1.68232379316639 0.0
endloop
endfacet
facet normal 0.0 0.0 -1.0
outer loop
vertex -6.27851787087894 1.68232379316639 0.0
vertex -4.13860524735403 19.9432117944075 0.0
vertex -5.62916512459885 3.25 0.0
endloop
endfacet
facet normal 0.0 0.0 -1.0
outer loop
vertex -5.62916512459885 3.25 0.0
vertex -4.13860524735403 19.9432117944075 0.0
vertex -4.59619407771256 4.59619407771256 0.0
endloop
endfacet
facet normal 0.0 0.0 -1.0
outer loop
vertex -4.59619407771256 4.59619407771256 0.0
vertex -4.13860524735403 19.9432117944075 0.0
vertex -3.25 5.62916512459885 0.0
endloop
endfacet
facet normal 0.0 0.0 -1.0
outer loop
vertex -3.25 5.62916512459885 0.0
vertex -4.13860524735403 19.9432117944075 0.0
vertex -1.4213546607594 17.2867951761695 0.0
endloop
endfacet
facet normal 0.0 0.0 -1.0
outer loop
vertex -3.25 5.62916512459885 0.0
vertex -1.4213546607594 17.2867951761695 0.0
vertex -1.68232379316638 6.27851787087894 0.0
endloop
endfacet
facet normal 0.0 0.0 -1.0
outer loop
vertex -1.68232379316638 6.27851787087894 0.0
vertex -1.4213546607594 17.2867951761695 0.0
vertex 3.9801020972289e-016 6.5 0.0
endloop
endfacet
facet normal 0.0 0.0 -1.0
outer loop
vertex 3.9801020972289e-016 6.5 0.0
vertex -1.4213546607594 17.2867951761695 0.0
vertex 0.0108832530097672 14.7651499675087 0.0
endloop
endfacet
facet normal 0.0 0.0 -1.0
outer loop
vertex 3.9801020972289e-016 6.5 0.0
vertex 0.0108832530097672 14.7651499675087 0.0
vertex 1.68232379316639 6.27851787087894 0.0
endloop
endfacet
facet normal 0.0 0.0 -1.0
outer loop
vertex 1.68232379316639 6.27851787087894 0.0
vertex 0.0108832530097672 14.7651499675087 0.0
vertex 1.20137306808296 17.2994613138525 0.0
endloop
endfacet
facet normal 0.0 0.0 -1.0
outer loop
vertex 1.68232379316639 6.27851787087894 0.0
vertex 1.20137306808296 17.2994613138525 0.0
vertex 3.59386045583956 19.7152436093886 0.0
endloop
endfacet
facet normal 0.0 0.0 -1.0
outer loop
vertex 1.68232379316639 6.27851787087894 0.0
vertex 3.59386045583956 19.7152436093886 0.0
vertex 3.25 5.62916512459885 0.0
endloop
endfacet
facet normal 0.0 0.0 -1.0
outer loop
vertex 3.25 5.62916512459885 0.0
vertex 3.59386045583956 19.7152436093886 0.0
vertex 4.59619407771256 4.59619407771256 0.0
endloop
endfacet
facet normal 0.0 0.0 -1.0
outer loop
vertex 4.59619407771256 4.59619407771256 0.0
vertex 3.59386045583956 19.7152436093886 0.0
vertex 6.57559171869467 21.7324889281618 0.0
endloop
endfacet
facet normal 0.0 0.0 -1.0
outer loop
vertex 4.59619407771256 4.59619407771256 0.0
vertex 6.57559171869467 21.7324889281618 0.0
vertex 5.62916512459885 3.25 0.0
endloop
endfacet
facet normal 0.0 0.0 -1.0
outer loop
vertex 5.62916512459885 3.25 0.0
vertex 6.57559171869467 21.7324889281618 0.0
vertex 6.27851787087894 1.68232379316638 0.0
endloop
endfacet
facet normal 0.0 0.0 -1.0
outer loop
vertex 6.27851787087894 1.68232379316638 0.0
vertex 6.57559171869467 21.7324889281618 0.0
vertex 6.5 0.0 0.0
endloop
endfacet
facet normal 0.0 0.0 -1.0
outer loop
vertex -28.5874489322294 14.3254771101856 0.0
vertex -29.4218724994622 2.34811553659703 0.0
vertex -29.4218724994622 11.548115536597 0.0
endloop
endfacet
facet normal 0.0 0.0 -1.0
outer loop
vertex -29.4218724994622 2.34811553659703 0.0
vertex -28.5874489322294 14.3254771101856 0.0
vertex -28.7251556556129 -1.34120406598923 0.0
endloop
endfacet
facet normal 0.0 0.0 -1.0
outer loop
vertex -28.7251556556129 -1.34120406598923 0.0
vertex -28.5874489322294 14.3254771101856 0.0
vertex -27.3730074193936 -3.67823105498383 0.0
endloop
endfacet
facet normal 0.0 0.0 -1.0
outer loop
vertex -27.3730074193936 -3.67823105498383 0.0
vertex -28.5874489322294 14.3254771101856 0.0
vertex -26.0194368404109 18.7317582968865 0.0
endloop
endfacet
facet normal 0.0 0.0 -1.0
outer loop
vertex -27.3730074193936 -3.67823105498383 0.0
vertex -26.0194368404109 18.7317582968865 0.0
vertex -24.6687109469552 -8.35228503297304 0.0
endloop
endfacet
facet normal 0.0 0.0 -1.0
outer loop
vertex -24.6687109469552 -8.35228503297304 0.0
vertex -26.0194368404109 18.7317582968865 0.0
vertex -23.253450983578 20.8763613463576 0.0
endloop
endfacet
facet normal 0.0 0.0 -1.0
outer loop
vertex -24.6687109469552 -8.35228503297304 0.0
vertex -23.253450983578 20.8763613463576 0.0
vertex 0.0 -31.1648846265217 0.0
endloop
endfacet
facet normal 0.0 0.0 -1.0
outer loop
vertex 0.0 -31.1648846265217 0.0
vertex -23.253450983578 20.8763613463576 0.0
vertex -20.7664848392865 22.1628291450792 0.0
endloop
endfacet
facet normal 0.0 0.0 -1.0
outer loop
vertex 0.0 -31.1648846265217 0.0
vertex -20.7664848392865 22.1628291450792 0.0
vertex -18.6089597684134 22.9597517062821 0.0
endloop
endfacet
facet normal 0.0 0.0 -1.0
outer loop
vertex 0.0 -31.1648846265217 0.0
vertex -18.6089597684134 22.9597517062821 0.0
vertex -15.5767150844603 23.6043385325807 0.0
endloop
endfacet
facet normal 0.0 0.0 -1.0
outer loop
vertex 0.0 -31.1648846265217 0.0
vertex -15.5767150844603 23.6043385325807 0.0
vertex -12.5767150844603 23.6043385325807 0.0
endloop
endfacet
facet normal 0.0 0.0 -1.0
outer loop
vertex 0.0 -31.1648846265217 0.0
vertex -12.5767150844603 23.6043385325807 0.0
vertex -6.27851787087894 -1.68232379316638 0.0
endloop
endfacet
facet normal 0.0 0.0 -1.0
outer loop
vertex -6.27851787087894 -1.68232379316638 0.0
vertex -12.5767150844603 23.6043385325807 0.0
vertex -6.5 7.96020419445779e-016 0.0
endloop
endfacet
facet normal 0.0 0.0 -1.0
outer loop
vertex -6.5 7.96020419445779e-016 0.0
vertex -12.5767150844603 23.6043385325807 0.0
vertex -8.62150234828804 22.5243884357609 0.0
endloop
endfacet
facet normal 0.0 0.0 -1.0
outer loop
vertex -6.5 7.96020419445779e-016 0.0
vertex -8.62150234828804 22.5243884357609 0.0
vertex -6.69627787493763 21.6856329724627 0.0
endloop
endfacet
facet normal 0.0 0.0 -1.0
outer loop
vertex 0.0 -31.1648846265217 0.0
vertex -6.27851787087894 -1.68232379316638 0.0
vertex -5.62916512459885 -3.25 0.0
endloop
endfacet
facet normal 0.0 0.0 -1.0
outer loop
vertex 0.0 -31.1648846265217 0.0
vertex -5.62916512459885 -3.25 0.0
vertex -4.59619407771256 -4.59619407771256 0.0
endloop
endfacet
facet normal 0.0 0.0 -1.0
outer loop
vertex 0.0 -31.1648846265217 0.0
vertex -4.59619407771256 -4.59619407771256 0.0
vertex -3.25 -5.62916512459885 0.0
endloop
endfacet
facet normal 0.0 0.0 -1.0
outer loop
vertex 0.0 -31.1648846265217 0.0
vertex -3.25 -5.62916512459885 0.0
vertex -1.68232379316639 -6.27851787087894 0.0
endloop
endfacet
facet normal 0.0 0.0 -1.0
outer loop
vertex 0.0 -31.1648846265217 0.0
vertex -1.68232379316639 -6.27851787087894 0.0
vertex -1.19403062916867e-015 -6.5 0.0
endloop
endfacet
facet normal 0.0 0.0 -1.0
outer loop
vertex 0.0 -31.1648846265217 0.0
vertex -1.19403062916867e-015 -6.5 0.0
vertex 1.68232379316638 -6.27851787087894 0.0
endloop
endfacet
facet normal 0.0 0.0 -1.0
outer loop
vertex 0.0 -31.1648846265217 0.0
vertex 1.68232379316638 -6.27851787087894 0.0
vertex 24.4890222207218 -8.56115781181846 0.0
endloop
endfacet
facet normal 0.0 0.0 -1.0
outer loop
vertex 24.4890222207218 -8.56115781181846 0.0
vertex 1.68232379316638 -6.27851787087894 0.0
vertex 3.24999999999999 -5.62916512459885 0.0
endloop
endfacet
facet normal 0.0 0.0 -1.0
outer loop
vertex 24.4890222207218 -8.56115781181846 0.0
vertex 3.24999999999999 -5.62916512459885 0.0
vertex 4.59619407771256 -4.59619407771256 0.0
endloop
endfacet
facet normal 0.0 0.0 -1.0
outer loop
vertex 24.4890222207218 -8.56115781181846 0.0
vertex 4.59619407771256 -4.59619407771256 0.0
vertex 5.62916512459885 -3.25 0.0
endloop
endfacet
facet normal 0.0 0.0 -1.0
outer loop
vertex 24.4890222207218 -8.56115781181846 0.0
vertex 5.62916512459885 -3.25 0.0
vertex 6.27851787087894 -1.68232379316639 0.0
endloop
endfacet
facet normal 0.0 0.0 -1.0
outer loop
vertex 24.4890222207218 -8.56115781181846 0.0
vertex 6.27851787087894 -1.68232379316639 0.0
vertex 6.5 0.0 0.0
endloop
endfacet
facet normal 0.0 0.0 -1.0
outer loop
vertex 24.4890222207218 -8.56115781181846 0.0
vertex 6.5 0.0 0.0
vertex 6.57559171869467 21.7324889281618 0.0
endloop
endfacet
facet normal 0.0 0.0 -1.0
outer loop
vertex 24.4890222207218 -8.56115781181846 0.0
vertex 6.57559171869467 21.7324889281618 0.0
vertex 9.84190727611439 22.9899397937458 0.0
endloop
endfacet
facet normal 0.0 0.0 -1.0
outer loop
vertex 24.4890222207218 -8.56115781181846 0.0
vertex 9.84190727611439 22.9899397937458 0.0
vertex 12.5813133230362 23.569296773585 0.0
endloop
endfacet
facet normal 0.0 0.0 -1.0
outer loop
vertex 24.4890222207218 -8.56115781181846 0.0
vertex 12.5813133230362 23.569296773585 0.0
vertex 15.3813133230362 23.569296773585 0.0
endloop
endfacet
facet normal 0.0 0.0 -1.0
outer loop
vertex 24.4890222207218 -8.56115781181846 0.0
vertex 15.3813133230362 23.569296773585 0.0
vertex 19.6027720472066 22.7511976108146 0.0
endloop
endfacet
facet normal 0.0 0.0 -1.0
outer loop
vertex 24.4890222207218 -8.56115781181846 0.0
vertex 19.6027720472066 22.7511976108146 0.0
vertex 23.24601568221 20.8705658510044 0.0
endloop
endfacet
facet normal 0.0 0.0 -1.0
outer loop
vertex 24.4890222207218 -8.56115781181846 0.0
vertex 23.24601568221 20.8705658510044 0.0
vertex 25.754678013785 18.7265944645031 0.0
endloop
endfacet
facet normal 0.0 0.0 -1.0
outer loop
vertex 24.4890222207218 -8.56115781181846 0.0
vertex 25.754678013785 18.7265944645031 0.0
vertex 26.9794670575792 -4.69364122949195 0.0
endloop
endfacet
facet normal 0.0 0.0 -1.0
outer loop
vertex 26.9794670575792 -4.69364122949195 0.0
vertex 25.754678013785 18.7265944645031 0.0
vertex 27.7614557098879 15.8590444163916 0.0
endloop
endfacet
facet normal 0.0 0.0 -1.0
outer loop
vertex 26.9794670575792 -4.69364122949195 0.0
vertex 27.7614557098879 15.8590444163916 0.0
vertex 28.414677543482 -1.72208088833202 0.0
endloop
endfacet
facet normal 0.0 0.0 -1.0
outer loop
vertex 28.414677543482 -1.72208088833202 0.0
vertex 27.7614557098879 15.8590444163916 0.0
vertex 28.8929912103084 13.0806226681165 0.0
endloop
endfacet
facet normal 0.0 0.0 -1.0
outer loop
vertex 28.414677543482 -1.72208088833202 0.0
vertex 28.8929912103084 13.0806226681165 0.0
vertex 28.9188172355006 0.109815170654785 0.0
endloop
endfacet
facet normal 0.0 0.0 -1.0
outer loop
vertex 28.9188172355006 0.109815170654785 0.0
vertex 28.8929912103084 13.0806226681165 0.0
vertex 29.1272135711428 11.7003546196255 0.0
endloop
endfacet
facet normal 0.0 0.0 -1.0
outer loop
vertex 28.9188172355006 0.109815170654785 0.0
vertex 29.1272135711428 11.7003546196255 0.0
vertex 29.1272135711428 2.40035461962547 0.0
endloop
endfacet
facet normal 0.818828292004144 -0.527275487689759 0.226937851173187
outer loop
vertex 26.9794670575792 -4.69364122949195 0.0
vertex 23.7499316701754 -8.41773126887302 3.0
vertex 24.4890222207218 -8.56115781181846 0.0
endloop
endfacet
facet normal 0.818828292004144 -0.527275487689759 0.226937851173187
outer loop
vertex 23.7499316701754 -8.41773126887302 3.0
vertex 26.9794670575792 -4.69364122949195 0.0
vertex 26.165663161927 -4.66624018401631 3.0
endloop
endfacet
facet normal 0.873947316571356 -0.422100919673826 0.240929245771939
outer loop
vertex 28.414677543482 -1.72208088833202 0.0
vertex 26.165663161927 -4.66624018401631 3.0
vertex 26.9794670575792 -4.69364122949195 0.0
endloop
endfacet
facet normal 0.873947316571356 -0.422100919673826 0.240929245771939
outer loop
vertex 26.165663161927 -4.66624018401631 3.0
vertex 28.414677543482 -1.72208088833202 0.0
vertex 27.5578173332528 -1.78382665309118 3.0
endloop
endfacet
facet normal 0.930842545759973 -0.256168832306339 0.260594866330668
outer loop
vertex 28.414677543482 -1.72208088833202 0.0
vertex 28.0468328345108 -0.0068874758739731 3.0
vertex 27.5578173332528 -1.78382665309118 3.0
endloop
endfacet
facet normal 0.930842545759973 -0.256168832306339 0.260594866330668
outer loop
vertex 28.0468328345108 -0.0068874758739731 3.0
vertex 28.414677543482 -1.72208088833202 0.0
vertex 28.9188172355006 0.109815170654785 0.0
endloop
endfacet
facet normal 0.957511514064064 -0.0871156752859281 0.274922824723996
outer loop
vertex 28.9188172355006 0.109815170654785 0.0
vertex 28.2489772800837 2.21493578962759 3.0
vertex 28.0468328345108 -0.0068874758739731 3.0
endloop
endfacet
facet normal 0.957511514064064 -0.0871156752859281 0.274922824723996
outer loop
vertex 28.2489772800837 2.21493578962759 3.0
vertex 28.9188172355006 0.109815170654785 0.0
vertex 29.1272135711428 2.40035461962547 0.0
endloop
endfacet
facet normal 0.959721233860647 2.68750915999761e-018 0.28095400562547
outer loop
vertex 29.1272135711428 2.40035461962547 0.0
vertex 28.2489772800837 11.2359357896276 3.0
vertex 28.2489772800837 2.21493578962759 3.0
endloop
endfacet
facet normal 0.959721233860647 2.68750915999761e-018 0.28095400562547
outer loop
vertex 28.2489772800837 11.2359357896276 3.0
vertex 29.1272135711428 2.40035461962547 0.0
vertex 29.1272135711428 11.7003546196255 0.0
endloop
endfacet
facet normal 0.940485178907861 0.159594115921405 0.30002890930361
outer loop
vertex 29.1272135711428 11.7003546196255 0.0
vertex 28.0217815900744 12.5747957966639 3.0
vertex 28.2489772800837 11.2359357896276 3.0
endloop
endfacet
facet normal 0.940485178907861 0.159594115921405 0.30002890930361
outer loop
vertex 28.0217815900744 12.5747957966639 3.0
vertex 29.1272135711428 11.7003546196255 0.0
vertex 28.8929912103084 13.0806226681165 0.0
endloop
endfacet
facet normal 0.878820441408259 0.357906976709378 0.315558596437723
outer loop
vertex 28.8929912103084 13.0806226681165 0.0
vertex 26.9241921546665 15.2698648924907 3.0
vertex 28.0217815900744 12.5747957966639 3.0
endloop
endfacet
facet normal 0.878820441408259 0.357906976709378 0.315558596437723
outer loop
vertex 26.9241921546665 15.2698648924907 3.0
vertex 28.8929912103084 13.0806226681165 0.0
vertex 27.7614557098879 15.8590444163916 0.0
endloop
endfacet
facet normal 0.77539227655569 0.542637408315554 0.322972848014136
outer loop
vertex 27.7614557098879 15.8590444163916 0.0
vertex 24.9776177894467 18.0513884391588 3.0
vertex 26.9241921546665 15.2698648924907 3.0
endloop
endfacet
facet normal 0.77539227655569 0.542637408315554 0.322972848014136
outer loop
vertex 24.9776177894467 18.0513884391588 3.0
vertex 27.7614557098879 15.8590444163916 0.0
vertex 25.754678013785 18.7265944645031 0.0
endloop
endfacet
facet normal 0.615223389914281 0.71987329378516 0.321376136944368
outer loop
vertex 22.5442153278189 20.1310406840652 3.0
vertex 25.754678013785 18.7265944645031 0.0
vertex 23.24601568221 20.8705658510044 0.0
endloop
endfacet
facet normal 0.615223389914281 0.71987329378516 0.321376136944368
outer loop
vertex 25.754678013785 18.7265944645031 0.0
vertex 22.5442153278189 20.1310406840652 3.0
vertex 24.9776177894467 18.0513884391588 3.0
endloop
endfacet
facet normal 0.436057158862326 0.84474935629247 0.310246159119453
outer loop
vertex 19.0102690018656 21.9552534910811 3.0
vertex 23.24601568221 20.8705658510044 0.0
vertex 19.6027720472066 22.7511976108146 0.0
endloop
endfacet
facet normal 0.436057158862326 0.84474935629247 0.310246159119453
outer loop
vertex 23.24601568221 20.8705658510044 0.0
vertex 19.0102690018656 21.9552534910811 3.0
vertex 22.5442153278189 20.1310406840652 3.0
endloop
endfacet
facet normal -0.199165109772637 0.936906124509125 0.287298055869764
outer loop
vertex -18.0551108592858 22.1575509636845 3.0
vertex -15.5767150844603 23.6043385325807 0.0
vertex -18.6089597684134 22.9597517062821 0.0
endloop
endfacet
facet normal -0.199165109772637 0.936906124509125 0.287298055869764
outer loop
vertex -15.5767150844603 23.6043385325807 0.0
vertex -18.0551108592858 22.1575509636845 3.0
vertex -15.1138335158512 22.7828001851942 3.0
endloop
endfacet
facet normal -0.330498474207226 0.894765412226567 0.300275899182263
outer loop
vertex -20.1479101780327 21.3845360793177 3.0
vertex -18.6089597684134 22.9597517062821 0.0
vertex -20.7664848392865 22.1628291450792 0.0
endloop
endfacet
facet normal -0.330498474207226 0.894765412226567 0.300275899182263
outer loop
vertex -18.6089597684134 22.9597517062821 0.0
vertex -20.1479101780327 21.3845360793177 3.0
vertex -18.0551108592858 22.1575509636845 3.0
endloop
endfacet
facet normal -0.43693437766417 0.844670193538998 0.309225829713524
outer loop
vertex -22.5602673379955 20.1366623145577 3.0
vertex -20.7664848392865 22.1628291450792 0.0
vertex -23.253450983578 20.8763613463576 0.0
endloop
endfacet
facet normal -0.43693437766417 0.844670193538998 0.309225829713524
outer loop
vertex -20.7664848392865 22.1628291450792 0.0
vertex -22.5602673379955 20.1366623145577 3.0
vertex -20.1479101780327 21.3845360793177 3.0
endloop
endfacet
facet normal -0.580756529017255 0.749026420493638 0.31887501533723
outer loop
vertex -25.2432736191234 18.0563973565708 3.0
vertex -23.253450983578 20.8763613463576 0.0
vertex -26.0194368404109 18.7317582968865 0.0
endloop
endfacet
facet normal -0.580756529017255 0.749026420493638 0.31887501533723
outer loop
vertex -23.253450983578 20.8763613463576 0.0
vertex -25.2432736191234 18.0563973565708 3.0
vertex -22.5602673379955 20.1366623145577 3.0
endloop
endfacet
facet normal -0.818763892060518 0.477181433972461 0.319254707294816
outer loop
vertex -25.2432736191234 18.0563973565708 3.0
vertex -28.5874489322294 14.3254771101856 0.0
vertex -27.7342453481873 13.7823046054709 3.0
endloop
endfacet
facet normal -0.818763892060518 0.477181433972461 0.319254707294816
outer loop
vertex -28.5874489322294 14.3254771101856 0.0
vertex -25.2432736191234 18.0563973565708 3.0
vertex -26.0194368404109 18.7317582968865 0.0
endloop
endfacet
facet normal -0.91095744424475 0.273685776980703 0.308630248442278
outer loop
vertex -27.7342453481873 13.7823046054709 3.0
vertex -29.4218724994622 11.548115536597 0.0
vertex -28.5436362084031 11.08826387909 3.0
endloop
endfacet
facet normal -0.91095744424475 0.273685776980703 0.308630248442278
outer loop
vertex -29.4218724994622 11.548115536597 0.0
vertex -27.7342453481873 13.7823046054709 3.0
vertex -28.5874489322294 14.3254771101856 0.0
endloop
endfacet
facet normal -0.959721233860647 -4.57708465753373e-019 0.28095400562547
outer loop
vertex -28.5436362084031 11.08826387909 3.0
vertex -29.4218724994622 2.34811553659703 0.0
vertex -28.5436362084031 2.16426387909 3.0
endloop
endfacet
facet normal -0.959721233860647 -4.57708465753373e-019 0.28095400562547
outer loop
vertex -29.4218724994622 2.34811553659703 0.0
vertex -28.5436362084031 11.08826387909 3.0
vertex -29.4218724994622 11.548115536597 0.0
endloop
endfacet
facet normal -0.947145971529708 -0.178865650860429 0.266311072915344
outer loop
vertex -28.5436362084031 2.16426387909 3.0
vertex -28.7251556556129 -1.34120406598923 0.0
vertex -27.8678208698693 -1.41437613541866 3.0
endloop
endfacet
facet normal -0.947145971529708 -0.178865650860429 0.266311072915344
outer loop
vertex -28.7251556556129 -1.34120406598923 0.0
vertex -28.5436362084031 2.16426387909 3.0
vertex -29.4218724994622 2.34811553659703 0.0
endloop
endfacet
facet normal -0.842584359486148 -0.487499271899828 0.228901850246903
outer loop
vertex -27.8678208698693 -1.41437613541866 3.0
vertex -27.3730074193936 -3.67823105498383 0.0
vertex -26.5562370807366 -3.68129231474343 3.0
endloop
endfacet
facet normal -0.842584359486148 -0.487499271899828 0.228901850246903
outer loop
vertex -27.3730074193936 -3.67823105498383 0.0
vertex -27.8678208698693 -1.41437613541866 3.0
vertex -28.7251556556129 -1.34120406598923 0.0
endloop
endfacet
facet normal -0.842584359486148 -0.487499271899828 0.228901850246902
outer loop
vertex -23.9330695024713 -8.21512467339296 3.0
vertex -27.3730074193936 -3.67823105498383 0.0
vertex -24.6687109469552 -8.35228503297304 0.0
endloop
endfacet
facet normal -0.842584359486148 -0.487499271899828 0.228901850246902
outer loop
vertex -27.3730074193936 -3.67823105498383 0.0
vertex -23.9330695024713 -8.21512467339296 3.0
vertex -26.5562370807366 -3.68129231474343 3.0
endloop
endfacet
facet normal -0.665754796188247 -0.719922890040178 0.196167234135939
outer loop
vertex -0.00441988392479207 -30.3433462791351 3.0
vertex -24.6687109469552 -8.35228503297304 0.0
vertex 0.0 -31.1648846265217 0.0
endloop
endfacet
facet normal -0.665754796188247 -0.719922890040178 0.196167234135939
outer loop
vertex -24.6687109469552 -8.35228503297304 0.0
vertex -0.00441988392479207 -30.3433462791351 3.0
vertex -23.9330695024713 -8.21512467339296 3.0
endloop
endfacet
facet normal 0.664797701652098 -0.720246082493489 0.198216034999366
outer loop
vertex 23.7499316701754 -8.41773126887302 3.0
vertex 0.0 -31.1648846265217 0.0
vertex 24.4890222207218 -8.56115781181846 0.0
endloop
endfacet
facet normal 0.664797701652098 -0.720246082493489 0.198216034999366
outer loop
vertex 0.0 -31.1648846265217 0.0
vertex 23.7499316701754 -8.41773126887302 3.0
vertex -0.00441988392479207 -30.3433462791351 3.0
endloop
endfacet
facet normal 0.182329681176801 0.940836097023429 0.285627950137389
outer loop
vertex 14.9154540394203 22.7488096789683 3.0
vertex 19.6027720472066 22.7511976108146 0.0
vertex 15.3813133230362 23.569296773585 0.0
endloop
endfacet
facet normal 0.182329681176801 0.940836097023429 0.285627950137389
outer loop
vertex 19.6027720472066 22.7511976108146 0.0
vertex 14.9154540394203 22.7488096789683 3.0
vertex 19.0102690018656 21.9552534910811 3.0
endloop
endfacet
facet normal 4.96637633084162e-018 0.964575422703388 0.263807228704181
outer loop
vertex 12.1994540394203 22.7488096789683 3.0
vertex 15.3813133230362 23.569296773585 0.0
vertex 12.5813133230362 23.569296773585 0.0
endloop
endfacet
facet normal 4.96637633084162e-018 0.964575422703388 0.263807228704181
outer loop
vertex 15.3813133230362 23.569296773585 0.0
vertex 12.1994540394203 22.7488096789683 3.0
vertex 14.9154540394203 22.7488096789683 3.0
endloop
endfacet
facet normal -0.20114304532804 0.951075923553713 0.234512394027721
outer loop
vertex 9.54223017390616 22.1868334085243 3.0
vertex 12.5813133230362 23.569296773585 0.0
vertex 9.84190727611439 22.9899397937458 0.0
endloop
endfacet
facet normal -0.20114304532804 0.951075923553713 0.234512394027721
outer loop
vertex 12.5813133230362 23.569296773585 0.0
vertex 9.54223017390616 22.1868334085243 3.0
vertex 12.1994540394203 22.7488096789683 3.0
endloop
endfacet
facet normal -0.351321579047676 0.912582090249503 0.209205823655307
outer loop
vertex 6.37390408320904 20.9671060689078 3.0
vertex 9.84190727611439 22.9899397937458 0.0
vertex 6.57559171869467 21.7324889281618 0.0
endloop
endfacet
facet normal -0.351321579047676 0.912582090249503 0.209205823655307
outer loop
vertex 9.84190727611439 22.9899397937458 0.0
vertex 6.37390408320904 20.9671060689078 3.0
vertex 9.54223017390616 22.1868334085243 3.0
endloop
endfacet
facet normal -0.552084811330943 0.816047768892114 0.171080098152532
outer loop
vertex 3.48162475823958 19.0103781096978 3.0
vertex 6.57559171869467 21.7324889281618 0.0
vertex 3.59386045583956 19.7152436093886 0.0
endloop
endfacet
facet normal -0.552084811330943 0.816047768892114 0.171080098152532
outer loop
vertex 6.57559171869467 21.7324889281618 0.0
vertex 3.48162475823958 19.0103781096978 3.0
vertex 6.37390408320904 20.9671060689078 3.0
endloop
endfacet
facet normal -0.703782095890533 0.696995665237853 0.137432907789843
outer loop
vertex 3.48162475823958 19.0103781096978 3.0
vertex 1.20137306808296 17.2994613138525 0.0
vertex 1.16091199211568 16.6670692830278 3.0
endloop
endfacet
facet normal -0.703782095890533 0.696995665237853 0.137432907789843
outer loop
vertex 1.20137306808296 17.2994613138525 0.0
vertex 3.48162475823958 19.0103781096978 3.0
vertex 3.59386045583956 19.7152436093886 0.0
endloop
endfacet
facet normal -0.902410880192088 0.423906464148455 0.077187518188467
outer loop
vertex 1.16091199211568 16.6670692830278 3.0
vertex 0.0108832530097672 14.7651499675087 0.0
vertex 0.0061368714946821 14.2087872770743 3.0
endloop
endfacet
facet normal -0.902410880192088 0.423906464148455 0.077187518188467
outer loop
vertex 0.0108832530097672 14.7651499675087 0.0
vertex 1.16091199211568 16.6670692830278 3.0
vertex 1.20137306808296 17.2994613138525 0.0
endloop
endfacet
facet normal 0.865799391661263 0.491754633124651 0.0925677816490503
outer loop
vertex 0.0108832530097672 14.7651499675087 0.0
vertex -1.38313390486141 16.6547831294753 3.0
vertex 0.0061368714946821 14.2087872770743 3.0
endloop
endfacet
facet normal 0.865799391661263 0.491754633124651 0.0925677816490503
outer loop
vertex -1.38313390486141 16.6547831294753 3.0
vertex 0.0108832530097672 14.7651499675087 0.0
vertex -1.4213546607594 17.2867951761695 0.0
endloop
endfacet
facet normal 0.692139226369364 0.707989743003776 0.140334654031942
outer loop
vertex -4.0188669738582 19.2315072491662 3.0
vertex -1.4213546607594 17.2867951761695 0.0
vertex -4.13860524735403 19.9432117944075 0.0
endloop
endfacet
facet normal 0.692139226369364 0.707989743003776 0.140334654031942
outer loop
vertex -1.4213546607594 17.2867951761695 0.0
vertex -4.0188669738582 19.2315072491662 3.0
vertex -1.38313390486141 16.6547831294753 3.0
endloop
endfacet
facet normal 0.554721893266641 0.814267537721872 0.171032155289681
outer loop
vertex -6.49980942261429 20.9216557918797 3.0
vertex -4.13860524735403 19.9432117944075 0.0
vertex -6.69627787493763 21.6856329724627 0.0
endloop
endfacet
facet normal 0.554721893266641 0.814267537721872 0.171032155289681
outer loop
vertex -4.13860524735403 19.9432117944075 0.0
vertex -6.49980942261429 20.9216557918797 3.0
vertex -4.0188669738582 19.2315072491662 3.0
endloop
endfacet
facet normal 0.391091888421427 0.897686760759796 0.202991660832527
outer loop
vertex -8.36727716176419 21.735248591279 3.0
vertex -6.69627787493763 21.6856329724627 0.0
vertex -8.62150234828804 22.5243884357609 0.0
endloop
endfacet
facet normal 0.391091888421427 0.897686760759796 0.202991660832527
outer loop
vertex -6.69627787493763 21.6856329724627 0.0
vertex -8.36727716176419 21.735248591279 3.0
vertex -6.49980942261429 20.9216557918797 3.0
endloop
endfacet
facet normal 0.256619487452699 0.939844042897749 0.225476414928764
outer loop
vertex -12.2038335158513 22.7828001851942 3.0
vertex -8.62150234828804 22.5243884357609 0.0
vertex -12.5767150844603 23.6043385325807 0.0
endloop
endfacet
facet normal 0.256619487452699 0.939844042897749 0.225476414928764
outer loop
vertex -8.62150234828804 22.5243884357609 0.0
vertex -12.2038335158513 22.7828001851942 3.0
vertex -8.36727716176419 21.735248591279 3.0
endloop
endfacet
facet normal 1.29776389321337e-017 0.964489369907447 0.264121667675214
outer loop
vertex -15.1138335158512 22.7828001851942 3.0
vertex -12.5767150844603 23.6043385325807 0.0
vertex -15.5767150844603 23.6043385325807 0.0
endloop
endfacet
facet normal 1.29776389321337e-017 0.964489369907447 0.264121667675214
outer loop
vertex -12.5767150844603 23.6043385325807 0.0
vertex -15.1138335158512 22.7828001851942 3.0
vertex -12.2038335158513 22.7828001851942 3.0
endloop
endfacet
facet normal -0.402514822956076 -0.435264809635125 0.80531134525346
outer loop
vertex -0.00441988392479207 -30.3433462791351 3.0
vertex -18.9380640944259 -7.28380583184422 6.0
vertex -23.9330695024713 -8.21512467339296 3.0
endloop
endfacet
facet normal -0.402514822956076 -0.435264809635125 0.80531134525346
outer loop
vertex -18.9380640944259 -7.28380583184422 6.0
vertex -0.00441988392479207 -30.3433462791351 3.0
vertex -0.0344308957741218 -24.7651009003805 6.0
endloop
endfacet
facet normal -0.459443460957377 -0.265823059939603 0.847496198804368
outer loop
vertex -23.9330695024713 -8.21512467339296 3.0
vertex -21.0103664812555 -3.70207826851111 6.0
vertex -26.5562370807366 -3.68129231474343 3.0
endloop
endfacet
facet normal -0.459443460957377 -0.265823059939603 0.847496198804368
outer loop
vertex -21.0103664812555 -3.70207826851111 6.0
vertex -23.9330695024713 -8.21512467339296 3.0
vertex -18.9380640944259 -7.28380583184422 6.0
endloop
endfacet
facet normal -0.459443460957377 -0.265823059939602 0.847496198804368
outer loop
vertex -26.5562370807366 -3.68129231474343 3.0
vertex -22.0465176746703 -1.91121448684454 6.0
vertex -27.8678208698693 -1.41437613541866 3.0
endloop
endfacet
facet normal -0.459443460957377 -0.265823059939602 0.847496198804368
outer loop
vertex -22.0465176746703 -1.91121448684454 6.0
vertex -26.5562370807366 -3.68129231474343 3.0
vertex -21.0103664812555 -3.70207826851111 6.0
endloop
endfacet
facet normal -0.462222955307278 -0.0872894065210865 0.882457080597239
outer loop
vertex -27.8678208698693 -1.41437613541866 3.0
vertex -22.5804117921119 0.915911124617297 6.0
vertex -28.5436362084031 2.16426387909 3.0
endloop
endfacet
facet normal -0.462222955307278 -0.0872894065210865 0.882457080597239
outer loop
vertex -22.5804117921119 0.915911124617297 6.0
vertex -27.8678208698693 -1.41437613541866 3.0
vertex -22.0465176746703 -1.91121448684454 6.0
endloop
endfacet
facet normal -0.449415909143195 1.75302972254205e-017 0.893322640824129
outer loop
vertex -22.5804117921119 0.915911124617297 6.0
vertex -28.5436362084031 11.08826387909 3.0
vertex -28.5436362084031 2.16426387909 3.0
endloop
endfacet
facet normal -0.449415909143195 1.75302972254205e-017 0.893322640824129
outer loop
vertex -28.5436362084031 11.08826387909 3.0
vertex -22.5804117921119 0.915911124617297 6.0
vertex -22.5804117921119 7.9658711246173 6.0
endloop
endfacet
facet normal -0.395833412215926 0.118923200706762 0.910589469578446
outer loop
vertex -22.5804117921119 7.9658711246173 6.0
vertex -27.7342453481873 13.7823046054709 3.0
vertex -28.5436362084031 11.08826387909 3.0
endloop
endfacet
facet normal -0.395833412215926 0.118923200706762 0.910589469578446
outer loop
vertex -27.7342453481873 13.7823046054709 3.0
vertex -22.5804117921119 7.9658711246173 6.0
vertex -21.9409930125415 10.0941632984582 6.0
endloop
endfacet
facet normal -0.346078326111096 0.201696915950801 0.916268599424905
outer loop
vertex -21.9409930125415 10.0941632984582 6.0
vertex -25.2432736191234 18.0563973565708 3.0
vertex -27.7342453481873 13.7823046054709 3.0
endloop
endfacet
facet normal -0.346078326111096 0.201696915950801 0.916268599424905
outer loop
vertex -25.2432736191234 18.0563973565708 3.0
vertex -21.9409930125415 10.0941632984582 6.0
vertex -19.973125346581 13.4706965718271 6.0
endloop
endfacet
facet normal -0.245716438567934 0.316910951906865 0.916073621702413
outer loop
vertex -19.973125346581 13.4706965718271 6.0
vertex -22.5602673379955 20.1366623145577 3.0
vertex -25.2432736191234 18.0563973565708 3.0
endloop
endfacet
facet normal -0.245716438567934 0.316910951906865 0.916073621702413
outer loop
vertex -22.5602673379955 20.1366623145577 3.0
vertex -19.973125346581 13.4706965718271 6.0
vertex -17.85355038449 15.1141058886368 6.0
endloop
endfacet
facet normal -0.18956193888293 0.366456218116437 0.910920474866353
outer loop
vertex -17.85355038449 15.1141058886368 6.0
vertex -20.1479101780327 21.3845360793177 3.0
vertex -22.5602673379955 20.1366623145577 3.0
endloop
endfacet
facet normal -0.18956193888293 0.366456218116437 0.910920474866353
outer loop
vertex -20.1479101780327 21.3845360793177 3.0
vertex -17.85355038449 15.1141058886368 6.0
vertex -15.9477882281193 16.0999261627972 6.0
endloop
endfacet
facet normal -0.1468253040609 0.397503207929998 0.905777858954824
outer loop
vertex -15.9477882281193 16.0999261627972 6.0
vertex -18.0551108592858 22.1575509636845 3.0
vertex -20.1479101780327 21.3845360793177 3.0
endloop
endfacet
facet normal -0.1468253040609 0.397503207929998 0.905777858954824
outer loop
vertex -18.0551108592858 22.1575509636845 3.0
vertex -15.9477882281193 16.0999261627972 6.0
vertex -14.2944767663093 16.710607921447 6.0
endloop
endfacet
facet normal 0.0842842437804274 0.434913605108841 0.896519002777739
outer loop
vertex 14.9871733240002 16.5507929180902 6.0
vertex 14.9154540394203 22.7488096789683 3.0
vertex 11.7522695036685 17.1777023065212 6.0
endloop
endfacet
facet normal 0.0842842437804274 0.434913605108841 0.896519002777739
outer loop
vertex 14.9154540394203 22.7488096789683 3.0
vertex 14.9871733240002 16.5507929180902 6.0
vertex 19.0102690018656 21.9552534910811 3.0
endloop
endfacet
facet normal 0.188675824799596 0.365511214087718 0.911483946930671
outer loop
vertex 17.7789909215034 15.1096648005477 6.0
vertex 19.0102690018656 21.9552534910811 3.0
vertex 14.9871733240002 16.5507929180902 6.0
endloop
endfacet
facet normal 0.188675824799596 0.365511214087718 0.911483946930671
outer loop
vertex 19.0102690018656 21.9552534910811 3.0
vertex 17.7789909215034 15.1096648005477 6.0
vertex 22.5442153278189 20.1310406840652 3.0
endloop
endfacet
facet normal 0.258632645207004 0.302626228517539 0.917347546269394
outer loop
vertex 19.7013788661894 13.4667395270717 6.0
vertex 22.5442153278189 20.1310406840652 3.0
vertex 17.7789909215034 15.1096648005477 6.0
endloop
endfacet
facet normal 0.258632645207004 0.302626228517539 0.917347546269394
outer loop
vertex 22.5442153278189 20.1310406840652 3.0
vertex 19.7013788661894 13.4667395270717 6.0
vertex 24.9776177894467 18.0513884391588 3.0
endloop
endfacet
facet normal 0.324637302868828 0.22718867597418 0.91814809649378
outer loop
vertex 21.239172614713 11.2693359252038 6.0
vertex 24.9776177894467 18.0513884391588 3.0
vertex 19.7013788661894 13.4667395270717 6.0
endloop
endfacet
facet normal 0.324637302868828 0.22718867597418 0.91814809649378
outer loop
vertex 24.9776177894467 18.0513884391588 3.0
vertex 21.239172614713 11.2693359252038 6.0
vertex 26.9241921546665 15.2698648924907 3.0
endloop
endfacet
facet normal 0.375025616763088 0.152732319777587 0.914346009597473
outer loop
vertex 22.1062682686852 9.14023133950065 6.0
vertex 26.9241921546665 15.2698648924907 3.0
vertex 21.239172614713 11.2693359252038 6.0
endloop
endfacet
facet normal 0.375025616763088 0.152732319777587 0.914346009597473
outer loop
vertex 26.9241921546665 15.2698648924907 3.0
vertex 22.1062682686852 9.14023133950065 6.0
vertex 28.0217815900744 12.5747957966639 3.0
endloop
endfacet
facet normal 0.418090404779465 0.0709471770767144 0.905630670580556
outer loop
vertex 22.2857528637926 8.08253193394199 6.0
vertex 28.0217815900744 12.5747957966639 3.0
vertex 22.1062682686852 9.14023133950065 6.0
endloop
endfacet
facet normal 0.418090404779465 0.0709471770767144 0.905630670580556
outer loop
vertex 28.0217815900744 12.5747957966639 3.0
vertex 22.2857528637926 8.08253193394199 6.0
vertex 28.2489772800837 11.2359357896276 3.0
endloop
endfacet
facet normal 0.449415909143196 -1.71553284444399e-017 0.893322640824128
outer loop
vertex 28.2489772800837 2.21493578962759 3.0
vertex 22.2857528637926 8.08253193394199 6.0
vertex 22.2857528637926 0.955941933941991 6.0
endloop
endfacet
facet normal 0.449415909143196 -1.71553284444399e-017 0.893322640824128
outer loop
vertex 22.2857528637926 8.08253193394199 6.0
vertex 28.2489772800837 2.21493578962759 3.0
vertex 28.2489772800837 11.2359357896276 3.0
endloop
endfacet
facet normal 0.4560052596024 -0.0414879670277678 0.889009534148454
outer loop
vertex 28.0468328345108 -0.0068874758739731 3.0
vertex 22.2857528637926 0.955941933941991 6.0
vertex 22.12605875179 -0.799298445804239 6.0
endloop
endfacet
facet normal 0.4560052596024 -0.0414879670277678 0.889009534148454
outer loop
vertex 22.2857528637926 0.955941933941991 6.0
vertex 28.0468328345108 -0.0068874758739731 3.0
vertex 28.2489772800837 2.21493578962759 3.0
endloop
endfacet
facet normal 0.46179851972882 -0.127087430735283 0.877833077598113
outer loop
vertex 27.5578173332528 -1.78382665309118 3.0
vertex 22.12605875179 -0.799298445804239 6.0
vertex 21.7397365057961 -2.20308039580583 6.0
endloop
endfacet
facet normal 0.46179851972882 -0.127087430735283 0.877833077598113
outer loop
vertex 22.12605875179 -0.799298445804239 6.0
vertex 27.5578173332528 -1.78382665309118 3.0
vertex 28.0468328345108 -0.0068874758739731 3.0
endloop
endfacet
facet normal 0.459453722345126 -0.221907928626961 0.860034387821614
outer loop
vertex 26.165663161927 -4.66624018401631 3.0
vertex 21.7397365057961 -2.20308039580583 6.0
vertex 20.6399347104488 -4.48018708523668 6.0
endloop
endfacet
facet normal 0.459453722345126 -0.221907928626961 0.860034387821614
outer loop
vertex 21.7397365057961 -2.20308039580583 6.0
vertex 26.165663161927 -4.66624018401631 3.0
vertex 27.5578173332528 -1.78382665309118 3.0
endloop
endfacet
facet normal 0.449194488920697 -0.289253858868882 0.845314448150944
outer loop
vertex 23.7499316701754 -8.41773126887302 3.0
vertex 20.6399347104488 -4.48018708523668 6.0
vertex 18.731506831965 -7.44386504227348 6.0
endloop
endfacet
facet normal 0.449194488920697 -0.289253858868882 0.845314448150944
outer loop
vertex 20.6399347104488 -4.48018708523668 6.0
vertex 23.7499316701754 -8.41773126887302 3.0
vertex 26.165663161927 -4.66624018401631 3.0
endloop
endfacet
facet normal 0.399285324394581 -0.43258827456482 0.8083555000321
outer loop
vertex -0.00441988392479207 -30.3433462791351 3.0
vertex 18.731506831965 -7.44386504227348 6.0
vertex -0.0344308957741218 -24.7651009003805 6.0
endloop
endfacet
facet normal 0.399285324394581 -0.43258827456482 0.8083555000321
outer loop
vertex 18.731506831965 -7.44386504227348 6.0
vertex -0.00441988392479207 -30.3433462791351 3.0
vertex 23.7499316701754 -8.41773126887302 3.0
endloop
endfacet
facet normal -0.0916450210106116 0.431113569859851 0.897631483408788
outer loop
vertex -14.2944767663093 16.710607921447 6.0
vertex -15.1138335158512 22.7828001851942 3.0
vertex -18.0551108592858 22.1575509636845 3.0
endloop
endfacet
facet normal -0.0916450210106116 0.431113569859851 0.897631483408788
outer loop
vertex -15.1138335158512 22.7828001851942 3.0
vertex -14.2944767663093 16.710607921447 6.0
vertex -11.970867664996 17.2045548064396 6.0
endloop
endfacet
facet normal 1.8574430996734e-016 0.473650496240555 0.88071289726623
outer loop
vertex -11.970867664996 17.2045548064396 6.0
vertex -12.2038335158513 22.7828001851942 3.0
vertex -15.1138335158512 22.7828001851942 3.0
endloop
endfacet
facet normal 1.8574430996734e-016 0.473650496240555 0.88071289726623
outer loop
vertex -12.2038335158513 22.7828001851942 3.0
vertex -11.970867664996 17.2045548064396 6.0
vertex -9.67196766499603 17.2045548064396 6.0
endloop
endfacet
facet normal 0.141412832397006 0.517910815881133 0.843665098025749
outer loop
vertex -9.67196766499603 17.2045548064396 6.0
vertex -8.36727716176419 21.735248591279 3.0
vertex -12.2038335158513 22.7828001851942 3.0
endloop
endfacet
facet normal 0.141412832397006 0.517910815881133 0.843665098025749
outer loop
vertex -8.36727716176419 21.735248591279 3.0
vertex -9.67196766499603 17.2045548064396 6.0
vertex -6.64108814526724 16.3769890472466 6.0
endloop
endfacet
facet normal 0.231316444432347 0.530948648797309 0.815221586365013
outer loop
vertex -6.64108814526724 16.3769890472466 6.0
vertex -6.49980942261429 20.9216557918797 3.0
vertex -8.36727716176419 21.735248591279 3.0
endloop
endfacet
facet normal 0.231316444432347 0.530948648797309 0.815221586365013
outer loop
vertex -6.49980942261429 20.9216557918797 3.0
vertex -6.64108814526724 16.3769890472466 6.0
vertex -5.16578863133883 15.7342507357212 6.0
endloop
endfacet
facet normal 0.364241042126339 0.534663693842888 0.762537341850875
outer loop
vertex -5.16578863133883 15.7342507357212 6.0
vertex -4.0188669738582 19.2315072491662 3.0
vertex -6.49980942261429 20.9216557918797 3.0
endloop
endfacet
facet normal 0.364241042126339 0.534663693842888 0.762537341850875
outer loop
vertex -4.0188669738582 19.2315072491662 3.0
vertex -5.16578863133883 15.7342507357212 6.0
vertex -3.20584409682151 14.3990333869775 6.0
endloop
endfacet
facet normal 0.503687541350673 0.515222370541909 0.693429714954075
outer loop
vertex -3.20584409682151 14.3990333869775 6.0
vertex -1.38313390486141 16.6547831294753 3.0
vertex -4.0188669738582 19.2315072491662 3.0
endloop
endfacet
facet normal 0.503687541350673 0.515222370541909 0.693429714954075
outer loop
vertex -1.38313390486141 16.6547831294753 3.0
vertex -3.20584409682151 14.3990333869775 6.0
vertex -1.12361497231405 12.3634213324217 6.0
endloop
endfacet
facet normal 0.735291012918351 0.417628801521478 0.533791448471441
outer loop
vertex 0.0061368714946821 14.2087872770743 3.0
vertex -1.12361497231405 12.3634213324217 6.0
vertex -0.0260910589927372 10.4310846090249 6.0
endloop
endfacet
facet normal 0.735291012918351 0.417628801521478 0.533791448471441
outer loop
vertex -1.12361497231405 12.3634213324217 6.0
vertex 0.0061368714946821 14.2087872770743 3.0
vertex -1.38313390486141 16.6547831294753 3.0
endloop
endfacet
facet normal -0.801162016871778 0.376344928055244 0.465299815010751
outer loop
vertex 0.886181286297849 12.3731273937281 6.0
vertex 0.0061368714946821 14.2087872770743 3.0
vertex -0.0260910589927372 10.4310846090249 6.0
endloop
endfacet
facet normal -0.801162016871778 0.376344928055244 0.465299815010751
outer loop
vertex 0.0061368714946821 14.2087872770743 3.0
vertex 0.886181286297849 12.3731273937281 6.0
vertex 1.16091199211568 16.6670692830278 3.0
endloop
endfacet
facet normal -0.517162953882967 0.512176054467429 0.68572455721027
outer loop
vertex 2.71954437153573 14.2243413667974 6.0
vertex 1.16091199211568 16.6670692830278 3.0
vertex 0.886181286297849 12.3731273937281 6.0
endloop
endfacet
facet normal -0.517162953882967 0.512176054467429 0.68572455721027
outer loop
vertex 1.16091199211568 16.6670692830278 3.0
vertex 2.71954437153573 14.2243413667974 6.0
vertex 3.48162475823958 19.0103781096978 3.0
endloop
endfacet
facet normal -0.362451684388043 0.535747193738225 0.762629478112331
outer loop
vertex 5.0044450382616 15.7701564545734 6.0
vertex 3.48162475823958 19.0103781096978 3.0
vertex 2.71954437153573 14.2243413667974 6.0
endloop
endfacet
facet normal -0.362451684388043 0.535747193738225 0.762629478112331
outer loop
vertex 3.48162475823958 19.0103781096978 3.0
vertex 5.0044450382616 15.7701564545734 6.0
vertex 6.37390408320904 20.9671060689078 3.0
endloop
endfacet
facet normal -0.203717762231473 0.529170971456097 0.8236972479738
outer loop
vertex 7.50742264991232 16.7337410528704 6.0
vertex 6.37390408320904 20.9671060689078 3.0
vertex 5.0044450382616 15.7701564545734 6.0
endloop
endfacet
facet normal -0.203717762231473 0.529170971456097 0.8236972479738
outer loop
vertex 6.37390408320904 20.9671060689078 3.0
vertex 7.50742264991232 16.7337410528704 6.0
vertex 9.54223017390616 22.1868334085243 3.0
endloop
endfacet
facet normal -0.107815502700586 0.509790078186082 0.853516194082132
outer loop
vertex 9.60662950366849 17.1777023065212 6.0
vertex 9.54223017390616 22.1868334085243 3.0
vertex 7.50742264991232 16.7337410528704 6.0
endloop
endfacet
facet normal -0.107815502700586 0.509790078186082 0.853516194082132
outer loop
vertex 9.54223017390616 22.1868334085243 3.0
vertex 9.60662950366849 17.1777023065212 6.0
vertex 12.1994540394203 22.7488096789683 3.0
endloop
endfacet
facet normal 2.13712171752143e-016 0.474121012704995 0.880459689770969
outer loop
vertex 11.7522695036685 17.1777023065212 6.0
vertex 12.1994540394203 22.7488096789683 3.0
vertex 9.60662950366849 17.1777023065212 6.0
endloop
endfacet
facet normal 2.13712171752143e-016 0.474121012704995 0.880459689770969
outer loop
vertex 12.1994540394203 22.7488096789683 3.0
vertex 11.7522695036685 17.1777023065212 6.0
vertex 14.9154540394203 22.7488096789683 3.0
endloop
endfacet
facet normal -0.165219115160754 -0.1786619090954 0.969939465236818
outer loop
vertex -0.0344308957741218 -24.7651009003805 6.0
vertex -14.0524730905566 -6.37288730777704 7.0
vertex -18.9380640944259 -7.28380583184422 6.0
endloop
endfacet
facet normal -0.165219115160754 -0.1786619090954 0.969939465236818
outer loop
vertex -14.0524730905566 -6.37288730777704 7.0
vertex -0.0344308957741218 -24.7651009003805 6.0
vertex -0.0637845235543708 -19.3090456584939 7.0
endloop
endfacet
facet normal -0.18068305805952 -0.104538920354953 0.97796996204448
outer loop
vertex -18.9380640944259 -7.28380583184422 6.0
vertex -15.5859768568106 -3.72240891091054 7.0
vertex -21.0103664812555 -3.70207826851111 6.0
endloop
endfacet
facet normal -0.18068305805952 -0.104538920354953 0.97796996204448
outer loop
vertex -15.5859768568106 -3.72240891091054 7.0
vertex -18.9380640944259 -7.28380583184422 6.0
vertex -14.0524730905566 -6.37288730777704 7.0
endloop
endfacet
facet normal -0.180683058059521 -0.104538920354951 0.97796996204448
outer loop
vertex -21.0103664812555 -3.70207826851111 6.0
vertex -16.3527287399375 -2.39716971247728 7.0
vertex -22.0465176746703 -1.91121448684454 6.0
endloop
endfacet
facet normal -0.180683058059521 -0.104538920354951 0.97796996204448
outer loop
vertex -16.3527287399375 -2.39716971247728 7.0
vertex -21.0103664812555 -3.70207826851111 6.0
vertex -15.5859768568106 -3.72240891091054 7.0
endloop
endfacet
facet normal -0.175632590950447 -0.0331676833739965 0.983896893874371
outer loop
vertex -22.0465176746703 -1.91121448684454 6.0
vertex -16.7478103868444 -0.305096759995522 7.0
vertex -22.5804117921119 0.915911124617297 6.0
endloop
endfacet
facet normal -0.175632590950447 -0.0331676833739965 0.983896893874371
outer loop
vertex -16.7478103868444 -0.305096759995522 7.0
vertex -22.0465176746703 -1.91121448684454 6.0
vertex -16.3527287399375 -2.39716971247728 7.0
endloop
endfacet
facet normal -0.168984412798949 -8.49899288988706e-018 0.985618723559468
outer loop
vertex -16.7478103868444 -0.305096759995522 7.0
vertex -22.5804117921119 7.9658711246173 6.0
vertex -22.5804117921119 0.915911124617297 6.0
endloop
endfacet
facet normal -0.168984412798949 -8.49899288988706e-018 0.985618723559468
outer loop
vertex -22.5804117921119 7.9658711246173 6.0
vertex -16.7478103868444 -0.305096759995522 7.0
vertex -16.7478103868444 4.91187364000448 7.0
endloop
endfacet
facet normal -0.146403925734049 0.0439852294096645 0.988246522950341
outer loop
vertex -16.7478103868444 4.91187364000448 7.0
vertex -21.9409930125415 10.0941632984582 6.0
vertex -22.5804117921119 7.9658711246173 6.0
endloop
endfacet
facet normal -0.146403925734049 0.0439852294096645 0.988246522950341
outer loop
vertex -21.9409930125415 10.0941632984582 6.0
vertex -16.7478103868444 4.91187364000448 7.0
vertex -16.2746404899622 6.48680984864677 7.0
endloop
endfacet
facet normal -0.127315680941961 0.074200486597148 0.989082911173291
outer loop
vertex -16.2746404899622 6.48680984864677 7.0
vertex -19.973125346581 13.4706965718271 6.0
vertex -21.9409930125415 10.0941632984582 6.0
endloop
endfacet
facet normal -0.127315680941961 0.074200486597148 0.989082911173291
outer loop
vertex -19.973125346581 13.4706965718271 6.0
vertex -16.2746404899622 6.48680984864677 7.0
vertex -14.8184184171514 8.98544447093973 7.0
endloop
endfacet
facet normal -0.0904110727888182 0.11660700971988 0.989054418725968
outer loop
vertex -14.8184184171514 8.98544447093973 7.0
vertex -17.85355038449 15.1141058886368 6.0
vertex -19.973125346581 13.4706965718271 6.0
endloop
endfacet
facet normal -0.0904110727888182 0.11660700971988 0.989054418725968
outer loop
vertex -17.85355038449 15.1141058886368 6.0
vertex -14.8184184171514 8.98544447093973 7.0
vertex -13.2499329452041 10.2015673653789 7.0
endloop
endfacet
facet normal -0.0700898546699184 0.135495887107017 0.988295642431673
outer loop
vertex -13.2499329452041 10.2015673653789 7.0
vertex -15.9477882281193 16.0999261627972 6.0
vertex -17.85355038449 15.1141058886368 6.0
endloop
endfacet
facet normal -0.0700898546699184 0.135495887107017 0.988295642431673
outer loop
vertex -15.9477882281193 16.0999261627972 6.0
vertex -13.2499329452041 10.2015673653789 7.0
vertex -11.8396689494898 10.9310743682576 7.0
endloop
endfacet
facet normal -0.0545539119857399 0.147694943716704 0.987527252427786
outer loop
vertex -11.8396689494898 10.9310743682576 7.0
vertex -14.2944767663093 16.710607921447 6.0
vertex -15.9477882281193 16.0999261627972 6.0
endloop
endfacet
facet normal -0.0545539119857399 0.147694943716704 0.987527252427786
outer loop
vertex -14.2944767663093 16.710607921447 6.0
vertex -11.8396689494898 10.9310743682576 7.0
vertex -10.6162184677504 11.3829788696584 7.0
endloop
endfacet
facet normal 0.0315945429095861 0.163030430626761 0.986115035656585
outer loop
vertex 11.0522025990787 11.2647157671745 7.0
vertex 11.7522695036685 17.1777023065212 6.0
vertex 8.65837377203315 11.7286287146133 7.0
endloop
endfacet
facet normal 0.0315945429095861 0.163030430626761 0.986115035656585
outer loop
vertex 11.7522695036685 17.1777023065212 6.0
vertex 11.0522025990787 11.2647157671745 7.0
vertex 14.9871733240002 16.5507929180902 6.0
endloop
endfacet
facet normal 0.0697249818887459 0.13507434145031 0.988379152543385
outer loop
vertex 13.118147621231 10.1982809601929 7.0
vertex 14.9871733240002 16.5507929180902 6.0
vertex 11.0522025990787 11.2647157671745 7.0
endloop
endfacet
facet normal 0.0697249818887459 0.13507434145031 0.988379152543385
outer loop
vertex 14.9871733240002 16.5507929180902 6.0
vertex 13.118147621231 10.1982809601929 7.0
vertex 17.7789909215034 15.1096648005477 6.0
endloop
endfacet
facet normal 0.0950492812973201 0.111217226654773 0.98924029569164
outer loop
vertex 14.5407147002986 8.98251625782072 7.0
vertex 17.7789909215034 15.1096648005477 6.0
vertex 13.118147621231 10.1982809601929 7.0
endloop
endfacet
facet normal 0.0950492812973201 0.111217226654773 0.98924029569164
outer loop
vertex 17.7789909215034 15.1096648005477 6.0
vertex 14.5407147002986 8.98251625782072 7.0
vertex 19.7013788661894 13.4667395270717 6.0
endloop
endfacet
facet normal 0.119216456762284 0.0834304275165211 0.989356760830721
outer loop
vertex 15.6786820742061 7.35643759243853 7.0
vertex 19.7013788661894 13.4667395270717 6.0
vertex 14.5407147002986 8.98251625782072 7.0
endloop
endfacet
facet normal 0.119216456762284 0.0834304275165211 0.989356760830721
outer loop
vertex 19.7013788661894 13.4667395270717 6.0
vertex 15.6786820742061 7.35643759243853 7.0
vertex 21.239172614713 11.2693359252038 6.0
endloop
endfacet
facet normal 0.138215572455077 0.056289448151982 0.988801271013372
outer loop
vertex 16.3203328581456 5.78090019901816 7.0
vertex 21.239172614713 11.2693359252038 6.0
vertex 15.6786820742061 7.35643759243853 7.0
endloop
endfacet
facet normal 0.138215572455077 0.056289448151982 0.988801271013372
outer loop
vertex 21.239172614713 11.2693359252038 6.0
vertex 16.3203328581456 5.78090019901816 7.0
vertex 22.1062682686852 9.14023133950065 6.0
endloop
endfacet
facet normal 0.155366013952968 0.0263645852131873 0.987505093837446
outer loop
vertex 16.453151458525 4.99820263890475 7.0
vertex 22.1062682686852 9.14023133950065 6.0
vertex 16.3203328581456 5.78090019901816 7.0
endloop
endfacet
facet normal 0.155366013952968 0.0263645852131873 0.987505093837446
outer loop
vertex 22.1062682686852 9.14023133950065 6.0
vertex 16.453151458525 4.99820263890475 7.0
vertex 22.2857528637926 8.08253193394199 6.0
endloop
endfacet
facet normal 0.168984412798949 -8.31720150537684e-018 0.985618723559468
outer loop
vertex 22.2857528637926 0.955941933941991 6.0
vertex 16.453151458525 4.99820263890475 7.0
vertex 16.453151458525 -0.275473961095249 7.0
endloop
endfacet
facet normal 0.168984412798949 -8.31720150537684e-018 0.985618723559468
outer loop
vertex 16.453151458525 4.99820263890475 7.0
vertex 22.2857528637926 0.955941933941991 6.0
vertex 22.2857528637926 8.08253193394199 6.0
endloop
endfacet
facet normal 0.172175584410919 -0.0156647644267418 0.984941715680788
outer loop
vertex 22.12605875179 -0.799298445804239 6.0
vertex 16.453151458525 -0.275473961095249 7.0
vertex 16.3349778156431 -1.57435184210746 7.0
endloop
endfacet
facet normal 0.172175584410919 -0.0156647644267418 0.984941715680788
outer loop
vertex 16.453151458525 -0.275473961095249 7.0
vertex 22.12605875179 -0.799298445804239 6.0
vertex 22.2857528637926 0.955941933941991 6.0
endloop
endfacet
facet normal 0.176261262272242 -0.048507281862858 0.983147502172727
outer loop
vertex 21.7397365057961 -2.20308039580583 6.0
vertex 16.3349778156431 -1.57435184210746 7.0
vertex 16.0490993536076 -2.61315048510863 7.0
endloop
endfacet
facet normal 0.176261262272242 -0.048507281862858 0.983147502172727
outer loop
vertex 16.3349778156431 -1.57435184210746 7.0
vertex 21.7397365057961 -2.20308039580583 6.0
vertex 22.12605875179 -0.799298445804239 6.0
endloop
endfacet
facet normal 0.17845278282804 -0.0861895017260109 0.980166299202921
outer loop
vertex 20.6399347104488 -4.48018708523668 6.0
vertex 16.0490993536076 -2.61315048510863 7.0
vertex 15.2352460250506 -4.29820943528746 7.0
endloop
endfacet
facet normal 0.17845278282804 -0.0861895017260109 0.980166299202921
outer loop
vertex 16.0490993536076 -2.61315048510863 7.0
vertex 20.6399347104488 -4.48018708523668 6.0
vertex 21.7397365057961 -2.20308039580583 6.0
endloop
endfacet
facet normal 0.177037689217059 -0.114001476051736 0.977579316503121
outer loop
vertex 18.731506831965 -7.44386504227348 6.0
vertex 15.2352460250506 -4.29820943528746 7.0
vertex 13.8230093949726 -6.49133112349469 7.0
endloop
endfacet
facet normal 0.177037689217059 -0.114001476051736 0.977579316503121
outer loop
vertex 15.2352460250506 -4.29820943528746 7.0
vertex 18.731506831965 -7.44386504227348 6.0
vertex 20.6399347104488 -4.48018708523668 6.0
endloop
endfacet
facet normal 0.163379811401807 -0.177006732767343 0.970554302335186
outer loop
vertex -0.0344308957741218 -24.7651009003805 6.0
vertex 13.8230093949726 -6.49133112349469 7.0
vertex -0.0637845235543708 -19.3090456584939 7.0
endloop
endfacet
facet normal 0.163379811401807 -0.177006732767343 0.970554302335186
outer loop
vertex 13.8230093949726 -6.49133112349469 7.0
vertex -0.0344308957741218 -24.7651009003805 6.0
vertex 18.731506831965 -7.44386504227348 6.0
endloop
endfacet
facet normal -0.0343171789253904 0.161433772952396 0.98628670688647
outer loop
vertex -10.6162184677504 11.3829788696584 7.0
vertex -11.970867664996 17.2045548064396 6.0
vertex -14.2944767663093 16.710607921447 6.0
endloop
endfacet
facet normal -0.0343171789253904 0.161433772952396 0.98628670688647
outer loop
vertex -11.970867664996 17.2045548064396 6.0
vertex -10.6162184677504 11.3829788696584 7.0
vertex -8.89674773277857 11.7484995645529 7.0
endloop
endfacet
facet normal 0.0 0.180279590931079 0.983615407104689
outer loop
vertex -8.89674773277857 11.7484995645529 7.0
vertex -9.67196766499603 17.2045548064396 6.0
vertex -11.970867664996 17.2045548064396 6.0
endloop
endfacet
facet normal 0.0 0.180279590931079 0.983615407104689
outer loop
vertex -9.67196766499603 17.2045548064396 6.0
vertex -8.89674773277857 11.7484995645529 7.0
vertex -7.19556173277858 11.7484995645529 7.0
endloop
endfacet
facet normal 0.0558259819650114 0.204457257356206 0.977282297830069
outer loop
vertex -7.19556173277858 11.7484995645529 7.0
vertex -6.64108814526724 16.3769890472466 6.0
vertex -9.67196766499603 17.2045548064396 6.0
endloop
endfacet
facet normal 0.0558259819650114 0.204457257356206 0.977282297830069
outer loop
vertex -6.64108814526724 16.3769890472466 6.0
vertex -7.19556173277858 11.7484995645529 7.0
vertex -4.95271088817928 11.1361009027501 7.0
endloop
endfacet
facet normal 0.0939850926957883 0.215727239351171 0.971920038147628
outer loop
vertex -4.95271088817928 11.1361009027501 7.0
vertex -5.16578863133883 15.7342507357212 6.0
vertex -6.64108814526724 16.3769890472466 6.0
endloop
endfacet
facet normal 0.0939850926957883 0.215727239351171 0.971920038147628
outer loop
vertex -5.16578863133883 15.7342507357212 6.0
vertex -4.95271088817928 11.1361009027501 7.0
vertex -3.86098924787226 10.6604745522213 7.0
endloop
endfacet
facet normal 0.156383472710535 0.229552838656746 0.960650666854306
outer loop
vertex -3.86098924787226 10.6604745522213 7.0
vertex -3.20584409682151 14.3990333869775 6.0
vertex -5.16578863133883 15.7342507357212 6.0
endloop
endfacet
facet normal 0.156383472710535 0.229552838656746 0.960650666854306
outer loop
vertex -3.20584409682151 14.3990333869775 6.0
vertex -3.86098924787226 10.6604745522213 7.0
vertex -2.41063029232944 9.67241371415099 7.0
endloop
endfacet
facet normal 0.233347666864486 0.238691506563673 0.942642684723785
outer loop
vertex -2.41063029232944 9.67241371415099 7.0
vertex -1.12361497231405 12.3634213324217 6.0
vertex -3.20584409682151 14.3990333869775 6.0
endloop
endfacet
facet normal 0.233347666864486 0.238691506563673 0.942642684723785
outer loop
vertex -1.12361497231405 12.3634213324217 6.0
vertex -2.41063029232944 9.67241371415099 7.0
vertex -0.869780740193919 8.16606079377971 7.0
endloop
endfacet
facet normal 0.413087981051778 0.234624706978077 0.879948615991876
outer loop
vertex -0.869780740193919 8.16606079377971 7.0
vertex -0.0260910589927372 10.4310846090249 6.0
vertex -1.12361497231405 12.3634213324217 6.0
endloop
endfacet
facet normal 0.413087981051778 0.234624706978077 0.879948615991876
outer loop
vertex -0.0260910589927372 10.4310846090249 6.0
vertex -0.869780740193919 8.16606079377971 7.0
vertex -0.0576130443361462 6.73613161846609 7.0
endloop
endfacet
facet normal -0.492372751371645 0.231291528790713 0.839090759343929
outer loop
vertex 0.617468491178887 8.17324327914649 7.0
vertex -0.0260910589927372 10.4310846090249 6.0
vertex -0.0576130443361462 6.73613161846609 7.0
endloop
endfacet
facet normal -0.492372751371645 0.231291528790713 0.839090759343929
outer loop
vertex -0.0260910589927372 10.4310846090249 6.0
vertex 0.617468491178887 8.17324327914649 7.0
vertex 0.886181286297849 12.3731273937281 6.0
endloop
endfacet
facet normal -0.241697243515864 0.239366605109968 0.940364860484994
outer loop
vertex 1.97415717425492 9.54314161921778 7.0
vertex 0.886181286297849 12.3731273937281 6.0
vertex 0.617468491178887 8.17324327914649 7.0
endloop
endfacet
facet normal -0.241697243515864 0.239366605109968 0.940364860484994
outer loop
vertex 0.886181286297849 12.3731273937281 6.0
vertex 1.97415717425492 9.54314161921778 7.0
vertex 2.71954437153573 14.2243413667974 6.0
endloop
endfacet
facet normal -0.155599893318241 0.229995361538909 0.960672060002756
outer loop
vertex 3.66498366763206 10.687044784172 7.0
vertex 2.71954437153573 14.2243413667974 6.0
vertex 1.97415717425492 9.54314161921778 7.0
endloop
endfacet
facet normal -0.155599893318241 0.229995361538909 0.960672060002756
outer loop
vertex 2.71954437153573 14.2243413667974 6.0
vertex 3.66498366763206 10.687044784172 7.0
vertex 5.0044450382616 15.7701564545734 6.0
endloop
endfacet
facet normal -0.0820586924809741 0.213153126860067 0.973566698022323
outer loop
vertex 5.51718710025359 11.4000973869117 7.0
vertex 5.0044450382616 15.7701564545734 6.0
vertex 3.66498366763206 10.687044784172 7.0
endloop
endfacet
facet normal -0.0820586924809741 0.213153126860067 0.973566698022323
outer loop
vertex 5.0044450382616 15.7701564545734 6.0
vertex 5.51718710025359 11.4000973869117 7.0
vertex 7.50742264991232 16.7337410528704 6.0
endloop
endfacet
facet normal -0.0421468523383505 0.199285321782839 0.979034730415566
outer loop
vertex 7.07060017203316 11.7286287146133 7.0
vertex 7.50742264991232 16.7337410528704 6.0
vertex 5.51718710025359 11.4000973869117 7.0
endloop
endfacet
facet normal -0.0421468523383505 0.199285321782839 0.979034730415566
outer loop
vertex 7.50742264991232 16.7337410528704 6.0
vertex 7.07060017203316 11.7286287146133 7.0
vertex 9.60662950366849 17.1777023065212 6.0
endloop
endfacet
facet normal -2.09814058950877e-016 0.180503053851638 0.983574424001678
outer loop
vertex 8.65837377203315 11.7286287146133 7.0
vertex 9.60662950366849 17.1777023065212 6.0
vertex 7.07060017203316 11.7286287146133 7.0
endloop
endfacet
facet normal -2.09814058950877e-016 0.180503053851638 0.983574424001678
outer loop
vertex 9.60662950366849 17.1777023065212 6.0
vertex 8.65837377203315 11.7286287146133 7.0
vertex 11.7522695036685 17.1777023065212 6.0
endloop
endfacet
facet normal 0.0 0.0 1.0
outer loop
vertex -16.3527287399375 -2.39716971247728 7.0
vertex -16.7478103868444 4.91187364000448 7.0
vertex -16.7478103868444 -0.305096759995522 7.0
endloop
endfacet
facet normal 0.0 0.0 1.0
outer loop
vertex -16.7478103868444 4.91187364000448 7.0
vertex -16.3527287399375 -2.39716971247728 7.0
vertex -16.2746404899622 6.48680984864677 7.0
endloop
endfacet
facet normal 0.0 0.0 1.0
outer loop
vertex -16.2746404899622 6.48680984864677 7.0
vertex -16.3527287399375 -2.39716971247728 7.0
vertex -15.5859768568106 -3.72240891091054 7.0
endloop
endfacet
facet normal 0.0 0.0 1.0
outer loop
vertex -16.2746404899622 6.48680984864677 7.0
vertex -15.5859768568106 -3.72240891091054 7.0
vertex -14.8184184171514 8.98544447093973 7.0
endloop
endfacet
facet normal 0.0 0.0 1.0
outer loop
vertex -14.8184184171514 8.98544447093973 7.0
vertex -15.5859768568106 -3.72240891091054 7.0
vertex -14.0524730905566 -6.37288730777704 7.0
endloop
endfacet
facet normal 0.0 0.0 1.0
outer loop
vertex -14.8184184171514 8.98544447093973 7.0
vertex -14.0524730905566 -6.37288730777704 7.0
vertex -13.2499329452041 10.2015673653789 7.0
endloop
endfacet
facet normal 0.0 0.0 1.0
outer loop
vertex -13.2499329452041 10.2015673653789 7.0
vertex -14.0524730905566 -6.37288730777704 7.0
vertex -0.0637845235543708 -19.3090456584939 7.0
endloop
endfacet
facet normal 0.0 0.0 1.0
outer loop
vertex -13.2499329452041 10.2015673653789 7.0
vertex -0.0637845235543708 -19.3090456584939 7.0
vertex -11.8396689494898 10.9310743682576 7.0
endloop
endfacet
facet normal 0.0 0.0 1.0
outer loop
vertex -11.8396689494898 10.9310743682576 7.0
vertex -0.0637845235543708 -19.3090456584939 7.0
vertex -10.6162184677504 11.3829788696584 7.0
endloop
endfacet
facet normal 0.0 0.0 1.0
outer loop
vertex -10.6162184677504 11.3829788696584 7.0
vertex -0.0637845235543708 -19.3090456584939 7.0
vertex -8.89674773277857 11.7484995645529 7.0
endloop
endfacet
facet normal 0.0 0.0 1.0
outer loop
vertex -8.89674773277857 11.7484995645529 7.0
vertex -0.0637845235543708 -19.3090456584939 7.0
vertex -7.19556173277858 11.7484995645529 7.0
endloop
endfacet
facet normal 0.0 0.0 1.0
outer loop
vertex -7.19556173277858 11.7484995645529 7.0
vertex -0.0637845235543708 -19.3090456584939 7.0
vertex -4.95271088817928 11.1361009027501 7.0
endloop
endfacet
facet normal 0.0 0.0 1.0
outer loop
vertex -4.95271088817928 11.1361009027501 7.0
vertex -0.0637845235543708 -19.3090456584939 7.0
vertex -3.86098924787226 10.6604745522213 7.0
endloop
endfacet
facet normal 0.0 0.0 1.0
outer loop
vertex -3.86098924787226 10.6604745522213 7.0
vertex -0.0637845235543708 -19.3090456584939 7.0
vertex -2.41063029232944 9.67241371415099 7.0
endloop
endfacet
facet normal 0.0 0.0 1.0
outer loop
vertex -2.41063029232944 9.67241371415099 7.0
vertex -0.0637845235543708 -19.3090456584939 7.0
vertex -0.869780740193919 8.16606079377971 7.0
endloop
endfacet
facet normal 0.0 0.0 1.0
outer loop
vertex -0.869780740193919 8.16606079377971 7.0
vertex -0.0637845235543708 -19.3090456584939 7.0
vertex -0.0576130443361462 6.73613161846609 7.0
endloop
endfacet
facet normal 0.0 0.0 1.0
outer loop
vertex -0.0576130443361462 6.73613161846609 7.0
vertex -0.0637845235543708 -19.3090456584939 7.0
vertex 13.8230093949726 -6.49133112349469 7.0
endloop
endfacet
facet normal 0.0 0.0 1.0
outer loop
vertex -0.0576130443361462 6.73613161846609 7.0
vertex 13.8230093949726 -6.49133112349469 7.0
vertex 0.617468491178887 8.17324327914649 7.0
endloop
endfacet
facet normal 0.0 0.0 1.0
outer loop
vertex 0.617468491178887 8.17324327914649 7.0
vertex 13.8230093949726 -6.49133112349469 7.0
vertex 1.97415717425492 9.54314161921778 7.0
endloop
endfacet
facet normal 0.0 0.0 1.0
outer loop
vertex 1.97415717425492 9.54314161921778 7.0
vertex 13.8230093949726 -6.49133112349469 7.0
vertex 3.66498366763206 10.687044784172 7.0
endloop
endfacet
facet normal 0.0 0.0 1.0
outer loop
vertex 3.66498366763206 10.687044784172 7.0
vertex 13.8230093949726 -6.49133112349469 7.0
vertex 5.51718710025359 11.4000973869117 7.0
endloop
endfacet
facet normal 0.0 0.0 1.0
outer loop
vertex 5.51718710025359 11.4000973869117 7.0
vertex 13.8230093949726 -6.49133112349469 7.0
vertex 7.07060017203316 11.7286287146133 7.0
endloop
endfacet
facet normal 0.0 0.0 1.0
outer loop
vertex 7.07060017203316 11.7286287146133 7.0
vertex 13.8230093949726 -6.49133112349469 7.0
vertex 8.65837377203315 11.7286287146133 7.0
endloop
endfacet
facet normal 0.0 0.0 1.0
outer loop
vertex 8.65837377203315 11.7286287146133 7.0
vertex 13.8230093949726 -6.49133112349469 7.0
vertex 11.0522025990787 11.2647157671745 7.0
endloop
endfacet
facet normal 0.0 0.0 1.0
outer loop
vertex 11.0522025990787 11.2647157671745 7.0
vertex 13.8230093949726 -6.49133112349469 7.0
vertex 13.118147621231 10.1982809601929 7.0
endloop
endfacet
facet normal 0.0 0.0 1.0
outer loop
vertex 13.118147621231 10.1982809601929 7.0
vertex 13.8230093949726 -6.49133112349469 7.0
vertex 14.5407147002986 8.98251625782072 7.0
endloop
endfacet
facet normal 0.0 0.0 1.0
outer loop
vertex 14.5407147002986 8.98251625782072 7.0
vertex 13.8230093949726 -6.49133112349469 7.0
vertex 15.2352460250506 -4.29820943528746 7.0
endloop
endfacet
facet normal 0.0 0.0 1.0
outer loop
vertex 14.5407147002986 8.98251625782072 7.0
vertex 15.2352460250506 -4.29820943528746 7.0
vertex 15.6786820742061 7.35643759243853 7.0
endloop
endfacet
facet normal 0.0 0.0 1.0
outer loop
vertex 15.6786820742061 7.35643759243853 7.0
vertex 15.2352460250506 -4.29820943528746 7.0
vertex 16.0490993536076 -2.61315048510863 7.0
endloop
endfacet
facet normal 0.0 0.0 1.0
outer loop
vertex 15.6786820742061 7.35643759243853 7.0
vertex 16.0490993536076 -2.61315048510863 7.0
vertex 16.3203328581456 5.78090019901816 7.0
endloop
endfacet
facet normal 0.0 0.0 1.0
outer loop
vertex 16.3203328581456 5.78090019901816 7.0
vertex 16.0490993536076 -2.61315048510863 7.0
vertex 16.3349778156431 -1.57435184210746 7.0
endloop
endfacet
facet normal 0.0 0.0 1.0
outer loop
vertex 16.3203328581456 5.78090019901816 7.0
vertex 16.3349778156431 -1.57435184210746 7.0
vertex 16.453151458525 4.99820263890475 7.0
endloop
endfacet
facet normal 0.0 0.0 1.0
outer loop
vertex 16.453151458525 4.99820263890475 7.0
vertex 16.3349778156431 -1.57435184210746 7.0
vertex 16.453151458525 -0.275473961095249 7.0
endloop
endfacet
facet normal 0.726113471357244 0.419221808150318 0.544988350595414
outer loop
vertex -5.62916512459885 -3.25 0.0
vertex -6.90636965796684 -1.85055617248302 1.0
vertex -6.19208163705874 -3.575 1.0
endloop
endfacet
facet normal 0.809874342871987 0.217005176143235 0.544988350595414
outer loop
vertex -6.90636965796684 -1.85055617248302 1.0
vertex -5.62916512459885 -3.25 0.0
vertex -6.27851787087894 -1.68232379316638 0.0
endloop
endfacet
facet normal 0.592869166728752 0.592869166728752 0.544988350595414
outer loop
vertex -4.59619407771256 -4.59619407771256 0.0
vertex -6.19208163705874 -3.575 1.0
vertex -5.05581348548382 -5.05581348548381 1.0
endloop
endfacet
facet normal 0.726113471357244 0.419221808150318 0.544988350595415
outer loop
vertex -6.19208163705874 -3.575 1.0
vertex -4.59619407771256 -4.59619407771256 0.0
vertex -5.62916512459885 -3.25 0.0
endloop
endfacet
facet normal 0.592869166728752 0.592869166728752 0.544988350595414
outer loop
vertex -5.05581348548382 -5.05581348548381 1.0
vertex -3.25 -5.62916512459885 0.0
vertex -4.59619407771256 -4.59619407771256 0.0
endloop
endfacet
facet normal 0.419221808150319 0.726113471357244 0.544988350595414
outer loop
vertex -3.25 -5.62916512459885 0.0
vertex -5.05581348548382 -5.05581348548381 1.0
vertex -3.575 -6.19208163705873 1.0
endloop
endfacet
facet normal 0.419221808150319 0.726113471357244 0.544988350595414
outer loop
vertex -3.575 -6.19208163705873 1.0
vertex -1.68232379316639 -6.27851787087894 0.0
vertex -3.25 -5.62916512459885 0.0
endloop
endfacet
facet normal 0.217005176143236 0.809874342871987 0.544988350595414
outer loop
vertex -1.68232379316639 -6.27851787087894 0.0
vertex -3.575 -6.19208163705873 1.0
vertex -1.85055617248303 -6.90636965796684 1.0
endloop
endfacet
facet normal 0.217005176143236 0.809874342871987 0.544988350595414
outer loop
vertex -1.85055617248303 -6.90636965796684 1.0
vertex -1.19403062916867e-015 -6.5 0.0
vertex -1.68232379316639 -6.27851787087894 0.0
endloop
endfacet
facet normal 4.25156787796137e-016 0.838443616300637 0.544988350595414
outer loop
vertex -1.19403062916867e-015 -6.5 0.0
vertex -1.85055617248303 -6.90636965796684 1.0
vertex -1.31343369208554e-015 -7.15 1.0
endloop
endfacet
facet normal -0.419221808150319 -0.726113471357244 0.544988350595414
outer loop
vertex 3.575 6.19208163705873 1.0
vertex 1.68232379316639 6.27851787087894 0.0
vertex 3.25 5.62916512459885 0.0
endloop
endfacet
facet normal -0.217005176143235 -0.809874342871987 0.544988350595414
outer loop
vertex 1.68232379316639 6.27851787087894 0.0
vertex 3.575 6.19208163705873 1.0
vertex 1.85055617248302 6.90636965796684 1.0
endloop
endfacet
facet normal -0.217005176143235 -0.809874342871987 0.544988350595414
outer loop
vertex 1.85055617248302 6.90636965796684 1.0
vertex 3.9801020972289e-016 6.5 0.0
vertex 1.68232379316639 6.27851787087894 0.0
endloop
endfacet
facet normal -4.25156787796137e-017 -0.838443616300637 0.544988350595414
outer loop
vertex 3.9801020972289e-016 6.5 0.0
vertex 1.85055617248302 6.90636965796684 1.0
vertex 4.37811230695179e-016 7.15 1.0
endloop
endfacet
facet normal -3.72421169916352e-017 -0.838443616300637 0.544988350595414
outer loop
vertex 4.37811230695179e-016 7.15 1.0
vertex -1.68232379316638 6.27851787087894 0.0
vertex 3.9801020972289e-016 6.5 0.0
endloop
endfacet
facet normal 0.217005176143235 -0.809874342871987 0.544988350595414
outer loop
vertex -1.68232379316638 6.27851787087894 0.0
vertex 4.37811230695179e-016 7.15 1.0
vertex -1.85055617248302 6.90636965796684 1.0
endloop
endfacet
facet normal 0.217005176143235 -0.809874342871987 0.544988350595414
outer loop
vertex -1.85055617248302 6.90636965796684 1.0
vertex -3.25 5.62916512459885 0.0
vertex -1.68232379316638 6.27851787087894 0.0
endloop
endfacet
facet normal 0.419221808150318 -0.726113471357244 0.544988350595414
outer loop
vertex -3.25 5.62916512459885 0.0
vertex -1.85055617248302 6.90636965796684 1.0
vertex -3.575 6.19208163705873 1.0
endloop
endfacet
facet normal 0.419221808150318 -0.726113471357244 0.544988350595414
outer loop
vertex -3.575 6.19208163705873 1.0
vertex -4.59619407771256 4.59619407771256 0.0
vertex -3.25 5.62916512459885 0.0
endloop
endfacet
facet normal 0.592869166728752 -0.592869166728752 0.544988350595414
outer loop
vertex -4.59619407771256 4.59619407771256 0.0
vertex -3.575 6.19208163705873 1.0
vertex -5.05581348548381 5.05581348548381 1.0
endloop
endfacet
facet normal 0.592869166728752 -0.592869166728752 0.544988350595414
outer loop
vertex -4.59619407771256 4.59619407771256 0.0
vertex -6.19208163705873 3.575 1.0
vertex -5.62916512459885 3.25 0.0
endloop
endfacet
facet normal 0.726113471357244 -0.419221808150319 0.544988350595414
outer loop
vertex -6.19208163705873 3.575 1.0
vertex -4.59619407771256 4.59619407771256 0.0
vertex -5.05581348548381 5.05581348548381 1.0
endloop
endfacet
facet normal 0.726113471357244 -0.419221808150319 0.544988350595414
outer loop
vertex -5.62916512459885 3.25 0.0
vertex -6.90636965796684 1.85055617248302 1.0
vertex -6.27851787087894 1.68232379316639 0.0
endloop
endfacet
facet normal 0.809874342871987 -0.217005176143235 0.544988350595414
outer loop
vertex -6.90636965796684 1.85055617248302 1.0
vertex -5.62916512459885 3.25 0.0
vertex -6.19208163705873 3.575 1.0
endloop
endfacet
facet normal 0.809874342871987 -0.217005176143235 0.544988350595414
outer loop
vertex -6.27851787087894 1.68232379316639 0.0
vertex -7.15 8.75622461390357e-016 1.0
vertex -6.5 7.96020419445779e-016 0.0
endloop
endfacet
facet normal 0.838443616300637 -2.51384289693538e-016 0.544988350595414
outer loop
vertex -7.15 8.75622461390357e-016 1.0
vertex -6.27851787087894 1.68232379316639 0.0
vertex -6.90636965796684 1.85055617248302 1.0
endloop
endfacet
facet normal 0.809874342871987 0.217005176143235 0.544988350595414
outer loop
vertex -6.27851787087894 -1.68232379316638 0.0
vertex -7.15 8.75622461390357e-016 1.0
vertex -6.90636965796684 -1.85055617248302 1.0
endloop
endfacet
facet normal 0.838443616300637 -2.51384289693538e-016 0.544988350595414
outer loop
vertex -7.15 8.75622461390357e-016 1.0
vertex -6.27851787087894 -1.68232379316638 0.0
vertex -6.5 7.96020419445779e-016 0.0
endloop
endfacet
facet normal 4.00352757660079e-016 0.838443616300637 0.544988350595414
outer loop
vertex -1.31343369208554e-015 -7.15 1.0
vertex 1.68232379316638 -6.27851787087894 0.0
vertex -1.19403062916867e-015 -6.5 0.0
endloop
endfacet
facet normal -0.217005176143235 0.809874342871987 0.544988350595414
outer loop
vertex 1.68232379316638 -6.27851787087894 0.0
vertex -1.31343369208554e-015 -7.15 1.0
vertex 1.85055617248302 -6.90636965796684 1.0
endloop
endfacet
facet normal -0.217005176143235 0.809874342871987 0.544988350595414
outer loop
vertex 1.85055617248302 -6.90636965796684 1.0
vertex 3.24999999999999 -5.62916512459885 0.0
vertex 1.68232379316638 -6.27851787087894 0.0
endloop
endfacet
facet normal -0.419221808150318 0.726113471357244 0.544988350595414
outer loop
vertex 3.24999999999999 -5.62916512459885 0.0
vertex 1.85055617248302 -6.90636965796684 1.0
vertex 3.57499999999999 -6.19208163705874 1.0
endloop
endfacet
facet normal -0.419221808150318 0.726113471357244 0.544988350595415
outer loop
vertex 3.57499999999999 -6.19208163705874 1.0
vertex 4.59619407771256 -4.59619407771256 0.0
vertex 3.24999999999999 -5.62916512459885 0.0
endloop
endfacet
facet normal -0.592869166728752 0.592869166728752 0.544988350595415
outer loop
vertex 4.59619407771256 -4.59619407771256 0.0
vertex 3.57499999999999 -6.19208163705874 1.0
vertex 5.05581348548381 -5.05581348548381 1.0
endloop
endfacet
facet normal -0.726113471357244 0.419221808150319 0.544988350595414
outer loop
vertex 6.19208163705873 -3.575 1.0
vertex 4.59619407771256 -4.59619407771256 0.0
vertex 5.05581348548381 -5.05581348548381 1.0
endloop
endfacet
facet normal -0.592869166728752 0.592869166728752 0.544988350595415
outer loop
vertex 4.59619407771256 -4.59619407771256 0.0
vertex 6.19208163705873 -3.575 1.0
vertex 5.62916512459885 -3.25 0.0
endloop
endfacet
facet normal -0.809874342871987 0.217005176143236 0.544988350595414
outer loop
vertex 6.90636965796684 -1.85055617248303 1.0
vertex 5.62916512459885 -3.25 0.0
vertex 6.19208163705873 -3.575 1.0
endloop
endfacet
facet normal -0.726113471357244 0.419221808150319 0.544988350595414
outer loop
vertex 5.62916512459885 -3.25 0.0
vertex 6.90636965796684 -1.85055617248303 1.0
vertex 6.27851787087894 -1.68232379316639 0.0
endloop
endfacet
facet normal -0.838443616300637 1.48968467966541e-016 0.544988350595414
outer loop
vertex 7.15 0.0 1.0
vertex 6.27851787087894 -1.68232379316639 0.0
vertex 6.90636965796684 -1.85055617248303 1.0
endloop
endfacet
facet normal -0.809874342871987 0.217005176143236 0.544988350595414
outer loop
vertex 6.27851787087894 -1.68232379316639 0.0
vertex 7.15 0.0 1.0
vertex 6.5 0.0 0.0
endloop
endfacet
facet normal -0.809874342871987 -0.217005176143235 0.544988350595414
outer loop
vertex 6.90636965796684 1.85055617248302 1.0
vertex 6.5 0.0 0.0
vertex 7.15 0.0 1.0
endloop
endfacet
facet normal -0.838443616300637 1.70062715118455e-016 0.544988350595414
outer loop
vertex 6.5 0.0 0.0
vertex 6.90636965796684 1.85055617248302 1.0
vertex 6.27851787087894 1.68232379316638 0.0
endloop
endfacet
facet normal -0.809874342871987 -0.217005176143235 0.544988350595414
outer loop
vertex 6.90636965796684 1.85055617248302 1.0
vertex 5.62916512459885 3.25 0.0
vertex 6.27851787087894 1.68232379316638 0.0
endloop
endfacet
facet normal -0.726113471357244 -0.419221808150319 0.544988350595414
outer loop
vertex 5.62916512459885 3.25 0.0
vertex 6.90636965796684 1.85055617248302 1.0
vertex 6.19208163705873 3.575 1.0
endloop
endfacet
facet normal -0.726113471357244 -0.419221808150319 0.544988350595414
outer loop
vertex 6.19208163705873 3.575 1.0
vertex 4.59619407771256 4.59619407771256 0.0
vertex 5.62916512459885 3.25 0.0
endloop
endfacet
facet normal -0.592869166728752 -0.592869166728752 0.544988350595414
outer loop
vertex 4.59619407771256 4.59619407771256 0.0
vertex 6.19208163705873 3.575 1.0
vertex 5.05581348548381 5.05581348548381 1.0
endloop
endfacet
facet normal -0.592869166728752 -0.592869166728752 0.544988350595414
outer loop
vertex 5.05581348548381 5.05581348548381 1.0
vertex 3.25 5.62916512459885 0.0
vertex 4.59619407771256 4.59619407771256 0.0
endloop
endfacet
facet normal -0.419221808150319 -0.726113471357244 0.544988350595414
outer loop
vertex 3.25 5.62916512459885 0.0
vertex 5.05581348548381 5.05581348548381 1.0
vertex 3.575 6.19208163705873 1.0
endloop
endfacet
facet normal 0.0 0.0 -1.0
outer loop
vertex -6.90636965796684 1.85055617248302 3.0
vertex -6.90636965796684 -1.85055617248302 3.0
vertex -7.15 8.75622461390357e-016 3.0
endloop
endfacet
facet normal 0.0 0.0 -1.0
outer loop
vertex -6.90636965796684 -1.85055617248302 3.0
vertex -6.90636965796684 1.85055617248302 3.0
vertex -6.19208163705874 -3.575 3.0
endloop
endfacet
facet normal 0.0 0.0 -1.0
outer loop
vertex -6.19208163705874 -3.575 3.0
vertex -6.90636965796684 1.85055617248302 3.0
vertex -6.19208163705873 3.575 3.0
endloop
endfacet
facet normal 0.0 0.0 -1.0
outer loop
vertex -6.19208163705874 -3.575 3.0
vertex -6.19208163705873 3.575 3.0
vertex -5.05581348548382 -5.05581348548381 3.0
endloop
endfacet
facet normal 0.0 0.0 -1.0
outer loop
vertex -5.05581348548382 -5.05581348548381 3.0
vertex -6.19208163705873 3.575 3.0
vertex -5.05581348548381 5.05581348548381 3.0
endloop
endfacet
facet normal 0.0 0.0 -1.0
outer loop
vertex -5.05581348548382 -5.05581348548381 3.0
vertex -5.05581348548381 5.05581348548381 3.0
vertex -3.575 -6.19208163705873 3.0
endloop
endfacet
facet normal 0.0 0.0 -1.0
outer loop
vertex -3.575 -6.19208163705873 3.0
vertex -5.05581348548381 5.05581348548381 3.0
vertex -3.575 6.19208163705873 3.0
endloop
endfacet
facet normal 0.0 0.0 -1.0
outer loop
vertex -3.575 -6.19208163705873 3.0
vertex -3.575 6.19208163705873 3.0
vertex -1.85055617248303 -6.90636965796684 3.0
endloop
endfacet
facet normal 0.0 0.0 -1.0
outer loop
vertex -1.85055617248303 -6.90636965796684 3.0
vertex -3.575 6.19208163705873 3.0
vertex -1.85055617248302 6.90636965796684 3.0
endloop
endfacet
facet normal 0.0 0.0 -1.0
outer loop
vertex -1.85055617248303 -6.90636965796684 3.0
vertex -1.85055617248302 6.90636965796684 3.0
vertex -1.31343369208554e-015 -7.15 3.0
endloop
endfacet
facet normal 0.0 0.0 -1.0
outer loop
vertex -1.31343369208554e-015 -7.15 3.0
vertex -1.85055617248302 6.90636965796684 3.0
vertex 4.37811230695179e-016 7.15 3.0
endloop
endfacet
facet normal 0.0 0.0 -1.0
outer loop
vertex -1.31343369208554e-015 -7.15 3.0
vertex 4.37811230695179e-016 7.15 3.0
vertex 1.85055617248302 -6.90636965796684 3.0
endloop
endfacet
facet normal 0.0 0.0 -1.0
outer loop
vertex 1.85055617248302 -6.90636965796684 3.0
vertex 4.37811230695179e-016 7.15 3.0
vertex 1.85055617248302 6.90636965796684 3.0
endloop
endfacet
facet normal 0.0 0.0 -1.0
outer loop
vertex 1.85055617248302 -6.90636965796684 3.0
vertex 1.85055617248302 6.90636965796684 3.0
vertex 3.57499999999999 -6.19208163705874 3.0
endloop
endfacet
facet normal 0.0 0.0 -1.0
outer loop
vertex 3.57499999999999 -6.19208163705874 3.0
vertex 1.85055617248302 6.90636965796684 3.0
vertex 3.575 6.19208163705873 3.0
endloop
endfacet
facet normal 0.0 0.0 -1.0
outer loop
vertex 3.57499999999999 -6.19208163705874 3.0
vertex 3.575 6.19208163705873 3.0
vertex 5.05581348548381 -5.05581348548381 3.0
endloop
endfacet
facet normal 0.0 0.0 -1.0
outer loop
vertex 5.05581348548381 -5.05581348548381 3.0
vertex 3.575 6.19208163705873 3.0
vertex 5.05581348548381 5.05581348548381 3.0
endloop
endfacet
facet normal 0.0 0.0 -1.0
outer loop
vertex 5.05581348548381 -5.05581348548381 3.0
vertex 5.05581348548381 5.05581348548381 3.0
vertex 6.19208163705873 -3.575 3.0
endloop
endfacet
facet normal 0.0 0.0 -1.0
outer loop
vertex 6.19208163705873 -3.575 3.0
vertex 5.05581348548381 5.05581348548381 3.0
vertex 6.19208163705873 3.575 3.0
endloop
endfacet
facet normal 0.0 0.0 -1.0
outer loop
vertex 6.19208163705873 -3.575 3.0
vertex 6.19208163705873 3.575 3.0
vertex 6.90636965796684 -1.85055617248303 3.0
endloop
endfacet
facet normal 0.0 0.0 -1.0
outer loop
vertex 6.90636965796684 -1.85055617248303 3.0
vertex 6.19208163705873 3.575 3.0
vertex 6.90636965796684 1.85055617248302 3.0
endloop
endfacet
facet normal 0.0 0.0 -1.0
outer loop
vertex 6.90636965796684 -1.85055617248303 3.0
vertex 6.90636965796684 1.85055617248302 3.0
vertex 7.15 0.0 3.0
endloop
endfacet
facet normal 1.0 -2.67333296869407e-016 0.0
outer loop
vertex -7.15 8.75622461390357e-016 1.0
vertex -6.90636965796684 -1.85055617248302 3.0
vertex -6.90636965796684 -1.85055617248302 1.0
endloop
endfacet
facet normal 0.965925826289068 0.25881904510252 0.0
outer loop
vertex -6.90636965796684 -1.85055617248302 3.0
vertex -7.15 8.75622461390357e-016 1.0
vertex -7.15 8.75622461390357e-016 3.0
endloop
endfacet
facet normal 0.965925826289068 -0.258819045102521 0.0
outer loop
vertex -6.90636965796684 1.85055617248302 1.0
vertex -7.15 8.75622461390357e-016 3.0
vertex -7.15 8.75622461390357e-016 1.0
endloop
endfacet
facet normal 1.0 -2.67333296869407e-016 0.0
outer loop
vertex -7.15 8.75622461390357e-016 3.0
vertex -6.90636965796684 1.85055617248302 1.0
vertex -6.90636965796684 1.85055617248302 3.0
endloop
endfacet
facet normal 0.866025403784439 -0.5 0.0
outer loop
vertex -6.19208163705873 3.575 1.0
vertex -6.90636965796684 1.85055617248302 3.0
vertex -6.90636965796684 1.85055617248302 1.0
endloop
endfacet
facet normal 0.965925826289068 -0.258819045102521 0.0
outer loop
vertex -6.90636965796684 1.85055617248302 3.0
vertex -6.19208163705873 3.575 1.0
vertex -6.19208163705873 3.575 3.0
endloop
endfacet
facet normal 0.707106781186547 -0.707106781186548 0.0
outer loop
vertex -5.05581348548381 5.05581348548381 1.0
vertex -6.19208163705873 3.575 3.0
vertex -6.19208163705873 3.575 1.0
endloop
endfacet
facet normal 0.866025403784439 -0.5 0.0
outer loop
vertex -6.19208163705873 3.575 3.0
vertex -5.05581348548381 5.05581348548381 1.0
vertex -5.05581348548381 5.05581348548381 3.0
endloop
endfacet
facet normal 0.5 -0.866025403784439 0.0
outer loop
vertex -3.575 6.19208163705873 3.0
vertex -5.05581348548381 5.05581348548381 1.0
vertex -3.575 6.19208163705873 1.0
endloop
endfacet
facet normal 0.707106781186547 -0.707106781186548 0.0
outer loop
vertex -5.05581348548381 5.05581348548381 1.0
vertex -3.575 6.19208163705873 3.0
vertex -5.05581348548381 5.05581348548381 3.0
endloop
endfacet
facet normal 0.258819045102521 -0.965925826289068 0.0
outer loop
vertex -1.85055617248302 6.90636965796684 3.0
vertex -3.575 6.19208163705873 1.0
vertex -1.85055617248302 6.90636965796684 1.0
endloop
endfacet
facet normal 0.5 -0.866025403784439 0.0
outer loop
vertex -3.575 6.19208163705873 1.0
vertex -1.85055617248302 6.90636965796684 3.0
vertex -3.575 6.19208163705873 3.0
endloop
endfacet
facet normal 2.67333296869407e-017 -1.0 0.0
outer loop
vertex 4.37811230695179e-016 7.15 3.0
vertex -1.85055617248302 6.90636965796684 1.0
vertex 4.37811230695179e-016 7.15 1.0
endloop
endfacet
facet normal 0.258819045102521 -0.965925826289068 0.0
outer loop
vertex -1.85055617248302 6.90636965796684 1.0
vertex 4.37811230695179e-016 7.15 3.0
vertex -1.85055617248302 6.90636965796684 3.0
endloop
endfacet
facet normal -0.258819045102521 -0.965925826289068 0.0
outer loop
vertex 1.85055617248302 6.90636965796684 3.0
vertex 4.37811230695179e-016 7.15 1.0
vertex 1.85055617248302 6.90636965796684 1.0
endloop
endfacet
facet normal 2.67333296869407e-017 -1.0 0.0
outer loop
vertex 4.37811230695179e-016 7.15 1.0
vertex 1.85055617248302 6.90636965796684 3.0
vertex 4.37811230695179e-016 7.15 3.0
endloop
endfacet
facet normal -0.5 -0.866025403784439 0.0
outer loop
vertex 3.575 6.19208163705873 3.0
vertex 1.85055617248302 6.90636965796684 1.0
vertex 3.575 6.19208163705873 1.0
endloop
endfacet
facet normal -0.258819045102521 -0.965925826289068 0.0
outer loop
vertex 1.85055617248302 6.90636965796684 1.0
vertex 3.575 6.19208163705873 3.0
vertex 1.85055617248302 6.90636965796684 3.0
endloop
endfacet
facet normal -0.707106781186548 -0.707106781186547 0.0
outer loop
vertex 5.05581348548381 5.05581348548381 3.0
vertex 3.575 6.19208163705873 1.0
vertex 5.05581348548381 5.05581348548381 1.0
endloop
endfacet
facet normal -0.5 -0.866025403784439 0.0
outer loop
vertex 3.575 6.19208163705873 1.0
vertex 5.05581348548381 5.05581348548381 3.0
vertex 3.575 6.19208163705873 3.0
endloop
endfacet
facet normal -0.707106781186548 -0.707106781186547 0.0
outer loop
vertex 5.05581348548381 5.05581348548381 3.0
vertex 6.19208163705873 3.575 1.0
vertex 6.19208163705873 3.575 3.0
endloop
endfacet
facet normal -0.866025403784439 -0.5 0.0
outer loop
vertex 6.19208163705873 3.575 1.0
vertex 5.05581348548381 5.05581348548381 3.0
vertex 5.05581348548381 5.05581348548381 1.0
endloop
endfacet
facet normal -0.866025403784439 -0.5 0.0
outer loop
vertex 6.19208163705873 3.575 3.0
vertex 6.90636965796684 1.85055617248302 1.0
vertex 6.90636965796684 1.85055617248302 3.0
endloop
endfacet
facet normal -0.965925826289068 -0.258819045102521 0.0
outer loop
vertex 6.90636965796684 1.85055617248302 1.0
vertex 6.19208163705873 3.575 3.0
vertex 6.19208163705873 3.575 1.0
endloop
endfacet
facet normal -0.965925826289068 -0.258819045102521 0.0
outer loop
vertex 6.90636965796684 1.85055617248302 3.0
vertex 7.15 0.0 1.0
vertex 7.15 0.0 3.0
endloop
endfacet
facet normal -1.0 1.78222197912938e-016 0.0
outer loop
vertex 7.15 0.0 1.0
vertex 6.90636965796684 1.85055617248302 3.0
vertex 6.90636965796684 1.85055617248302 1.0
endloop
endfacet
facet normal -1.0 1.78222197912938e-016 0.0
outer loop
vertex 7.15 0.0 3.0
vertex 6.90636965796684 -1.85055617248303 1.0
vertex 6.90636965796684 -1.85055617248303 3.0
endloop
endfacet
facet normal -0.965925826289068 0.258819045102521 0.0
outer loop
vertex 6.90636965796684 -1.85055617248303 1.0
vertex 7.15 0.0 3.0
vertex 7.15 0.0 1.0
endloop
endfacet
facet normal -0.965925826289068 0.258819045102521 0.0
outer loop
vertex 6.90636965796684 -1.85055617248303 3.0
vertex 6.19208163705873 -3.575 1.0
vertex 6.19208163705873 -3.575 3.0
endloop
endfacet
facet normal -0.866025403784438 0.5 0.0
outer loop
vertex 6.19208163705873 -3.575 1.0
vertex 6.90636965796684 -1.85055617248303 3.0
vertex 6.90636965796684 -1.85055617248303 1.0
endloop
endfacet
facet normal -0.866025403784438 0.5 0.0
outer loop
vertex 6.19208163705873 -3.575 3.0
vertex 5.05581348548381 -5.05581348548381 1.0
vertex 5.05581348548381 -5.05581348548381 3.0
endloop
endfacet
facet normal -0.707106781186547 0.707106781186548 0.0
outer loop
vertex 5.05581348548381 -5.05581348548381 1.0
vertex 6.19208163705873 -3.575 3.0
vertex 6.19208163705873 -3.575 1.0
endloop
endfacet
facet normal -0.5 0.866025403784439 0.0
outer loop
vertex 3.57499999999999 -6.19208163705874 3.0
vertex 5.05581348548381 -5.05581348548381 1.0
vertex 3.57499999999999 -6.19208163705874 1.0
endloop
endfacet
facet normal -0.707106781186547 0.707106781186548 0.0
outer loop
vertex 5.05581348548381 -5.05581348548381 1.0
vertex 3.57499999999999 -6.19208163705874 3.0
vertex 5.05581348548381 -5.05581348548381 3.0
endloop
endfacet
facet normal -0.25881904510252 0.965925826289068 0.0
outer loop
vertex 1.85055617248302 -6.90636965796684 3.0
vertex 3.57499999999999 -6.19208163705874 1.0
vertex 1.85055617248302 -6.90636965796684 1.0
endloop
endfacet
facet normal -0.5 0.866025403784439 0.0
outer loop
vertex 3.57499999999999 -6.19208163705874 1.0
vertex 1.85055617248302 -6.90636965796684 3.0
vertex 3.57499999999999 -6.19208163705874 3.0
endloop
endfacet
facet normal 5.43577703634461e-016 1.0 0.0
outer loop
vertex -1.31343369208554e-015 -7.15 3.0
vertex 1.85055617248302 -6.90636965796684 1.0
vertex -1.31343369208554e-015 -7.15 1.0
endloop
endfacet
facet normal -0.25881904510252 0.965925826289068 0.0
outer loop
vertex 1.85055617248302 -6.90636965796684 1.0
vertex -1.31343369208554e-015 -7.15 3.0
vertex 1.85055617248302 -6.90636965796684 3.0
endloop
endfacet
facet normal 0.258819045102521 0.965925826289068 0.0
outer loop
vertex -1.85055617248303 -6.90636965796684 3.0
vertex -1.31343369208554e-015 -7.15 1.0
vertex -1.85055617248303 -6.90636965796684 1.0
endloop
endfacet
facet normal 5.43577703634461e-016 1.0 0.0
outer loop
vertex -1.31343369208554e-015 -7.15 1.0
vertex -1.85055617248303 -6.90636965796684 3.0
vertex -1.31343369208554e-015 -7.15 3.0
endloop
endfacet
facet normal 0.500000000000001 0.866025403784438 0.0
outer loop
vertex -3.575 -6.19208163705873 3.0
vertex -1.85055617248303 -6.90636965796684 1.0
vertex -3.575 -6.19208163705873 1.0
endloop
endfacet
facet normal 0.258819045102521 0.965925826289068 0.0
outer loop
vertex -1.85055617248303 -6.90636965796684 1.0
vertex -3.575 -6.19208163705873 3.0
vertex -1.85055617248303 -6.90636965796684 3.0
endloop
endfacet
facet normal 0.707106781186548 0.707106781186547 0.0
outer loop
vertex -5.05581348548382 -5.05581348548381 3.0
vertex -3.575 -6.19208163705873 1.0
vertex -5.05581348548382 -5.05581348548381 1.0
endloop
endfacet
facet normal 0.500000000000001 0.866025403784438 0.0
outer loop
vertex -3.575 -6.19208163705873 1.0
vertex -5.05581348548382 -5.05581348548381 3.0
vertex -3.575 -6.19208163705873 3.0
endloop
endfacet
facet normal 0.866025403784439 0.5 0.0
outer loop
vertex -6.19208163705874 -3.575 1.0
vertex -5.05581348548382 -5.05581348548381 3.0
vertex -5.05581348548382 -5.05581348548381 1.0
endloop
endfacet
facet normal 0.707106781186548 0.707106781186547 0.0
outer loop
vertex -5.05581348548382 -5.05581348548381 3.0
vertex -6.19208163705874 -3.575 1.0
vertex -6.19208163705874 -3.575 3.0
endloop
endfacet
facet normal 0.965925826289068 0.25881904510252 0.0
outer loop
vertex -6.90636965796684 -1.85055617248302 1.0
vertex -6.19208163705874 -3.575 3.0
vertex -6.19208163705874 -3.575 1.0
endloop
endfacet
facet normal 0.866025403784439 0.5 0.0
outer loop
vertex -6.19208163705874 -3.575 3.0
vertex -6.90636965796684 -1.85055617248302 1.0
vertex -6.90636965796684 -1.85055617248302 3.0
endloop
endfacet
endsolid heart
