<?xml version="1.0" encoding="UTF-8" standalone="no"?>
<!-- Created with Inkscape (http://www.inkscape.org/) -->

<svg
   xmlns:dc="http://purl.org/dc/elements/1.1/"
   xmlns:cc="http://creativecommons.org/ns#"
   xmlns:rdf="http://www.w3.org/1999/02/22-rdf-syntax-ns#"
   xmlns:svg="http://www.w3.org/2000/svg"
   xmlns="http://www.w3.org/2000/svg"
   xmlns:sodipodi="http://sodipodi.sourceforge.net/DTD/sodipodi-0.dtd"
   xmlns:inkscape="http://www.inkscape.org/namespaces/inkscape"
   id="svg2"
   version="1.1"
   inkscape:version="0.48.5 r10040"
   width="23"
   height="29"
   sodipodi:docname="duck.dxf">
  <metadata
     id="metadata8">
    <rdf:RDF>
      <cc:Work
         rdf:about="">
        <dc:format>image/svg+xml</dc:format>
        <dc:type
           rdf:resource="http://purl.org/dc/dcmitype/StillImage" />
        <dc:title></dc:title>
      </cc:Work>
    </rdf:RDF>
  </metadata>
  <defs
     id="defs6" />
  <sodipodi:namedview
     pagecolor="#ffffff"
     bordercolor="#666666"
     borderopacity="1"
     objecttolerance="10"
     gridtolerance="10"
     guidetolerance="10"
     inkscape:pageopacity="0"
     inkscape:pageshadow="2"
     inkscape:window-width="1280"
     inkscape:window-height="784"
     id="namedview4"
     showgrid="false"
     inkscape:zoom="16"
     inkscape:cx="14.801032"
     inkscape:cy="14.625229"
     inkscape:window-x="0"
     inkscape:window-y="0"
     inkscape:window-maximized="0"
     inkscape:current-layer="svg2" />
  <path
     style="font-size:medium;font-style:normal;font-variant:normal;font-weight:normal;font-stretch:normal;text-indent:0;text-align:start;text-decoration:none;line-height:normal;letter-spacing:normal;word-spacing:normal;text-transform:none;direction:ltr;block-progression:tb;writing-mode:lr-tb;text-anchor:start;baseline-shift:baseline;color:#000000;fill:#000000;fill-opacity:1;stroke:none;stroke-width:0.01;marker:none;visibility:visible;display:inline;overflow:visible;enable-background:accumulate;font-family:Sans;-inkscape-font-specification:Sans"
     d="m 0.9375,0.96875 c 0.0724928,1.6650009 0.0107329,3.351788 0.03125,5.0252234 0,7.0228426 0,14.0456846 0,21.0685266 0.3541667,0 0.7083333,0 1.0625,0 -0.064337,-1.255476 -0.1060579,-2.531297 0.057081,-3.775578 0.1684217,-0.418672 0.3859183,-0.903518 0.8169927,-1.078434 0.4288289,-0.0815 1.0212236,-0.06114 1.1495811,-0.576677 0.3350114,-0.632103 0.7518642,-1.221963 0.8671024,-1.942212 0.082075,-0.456411 0.2620061,-0.91108 0.4832726,-1.279467 0.3498295,-1.610463 0.4142492,-3.26917 0.6173833,-4.902694 0.071206,-1.102786 0.027051,-2.219067 0.2492267,-3.310031 C 6.3992114,9.4570261 6.4057562,8.5777706 7.03125,8.0625 7.5413107,7.9007958 8.0963158,7.9687138 8.625,8 8.9423561,8.3421286 8.92151,8.8769188 9.3531163,9.1343663 9.6054942,9.365306 9.785458,9.736767 9.8218319,10.058448 9.7089776,10.497144 9.4426214,11.017996 8.9066477,10.929712 8.5190439,10.883589 7.9997345,10.8529 7.9384705,11.339868 c -0.1159298,0.341035 0.1059674,0.831658 0.5299704,0.691382 0.5105197,0 1.0210394,0 1.5315591,0 0.357935,0.614922 0.458201,1.333909 0.876218,1.917267 0.427153,0.58075 1.075237,0.941892 1.484445,1.537344 0.331685,0.442655 1.048452,0.702658 0.972598,1.356811 0.07184,0.516462 -0.177331,1.126496 -0.645761,1.376078 C 11.724164,18.104495 11.163013,17.168767 10.65625,16.4375 10.346649,16.008819 10.280239,15.587031 10.0625,15.09375 9.6563056,14.674008 9.2634649,14.249856 8.9117209,13.786721 8.667845,13.519039 8.0130533,13.532475 7.96875,14 c 0.011515,1.321321 -0.022786,2.648888 0.016707,3.966395 0.1435955,0.542694 0.2723065,1.101956 0.6744609,1.514474 0.3088494,0.561693 0.8642929,0.923212 1.2379169,1.442549 0.6443351,0.84574 1.5572181,1.469852 2.2703181,2.266859 0.832136,0.793701 1.520464,1.706488 2.44071,2.400442 0.566592,0.453919 1.094878,0.983836 1.641137,1.440531 0.604167,0 1.208333,0 1.8125,0 0,-8.6875 0,-17.375 0,-26.0625 -5.708333,0 -11.4166667,0 -17.125,0 z"
     id="path2985"
     inkscape:connector-curvature="0" />
  <path
     style="font-size:medium;font-style:normal;font-variant:normal;font-weight:normal;font-stretch:normal;text-indent:0;text-align:start;text-decoration:none;line-height:normal;letter-spacing:normal;word-spacing:normal;text-transform:none;direction:ltr;block-progression:tb;writing-mode:lr-tb;text-anchor:start;baseline-shift:baseline;color:#000000;fill:#000000;fill-opacity:1;stroke:none;stroke-width:0.01;marker:none;visibility:visible;display:inline;overflow:visible;enable-background:accumulate;font-family:Sans;-inkscape-font-specification:Sans"
     d="m 1.0625,1.0625 2.1132812,0 2.1132813,0 2.1132812,0 2.1132812,0 2.1132811,0 2.113281,0 2.113282,0 2.113281,0 0,3.234375 0,3.234375 0,3.234375 0,3.234375 0,3.234375 0,3.234375 0,3.234375 0,3.234375 -0.216168,-0.0065 -0.219243,0.0013 -0.220843,0.0053 -0.220969,0.0056 -0.219622,0.0022 -0.2168,-0.0049 -0.212504,-0.01569 -0.206733,-0.0302 -0.430245,-0.395105 -0.439528,-0.385335 -0.443602,-0.381007 -0.442465,-0.382121 -0.43612,-0.388677 -0.424564,-0.400674 -0.407798,-0.418114 -0.385824,-0.440995 -0.178962,-0.176671 -0.180328,-0.177414 -0.181334,-0.178101 -0.181982,-0.17873 -0.182272,-0.179303 -0.182202,-0.179819 -0.181775,-0.180279 -0.180988,-0.18068 -0.327161,-0.299159 -0.314024,-0.3126 -0.304463,-0.322292 -0.298478,-0.32824 L 9.835684,20.678884 9.5384481,20.349989 9.2364691,20.026387 8.9261709,19.711824 8.7833081,19.537147 8.6525141,19.356309 8.5340392,19.16922 8.4281338,18.975787 l -0.093085,-0.199869 -0.080015,-0.206397 -0.066695,-0.213018 -0.053124,-0.21973 -0.047783,-0.284941 -0.025779,-0.287941 -0.00925,-0.290193 0.00181,-0.291701 0.00739,-0.292461 0.00749,-0.292476 0.00213,-0.291744 -0.00872,-0.290266 0.00412,-0.233712 -8.193e-4,-0.234878 -0.00338,-0.235481 -0.00356,-0.235524 -0.00136,-0.235004 0.00322,-0.233924 0.010177,-0.232282 0.019511,-0.230078 0.059033,-0.107746 0.087001,-0.0702 0.1070222,-0.03681 0.1190972,-0.0076 0.1232259,0.01751 0.119408,0.03843 0.1076436,0.0552 0.087933,0.06781 0.1222235,0.196907 0.1453965,0.180655 0.1602089,0.169991 0.1666607,0.164915 0.164752,0.165427 0.1544828,0.171527 0.1358529,0.183215 0.1088629,0.200492 0.113828,0.346796 0.143074,0.328825 0.167724,0.313999 0.187773,0.30232 0.203226,0.293786 0.214079,0.288399 0.220335,0.286156 0.221992,0.287061 0.1623,0.09736 0.173784,0.114292 0.182011,0.115543 0.186979,0.101118 0.188688,0.07101 0.187139,0.02524 0.182332,-0.03622 0.174267,-0.11335 0.154991,-0.177691 0.123132,-0.197965 0.09229,-0.213803 0.06246,-0.2252 0.03365,-0.232159 0.0059,-0.234679 -0.02092,-0.232762 -0.04668,-0.226404 L 13.267915,16.22769 13.134961,16.065381 12.982805,15.920778 12.819584,15.786 12.653432,15.653164 12.492486,15.51439 12.34488,15.361796 12.21875,15.1875 12.080526,15.018779 11.929065,14.862587 11.768968,14.71444 11.604838,14.569856 11.441274,14.424353 11.282879,14.273447 11.134254,14.112657 11,13.9375 l -0.111822,-0.148855 -0.09676,-0.156833 -0.08441,-0.16411 -0.07478,-0.170688 -0.06788,-0.176564 -0.06368,-0.181741 -0.06221,-0.186217 -0.06345,-0.189992 -0.05402,-0.103178 -0.05121,-0.116881 -0.05324,-0.120153 -0.06012,-0.112994 -0.07184,-0.09541 -0.088401,-0.06739 -0.1098091,-0.02894 -0.1360614,0.01994 -0.1991218,-0.0045 -0.2003964,9.19e-4 -0.2010531,0.0037 -0.2010919,0.0039 -0.2005126,0.0014 -0.1993155,-0.0037 -0.1975004,-0.01135 -0.1950674,-0.02166 -0.1000758,-0.138376 -0.046741,-0.160728 0.00203,-0.16776 0.046249,-0.159474 0.085905,-0.13587 0.1210008,-0.09695 0.151537,-0.0427 0.1775134,0.02686 0.1562878,0.002 0.1611015,0.001 0.1609858,-0.0066 0.1559411,-0.02101 0.1459671,-0.04206 0.1310638,-0.06982 0.1112314,-0.104266 0.08647,-0.145412 0.058169,-0.126518 0.055472,-0.129765 0.047307,-0.131985 0.033673,-0.133174 0.014572,-0.1333351 -0.01,-0.1324679 L 9.8618815,9.7272194 9.7863412,9.5995727 9.7086476,9.4146931 9.5966982,9.2517753 9.4633267,9.1025604 9.3213669,8.9587894 9.1836527,8.8122032 9.0630178,8.6545429 8.9722961,8.4775496 8.9243214,8.2729641 8.882009,8.1572372 8.8206334,8.0625366 8.742616,7.987775 8.6503784,7.9318652 8.5463419,7.89372 8.4329281,7.8722522 8.3125585,7.8663746 8.1876545,7.875 7.9981339,7.8767082 7.8029244,7.872375 7.6064551,7.8705771 7.413155,7.8798916 7.2274531,7.9088953 7.0537786,7.966165 6.8965604,8.0602777 6.7602276,8.1998103 6.6674966,8.3119025 6.5886754,8.4371626 6.5218074,8.572783 6.464936,8.7159559 l -0.048831,0.1479175 -0.042748,0.1498545 -0.038621,0.1489837 -0.036451,0.145305 -0.09141,0.5030713 -0.073494,0.5054831 -0.057824,0.507418 -0.0444,0.508873 -0.033221,0.50985 -0.024289,0.51035 -0.017603,0.510371 -0.013162,0.509914 -0.06941,0.613036 -0.062593,0.614379 -0.06,0.61496 -0.061632,0.614776 -0.067488,0.613831 -0.077568,0.61212 -0.091873,0.609649 -0.110402,0.606412 -0.051832,0.154891 -0.065338,0.148718 -0.073043,0.145125 -0.074947,0.144109 -0.07105,0.145673 -0.061352,0.149815 -0.045853,0.156535 -0.024553,0.165835 -0.04974,0.226671 -0.059516,0.222715 -0.069514,0.218662 -0.079733,0.214509 -0.090175,0.210261 -0.100838,0.205914 -0.111723,0.201471 -0.1228298,0.196929 -0.074738,0.150614 -0.073994,0.15235 -0.078552,0.147042 -0.08841,0.134691 -0.103569,0.115299 -0.1240286,0.08886 -0.149789,0.05538 -0.1808501,0.01486 -0.1506073,0.0051 -0.14061,0.02467 -0.1312962,0.04291 -0.1226656,0.05982 -0.1147182,0.07539 -0.1074542,0.08962 -0.1008734,0.102506 -0.094976,0.114058 -0.1113455,0.162768 -0.093652,0.171343 -0.076696,0.178715 -0.060477,0.184885 -0.044997,0.18985 -0.030255,0.193612 -0.016251,0.196172 -0.00298,0.197527 -0.01456,0.363646 -0.010825,0.363741 -0.00649,0.363787 -0.00157,0.363786 0.00395,0.363736 0.010064,0.363637 0.016773,0.363492 0.024077,0.363297 -0.1222311,-0.01836 -0.1475089,0.0069 -0.1583111,0.01773 -0.1546379,0.01405 -0.1364894,-0.0041 -0.1038652,-0.03672 -0.056766,-0.08382 0.00481,-0.145396 0,-3.203164 0,-3.203163 0,-3.203164 0,-3.203164 0,-3.203163 0,-3.2031638 0,-3.2031636 z"
     id="path3010"
     inkscape:connector-curvature="0"
     sodipodi:nodetypes="ccccccccccccccccccccccccccccccccccccccccccccccccccccccccccccccccccccccccccccccccccccccccccccccccccccccccccccccccccccccccccccccccccccccccccccccccccccccccccccccccccccccccccccccccccccccccccccccccccccccccccccccccccccccccccccccccccccccccccccccccccccccccccccccccccccccccccccccccccccccccccccccccc" />
</svg>
