  0
SECTION
  2
HEADER
  9
$ACADVER
  1
AC1014
  9
$HANDSEED
  5
FFFF
  9
$MEASUREMENT
 70
     1
  0
ENDSEC
  0
SECTION
  2
TABLES
  0
TABLE
  2
VPORT
  5
8
330
0
100
AcDbSymbolTable
 70
     4
  0
VPORT
  5
2E
330
8
100
AcDbSymbolTableRecord
100
AcDbViewportTableRecord
  2
*ACTIVE
 70
     0
 10
0.0
 20
0.0
 11
1.0
 21
1.0
 12
210.0
 22
148.5
 13
0.0
 23
0.0
 14
10.0
 24
10.0
 15
10.0
 25
10.0
 16
0.0
 26
0.0
 36
1.0
 17
0.0
 27
0.0
 37
0.0
 40
341.0
 41
1.24
 42
50.0
 43
0.0
 44
0.0
 50
0.0
 51
0.0
 71
     0
 72
   100
 73
     1
 74
     3
 75
     0
 76
     0
 77
     0
 78
     0
  0
ENDTAB
  0
TABLE
  2
LTYPE
  5
5
330
0
100
AcDbSymbolTable
 70
     1
  0
LTYPE
  5
14
330
5
100
AcDbSymbolTableRecord
100
AcDbLinetypeTableRecord
  2
BYBLOCK
 70
     0
  3

 72
    65
 73
     0
 40
0.0
  0
LTYPE
  5
15
330
5
100
AcDbSymbolTableRecord
100
AcDbLinetypeTableRecord
  2
BYLAYER
 70
     0
  3

 72
    65
 73
     0
 40
0.0
  0
LTYPE
  5
16
330
5
100
AcDbSymbolTableRecord
100
AcDbLinetypeTableRecord
  2
CONTINUOUS
 70
     0
  3
Solid line
 72
    65
 73
     0
 40
0.0
  0
ENDTAB
  0
TABLE
  2
LAYER
  5
2
100
AcDbSymbolTable
 70
1
  0
LAYER
  5
50
100
AcDbSymbolTableRecord
100
AcDbLayerTableRecord
  2
0
 70
0
  6
CONTINUOUS
  0
ENDTAB
  0
TABLE
  2
STYLE
  5
3
330
0
100
AcDbSymbolTable
 70
     1
  0
STYLE
  5
11
330
3
100
AcDbSymbolTableRecord
100
AcDbTextStyleTableRecord
  2
STANDARD
 70
     0
 40
0.0
 41
1.0
 50
0.0
 71
     0
 42
2.5
  3
txt
  4

  0
ENDTAB
  0
TABLE
  2
VIEW
  5
6
330
0
100
AcDbSymbolTable
 70
     0
  0
ENDTAB
  0
TABLE
  2
UCS
  5
7
330
0
100
AcDbSymbolTable
 70
     0
  0
ENDTAB
  0
TABLE
  2
APPID
  5
9
330
0
100
AcDbSymbolTable
 70
     2
  0
APPID
  5
12
330
9
100
AcDbSymbolTableRecord
100
AcDbRegAppTableRecord
  2
ACAD
 70
     0
  0
ENDTAB
  0
TABLE
  2
DIMSTYLE
  5
A
330
0
100
AcDbSymbolTable
 70
     1
  0
DIMSTYLE
105
27
330
A
100
AcDbSymbolTableRecord
100
AcDbDimStyleTableRecord
  2
ISO-25
 70
     0
  3

  4

  5

  6

  7

 40
1.0
 41
2.5
 42
0.625
 43
3.75
 44
1.25
 45
0.0
 46
0.0
 47
0.0
 48
0.0
140
2.5
141
2.5
142
0.0
143
0.03937007874016
144
1.0
145
0.0
146
1.0
147
0.625
 71
     0
 72
     0
 73
     0
 74
     0
 75
     0
 76
     0
 77
     1
 78
     8
170
     0
171
     3
172
     1
173
     0
174
     0
175
     0
176
     0
177
     0
178
     0
270
     2
271
     2
272
     2
273
     2
274
     3
340
11
275
     0
280
     0
281
     0
282
     0
283
     0
284
     8
285
     0
286
     0
287
     3
288
     0
  0
ENDTAB
  0
TABLE
  2
BLOCK_RECORD
  5
1
330
0
100
AcDbSymbolTable
 70
     1
  0
BLOCK_RECORD
  5
1F
330
1
100
AcDbSymbolTableRecord
100
AcDbBlockTableRecord
  2
*MODEL_SPACE
  0
BLOCK_RECORD
  5
1B
330
1
100
AcDbSymbolTableRecord
100
AcDbBlockTableRecord
  2
*PAPER_SPACE
  0
ENDTAB
  0
ENDSEC
  0
SECTION
  2
BLOCKS
  0
BLOCK
  5
20
330
1F
100
AcDbEntity
  8
0
100
AcDbBlockBegin
  2
*MODEL_SPACE
 70
     0
 10
0.0
 20
0.0
 30
0.0
  3
*MODEL_SPACE
  1

  0
ENDBLK
  5
21
330
1F
100
AcDbEntity
  8
0
100
AcDbBlockEnd
  0
BLOCK
  5
1C
330
1B
100
AcDbEntity
 67
     1
  8
0
100
AcDbBlockBegin
  2
*PAPER_SPACE
  1

  0
ENDBLK
  5
1D
330
1B
100
AcDbEntity
 67
     1
  8
0
100
AcDbBlockEnd
  0
ENDSEC
  0
SECTION
  2
ENTITIES
  0
SPLINE
  5
100
100
AcDbEntity
  8
0
 62
7
100
AcDbSpline
 70
8
 71
3
 72
8
 73
4
 74
0
 40
0
 40
0
 40
0
 40
0
 40
1
 40
1
 40
1
 40
1
 10
0.264583
 20
7.911042
 30
0.0
 10
0.285042
 20
7.441141
 30
0.0
 10
0.267612
 20
6.965093
 30
0.0
 10
0.273403
 20
6.492812
 30
0.0
  0
SPLINE
  5
101
100
AcDbEntity
  8
0
 62
7
100
AcDbSpline
 70
8
 71
3
 72
8
 73
4
 74
0
 40
0
 40
0
 40
0
 40
0
 40
1
 40
1
 40
1
 40
1
 10
0.273403
 20
6.492812
 30
0.0
 10
0.273403
 20
4.510810
 30
0.0
 10
0.273403
 20
2.528808
 30
0.0
 10
0.273403
 20
0.546806
 30
0.0
  0
SPLINE
  5
102
100
AcDbEntity
  8
0
 62
7
100
AcDbSpline
 70
8
 71
3
 72
8
 73
4
 74
0
 40
0
 40
0
 40
0
 40
0
 40
1
 40
1
 40
1
 40
1
 10
0.273403
 20
0.546806
 30
0.0
 10
0.373356
 20
0.546806
 30
0.0
 10
0.473310
 20
0.546806
 30
0.0
 10
0.573264
 20
0.546806
 30
0.0
  0
SPLINE
  5
103
100
AcDbEntity
  8
0
 62
7
100
AcDbSpline
 70
8
 71
3
 72
8
 73
4
 74
0
 40
0
 40
0
 40
0
 40
0
 40
1
 40
1
 40
1
 40
1
 10
0.573264
 20
0.546806
 30
0.0
 10
0.555107
 20
0.901129
 30
0.0
 10
0.543332
 20
1.261194
 30
0.0
 10
0.589373
 20
1.612358
 30
0.0
  0
SPLINE
  5
104
100
AcDbEntity
  8
0
 62
7
100
AcDbSpline
 70
8
 71
3
 72
8
 73
4
 74
0
 40
0
 40
0
 40
0
 40
0
 40
1
 40
1
 40
1
 40
1
 10
0.589373
 20
1.612358
 30
0.0
 10
0.636906
 20
1.730516
 30
0.0
 10
0.698288
 20
1.867350
 30
0.0
 10
0.819947
 20
1.916716
 30
0.0
  0
SPLINE
  5
105
100
AcDbEntity
  8
0
 62
7
100
AcDbSpline
 70
8
 71
3
 72
8
 73
4
 74
0
 40
0
 40
0
 40
0
 40
0
 40
1
 40
1
 40
1
 40
1
 10
0.819947
 20
1.916716
 30
0.0
 10
0.940972
 20
1.939717
 30
0.0
 10
1.108159
 20
1.933971
 30
0.0
 10
1.144384
 20
2.079467
 30
0.0
  0
SPLINE
  5
106
100
AcDbEntity
  8
0
 62
7
100
AcDbSpline
 70
8
 71
3
 72
8
 73
4
 74
0
 40
0
 40
0
 40
0
 40
0
 40
1
 40
1
 40
1
 40
1
 10
1.144384
 20
2.079467
 30
0.0
 10
1.238932
 20
2.257860
 30
0.0
 10
1.356577
 20
2.424332
 30
0.0
 10
1.389100
 20
2.627602
 30
0.0
  0
SPLINE
  5
107
100
AcDbEntity
  8
0
 62
7
100
AcDbSpline
 70
8
 71
3
 72
8
 73
4
 74
0
 40
0
 40
0
 40
0
 40
0
 40
1
 40
1
 40
1
 40
1
 10
1.389100
 20
2.627602
 30
0.0
 10
1.412263
 20
2.756411
 30
0.0
 10
1.463044
 20
2.884729
 30
0.0
 10
1.525490
 20
2.988696
 30
0.0
  0
SPLINE
  5
108
100
AcDbEntity
  8
0
 62
7
100
AcDbSpline
 70
8
 71
3
 72
8
 73
4
 74
0
 40
0
 40
0
 40
0
 40
0
 40
1
 40
1
 40
1
 40
1
 10
1.525490
 20
2.988696
 30
0.0
 10
1.624220
 20
3.443205
 30
0.0
 10
1.642400
 20
3.911329
 30
0.0
 10
1.699729
 20
4.372345
 30
0.0
  0
SPLINE
  5
109
100
AcDbEntity
  8
0
 62
7
100
AcDbSpline
 70
8
 71
3
 72
8
 73
4
 74
0
 40
0
 40
0
 40
0
 40
0
 40
1
 40
1
 40
1
 40
1
 10
1.699729
 20
4.372345
 30
0.0
 10
1.719825
 20
4.683576
 30
0.0
 10
1.707364
 20
4.998615
 30
0.0
 10
1.770067
 20
5.306510
 30
0.0
  0
SPLINE
  5
10a
100
AcDbEntity
  8
0
 62
7
100
AcDbSpline
 70
8
 71
3
 72
8
 73
4
 74
0
 40
0
 40
0
 40
0
 40
0
 40
1
 40
1
 40
1
 40
1
 10
1.770067
 20
5.306510
 30
0.0
 10
1.806000
 20
5.515462
 30
0.0
 10
1.807847
 20
5.763607
 30
0.0
 10
1.984375
 20
5.909028
 30
0.0
  0
SPLINE
  5
10b
100
AcDbEntity
  8
0
 62
7
100
AcDbSpline
 70
8
 71
3
 72
8
 73
4
 74
0
 40
0
 40
0
 40
0
 40
0
 40
1
 40
1
 40
1
 40
1
 10
1.984375
 20
5.909028
 30
0.0
 10
2.128325
 20
5.954664
 30
0.0
 10
2.284960
 20
5.935496
 30
0.0
 10
2.434167
 20
5.926667
 30
0.0
  0
SPLINE
  5
10c
100
AcDbEntity
  8
0
 62
7
100
AcDbSpline
 70
8
 71
3
 72
8
 73
4
 74
0
 40
0
 40
0
 40
0
 40
0
 40
1
 40
1
 40
1
 40
1
 10
2.434167
 20
5.926667
 30
0.0
 10
2.523732
 20
5.830110
 30
0.0
 10
2.517848
 20
5.679181
 30
0.0
 10
2.639657
 20
5.606523
 30
0.0
  0
SPLINE
  5
10d
100
AcDbEntity
  8
0
 62
7
100
AcDbSpline
 70
8
 71
3
 72
8
 73
4
 74
0
 40
0
 40
0
 40
0
 40
0
 40
1
 40
1
 40
1
 40
1
 10
2.639657
 20
5.606523
 30
0.0
 10
2.710884
 20
5.541347
 30
0.0
 10
2.761674
 20
5.436512
 30
0.0
 10
2.771939
 20
5.345727
 30
0.0
  0
SPLINE
  5
10e
100
AcDbEntity
  8
0
 62
7
100
AcDbSpline
 70
8
 71
3
 72
8
 73
4
 74
0
 40
0
 40
0
 40
0
 40
0
 40
1
 40
1
 40
1
 40
1
 10
2.771939
 20
5.345727
 30
0.0
 10
2.740089
 20
5.221917
 30
0.0
 10
2.664918
 20
5.074921
 30
0.0
 10
2.513654
 20
5.099837
 30
0.0
  0
SPLINE
  5
10f
100
AcDbEntity
  8
0
 62
7
100
AcDbSpline
 70
8
 71
3
 72
8
 73
4
 74
0
 40
0
 40
0
 40
0
 40
0
 40
1
 40
1
 40
1
 40
1
 10
2.513654
 20
5.099837
 30
0.0
 10
2.404264
 20
5.112854
 30
0.0
 10
2.257703
 20
5.121515
 30
0.0
 10
2.240413
 20
4.984082
 30
0.0
  0
SPLINE
  5
110
100
AcDbEntity
  8
0
 62
7
100
AcDbSpline
 70
8
 71
3
 72
8
 73
4
 74
0
 40
0
 40
0
 40
0
 40
0
 40
1
 40
1
 40
1
 40
1
 10
2.240413
 20
4.984082
 30
0.0
 10
2.207695
 20
4.887834
 30
0.0
 10
2.270319
 20
4.749369
 30
0.0
 10
2.389982
 20
4.788958
 30
0.0
  0
SPLINE
  5
111
100
AcDbEntity
  8
0
 62
7
100
AcDbSpline
 70
8
 71
3
 72
8
 73
4
 74
0
 40
0
 40
0
 40
0
 40
0
 40
1
 40
1
 40
1
 40
1
 10
2.389982
 20
4.788958
 30
0.0
 10
2.534062
 20
4.788958
 30
0.0
 10
2.678142
 20
4.788958
 30
0.0
 10
2.822222
 20
4.788958
 30
0.0
  0
SPLINE
  5
112
100
AcDbEntity
  8
0
 62
7
100
AcDbSpline
 70
8
 71
3
 72
8
 73
4
 74
0
 40
0
 40
0
 40
0
 40
0
 40
1
 40
1
 40
1
 40
1
 10
2.822222
 20
4.788958
 30
0.0
 10
2.923239
 20
4.615414
 30
0.0
 10
2.951537
 20
4.412500
 30
0.0
 10
3.069510
 20
4.247863
 30
0.0
  0
SPLINE
  5
113
100
AcDbEntity
  8
0
 62
7
100
AcDbSpline
 70
8
 71
3
 72
8
 73
4
 74
0
 40
0
 40
0
 40
0
 40
0
 40
1
 40
1
 40
1
 40
1
 10
3.069510
 20
4.247863
 30
0.0
 10
3.190062
 20
4.083962
 30
0.0
 10
3.372966
 20
3.982040
 30
0.0
 10
3.488454
 20
3.813990
 30
0.0
  0
SPLINE
  5
114
100
AcDbEntity
  8
0
 62
7
100
AcDbSpline
 70
8
 71
3
 72
8
 73
4
 74
0
 40
0
 40
0
 40
0
 40
0
 40
1
 40
1
 40
1
 40
1
 10
3.488454
 20
3.813990
 30
0.0
 10
3.582063
 20
3.689063
 30
0.0
 10
3.784350
 20
3.615685
 30
0.0
 10
3.762943
 20
3.431068
 30
0.0
  0
SPLINE
  5
115
100
AcDbEntity
  8
0
 62
7
100
AcDbSpline
 70
8
 71
3
 72
8
 73
4
 74
0
 40
0
 40
0
 40
0
 40
0
 40
1
 40
1
 40
1
 40
1
 10
3.762943
 20
3.431068
 30
0.0
 10
3.783217
 20
3.285311
 30
0.0
 10
3.712896
 20
3.113146
 30
0.0
 10
3.580694
 20
3.042708
 30
0.0
  0
SPLINE
  5
116
100
AcDbEntity
  8
0
 62
7
100
AcDbSpline
 70
8
 71
3
 72
8
 73
4
 74
0
 40
0
 40
0
 40
0
 40
0
 40
1
 40
1
 40
1
 40
1
 10
3.580694
 20
3.042708
 30
0.0
 10
3.308820
 20
3.074954
 30
0.0
 10
3.150450
 20
3.339037
 30
0.0
 10
3.007431
 20
3.545417
 30
0.0
  0
SPLINE
  5
117
100
AcDbEntity
  8
0
 62
7
100
AcDbSpline
 70
8
 71
3
 72
8
 73
4
 74
0
 40
0
 40
0
 40
0
 40
0
 40
1
 40
1
 40
1
 40
1
 10
3.007431
 20
3.545417
 30
0.0
 10
2.920054
 20
3.666400
 30
0.0
 10
2.901312
 20
3.785438
 30
0.0
 10
2.839861
 20
3.924653
 30
0.0
  0
SPLINE
  5
118
100
AcDbEntity
  8
0
 62
7
100
AcDbSpline
 70
8
 71
3
 72
8
 73
4
 74
0
 40
0
 40
0
 40
0
 40
0
 40
1
 40
1
 40
1
 40
1
 10
2.839861
 20
3.924653
 30
0.0
 10
2.725224
 20
4.043113
 30
0.0
 10
2.614356
 20
4.162818
 30
0.0
 10
2.515086
 20
4.293525
 30
0.0
  0
SPLINE
  5
119
100
AcDbEntity
  8
0
 62
7
100
AcDbSpline
 70
8
 71
3
 72
8
 73
4
 74
0
 40
0
 40
0
 40
0
 40
0
 40
1
 40
1
 40
1
 40
1
 10
2.515086
 20
4.293525
 30
0.0
 10
2.446258
 20
4.369071
 30
0.0
 10
2.261462
 20
4.365279
 30
0.0
 10
2.248958
 20
4.233333
 30
0.0
  0
SPLINE
  5
11a
100
AcDbEntity
  8
0
 62
7
100
AcDbSpline
 70
8
 71
3
 72
8
 73
4
 74
0
 40
0
 40
0
 40
0
 40
0
 40
1
 40
1
 40
1
 40
1
 10
2.248958
 20
4.233333
 30
0.0
 10
2.252208
 20
3.860427
 30
0.0
 10
2.242528
 20
3.485758
 30
0.0
 10
2.253673
 20
3.113929
 30
0.0
  0
SPLINE
  5
11b
100
AcDbEntity
  8
0
 62
7
100
AcDbSpline
 70
8
 71
3
 72
8
 73
4
 74
0
 40
0
 40
0
 40
0
 40
0
 40
1
 40
1
 40
1
 40
1
 10
2.253673
 20
3.113929
 30
0.0
 10
2.294199
 20
2.960768
 30
0.0
 10
2.330524
 20
2.802932
 30
0.0
 10
2.444021
 20
2.686510
 30
0.0
  0
SPLINE
  5
11c
100
AcDbEntity
  8
0
 62
7
100
AcDbSpline
 70
8
 71
3
 72
8
 73
4
 74
0
 40
0
 40
0
 40
0
 40
0
 40
1
 40
1
 40
1
 40
1
 10
2.444021
 20
2.686510
 30
0.0
 10
2.531185
 20
2.527988
 30
0.0
 10
2.687944
 20
2.425959
 30
0.0
 10
2.793389
 20
2.279391
 30
0.0
  0
SPLINE
  5
11d
100
AcDbEntity
  8
0
 62
7
100
AcDbSpline
 70
8
 71
3
 72
8
 73
4
 74
0
 40
0
 40
0
 40
0
 40
0
 40
1
 40
1
 40
1
 40
1
 10
2.793389
 20
2.279391
 30
0.0
 10
2.975235
 20
2.040704
 30
0.0
 10
3.232870
 20
1.864566
 30
0.0
 10
3.434123
 20
1.639633
 30
0.0
  0
SPLINE
  5
11e
100
AcDbEntity
  8
0
 62
7
100
AcDbSpline
 70
8
 71
3
 72
8
 73
4
 74
0
 40
0
 40
0
 40
0
 40
0
 40
1
 40
1
 40
1
 40
1
 10
3.434123
 20
1.639633
 30
0.0
 10
3.668970
 20
1.415633
 30
0.0
 10
3.863232
 20
1.158024
 30
0.0
 10
4.122946
 20
0.962175
 30
0.0
  0
SPLINE
  5
11f
100
AcDbEntity
  8
0
 62
7
100
AcDbSpline
 70
8
 71
3
 72
8
 73
4
 74
0
 40
0
 40
0
 40
0
 40
0
 40
1
 40
1
 40
1
 40
1
 10
4.122946
 20
0.962175
 30
0.0
 10
4.282851
 20
0.834069
 30
0.0
 10
4.431945
 20
0.684514
 30
0.0
 10
4.586111
 20
0.555625
 30
0.0
  0
SPLINE
  5
120
100
AcDbEntity
  8
0
 62
7
100
AcDbSpline
 70
8
 71
3
 72
8
 73
4
 74
0
 40
0
 40
0
 40
0
 40
0
 40
1
 40
1
 40
1
 40
1
 10
4.586111
 20
0.555625
 30
0.0
 10
4.756620
 20
0.555625
 30
0.0
 10
4.927130
 20
0.555625
 30
0.0
 10
5.097639
 20
0.555625
 30
0.0
  0
SPLINE
  5
121
100
AcDbEntity
  8
0
 62
7
100
AcDbSpline
 70
8
 71
3
 72
8
 73
4
 74
0
 40
0
 40
0
 40
0
 40
0
 40
1
 40
1
 40
1
 40
1
 10
5.097639
 20
0.555625
 30
0.0
 10
5.097639
 20
3.007431
 30
0.0
 10
5.097639
 20
5.459236
 30
0.0
 10
5.097639
 20
7.911042
 30
0.0
  0
SPLINE
  5
122
100
AcDbEntity
  8
0
 62
7
100
AcDbSpline
 70
8
 71
3
 72
8
 73
4
 74
0
 40
0
 40
0
 40
0
 40
0
 40
1
 40
1
 40
1
 40
1
 10
5.097639
 20
7.911042
 30
0.0
 10
3.486620
 20
7.911042
 30
0.0
 10
1.875602
 20
7.911042
 30
0.0
 10
0.264583
 20
7.911042
 30
0.0
  0
LWPOLYLINE
  5
123
100
AcDbEntity
  8
0
 62
7
100
AcDbPolyline
 90
2
 70
1
 10
0.264583
 20
7.911042
 30
0.0
 10
0.264583
 20
7.911042
 30
0.0
  0
LWPOLYLINE
  5
124
100
AcDbEntity
  8
0
 62
7
100
AcDbPolyline
 90
289
 70
1
 10
0.299861
 20
7.884583
 30
0.0
 10
0.896276
 20
7.884583
 30
0.0
 10
1.492691
 20
7.884583
 30
0.0
 10
2.089106
 20
7.884583
 30
0.0
 10
2.685521
 20
7.884583
 30
0.0
 10
3.281936
 20
7.884583
 30
0.0
 10
3.878351
 20
7.884583
 30
0.0
 10
4.474766
 20
7.884583
 30
0.0
 10
5.071181
 20
7.884583
 30
0.0
 10
5.071181
 20
6.971771
 30
0.0
 10
5.071181
 20
6.058958
 30
0.0
 10
5.071181
 20
5.146146
 30
0.0
 10
5.071181
 20
4.233333
 30
0.0
 10
5.071181
 20
3.320521
 30
0.0
 10
5.071181
 20
2.407708
 30
0.0
 10
5.071181
 20
1.494896
 30
0.0
 10
5.071181
 20
0.582083
 30
0.0
 10
5.010173
 20
0.583918
 30
0.0
 10
4.948298
 20
0.583551
 30
0.0
 10
4.885971
 20
0.582055
 30
0.0
 10
4.823609
 20
0.580475
 30
0.0
 10
4.761627
 20
0.579854
 30
0.0
 10
4.700441
 20
0.581237
 30
0.0
 10
4.640467
 20
0.585665
 30
0.0
 10
4.582123
 20
0.594188
 30
0.0
 10
4.460698
 20
0.705695
 30
0.0
 10
4.336653
 20
0.814445
 30
0.0
 10
4.211459
 20
0.921974
 30
0.0
 10
4.086586
 20
1.029817
 30
0.0
 10
3.963503
 20
1.139510
 30
0.0
 10
3.843682
 20
1.252589
 30
0.0
 10
3.728592
 20
1.370590
 30
0.0
 10
3.619704
 20
1.495049
 30
0.0
 10
3.569197
 20
1.544910
 30
0.0
 10
3.518304
 20
1.594980
 30
0.0
 10
3.467128
 20
1.645244
 30
0.0
 10
3.415768
 20
1.695685
 30
0.0
 10
3.364327
 20
1.746289
 30
0.0
 10
3.312906
 20
1.797038
 30
0.0
 10
3.261605
 20
1.847916
 30
0.0
 10
3.210526
 20
1.898908
 30
0.0
 10
3.118194
 20
1.983338
 30
0.0
 10
3.029569
 20
2.071560
 30
0.0
 10
2.943643
 20
2.162518
 30
0.0
 10
2.859406
 20
2.255155
 30
0.0
 10
2.775849
 20
2.348404
 30
0.0
 10
2.691962
 20
2.441225
 30
0.0
 10
2.606737
 20
2.532553
 30
0.0
 10
2.519164
 20
2.621330
 30
0.0
 10
2.478845
 20
2.670627
 30
0.0
 10
2.441932
 20
2.721664
 30
0.0
 10
2.408496
 20
2.774465
 30
0.0
 10
2.378607
 20
2.829056
 30
0.0
 10
2.352336
 20
2.885463
 30
0.0
 10
2.329754
 20
2.943713
 30
0.0
 10
2.310931
 20
3.003831
 30
0.0
 10
2.295938
 20
3.065844
 30
0.0
 10
2.282453
 20
3.146261
 30
0.0
 10
2.275178
 20
3.227524
 30
0.0
 10
2.272567
 20
3.309423
 30
0.0
 10
2.273078
 20
3.391748
 30
0.0
 10
2.275163
 20
3.474287
 30
0.0
 10
2.277277
 20
3.556830
 30
0.0
 10
2.277878
 20
3.639166
 30
0.0
 10
2.275417
 20
3.721086
 30
0.0
 10
2.276580
 20
3.787045
 30
0.0
 10
2.276349
 20
3.853332
 30
0.0
 10
2.275395
 20
3.919790
 30
0.0
 10
2.274390
 20
3.986260
 30
0.0
 10
2.274007
 20
4.052584
 30
0.0
 10
2.274915
 20
4.118602
 30
0.0
 10
2.277787
 20
4.184158
 30
0.0
 10
2.283294
 20
4.249091
 30
0.0
 10
2.299954
 20
4.279499
 30
0.0
 10
2.324508
 20
4.299311
 30
0.0
 10
2.354712
 20
4.309700
 30
0.0
 10
2.388324
 20
4.311844
 30
0.0
 10
2.423101
 20
4.306903
 30
0.0
 10
2.456801
 20
4.296057
 30
0.0
 10
2.487180
 20
4.280478
 30
0.0
 10
2.511997
 20
4.261341
 30
0.0
 10
2.546491
 20
4.205769
 30
0.0
 10
2.587525
 20
4.154784
 30
0.0
 10
2.632739
 20
4.106809
 30
0.0
 10
2.679775
 20
4.060266
 30
0.0
 10
2.726271
 20
4.013579
 30
0.0
 10
2.769870
 20
3.965171
 30
0.0
 10
2.808211
 20
3.913463
 30
0.0
 10
2.838934
 20
3.856880
 30
0.0
 10
2.871059
 20
3.759006
 30
0.0
 10
2.911438
 20
3.666205
 30
0.0
 10
2.958773
 20
3.577587
 30
0.0
 10
3.011767
 20
3.492266
 30
0.0
 10
3.069122
 20
3.409353
 30
0.0
 10
3.129540
 20
3.327960
 30
0.0
 10
3.191723
 20
3.247201
 30
0.0
 10
3.254374
 20
3.166186
 30
0.0
 10
3.300179
 20
3.138708
 30
0.0
 10
3.349224
 20
3.106453
 30
0.0
 10
3.400592
 20
3.073844
 30
0.0
 10
3.453362
 20
3.045306
 30
0.0
 10
3.506614
 20
3.025266
 30
0.0
 10
3.559428
 20
3.018142
 30
0.0
 10
3.610886
 20
3.028364
 30
0.0
 10
3.660068
 20
3.060354
 30
0.0
 10
3.703810
 20
3.110503
 30
0.0
 10
3.738561
 20
3.166373
 30
0.0
 10
3.764607
 20
3.226713
 30
0.0
 10
3.782235
 20
3.290269
 30
0.0
 10
3.791732
 20
3.355790
 30
0.0
 10
3.793397
 20
3.422021
 30
0.0
 10
3.787493
 20
3.487712
 30
0.0
 10
3.774319
 20
3.551608
 30
0.0
 10
3.744500
 20
3.604630
 30
0.0
 10
3.706978
 20
3.650437
 30
0.0
 10
3.664036
 20
3.691247
 30
0.0
 10
3.617971
 20
3.729284
 30
0.0
 10
3.571080
 20
3.766774
 30
0.0
 10
3.525657
 20
3.805939
 30
0.0
 10
3.483999
 20
3.849004
 30
0.0
 10
3.448403
 20
3.898194
 30
0.0
 10
3.409393
 20
3.945811
 30
0.0
 10
3.366647
 20
3.989892
 30
0.0
 10
3.321464
 20
4.031702
 30
0.0
 10
3.275143
 20
4.072507
 30
0.0
 10
3.228982
 20
4.113571
 30
0.0
 10
3.184279
 20
4.156161
 30
0.0
 10
3.142334
 20
4.201539
 30
0.0
 10
3.104444
 20
4.250972
 30
0.0
 10
3.072886
 20
4.292982
 30
0.0
 10
3.045578
 20
4.337244
 30
0.0
 10
3.021756
 20
4.383560
 30
0.0
 10
3.000651
 20
4.431732
 30
0.0
 10
2.981494
 20
4.481562
 30
0.0
 10
2.963522
 20
4.532853
 30
0.0
 10
2.945965
 20
4.585408
 30
0.0
 10
2.928058
 20
4.639028
 30
0.0
 10
2.912812
 20
4.668147
 30
0.0
 10
2.898360
 20
4.701133
 30
0.0
 10
2.883334
 20
4.735043
 30
0.0
 10
2.866367
 20
4.766933
 30
0.0
 10
2.846092
 20
4.793859
 30
0.0
 10
2.821143
 20
4.812878
 30
0.0
 10
2.790153
 20
4.821046
 30
0.0
 10
2.751753
 20
4.815418
 30
0.0
 10
2.695557
 20
4.816688
 30
0.0
 10
2.639000
 20
4.816429
 30
0.0
 10
2.582259
 20
4.815385
 30
0.0
 10
2.525506
 20
4.814284
 30
0.0
 10
2.468917
 20
4.813889
 30
0.0
 10
2.412666
 20
4.814933
 30
0.0
 10
2.356927
 20
4.818136
 30
0.0
 10
2.301874
 20
4.824249
 30
0.0
 10
2.273631
 20
4.863302
 30
0.0
 10
2.260439
 20
4.908663
 30
0.0
 10
2.261012
 20
4.956009
 30
0.0
 10
2.274065
 20
5.001016
 30
0.0
 10
2.298309
 20
5.039361
 30
0.0
 10
2.332458
 20
5.066723
 30
0.0
 10
2.375225
 20
5.078774
 30
0.0
 10
2.425323
 20
5.071193
 30
0.0
 10
2.469431
 20
5.070629
 30
0.0
 10
2.514898
 20
5.070347
 30
0.0
 10
2.560332
 20
5.072209
 30
0.0
 10
2.604342
 20
5.078139
 30
0.0
 10
2.645537
 20
5.090009
 30
0.0
 10
2.682526
 20
5.109714
 30
0.0
 10
2.713918
 20
5.139140
 30
0.0
 10
2.738322
 20
5.180178
 30
0.0
 10
2.754738
 20
5.215885
 30
0.0
 10
2.770394
 20
5.252507
 30
0.0
 10
2.783745
 20
5.289756
 30
0.0
 10
2.793248
 20
5.327341
 30
0.0
 10
2.797361
 20
5.364971
 30
0.0
 10
2.794538
 20
5.402356
 30
0.0
 10
2.783242
 20
5.439207
 30
0.0
 10
2.761923
 20
5.475232
 30
0.0
 10
2.739996
 20
5.527409
 30
0.0
 10
2.708401
 20
5.573388
 30
0.0
 10
2.670761
 20
5.615500
 30
0.0
 10
2.630697
 20
5.656075
 30
0.0
 10
2.591831
 20
5.697445
 30
0.0
 10
2.557785
 20
5.741940
 30
0.0
 10
2.532181
 20
5.791892
 30
0.0
 10
2.518642
 20
5.849630
 30
0.0
 10
2.506700
 20
5.882291
 30
0.0
 10
2.489379
 20
5.909017
 30
0.0
 10
2.467361
 20
5.930117
 30
0.0
 10
2.441329
 20
5.945896
 30
0.0
 10
2.411968
 20
5.956661
 30
0.0
 10
2.379960
 20
5.962720
 30
0.0
 10
2.345989
 20
5.964379
 30
0.0
 10
2.310738
 20
5.961944
 30
0.0
 10
2.257251
 20
5.961462
 30
0.0
 10
2.202159
 20
5.962685
 30
0.0
 10
2.146711
 20
5.963193
 30
0.0
 10
2.092157
 20
5.960564
 30
0.0
 10
2.039748
 20
5.952378
 30
0.0
 10
1.990733
 20
5.936216
 30
0.0
 10
1.946363
 20
5.909655
 30
0.0
 10
1.907886
 20
5.870276
 30
0.0
 10
1.881716
 20
5.838641
 30
0.0
 10
1.859471
 20
5.803290
 30
0.0
 10
1.840599
 20
5.765015
 30
0.0
 10
1.824549
 20
5.724608
 30
0.0
 10
1.810767
 20
5.682862
 30
0.0
 10
1.798703
 20
5.640570
 30
0.0
 10
1.787803
 20
5.598524
 30
0.0
 10
1.777516
 20
5.557515
 30
0.0
 10
1.751718
 20
5.415537
 30
0.0
 10
1.730976
 20
5.272879
 30
0.0
 10
1.714657
 20
5.129674
 30
0.0
 10
1.702127
 20
4.986059
 30
0.0
 10
1.692751
 20
4.842168
 30
0.0
 10
1.685896
 20
4.698136
 30
0.0
 10
1.680928
 20
4.554098
 30
0.0
 10
1.677213
 20
4.410189
 30
0.0
 10
1.657624
 20
4.237176
 30
0.0
 10
1.639959
 20
4.063785
 30
0.0
 10
1.623026
 20
3.890230
 30
0.0
 10
1.605632
 20
3.716726
 30
0.0
 10
1.586585
 20
3.543489
 30
0.0
 10
1.564694
 20
3.370736
 30
0.0
 10
1.538765
 20
3.198679
 30
0.0
 10
1.507607
 20
3.027536
 30
0.0
 10
1.492979
 20
2.983822
 30
0.0
 10
1.474539
 20
2.941851
 30
0.0
 10
1.453925
 20
2.900893
 30
0.0
 10
1.432773
 20
2.860223
 30
0.0
 10
1.412721
 20
2.819110
 30
0.0
 10
1.395407
 20
2.776829
 30
0.0
 10
1.382466
 20
2.732652
 30
0.0
 10
1.375536
 20
2.685849
 30
0.0
 10
1.361499
 20
2.621878
 30
0.0
 10
1.344702
 20
2.559023
 30
0.0
 10
1.325084
 20
2.497311
 30
0.0
 10
1.302581
 20
2.436772
 30
0.0
 10
1.277132
 20
2.377432
 30
0.0
 10
1.248673
 20
2.319318
 30
0.0
 10
1.217142
 20
2.262459
 30
0.0
 10
1.182477
 20
2.206881
 30
0.0
 10
1.161384
 20
2.164374
 30
0.0
 10
1.140502
 20
2.121378
 30
0.0
 10
1.118332
 20
2.079879
 30
0.0
 10
1.093381
 20
2.041866
 30
0.0
 10
1.064152
 20
2.009327
 30
0.0
 10
1.029148
 20
1.984248
 30
0.0
 10
0.986874
 20
1.968619
 30
0.0
 10
0.935834
 20
1.964425
 30
0.0
 10
0.893330
 20
1.962986
 30
0.0
 10
0.853646
 20
1.956023
 30
0.0
 10
0.816592
 20
1.943913
 30
0.0
 10
0.781973
 20
1.927031
 30
0.0
 10
0.749597
 20
1.905754
 30
0.0
 10
0.719271
 20
1.880461
 30
0.0
 10
0.690802
 20
1.851532
 30
0.0
 10
0.663998
 20
1.819342
 30
0.0
 10
0.632573
 20
1.773405
 30
0.0
 10
0.606143
 20
1.725048
 30
0.0
 10
0.584497
 20
1.674611
 30
0.0
 10
0.567430
 20
1.622432
 30
0.0
 10
0.554730
 20
1.568852
 30
0.0
 10
0.546192
 20
1.514211
 30
0.0
 10
0.541605
 20
1.458847
 30
0.0
 10
0.540764
 20
1.403100
 30
0.0
 10
0.536655
 20
1.300471
 30
0.0
 10
0.533600
 20
1.197815
 30
0.0
 10
0.531769
 20
1.095147
 30
0.0
 10
0.531325
 20
0.992478
 30
0.0
 10
0.532440
 20
0.889824
 30
0.0
 10
0.535280
 20
0.787197
 30
0.0
 10
0.540014
 20
0.684612
 30
0.0
 10
0.546809
 20
0.582081
 30
0.0
 10
0.512313
 20
0.587263
 30
0.0
 10
0.470683
 20
0.585316
 30
0.0
 10
0.426004
 20
0.580312
 30
0.0
 10
0.382361
 20
0.576347
 30
0.0
 10
0.343841
 20
0.577504
 30
0.0
 10
0.314528
 20
0.587867
 30
0.0
 10
0.298507
 20
0.611523
 30
0.0
 10
0.299865
 20
0.652557
 30
0.0
 10
0.299865
 20
1.556561
 30
0.0
 10
0.299865
 20
2.460565
 30
0.0
 10
0.299865
 20
3.364569
 30
0.0
 10
0.299865
 20
4.268573
 30
0.0
 10
0.299865
 20
5.172577
 30
0.0
 10
0.299865
 20
6.076581
 30
0.0
 10
0.299865
 20
6.980584
 30
0.0
 10
0.299861
 20
7.884583
 30
0.0
  0
ENDSEC
  0
SECTION
  2
OBJECTS
  0
DICTIONARY
  5
C
330
0
100
AcDbDictionary
  3
ACAD_GROUP
350
D
  3
ACAD_MLINESTYLE
350
17
  0
DICTIONARY
  5
D
330
C
100
AcDbDictionary
  0
DICTIONARY
  5
1A
330
C
100
AcDbDictionary
  0
DICTIONARY
  5
17
330
C
100
AcDbDictionary
  3
STANDARD
350
18
  0
DICTIONARY
  5
19
330
C
100
AcDbDictionary
  0
ENDSEC
  0
EOF
