solid model
facet normal 0.0 0.0 -1.0
outer loop
vertex -16.0 16.0 0.0
vertex -5.71576766497729 3.3 0.0
vertex -16.0 -16.0 0.0
endloop
endfacet
facet normal 0.0 0.0 -1.0
outer loop
vertex -5.71576766497729 3.3 0.0
vertex -16.0 16.0 0.0
vertex -4.66690475583121 4.66690475583121 0.0
endloop
endfacet
facet normal 0.0 0.0 -1.0
outer loop
vertex -4.66690475583121 4.66690475583121 0.0
vertex -16.0 16.0 0.0
vertex -3.3 5.71576766497729 0.0
endloop
endfacet
facet normal 0.0 0.0 -1.0
outer loop
vertex -3.3 5.71576766497729 0.0
vertex -16.0 16.0 0.0
vertex 16.0 16.0 0.0
endloop
endfacet
facet normal 0.0 0.0 -1.0
outer loop
vertex -16.0 -16.0 0.0
vertex -5.71576766497729 3.3 0.0
vertex -6.37511045350785 1.70820569767664 0.0
endloop
endfacet
facet normal 0.0 0.0 -1.0
outer loop
vertex -16.0 -16.0 0.0
vertex -6.37511045350785 1.70820569767664 0.0
vertex -6.6 8.08266887437253e-016 0.0
endloop
endfacet
facet normal 0.0 0.0 -1.0
outer loop
vertex -3.3 5.71576766497729 0.0
vertex 16.0 16.0 0.0
vertex -1.70820569767664 6.37511045350785 0.0
endloop
endfacet
facet normal 0.0 0.0 -1.0
outer loop
vertex -1.70820569767664 6.37511045350785 0.0
vertex 16.0 16.0 0.0
vertex 4.04133443718626e-016 6.6 0.0
endloop
endfacet
facet normal 0.0 0.0 -1.0
outer loop
vertex 4.04133443718626e-016 6.6 0.0
vertex 16.0 16.0 0.0
vertex 1.70820569767664 6.37511045350785 0.0
endloop
endfacet
facet normal 0.0 0.0 -1.0
outer loop
vertex 1.70820569767664 6.37511045350785 0.0
vertex 16.0 16.0 0.0
vertex 3.3 5.71576766497729 0.0
endloop
endfacet
facet normal 0.0 0.0 -1.0
outer loop
vertex 3.3 5.71576766497729 0.0
vertex 16.0 16.0 0.0
vertex 4.66690475583121 4.66690475583121 0.0
endloop
endfacet
facet normal 0.0 0.0 -1.0
outer loop
vertex 4.66690475583121 4.66690475583121 0.0
vertex 16.0 16.0 0.0
vertex 5.71576766497729 3.3 0.0
endloop
endfacet
facet normal 0.0 0.0 -1.0
outer loop
vertex 5.71576766497729 3.3 0.0
vertex 16.0 16.0 0.0
vertex 6.37511045350785 1.70820569767664 0.0
endloop
endfacet
facet normal 0.0 0.0 -1.0
outer loop
vertex 6.37511045350785 1.70820569767664 0.0
vertex 16.0 16.0 0.0
vertex 6.6 0.0 0.0
endloop
endfacet
facet normal 0.0 0.0 -1.0
outer loop
vertex -16.0 -16.0 0.0
vertex -3.3 -5.71576766497729 0.0
vertex 16.0 -16.0 0.0
endloop
endfacet
facet normal 0.0 0.0 -1.0
outer loop
vertex -3.3 -5.71576766497729 0.0
vertex -16.0 -16.0 0.0
vertex -4.66690475583122 -4.66690475583121 0.0
endloop
endfacet
facet normal 0.0 0.0 -1.0
outer loop
vertex -4.66690475583122 -4.66690475583121 0.0
vertex -16.0 -16.0 0.0
vertex -5.71576766497729 -3.3 0.0
endloop
endfacet
facet normal 0.0 0.0 -1.0
outer loop
vertex -5.71576766497729 -3.3 0.0
vertex -16.0 -16.0 0.0
vertex -6.37511045350785 -1.70820569767663 0.0
endloop
endfacet
facet normal 0.0 0.0 -1.0
outer loop
vertex -6.37511045350785 -1.70820569767663 0.0
vertex -16.0 -16.0 0.0
vertex -6.6 8.08266887437253e-016 0.0
endloop
endfacet
facet normal 0.0 0.0 -1.0
outer loop
vertex 16.0 -16.0 0.0
vertex -3.3 -5.71576766497729 0.0
vertex -1.70820569767664 -6.37511045350785 0.0
endloop
endfacet
facet normal 0.0 0.0 -1.0
outer loop
vertex 16.0 -16.0 0.0
vertex -1.70820569767664 -6.37511045350785 0.0
vertex -1.21240033115588e-015 -6.6 0.0
endloop
endfacet
facet normal 0.0 0.0 -1.0
outer loop
vertex 16.0 -16.0 0.0
vertex -1.21240033115588e-015 -6.6 0.0
vertex 1.70820569767663 -6.37511045350785 0.0
endloop
endfacet
facet normal 0.0 0.0 -1.0
outer loop
vertex 16.0 -16.0 0.0
vertex 1.70820569767663 -6.37511045350785 0.0
vertex 3.29999999999999 -5.7157676649773 0.0
endloop
endfacet
facet normal 0.0 0.0 -1.0
outer loop
vertex 16.0 -16.0 0.0
vertex 3.29999999999999 -5.7157676649773 0.0
vertex 4.66690475583121 -4.66690475583121 0.0
endloop
endfacet
facet normal 0.0 0.0 -1.0
outer loop
vertex 16.0 -16.0 0.0
vertex 4.66690475583121 -4.66690475583121 0.0
vertex 5.71576766497729 -3.3 0.0
endloop
endfacet
facet normal 0.0 0.0 -1.0
outer loop
vertex 16.0 -16.0 0.0
vertex 5.71576766497729 -3.3 0.0
vertex 6.37511045350785 -1.70820569767664 0.0
endloop
endfacet
facet normal 0.0 0.0 -1.0
outer loop
vertex 16.0 -16.0 0.0
vertex 6.37511045350785 -1.70820569767664 0.0
vertex 6.6 0.0 0.0
endloop
endfacet
facet normal 0.0 0.0 -1.0
outer loop
vertex 16.0 -16.0 0.0
vertex 6.6 0.0 0.0
vertex 16.0 16.0 0.0
endloop
endfacet
facet normal 0.0 0.0 1.0
outer loop
vertex 16.0 -16.0 4.0
vertex -16.0 16.0 4.0
vertex -16.0 -16.0 4.0
endloop
endfacet
facet normal 0.0 0.0 1.0
outer loop
vertex -16.0 16.0 4.0
vertex 16.0 -16.0 4.0
vertex 16.0 16.0 4.0
endloop
endfacet
facet normal 0.0 -1.0 0.0
outer loop
vertex 16.0 -16.0 4.0
vertex -16.0 -16.0 0.0
vertex 16.0 -16.0 0.0
endloop
endfacet
facet normal 0.0 -1.0 0.0
outer loop
vertex -16.0 -16.0 0.0
vertex 16.0 -16.0 4.0
vertex -16.0 -16.0 4.0
endloop
endfacet
facet normal -1.0 0.0 0.0
outer loop
vertex -16.0 16.0 4.0
vertex -16.0 -16.0 0.0
vertex -16.0 -16.0 4.0
endloop
endfacet
facet normal -1.0 0.0 0.0
outer loop
vertex -16.0 -16.0 0.0
vertex -16.0 16.0 4.0
vertex -16.0 16.0 0.0
endloop
endfacet
facet normal 0.0 1.0 0.0
outer loop
vertex -16.0 16.0 4.0
vertex 16.0 16.0 0.0
vertex -16.0 16.0 0.0
endloop
endfacet
facet normal 0.0 1.0 0.0
outer loop
vertex 16.0 16.0 0.0
vertex -16.0 16.0 4.0
vertex 16.0 16.0 4.0
endloop
endfacet
facet normal 1.0 0.0 0.0
outer loop
vertex 16.0 16.0 0.0
vertex 16.0 -16.0 4.0
vertex 16.0 -16.0 0.0
endloop
endfacet
facet normal 1.0 0.0 0.0
outer loop
vertex 16.0 -16.0 4.0
vertex 16.0 16.0 0.0
vertex 16.0 16.0 4.0
endloop
endfacet
facet normal 0.0 0.0 -1.0
outer loop
vertex -6.37511045350785 1.70820569767664 2.0
vertex -6.37511045350785 -1.70820569767663 2.0
vertex -6.6 8.08266887437253e-016 2.0
endloop
endfacet
facet normal 0.0 0.0 -1.0
outer loop
vertex -6.37511045350785 -1.70820569767663 2.0
vertex -6.37511045350785 1.70820569767664 2.0
vertex -5.71576766497729 -3.3 2.0
endloop
endfacet
facet normal 0.0 0.0 -1.0
outer loop
vertex -5.71576766497729 -3.3 2.0
vertex -6.37511045350785 1.70820569767664 2.0
vertex -5.71576766497729 3.3 2.0
endloop
endfacet
facet normal 0.0 0.0 -1.0
outer loop
vertex -5.71576766497729 -3.3 2.0
vertex -5.71576766497729 3.3 2.0
vertex -4.66690475583122 -4.66690475583121 2.0
endloop
endfacet
facet normal 0.0 0.0 -1.0
outer loop
vertex -4.66690475583122 -4.66690475583121 2.0
vertex -5.71576766497729 3.3 2.0
vertex -4.66690475583121 4.66690475583121 2.0
endloop
endfacet
facet normal 0.0 0.0 -1.0
outer loop
vertex -4.66690475583122 -4.66690475583121 2.0
vertex -4.66690475583121 4.66690475583121 2.0
vertex -3.3 -5.71576766497729 2.0
endloop
endfacet
facet normal 0.0 0.0 -1.0
outer loop
vertex -3.3 -5.71576766497729 2.0
vertex -4.66690475583121 4.66690475583121 2.0
vertex -3.3 5.71576766497729 2.0
endloop
endfacet
facet normal 0.0 0.0 -1.0
outer loop
vertex -3.3 -5.71576766497729 2.0
vertex -3.3 5.71576766497729 2.0
vertex -1.70820569767664 -6.37511045350785 2.0
endloop
endfacet
facet normal 0.0 0.0 -1.0
outer loop
vertex -1.70820569767664 -6.37511045350785 2.0
vertex -3.3 5.71576766497729 2.0
vertex -1.70820569767664 6.37511045350785 2.0
endloop
endfacet
facet normal 0.0 0.0 -1.0
outer loop
vertex -1.70820569767664 -6.37511045350785 2.0
vertex -1.70820569767664 6.37511045350785 2.0
vertex -1.21240033115588e-015 -6.6 2.0
endloop
endfacet
facet normal 0.0 0.0 -1.0
outer loop
vertex -1.21240033115588e-015 -6.6 2.0
vertex -1.70820569767664 6.37511045350785 2.0
vertex 4.04133443718626e-016 6.6 2.0
endloop
endfacet
facet normal 0.0 0.0 -1.0
outer loop
vertex -1.21240033115588e-015 -6.6 2.0
vertex 4.04133443718626e-016 6.6 2.0
vertex 1.70820569767663 -6.37511045350785 2.0
endloop
endfacet
facet normal 0.0 0.0 -1.0
outer loop
vertex 1.70820569767663 -6.37511045350785 2.0
vertex 4.04133443718626e-016 6.6 2.0
vertex 1.70820569767664 6.37511045350785 2.0
endloop
endfacet
facet normal 0.0 0.0 -1.0
outer loop
vertex 1.70820569767663 -6.37511045350785 2.0
vertex 1.70820569767664 6.37511045350785 2.0
vertex 3.29999999999999 -5.7157676649773 2.0
endloop
endfacet
facet normal 0.0 0.0 -1.0
outer loop
vertex 3.29999999999999 -5.7157676649773 2.0
vertex 1.70820569767664 6.37511045350785 2.0
vertex 3.3 5.71576766497729 2.0
endloop
endfacet
facet normal 0.0 0.0 -1.0
outer loop
vertex 3.29999999999999 -5.7157676649773 2.0
vertex 3.3 5.71576766497729 2.0
vertex 4.66690475583121 -4.66690475583121 2.0
endloop
endfacet
facet normal 0.0 0.0 -1.0
outer loop
vertex 4.66690475583121 -4.66690475583121 2.0
vertex 3.3 5.71576766497729 2.0
vertex 4.66690475583121 4.66690475583121 2.0
endloop
endfacet
facet normal 0.0 0.0 -1.0
outer loop
vertex 4.66690475583121 -4.66690475583121 2.0
vertex 4.66690475583121 4.66690475583121 2.0
vertex 5.71576766497729 -3.3 2.0
endloop
endfacet
facet normal 0.0 0.0 -1.0
outer loop
vertex 5.71576766497729 -3.3 2.0
vertex 4.66690475583121 4.66690475583121 2.0
vertex 5.71576766497729 3.3 2.0
endloop
endfacet
facet normal 0.0 0.0 -1.0
outer loop
vertex 5.71576766497729 -3.3 2.0
vertex 5.71576766497729 3.3 2.0
vertex 6.37511045350785 -1.70820569767664 2.0
endloop
endfacet
facet normal 0.0 0.0 -1.0
outer loop
vertex 6.37511045350785 -1.70820569767664 2.0
vertex 5.71576766497729 3.3 2.0
vertex 6.37511045350785 1.70820569767664 2.0
endloop
endfacet
facet normal 0.0 0.0 -1.0
outer loop
vertex 6.37511045350785 -1.70820569767664 2.0
vertex 6.37511045350785 1.70820569767664 2.0
vertex 6.6 0.0 2.0
endloop
endfacet
facet normal 0.965925826289068 -0.258819045102521 0.0
outer loop
vertex -6.37511045350785 1.70820569767664 0.0
vertex -6.6 8.08266887437253e-016 2.0
vertex -6.6 8.08266887437253e-016 0.0
endloop
endfacet
facet normal 1.0 -2.76244406765054e-016 0.0
outer loop
vertex -6.6 8.08266887437253e-016 2.0
vertex -6.37511045350785 1.70820569767664 0.0
vertex -6.37511045350785 1.70820569767664 2.0
endloop
endfacet
facet normal 0.866025403784439 -0.5 0.0
outer loop
vertex -5.71576766497729 3.3 0.0
vertex -6.37511045350785 1.70820569767664 2.0
vertex -6.37511045350785 1.70820569767664 0.0
endloop
endfacet
facet normal 0.965925826289068 -0.258819045102521 0.0
outer loop
vertex -6.37511045350785 1.70820569767664 2.0
vertex -5.71576766497729 3.3 0.0
vertex -5.71576766497729 3.3 2.0
endloop
endfacet
facet normal 0.707106781186547 -0.707106781186548 0.0
outer loop
vertex -4.66690475583121 4.66690475583121 0.0
vertex -5.71576766497729 3.3 2.0
vertex -5.71576766497729 3.3 0.0
endloop
endfacet
facet normal 0.866025403784439 -0.5 0.0
outer loop
vertex -5.71576766497729 3.3 2.0
vertex -4.66690475583121 4.66690475583121 0.0
vertex -4.66690475583121 4.66690475583121 2.0
endloop
endfacet
facet normal 0.5 -0.866025403784439 0.0
outer loop
vertex -3.3 5.71576766497729 2.0
vertex -4.66690475583121 4.66690475583121 0.0
vertex -3.3 5.71576766497729 0.0
endloop
endfacet
facet normal 0.707106781186547 -0.707106781186548 0.0
outer loop
vertex -4.66690475583121 4.66690475583121 0.0
vertex -3.3 5.71576766497729 2.0
vertex -4.66690475583121 4.66690475583121 2.0
endloop
endfacet
facet normal 0.258819045102521 -0.965925826289068 0.0
outer loop
vertex -1.70820569767664 6.37511045350785 2.0
vertex -3.3 5.71576766497729 0.0
vertex -1.70820569767664 6.37511045350785 0.0
endloop
endfacet
facet normal 0.5 -0.866025403784439 0.0
outer loop
vertex -3.3 5.71576766497729 0.0
vertex -1.70820569767664 6.37511045350785 2.0
vertex -3.3 5.71576766497729 2.0
endloop
endfacet
facet normal -3.29711066138935e-016 -1.0 0.0
outer loop
vertex 4.04133443718626e-016 6.6 2.0
vertex -1.70820569767664 6.37511045350785 0.0
vertex 4.04133443718626e-016 6.6 0.0
endloop
endfacet
facet normal 0.258819045102521 -0.965925826289068 0.0
outer loop
vertex -1.70820569767664 6.37511045350785 0.0
vertex 4.04133443718626e-016 6.6 2.0
vertex -1.70820569767664 6.37511045350785 2.0
endloop
endfacet
facet normal -0.258819045102521 -0.965925826289068 0.0
outer loop
vertex 1.70820569767664 6.37511045350785 2.0
vertex 4.04133443718626e-016 6.6 0.0
vertex 1.70820569767664 6.37511045350785 0.0
endloop
endfacet
facet normal -3.29711066138935e-016 -1.0 0.0
outer loop
vertex 4.04133443718626e-016 6.6 0.0
vertex 1.70820569767664 6.37511045350785 2.0
vertex 4.04133443718626e-016 6.6 2.0
endloop
endfacet
facet normal -0.5 -0.866025403784439 0.0
outer loop
vertex 3.3 5.71576766497729 2.0
vertex 1.70820569767664 6.37511045350785 0.0
vertex 3.3 5.71576766497729 0.0
endloop
endfacet
facet normal -0.258819045102521 -0.965925826289068 0.0
outer loop
vertex 1.70820569767664 6.37511045350785 0.0
vertex 3.3 5.71576766497729 2.0
vertex 1.70820569767664 6.37511045350785 2.0
endloop
endfacet
facet normal -0.707106781186548 -0.707106781186547 0.0
outer loop
vertex 4.66690475583121 4.66690475583121 2.0
vertex 3.3 5.71576766497729 0.0
vertex 4.66690475583121 4.66690475583121 0.0
endloop
endfacet
facet normal -0.5 -0.866025403784439 0.0
outer loop
vertex 3.3 5.71576766497729 0.0
vertex 4.66690475583121 4.66690475583121 2.0
vertex 3.3 5.71576766497729 2.0
endloop
endfacet
facet normal -0.707106781186548 -0.707106781186547 0.0
outer loop
vertex 4.66690475583121 4.66690475583121 2.0
vertex 5.71576766497729 3.3 0.0
vertex 5.71576766497729 3.3 2.0
endloop
endfacet
facet normal -0.866025403784439 -0.5 0.0
outer loop
vertex 5.71576766497729 3.3 0.0
vertex 4.66690475583121 4.66690475583121 2.0
vertex 4.66690475583121 4.66690475583121 0.0
endloop
endfacet
facet normal -0.866025403784439 -0.5 0.0
outer loop
vertex 5.71576766497729 3.3 2.0
vertex 6.37511045350785 1.70820569767664 0.0
vertex 6.37511045350785 1.70820569767664 2.0
endloop
endfacet
facet normal -0.965925826289068 -0.258819045102521 0.0
outer loop
vertex 6.37511045350785 1.70820569767664 0.0
vertex 5.71576766497729 3.3 2.0
vertex 5.71576766497729 3.3 0.0
endloop
endfacet
facet normal -0.965925826289068 -0.258819045102521 0.0
outer loop
vertex 6.37511045350785 1.70820569767664 2.0
vertex 6.6 0.0 0.0
vertex 6.6 0.0 2.0
endloop
endfacet
facet normal -1.0 1.96044417704232e-016 0.0
outer loop
vertex 6.6 0.0 0.0
vertex 6.37511045350785 1.70820569767664 2.0
vertex 6.37511045350785 1.70820569767664 0.0
endloop
endfacet
facet normal -1.0 1.96044417704232e-016 0.0
outer loop
vertex 6.6 0.0 2.0
vertex 6.37511045350785 -1.70820569767664 0.0
vertex 6.37511045350785 -1.70820569767664 2.0
endloop
endfacet
facet normal -0.965925826289068 0.258819045102521 0.0
outer loop
vertex 6.37511045350785 -1.70820569767664 0.0
vertex 6.6 0.0 2.0
vertex 6.6 0.0 0.0
endloop
endfacet
facet normal -0.965925826289068 0.258819045102521 0.0
outer loop
vertex 6.37511045350785 -1.70820569767664 2.0
vertex 5.71576766497729 -3.3 0.0
vertex 5.71576766497729 -3.3 2.0
endloop
endfacet
facet normal -0.866025403784438 0.500000000000001 0.0
outer loop
vertex 5.71576766497729 -3.3 0.0
vertex 6.37511045350785 -1.70820569767664 2.0
vertex 6.37511045350785 -1.70820569767664 0.0
endloop
endfacet
facet normal -0.866025403784438 0.500000000000001 0.0
outer loop
vertex 5.71576766497729 -3.3 2.0
vertex 4.66690475583121 -4.66690475583121 0.0
vertex 4.66690475583121 -4.66690475583121 2.0
endloop
endfacet
facet normal -0.707106781186547 0.707106781186548 0.0
outer loop
vertex 4.66690475583121 -4.66690475583121 0.0
vertex 5.71576766497729 -3.3 2.0
vertex 5.71576766497729 -3.3 0.0
endloop
endfacet
facet normal -0.5 0.866025403784439 0.0
outer loop
vertex 3.29999999999999 -5.7157676649773 2.0
vertex 4.66690475583121 -4.66690475583121 0.0
vertex 3.29999999999999 -5.7157676649773 0.0
endloop
endfacet
facet normal -0.707106781186547 0.707106781186548 0.0
outer loop
vertex 4.66690475583121 -4.66690475583121 0.0
vertex 3.29999999999999 -5.7157676649773 2.0
vertex 4.66690475583121 -4.66690475583121 2.0
endloop
endfacet
facet normal -0.25881904510252 0.965925826289068 0.0
outer loop
vertex 1.70820569767663 -6.37511045350785 2.0
vertex 3.29999999999999 -5.7157676649773 0.0
vertex 1.70820569767663 -6.37511045350785 0.0
endloop
endfacet
facet normal -0.5 0.866025403784439 0.0
outer loop
vertex 3.29999999999999 -5.7157676649773 0.0
vertex 1.70820569767663 -6.37511045350785 2.0
vertex 3.29999999999999 -5.7157676649773 2.0
endloop
endfacet
facet normal 1.78222197912938e-016 1.0 0.0
outer loop
vertex -1.21240033115588e-015 -6.6 2.0
vertex 1.70820569767663 -6.37511045350785 0.0
vertex -1.21240033115588e-015 -6.6 0.0
endloop
endfacet
facet normal -0.25881904510252 0.965925826289068 0.0
outer loop
vertex 1.70820569767663 -6.37511045350785 0.0
vertex -1.21240033115588e-015 -6.6 2.0
vertex 1.70820569767663 -6.37511045350785 2.0
endloop
endfacet
facet normal 0.258819045102521 0.965925826289068 0.0
outer loop
vertex -1.70820569767664 -6.37511045350785 2.0
vertex -1.21240033115588e-015 -6.6 0.0
vertex -1.70820569767664 -6.37511045350785 0.0
endloop
endfacet
facet normal 1.78222197912938e-016 1.0 0.0
outer loop
vertex -1.21240033115588e-015 -6.6 0.0
vertex -1.70820569767664 -6.37511045350785 2.0
vertex -1.21240033115588e-015 -6.6 2.0
endloop
endfacet
facet normal 0.500000000000001 0.866025403784438 0.0
outer loop
vertex -3.3 -5.71576766497729 2.0
vertex -1.70820569767664 -6.37511045350785 0.0
vertex -3.3 -5.71576766497729 0.0
endloop
endfacet
facet normal 0.258819045102521 0.965925826289068 0.0
outer loop
vertex -1.70820569767664 -6.37511045350785 0.0
vertex -3.3 -5.71576766497729 2.0
vertex -1.70820569767664 -6.37511045350785 2.0
endloop
endfacet
facet normal 0.707106781186548 0.707106781186547 0.0
outer loop
vertex -4.66690475583122 -4.66690475583121 2.0
vertex -3.3 -5.71576766497729 0.0
vertex -4.66690475583122 -4.66690475583121 0.0
endloop
endfacet
facet normal 0.500000000000001 0.866025403784438 0.0
outer loop
vertex -3.3 -5.71576766497729 0.0
vertex -4.66690475583122 -4.66690475583121 2.0
vertex -3.3 -5.71576766497729 2.0
endloop
endfacet
facet normal 0.866025403784439 0.5 0.0
outer loop
vertex -5.71576766497729 -3.3 0.0
vertex -4.66690475583122 -4.66690475583121 2.0
vertex -4.66690475583122 -4.66690475583121 0.0
endloop
endfacet
facet normal 0.707106781186548 0.707106781186547 0.0
outer loop
vertex -4.66690475583122 -4.66690475583121 2.0
vertex -5.71576766497729 -3.3 0.0
vertex -5.71576766497729 -3.3 2.0
endloop
endfacet
facet normal 0.965925826289068 0.25881904510252 0.0
outer loop
vertex -6.37511045350785 -1.70820569767663 0.0
vertex -5.71576766497729 -3.3 2.0
vertex -5.71576766497729 -3.3 0.0
endloop
endfacet
facet normal 0.866025403784439 0.5 0.0
outer loop
vertex -5.71576766497729 -3.3 2.0
vertex -6.37511045350785 -1.70820569767663 0.0
vertex -6.37511045350785 -1.70820569767663 2.0
endloop
endfacet
facet normal 1.0 -2.76244406765054e-016 0.0
outer loop
vertex -6.6 8.08266887437253e-016 0.0
vertex -6.37511045350785 -1.70820569767663 2.0
vertex -6.37511045350785 -1.70820569767663 0.0
endloop
endfacet
facet normal 0.965925826289068 0.25881904510252 0.0
outer loop
vertex -6.37511045350785 -1.70820569767663 2.0
vertex -6.6 8.08266887437253e-016 0.0
vertex -6.6 8.08266887437253e-016 2.0
endloop
endfacet
endsolid model
