solid OpenSCAD_Model
  facet normal -1 0 0
    outer loop
      vertex -10 -10 0
      vertex -10 -10 5
      vertex -10 10 0
    endloop
  endfacet
  facet normal -1 0 0
    outer loop
      vertex -10 10 0
      vertex -10 -10 5
      vertex -10 10 5
    endloop
  endfacet
  facet normal 0 -1 0
    outer loop
      vertex -10 -10 5
      vertex -10 -10 0
      vertex 10 -10 0
    endloop
  endfacet
  facet normal 0 -1 0
    outer loop
      vertex 10 -10 5
      vertex -10 -10 5
      vertex 10 -10 0
    endloop
  endfacet
  facet normal 0 0 -1
    outer loop
      vertex 2.34013 4.69961 0
      vertex -10 10 0
      vertex 10 10 0
    endloop
  endfacet
  facet normal 0 0 -1
    outer loop
      vertex -10 -10 0
      vertex -10 10 0
      vertex -5.16061 0.964685 0
    endloop
  endfacet
  facet normal 0 0 -1
    outer loop
      vertex -10 -10 0
      vertex -5.16061 0.964685 0
      vertex -5.16061 -0.964685 0
    endloop
  endfacet
  facet normal 0 0 -1
    outer loop
      vertex -10 -10 0
      vertex -5.16061 -0.964685 0
      vertex -4.46364 -2.76377 0
    endloop
  endfacet
  facet normal 0 0 -1
    outer loop
      vertex -10 -10 0
      vertex -4.46364 -2.76377 0
      vertex -3.16383 -4.18959 0
    endloop
  endfacet
  facet normal 0 0 -1
    outer loop
      vertex -10 -10 0
      vertex -3.16383 -4.18959 0
      vertex -1.43673 -5.04958 0
    endloop
  endfacet
  facet normal 0 0 -1
    outer loop
      vertex -10 -10 0
      vertex -1.43673 -5.04958 0
      vertex 10 -10 0
    endloop
  endfacet
  facet normal 0 0 -1
    outer loop
      vertex 2.34013 -4.69961 0
      vertex 10 -10 0
      vertex 0.484409 -5.2276 0
    endloop
  endfacet
  facet normal 0 0 -1
    outer loop
      vertex 3.8798 -3.5369 0
      vertex 10 -10 0
      vertex 2.34013 -4.69961 0
    endloop
  endfacet
  facet normal 0 0 -1
    outer loop
      vertex 5.25 0 0
      vertex 10 10 0
      vertex 4.89548 -1.89652 0
    endloop
  endfacet
  facet normal 0 0 -1
    outer loop
      vertex 10 -10 0
      vertex 3.8798 -3.5369 0
      vertex 4.89548 -1.89652 0
    endloop
  endfacet
  facet normal 0 0 -1
    outer loop
      vertex 10 -10 0
      vertex 4.89548 -1.89652 0
      vertex 10 10 0
    endloop
  endfacet
  facet normal 0 0 -1
    outer loop
      vertex -4.46364 2.76377 0
      vertex -10 10 0
      vertex -3.16383 4.18959 0
    endloop
  endfacet
  facet normal 0 0 -1
    outer loop
      vertex -1.43673 5.04958 0
      vertex -10 10 0
      vertex 0.484409 5.2276 0
    endloop
  endfacet
  facet normal 0 0 -1
    outer loop
      vertex -3.16383 4.18959 0
      vertex -10 10 0
      vertex -1.43673 5.04958 0
    endloop
  endfacet
  facet normal 0 0 -1
    outer loop
      vertex 5.25 0 0
      vertex 4.89548 1.89652 0
      vertex 10 10 0
    endloop
  endfacet
  facet normal 0 0 -1
    outer loop
      vertex 4.89548 1.89652 0
      vertex 3.8798 3.5369 0
      vertex 10 10 0
    endloop
  endfacet
  facet normal 0 0 -1
    outer loop
      vertex 0.484409 5.2276 0
      vertex -10 10 0
      vertex 2.34013 4.69961 0
    endloop
  endfacet
  facet normal 0 0 -1
    outer loop
      vertex 3.8798 3.5369 0
      vertex 2.34013 4.69961 0
      vertex 10 10 0
    endloop
  endfacet
  facet normal 0 0 -1
    outer loop
      vertex -5.16061 0.964685 0
      vertex -10 10 0
      vertex -4.46364 2.76377 0
    endloop
  endfacet
  facet normal 0 0 -1
    outer loop
      vertex 0.484409 -5.2276 0
      vertex 10 -10 0
      vertex -1.43673 -5.04958 0
    endloop
  endfacet
  facet normal 0 1 0
    outer loop
      vertex -10 10 0
      vertex -10 10 5
      vertex 10 10 0
    endloop
  endfacet
  facet normal 0 1 0
    outer loop
      vertex 10 10 0
      vertex -10 10 5
      vertex 10 10 5
    endloop
  endfacet
  facet normal 0 0 1
    outer loop
      vertex -10 10 5
      vertex -10 -10 5
      vertex 10 -10 5
    endloop
  endfacet
  facet normal 0 0 1
    outer loop
      vertex 10 10 5
      vertex -10 10 5
      vertex 10 -10 5
    endloop
  endfacet
  facet normal 1 0 0
    outer loop
      vertex 10 -10 5
      vertex 10 -10 0
      vertex 10 10 0
    endloop
  endfacet
  facet normal 1 0 0
    outer loop
      vertex 10 10 5
      vertex 10 -10 5
      vertex 10 10 0
    endloop
  endfacet
  facet normal 0.932472 -0.361242 0
    outer loop
      vertex -4.46364 2.76377 0
      vertex -4.46364 2.76377 0.25
      vertex -5.16061 0.964685 0.25
    endloop
  endfacet
  facet normal 0.932472 -0.361242 0
    outer loop
      vertex -5.16061 0.964685 0
      vertex -4.46364 2.76377 0
      vertex -5.16061 0.964685 0.25
    endloop
  endfacet
  facet normal 1 0 0
    outer loop
      vertex -5.16061 0.964685 0
      vertex -5.16061 0.964685 0.25
      vertex -5.16061 -0.964685 0.25
    endloop
  endfacet
  facet normal 1 0 0
    outer loop
      vertex -5.16061 -0.964685 0
      vertex -5.16061 0.964685 0
      vertex -5.16061 -0.964685 0.25
    endloop
  endfacet
  facet normal 0.739009 -0.673696 0
    outer loop
      vertex -3.16383 4.18959 0
      vertex -3.16383 4.18959 0.25
      vertex -4.46364 2.76377 0.25
    endloop
  endfacet
  facet normal 0.739009 -0.673696 0
    outer loop
      vertex -4.46364 2.76377 0
      vertex -3.16383 4.18959 0
      vertex -4.46364 2.76377 0.25
    endloop
  endfacet
  facet normal 0.445739 -0.895163 0
    outer loop
      vertex -1.43673 5.04958 0
      vertex -1.43673 5.04958 0.25
      vertex -3.16383 4.18959 0.25
    endloop
  endfacet
  facet normal 0.445739 -0.895163 0
    outer loop
      vertex -3.16383 4.18959 0
      vertex -1.43673 5.04958 0
      vertex -3.16383 4.18959 0.25
    endloop
  endfacet
  facet normal 0.0922679 -0.995734 0
    outer loop
      vertex 0.484409 5.2276 0
      vertex 0.484409 5.2276 0.25
      vertex -1.43673 5.04958 0.25
    endloop
  endfacet
  facet normal 0.0922679 -0.995734 0
    outer loop
      vertex -1.43673 5.04958 0
      vertex 0.484409 5.2276 0
      vertex -1.43673 5.04958 0.25
    endloop
  endfacet
  facet normal -0.273663 -0.961826 0
    outer loop
      vertex 2.34013 4.69961 0
      vertex 2.34013 4.69961 0.25
      vertex 0.484409 5.2276 0.25
    endloop
  endfacet
  facet normal -0.273663 -0.961826 0
    outer loop
      vertex 0.484409 5.2276 0
      vertex 2.34013 4.69961 0
      vertex 0.484409 5.2276 0.25
    endloop
  endfacet
  facet normal -0.602634 -0.798017 0
    outer loop
      vertex 3.8798 3.5369 0
      vertex 3.8798 3.5369 0.25
      vertex 2.34013 4.69961 0.25
    endloop
  endfacet
  facet normal -0.602634 -0.798017 0
    outer loop
      vertex 2.34013 4.69961 0
      vertex 3.8798 3.5369 0
      vertex 2.34013 4.69961 0.25
    endloop
  endfacet
  facet normal -0.850217 -0.526432 0
    outer loop
      vertex 4.89548 1.89652 0.25
      vertex 3.8798 3.5369 0.25
      vertex 4.89548 1.89652 0
    endloop
  endfacet
  facet normal -0.850217 -0.526432 0
    outer loop
      vertex 4.89548 1.89652 0
      vertex 3.8798 3.5369 0.25
      vertex 3.8798 3.5369 0
    endloop
  endfacet
  facet normal -0.982973 -0.18375 0
    outer loop
      vertex 5.25 0 0.25
      vertex 4.89548 1.89652 0.25
      vertex 5.25 0 0
    endloop
  endfacet
  facet normal -0.982973 -0.18375 0
    outer loop
      vertex 5.25 0 0
      vertex 4.89548 1.89652 0.25
      vertex 4.89548 1.89652 0
    endloop
  endfacet
  facet normal -0.982973 0.18375 0
    outer loop
      vertex 5.25 0 0.25
      vertex 5.25 0 0
      vertex 4.89548 -1.89652 0.25
    endloop
  endfacet
  facet normal -0.982973 0.18375 0
    outer loop
      vertex 4.89548 -1.89652 0.25
      vertex 5.25 0 0
      vertex 4.89548 -1.89652 0
    endloop
  endfacet
  facet normal -0.850217 0.526432 0
    outer loop
      vertex 4.89548 -1.89652 0.25
      vertex 4.89548 -1.89652 0
      vertex 3.8798 -3.5369 0.25
    endloop
  endfacet
  facet normal -0.850217 0.526432 0
    outer loop
      vertex 3.8798 -3.5369 0.25
      vertex 4.89548 -1.89652 0
      vertex 3.8798 -3.5369 0
    endloop
  endfacet
  facet normal -0.602634 0.798017 0
    outer loop
      vertex 3.8798 -3.5369 0.25
      vertex 3.8798 -3.5369 0
      vertex 2.34013 -4.69961 0.25
    endloop
  endfacet
  facet normal -0.602634 0.798017 0
    outer loop
      vertex 2.34013 -4.69961 0.25
      vertex 3.8798 -3.5369 0
      vertex 2.34013 -4.69961 0
    endloop
  endfacet
  facet normal -0.273663 0.961826 0
    outer loop
      vertex 2.34013 -4.69961 0.25
      vertex 2.34013 -4.69961 0
      vertex 0.484409 -5.2276 0.25
    endloop
  endfacet
  facet normal -0.273663 0.961826 0
    outer loop
      vertex 0.484409 -5.2276 0.25
      vertex 2.34013 -4.69961 0
      vertex 0.484409 -5.2276 0
    endloop
  endfacet
  facet normal 0.0922679 0.995734 0
    outer loop
      vertex 0.484409 -5.2276 0.25
      vertex 0.484409 -5.2276 0
      vertex -1.43673 -5.04958 0.25
    endloop
  endfacet
  facet normal 0.0922679 0.995734 0
    outer loop
      vertex -1.43673 -5.04958 0.25
      vertex 0.484409 -5.2276 0
      vertex -1.43673 -5.04958 0
    endloop
  endfacet
  facet normal 0.445739 0.895163 0
    outer loop
      vertex -1.43673 -5.04958 0.25
      vertex -1.43673 -5.04958 0
      vertex -3.16383 -4.18959 0.25
    endloop
  endfacet
  facet normal 0.445739 0.895163 0
    outer loop
      vertex -3.16383 -4.18959 0.25
      vertex -1.43673 -5.04958 0
      vertex -3.16383 -4.18959 0
    endloop
  endfacet
  facet normal 0.739009 0.673696 0
    outer loop
      vertex -4.46364 -2.76377 0.25
      vertex -3.16383 -4.18959 0.25
      vertex -3.16383 -4.18959 0
    endloop
  endfacet
  facet normal 0.739009 0.673696 0
    outer loop
      vertex -4.46364 -2.76377 0
      vertex -4.46364 -2.76377 0.25
      vertex -3.16383 -4.18959 0
    endloop
  endfacet
  facet normal 0.932472 0.361242 0
    outer loop
      vertex -5.16061 -0.964685 0.25
      vertex -4.46364 -2.76377 0.25
      vertex -4.46364 -2.76377 0
    endloop
  endfacet
  facet normal 0.932472 0.361242 0
    outer loop
      vertex -5.16061 -0.964685 0
      vertex -5.16061 -0.964685 0.25
      vertex -4.46364 -2.76377 0
    endloop
  endfacet
  facet normal 0 0 1
    outer loop
      vertex -5.8563 -2.82024 0.25
      vertex -4.76484 -4.42112 0.25
      vertex -3.25 -5.62916 0.25
    endloop
  endfacet
  facet normal 0 0 1
    outer loop
      vertex 0.485746 -6.48182 0.25
      vertex -5.8563 -2.82024 0.25
      vertex -1.44639 -6.33703 0.25
    endloop
  endfacet
  facet normal 0 0 1
    outer loop
      vertex -1.44639 -6.33703 0.25
      vertex -5.8563 -2.82024 0.25
      vertex -3.25 -5.62916 0.25
    endloop
  endfacet
  facet normal 0 0 1
    outer loop
      vertex -3.16383 -4.18959 0.25
      vertex -5.8563 -2.82024 0.25
      vertex 0.485746 -6.48182 0.25
    endloop
  endfacet
  facet normal 0 0 1
    outer loop
      vertex 0.484409 -5.2276 0.25
      vertex -1.43673 -5.04958 0.25
      vertex 2.37472 -6.05068 0.25
    endloop
  endfacet
  facet normal 0 0 1
    outer loop
      vertex 3.8798 -3.5369 0.25
      vertex 2.34013 -4.69961 0.25
      vertex 4.05268 -5.0819 0.25
    endloop
  endfacet
  facet normal 0 0 1
    outer loop
      vertex 5.25 0 0.25
      vertex 4.89548 -1.89652 0.25
      vertex 6.5 0 0.25
    endloop
  endfacet
  facet normal 0 0 1
    outer loop
      vertex 4.89548 1.89652 0.25
      vertex 5.25 0 0.25
      vertex 6.21122 1.91591 0.25
    endloop
  endfacet
  facet normal 0 0 1
    outer loop
      vertex 3.8798 3.5369 0.25
      vertex 4.89548 1.89652 0.25
      vertex 5.37055 3.66158 0.25
    endloop
  endfacet
  facet normal 0 0 1
    outer loop
      vertex 2.34013 4.69961 0.25
      vertex 3.8798 3.5369 0.25
      vertex 4.05268 5.0819 0.25
    endloop
  endfacet
  facet normal 0 0 1
    outer loop
      vertex 0.484409 5.2276 0.25
      vertex 2.34013 4.69961 0.25
      vertex 2.37472 6.05068 0.25
    endloop
  endfacet
  facet normal 0 0 1
    outer loop
      vertex -1.43673 5.04958 0.25
      vertex 0.484409 5.2276 0.25
      vertex 0.485746 6.48182 0.25
    endloop
  endfacet
  facet normal 0 0 1
    outer loop
      vertex -5.8563 2.82024 0.25
      vertex -5.8563 -2.82024 0.25
      vertex -4.76484 4.42112 0.25
    endloop
  endfacet
  facet normal 0 0 1
    outer loop
      vertex -6.4274 0.968775 0.25
      vertex -5.8563 -2.82024 0.25
      vertex -5.8563 2.82024 0.25
    endloop
  endfacet
  facet normal 0 0 1
    outer loop
      vertex -6.4274 -0.968775 0.25
      vertex -5.8563 -2.82024 0.25
      vertex -6.4274 0.968775 0.25
    endloop
  endfacet
  facet normal 0 0 1
    outer loop
      vertex 4.89548 -1.89652 0.25
      vertex 3.8798 -3.5369 0.25
      vertex 6.21122 -1.91591 0.25
    endloop
  endfacet
  facet normal 0 0 1
    outer loop
      vertex -4.76484 4.42112 0.25
      vertex -5.8563 -2.82024 0.25
      vertex -5.16061 0.964685 0.25
    endloop
  endfacet
  facet normal 0 0 1
    outer loop
      vertex -4.76484 4.42112 0.25
      vertex -4.46364 2.76377 0.25
      vertex -3.25 5.62916 0.25
    endloop
  endfacet
  facet normal 0 0 1
    outer loop
      vertex -4.76484 4.42112 0.25
      vertex -5.16061 0.964685 0.25
      vertex -4.46364 2.76377 0.25
    endloop
  endfacet
  facet normal 0 0 1
    outer loop
      vertex -3.25 5.62916 0.25
      vertex -3.16383 4.18959 0.25
      vertex -1.44639 6.33703 0.25
    endloop
  endfacet
  facet normal 0 0 1
    outer loop
      vertex -1.44639 6.33703 0.25
      vertex -1.43673 5.04958 0.25
      vertex 0.485746 6.48182 0.25
    endloop
  endfacet
  facet normal 0 0 1
    outer loop
      vertex 0.485746 6.48182 0.25
      vertex 0.484409 5.2276 0.25
      vertex 2.37472 6.05068 0.25
    endloop
  endfacet
  facet normal 0 0 1
    outer loop
      vertex 2.37472 6.05068 0.25
      vertex 2.34013 4.69961 0.25
      vertex 4.05268 5.0819 0.25
    endloop
  endfacet
  facet normal 0 0 1
    outer loop
      vertex 4.05268 5.0819 0.25
      vertex 3.8798 3.5369 0.25
      vertex 5.37055 3.66158 0.25
    endloop
  endfacet
  facet normal 0 0 1
    outer loop
      vertex 5.37055 3.66158 0.25
      vertex 4.89548 1.89652 0.25
      vertex 6.21122 1.91591 0.25
    endloop
  endfacet
  facet normal 0 0 1
    outer loop
      vertex 6.21122 1.91591 0.25
      vertex 5.25 0 0.25
      vertex 6.5 0 0.25
    endloop
  endfacet
  facet normal 0 0 1
    outer loop
      vertex 6.5 0 0.25
      vertex 4.89548 -1.89652 0.25
      vertex 6.21122 -1.91591 0.25
    endloop
  endfacet
  facet normal 0 0 1
    outer loop
      vertex 6.21122 -1.91591 0.25
      vertex 3.8798 -3.5369 0.25
      vertex 5.37055 -3.66158 0.25
    endloop
  endfacet
  facet normal 0 0 1
    outer loop
      vertex 4.05268 -5.0819 0.25
      vertex 2.34013 -4.69961 0.25
      vertex 2.37472 -6.05068 0.25
    endloop
  endfacet
  facet normal 0 0 1
    outer loop
      vertex 2.34013 -4.69961 0.25
      vertex 0.484409 -5.2276 0.25
      vertex 2.37472 -6.05068 0.25
    endloop
  endfacet
  facet normal 0 0 1
    outer loop
      vertex 2.37472 -6.05068 0.25
      vertex -1.43673 -5.04958 0.25
      vertex 0.485746 -6.48182 0.25
    endloop
  endfacet
  facet normal 0 0 1
    outer loop
      vertex -1.43673 -5.04958 0.25
      vertex -3.16383 -4.18959 0.25
      vertex 0.485746 -6.48182 0.25
    endloop
  endfacet
  facet normal 0 0 1
    outer loop
      vertex 3.8798 -3.5369 0.25
      vertex 4.05268 -5.0819 0.25
      vertex 5.37055 -3.66158 0.25
    endloop
  endfacet
  facet normal 0 0 1
    outer loop
      vertex -3.16383 4.18959 0.25
      vertex -1.43673 5.04958 0.25
      vertex -1.44639 6.33703 0.25
    endloop
  endfacet
  facet normal 0 0 1
    outer loop
      vertex -5.16061 -0.964685 0.25
      vertex -5.16061 0.964685 0.25
      vertex -5.8563 -2.82024 0.25
    endloop
  endfacet
  facet normal 0 0 1
    outer loop
      vertex -4.46364 2.76377 0.25
      vertex -3.16383 4.18959 0.25
      vertex -3.25 5.62916 0.25
    endloop
  endfacet
  facet normal 0 0 1
    outer loop
      vertex -3.16383 -4.18959 0.25
      vertex -4.46364 -2.76377 0.25
      vertex -5.8563 -2.82024 0.25
    endloop
  endfacet
  facet normal 0 0 1
    outer loop
      vertex -4.46364 -2.76377 0.25
      vertex -5.16061 -0.964685 0.25
      vertex -5.8563 -2.82024 0.25
    endloop
  endfacet
  facet normal 0.826239 0.56332 0
    outer loop
      vertex -5.8563 -2.82024 3.25
      vertex -4.76484 -4.42112 3.25
      vertex -4.76484 -4.42112 0.25
    endloop
  endfacet
  facet normal 0.826239 0.56332 0
    outer loop
      vertex -5.8563 -2.82024 0.25
      vertex -5.8563 -2.82024 3.25
      vertex -4.76484 -4.42112 0.25
    endloop
  endfacet
  facet normal 0.955573 0.294755 0
    outer loop
      vertex -6.4274 -0.968775 3.25
      vertex -5.8563 -2.82024 3.25
      vertex -5.8563 -2.82024 0.25
    endloop
  endfacet
  facet normal 0.955573 0.294755 0
    outer loop
      vertex -6.4274 -0.968775 0.25
      vertex -6.4274 -0.968775 3.25
      vertex -5.8563 -2.82024 0.25
    endloop
  endfacet
  facet normal 1 0 0
    outer loop
      vertex -6.4274 0.968775 0.25
      vertex -6.4274 0.968775 3.25
      vertex -6.4274 -0.968775 3.25
    endloop
  endfacet
  facet normal 1 0 0
    outer loop
      vertex -6.4274 -0.968775 0.25
      vertex -6.4274 0.968775 0.25
      vertex -6.4274 -0.968775 3.25
    endloop
  endfacet
  facet normal 0.955573 -0.294755 0
    outer loop
      vertex -5.8563 2.82024 0.25
      vertex -5.8563 2.82024 3.25
      vertex -6.4274 0.968775 3.25
    endloop
  endfacet
  facet normal 0.955573 -0.294755 0
    outer loop
      vertex -6.4274 0.968775 0.25
      vertex -5.8563 2.82024 0.25
      vertex -6.4274 0.968775 3.25
    endloop
  endfacet
  facet normal 0.826239 -0.56332 0
    outer loop
      vertex -4.76484 4.42112 0.25
      vertex -4.76484 4.42112 3.25
      vertex -5.8563 2.82024 3.25
    endloop
  endfacet
  facet normal 0.826239 -0.56332 0
    outer loop
      vertex -5.8563 2.82024 0.25
      vertex -4.76484 4.42112 0.25
      vertex -5.8563 2.82024 3.25
    endloop
  endfacet
  facet normal 0.62349 -0.781832 0
    outer loop
      vertex -3.25 5.62916 0.25
      vertex -3.25 5.62916 3.25
      vertex -4.76484 4.42112 3.25
    endloop
  endfacet
  facet normal 0.62349 -0.781832 0
    outer loop
      vertex -4.76484 4.42112 0.25
      vertex -3.25 5.62916 0.25
      vertex -4.76484 4.42112 3.25
    endloop
  endfacet
  facet normal 0.365341 -0.930874 0
    outer loop
      vertex -1.44639 6.33703 0.25
      vertex -1.44639 6.33703 3.25
      vertex -3.25 5.62916 3.25
    endloop
  endfacet
  facet normal 0.365341 -0.930874 0
    outer loop
      vertex -3.25 5.62916 0.25
      vertex -1.44639 6.33703 0.25
      vertex -3.25 5.62916 3.25
    endloop
  endfacet
  facet normal 0.0747305 -0.997204 0
    outer loop
      vertex 0.485746 6.48182 0.25
      vertex 0.485746 6.48182 3.25
      vertex -1.44639 6.33703 3.25
    endloop
  endfacet
  facet normal 0.0747305 -0.997204 0
    outer loop
      vertex -1.44639 6.33703 0.25
      vertex 0.485746 6.48182 0.25
      vertex -1.44639 6.33703 3.25
    endloop
  endfacet
  facet normal -0.222521 -0.974928 0
    outer loop
      vertex 2.37472 6.05068 0.25
      vertex 2.37472 6.05068 3.25
      vertex 0.485746 6.48182 3.25
    endloop
  endfacet
  facet normal -0.222521 -0.974928 0
    outer loop
      vertex 0.485746 6.48182 0.25
      vertex 2.37472 6.05068 0.25
      vertex 0.485746 6.48182 3.25
    endloop
  endfacet
  facet normal -0.5 -0.866026 0
    outer loop
      vertex 4.05268 5.0819 0.25
      vertex 4.05268 5.0819 3.25
      vertex 2.37472 6.05068 3.25
    endloop
  endfacet
  facet normal -0.5 -0.866026 0
    outer loop
      vertex 2.37472 6.05068 0.25
      vertex 4.05268 5.0819 0.25
      vertex 2.37472 6.05068 3.25
    endloop
  endfacet
  facet normal -0.733052 -0.680172 0
    outer loop
      vertex 5.37055 3.66158 3.25
      vertex 4.05268 5.0819 3.25
      vertex 5.37055 3.66158 0.25
    endloop
  endfacet
  facet normal -0.733052 -0.680172 0
    outer loop
      vertex 5.37055 3.66158 0.25
      vertex 4.05268 5.0819 3.25
      vertex 4.05268 5.0819 0.25
    endloop
  endfacet
  facet normal -0.900969 -0.433884 0
    outer loop
      vertex 6.21122 1.91591 3.25
      vertex 5.37055 3.66158 3.25
      vertex 6.21122 1.91591 0.25
    endloop
  endfacet
  facet normal -0.900969 -0.433884 0
    outer loop
      vertex 6.21122 1.91591 0.25
      vertex 5.37055 3.66158 3.25
      vertex 5.37055 3.66158 0.25
    endloop
  endfacet
  facet normal -0.988831 -0.149042 0
    outer loop
      vertex 6.5 0 3.25
      vertex 6.21122 1.91591 3.25
      vertex 6.5 0 0.25
    endloop
  endfacet
  facet normal -0.988831 -0.149042 0
    outer loop
      vertex 6.5 0 0.25
      vertex 6.21122 1.91591 3.25
      vertex 6.21122 1.91591 0.25
    endloop
  endfacet
  facet normal -0.988831 0.149042 0
    outer loop
      vertex 6.5 0 3.25
      vertex 6.5 0 0.25
      vertex 6.21122 -1.91591 3.25
    endloop
  endfacet
  facet normal -0.988831 0.149042 0
    outer loop
      vertex 6.21122 -1.91591 3.25
      vertex 6.5 0 0.25
      vertex 6.21122 -1.91591 0.25
    endloop
  endfacet
  facet normal -0.900969 0.433884 0
    outer loop
      vertex 6.21122 -1.91591 3.25
      vertex 6.21122 -1.91591 0.25
      vertex 5.37055 -3.66158 3.25
    endloop
  endfacet
  facet normal -0.900969 0.433884 0
    outer loop
      vertex 5.37055 -3.66158 3.25
      vertex 6.21122 -1.91591 0.25
      vertex 5.37055 -3.66158 0.25
    endloop
  endfacet
  facet normal -0.733052 0.680172 0
    outer loop
      vertex 5.37055 -3.66158 3.25
      vertex 5.37055 -3.66158 0.25
      vertex 4.05268 -5.0819 3.25
    endloop
  endfacet
  facet normal -0.733052 0.680172 0
    outer loop
      vertex 4.05268 -5.0819 3.25
      vertex 5.37055 -3.66158 0.25
      vertex 4.05268 -5.0819 0.25
    endloop
  endfacet
  facet normal -0.5 0.866026 0
    outer loop
      vertex 4.05268 -5.0819 3.25
      vertex 4.05268 -5.0819 0.25
      vertex 2.37472 -6.05068 3.25
    endloop
  endfacet
  facet normal -0.5 0.866026 0
    outer loop
      vertex 2.37472 -6.05068 3.25
      vertex 4.05268 -5.0819 0.25
      vertex 2.37472 -6.05068 0.25
    endloop
  endfacet
  facet normal -0.222521 0.974928 0
    outer loop
      vertex 2.37472 -6.05068 3.25
      vertex 2.37472 -6.05068 0.25
      vertex 0.485746 -6.48182 3.25
    endloop
  endfacet
  facet normal -0.222521 0.974928 0
    outer loop
      vertex 0.485746 -6.48182 3.25
      vertex 2.37472 -6.05068 0.25
      vertex 0.485746 -6.48182 0.25
    endloop
  endfacet
  facet normal 0.0747305 0.997204 0
    outer loop
      vertex 0.485746 -6.48182 3.25
      vertex 0.485746 -6.48182 0.25
      vertex -1.44639 -6.33703 3.25
    endloop
  endfacet
  facet normal 0.0747305 0.997204 0
    outer loop
      vertex -1.44639 -6.33703 3.25
      vertex 0.485746 -6.48182 0.25
      vertex -1.44639 -6.33703 0.25
    endloop
  endfacet
  facet normal 0.365341 0.930874 0
    outer loop
      vertex -1.44639 -6.33703 3.25
      vertex -1.44639 -6.33703 0.25
      vertex -3.25 -5.62916 3.25
    endloop
  endfacet
  facet normal 0.365341 0.930874 0
    outer loop
      vertex -3.25 -5.62916 3.25
      vertex -1.44639 -6.33703 0.25
      vertex -3.25 -5.62916 0.25
    endloop
  endfacet
  facet normal 0.62349 0.781832 0
    outer loop
      vertex -3.25 -5.62916 3.25
      vertex -3.25 -5.62916 0.25
      vertex -4.76484 -4.42112 3.25
    endloop
  endfacet
  facet normal 0.62349 0.781832 0
    outer loop
      vertex -4.76484 -4.42112 3.25
      vertex -3.25 -5.62916 0.25
      vertex -4.76484 -4.42112 0.25
    endloop
  endfacet
  facet normal 0 0 -1
    outer loop
      vertex -5.8563 2.82024 3.25
      vertex -4.76484 4.42112 3.25
      vertex -6.4274 0.968775 3.25
    endloop
  endfacet
  facet normal 0 0 -1
    outer loop
      vertex -6.4274 0.968775 3.25
      vertex -4.76484 4.42112 3.25
      vertex -3.25 5.62916 3.25
    endloop
  endfacet
  facet normal 0 0 -1
    outer loop
      vertex -6.4274 0.968775 3.25
      vertex -3.25 5.62916 3.25
      vertex -1.44639 6.33703 3.25
    endloop
  endfacet
  facet normal 0 0 -1
    outer loop
      vertex -6.4274 0.968775 3.25
      vertex -1.44639 6.33703 3.25
      vertex 0.485746 6.48182 3.25
    endloop
  endfacet
  facet normal 0 0 -1
    outer loop
      vertex -6.4274 0.968775 3.25
      vertex 0.485746 6.48182 3.25
      vertex 2.37472 6.05068 3.25
    endloop
  endfacet
  facet normal 0 0 -1
    outer loop
      vertex -6.4274 0.968775 3.25
      vertex 2.37472 6.05068 3.25
      vertex 4.05268 5.0819 3.25
    endloop
  endfacet
  facet normal 0 0 -1
    outer loop
      vertex -6.4274 0.968775 3.25
      vertex 4.05268 5.0819 3.25
      vertex 5.37055 3.66158 3.25
    endloop
  endfacet
  facet normal 0 0 -1
    outer loop
      vertex -6.4274 0.968775 3.25
      vertex 5.37055 3.66158 3.25
      vertex 6.21122 1.91591 3.25
    endloop
  endfacet
  facet normal 0 0 -1
    outer loop
      vertex -6.4274 0.968775 3.25
      vertex 6.21122 1.91591 3.25
      vertex 6.5 0 3.25
    endloop
  endfacet
  facet normal 0 0 -1
    outer loop
      vertex -6.4274 0.968775 3.25
      vertex 6.5 0 3.25
      vertex 6.21122 -1.91591 3.25
    endloop
  endfacet
  facet normal 0 0 -1
    outer loop
      vertex -6.4274 0.968775 3.25
      vertex 6.21122 -1.91591 3.25
      vertex 5.37055 -3.66158 3.25
    endloop
  endfacet
  facet normal 0 0 -1
    outer loop
      vertex -6.4274 0.968775 3.25
      vertex 5.37055 -3.66158 3.25
      vertex 4.05268 -5.0819 3.25
    endloop
  endfacet
  facet normal 0 0 -1
    outer loop
      vertex -6.4274 0.968775 3.25
      vertex 4.05268 -5.0819 3.25
      vertex 2.37472 -6.05068 3.25
    endloop
  endfacet
  facet normal 0 0 -1
    outer loop
      vertex -6.4274 0.968775 3.25
      vertex 2.37472 -6.05068 3.25
      vertex 0.485746 -6.48182 3.25
    endloop
  endfacet
  facet normal 0 0 -1
    outer loop
      vertex -6.4274 0.968775 3.25
      vertex 0.485746 -6.48182 3.25
      vertex -1.44639 -6.33703 3.25
    endloop
  endfacet
  facet normal 0 0 -1
    outer loop
      vertex -6.4274 0.968775 3.25
      vertex -1.44639 -6.33703 3.25
      vertex -3.25 -5.62916 3.25
    endloop
  endfacet
  facet normal 0 0 -1
    outer loop
      vertex -6.4274 0.968775 3.25
      vertex -3.25 -5.62916 3.25
      vertex -4.76484 -4.42112 3.25
    endloop
  endfacet
  facet normal 0 0 -1
    outer loop
      vertex -6.4274 0.968775 3.25
      vertex -4.76484 -4.42112 3.25
      vertex -5.8563 -2.82024 3.25
    endloop
  endfacet
  facet normal 0 0 -1
    outer loop
      vertex -6.4274 0.968775 3.25
      vertex -5.8563 -2.82024 3.25
      vertex -6.4274 -0.968775 3.25
    endloop
  endfacet
endsolid OpenSCAD_Model
