solid OpenSCAD_Model
  facet normal -1 0 0
    outer loop
      vertex -12 -12 0
      vertex -12 -12 7
      vertex -12 12 0
    endloop
  endfacet
  facet normal -1 0 0
    outer loop
      vertex -12 12 0
      vertex -12 -12 7
      vertex -12 12 7
    endloop
  endfacet
  facet normal 0 -1 0
    outer loop
      vertex -12 -12 7
      vertex -12 -12 0
      vertex 12 -12 0
    endloop
  endfacet
  facet normal 0 -1 0
    outer loop
      vertex 12 -12 7
      vertex -12 -12 7
      vertex 12 -12 0
    endloop
  endfacet
  facet normal 0 0 -1
    outer loop
      vertex 2.80405 6.14002 0
      vertex -12 12 0
      vertex 12 12 0
    endloop
  endfacet
  facet normal 0 0 -1
    outer loop
      vertex -12 -12 0
      vertex -12 12 0
      vertex -6.75 0 0
    endloop
  endfacet
  facet normal 0 0 -1
    outer loop
      vertex -12 -12 0
      vertex -6.75 0 0
      vertex -6.47658 -1.90169 0
    endloop
  endfacet
  facet normal 0 0 -1
    outer loop
      vertex -12 -12 0
      vertex -6.47658 -1.90169 0
      vertex -5.67846 -3.64933 0
    endloop
  endfacet
  facet normal 0 0 -1
    outer loop
      vertex -12 -12 0
      vertex -5.67846 -3.64933 0
      vertex -4.42031 -5.10131 0
    endloop
  endfacet
  facet normal 0 0 -1
    outer loop
      vertex -12 -12 0
      vertex -4.42031 -5.10131 0
      vertex -2.80405 -6.14002 0
    endloop
  endfacet
  facet normal 0 0 -1
    outer loop
      vertex -12 -12 0
      vertex -2.80405 -6.14002 0
      vertex 12 -12 0
    endloop
  endfacet
  facet normal 0 0 -1
    outer loop
      vertex -2.80405 -6.14002 0
      vertex -0.960625 -6.68129 0
      vertex 12 -12 0
    endloop
  endfacet
  facet normal 0 0 -1
    outer loop
      vertex 2.80405 -6.14002 0
      vertex 12 -12 0
      vertex 0.960625 -6.68129 0
    endloop
  endfacet
  facet normal 0 0 -1
    outer loop
      vertex 4.42031 -5.10131 0
      vertex 12 -12 0
      vertex 2.80405 -6.14002 0
    endloop
  endfacet
  facet normal 0 0 -1
    outer loop
      vertex 5.67846 -3.64933 0
      vertex 12 -12 0
      vertex 4.42031 -5.10131 0
    endloop
  endfacet
  facet normal 0 0 -1
    outer loop
      vertex -5.67846 3.64933 0
      vertex -12 12 0
      vertex -4.42031 5.10131 0
    endloop
  endfacet
  facet normal 0 0 -1
    outer loop
      vertex 12 -12 0
      vertex 5.67846 -3.64933 0
      vertex 6.47658 -1.90169 0
    endloop
  endfacet
  facet normal 0 0 -1
    outer loop
      vertex 12 -12 0
      vertex 6.47658 -1.90169 0
      vertex 12 12 0
    endloop
  endfacet
  facet normal 0 0 -1
    outer loop
      vertex -0.960625 6.68129 0
      vertex -12 12 0
      vertex 0.960625 6.68129 0
    endloop
  endfacet
  facet normal 0 0 -1
    outer loop
      vertex -4.42031 5.10131 0
      vertex -12 12 0
      vertex -2.80405 6.14002 0
    endloop
  endfacet
  facet normal 0 0 -1
    outer loop
      vertex 6.75 0 0
      vertex 6.47658 1.90169 0
      vertex 12 12 0
    endloop
  endfacet
  facet normal 0 0 -1
    outer loop
      vertex -2.80405 6.14002 0
      vertex -12 12 0
      vertex -0.960625 6.68129 0
    endloop
  endfacet
  facet normal 0 0 -1
    outer loop
      vertex 6.47658 1.90169 0
      vertex 5.67846 3.64933 0
      vertex 12 12 0
    endloop
  endfacet
  facet normal 0 0 -1
    outer loop
      vertex 5.67846 3.64933 0
      vertex 4.42031 5.10131 0
      vertex 12 12 0
    endloop
  endfacet
  facet normal 0 0 -1
    outer loop
      vertex 0.960625 6.68129 0
      vertex -12 12 0
      vertex 2.80405 6.14002 0
    endloop
  endfacet
  facet normal 0 0 -1
    outer loop
      vertex 4.42031 5.10131 0
      vertex 2.80405 6.14002 0
      vertex 12 12 0
    endloop
  endfacet
  facet normal 0 0 -1
    outer loop
      vertex 6.75 0 0
      vertex 12 12 0
      vertex 6.47658 -1.90169 0
    endloop
  endfacet
  facet normal 0 0 -1
    outer loop
      vertex -6.47658 1.90169 0
      vertex -12 12 0
      vertex -5.67846 3.64933 0
    endloop
  endfacet
  facet normal 0 0 -1
    outer loop
      vertex -6.75 0 0
      vertex -12 12 0
      vertex -6.47658 1.90169 0
    endloop
  endfacet
  facet normal 0 0 -1
    outer loop
      vertex 0.960625 -6.68129 0
      vertex 12 -12 0
      vertex -0.960625 -6.68129 0
    endloop
  endfacet
  facet normal 0 1 0
    outer loop
      vertex -12 12 0
      vertex -12 12 7
      vertex 12 12 0
    endloop
  endfacet
  facet normal 0 1 0
    outer loop
      vertex 12 12 0
      vertex -12 12 7
      vertex 12 12 7
    endloop
  endfacet
  facet normal 0 0 1
    outer loop
      vertex -12 12 7
      vertex -12 -12 7
      vertex 12 -12 7
    endloop
  endfacet
  facet normal 0 0 1
    outer loop
      vertex 12 12 7
      vertex -12 12 7
      vertex 12 -12 7
    endloop
  endfacet
  facet normal 1 0 0
    outer loop
      vertex 12 -12 7
      vertex 12 -12 0
      vertex 12 12 0
    endloop
  endfacet
  facet normal 1 0 0
    outer loop
      vertex 12 12 7
      vertex 12 -12 7
      vertex 12 12 0
    endloop
  endfacet
  facet normal 0.989821 -0.142315 0
    outer loop
      vertex -6.47658 1.90169 0
      vertex -6.47658 1.90169 4
      vertex -6.75 0 4
    endloop
  endfacet
  facet normal 0.989821 -0.142315 0
    outer loop
      vertex -6.75 0 0
      vertex -6.47658 1.90169 0
      vertex -6.75 0 4
    endloop
  endfacet
  facet normal 0.989821 0.142315 0
    outer loop
      vertex -6.75 0 4
      vertex -6.47658 -1.90169 4
      vertex -6.47658 -1.90169 0
    endloop
  endfacet
  facet normal 0.989821 0.142315 0
    outer loop
      vertex -6.75 0 0
      vertex -6.75 0 4
      vertex -6.47658 -1.90169 0
    endloop
  endfacet
  facet normal 0.909632 -0.415415 0
    outer loop
      vertex -5.67846 3.64933 0
      vertex -5.67846 3.64933 4
      vertex -6.47658 1.90169 4
    endloop
  endfacet
  facet normal 0.909632 -0.415415 0
    outer loop
      vertex -6.47658 1.90169 0
      vertex -5.67846 3.64933 0
      vertex -6.47658 1.90169 4
    endloop
  endfacet
  facet normal 0.75575 -0.654861 0
    outer loop
      vertex -4.42031 5.10131 0
      vertex -4.42031 5.10131 4
      vertex -5.67846 3.64933 4
    endloop
  endfacet
  facet normal 0.75575 -0.654861 0
    outer loop
      vertex -5.67846 3.64933 0
      vertex -4.42031 5.10131 0
      vertex -5.67846 3.64933 4
    endloop
  endfacet
  facet normal 0.540641 -0.841254 0
    outer loop
      vertex -2.80405 6.14002 0
      vertex -2.80405 6.14002 4
      vertex -4.42031 5.10131 4
    endloop
  endfacet
  facet normal 0.540641 -0.841254 0
    outer loop
      vertex -4.42031 5.10131 0
      vertex -2.80405 6.14002 0
      vertex -4.42031 5.10131 4
    endloop
  endfacet
  facet normal 0.281733 -0.959493 0
    outer loop
      vertex -0.960625 6.68129 0
      vertex -0.960625 6.68129 4
      vertex -2.80405 6.14002 4
    endloop
  endfacet
  facet normal 0.281733 -0.959493 0
    outer loop
      vertex -2.80405 6.14002 0
      vertex -0.960625 6.68129 0
      vertex -2.80405 6.14002 4
    endloop
  endfacet
  facet normal 0 -1 0
    outer loop
      vertex 0.960625 6.68129 0
      vertex 0.960625 6.68129 4
      vertex -0.960625 6.68129 4
    endloop
  endfacet
  facet normal 0 -1 0
    outer loop
      vertex -0.960625 6.68129 0
      vertex 0.960625 6.68129 0
      vertex -0.960625 6.68129 4
    endloop
  endfacet
  facet normal -0.281733 -0.959493 0
    outer loop
      vertex 2.80405 6.14002 0
      vertex 2.80405 6.14002 4
      vertex 0.960625 6.68129 4
    endloop
  endfacet
  facet normal -0.281733 -0.959493 0
    outer loop
      vertex 0.960625 6.68129 0
      vertex 2.80405 6.14002 0
      vertex 0.960625 6.68129 4
    endloop
  endfacet
  facet normal -0.540641 -0.841254 0
    outer loop
      vertex 4.42031 5.10131 0
      vertex 4.42031 5.10131 4
      vertex 2.80405 6.14002 4
    endloop
  endfacet
  facet normal -0.540641 -0.841254 0
    outer loop
      vertex 2.80405 6.14002 0
      vertex 4.42031 5.10131 0
      vertex 2.80405 6.14002 4
    endloop
  endfacet
  facet normal -0.75575 -0.654861 0
    outer loop
      vertex 5.67846 3.64933 4
      vertex 4.42031 5.10131 4
      vertex 5.67846 3.64933 0
    endloop
  endfacet
  facet normal -0.75575 -0.654861 0
    outer loop
      vertex 5.67846 3.64933 0
      vertex 4.42031 5.10131 4
      vertex 4.42031 5.10131 0
    endloop
  endfacet
  facet normal -0.909632 -0.415415 0
    outer loop
      vertex 6.47658 1.90169 4
      vertex 5.67846 3.64933 4
      vertex 6.47658 1.90169 0
    endloop
  endfacet
  facet normal -0.909632 -0.415415 0
    outer loop
      vertex 6.47658 1.90169 0
      vertex 5.67846 3.64933 4
      vertex 5.67846 3.64933 0
    endloop
  endfacet
  facet normal -0.989821 -0.142315 0
    outer loop
      vertex 6.75 0 4
      vertex 6.47658 1.90169 4
      vertex 6.75 0 0
    endloop
  endfacet
  facet normal -0.989821 -0.142315 0
    outer loop
      vertex 6.75 0 0
      vertex 6.47658 1.90169 4
      vertex 6.47658 1.90169 0
    endloop
  endfacet
  facet normal -0.989821 0.142315 0
    outer loop
      vertex 6.75 0 4
      vertex 6.75 0 0
      vertex 6.47658 -1.90169 4
    endloop
  endfacet
  facet normal -0.989821 0.142315 0
    outer loop
      vertex 6.47658 -1.90169 4
      vertex 6.75 0 0
      vertex 6.47658 -1.90169 0
    endloop
  endfacet
  facet normal -0.909632 0.415415 0
    outer loop
      vertex 6.47658 -1.90169 4
      vertex 6.47658 -1.90169 0
      vertex 5.67846 -3.64933 4
    endloop
  endfacet
  facet normal -0.909632 0.415415 0
    outer loop
      vertex 5.67846 -3.64933 4
      vertex 6.47658 -1.90169 0
      vertex 5.67846 -3.64933 0
    endloop
  endfacet
  facet normal -0.75575 0.654861 0
    outer loop
      vertex 5.67846 -3.64933 4
      vertex 5.67846 -3.64933 0
      vertex 4.42031 -5.10131 4
    endloop
  endfacet
  facet normal -0.75575 0.654861 0
    outer loop
      vertex 4.42031 -5.10131 4
      vertex 5.67846 -3.64933 0
      vertex 4.42031 -5.10131 0
    endloop
  endfacet
  facet normal -0.540641 0.841254 0
    outer loop
      vertex 4.42031 -5.10131 4
      vertex 4.42031 -5.10131 0
      vertex 2.80405 -6.14002 4
    endloop
  endfacet
  facet normal -0.540641 0.841254 0
    outer loop
      vertex 2.80405 -6.14002 4
      vertex 4.42031 -5.10131 0
      vertex 2.80405 -6.14002 0
    endloop
  endfacet
  facet normal -0.281733 0.959493 0
    outer loop
      vertex 2.80405 -6.14002 4
      vertex 2.80405 -6.14002 0
      vertex 0.960625 -6.68129 4
    endloop
  endfacet
  facet normal -0.281733 0.959493 0
    outer loop
      vertex 0.960625 -6.68129 4
      vertex 2.80405 -6.14002 0
      vertex 0.960625 -6.68129 0
    endloop
  endfacet
  facet normal 0 1 0
    outer loop
      vertex 0.960625 -6.68129 4
      vertex 0.960625 -6.68129 0
      vertex -0.960625 -6.68129 4
    endloop
  endfacet
  facet normal 0 1 0
    outer loop
      vertex -0.960625 -6.68129 4
      vertex 0.960625 -6.68129 0
      vertex -0.960625 -6.68129 0
    endloop
  endfacet
  facet normal 0.281733 0.959493 0
    outer loop
      vertex -0.960625 -6.68129 4
      vertex -0.960625 -6.68129 0
      vertex -2.80405 -6.14002 4
    endloop
  endfacet
  facet normal 0.281733 0.959493 0
    outer loop
      vertex -2.80405 -6.14002 4
      vertex -0.960625 -6.68129 0
      vertex -2.80405 -6.14002 0
    endloop
  endfacet
  facet normal 0.540641 0.841254 0
    outer loop
      vertex -2.80405 -6.14002 4
      vertex -2.80405 -6.14002 0
      vertex -4.42031 -5.10131 4
    endloop
  endfacet
  facet normal 0.540641 0.841254 0
    outer loop
      vertex -4.42031 -5.10131 4
      vertex -2.80405 -6.14002 0
      vertex -4.42031 -5.10131 0
    endloop
  endfacet
  facet normal 0.75575 0.654861 0
    outer loop
      vertex -5.67846 -3.64933 4
      vertex -4.42031 -5.10131 4
      vertex -4.42031 -5.10131 0
    endloop
  endfacet
  facet normal 0.75575 0.654861 0
    outer loop
      vertex -5.67846 -3.64933 0
      vertex -5.67846 -3.64933 4
      vertex -4.42031 -5.10131 0
    endloop
  endfacet
  facet normal 0.909632 0.415415 0
    outer loop
      vertex -6.47658 -1.90169 4
      vertex -5.67846 -3.64933 4
      vertex -5.67846 -3.64933 0
    endloop
  endfacet
  facet normal 0.909632 0.415415 0
    outer loop
      vertex -6.47658 -1.90169 0
      vertex -6.47658 -1.90169 4
      vertex -5.67846 -3.64933 0
    endloop
  endfacet
  facet normal 0 0 -1
    outer loop
      vertex -5.67846 3.64933 4
      vertex -4.42031 5.10131 4
      vertex -6.47658 1.90169 4
    endloop
  endfacet
  facet normal 0 0 -1
    outer loop
      vertex -6.47658 1.90169 4
      vertex -4.42031 5.10131 4
      vertex -2.80405 6.14002 4
    endloop
  endfacet
  facet normal 0 0 -1
    outer loop
      vertex -6.47658 1.90169 4
      vertex -2.80405 6.14002 4
      vertex -0.960625 6.68129 4
    endloop
  endfacet
  facet normal 0 0 -1
    outer loop
      vertex -6.47658 1.90169 4
      vertex -0.960625 6.68129 4
      vertex 0.960625 6.68129 4
    endloop
  endfacet
  facet normal 0 0 -1
    outer loop
      vertex -6.47658 1.90169 4
      vertex 0.960625 6.68129 4
      vertex 2.80405 6.14002 4
    endloop
  endfacet
  facet normal 0 0 -1
    outer loop
      vertex -6.47658 1.90169 4
      vertex 2.80405 6.14002 4
      vertex 4.42031 5.10131 4
    endloop
  endfacet
  facet normal 0 0 -1
    outer loop
      vertex -6.47658 1.90169 4
      vertex 4.42031 5.10131 4
      vertex 5.67846 3.64933 4
    endloop
  endfacet
  facet normal 0 0 -1
    outer loop
      vertex -6.47658 1.90169 4
      vertex 5.67846 3.64933 4
      vertex 6.47658 1.90169 4
    endloop
  endfacet
  facet normal 0 0 -1
    outer loop
      vertex -6.47658 1.90169 4
      vertex 6.47658 1.90169 4
      vertex 6.75 0 4
    endloop
  endfacet
  facet normal 0 0 -1
    outer loop
      vertex -6.47658 1.90169 4
      vertex 6.75 0 4
      vertex 6.47658 -1.90169 4
    endloop
  endfacet
  facet normal 0 0 -1
    outer loop
      vertex -6.47658 1.90169 4
      vertex 6.47658 -1.90169 4
      vertex 5.67846 -3.64933 4
    endloop
  endfacet
  facet normal 0 0 -1
    outer loop
      vertex -6.47658 1.90169 4
      vertex 5.67846 -3.64933 4
      vertex 4.42031 -5.10131 4
    endloop
  endfacet
  facet normal 0 0 -1
    outer loop
      vertex -6.47658 1.90169 4
      vertex 4.42031 -5.10131 4
      vertex 2.80405 -6.14002 4
    endloop
  endfacet
  facet normal 0 0 -1
    outer loop
      vertex -6.47658 1.90169 4
      vertex 2.80405 -6.14002 4
      vertex 0.960625 -6.68129 4
    endloop
  endfacet
  facet normal 0 0 -1
    outer loop
      vertex -6.47658 1.90169 4
      vertex 0.960625 -6.68129 4
      vertex -0.960625 -6.68129 4
    endloop
  endfacet
  facet normal 0 0 -1
    outer loop
      vertex -6.47658 1.90169 4
      vertex -0.960625 -6.68129 4
      vertex -2.80405 -6.14002 4
    endloop
  endfacet
  facet normal 0 0 -1
    outer loop
      vertex -6.47658 1.90169 4
      vertex -2.80405 -6.14002 4
      vertex -4.42031 -5.10131 4
    endloop
  endfacet
  facet normal 0 0 -1
    outer loop
      vertex -6.47658 1.90169 4
      vertex -4.42031 -5.10131 4
      vertex -5.67846 -3.64933 4
    endloop
  endfacet
  facet normal 0 0 -1
    outer loop
      vertex -6.47658 1.90169 4
      vertex -5.67846 -3.64933 4
      vertex -6.47658 -1.90169 4
    endloop
  endfacet
  facet normal 0 0 -1
    outer loop
      vertex -6.47658 1.90169 4
      vertex -6.47658 -1.90169 4
      vertex -6.75 0 4
    endloop
  endfacet
endsolid OpenSCAD_Model
