<?xml version="1.0" encoding="UTF-8" standalone="no"?>
<!-- Created with Inkscape (http://www.inkscape.org/) -->

<svg
   xmlns:dc="http://purl.org/dc/elements/1.1/"
   xmlns:cc="http://creativecommons.org/ns#"
   xmlns:rdf="http://www.w3.org/1999/02/22-rdf-syntax-ns#"
   xmlns:svg="http://www.w3.org/2000/svg"
   xmlns="http://www.w3.org/2000/svg"
   xmlns:sodipodi="http://sodipodi.sourceforge.net/DTD/sodipodi-0.dtd"
   xmlns:inkscape="http://www.inkscape.org/namespaces/inkscape"
   width="1602.7142"
   height="741.71301"
   id="svg2"
   version="1.1"
   inkscape:version="0.48.4 r9939"
   sodipodi:docname="americas.svg">
  <defs
     id="defs4">
    <inkscape:perspective
       sodipodi:type="inkscape:persp3d"
       inkscape:vp_x="0 : 526.18109 : 1"
       inkscape:vp_y="0 : 1000 : 0"
       inkscape:vp_z="744.09448 : 526.18109 : 1"
       inkscape:persp3d-origin="372.04724 : 350.78739 : 1"
       id="perspective10" />
    <inkscape:perspective
       id="perspective2824"
       inkscape:persp3d-origin="0.5 : 0.33333333 : 1"
       inkscape:vp_z="1 : 0.5 : 1"
       inkscape:vp_y="0 : 1000 : 0"
       inkscape:vp_x="0 : 0.5 : 1"
       sodipodi:type="inkscape:persp3d" />
  </defs>
  <sodipodi:namedview
     id="base"
     pagecolor="#ffffff"
     bordercolor="#666666"
     borderopacity="1.0"
     inkscape:pageopacity="0.0"
     inkscape:pageshadow="2"
     inkscape:zoom="0.98994949"
     inkscape:cx="297.37534"
     inkscape:cy="301.69352"
     inkscape:document-units="px"
     inkscape:current-layer="layer1"
     showgrid="false"
     inkscape:window-width="1280"
     inkscape:window-height="784"
     inkscape:window-x="0"
     inkscape:window-y="0"
     inkscape:window-maximized="0" />
  <metadata
     id="metadata7">
    <rdf:RDF>
      <cc:Work
         rdf:about="">
        <dc:format>image/svg+xml</dc:format>
        <dc:type
           rdf:resource="http://purl.org/dc/dcmitype/StillImage" />
        <dc:title></dc:title>
      </cc:Work>
    </rdf:RDF>
  </metadata>
  <g
     inkscape:label="Ebene 1"
     inkscape:groupmode="layer"
     id="layer1"
     transform="translate(275.17606,-309.45844)">
    <path
       style="fill:#000000"
       d="m 89.419216,1016.7447 -4.185257,-0.473 -3.708482,-2.2705 -3.454954,-3.5929 -10.101315,-16.36571 -5.503286,-7.67697 -1.17721,-4.24223 1.206028,-11.42728 -1.723727,-5.40156 -4.224091,-6.99837 -5.189558,-10.3945 -1.587065,-6.97768 -0.627987,-13.31493 -1.293746,-21.70944 -2.8326,-51.08135 L 43.846635,842.4317 22.718291,821.67379 11.058645,810.50286 3.4043208,798.1437 l -5.8169195,-10.03911 -9.9621623,-17.53784 -4.072937,-6.08421 2.45272,-9.40827 1.168493,-5.87529 7.0194155,-22.30875 6.9990541,-22.96735 -1.44717885,-6.77766 -1.15064725,-1.47634 0.2411512,-2.36728 -1.7776427,-3.75448 -9.460348,2.82228 -6.466202,1.08317 -6.108479,-2.50798 -6.164261,-4.19303 -6.343772,-5.36139 -1.476339,-3.89142 -2.317676,-4.82053 -3.6707,-6.19714 -2.642825,-2.80987 -11.818936,-1.51609 -8.984826,-6.51372 -6.165217,-5.53067 -8.659877,0.13816 -5.134851,1.96101 -15.754258,-7.63407 -19.54129,-11.63894 -2.52692,-8.96936 -1.48062,-10.62649 -7.31902,-10.62914 -3.94267,-5.99555 -3.94167,-8.47141 -5.37973,-13.27775 -3.76259,-7.18347 -4.655,0.96669 3.03076,15.37588 4.18213,12.96407 3.14476,10.26569 -3.62143,-0.19397 -2.95142,-7.5673 -2.85428,-5.56806 -3.66648,-8.26228 -1.85868,-8.30615 -2.30685,-10.54332 -6.41421,-12.93966 -4.29743,-5.77645 -1.70272,-8.12689 0.0949,-4.49061 -0.85584,-3.60088 -0.5624,-5.93227 0.62905,-4.18135 2.23728,-4.34051 4.83574,-7.68319 7.02037,-10.26644 7.9898,-12.27891 5.35951,-6.56382 2.36215,1.45618 5.30474,-2.06687 2.12392,-5.11798 -1.09681,-2.17222 -5.43343,-7.05922 -3.6267,-7.27709 0.60183,-4.14941 3.58203,-9.08378 0.74251,-0.8858 -1.99948,-7.36362 -5.3492,-10.2248 -8.04168,-4.64646 -5.78363,-2.84481 -11.41067,-2.38901 -12.59804,-0.72083 -14.79768,2.92987 -11.34689,3.43647 -13.11935,5.59165 -9.66905,3.68062 -24.42737,8.66146 5.16017,-3.34761 21.19497,-10.65213 -4.41644,-1.18119 -6.21664,-0.43 -3.33049,-1.74502 3.62287,-1.87346 4.44276,-8.26293 14.93767,-7.93128 13.21433,-4.36363 -1.31224,-3.92981 -8.59867,0.0535 -2.83694,-3.06088 15.97706,-3.39767 8.25387,-1.1918 3.7697,-1.94939 -2.48152,-2.64147 -2.48153,-3.33561 10.66527,-3.28736 10.81023,-2.85457 21.38526,-4.76316 24.15041,-0.19261 17.43545,2.50144 15.33019,3.04718 29.153549,-0.14984 11.667618,-1.70618 4.618557,-0.57697 5.814687,0.48549 9.16397,1.09572 13.089805,1.81123 9.96958,2.48334 0.33253,1.68725 -0.139945,2.52143 9.133416,0.10454 8.927307,3.0346 1.94655962,3.76423 2.52676098,-3.16886 8.1124385,-4.8499 11.1957679,0.037 10.638987,0.99171 8.310032,1.61004 6.191283,0.081 7.319078,-3.48379 4.287916,-7.50592 4.123014,-5.03697 7.951719,-1.96667 -0.03496,3.78603 2.975391,6.75136 3.40823,0.0177 -0.175566,3.56679 12.531831,-2.41717 11.212976,-2.35072 -1.970275,6.60604 -15.630208,6.84992 -10.280461,1.8866 -6.525751,0.57553 -2.6591,2.89672 2.581137,2.7475 -5.149732,1.46155 -10.464554,1.63425 -5.322936,2.27365 -6.495894,4.75294 -22.112094,19.21161 2.912499,4.15984 4.699413,3.87364 10.374545,4.14794 10.629645,4.2619 2.913384,7.63174 -0.524254,9.40109 3.25129,3.44916 9.753431,-9.59975 9.296463,-9.98526 11.879986,-15.02816 2.682166,-6.45929 5.558584,-7.15511 13.879574,-6.63973 14.58839,7.83194 -0.67887,4.62546 1.27006,5.30466 2.61775,2.78648 4.2746,-2.21584 8.37376,-5.28307 4.09917,-3.06726 0.96303,2.60334 0.33409,4.24234 0.59783,3.93124 0.15482,4.20767 1.65286,6.71253 0.33194,6.47308 2.32605,2.69314 9.77831,0.59451 -8.89866,11.58533 -28.43039,5.94471 -20.964017,5.0481 -10.334376,5.99308 8.662357,-1.02574 11.752676,-3.44596 3.07454,2.60758 -3.68057,4.45841 -0.85446,4.98864 12.48995,5.05103 4.57819,-0.77249 -3.52012,2.42853 -7.08643,3.19865 -8.95817,3.48658 -6.847064,1.8171 6.176494,-5.42563 -1.282948,-3.56207 -16.33715,6.1537 -12.926108,8.61816 -12.311609,7.77097 -8.267501,4.69137 -7.130543,5.67845 -4.778663,5.5148 -1.565168,0.67503 -3.832837,6.4715 -11.00623,14.81112 -20.76280188,16.20026 -0.82993903,14.33287 -0.42092212,13.70816 -3.45451637,2.73676 -4.7651989,-16.03161 -2.1932027,-6.68704 -5.230789,-2.02375 -7.953502,-1.69362 -9.690433,-1.0913 -5.349971,4.21469 -4.940635,2.10226 -6.816578,-2.40959 -11.592526,0.73698 -10.264032,5.53539 -7.256209,6.19644 -4.839452,14.42354 -3.731939,11.39618 1.906144,7.35607 18.527447,15.38409 13.93955,-10.08698 5.695128,-5.28837 9.394964,-0.23063 -6.328276,18.79596 3.98712,10.72165 16.015946,1.93937 -1.192457,12.89134 0.787833,15.50296 5.912362,5.89785 7.525009,-0.0286 13.08925017,1.06497 6.26099063,0.99981 4.5938962,-5.46834 9.350095,-7.77057 5.225427,-2.97895 5.887442,-1.15948 -2.074919,14.06393 3.482732,-0.4678 1.019395,-4.00389 2.356852,-6.50535 10.332475,1.01354 19.513241,5.27868 27.257066,16.57292 15.640471,7.16447 21.7249,15.87638 2.58204,6.05043 -6.50054,10.68291 -3.45163,5.92003 6.68428,-3.56465 10.6816,-2.9946 -0.71205,4.72429 -4.4943,2.87789 1.03703,1.23203 5.90536,-1.27269 13.24135,-2.18581 4.86174,5.16341 3.67972,3.4552 12.48777,-0.56646 14.22674,5.9289 11.13002,6.50721 7.69953,6.28439 -5.2428,18.44052 -5.78677,8.56196 -5.00083,6.86695 -2.30981,10.38274 -11.37384,43.37992 -7.02437,1.63023 -5.14967,0.695 -5.7313,3.51196 -8.897,5.57282 -2.65894,7.50939 -2.6889,14.32467 -1.86478,5.53602 -2.73836,6.52836 -6.45625,10.22506 -15.35032,7.81642 -9.70615,-0.77919 2.80423,2.48407 5.34112,6.35731 1.21465,7.98159 -14.05465,6.77314 -4.76698,4.69987 -1.80877,8.08374 -4.109475,-1.57685 -4.221268,3.92776 4.320513,4.37643 0.460252,2.99238 -1.271872,4.11155 -2.356746,5.94628 -1.107704,7.06515 3.771528,3.70736 1.434306,11.34456 -1.030781,13.19996 -7.414567,5.1726 z M 2.3757727,505.21123 16.132753,493.70562 l 0.327382,4.51452 -2.450641,3.11548 2.514359,2.03601 5.38062,0.73004 3.590848,-3.58894 3.503424,-1.58556 3.922245,-1.34576 -8.20311,-7.36642 -6.52255,-5.31573 -1.535937,-5.2322 -14.2836203,-1.30487 -7.4072206,1.39445 -1.4066445,1.02867 -0.2697332,1.13586 -3.8944774,2.28432 -2.938955,2.25807 3.300611,1.25489 6.9669998,-0.64107 7.6677532,0.0122 6.768025,1.21373 3.491058,0.47772 -3.79959,1.93643 -15.516777,12.43679 -2.7586762,9.70635 4.3366706,0.27513 5.4609563,-7.92445 z m 21.4580403,7.29014 3.127135,-4.16532 -7.238127,0.74719 -3.127135,5.88167 z m 20.941663,-8.92441 0.816345,-3.03207 -10.146043,3.29143 z M -19.340331,373.82685 z"
       id="path2830"
       inkscape:connector-curvature="0"
       sodipodi:nodetypes="ccccccccccccccccccccccccccccccccccccccccccccccccccccccccccccccccccccccccccccccccccccccccccccccccccccccccccccccccccccccccccccccccccccccccccccccccccccccccccccccccccccccccccccccccccccccccccccccccccccccccccccccccccccccccccccccccccccccccccccccccccccccccccccccccccccccccccccccccccccccccccccccccccccccccccccccccccccccccccccccccccccccccccccccccccccccccc" />
  </g>
</svg>
