  0
SECTION
  2
HEADER
  9
$ACADVER
  1
AC1014
  9
$HANDSEED
  5
FFFF
  9
$MEASUREMENT
 70
     1
  0
ENDSEC
  0
SECTION
  2
TABLES
  0
TABLE
  2
VPORT
  5
8
330
0
100
AcDbSymbolTable
 70
     4
  0
VPORT
  5
2E
330
8
100
AcDbSymbolTableRecord
100
AcDbViewportTableRecord
  2
*ACTIVE
 70
     0
 10
0.0
 20
0.0
 11
1.0
 21
1.0
 12
210.0
 22
148.5
 13
0.0
 23
0.0
 14
10.0
 24
10.0
 15
10.0
 25
10.0
 16
0.0
 26
0.0
 36
1.0
 17
0.0
 27
0.0
 37
0.0
 40
341.0
 41
1.24
 42
50.0
 43
0.0
 44
0.0
 50
0.0
 51
0.0
 71
     0
 72
   100
 73
     1
 74
     3
 75
     0
 76
     0
 77
     0
 78
     0
  0
ENDTAB
  0
TABLE
  2
LTYPE
  5
5
330
0
100
AcDbSymbolTable
 70
     1
  0
LTYPE
  5
14
330
5
100
AcDbSymbolTableRecord
100
AcDbLinetypeTableRecord
  2
BYBLOCK
 70
     0
  3

 72
    65
 73
     0
 40
0.0
  0
LTYPE
  5
15
330
5
100
AcDbSymbolTableRecord
100
AcDbLinetypeTableRecord
  2
BYLAYER
 70
     0
  3

 72
    65
 73
     0
 40
0.0
  0
LTYPE
  5
16
330
5
100
AcDbSymbolTableRecord
100
AcDbLinetypeTableRecord
  2
CONTINUOUS
 70
     0
  3
Solid line
 72
    65
 73
     0
 40
0.0
  0
ENDTAB
  0
TABLE
  2
LAYER
  5
2
100
AcDbSymbolTable
 70
2
  0
LAYER
  5
50
100
AcDbSymbolTableRecord
100
AcDbLayerTableRecord
  2
0
 70
0
  6
CONTINUOUS
  0
LAYER
  5
51
100
AcDbSymbolTableRecord
100
AcDbLayerTableRecord
  2
Ebene_1
 70
0
  6
CONTINUOUS
  0
ENDTAB
  0
TABLE
  2
STYLE
  5
3
330
0
100
AcDbSymbolTable
 70
     1
  0
STYLE
  5
11
330
3
100
AcDbSymbolTableRecord
100
AcDbTextStyleTableRecord
  2
STANDARD
 70
     0
 40
0.0
 41
1.0
 50
0.0
 71
     0
 42
2.5
  3
txt
  4

  0
ENDTAB
  0
TABLE
  2
VIEW
  5
6
330
0
100
AcDbSymbolTable
 70
     0
  0
ENDTAB
  0
TABLE
  2
UCS
  5
7
330
0
100
AcDbSymbolTable
 70
     0
  0
ENDTAB
  0
TABLE
  2
APPID
  5
9
330
0
100
AcDbSymbolTable
 70
     2
  0
APPID
  5
12
330
9
100
AcDbSymbolTableRecord
100
AcDbRegAppTableRecord
  2
ACAD
 70
     0
  0
ENDTAB
  0
TABLE
  2
DIMSTYLE
  5
A
330
0
100
AcDbSymbolTable
 70
     1
  0
DIMSTYLE
105
27
330
A
100
AcDbSymbolTableRecord
100
AcDbDimStyleTableRecord
  2
ISO-25
 70
     0
  3

  4

  5

  6

  7

 40
1.0
 41
2.5
 42
0.625
 43
3.75
 44
1.25
 45
0.0
 46
0.0
 47
0.0
 48
0.0
140
2.5
141
2.5
142
0.0
143
0.03937007874016
144
1.0
145
0.0
146
1.0
147
0.625
 71
     0
 72
     0
 73
     0
 74
     0
 75
     0
 76
     0
 77
     1
 78
     8
170
     0
171
     3
172
     1
173
     0
174
     0
175
     0
176
     0
177
     0
178
     0
270
     2
271
     2
272
     2
273
     2
274
     3
340
11
275
     0
280
     0
281
     0
282
     0
283
     0
284
     8
285
     0
286
     0
287
     3
288
     0
  0
ENDTAB
  0
TABLE
  2
BLOCK_RECORD
  5
1
330
0
100
AcDbSymbolTable
 70
     1
  0
BLOCK_RECORD
  5
1F
330
1
100
AcDbSymbolTableRecord
100
AcDbBlockTableRecord
  2
*MODEL_SPACE
  0
BLOCK_RECORD
  5
1B
330
1
100
AcDbSymbolTableRecord
100
AcDbBlockTableRecord
  2
*PAPER_SPACE
  0
ENDTAB
  0
ENDSEC
  0
SECTION
  2
BLOCKS
  0
BLOCK
  5
20
330
1F
100
AcDbEntity
  8
0
100
AcDbBlockBegin
  2
*MODEL_SPACE
 70
     0
 10
0.0
 20
0.0
 30
0.0
  3
*MODEL_SPACE
  1

  0
ENDBLK
  5
21
330
1F
100
AcDbEntity
  8
0
100
AcDbBlockEnd
  0
BLOCK
  5
1C
330
1B
100
AcDbEntity
 67
     1
  8
0
100
AcDbBlockBegin
  2
*PAPER_SPACE
  1

  0
ENDBLK
  5
1D
330
1B
100
AcDbEntity
 67
     1
  8
0
100
AcDbBlockEnd
  0
ENDSEC
  0
SECTION
  2
ENTITIES
  0
LWPOLYLINE
  5
100
100
AcDbEntity
  8
Ebene_1
 62
7
100
AcDbPolyline
 90
305
 70
0
 10
102.896889
 20
9.715994
 30
0.0
 10
101.715716
 20
9.849485
 30
0.0
 10
100.669100
 20
10.490271
 30
0.0
 10
99.694036
 20
11.504267
 30
0.0
 10
96.843220
 20
16.123034
 30
0.0
 10
95.290070
 20
18.289645
 30
0.0
 10
94.957836
 20
19.486897
 30
0.0
 10
95.298204
 20
22.711929
 30
0.0
 10
94.811729
 20
24.236370
 30
0.0
 10
93.619597
 20
26.211465
 30
0.0
 10
92.154989
 20
29.145024
 30
0.0
 10
91.707084
 20
31.114280
 30
0.0
 10
91.529852
 20
34.872049
 30
0.0
 10
91.164728
 20
40.998936
 30
0.0
 10
90.365305
 20
55.415228
 30
0.0
 10
90.035294
 20
58.910996
 30
0.0
 10
84.072406
 20
64.769340
 30
0.0
 10
80.781795
 20
67.922024
 30
0.0
 10
78.621574
 20
71.410054
 30
0.0
 10
76.979910
 20
74.243314
 30
0.0
 10
74.168367
 20
79.192882
 30
0.0
 10
73.018893
 20
80.909981
 30
0.0
 10
73.711105
 20
83.565204
 30
0.0
 10
74.040880
 20
85.223342
 30
0.0
 10
76.021915
 20
91.519367
 30
0.0
 10
77.997204
 20
98.001263
 30
0.0
 10
77.588778
 20
99.914069
 30
0.0
 10
77.264039
 20
100.330725
 30
0.0
 10
77.332098
 20
100.998824
 30
0.0
 10
76.830407
 20
102.058422
 30
0.0
 10
74.160487
 20
101.261912
 30
0.0
 10
72.335581
 20
100.956217
 30
0.0
 10
70.611633
 20
101.664025
 30
0.0
 10
68.871941
 20
102.847391
 30
0.0
 10
67.081588
 20
104.360495
 30
0.0
 10
66.664932
 20
105.458740
 30
0.0
 10
66.010832
 20
106.819200
 30
0.0
 10
64.974879
 20
108.568171
 30
0.0
 10
64.229015
 20
109.361179
 30
0.0
 10
60.893449
 20
109.789053
 30
0.0
 10
58.357731
 20
111.627370
 30
0.0
 10
56.617770
 20
113.188248
 30
0.0
 10
54.173760
 20
113.149256
 30
0.0
 10
52.724591
 20
112.595815
 30
0.0
 10
48.278390
 20
114.750319
 30
0.0
 10
42.763403
 20
118.035087
 30
0.0
 10
42.050250
 20
120.566440
 30
0.0
 10
41.632386
 20
123.565471
 30
0.0
 10
39.566796
 20
126.565251
 30
0.0
 10
38.454087
 20
128.257328
 30
0.0
 10
37.341660
 20
130.648148
 30
0.0
 10
35.823381
 20
134.395424
 30
0.0
 10
34.761495
 20
136.422759
 30
0.0
 10
33.447750
 20
136.149938
 30
0.0
 10
34.303098
 20
131.810523
 30
0.0
 10
35.483388
 20
128.151774
 30
0.0
 10
36.370909
 20
125.254568
 30
0.0
 10
35.348861
 20
125.309311
 30
0.0
 10
34.515905
 20
127.444971
 30
0.0
 10
33.710364
 20
129.016402
 30
0.0
 10
32.675601
 20
131.348201
 30
0.0
 10
32.151041
 20
133.692381
 30
0.0
 10
31.499996
 20
136.667940
 30
0.0
 10
29.689764
 20
140.319800
 30
0.0
 10
28.476933
 20
141.950042
 30
0.0
 10
27.996388
 20
144.243631
 30
0.0
 10
28.023171
 20
145.510981
 30
0.0
 10
27.781634
 20
146.527229
 30
0.0
 10
27.622912
 20
148.201448
 30
0.0
 10
27.800444
 20
149.381518
 30
0.0
 10
28.431854
 20
150.606506
 30
0.0
 10
29.796607
 20
152.774873
 30
0.0
 10
31.777912
 20
155.672290
 30
0.0
 10
34.032811
 20
159.137672
 30
0.0
 10
35.545384
 20
160.990128
 30
0.0
 10
36.212035
 20
160.579161
 30
0.0
 10
37.709150
 20
161.162478
 30
0.0
 10
38.308568
 20
162.606886
 30
0.0
 10
37.999024
 20
163.219934
 30
0.0
 10
36.465589
 20
165.212203
 30
0.0
 10
35.442054
 20
167.265960
 30
0.0
 10
35.611903
 20
168.437015
 30
0.0
 10
36.622832
 20
171.000660
 30
0.0
 10
36.832385
 20
171.250652
 30
0.0
 10
36.268087
 20
173.328830
 30
0.0
 10
34.758424
 20
176.214495
 30
0.0
 10
32.488883
 20
177.525830
 30
0.0
 10
30.856614
 20
178.328698
 30
0.0
 10
27.636270
 20
179.002930
 30
0.0
 10
24.080823
 20
179.206364
 30
0.0
 10
19.904589
 20
178.379490
 30
0.0
 10
16.702244
 20
177.409642
 30
0.0
 10
12.999672
 20
175.831554
 30
0.0
 10
10.270851
 20
174.792801
 30
0.0
 10
3.376905
 20
172.348344
 30
0.0
 10
4.833219
 20
173.293114
 30
0.0
 10
10.814911
 20
176.299382
 30
0.0
 10
9.568493
 20
176.632740
 30
0.0
 10
7.814019
 20
176.754096
 30
0.0
 10
6.874081
 20
177.246579
 30
0.0
 10
7.896535
 20
177.775311
 30
0.0
 10
9.150381
 20
180.107294
 30
0.0
 10
13.366123
 20
182.345677
 30
0.0
 10
17.095501
 20
183.577190
 30
0.0
 10
16.725158
 20
184.686270
 30
0.0
 10
14.298422
 20
184.671171
 30
0.0
 10
13.497774
 20
185.535020
 30
0.0
 10
18.006856
 20
186.493918
 30
0.0
 10
20.336281
 20
186.830270
 30
0.0
 10
21.400175
 20
187.380431
 30
0.0
 10
20.699834
 20
188.125913
 30
0.0
 10
19.999492
 20
189.067296
 30
0.0
 10
23.009468
 20
189.995062
 30
0.0
 10
26.060355
 20
190.800685
 30
0.0
 10
32.095750
 20
192.144955
 30
0.0
 10
38.911533
 20
192.199314
 30
0.0
 10
43.832204
 20
191.493352
 30
0.0
 10
48.158725
 20
190.633370
 30
0.0
 10
56.386504
 20
190.675658
 30
0.0
 10
59.679365
 20
191.157180
 30
0.0
 10
60.982824
 20
191.320014
 30
0.0
 10
62.623858
 20
191.182998
 30
0.0
 10
65.210134
 20
190.873761
 30
0.0
 10
68.904368
 20
190.362592
 30
0.0
 10
71.718005
 20
189.661738
 30
0.0
 10
71.811853
 20
189.185558
 30
0.0
 10
71.772357
 20
188.473955
 30
0.0
 10
74.350010
 20
188.444451
 30
0.0
 10
76.869494
 20
187.588020
 30
0.0
 10
77.418857
 20
186.525670
 30
0.0
 10
78.131965
 20
187.419993
 30
0.0
 10
80.421475
 20
188.788743
 30
0.0
 10
83.581170
 20
188.778301
 30
0.0
 10
86.583728
 20
188.498418
 30
0.0
 10
88.929004
 20
188.044029
 30
0.0
 10
90.676322
 20
188.021169
 30
0.0
 10
92.741928
 20
189.004372
 30
0.0
 10
93.952073
 20
191.122709
 30
0.0
 10
95.115679
 20
192.544254
 30
0.0
 10
97.359831
 20
193.099292
 30
0.0
 10
97.349965
 20
192.030790
 30
0.0
 10
98.189686
 20
190.125406
 30
0.0
 10
99.151564
 20
190.120411
 30
0.0
 10
99.102016
 20
189.113784
 30
0.0
 10
102.638777
 20
189.795963
 30
0.0
 10
105.803328
 20
190.459388
 30
0.0
 10
105.247273
 20
188.595017
 30
0.0
 10
100.836081
 20
186.661817
 30
0.0
 10
97.934706
 20
186.129377
 30
0.0
 10
96.092994
 20
185.966949
 30
0.0
 10
95.342537
 20
185.149431
 30
0.0
 10
96.070991
 20
184.374025
 30
0.0
 10
94.617622
 20
183.961543
 30
0.0
 10
91.664293
 20
183.500322
 30
0.0
 10
90.162042
 20
182.858647
 30
0.0
 10
88.328756
 20
181.517262
 30
0.0
 10
82.088232
 20
176.095319
 30
0.0
 10
82.910204
 20
174.921319
 30
0.0
 10
84.236483
 20
173.828092
 30
0.0
 10
87.164410
 20
172.657451
 30
0.0
 10
90.164332
 20
171.454648
 30
0.0
 10
90.986554
 20
169.300802
 30
0.0
 10
90.838597
 20
166.647605
 30
0.0
 10
91.756184
 20
165.674175
 30
0.0
 10
94.508819
 20
168.383438
 30
0.0
 10
97.132487
 20
171.201501
 30
0.0
 10
100.485283
 20
175.442781
 30
0.0
 10
101.242250
 20
177.265736
 30
0.0
 10
102.811006
 20
179.285067
 30
0.0
 10
106.728130
 20
181.158947
 30
0.0
 10
110.845298
 20
178.948599
 30
0.0
 10
110.653706
 20
177.643192
 30
0.0
 10
111.012145
 20
176.146099
 30
0.0
 10
111.750932
 20
175.359692
 30
0.0
 10
112.957319
 20
175.985051
 30
0.0
 10
115.320580
 20
177.476051
 30
0.0
 10
116.477457
 20
178.341700
 30
0.0
 10
116.749246
 20
177.606980
 30
0.0
 10
116.843533
 20
176.409697
 30
0.0
 10
117.012254
 20
175.300214
 30
0.0
 10
117.055948
 20
174.112716
 30
0.0
 10
117.522422
 20
172.218291
 30
0.0
 10
117.616103
 20
170.391444
 30
0.0
 10
118.272566
 20
169.631380
 30
0.0
 10
121.032222
 20
169.463596
 30
0.0
 10
118.520822
 20
166.193958
 30
0.0
 10
110.497135
 20
164.516229
 30
0.0
 10
104.580623
 20
163.091543
 30
0.0
 10
101.664033
 20
161.400163
 30
0.0
 10
104.108742
 20
161.689649
 30
0.0
 10
107.425609
 20
162.662176
 30
0.0
 10
108.293312
 20
161.926259
 30
0.0
 10
107.254573
 20
160.667996
 30
0.0
 10
107.013426
 20
159.260091
 30
0.0
 10
110.538367
 20
157.834578
 30
0.0
 10
111.830434
 20
158.052592
 30
0.0
 10
110.836978
 20
157.367207
 30
0.0
 10
108.837030
 20
156.464477
 30
0.0
 10
106.308835
 20
155.480487
 30
0.0
 10
104.376442
 20
154.967661
 30
0.0
 10
106.119586
 20
156.498894
 30
0.0
 10
105.757509
 20
157.504189
 30
0.0
 10
101.146802
 20
155.767478
 30
0.0
 10
97.498768
 20
153.335242
 30
0.0
 10
94.024158
 20
151.142102
 30
0.0
 10
91.690885
 20
149.818093
 30
0.0
 10
89.678488
 20
148.215508
 30
0.0
 10
88.329843
 20
146.659109
 30
0.0
 10
87.888118
 20
146.468600
 30
0.0
 10
86.806406
 20
144.642199
 30
0.0
 10
83.700203
 20
140.462172
 30
0.0
 10
77.840479
 20
135.890099
 30
0.0
 10
77.606252
 20
131.845044
 30
0.0
 10
77.487458
 20
127.976297
 30
0.0
 10
76.512517
 20
127.203922
 30
0.0
 10
75.167672
 20
131.728399
 30
0.0
 10
74.548701
 20
133.615630
 30
0.0
 10
73.072457
 20
134.186778
 30
0.0
 10
70.827802
 20
134.664755
 30
0.0
 10
68.092946
 20
134.972744
 30
0.0
 10
66.583065
 20
133.783265
 30
0.0
 10
65.188708
 20
133.189960
 30
0.0
 10
63.264918
 20
133.870000
 30
0.0
 10
59.993250
 20
133.662008
 30
0.0
 10
57.096512
 20
132.099798
 30
0.0
 10
55.048649
 20
130.351025
 30
0.0
 10
53.682848
 20
126.280381
 30
0.0
 10
52.629612
 20
123.064126
 30
0.0
 10
53.167568
 20
120.988080
 30
0.0
 10
58.396425
 20
116.646348
 30
0.0
 10
62.330476
 20
119.493117
 30
0.0
 10
63.937768
 20
120.985613
 30
0.0
 10
66.589235
 20
121.050702
 30
0.0
 10
64.803255
 20
115.746064
 30
0.0
 10
65.928509
 20
112.720176
 30
0.0
 10
70.448565
 20
112.172843
 30
0.0
 10
70.112027
 20
108.534621
 30
0.0
 10
70.334371
 20
104.159341
 30
0.0
 10
72.002971
 20
102.494836
 30
0.0
 10
74.126696
 20
102.502908
 30
0.0
 10
77.820773
 20
102.202350
 30
0.0
 10
79.587764
 20
101.920181
 30
0.0
 10
80.884263
 20
103.463468
 30
0.0
 10
83.523068
 20
105.656496
 30
0.0
 10
84.997799
 20
106.497222
 30
0.0
 10
86.659366
 20
106.824453
 30
0.0
 10
86.073778
 20
102.855299
 30
0.0
 10
87.056682
 20
102.987323
 30
0.0
 10
87.344378
 20
104.117309
 30
0.0
 10
88.009534
 20
105.953264
 30
0.0
 10
90.925588
 20
105.667220
 30
0.0
 10
96.432659
 20
104.177459
 30
0.0
 10
104.125208
 20
99.500213
 30
0.0
 10
108.539297
 20
97.478240
 30
0.0
 10
114.670546
 20
92.997573
 30
0.0
 10
115.399256
 20
91.290007
 30
0.0
 10
113.564659
 20
88.275053
 30
0.0
 10
112.590532
 20
86.604289
 30
0.0
 10
114.476984
 20
87.610312
 30
0.0
 10
117.491569
 20
88.455455
 30
0.0
 10
117.290613
 20
87.122155
 30
0.0
 10
116.022222
 20
86.309951
 30
0.0
 10
116.314895
 20
85.962244
 30
0.0
 10
117.981518
 20
86.321426
 30
0.0
 10
121.718522
 20
86.938310
 30
0.0
 10
123.090613
 20
85.481081
 30
0.0
 10
124.129111
 20
84.505947
 30
0.0
 10
127.653438
 20
84.665814
 30
0.0
 10
131.668540
 20
82.992547
 30
0.0
 10
134.809679
 20
81.156068
 30
0.0
 10
136.982657
 20
79.382473
 30
0.0
 10
135.503023
 20
74.178149
 30
0.0
 10
133.869867
 20
71.761773
 30
0.0
 10
132.458522
 20
69.823767
 30
0.0
 10
131.806642
 20
66.893527
 30
0.0
 10
128.596692
 20
54.650750
 30
0.0
 10
126.614259
 20
54.190663
 30
0.0
 10
125.160907
 20
53.994518
 30
0.0
 10
123.543407
 20
53.003365
 30
0.0
 10
121.032476
 20
51.430592
 30
0.0
 10
120.282064
 20
49.311275
 30
0.0
 10
119.523197
 20
45.268535
 30
0.0
 10
118.996914
 20
43.706147
 30
0.0
 10
118.224088
 20
41.863699
 30
0.0
 10
116.401991
 20
38.977959
 30
0.0
 10
112.069790
 20
36.771992
 30
0.0
 10
109.330498
 20
36.991897
 30
0.0
 10
110.121914
 20
36.290837
 30
0.0
 10
111.629297
 20
34.496663
 30
0.0
 10
111.972098
 20
32.244081
 30
0.0
 10
108.005564
 20
30.332550
 30
0.0
 10
106.660216
 20
29.006142
 30
0.0
 10
106.149741
 20
26.724731
 30
0.0
 10
104.989956
 20
27.169753
 30
0.0
 10
103.798620
 20
26.061252
 30
0.0
 10
105.017965
 20
24.826127
 30
0.0
 10
105.147858
 20
23.981610
 30
0.0
 10
104.788908
 20
22.821240
 30
0.0
 10
104.123782
 20
21.143067
 30
0.0
 10
103.811163
 20
19.149125
 30
0.0
 10
104.875572
 20
18.102826
 30
0.0
 10
105.280365
 20
14.901139
 30
0.0
 10
104.989456
 20
11.175817
 30
0.0
 10
102.896900
 20
9.715994
 30
0.0
 10
102.896889
 20
9.715994
 30
0.0
  0
LWPOLYLINE
  5
101
100
AcDbEntity
  8
Ebene_1
 62
7
100
AcDbPolyline
 90
29
 70
0
 10
78.331295
 20
154.082107
 30
0.0
 10
82.213821
 20
157.329245
 30
0.0
 10
82.306215
 20
156.055147
 30
0.0
 10
81.614590
 20
155.175890
 30
0.0
 10
82.324198
 20
154.601283
 30
0.0
 10
83.842728
 20
154.395249
 30
0.0
 10
84.856145
 20
155.408128
 30
0.0
 10
85.844889
 20
155.855608
 30
0.0
 10
86.951834
 20
156.235411
 30
0.0
 10
84.636734
 20
158.314379
 30
0.0
 10
82.795926
 20
159.814596
 30
0.0
 10
82.362450
 20
161.291239
 30
0.0
 10
78.331295
 20
161.659502
 30
0.0
 10
76.240813
 20
161.265957
 30
0.0
 10
75.843826
 20
160.975644
 30
0.0
 10
75.767702
 20
160.655079
 30
0.0
 10
74.668594
 20
160.010393
 30
0.0
 10
73.839155
 20
159.373116
 30
0.0
 10
74.770661
 20
159.018958
 30
0.0
 10
76.736903
 20
159.199882
 30
0.0
 10
78.900914
 20
159.196439
 30
0.0
 10
80.811001
 20
158.853897
 30
0.0
 10
81.796255
 20
158.719074
 30
0.0
 10
80.723926
 20
158.172571
 30
0.0
 10
76.344747
 20
154.662632
 30
0.0
 10
75.566187
 20
151.923284
 30
0.0
 10
76.790092
 20
151.845637
 30
0.0
 10
78.331295
 20
154.082092
 30
0.0
 10
78.331295
 20
154.082107
 30
0.0
  0
LWPOLYLINE
  5
102
100
AcDbEntity
  8
Ebene_1
 62
7
100
AcDbPolyline
 90
5
 70
0
 10
84.387231
 20
152.024667
 30
0.0
 10
85.269778
 20
153.200213
 30
0.0
 10
83.227018
 20
152.989339
 30
0.0
 10
82.344471
 20
151.329401
 30
0.0
 10
84.387231
 20
152.024667
 30
0.0
  0
LWPOLYLINE
  5
103
100
AcDbEntity
  8
Ebene_1
 62
7
100
AcDbPolyline
 90
4
 70
0
 10
90.297433
 20
154.543334
 30
0.0
 10
90.527824
 20
155.399051
 30
0.0
 10
87.664385
 20
154.470137
 30
0.0
 10
90.297433
 20
154.543334
 30
0.0
  0
LWPOLYLINE
  5
104
100
AcDbEntity
  8
Ebene_1
 62
7
100
AcDbPolyline
 90
2
 70
0
 10
72.202528
 20
191.161698
 30
0.0
 10
72.202528
 20
191.161698
 30
0.0
  0
ENDSEC
  0
SECTION
  2
OBJECTS
  0
DICTIONARY
  5
C
330
0
100
AcDbDictionary
  3
ACAD_GROUP
350
D
  3
ACAD_MLINESTYLE
350
17
  0
DICTIONARY
  5
D
330
C
100
AcDbDictionary
  0
DICTIONARY
  5
1A
330
C
100
AcDbDictionary
  0
DICTIONARY
  5
17
330
C
100
AcDbDictionary
  3
STANDARD
350
18
  0
DICTIONARY
  5
19
330
C
100
AcDbDictionary
  0
ENDSEC
  0
EOF
