<?xml version="1.0" encoding="UTF-8" standalone="no"?>
<!-- Created with Inkscape (http://www.inkscape.org/) -->

<svg
   xmlns:dc="http://purl.org/dc/elements/1.1/"
   xmlns:cc="http://creativecommons.org/ns#"
   xmlns:rdf="http://www.w3.org/1999/02/22-rdf-syntax-ns#"
   xmlns:svg="http://www.w3.org/2000/svg"
   xmlns="http://www.w3.org/2000/svg"
   xmlns:sodipodi="http://sodipodi.sourceforge.net/DTD/sodipodi-0.dtd"
   xmlns:inkscape="http://www.inkscape.org/namespaces/inkscape"
   width="1602.7142"
   height="741.71301"
   id="svg2"
   version="1.1"
   inkscape:version="0.48.4 r9939"
   sodipodi:docname="world.dxf">
  <defs
     id="defs4">
    <inkscape:perspective
       sodipodi:type="inkscape:persp3d"
       inkscape:vp_x="0 : 526.18109 : 1"
       inkscape:vp_y="0 : 1000 : 0"
       inkscape:vp_z="744.09448 : 526.18109 : 1"
       inkscape:persp3d-origin="372.04724 : 350.78739 : 1"
       id="perspective10" />
    <inkscape:perspective
       id="perspective2824"
       inkscape:persp3d-origin="0.5 : 0.33333333 : 1"
       inkscape:vp_z="1 : 0.5 : 1"
       inkscape:vp_y="0 : 1000 : 0"
       inkscape:vp_x="0 : 0.5 : 1"
       sodipodi:type="inkscape:persp3d" />
  </defs>
  <sodipodi:namedview
     id="base"
     pagecolor="#ffffff"
     bordercolor="#666666"
     borderopacity="1.0"
     inkscape:pageopacity="0.0"
     inkscape:pageshadow="2"
     inkscape:zoom="0.98994949"
     inkscape:cx="297.37534"
     inkscape:cy="301.69352"
     inkscape:document-units="px"
     inkscape:current-layer="layer1"
     showgrid="false"
     inkscape:window-width="1280"
     inkscape:window-height="784"
     inkscape:window-x="0"
     inkscape:window-y="0"
     inkscape:window-maximized="0" />
  <metadata
     id="metadata7">
    <rdf:RDF>
      <cc:Work
         rdf:about="">
        <dc:format>image/svg+xml</dc:format>
        <dc:type
           rdf:resource="http://purl.org/dc/dcmitype/StillImage" />
        <dc:title></dc:title>
      </cc:Work>
    </rdf:RDF>
  </metadata>
  <g
     inkscape:label="Ebene 1"
     inkscape:groupmode="layer"
     id="layer1"
     transform="translate(275.17606,-309.45844)">
    <path
       style="fill:#000000"
       d="m 89.419216,1016.7447 c -1.129671,-0.6322 -3.013043,-0.845 -4.185257,-0.473 -1.476198,0.4685 -2.616074,-0.2294 -3.708482,-2.2705 -0.86745,-1.6209 -2.422177,-3.2377 -3.454954,-3.5929 -2.369572,-0.815 -7.336604,-8.8624 -10.101315,-16.36571 -1.396299,-3.78947 -3.27412,-6.40899 -5.503286,-7.67697 -3.955704,-2.25003 -4.238878,-3.27049 -1.17721,-4.24223 3.502752,-1.11172 4.154443,-7.28662 1.206028,-11.42728 -1.4072,-1.97624 -2.147696,-4.29669 -1.723727,-5.40156 0.500314,-1.30378 -0.880536,-3.59153 -4.224091,-6.99837 -4.220359,-4.30022 -5.000799,-5.86343 -5.189558,-10.3945 -0.122193,-2.9332 -0.836376,-6.07316 -1.587065,-6.97768 -0.94566,-1.13945 -1.138541,-5.2292 -0.627987,-13.31493 0.553332,-8.76296 0.231029,-14.17132 -1.293746,-21.70944 -2.264363,-11.19452 -3.420974,-32.05213 -2.8326,-51.08135 0.125536,-4.05993 -0.400666,-9.63389 -1.169331,-12.38658 -1.87181,-6.70318 -10.484184,-15.16456 -21.128344,-20.75791 -7.613094,-4.00056 -8.683641,-5.02624 -11.659646,-11.17093 -1.8022915,-3.72126 -5.2467333,-9.28288 -7.6543242,-12.35916 -2.40760275,-3.07628 -5.0252118,-7.59388 -5.8169195,-10.03911 -2.512848,-7.76109 -6.9425399,-15.55931 -9.9621623,-17.53784 -1.60686,-1.05286 -3.439682,-3.79074 -4.072937,-6.08421 -1.02458,-3.71073 -0.754492,-4.74676 2.45272,-9.40827 3.477641,-5.05459 3.518636,-5.26071 1.168493,-5.87529 -5.774696,-1.51012 -3.346071,-9.22866 7.0194155,-22.30875 6.8892381,-8.69344 8.9074651,-15.31624 6.9990541,-22.96735 -0.72726845,-2.91572 -1.37849954,-5.96568 -1.44717885,-6.77766 -0.0687384,-0.81199 -0.58647293,-1.47634 -1.15064725,-1.47634 -0.5641743,0 -0.4556692,-1.06528 0.2411512,-2.36728 1.07365319,-2.00615 0.80246734,-2.5789 -1.7776427,-3.75448 -3.7604139,-1.71335 -9.438416,-0.0195 -9.460348,2.82228 -0.02634,3.40766 -1.524929,3.6587 -6.466202,1.08317 -2.646416,-1.37938 -5.39523,-2.50798 -6.108479,-2.50798 -0.713261,0 -3.487173,-1.88687 -6.164261,-4.19303 -2.677088,-2.30617 -5.531785,-4.71879 -6.343772,-5.36139 -0.811986,-0.6426 -1.476339,-2.39374 -1.476339,-3.89142 0,-1.49768 -1.042957,-3.66692 -2.317676,-4.82053 -1.274731,-1.15361 -2.926542,-3.94232 -3.6707,-6.19714 -0.978057,-2.96353 -1.710463,-3.74223 -2.642825,-2.80987 -1.945768,1.94577 -4.82665,1.57622 -11.818936,-1.51609 -3.655441,-1.61662 -7.463676,-4.37747 -8.984826,-6.51372 -1.452104,-2.0393 -4.226453,-4.5281 -6.165217,-5.53067 -3.199405,-1.65448 -3.999345,-1.64172 -8.659877,0.13816 l -5.134851,1.96101 -15.754258,-7.63407 c -9.69082,-4.6959 -17.21178,-9.17543 -19.54129,-11.63894 -3.6119,-3.81967 -3.72877,-4.23446 -2.52692,-8.96936 1.10099,-4.33758 0.91403,-5.67948 -1.48062,-10.62649 -1.50741,-3.1141 -4.80097,-7.89722 -7.31902,-10.62914 -2.51805,-2.73191 -4.29226,-5.42992 -3.94267,-5.99555 0.34957,-0.56562 -1.42418,-4.37776 -3.94167,-8.47141 -2.85994,-4.65052 -4.87833,-9.6321 -5.37973,-13.27775 -0.64275,-4.67339 -1.39167,-6.10321 -3.76259,-7.18347 -2.51322,-1.1451 -3.21598,-0.99916 -4.655,0.96669 -2.02672,2.76872 -1.45057,5.69173 3.03076,15.37588 1.82106,3.93532 3.70302,9.76916 4.18213,12.96407 0.47911,3.19492 1.89425,7.81448 3.14476,10.26569 2.96198,5.80595 1.04946,5.70351 -3.62143,-0.19397 -2.75488,-3.47831 -3.49889,-5.38594 -2.95142,-7.5673 0.58456,-2.32906 0.009,-3.4507 -2.85428,-5.56806 -4.34257,-3.21059 -5.26164,-5.2817 -3.66648,-8.26228 0.93021,-1.73812 0.50367,-3.64427 -1.85868,-8.30615 -2.39904,-4.73427 -2.90082,-7.02763 -2.30685,-10.54332 0.97096,-5.74708 -1.60746,-10.94864 -6.41421,-12.93966 -2.77525,-1.14955 -3.73197,-2.43553 -4.29743,-5.77645 -0.40007,-2.36374 -1.1663,-6.02083 -1.70272,-8.12689 -0.55799,-2.19071 -0.5174,-4.11222 0.0949,-4.49061 0.5886,-0.36377 0.20347,-1.98417 -0.85584,-3.60088 -1.56016,-2.38111 -1.66699,-3.50796 -0.5624,-5.93227 0.74999,-1.64604 1.03306,-3.52765 0.62905,-4.18135 -0.40401,-0.65369 0.60277,-2.60692 2.23728,-4.34051 1.63451,-1.73359 3.8106,-5.19102 4.83574,-7.68319 1.02515,-2.49217 4.18431,-7.11207 7.02037,-10.26644 2.83605,-3.15439 6.43146,-8.67989 7.9898,-12.27891 2.16305,-4.99564 3.43094,-6.54843 5.35951,-6.56382 1.3894,-0.0106 2.45237,0.6442 2.36215,1.45618 -0.37598,3.38371 2.29955,2.34125 5.30474,-2.06687 1.77141,-2.59836 2.72717,-4.90145 2.12392,-5.11798 -0.60324,-0.21653 -1.09681,-1.19402 -1.09681,-2.17222 0,-0.97819 -2.44505,-4.15485 -5.43343,-7.05922 -4.95654,-4.81722 -5.27485,-5.45592 -3.6267,-7.27709 1.33529,-1.47549 1.49233,-2.55818 0.60183,-4.14941 -1.56493,-2.79638 0.90447,-9.05861 3.58203,-9.08378 1.1059,-0.0106 1.42152,-0.38694 0.74251,-0.8858 -1.52334,-1.11919 -2.2135,-3.66087 -1.99948,-7.36362 0.34182,-5.91393 -0.95236,-8.38769 -5.3492,-10.2248 -2.37157,-0.99091 -5.99032,-3.08181 -8.04168,-4.64646 -2.05136,-1.56465 -4.65399,-2.84481 -5.78363,-2.84481 -1.12963,0 -6.26443,-1.07506 -11.41067,-2.38901 -8.27374,-2.11247 -9.73198,-2.19591 -12.59804,-0.72083 -5.93955,3.05691 -12.23227,4.30284 -14.79768,2.92987 -1.92428,-1.02984 -4.02426,-0.39385 -11.34689,3.43647 -4.94208,2.58511 -10.84578,5.10135 -13.11935,5.59165 -2.27356,0.49031 -6.62463,2.14658 -9.66905,3.68062 -8.63542,4.35126 -21.00567,8.73751 -24.42737,8.66146 -2.2083,-0.0491 -0.71532,-1.01764 5.16017,-3.34761 9.98541,-3.95979 20.24589,-9.11649 21.19497,-10.65213 1.1689,-1.89132 -1.36846,-2.56995 -4.41644,-1.18119 -2.24409,1.02247 -3.62708,0.92681 -6.21664,-0.43 l -3.33049,-1.74502 3.62287,-1.87346 c 4.09542,-2.11782 5.38372,-4.51387 4.44276,-8.26293 -0.91131,-3.63094 4.11332,-6.29881 14.93767,-7.93128 5.81609,-0.87715 10.23753,-2.3372 13.21433,-4.36363 5.24924,-3.57338 4.34742,-6.27412 -1.31224,-3.92981 -2.67928,1.10979 -4.63081,1.12193 -8.59867,0.0535 -4.82199,-1.29843 -4.99377,-1.48376 -2.83694,-3.06088 3.60893,-2.63891 11.07297,-4.22621 15.97706,-3.39767 3.10319,0.52428 5.6451,0.15725 8.25387,-1.1918 l 3.7697,-1.94939 -2.48152,-2.64147 c -1.36484,-1.45281 -2.48153,-2.95383 -2.48153,-3.33561 0,-1.09581 7.11011,-3.28736 10.66527,-3.28736 1.77449,0 6.6391,-1.28456 10.81023,-2.85457 4.17114,-1.57001 13.7945,-3.71343 21.38526,-4.76316 12.31151,-1.70256 14.91858,-1.72335 24.15041,-0.19261 5.69196,0.94379 13.53791,2.06944 17.43545,2.50144 3.89754,0.432 10.79613,1.80323 15.33019,3.04718 10.530494,2.88909 17.389273,2.85384 29.153549,-0.14984 5.194826,-1.32636 10.445256,-2.09414 11.667618,-1.70618 1.22235,0.38796 3.300705,0.12833 4.618557,-0.57697 1.815838,-0.9718 3.223947,-0.85424 5.814687,0.48549 2.340742,1.21044 5.230081,1.55592 9.16397,1.09572 4.15031,-0.48551 7.784384,0.0173 13.089805,1.81123 4.039443,1.36584 8.525755,2.48334 9.96958,2.48334 2.557634,0 2.566185,0.0434 0.33253,1.68725 -2.190344,1.61199 -2.19658,1.72447 -0.139945,2.52143 1.183965,0.4588 5.294012,0.50584 9.133416,0.10454 6.9338353,-0.72473 6.9938219,-0.70434 8.927307,3.0346 l 1.94655962,3.76423 2.52676098,-3.16886 c 1.4520095,-1.82098 4.9026284,-3.88389 8.1124385,-4.8499 4.8511689,-1.45999 6.3233989,-1.45512 11.1957679,0.037 3.43941,1.05329 7.555894,1.43701 10.638987,0.99171 3.925799,-0.567 5.74863,-0.21383 8.310032,1.61004 3.233632,2.30256 3.323252,2.30373 6.191283,0.081 1.600577,-1.24047 4.894172,-2.80817 7.319078,-3.48379 5.805286,-1.61743 7.774215,-5.06402 4.287916,-7.50592 -2.465417,-1.72684 -2.357573,-1.8586 4.123014,-5.03697 4.833205,-2.37043 7.00966,-2.90872 7.951719,-1.96667 0.942058,0.94206 0.932491,1.97833 -0.03496,3.78603 -1.648953,3.08109 0.403513,7.73828 2.975391,6.75136 0.924566,-0.35479 2.458271,-0.34682 3.40823,0.0177 1.492119,0.57257 1.468226,1.05805 -0.175566,3.56679 -4.541079,6.93056 5.639617,4.96688 12.531831,-2.41717 2.802093,-3.00206 7.143724,-3.91225 11.212976,-2.35072 2.628048,1.00847 2.381818,1.83406 -1.970275,6.60604 -5.186416,5.68681 -7.840414,6.84992 -15.630208,6.84992 -3.764925,0 -8.209428,0.81563 -10.280461,1.8866 -2.866767,1.48246 -4.264672,1.60575 -6.525751,0.57553 -4.215445,-1.92068 -5.682962,-0.32203 -2.6591,2.89672 l 2.581137,2.7475 -5.149732,1.46155 c -2.832351,0.80386 -7.541402,1.53927 -10.464554,1.63425 -4.239079,0.13774 -5.316464,0.59793 -5.322936,2.27365 -0.0059,1.43392 -2.067951,2.94294 -6.495894,4.75294 -14.347623,5.86482 -26.518554,16.43927 -22.112094,19.21161 0.825651,0.51946 2.136275,2.3914 2.912499,4.15984 0.893847,2.03647 2.616888,3.45672 4.699413,3.87364 1.808469,0.36204 6.477009,2.22862 10.374545,4.14794 3.897536,1.91933 8.680876,3.83718 10.629645,4.2619 5.365147,1.1693 5.41213,1.29238 2.913384,7.63174 -2.137763,5.42354 -2.180919,6.19745 -0.524254,9.40109 0.992904,1.92006 2.45598,3.47218 3.25129,3.44916 3.869993,-0.11196 7.49873,-3.68356 9.753431,-9.59975 2.149031,-5.63891 3.128328,-6.69077 9.296463,-9.98526 9.103192,-4.86218 12.888763,-9.65092 11.879986,-15.02816 -0.657089,-3.50261 -0.315783,-4.32456 2.682166,-6.45929 1.889278,-1.34529 4.390646,-4.56509 5.558584,-7.15511 2.610629,-5.78934 6.80576,-7.79622 13.879574,-6.63973 6.27337,1.02562 13.69228,5.00854 14.58839,7.83194 0.36785,1.159 0.0624,3.24046 -0.67887,4.62546 -1.12267,2.09772 -0.91061,2.98345 1.27006,5.30466 l 2.61775,2.78648 4.2746,-2.21584 c 2.35104,-1.21869 6.11922,-3.59608 8.37376,-5.28307 l 4.09917,-3.06726 0.96303,2.60334 c 0.52968,1.43184 0.68002,3.34089 0.33409,4.24234 -0.34591,0.90145 -0.0769,2.67051 0.59783,3.93124 0.75906,1.41831 0.81809,3.0225 0.15482,4.20767 -0.74781,1.33628 -0.24803,3.36594 1.65286,6.71253 2.72315,4.79418 2.72336,4.79808 0.33194,6.47308 -3.14671,2.20406 -1.1278,4.54159 2.32605,2.69314 3.43013,-1.83575 7.3567,-1.59702 9.77831,0.59451 3.57964,3.23954 0.60281,7.11513 -8.89866,11.58533 -10.33476,4.86224 -14.94093,5.82538 -28.43039,5.94471 -9.96083,0.0881 -11.27987,0.40575 -20.964017,5.0481 -5.683907,2.72474 -10.334376,5.42162 -10.334376,5.99308 0,2.43703 1.791048,2.22495 8.662357,-1.02574 4.048631,-1.91533 9.267186,-3.44544 11.752676,-3.44596 4.24542,-8.9e-4 4.40027,0.13043 3.07454,2.60758 -0.76781,1.43467 -2.42407,3.44097 -3.68057,4.45841 -1.97532,1.59952 -2.09098,2.27478 -0.85446,4.98864 1.8544,4.06997 6.69722,6.02845 12.48995,5.05103 l 4.57819,-0.77249 -3.52012,2.42853 c -1.93606,1.3357 -5.12496,2.77508 -7.08643,3.19865 -1.96147,0.42357 -5.99264,1.99252 -8.95817,3.48658 -3.010317,1.51663 -6.034605,2.31924 -6.847064,1.8171 -1.869128,-1.15518 0.103816,-2.88832 6.176494,-5.42563 5.40103,-2.2567 4.53759,-4.65401 -1.282948,-3.56207 -2.267209,0.42533 -9.618931,3.1945 -16.33715,6.1537 -10.486238,4.61891 -12.315612,5.8386 -12.926108,8.61816 -0.750394,3.41652 -3.310567,5.03248 -12.311609,7.77097 -2.871327,0.87358 -6.591702,2.98468 -8.267501,4.69137 -1.675799,1.70668 -4.884546,4.26198 -7.130543,5.67845 -2.245997,1.41646 -4.396397,3.89813 -4.778663,5.5148 -0.629972,2.66426 -0.776472,2.72745 -1.565168,0.67503 -1.477851,-3.84579 -3.704656,-0.086 -3.832837,6.4715 -0.131335,6.71868 -3.536991,11.30169 -11.00623,14.81112 -7.657985,3.59811 -18.5549302,12.10049 -20.76280188,16.20026 -1.94922882,3.61951 -2.03087632,5.02957 -0.82993903,14.33287 1.12035274,8.67909 1.05348046,10.85698 -0.42092212,13.70816 -1.10101857,2.12914 -2.38570567,3.1469 -3.45451637,2.73676 -2.5342136,-0.97247 -5.6339361,-11.40088 -4.7651989,-16.03161 0.6034095,-3.21648 0.203664,-4.43529 -2.1932027,-6.68704 -1.931867,-1.8149 -3.715096,-2.50481 -5.230789,-2.02375 -1.265388,0.40162 -4.842536,-0.36009 -7.953502,-1.69362 -4.766392,-2.04311 -6.287399,-2.2144 -9.690433,-1.0913 -2.30707,0.76141 -4.599352,2.56725 -5.349971,4.21469 -1.116738,2.45098 -1.856373,2.7657 -4.940635,2.10226 -1.995007,-0.42913 -5.062463,-1.51344 -6.816578,-2.40959 -4.320372,-2.20721 -6.73975,-2.0534 -11.592526,0.73698 -2.263429,1.30149 -6.882246,3.79241 -10.264032,5.53539 -3.886399,2.00306 -6.556187,4.28292 -7.256209,6.19644 -0.609137,1.66505 -2.786892,8.15565 -4.839452,14.42354 l -3.731939,11.39618 1.906144,7.35607 c 3.502208,13.51545 8.374872,17.56141 18.527447,15.38409 7.653639,-1.64142 12.249945,-4.9674 13.93955,-10.08698 1.073028,-3.25132 2.230466,-4.32608 5.695128,-5.28837 5.214407,-1.44826 7.39215,-1.50172 9.394964,-0.23063 1.652638,1.04887 1.071563,2.77473 -6.328276,18.79596 -5.077439,10.99306 -4.711756,11.97639 3.98712,10.72165 7.925263,-1.14315 15.169696,-0.26593 16.015946,1.93937 0.329885,0.85967 -0.206723,6.66078 -1.192457,12.89134 -1.763423,11.14612 -1.75075,11.39545 0.787833,15.50296 1.419034,2.29606 4.079599,4.95009 5.912362,5.89785 2.925798,1.51299 3.843739,1.50949 7.525009,-0.0286 5.8497417,-2.44417 9.0264583,-2.18572 13.08925017,1.06497 3.24864383,2.59927 3.70796253,2.67262 6.26099063,0.99981 1.5153385,-0.99288 3.5825922,-3.45363 4.5938962,-5.46834 2.280354,-4.54283 6.122593,-7.736 9.350095,-7.77057 1.348335,-0.0144 3.699778,-1.35498 5.225427,-2.97895 3.098329,-3.29801 8.553971,-4.37246 5.887442,-1.15948 -2.237753,2.69631 -3.517255,11.3689 -2.074919,14.06393 1.200902,2.24393 1.297419,2.23096 3.482732,-0.4678 1.555932,-1.92149 1.869637,-3.15365 1.019395,-4.00389 -2.028656,-2.02866 -1.417853,-3.71459 2.356852,-6.50535 3.918997,-2.89744 6.950713,-2.60004 10.332475,1.01354 2.479554,2.64953 15.718871,6.231 19.513241,5.27868 5.778156,-1.45022 21.390908,8.04269 27.257066,16.57292 2.793223,4.06175 11.716601,8.1493 15.640471,7.16447 8.07123,-2.02575 19.1371,6.0611 21.7249,15.87638 0.77069,2.92315 1.9326,5.64584 2.58204,6.05043 1.72315,1.07349 -0.85798,5.31527 -6.50054,10.68291 -3.60504,3.4294 -4.46585,4.90581 -3.45163,5.92003 1.01423,1.01423 2.68123,0.12523 6.68428,-3.56465 5.82205,-5.36658 7.76494,-5.91126 10.6816,-2.9946 1.77431,1.77429 1.71983,2.13566 -0.71205,4.72429 -1.44831,1.54167 -3.47076,2.83671 -4.4943,2.87789 -1.07868,0.0434 -0.64274,0.56131 1.03703,1.23203 2.30734,0.92129 3.51101,0.66189 5.90536,-1.27269 6.2358,-5.03838 7.70214,-5.28044 13.24135,-2.18581 3.60105,2.01184 5.04331,3.54359 4.86174,5.16341 -0.5049,4.5038 0.55724,5.50112 3.67972,3.4552 2.48176,-1.62612 4.18438,-1.70335 12.48777,-0.56646 8.83245,1.20933 9.98925,1.69142 14.22674,5.9289 3.14596,3.14597 6.68477,5.21494 11.13002,6.50721 5.96868,1.73515 6.61704,2.26434 7.69953,6.28439 1.5695,5.82868 -0.2694,12.29666 -5.2428,18.44052 -2.12451,2.62451 -4.72856,6.47739 -5.78677,8.56196 -1.05819,2.08456 -3.30857,5.17469 -5.00083,6.86695 -2.8645,2.8645 -3.0239,3.58103 -2.30981,10.38274 1.39503,13.28779 -5.10482,38.07828 -11.37384,43.37992 -2.04108,1.72613 -3.78771,2.13148 -7.02437,1.63023 -2.66041,-0.41202 -4.62976,-0.14623 -5.14967,0.695 -0.46301,0.74919 -3.04211,2.32957 -5.7313,3.51196 -2.68918,1.1824 -6.69284,3.69017 -8.897,5.57282 -3.81501,3.25853 -3.94276,3.61937 -2.65894,7.50939 1.48022,4.48512 0.48339,9.7956 -2.6889,14.32467 -1.02563,1.46429 -1.86478,3.9555 -1.86478,5.53602 0,1.58051 -1.23226,4.51827 -2.73836,6.52836 -1.5061,2.01008 -4.41141,6.61136 -6.45625,10.22506 -5.03077,8.89055 -8.05574,10.43087 -15.35032,7.81642 -6.3305,-2.26899 -9.70615,-2.53996 -9.70615,-0.77919 0,0.66351 1.26191,1.78135 2.80423,2.48407 1.54233,0.70274 3.94582,3.56353 5.34112,6.35731 2.0777,4.16022 2.29755,5.60487 1.21465,7.98159 -1.67755,3.68181 -8.09223,6.77314 -14.05465,6.77314 -5.28092,0 -6.59102,1.29164 -4.76698,4.69987 1.12591,2.10381 0.36855,5.4886 -1.80877,8.08374 -0.17644,0.21029 -2.025699,-0.49929 -4.109475,-1.57685 -4.974296,-2.5723 -6.735262,-0.93378 -4.221268,3.92776 1.022548,1.97738 2.966769,3.94677 4.320513,4.37643 2.326688,0.73845 2.351868,0.90217 0.460252,2.99238 -1.101786,1.21745 -1.673378,3.06524 -1.271872,4.11155 0.431469,1.12439 -0.530845,3.55242 -2.356746,5.94628 -2.968128,3.89143 -3.010434,4.16123 -1.107704,7.06515 1.088051,1.66058 2.785239,3.32889 3.771528,3.70736 3.556857,1.36489 4.146462,6.0283 1.434306,11.34456 -2.717103,5.32596 -3.13408,10.66566 -1.030781,13.19996 1.911777,2.3036 -4.521555,6.7916 -7.414567,5.1726 z M 2.3757727,505.21123 c 3.1556817,-6.59438 9.0279103,-11.50561 13.7569803,-11.50561 3.403931,0 3.443982,0.5524 0.327382,4.51452 l -2.450641,3.11548 2.514359,2.03601 c 2.025893,1.64046 3.0712,1.78228 5.38062,0.73004 1.576436,-0.71827 3.192319,-2.3333 3.590848,-3.58894 0.54223,-1.70842 1.423959,-2.10747 3.503424,-1.58556 1.924994,0.48315 3.130147,0.0697 3.922245,-1.34576 2.399831,-4.28824 -3.707325,-9.77249 -8.20311,-7.36642 -3.21679,1.72157 -7.419563,-1.70358 -6.52255,-5.31573 0.332471,-1.33884 -0.351546,-3.66897 -1.535937,-5.2322 -2.441204,-3.22205 -6.155096,-3.56133 -14.2836203,-1.30487 -2.92315226,0.81145 -6.256408,1.43896 -7.4072206,1.39445 -1.1508244,-0.0445 -1.7838079,0.4184 -1.4066445,1.02867 0.3771752,0.61027 0.2557965,1.12142 -0.2697332,1.13586 -0.5255296,0.0144 -2.2780391,1.04239 -3.8944774,2.28432 l -2.938955,2.25807 3.300611,1.25489 c 2.5799565,0.9809 4.1011177,0.84093 6.9669998,-0.64107 3.36814464,-1.74174 3.99189218,-1.74075 7.6677532,0.0122 2.2142141,1.05588 5.2370488,1.59798 6.768025,1.21373 1.521669,-0.38192 3.092648,-0.16695 3.491058,0.47772 0.40721,0.65886 -1.256553,1.50679 -3.79959,1.93643 -6.9121505,1.1678 -10.50325783,4.0461 -15.516777,12.43679 -4.1875957,7.00844 -4.4278375,7.85369 -2.7586762,9.70635 1.6377211,1.81776 2.0899535,1.84645 4.3366706,0.27513 1.3795507,-0.96485 3.83698283,-4.53085 5.4609563,-7.92445 z m 21.4580403,7.29014 c 4.204319,-2.14488 4.608801,-2.68365 3.127135,-4.16532 -1.481666,-1.48166 -2.41789,-1.38503 -7.238127,0.74719 -5.659695,2.50356 -7.455762,5.88167 -3.127135,5.88167 1.325056,0 4.582216,-1.10859 7.238127,-2.46354 z m 20.941663,-8.92441 c 2.460173,-1.72318 2.551186,-2.06121 0.816345,-3.03207 -2.554138,-1.42937 -10.146043,1.03349 -10.146043,3.29143 0,2.32648 5.870918,2.16325 9.329698,-0.25936 z M -19.340331,373.82685 c -170.557149,451.56307 -85.278579,225.78153 0,0 z"
       id="path2830"
       inkscape:connector-curvature="0"
       sodipodi:nodetypes="ccccsssscssssssssssssssssscssscsssssssssssscssssscssssssssscsssssscssssssscssssssscsssssssssssssssscssssssssscssssssssssssssssssscssssssssssssssssssssscsscsssssssscssssssscscsscscscsssssssssssssscssscssssssssssssssssssssssssssscssssssssssssssscssssssssssssssssssssscssssssssssscsssssssssssssscsssssssssccccsscsssscsssssccscsscscssssccssssssssscc" />
  </g>
</svg>
