  0
SECTION
  2
HEADER
  9
$ACADVER
  1
AC1014
  9
$HANDSEED
  5
FFFF
  9
$MEASUREMENT
 70
     1
  0
ENDSEC
  0
SECTION
  2
TABLES
  0
TABLE
  2
VPORT
  5
8
330
0
100
AcDbSymbolTable
 70
     4
  0
VPORT
  5
2E
330
8
100
AcDbSymbolTableRecord
100
AcDbViewportTableRecord
  2
*ACTIVE
 70
     0
 10
0.0
 20
0.0
 11
1.0
 21
1.0
 12
210.0
 22
148.5
 13
0.0
 23
0.0
 14
10.0
 24
10.0
 15
10.0
 25
10.0
 16
0.0
 26
0.0
 36
1.0
 17
0.0
 27
0.0
 37
0.0
 40
341.0
 41
1.24
 42
50.0
 43
0.0
 44
0.0
 50
0.0
 51
0.0
 71
     0
 72
   100
 73
     1
 74
     3
 75
     0
 76
     0
 77
     0
 78
     0
  0
ENDTAB
  0
TABLE
  2
LTYPE
  5
5
330
0
100
AcDbSymbolTable
 70
     1
  0
LTYPE
  5
14
330
5
100
AcDbSymbolTableRecord
100
AcDbLinetypeTableRecord
  2
BYBLOCK
 70
     0
  3

 72
    65
 73
     0
 40
0.0
  0
LTYPE
  5
15
330
5
100
AcDbSymbolTableRecord
100
AcDbLinetypeTableRecord
  2
BYLAYER
 70
     0
  3

 72
    65
 73
     0
 40
0.0
  0
LTYPE
  5
16
330
5
100
AcDbSymbolTableRecord
100
AcDbLinetypeTableRecord
  2
CONTINUOUS
 70
     0
  3
Solid line
 72
    65
 73
     0
 40
0.0
  0
ENDTAB
  0
TABLE
  2
LAYER
  5
2
100
AcDbSymbolTable
 70
2
  0
LAYER
  5
50
100
AcDbSymbolTableRecord
100
AcDbLayerTableRecord
  2
0
 70
0
  6
CONTINUOUS
  0
LAYER
  5
51
100
AcDbSymbolTableRecord
100
AcDbLayerTableRecord
  2
Layer_1
 70
0
  6
CONTINUOUS
  0
ENDTAB
  0
TABLE
  2
STYLE
  5
3
330
0
100
AcDbSymbolTable
 70
     1
  0
STYLE
  5
11
330
3
100
AcDbSymbolTableRecord
100
AcDbTextStyleTableRecord
  2
STANDARD
 70
     0
 40
0.0
 41
1.0
 50
0.0
 71
     0
 42
2.5
  3
txt
  4

  0
ENDTAB
  0
TABLE
  2
VIEW
  5
6
330
0
100
AcDbSymbolTable
 70
     0
  0
ENDTAB
  0
TABLE
  2
UCS
  5
7
330
0
100
AcDbSymbolTable
 70
     0
  0
ENDTAB
  0
TABLE
  2
APPID
  5
9
330
0
100
AcDbSymbolTable
 70
     2
  0
APPID
  5
12
330
9
100
AcDbSymbolTableRecord
100
AcDbRegAppTableRecord
  2
ACAD
 70
     0
  0
ENDTAB
  0
TABLE
  2
DIMSTYLE
  5
A
330
0
100
AcDbSymbolTable
 70
     1
  0
DIMSTYLE
105
27
330
A
100
AcDbSymbolTableRecord
100
AcDbDimStyleTableRecord
  2
ISO-25
 70
     0
  3

  4

  5

  6

  7

 40
1.0
 41
2.5
 42
0.625
 43
3.75
 44
1.25
 45
0.0
 46
0.0
 47
0.0
 48
0.0
140
2.5
141
2.5
142
0.0
143
0.03937007874016
144
1.0
145
0.0
146
1.0
147
0.625
 71
     0
 72
     0
 73
     0
 74
     0
 75
     0
 76
     0
 77
     1
 78
     8
170
     0
171
     3
172
     1
173
     0
174
     0
175
     0
176
     0
177
     0
178
     0
270
     2
271
     2
272
     2
273
     2
274
     3
340
11
275
     0
280
     0
281
     0
282
     0
283
     0
284
     8
285
     0
286
     0
287
     3
288
     0
  0
ENDTAB
  0
TABLE
  2
BLOCK_RECORD
  5
1
330
0
100
AcDbSymbolTable
 70
     1
  0
BLOCK_RECORD
  5
1F
330
1
100
AcDbSymbolTableRecord
100
AcDbBlockTableRecord
  2
*MODEL_SPACE
  0
BLOCK_RECORD
  5
1B
330
1
100
AcDbSymbolTableRecord
100
AcDbBlockTableRecord
  2
*PAPER_SPACE
  0
ENDTAB
  0
ENDSEC
  0
SECTION
  2
BLOCKS
  0
BLOCK
  5
20
330
1F
100
AcDbEntity
  8
0
100
AcDbBlockBegin
  2
*MODEL_SPACE
 70
     0
 10
0.0
 20
0.0
 30
0.0
  3
*MODEL_SPACE
  1

  0
ENDBLK
  5
21
330
1F
100
AcDbEntity
  8
0
100
AcDbBlockEnd
  0
BLOCK
  5
1C
330
1B
100
AcDbEntity
 67
     1
  8
0
100
AcDbBlockBegin
  2
*PAPER_SPACE
  1

  0
ENDBLK
  5
1D
330
1B
100
AcDbEntity
 67
     1
  8
0
100
AcDbBlockEnd
  0
ENDSEC
  0
SECTION
  2
ENTITIES
  0
LWPOLYLINE
  5
100
100
AcDbEntity
  8
Layer_1
 62
7
100
AcDbPolyline
 90
49
 70
0
 10
-16.188719
 20
82.309985
 30
0.0
 10
-13.941414
 20
82.309985
 30
0.0
 10
-11.694110
 20
82.309985
 30
0.0
 10
-9.446805
 20
82.309985
 30
0.0
 10
-7.199500
 20
82.309985
 30
0.0
 10
-7.199500
 20
79.765024
 30
0.0
 10
-7.199500
 20
77.220065
 30
0.0
 10
-7.199500
 20
74.675104
 30
0.0
 10
-7.199500
 20
72.130142
 30
0.0
 10
-4.743836
 20
72.130142
 30
0.0
 10
-2.288172
 20
72.130142
 30
0.0
 10
0.167492
 20
72.130142
 30
0.0
 10
2.623156
 20
72.130142
 30
0.0
 10
2.623156
 20
74.675104
 30
0.0
 10
2.623156
 20
77.220065
 30
0.0
 10
2.623156
 20
79.765024
 30
0.0
 10
2.623156
 20
82.309985
 30
0.0
 10
4.880383
 20
82.309985
 30
0.0
 10
7.137609
 20
82.309985
 30
0.0
 10
9.394836
 20
82.309985
 30
0.0
 10
11.652062
 20
82.309985
 30
0.0
 10
11.652062
 20
75.037251
 30
0.0
 10
11.652062
 20
67.764517
 30
0.0
 10
11.652062
 20
60.491783
 30
0.0
 10
11.652062
 20
53.219049
 30
0.0
 10
9.394836
 20
53.219049
 30
0.0
 10
7.137609
 20
53.219049
 30
0.0
 10
4.880383
 20
53.219049
 30
0.0
 10
2.623156
 20
53.219049
 30
0.0
 10
2.623156
 20
56.160886
 30
0.0
 10
2.623156
 20
59.102719
 30
0.0
 10
2.623156
 20
62.044556
 30
0.0
 10
2.623156
 20
64.986392
 30
0.0
 10
0.167492
 20
64.986392
 30
0.0
 10
-2.288172
 20
64.986392
 30
0.0
 10
-4.743836
 20
64.986392
 30
0.0
 10
-7.199500
 20
64.986392
 30
0.0
 10
-7.199500
 20
62.044556
 30
0.0
 10
-7.199500
 20
59.102719
 30
0.0
 10
-7.199500
 20
56.160886
 30
0.0
 10
-7.199500
 20
53.219049
 30
0.0
 10
-9.446805
 20
53.219049
 30
0.0
 10
-11.694110
 20
53.219049
 30
0.0
 10
-13.941414
 20
53.219049
 30
0.0
 10
-16.188719
 20
53.219049
 30
0.0
 10
-16.188719
 20
60.491783
 30
0.0
 10
-16.188719
 20
67.764517
 30
0.0
 10
-16.188719
 20
75.037251
 30
0.0
 10
-16.188719
 20
82.309985
 30
0.0
  0
LWPOLYLINE
  5
101
100
AcDbEntity
  8
Layer_1
 62
7
100
AcDbPolyline
 90
33
 70
0
 10
35.563782
 20
58.021235
 30
0.0
 10
33.003939
 20
58.021235
 30
0.0
 10
30.444093
 20
58.021235
 30
0.0
 10
27.884250
 20
58.021235
 30
0.0
 10
25.324406
 20
58.021235
 30
0.0
 10
24.972179
 20
56.820688
 30
0.0
 10
24.619953
 20
55.620142
 30
0.0
 10
24.267726
 20
54.419594
 30
0.0
 10
23.915500
 20
53.219049
 30
0.0
 10
21.618586
 20
53.219049
 30
0.0
 10
19.321672
 20
53.219049
 30
0.0
 10
17.024758
 20
53.219049
 30
0.0
 10
14.727843
 20
53.219049
 30
0.0
 10
17.461320
 20
60.491783
 30
0.0
 10
20.194797
 20
67.764517
 30
0.0
 10
22.928273
 20
75.037251
 30
0.0
 10
25.661750
 20
82.309985
 30
0.0
 10
28.112452
 20
82.309985
 30
0.0
 10
30.563157
 20
82.309985
 30
0.0
 10
33.013859
 20
82.309985
 30
0.0
 10
35.464561
 20
82.309985
 30
0.0
 10
38.198038
 20
75.037251
 30
0.0
 10
40.931513
 20
67.764517
 30
0.0
 10
43.664990
 20
60.491783
 30
0.0
 10
46.398468
 20
53.219049
 30
0.0
 10
44.046984
 20
53.219049
 30
0.0
 10
41.695500
 20
53.219049
 30
0.0
 10
39.344016
 20
53.219049
 30
0.0
 10
36.992532
 20
53.219049
 30
0.0
 10
36.635343
 20
54.419594
 30
0.0
 10
36.278157
 20
55.620142
 30
0.0
 10
35.920968
 20
56.820688
 30
0.0
 10
35.563782
 20
58.021235
 30
0.0
  0
LWPOLYLINE
  5
102
100
AcDbEntity
  8
Layer_1
 62
7
100
AcDbPolyline
 90
13
 70
0
 10
33.678625
 20
64.311706
 30
0.0
 10
32.874952
 20
66.926120
 30
0.0
 10
32.071282
 20
69.540533
 30
0.0
 10
31.267609
 20
72.154947
 30
0.0
 10
30.463936
 20
74.769360
 30
0.0
 10
29.665224
 20
72.154947
 30
0.0
 10
28.866516
 20
69.540533
 30
0.0
 10
28.067804
 20
66.926120
 30
0.0
 10
27.269093
 20
64.311706
 30
0.0
 10
28.871477
 20
64.311706
 30
0.0
 10
30.473859
 20
64.311706
 30
0.0
 10
32.076243
 20
64.311706
 30
0.0
 10
33.678625
 20
64.311706
 30
0.0
  0
LWPOLYLINE
  5
103
100
AcDbEntity
  8
Layer_1
 62
7
100
AcDbPolyline
 90
85
 70
0
 10
67.948782
 20
65.105456
 30
0.0
 10
69.918272
 20
64.510142
 30
0.0
 10
71.887766
 20
63.914831
 30
0.0
 10
73.857256
 20
63.319517
 30
0.0
 10
75.826750
 20
62.724206
 30
0.0
 10
75.372807
 20
61.135462
 30
0.0
 10
74.804772
 20
59.683146
 30
0.0
 10
74.122650
 20
58.367260
 30
0.0
 10
73.326436
 20
57.187799
 30
0.0
 10
72.421050
 20
56.144760
 30
0.0
 10
71.411496
 20
55.238149
 30
0.0
 10
70.297771
 20
54.467965
 30
0.0
 10
69.079875
 20
53.834206
 30
0.0
 10
67.732969
 20
53.339352
 30
0.0
 10
66.212438
 20
52.985886
 30
0.0
 10
64.518283
 20
52.773804
 30
0.0
 10
62.650500
 20
52.703110
 30
0.0
 10
60.387066
 20
52.788686
 30
0.0
 10
58.339437
 20
53.045415
 30
0.0
 10
56.507611
 20
53.473298
 30
0.0
 10
54.891593
 20
54.072331
 30
0.0
 10
53.444236
 20
54.897086
 30
0.0
 10
52.098581
 20
55.982290
 30
0.0
 10
50.854627
 20
57.327942
 30
0.0
 10
49.712375
 20
58.934049
 30
0.0
 10
48.757397
 20
60.791918
 30
0.0
 10
48.075269
 20
62.892874
 30
0.0
 10
47.665987
 20
65.236915
 30
0.0
 10
47.529561
 20
67.824049
 30
0.0
 10
47.768925
 20
71.226001
 30
0.0
 10
48.487022
 20
74.208760
 30
0.0
 10
49.683848
 20
76.772328
 30
0.0
 10
51.359407
 20
78.916706
 30
0.0
 10
53.482683
 20
80.618292
 30
0.0
 10
56.002834
 20
81.833716
 30
0.0
 10
58.919869
 20
82.562978
 30
0.0
 10
62.233782
 20
82.806081
 30
0.0
 10
64.834541
 20
82.667157
 30
0.0
 10
67.140130
 20
82.250434
 30
0.0
 10
69.150555
 20
81.555907
 30
0.0
 10
70.865811
 20
80.583581
 30
0.0
 10
72.341675
 20
79.323487
 30
0.0
 10
73.614150
 20
77.765748
 30
0.0
 10
74.683236
 20
75.910362
 30
0.0
 10
75.548936
 20
73.757331
 30
0.0
 10
73.564561
 20
73.315806
 30
0.0
 10
71.580186
 20
72.874283
 30
0.0
 10
69.595811
 20
72.432761
 30
0.0
 10
67.611436
 20
71.991235
 30
0.0
 10
67.400585
 20
72.611343
 30
0.0
 10
67.184778
 20
73.142157
 30
0.0
 10
66.964021
 20
73.583686
 30
0.0
 10
66.738311
 20
73.935924
 30
0.0
 10
66.340186
 20
74.422083
 30
0.0
 10
65.899899
 20
74.848719
 30
0.0
 10
65.417452
 20
75.215833
 30
0.0
 10
64.892843
 20
75.523424
 30
0.0
 10
64.331006
 20
75.766497
 30
0.0
 10
63.736931
 20
75.940125
 30
0.0
 10
63.110615
 20
76.044311
 30
0.0
 10
62.452061
 20
76.079049
 30
0.0
 10
61.013382
 20
75.925247
 30
0.0
 10
59.753302
 20
75.463875
 30
0.0
 10
58.671818
 20
74.694936
 30
0.0
 10
57.768936
 20
73.618424
 30
0.0
 10
57.230668
 20
72.575376
 30
0.0
 10
56.846193
 20
71.271888
 30
0.0
 10
56.615513
 20
69.707956
 30
0.0
 10
56.538625
 20
67.883581
 30
0.0
 10
56.630406
 20
65.652395
 30
0.0
 10
56.905734
 20
63.800720
 30
0.0
 10
57.364616
 20
62.328565
 30
0.0
 10
58.007061
 20
61.235924
 30
0.0
 10
58.815687
 20
60.454572
 30
0.0
 10
59.773145
 20
59.896464
 30
0.0
 10
60.879437
 20
59.561604
 30
0.0
 10
62.134561
 20
59.449985
 30
0.0
 10
63.345020
 20
59.540525
 30
0.0
 10
64.396736
 20
59.812133
 30
0.0
 10
65.289707
 20
60.264820
 30
0.0
 10
66.023936
 20
60.898581
 30
0.0
 10
66.642801
 20
61.704729
 30
0.0
 10
67.169896
 20
62.674589
 30
0.0
 10
67.605224
 20
63.808165
 30
0.0
 10
67.948782
 20
65.105456
 30
0.0
  0
LWPOLYLINE
  5
104
100
AcDbEntity
  8
Layer_1
 62
7
100
AcDbPolyline
 90
49
 70
0
 10
80.251907
 20
82.309985
 30
0.0
 10
82.499211
 20
82.309985
 30
0.0
 10
84.746516
 20
82.309985
 30
0.0
 10
86.993820
 20
82.309985
 30
0.0
 10
89.241125
 20
82.309985
 30
0.0
 10
89.241125
 20
79.561626
 30
0.0
 10
89.241125
 20
76.813267
 30
0.0
 10
89.241125
 20
74.064908
 30
0.0
 10
89.241125
 20
71.316549
 30
0.0
 10
91.597570
 20
74.064908
 30
0.0
 10
93.954016
 20
76.813267
 30
0.0
 10
96.310461
 20
79.561626
 30
0.0
 10
98.666907
 20
82.309985
 30
0.0
 10
101.653391
 20
82.309985
 30
0.0
 10
104.639875
 20
82.309985
 30
0.0
 10
107.626359
 20
82.309985
 30
0.0
 10
110.612843
 20
82.309985
 30
0.0
 10
107.963702
 20
79.566588
 30
0.0
 10
105.314561
 20
76.823190
 30
0.0
 10
102.665423
 20
74.079790
 30
0.0
 10
100.016282
 20
71.336392
 30
0.0
 10
102.784484
 20
66.807056
 30
0.0
 10
105.552686
 20
62.277719
 30
0.0
 10
108.320891
 20
57.748386
 30
0.0
 10
111.089093
 20
53.219049
 30
0.0
 10
108.320891
 20
53.219049
 30
0.0
 10
105.552686
 20
53.219049
 30
0.0
 10
102.784484
 20
53.219049
 30
0.0
 10
100.016282
 20
53.219049
 30
0.0
 10
98.483352
 20
56.210495
 30
0.0
 10
96.950423
 20
59.201940
 30
0.0
 10
95.417490
 20
62.193386
 30
0.0
 10
93.884561
 20
65.184831
 30
0.0
 10
92.723702
 20
63.969402
 30
0.0
 10
91.562843
 20
62.753969
 30
0.0
 10
90.401984
 20
61.538540
 30
0.0
 10
89.241125
 20
60.323110
 30
0.0
 10
89.241125
 20
58.547094
 30
0.0
 10
89.241125
 20
56.771081
 30
0.0
 10
89.241125
 20
54.995065
 30
0.0
 10
89.241125
 20
53.219049
 30
0.0
 10
86.993820
 20
53.219049
 30
0.0
 10
84.746516
 20
53.219049
 30
0.0
 10
82.499211
 20
53.219049
 30
0.0
 10
80.251907
 20
53.219049
 30
0.0
 10
80.251907
 20
60.491783
 30
0.0
 10
80.251907
 20
67.764517
 30
0.0
 10
80.251907
 20
75.037251
 30
0.0
 10
80.251907
 20
82.309985
 30
0.0
  0
LWPOLYLINE
  5
105
100
AcDbEntity
  8
Layer_1
 62
7
100
AcDbPolyline
 90
37
 70
0
 10
-41.469657
 20
33.541985
 30
0.0
 10
-37.734071
 20
33.541985
 30
0.0
 10
-33.998484
 20
33.541985
 30
0.0
 10
-30.262898
 20
33.541985
 30
0.0
 10
-26.527313
 20
33.541985
 30
0.0
 10
-24.240333
 20
33.396867
 30
0.0
 10
-22.260923
 20
32.961533
 30
0.0
 10
-20.589083
 20
32.236002
 30
0.0
 10
-19.224813
 20
31.220265
 30
0.0
 10
-18.156986
 20
29.936608
 30
0.0
 10
-17.394247
 20
28.407395
 30
0.0
 10
-16.936596
 20
26.632627
 30
0.0
 10
-16.784032
 20
24.612297
 30
0.0
 10
-16.950238
 20
22.529934
 30
0.0
 10
-17.448818
 20
20.688183
 30
0.0
 10
-18.279770
 20
19.087043
 30
0.0
 10
-19.443094
 20
17.726515
 30
0.0
 10
-20.937589
 20
16.641305
 30
0.0
 10
-22.781821
 20
15.866156
 30
0.0
 10
-24.975791
 20
15.401071
 30
0.0
 10
-27.519500
 20
15.246047
 30
0.0
 10
-28.749814
 20
15.246047
 30
0.0
 10
-29.980125
 20
15.246047
 30
0.0
 10
-31.210439
 20
15.246047
 30
0.0
 10
-32.440750
 20
15.246047
 30
0.0
 10
-32.440750
 20
12.547291
 30
0.0
 10
-32.440750
 20
9.848541
 30
0.0
 10
-32.440750
 20
7.149791
 30
0.0
 10
-32.440750
 20
4.451041
 30
0.0
 10
-34.697978
 20
4.451041
 30
0.0
 10
-36.955202
 20
4.451041
 30
0.0
 10
-39.212430
 20
4.451041
 30
0.0
 10
-41.469657
 20
4.451041
 30
0.0
 10
-41.469657
 20
11.723766
 30
0.0
 10
-41.469657
 20
18.996515
 30
0.0
 10
-41.469657
 20
26.269249
 30
0.0
 10
-41.469657
 20
33.541985
 30
0.0
  0
LWPOLYLINE
  5
106
100
AcDbEntity
  8
Layer_1
 62
7
100
AcDbPolyline
 90
29
 70
0
 10
-32.440750
 20
21.139640
 30
0.0
 10
-31.890087
 20
21.139640
 30
0.0
 10
-31.339423
 20
21.139640
 30
0.0
 10
-30.788757
 20
21.139640
 30
0.0
 10
-30.238093
 20
21.139640
 30
0.0
 10
-29.035076
 20
21.195443
 30
0.0
 10
-28.025528
 20
21.362872
 30
0.0
 10
-27.209451
 20
21.641927
 30
0.0
 10
-26.586844
 20
22.032610
 30
0.0
 10
-26.126728
 20
22.520011
 30
0.0
 10
-25.798069
 20
23.069433
 30
0.0
 10
-25.600868
 20
23.680870
 30
0.0
 10
-25.535125
 20
24.354328
 30
0.0
 10
-25.592187
 20
25.012880
 30
0.0
 10
-25.763342
 20
25.619353
 30
0.0
 10
-26.048593
 20
26.173742
 30
0.0
 10
-26.447938
 20
26.676047
 30
0.0
 10
-27.004813
 20
27.092753
 30
0.0
 10
-27.762599
 20
27.390405
 30
0.0
 10
-28.721296
 20
27.569003
 30
0.0
 10
-29.880907
 20
27.628547
 30
0.0
 10
-30.520869
 20
27.628547
 30
0.0
 10
-31.160830
 20
27.628547
 30
0.0
 10
-31.800789
 20
27.628547
 30
0.0
 10
-32.440750
 20
27.628547
 30
0.0
 10
-32.440750
 20
26.006319
 30
0.0
 10
-32.440750
 20
24.384094
 30
0.0
 10
-32.440750
 20
22.761867
 30
0.0
 10
-32.440750
 20
21.139640
 30
0.0
  0
LWPOLYLINE
  5
107
100
AcDbEntity
  8
Layer_1
 62
7
100
AcDbPolyline
 90
25
 70
0
 10
-12.061219
 20
33.541985
 30
0.0
 10
-9.813914
 20
33.541985
 30
0.0
 10
-7.566610
 20
33.541985
 30
0.0
 10
-5.319305
 20
33.541985
 30
0.0
 10
-3.072000
 20
33.541985
 30
0.0
 10
-3.072000
 20
28.060146
 30
0.0
 10
-3.072000
 20
22.578310
 30
0.0
 10
-3.072000
 20
17.096470
 30
0.0
 10
-3.072000
 20
11.614631
 30
0.0
 10
0.435383
 20
11.614631
 30
0.0
 10
3.942765
 20
11.614631
 30
0.0
 10
7.450148
 20
11.614631
 30
0.0
 10
10.957531
 20
11.614631
 30
0.0
 10
10.957531
 20
9.823734
 30
0.0
 10
10.957531
 20
8.032836
 30
0.0
 10
10.957531
 20
6.241938
 30
0.0
 10
10.957531
 20
4.451041
 30
0.0
 10
5.202843
 20
4.451041
 30
0.0
 10
-0.551844
 20
4.451041
 30
0.0
 10
-6.306532
 20
4.451041
 30
0.0
 10
-12.061219
 20
4.451041
 30
0.0
 10
-12.061219
 20
11.723766
 30
0.0
 10
-12.061219
 20
18.996515
 30
0.0
 10
-12.061219
 20
26.269249
 30
0.0
 10
-12.061219
 20
33.541985
 30
0.0
  0
LWPOLYLINE
  5
108
100
AcDbEntity
  8
Layer_1
 62
7
100
AcDbPolyline
 90
33
 70
0
 10
32.984093
 20
9.253221
 30
0.0
 10
30.424250
 20
9.253221
 30
0.0
 10
27.864406
 20
9.253221
 30
0.0
 10
25.304562
 20
9.253221
 30
0.0
 10
22.744718
 20
9.253221
 30
0.0
 10
22.392492
 20
8.052676
 30
0.0
 10
22.040265
 20
6.852131
 30
0.0
 10
21.688039
 20
5.651586
 30
0.0
 10
21.335812
 20
4.451041
 30
0.0
 10
19.038898
 20
4.451041
 30
0.0
 10
16.741984
 20
4.451041
 30
0.0
 10
14.445070
 20
4.451041
 30
0.0
 10
12.148156
 20
4.451041
 30
0.0
 10
14.881633
 20
11.723766
 30
0.0
 10
17.615109
 20
18.996515
 30
0.0
 10
20.348586
 20
26.269249
 30
0.0
 10
23.082062
 20
33.541985
 30
0.0
 10
25.532766
 20
33.541985
 30
0.0
 10
27.983468
 20
33.541985
 30
0.0
 10
30.434173
 20
33.541985
 30
0.0
 10
32.884875
 20
33.541985
 30
0.0
 10
35.618352
 20
26.269249
 30
0.0
 10
38.351827
 20
18.996515
 30
0.0
 10
41.085304
 20
11.723766
 30
0.0
 10
43.818782
 20
4.451041
 30
0.0
 10
41.467298
 20
4.451041
 30
0.0
 10
39.115811
 20
4.451041
 30
0.0
 10
36.764327
 20
4.451041
 30
0.0
 10
34.412843
 20
4.451041
 30
0.0
 10
34.055654
 20
5.651586
 30
0.0
 10
33.698468
 20
6.852131
 30
0.0
 10
33.341279
 20
8.052676
 30
0.0
 10
32.984093
 20
9.253221
 30
0.0
  0
LWPOLYLINE
  5
109
100
AcDbEntity
  8
Layer_1
 62
7
100
AcDbPolyline
 90
13
 70
0
 10
31.098936
 20
15.543703
 30
0.0
 10
30.295266
 20
18.158117
 30
0.0
 10
29.491593
 20
20.772533
 30
0.0
 10
28.687923
 20
23.386947
 30
0.0
 10
27.884250
 20
26.001360
 30
0.0
 10
27.085539
 20
23.386947
 30
0.0
 10
26.286828
 20
20.772533
 30
0.0
 10
25.488117
 20
18.158117
 30
0.0
 10
24.689406
 20
15.543703
 30
0.0
 10
26.291788
 20
15.543703
 30
0.0
 10
27.894171
 20
15.543703
 30
0.0
 10
29.496554
 20
15.543703
 30
0.0
 10
31.098936
 20
15.543703
 30
0.0
  0
LWPOLYLINE
  5
10a
100
AcDbEntity
  8
Layer_1
 62
7
100
AcDbPolyline
 90
41
 70
0
 10
46.735811
 20
33.541985
 30
0.0
 10
48.834288
 20
33.541985
 30
0.0
 10
50.932763
 20
33.541985
 30
0.0
 10
53.031240
 20
33.541985
 30
0.0
 10
55.129718
 20
33.541985
 30
0.0
 10
57.868154
 20
29.518665
 30
0.0
 10
60.606593
 20
25.495344
 30
0.0
 10
63.345029
 20
21.472024
 30
0.0
 10
66.083468
 20
17.448703
 30
0.0
 10
66.083468
 20
21.472024
 30
0.0
 10
66.083468
 20
25.495344
 30
0.0
 10
66.083468
 20
29.518665
 30
0.0
 10
66.083468
 20
33.541985
 30
0.0
 10
68.201788
 20
33.541985
 30
0.0
 10
70.320109
 20
33.541985
 30
0.0
 10
72.438429
 20
33.541985
 30
0.0
 10
74.556750
 20
33.541985
 30
0.0
 10
74.556750
 20
26.269249
 30
0.0
 10
74.556750
 20
18.996512
 30
0.0
 10
74.556750
 20
11.723766
 30
0.0
 10
74.556750
 20
4.451041
 30
0.0
 10
72.438429
 20
4.451041
 30
0.0
 10
70.320109
 20
4.451041
 30
0.0
 10
68.201788
 20
4.451041
 30
0.0
 10
66.083468
 20
4.451041
 30
0.0
 10
63.359913
 20
8.444598
 30
0.0
 10
60.636359
 20
12.438156
 30
0.0
 10
57.912804
 20
16.431710
 30
0.0
 10
55.189250
 20
20.425265
 30
0.0
 10
55.189250
 20
16.431710
 30
0.0
 10
55.189250
 20
12.438156
 30
0.0
 10
55.189250
 20
8.444598
 30
0.0
 10
55.189250
 20
4.451041
 30
0.0
 10
53.075891
 20
4.451041
 30
0.0
 10
50.962529
 20
4.451041
 30
0.0
 10
48.849170
 20
4.451041
 30
0.0
 10
46.735811
 20
4.451041
 30
0.0
 10
46.735811
 20
11.723766
 30
0.0
 10
46.735811
 20
18.996515
 30
0.0
 10
46.735811
 20
26.269249
 30
0.0
 10
46.735811
 20
33.541985
 30
0.0
  0
LWPOLYLINE
  5
10b
100
AcDbEntity
  8
Layer_1
 62
7
100
AcDbPolyline
 90
49
 70
0
 10
80.549561
 20
33.541985
 30
0.0
 10
86.572138
 20
33.541985
 30
0.0
 10
92.594718
 20
33.541985
 30
0.0
 10
98.617298
 20
33.541985
 30
0.0
 10
104.639875
 20
33.541985
 30
0.0
 10
104.639875
 20
31.989210
 30
0.0
 10
104.639875
 20
30.436438
 30
0.0
 10
104.639875
 20
28.883665
 30
0.0
 10
104.639875
 20
27.330890
 30
0.0
 10
100.869561
 20
27.330890
 30
0.0
 10
97.099250
 20
27.330890
 30
0.0
 10
93.328936
 20
27.330890
 30
0.0
 10
89.558625
 20
27.330890
 30
0.0
 10
89.558625
 20
26.174992
 30
0.0
 10
89.558625
 20
25.019094
 30
0.0
 10
89.558625
 20
23.863194
 30
0.0
 10
89.558625
 20
22.707297
 30
0.0
 10
93.056086
 20
22.707297
 30
0.0
 10
96.553548
 20
22.707297
 30
0.0
 10
100.051006
 20
22.707297
 30
0.0
 10
103.548468
 20
22.707297
 30
0.0
 10
103.548468
 20
21.223976
 30
0.0
 10
103.548468
 20
19.740656
 30
0.0
 10
103.548468
 20
18.257335
 30
0.0
 10
103.548468
 20
16.774015
 30
0.0
 10
100.051006
 20
16.774015
 30
0.0
 10
96.553548
 20
16.774015
 30
0.0
 10
93.056086
 20
16.774015
 30
0.0
 10
89.558625
 20
16.774015
 30
0.0
 10
89.558625
 20
15.340306
 30
0.0
 10
89.558625
 20
13.906586
 30
0.0
 10
89.558625
 20
12.472897
 30
0.0
 10
89.558625
 20
11.039180
 30
0.0
 10
93.438077
 20
11.039180
 30
0.0
 10
97.317529
 20
11.039180
 30
0.0
 10
101.196984
 20
11.039180
 30
0.0
 10
105.076436
 20
11.039180
 30
0.0
 10
105.076436
 20
9.392131
 30
0.0
 10
105.076436
 20
7.745110
 30
0.0
 10
105.076436
 20
6.098062
 30
0.0
 10
105.076436
 20
4.451041
 30
0.0
 10
98.944718
 20
4.451041
 30
0.0
 10
92.812997
 20
4.451041
 30
0.0
 10
86.681279
 20
4.451041
 30
0.0
 10
80.549561
 20
4.451041
 30
0.0
 10
80.549561
 20
11.723766
 30
0.0
 10
80.549561
 20
18.996512
 30
0.0
 10
80.549561
 20
26.269249
 30
0.0
 10
80.549561
 20
33.541985
 30
0.0
  0
LWPOLYLINE
  5
10c
100
AcDbEntity
  8
Layer_1
 62
7
100
AcDbPolyline
 90
33
 70
0
 10
107.894250
 20
33.541985
 30
0.0
 10
114.725461
 20
33.541985
 30
0.0
 10
121.556673
 20
33.541985
 30
0.0
 10
128.387881
 20
33.541985
 30
0.0
 10
135.219093
 20
33.541985
 30
0.0
 10
135.219093
 20
31.746126
 30
0.0
 10
135.219093
 20
29.950265
 30
0.0
 10
135.219093
 20
28.154406
 30
0.0
 10
135.219093
 20
26.358547
 30
0.0
 10
132.927141
 20
26.358547
 30
0.0
 10
130.635186
 20
26.358547
 30
0.0
 10
128.343234
 20
26.358547
 30
0.0
 10
126.051282
 20
26.358547
 30
0.0
 10
126.051282
 20
20.881672
 30
0.0
 10
126.051282
 20
15.404794
 30
0.0
 10
126.051282
 20
9.927930
 30
0.0
 10
126.051282
 20
4.451041
 30
0.0
 10
123.803977
 20
4.451041
 30
0.0
 10
121.556673
 20
4.451041
 30
0.0
 10
119.309365
 20
4.451041
 30
0.0
 10
117.062061
 20
4.451041
 30
0.0
 10
117.062061
 20
9.927930
 30
0.0
 10
117.062061
 20
15.404794
 30
0.0
 10
117.062061
 20
20.881672
 30
0.0
 10
117.062061
 20
26.358547
 30
0.0
 10
114.770109
 20
26.358547
 30
0.0
 10
112.478154
 20
26.358547
 30
0.0
 10
110.186202
 20
26.358547
 30
0.0
 10
107.894250
 20
26.358547
 30
0.0
 10
107.894250
 20
28.154406
 30
0.0
 10
107.894250
 20
29.950265
 30
0.0
 10
107.894250
 20
31.746126
 30
0.0
 10
107.894250
 20
33.541985
 30
0.0
  0
LWPOLYLINE
  5
10d
100
AcDbEntity
  8
Layer_1
 62
7
100
AcDbPolyline
 90
9
 70
0
 10
22.065843
 20
50.301518
 30
0.0
 10
35.728264
 20
50.301518
 30
0.0
 10
35.728264
 20
46.709800
 30
0.0
 10
31.144360
 20
46.709800
 30
0.0
 10
31.144360
 20
35.756050
 30
0.0
 10
26.649749
 20
35.756050
 30
0.0
 10
26.649749
 20
46.709800
 30
0.0
 10
22.065843
 20
46.709800
 30
0.0
 10
22.065843
 20
50.301518
 30
0.0
  0
LWPOLYLINE
  5
10e
100
AcDbEntity
  8
Layer_1
 62
7
100
AcDbPolyline
 90
13
 70
0
 10
37.792014
 20
50.301518
 30
0.0
 10
42.286626
 20
50.301518
 30
0.0
 10
42.286626
 20
45.211595
 30
0.0
 10
47.197953
 20
45.211595
 30
0.0
 10
47.197953
 20
50.301518
 30
0.0
 10
51.712405
 20
50.301518
 30
0.0
 10
51.712405
 20
35.756050
 30
0.0
 10
47.197953
 20
35.756050
 30
0.0
 10
47.197953
 20
41.639720
 30
0.0
 10
42.286626
 20
41.639720
 30
0.0
 10
42.286626
 20
35.756050
 30
0.0
 10
37.792014
 20
35.756050
 30
0.0
 10
37.792014
 20
50.301518
 30
0.0
  0
LWPOLYLINE
  5
10f
100
AcDbEntity
  8
Layer_1
 62
7
100
AcDbPolyline
 90
13
 70
0
 10
54.708812
 20
50.301518
 30
0.0
 10
66.753969
 20
50.301518
 30
0.0
 10
66.753969
 20
47.195970
 30
0.0
 10
59.213344
 20
47.195970
 30
0.0
 10
59.213344
 20
44.884175
 30
0.0
 10
66.208264
 20
44.884175
 30
0.0
 10
66.208264
 20
41.917534
 30
0.0
 10
59.213344
 20
41.917534
 30
0.0
 10
59.213344
 20
39.050111
 30
0.0
 10
66.972251
 20
39.050111
 30
0.0
 10
66.972251
 20
35.756050
 30
0.0
 10
54.708812
 20
35.756050
 30
0.0
 10
54.708812
 20
50.301518
 30
0.0
  0
ENDSEC
  0
SECTION
  2
OBJECTS
  0
DICTIONARY
  5
C
330
0
100
AcDbDictionary
  3
ACAD_GROUP
350
D
  3
ACAD_MLINESTYLE
350
17
  0
DICTIONARY
  5
D
330
C
100
AcDbDictionary
  0
DICTIONARY
  5
1A
330
C
100
AcDbDictionary
  0
DICTIONARY
  5
17
330
C
100
AcDbDictionary
  3
STANDARD
350
18
  0
DICTIONARY
  5
19
330
C
100
AcDbDictionary
  0
ENDSEC
  0
EOF
