  0
SECTION
  2
HEADER
  9
$ACADVER
  1
AC1014
  9
$HANDSEED
  5
FFFF
  9
$MEASUREMENT
 70
     1
  0
ENDSEC
  0
SECTION
  2
TABLES
  0
TABLE
  2
VPORT
  5
8
330
0
100
AcDbSymbolTable
 70
     4
  0
VPORT
  5
2E
330
8
100
AcDbSymbolTableRecord
100
AcDbViewportTableRecord
  2
*ACTIVE
 70
     0
 10
0.0
 20
0.0
 11
1.0
 21
1.0
 12
210.0
 22
148.5
 13
0.0
 23
0.0
 14
10.0
 24
10.0
 15
10.0
 25
10.0
 16
0.0
 26
0.0
 36
1.0
 17
0.0
 27
0.0
 37
0.0
 40
341.0
 41
1.24
 42
50.0
 43
0.0
 44
0.0
 50
0.0
 51
0.0
 71
     0
 72
   100
 73
     1
 74
     3
 75
     0
 76
     0
 77
     0
 78
     0
  0
ENDTAB
  0
TABLE
  2
LTYPE
  5
5
330
0
100
AcDbSymbolTable
 70
     1
  0
LTYPE
  5
14
330
5
100
AcDbSymbolTableRecord
100
AcDbLinetypeTableRecord
  2
BYBLOCK
 70
     0
  3

 72
    65
 73
     0
 40
0.0
  0
LTYPE
  5
15
330
5
100
AcDbSymbolTableRecord
100
AcDbLinetypeTableRecord
  2
BYLAYER
 70
     0
  3

 72
    65
 73
     0
 40
0.0
  0
LTYPE
  5
16
330
5
100
AcDbSymbolTableRecord
100
AcDbLinetypeTableRecord
  2
CONTINUOUS
 70
     0
  3
Solid line
 72
    65
 73
     0
 40
0.0
  0
ENDTAB
  0
TABLE
  2
LAYER
  5
2
100
AcDbSymbolTable
 70
2
  0
LAYER
  5
50
100
AcDbSymbolTableRecord
100
AcDbLayerTableRecord
  2
0
 70
0
  6
CONTINUOUS
  0
LAYER
  5
51
100
AcDbSymbolTableRecord
100
AcDbLayerTableRecord
  2
Layer_1
 70
0
  6
CONTINUOUS
  0
ENDTAB
  0
TABLE
  2
STYLE
  5
3
330
0
100
AcDbSymbolTable
 70
     1
  0
STYLE
  5
11
330
3
100
AcDbSymbolTableRecord
100
AcDbTextStyleTableRecord
  2
STANDARD
 70
     0
 40
0.0
 41
1.0
 50
0.0
 71
     0
 42
2.5
  3
txt
  4

  0
ENDTAB
  0
TABLE
  2
VIEW
  5
6
330
0
100
AcDbSymbolTable
 70
     0
  0
ENDTAB
  0
TABLE
  2
UCS
  5
7
330
0
100
AcDbSymbolTable
 70
     0
  0
ENDTAB
  0
TABLE
  2
APPID
  5
9
330
0
100
AcDbSymbolTable
 70
     2
  0
APPID
  5
12
330
9
100
AcDbSymbolTableRecord
100
AcDbRegAppTableRecord
  2
ACAD
 70
     0
  0
ENDTAB
  0
TABLE
  2
DIMSTYLE
  5
A
330
0
100
AcDbSymbolTable
 70
     1
  0
DIMSTYLE
105
27
330
A
100
AcDbSymbolTableRecord
100
AcDbDimStyleTableRecord
  2
ISO-25
 70
     0
  3

  4

  5

  6

  7

 40
1.0
 41
2.5
 42
0.625
 43
3.75
 44
1.25
 45
0.0
 46
0.0
 47
0.0
 48
0.0
140
2.5
141
2.5
142
0.0
143
0.03937007874016
144
1.0
145
0.0
146
1.0
147
0.625
 71
     0
 72
     0
 73
     0
 74
     0
 75
     0
 76
     0
 77
     1
 78
     8
170
     0
171
     3
172
     1
173
     0
174
     0
175
     0
176
     0
177
     0
178
     0
270
     2
271
     2
272
     2
273
     2
274
     3
340
11
275
     0
280
     0
281
     0
282
     0
283
     0
284
     8
285
     0
286
     0
287
     3
288
     0
  0
ENDTAB
  0
TABLE
  2
BLOCK_RECORD
  5
1
330
0
100
AcDbSymbolTable
 70
     1
  0
BLOCK_RECORD
  5
1F
330
1
100
AcDbSymbolTableRecord
100
AcDbBlockTableRecord
  2
*MODEL_SPACE
  0
BLOCK_RECORD
  5
1B
330
1
100
AcDbSymbolTableRecord
100
AcDbBlockTableRecord
  2
*PAPER_SPACE
  0
ENDTAB
  0
ENDSEC
  0
SECTION
  2
BLOCKS
  0
BLOCK
  5
20
330
1F
100
AcDbEntity
  8
0
100
AcDbBlockBegin
  2
*MODEL_SPACE
 70
     0
 10
0.0
 20
0.0
 30
0.0
  3
*MODEL_SPACE
  1

  0
ENDBLK
  5
21
330
1F
100
AcDbEntity
  8
0
100
AcDbBlockEnd
  0
BLOCK
  5
1C
330
1B
100
AcDbEntity
 67
     1
  8
0
100
AcDbBlockBegin
  2
*PAPER_SPACE
  1

  0
ENDBLK
  5
1D
330
1B
100
AcDbEntity
 67
     1
  8
0
100
AcDbBlockEnd
  0
ENDSEC
  0
SECTION
  2
ENTITIES
  0
LWPOLYLINE
  5
100
100
AcDbEntity
  8
Layer_1
 62
7
100
AcDbPolyline
 90
37
 70
0
 10
-17.682356
 20
32.534049
 30
0.0
 10
-14.952600
 20
32.534049
 30
0.0
 10
-12.222845
 20
32.534049
 30
0.0
 10
-9.493089
 20
32.534049
 30
0.0
 10
-6.763335
 20
32.534049
 30
0.0
 10
-5.092140
 20
32.406024
 30
0.0
 10
-3.645699
 20
32.021976
 30
0.0
 10
-2.424013
 20
31.381916
 30
0.0
 10
-1.427081
 20
30.485832
 30
0.0
 10
-0.646774
 20
29.353393
 30
0.0
 10
-0.089408
 20
28.004328
 30
0.0
 10
0.245018
 20
26.438627
 30
0.0
 10
0.356504
 20
24.656301
 30
0.0
 10
0.235049
 20
22.819243
 30
0.0
 10
-0.129284
 20
21.194456
 30
0.0
 10
-0.736497
 20
19.781933
 30
0.0
 10
-1.586589
 20
18.581679
 30
0.0
 10
-2.678681
 20
17.624311
 30
0.0
 10
-4.026342
 20
16.940475
 30
0.0
 10
-5.629571
 20
16.530177
 30
0.0
 10
-7.488370
 20
16.393415
 30
0.0
 10
-8.387414
 20
16.393415
 30
0.0
 10
-9.286455
 20
16.393415
 30
0.0
 10
-10.185499
 20
16.393415
 30
0.0
 10
-11.084541
 20
16.393415
 30
0.0
 10
-11.084541
 20
14.012589
 30
0.0
 10
-11.084541
 20
11.631762
 30
0.0
 10
-11.084541
 20
9.250935
 30
0.0
 10
-11.084541
 20
6.870080
 30
0.0
 10
-12.733995
 20
6.870080
 30
0.0
 10
-14.383447
 20
6.870080
 30
0.0
 10
-16.032901
 20
6.870080
 30
0.0
 10
-17.682356
 20
6.870080
 30
0.0
 10
-17.682356
 20
13.286064
 30
0.0
 10
-17.682356
 20
19.702070
 30
0.0
 10
-17.682356
 20
26.118059
 30
0.0
 10
-17.682356
 20
32.534049
 30
0.0
  0
LWPOLYLINE
  5
101
100
AcDbEntity
  8
Layer_1
 62
7
100
AcDbPolyline
 90
29
 70
0
 10
-11.084541
 20
21.592730
 30
0.0
 10
-10.682147
 20
21.592730
 30
0.0
 10
-10.279753
 20
21.592730
 30
0.0
 10
-9.877358
 20
21.592730
 30
0.0
 10
-9.474964
 20
21.592730
 30
0.0
 10
-8.595867
 20
21.641958
 30
0.0
 10
-7.858146
 20
21.789665
 30
0.0
 10
-7.261803
 20
22.035848
 30
0.0
 10
-6.806837
 20
22.380506
 30
0.0
 10
-6.470610
 20
22.810491
 30
0.0
 10
-6.230445
 20
23.295188
 30
0.0
 10
-6.086342
 20
23.834597
 30
0.0
 10
-6.038301
 20
24.428722
 30
0.0
 10
-6.079998
 20
25.009694
 30
0.0
 10
-6.205069
 20
25.544722
 30
0.0
 10
-6.413514
 20
26.033802
 30
0.0
 10
-6.705332
 20
26.476933
 30
0.0
 10
-7.112265
 20
26.844553
 30
0.0
 10
-7.666012
 20
27.107138
 30
0.0
 10
-8.366574
 20
27.264697
 30
0.0
 10
-9.213952
 20
27.317227
 30
0.0
 10
-9.681600
 20
27.317227
 30
0.0
 10
-10.149248
 20
27.317227
 30
0.0
 10
-10.616893
 20
27.317227
 30
0.0
 10
-11.084541
 20
27.317227
 30
0.0
 10
-11.084541
 20
25.886101
 30
0.0
 10
-11.084541
 20
24.454980
 30
0.0
 10
-11.084541
 20
23.023854
 30
0.0
 10
-11.084541
 20
21.592730
 30
0.0
  0
LWPOLYLINE
  5
102
100
AcDbEntity
  8
Layer_1
 62
7
100
AcDbPolyline
 90
25
 70
0
 10
3.807668
 20
32.534049
 30
0.0
 10
5.449871
 20
32.534049
 30
0.0
 10
7.092074
 20
32.534049
 30
0.0
 10
8.734278
 20
32.534049
 30
0.0
 10
10.376481
 20
32.534049
 30
0.0
 10
10.376481
 20
27.697984
 30
0.0
 10
10.376481
 20
22.861920
 30
0.0
 10
10.376481
 20
18.025856
 30
0.0
 10
10.376481
 20
13.189798
 30
0.0
 10
12.939478
 20
13.189798
 30
0.0
 10
15.502475
 20
13.189798
 30
0.0
 10
18.065472
 20
13.189798
 30
0.0
 10
20.628469
 20
13.189798
 30
0.0
 10
20.628469
 20
11.609862
 30
0.0
 10
20.628469
 20
10.029953
 30
0.0
 10
20.628469
 20
8.450017
 30
0.0
 10
20.628469
 20
6.870080
 30
0.0
 10
16.423269
 20
6.870080
 30
0.0
 10
12.218068
 20
6.870080
 30
0.0
 10
8.012868
 20
6.870080
 30
0.0
 10
3.807668
 20
6.870080
 30
0.0
 10
3.807668
 20
13.286064
 30
0.0
 10
3.807668
 20
19.702070
 30
0.0
 10
3.807668
 20
26.118059
 30
0.0
 10
3.807668
 20
32.534049
 30
0.0
  0
LWPOLYLINE
  5
103
100
AcDbEntity
  8
Layer_1
 62
7
100
AcDbPolyline
 90
33
 70
0
 10
36.724234
 20
11.106546
 30
0.0
 10
34.853646
 20
11.106546
 30
0.0
 10
32.983057
 20
11.106546
 30
0.0
 10
31.112468
 20
11.106546
 30
0.0
 10
29.241880
 20
11.106546
 30
0.0
 10
28.984490
 20
10.047451
 30
0.0
 10
28.727104
 20
8.988328
 30
0.0
 10
28.469717
 20
7.929232
 30
0.0
 10
28.212330
 20
6.870080
 30
0.0
 10
26.533875
 20
6.870080
 30
0.0
 10
24.855420
 20
6.870080
 30
0.0
 10
23.176965
 20
6.870080
 30
0.0
 10
21.498510
 20
6.870080
 30
0.0
 10
23.495980
 20
13.286064
 30
0.0
 10
25.493451
 20
19.702070
 30
0.0
 10
27.490921
 20
26.118059
 30
0.0
 10
29.488390
 20
32.534049
 30
0.0
 10
31.279225
 20
32.534049
 30
0.0
 10
33.070061
 20
32.534049
 30
0.0
 10
34.860896
 20
32.534049
 30
0.0
 10
36.651732
 20
32.534049
 30
0.0
 10
38.649202
 20
26.118059
 30
0.0
 10
40.646672
 20
19.702070
 30
0.0
 10
42.644142
 20
13.286064
 30
0.0
 10
44.641612
 20
6.870080
 30
0.0
 10
42.923282
 20
6.870080
 30
0.0
 10
41.204947
 20
6.870080
 30
0.0
 10
39.486617
 20
6.870080
 30
0.0
 10
37.768284
 20
6.870080
 30
0.0
 10
37.507271
 20
7.929232
 30
0.0
 10
37.246261
 20
8.988328
 30
0.0
 10
36.985245
 20
10.047451
 30
0.0
 10
36.724234
 20
11.106546
 30
0.0
  0
LWPOLYLINE
  5
104
100
AcDbEntity
  8
Layer_1
 62
7
100
AcDbPolyline
 90
13
 70
0
 10
35.346668
 20
16.656009
 30
0.0
 10
34.759392
 20
18.962439
 30
0.0
 10
34.172113
 20
21.268869
 30
0.0
 10
33.584837
 20
23.575296
 30
0.0
 10
32.997558
 20
25.881726
 30
0.0
 10
32.413905
 20
23.575296
 30
0.0
 10
31.830253
 20
21.268869
 30
0.0
 10
31.246600
 20
18.962439
 30
0.0
 10
30.662948
 20
16.656009
 30
0.0
 10
31.833876
 20
16.656009
 30
0.0
 10
33.004808
 20
16.656009
 30
0.0
 10
34.175740
 20
16.656009
 30
0.0
 10
35.346668
 20
16.656009
 30
0.0
  0
LWPOLYLINE
  5
105
100
AcDbEntity
  8
Layer_1
 62
7
100
AcDbPolyline
 90
41
 70
0
 10
46.773214
 20
32.534049
 30
0.0
 10
48.306660
 20
32.534049
 30
0.0
 10
49.840109
 20
32.534049
 30
0.0
 10
51.373557
 20
32.534049
 30
0.0
 10
52.907006
 20
32.534049
 30
0.0
 10
54.908100
 20
28.984686
 30
0.0
 10
56.909197
 20
25.435321
 30
0.0
 10
58.910291
 20
21.885956
 30
0.0
 10
60.911387
 20
18.336594
 30
0.0
 10
60.911387
 20
21.885956
 30
0.0
 10
60.911387
 20
25.435321
 30
0.0
 10
60.911387
 20
28.984686
 30
0.0
 10
60.911387
 20
32.534049
 30
0.0
 10
62.459334
 20
32.534049
 30
0.0
 10
64.007283
 20
32.534049
 30
0.0
 10
65.555233
 20
32.534049
 30
0.0
 10
67.103182
 20
32.534049
 30
0.0
 10
67.103182
 20
26.118059
 30
0.0
 10
67.103182
 20
19.702067
 30
0.0
 10
67.103182
 20
13.286064
 30
0.0
 10
67.103182
 20
6.870080
 30
0.0
 10
65.555233
 20
6.870080
 30
0.0
 10
64.007283
 20
6.870080
 30
0.0
 10
62.459334
 20
6.870080
 30
0.0
 10
60.911387
 20
6.870080
 30
0.0
 10
58.921167
 20
10.393202
 30
0.0
 10
56.930948
 20
13.916294
 30
0.0
 10
54.940728
 20
17.439404
 30
0.0
 10
52.950508
 20
20.962508
 30
0.0
 10
52.950508
 20
17.439404
 30
0.0
 10
52.950508
 20
13.916294
 30
0.0
 10
52.950508
 20
10.393202
 30
0.0
 10
52.950508
 20
6.870080
 30
0.0
 10
51.406185
 20
6.870080
 30
0.0
 10
49.861859
 20
6.870080
 30
0.0
 10
48.317537
 20
6.870080
 30
0.0
 10
46.773214
 20
6.870080
 30
0.0
 10
46.773214
 20
13.286064
 30
0.0
 10
46.773214
 20
19.702070
 30
0.0
 10
46.773214
 20
26.118059
 30
0.0
 10
46.773214
 20
32.534049
 30
0.0
  0
LWPOLYLINE
  5
106
100
AcDbEntity
  8
Layer_1
 62
7
100
AcDbPolyline
 90
49
 70
0
 10
71.482390
 20
32.534049
 30
0.0
 10
75.883347
 20
32.534049
 30
0.0
 10
80.284309
 20
32.534049
 30
0.0
 10
84.685268
 20
32.534049
 30
0.0
 10
89.086227
 20
32.534049
 30
0.0
 10
89.086227
 20
31.164193
 30
0.0
 10
89.086227
 20
29.794342
 30
0.0
 10
89.086227
 20
28.424489
 30
0.0
 10
89.086227
 20
27.054636
 30
0.0
 10
86.331095
 20
27.054636
 30
0.0
 10
83.575965
 20
27.054636
 30
0.0
 10
80.820833
 20
27.054636
 30
0.0
 10
78.065703
 20
27.054636
 30
0.0
 10
78.065703
 20
26.034905
 30
0.0
 10
78.065703
 20
25.015174
 30
0.0
 10
78.065703
 20
23.995443
 30
0.0
 10
78.065703
 20
22.975712
 30
0.0
 10
80.621451
 20
22.975712
 30
0.0
 10
83.177197
 20
22.975712
 30
0.0
 10
85.732942
 20
22.975712
 30
0.0
 10
88.288690
 20
22.975712
 30
0.0
 10
88.288690
 20
21.667130
 30
0.0
 10
88.288690
 20
20.358550
 30
0.0
 10
88.288690
 20
19.049967
 30
0.0
 10
88.288690
 20
17.741385
 30
0.0
 10
85.732942
 20
17.741385
 30
0.0
 10
83.177197
 20
17.741385
 30
0.0
 10
80.621451
 20
17.741385
 30
0.0
 10
78.065703
 20
17.741385
 30
0.0
 10
78.065703
 20
16.476572
 30
0.0
 10
78.065703
 20
15.211759
 30
0.0
 10
78.065703
 20
13.946944
 30
0.0
 10
78.065703
 20
12.682137
 30
0.0
 10
80.900586
 20
12.682137
 30
0.0
 10
83.735472
 20
12.682137
 30
0.0
 10
86.570357
 20
12.682137
 30
0.0
 10
89.405243
 20
12.682137
 30
0.0
 10
89.405243
 20
11.229116
 30
0.0
 10
89.405243
 20
9.776094
 30
0.0
 10
89.405243
 20
8.323073
 30
0.0
 10
89.405243
 20
6.870080
 30
0.0
 10
84.924530
 20
6.870080
 30
0.0
 10
80.443815
 20
6.870080
 30
0.0
 10
75.963103
 20
6.870080
 30
0.0
 10
71.482390
 20
6.870080
 30
0.0
 10
71.482390
 20
13.286064
 30
0.0
 10
71.482390
 20
19.702067
 30
0.0
 10
71.482390
 20
26.118059
 30
0.0
 10
71.482390
 20
32.534049
 30
0.0
  0
LWPOLYLINE
  5
107
100
AcDbEntity
  8
Layer_1
 62
7
100
AcDbPolyline
 90
33
 70
0
 10
91.464342
 20
32.534049
 30
0.0
 10
96.456204
 20
32.534049
 30
0.0
 10
101.448068
 20
32.534049
 30
0.0
 10
106.439928
 20
32.534049
 30
0.0
 10
111.431792
 20
32.534049
 30
0.0
 10
111.431792
 20
30.949746
 30
0.0
 10
111.431792
 20
29.365444
 30
0.0
 10
111.431792
 20
27.781138
 30
0.0
 10
111.431792
 20
26.196836
 30
0.0
 10
109.756962
 20
26.196836
 30
0.0
 10
108.082131
 20
26.196836
 30
0.0
 10
106.407303
 20
26.196836
 30
0.0
 10
104.732475
 20
26.196836
 30
0.0
 10
104.732475
 20
21.365152
 30
0.0
 10
104.732475
 20
16.533462
 30
0.0
 10
104.732475
 20
11.701810
 30
0.0
 10
104.732475
 20
6.870080
 30
0.0
 10
103.090272
 20
6.870080
 30
0.0
 10
101.448068
 20
6.870080
 30
0.0
 10
99.805863
 20
6.870080
 30
0.0
 10
98.163659
 20
6.870080
 30
0.0
 10
98.163659
 20
11.701810
 30
0.0
 10
98.163659
 20
16.533462
 30
0.0
 10
98.163659
 20
21.365152
 30
0.0
 10
98.163659
 20
26.196836
 30
0.0
 10
96.488831
 20
26.196836
 30
0.0
 10
94.813998
 20
26.196836
 30
0.0
 10
93.139170
 20
26.196836
 30
0.0
 10
91.464342
 20
26.196836
 30
0.0
 10
91.464342
 20
27.781138
 30
0.0
 10
91.464342
 20
29.365444
 30
0.0
 10
91.464342
 20
30.949746
 30
0.0
 10
91.464342
 20
32.534049
 30
0.0
  0
LWPOLYLINE
  5
108
100
AcDbEntity
  8
Layer_1
 62
7
100
AcDbPolyline
 90
9
 70
0
 10
22.065843
 20
50.301518
 30
0.0
 10
35.728264
 20
50.301518
 30
0.0
 10
35.728264
 20
46.709800
 30
0.0
 10
31.144360
 20
46.709800
 30
0.0
 10
31.144360
 20
35.756050
 30
0.0
 10
26.649749
 20
35.756050
 30
0.0
 10
26.649749
 20
46.709800
 30
0.0
 10
22.065843
 20
46.709800
 30
0.0
 10
22.065843
 20
50.301518
 30
0.0
  0
LWPOLYLINE
  5
109
100
AcDbEntity
  8
Layer_1
 62
7
100
AcDbPolyline
 90
13
 70
0
 10
37.792014
 20
50.301518
 30
0.0
 10
42.286626
 20
50.301518
 30
0.0
 10
42.286626
 20
45.211595
 30
0.0
 10
47.197953
 20
45.211595
 30
0.0
 10
47.197953
 20
50.301518
 30
0.0
 10
51.712405
 20
50.301518
 30
0.0
 10
51.712405
 20
35.756050
 30
0.0
 10
47.197953
 20
35.756050
 30
0.0
 10
47.197953
 20
41.639720
 30
0.0
 10
42.286626
 20
41.639720
 30
0.0
 10
42.286626
 20
35.756050
 30
0.0
 10
37.792014
 20
35.756050
 30
0.0
 10
37.792014
 20
50.301518
 30
0.0
  0
LWPOLYLINE
  5
10a
100
AcDbEntity
  8
Layer_1
 62
7
100
AcDbPolyline
 90
13
 70
0
 10
54.708812
 20
50.301518
 30
0.0
 10
66.753969
 20
50.301518
 30
0.0
 10
66.753969
 20
47.195970
 30
0.0
 10
59.213344
 20
47.195970
 30
0.0
 10
59.213344
 20
44.884175
 30
0.0
 10
66.208264
 20
44.884175
 30
0.0
 10
66.208264
 20
41.917534
 30
0.0
 10
59.213344
 20
41.917534
 30
0.0
 10
59.213344
 20
39.050111
 30
0.0
 10
66.972251
 20
39.050111
 30
0.0
 10
66.972251
 20
35.756050
 30
0.0
 10
54.708812
 20
35.756050
 30
0.0
 10
54.708812
 20
50.301518
 30
0.0
  0
LWPOLYLINE
  5
10b
100
AcDbEntity
  8
Layer_1
 62
7
100
AcDbPolyline
 90
53
 70
0
 10
-16.071861
 20
82.310002
 30
0.0
 10
-13.115142
 20
82.310002
 30
0.0
 10
-10.158424
 20
82.310002
 30
0.0
 10
-7.201705
 20
82.310002
 30
0.0
 10
-4.244986
 20
82.310002
 30
0.0
 10
-3.103971
 20
77.884845
 30
0.0
 10
-1.962955
 20
73.459691
 30
0.0
 10
-0.821939
 20
69.034534
 30
0.0
 10
0.319076
 20
64.609377
 30
0.0
 10
1.455131
 20
69.034534
 30
0.0
 10
2.591185
 20
73.459691
 30
0.0
 10
3.727240
 20
77.884845
 30
0.0
 10
4.863295
 20
82.310002
 30
0.0
 10
7.810092
 20
82.310002
 30
0.0
 10
10.756889
 20
82.310002
 30
0.0
 10
13.703686
 20
82.310002
 30
0.0
 10
16.650482
 20
82.310002
 30
0.0
 10
16.650482
 20
75.037268
 30
0.0
 10
16.650482
 20
67.764534
 30
0.0
 10
16.650482
 20
60.491800
 30
0.0
 10
16.650482
 20
53.219066
 30
0.0
 10
14.814936
 20
53.219066
 30
0.0
 10
12.979389
 20
53.219066
 30
0.0
 10
11.143842
 20
53.219066
 30
0.0
 10
9.308295
 20
53.219066
 30
0.0
 10
9.308295
 20
58.765393
 30
0.0
 10
9.308295
 20
64.311723
 30
0.0
 10
9.308295
 20
69.858050
 30
0.0
 10
9.308295
 20
75.404377
 30
0.0
 10
7.884506
 20
69.858050
 30
0.0
 10
6.460717
 20
64.311723
 30
0.0
 10
5.036928
 20
58.765393
 30
0.0
 10
3.613139
 20
53.219066
 30
0.0
 10
1.951225
 20
53.219066
 30
0.0
 10
0.289311
 20
53.219066
 30
0.0
 10
-1.372604
 20
53.219066
 30
0.0
 10
-3.034518
 20
53.219066
 30
0.0
 10
-4.453346
 20
58.765393
 30
0.0
 10
-5.872174
 20
64.311723
 30
0.0
 10
-7.291002
 20
69.858050
 30
0.0
 10
-8.709830
 20
75.404377
 30
0.0
 10
-8.709830
 20
69.858050
 30
0.0
 10
-8.709830
 20
64.311723
 30
0.0
 10
-8.709830
 20
58.765393
 30
0.0
 10
-8.709830
 20
53.219066
 30
0.0
 10
-10.550338
 20
53.219066
 30
0.0
 10
-12.390846
 20
53.219066
 30
0.0
 10
-14.231354
 20
53.219066
 30
0.0
 10
-16.071861
 20
53.219066
 30
0.0
 10
-16.071861
 20
60.491800
 30
0.0
 10
-16.071861
 20
67.764534
 30
0.0
 10
-16.071861
 20
75.037268
 30
0.0
 10
-16.071861
 20
82.310002
 30
0.0
  0
LWPOLYLINE
  5
10c
100
AcDbEntity
  8
Layer_1
 62
7
100
AcDbPolyline
 90
49
 70
0
 10
22.345639
 20
82.310002
 30
0.0
 10
28.368216
 20
82.310002
 30
0.0
 10
34.390796
 20
82.310002
 30
0.0
 10
40.413373
 20
82.310002
 30
0.0
 10
46.435950
 20
82.310002
 30
0.0
 10
46.435950
 20
80.757230
 30
0.0
 10
46.435950
 20
79.204457
 30
0.0
 10
46.435950
 20
77.651682
 30
0.0
 10
46.435950
 20
76.098909
 30
0.0
 10
42.665636
 20
76.098909
 30
0.0
 10
38.895325
 20
76.098909
 30
0.0
 10
35.125014
 20
76.098909
 30
0.0
 10
31.354700
 20
76.098909
 30
0.0
 10
31.354700
 20
74.943012
 30
0.0
 10
31.354700
 20
73.787114
 30
0.0
 10
31.354700
 20
72.631214
 30
0.0
 10
31.354700
 20
71.475316
 30
0.0
 10
34.852161
 20
71.475316
 30
0.0
 10
38.349623
 20
71.475316
 30
0.0
 10
41.847084
 20
71.475316
 30
0.0
 10
45.344546
 20
71.475316
 30
0.0
 10
45.344546
 20
69.991996
 30
0.0
 10
45.344546
 20
68.508675
 30
0.0
 10
45.344546
 20
67.025355
 30
0.0
 10
45.344546
 20
65.542034
 30
0.0
 10
41.847084
 20
65.542034
 30
0.0
 10
38.349623
 20
65.542034
 30
0.0
 10
34.852161
 20
65.542034
 30
0.0
 10
31.354700
 20
65.542034
 30
0.0
 10
31.354700
 20
64.108323
 30
0.0
 10
31.354700
 20
62.674614
 30
0.0
 10
31.354700
 20
61.240903
 30
0.0
 10
31.354700
 20
59.807191
 30
0.0
 10
35.234155
 20
59.807191
 30
0.0
 10
39.113607
 20
59.807191
 30
0.0
 10
42.993059
 20
59.807191
 30
0.0
 10
46.872514
 20
59.807191
 30
0.0
 10
46.872514
 20
58.160159
 30
0.0
 10
46.872514
 20
56.513130
 30
0.0
 10
46.872514
 20
54.866098
 30
0.0
 10
46.872514
 20
53.219066
 30
0.0
 10
40.740796
 20
53.219066
 30
0.0
 10
34.609075
 20
53.219066
 30
0.0
 10
28.477357
 20
53.219066
 30
0.0
 10
22.345639
 20
53.219066
 30
0.0
 10
22.345639
 20
60.491800
 30
0.0
 10
22.345639
 20
67.764534
 30
0.0
 10
22.345639
 20
75.037268
 30
0.0
 10
22.345639
 20
82.310002
 30
0.0
  0
LWPOLYLINE
  5
10d
100
AcDbEntity
  8
Layer_1
 62
7
100
AcDbPolyline
 90
117
 70
0
 10
50.166575
 20
62.843284
 30
0.0
 10
52.304738
 20
62.977230
 30
0.0
 10
54.442902
 20
63.111175
 30
0.0
 10
56.581068
 20
63.245121
 30
0.0
 10
58.719232
 20
63.379066
 30
0.0
 10
58.894099
 20
62.399275
 30
0.0
 10
59.140903
 20
61.543513
 30
0.0
 10
59.459645
 20
60.811775
 30
0.0
 10
59.850325
 20
60.204066
 30
0.0
 10
60.619265
 20
59.431395
 30
0.0
 10
61.537034
 20
58.879490
 30
0.0
 10
62.603640
 20
58.548350
 30
0.0
 10
63.819075
 20
58.437973
 30
0.0
 10
64.725677
 20
58.493786
 30
0.0
 10
65.520666
 20
58.661214
 30
0.0
 10
66.204039
 20
58.940267
 30
0.0
 10
66.775796
 20
59.330941
 30
0.0
 10
67.235911
 20
59.804708
 30
0.0
 10
67.564570
 20
60.313202
 30
0.0
 10
67.761770
 20
60.856426
 30
0.0
 10
67.827514
 20
61.434377
 30
0.0
 10
67.765490
 20
61.985038
 30
0.0
 10
67.579452
 20
62.505933
 30
0.0
 10
67.269397
 20
62.997070
 30
0.0
 10
66.835325
 20
63.458441
 30
0.0
 10
66.175512
 20
63.898719
 30
0.0
 10
65.188282
 20
64.326596
 30
0.0
 10
63.873637
 20
64.742078
 30
0.0
 10
62.231575
 20
65.145159
 30
0.0
 10
59.486933
 20
65.864487
 30
0.0
 10
57.166454
 20
66.692962
 30
0.0
 10
55.270135
 20
67.630583
 30
0.0
 10
53.797982
 20
68.677348
 30
0.0
 10
52.686729
 20
69.854319
 30
0.0
 10
51.892979
 20
71.182607
 30
0.0
 10
51.416729
 20
72.662210
 30
0.0
 10
51.257982
 20
74.293127
 30
0.0
 10
51.338599
 20
75.398163
 30
0.0
 10
51.580443
 20
76.470963
 30
0.0
 10
51.983519
 20
77.511525
 30
0.0
 10
52.547825
 20
78.519848
 30
0.0
 10
53.283282
 20
79.467373
 30
0.0
 10
54.179970
 20
80.305765
 30
0.0
 10
55.237891
 20
81.035027
 30
0.0
 10
56.457046
 20
81.655159
 30
0.0
 10
57.887029
 20
82.158678
 30
0.0
 10
59.557624
 20
82.518342
 30
0.0
 10
61.468824
 20
82.734149
 30
0.0
 10
63.620639
 20
82.806098
 30
0.0
 10
66.242483
 20
82.675856
 30
0.0
 10
68.531952
 20
82.285178
 30
0.0
 10
70.489044
 20
81.634060
 30
0.0
 10
72.113764
 20
80.722502
 30
0.0
 10
73.433359
 20
79.536825
 30
0.0
 10
74.455308
 20
78.043578
 30
0.0
 10
75.179609
 20
76.242764
 30
0.0
 10
75.606264
 20
74.134377
 30
0.0
 10
73.487943
 20
74.010355
 30
0.0
 10
71.369623
 20
73.886329
 30
0.0
 10
69.251302
 20
73.762307
 30
0.0
 10
67.132982
 20
73.638284
 30
0.0
 10
66.917172
 20
74.553565
 30
0.0
 10
66.607109
 20
75.334908
 30
0.0
 10
66.202797
 20
75.982315
 30
0.0
 10
65.704232
 20
76.495784
 30
0.0
 10
65.116352
 20
76.886445
 30
0.0
 10
64.424298
 20
77.165492
 30
0.0
 10
63.628072
 20
77.332929
 30
0.0
 10
62.727671
 20
77.388752
 30
0.0
 10
61.992205
 20
77.346571
 30
0.0
 10
61.353483
 20
77.220063
 30
0.0
 10
60.811500
 20
77.009228
 30
0.0
 10
60.366264
 20
76.714066
 30
0.0
 10
60.018992
 20
76.368028
 30
0.0
 10
59.770944
 20
75.984790
 30
0.0
 10
59.622117
 20
75.564358
 30
0.0
 10
59.572514
 20
75.106723
 30
0.0
 10
59.613436
 20
74.768127
 30
0.0
 10
59.736217
 20
74.446902
 30
0.0
 10
59.940856
 20
74.143050
 30
0.0
 10
60.227357
 20
73.856566
 30
0.0
 10
60.653992
 20
73.573782
 30
0.0
 10
61.298912
 20
73.300924
 30
0.0
 10
62.162117
 20
73.038000
 30
0.0
 10
63.243607
 20
72.785002
 30
0.0
 10
65.980793
 20
72.147513
 30
0.0
 10
68.298788
 20
71.505068
 30
0.0
 10
70.197591
 20
70.857670
 30
0.0
 10
71.677200
 20
70.205316
 30
0.0
 10
72.869052
 20
69.520699
 30
0.0
 10
73.884798
 20
68.756712
 30
0.0
 10
74.724443
 20
67.913356
 30
0.0
 10
75.387982
 20
66.990627
 30
0.0
 10
75.900184
 20
65.999675
 30
0.0
 10
76.266048
 20
64.951673
 30
0.0
 10
76.485575
 20
63.846627
 30
0.0
 10
76.558764
 20
62.684534
 30
0.0
 10
76.462009
 20
61.312833
 30
0.0
 10
76.171789
 20
59.995702
 30
0.0
 10
75.688103
 20
58.733144
 30
0.0
 10
75.010950
 20
57.525159
 30
0.0
 10
74.160137
 20
56.415148
 30
0.0
 10
73.155542
 20
55.446525
 30
0.0
 10
71.997169
 20
54.619289
 30
0.0
 10
70.685014
 20
53.933441
 30
0.0
 10
69.205404
 20
53.403860
 30
0.0
 10
67.544727
 20
53.025589
 30
0.0
 10
65.702982
 20
52.798629
 30
0.0
 10
63.680171
 20
52.722973
 30
0.0
 10
60.254636
 20
52.901566
 30
0.0
 10
57.399617
 20
53.437348
 30
0.0
 10
55.115107
 20
54.330316
 30
0.0
 10
53.401107
 20
55.580473
 30
0.0
 10
52.127387
 20
57.105961
 30
0.0
 10
51.163725
 20
58.824925
 30
0.0
 10
50.510121
 20
60.737365
 30
0.0
 10
50.166575
 20
62.843284
 30
0.0
  0
LWPOLYLINE
  5
10e
100
AcDbEntity
  8
Layer_1
 62
7
100
AcDbPolyline
 90
49
 70
0
 10
81.142671
 20
82.310002
 30
0.0
 10
83.389975
 20
82.310002
 30
0.0
 10
85.637280
 20
82.310002
 30
0.0
 10
87.884584
 20
82.310002
 30
0.0
 10
90.131889
 20
82.310002
 30
0.0
 10
90.131889
 20
79.765041
 30
0.0
 10
90.131889
 20
77.220082
 30
0.0
 10
90.131889
 20
74.675121
 30
0.0
 10
90.131889
 20
72.130159
 30
0.0
 10
92.587552
 20
72.130159
 30
0.0
 10
95.043216
 20
72.130159
 30
0.0
 10
97.498882
 20
72.130159
 30
0.0
 10
99.954546
 20
72.130159
 30
0.0
 10
99.954546
 20
74.675121
 30
0.0
 10
99.954546
 20
77.220082
 30
0.0
 10
99.954546
 20
79.765041
 30
0.0
 10
99.954546
 20
82.310002
 30
0.0
 10
102.211770
 20
82.310002
 30
0.0
 10
104.468998
 20
82.310002
 30
0.0
 10
106.726225
 20
82.310002
 30
0.0
 10
108.983450
 20
82.310002
 30
0.0
 10
108.983450
 20
75.037268
 30
0.0
 10
108.983450
 20
67.764534
 30
0.0
 10
108.983450
 20
60.491800
 30
0.0
 10
108.983450
 20
53.219066
 30
0.0
 10
106.726225
 20
53.219066
 30
0.0
 10
104.468998
 20
53.219066
 30
0.0
 10
102.211770
 20
53.219066
 30
0.0
 10
99.954546
 20
53.219066
 30
0.0
 10
99.954546
 20
56.160903
 30
0.0
 10
99.954546
 20
59.102739
 30
0.0
 10
99.954546
 20
62.044573
 30
0.0
 10
99.954546
 20
64.986409
 30
0.0
 10
97.498882
 20
64.986409
 30
0.0
 10
95.043216
 20
64.986409
 30
0.0
 10
92.587552
 20
64.986409
 30
0.0
 10
90.131889
 20
64.986409
 30
0.0
 10
90.131889
 20
62.044573
 30
0.0
 10
90.131889
 20
59.102739
 30
0.0
 10
90.131889
 20
56.160903
 30
0.0
 10
90.131889
 20
53.219066
 30
0.0
 10
87.884584
 20
53.219066
 30
0.0
 10
85.637280
 20
53.219066
 30
0.0
 10
83.389975
 20
53.219066
 30
0.0
 10
81.142671
 20
53.219066
 30
0.0
 10
81.142671
 20
60.491800
 30
0.0
 10
81.142671
 20
67.764534
 30
0.0
 10
81.142671
 20
75.037268
 30
0.0
 10
81.142671
 20
82.310002
 30
0.0
  0
ENDSEC
  0
SECTION
  2
OBJECTS
  0
DICTIONARY
  5
C
330
0
100
AcDbDictionary
  3
ACAD_GROUP
350
D
  3
ACAD_MLINESTYLE
350
17
  0
DICTIONARY
  5
D
330
C
100
AcDbDictionary
  0
DICTIONARY
  5
1A
330
C
100
AcDbDictionary
  0
DICTIONARY
  5
17
330
C
100
AcDbDictionary
  3
STANDARD
350
18
  0
DICTIONARY
  5
19
330
C
100
AcDbDictionary
  0
ENDSEC
  0
EOF
