  0
SECTION
  2
HEADER
  9
$ACADVER
  1
AC1014
  9
$HANDSEED
  5
FFFF
  9
$MEASUREMENT
 70
     1
  0
ENDSEC
  0
SECTION
  2
TABLES
  0
TABLE
  2
VPORT
  5
8
330
0
100
AcDbSymbolTable
 70
     4
  0
VPORT
  5
2E
330
8
100
AcDbSymbolTableRecord
100
AcDbViewportTableRecord
  2
*ACTIVE
 70
     0
 10
0.0
 20
0.0
 11
1.0
 21
1.0
 12
210.0
 22
148.5
 13
0.0
 23
0.0
 14
10.0
 24
10.0
 15
10.0
 25
10.0
 16
0.0
 26
0.0
 36
1.0
 17
0.0
 27
0.0
 37
0.0
 40
341.0
 41
1.24
 42
50.0
 43
0.0
 44
0.0
 50
0.0
 51
0.0
 71
     0
 72
   100
 73
     1
 74
     3
 75
     0
 76
     0
 77
     0
 78
     0
  0
ENDTAB
  0
TABLE
  2
LTYPE
  5
5
330
0
100
AcDbSymbolTable
 70
     1
  0
LTYPE
  5
14
330
5
100
AcDbSymbolTableRecord
100
AcDbLinetypeTableRecord
  2
BYBLOCK
 70
     0
  3

 72
    65
 73
     0
 40
0.0
  0
LTYPE
  5
15
330
5
100
AcDbSymbolTableRecord
100
AcDbLinetypeTableRecord
  2
BYLAYER
 70
     0
  3

 72
    65
 73
     0
 40
0.0
  0
LTYPE
  5
16
330
5
100
AcDbSymbolTableRecord
100
AcDbLinetypeTableRecord
  2
CONTINUOUS
 70
     0
  3
Solid line
 72
    65
 73
     0
 40
0.0
  0
ENDTAB
  0
TABLE
  2
LAYER
  5
2
100
AcDbSymbolTable
 70
2
  0
LAYER
  5
50
100
AcDbSymbolTableRecord
100
AcDbLayerTableRecord
  2
0
 70
0
  6
CONTINUOUS
  0
LAYER
  5
51
100
AcDbSymbolTableRecord
100
AcDbLayerTableRecord
  2
Ebene_1
 70
0
  6
CONTINUOUS
  0
ENDTAB
  0
TABLE
  2
STYLE
  5
3
330
0
100
AcDbSymbolTable
 70
     1
  0
STYLE
  5
11
330
3
100
AcDbSymbolTableRecord
100
AcDbTextStyleTableRecord
  2
STANDARD
 70
     0
 40
0.0
 41
1.0
 50
0.0
 71
     0
 42
2.5
  3
txt
  4

  0
ENDTAB
  0
TABLE
  2
VIEW
  5
6
330
0
100
AcDbSymbolTable
 70
     0
  0
ENDTAB
  0
TABLE
  2
UCS
  5
7
330
0
100
AcDbSymbolTable
 70
     0
  0
ENDTAB
  0
TABLE
  2
APPID
  5
9
330
0
100
AcDbSymbolTable
 70
     2
  0
APPID
  5
12
330
9
100
AcDbSymbolTableRecord
100
AcDbRegAppTableRecord
  2
ACAD
 70
     0
  0
ENDTAB
  0
TABLE
  2
DIMSTYLE
  5
A
330
0
100
AcDbSymbolTable
 70
     1
  0
DIMSTYLE
105
27
330
A
100
AcDbSymbolTableRecord
100
AcDbDimStyleTableRecord
  2
ISO-25
 70
     0
  3

  4

  5

  6

  7

 40
1.0
 41
2.5
 42
0.625
 43
3.75
 44
1.25
 45
0.0
 46
0.0
 47
0.0
 48
0.0
140
2.5
141
2.5
142
0.0
143
0.03937007874016
144
1.0
145
0.0
146
1.0
147
0.625
 71
     0
 72
     0
 73
     0
 74
     0
 75
     0
 76
     0
 77
     1
 78
     8
170
     0
171
     3
172
     1
173
     0
174
     0
175
     0
176
     0
177
     0
178
     0
270
     2
271
     2
272
     2
273
     2
274
     3
340
11
275
     0
280
     0
281
     0
282
     0
283
     0
284
     8
285
     0
286
     0
287
     3
288
     0
  0
ENDTAB
  0
TABLE
  2
BLOCK_RECORD
  5
1
330
0
100
AcDbSymbolTable
 70
     1
  0
BLOCK_RECORD
  5
1F
330
1
100
AcDbSymbolTableRecord
100
AcDbBlockTableRecord
  2
*MODEL_SPACE
  0
BLOCK_RECORD
  5
1B
330
1
100
AcDbSymbolTableRecord
100
AcDbBlockTableRecord
  2
*PAPER_SPACE
  0
ENDTAB
  0
ENDSEC
  0
SECTION
  2
BLOCKS
  0
BLOCK
  5
20
330
1F
100
AcDbEntity
  8
0
100
AcDbBlockBegin
  2
*MODEL_SPACE
 70
     0
 10
0.0
 20
0.0
 30
0.0
  3
*MODEL_SPACE
  1

  0
ENDBLK
  5
21
330
1F
100
AcDbEntity
  8
0
100
AcDbBlockEnd
  0
BLOCK
  5
1C
330
1B
100
AcDbEntity
 67
     1
  8
0
100
AcDbBlockBegin
  2
*PAPER_SPACE
  1

  0
ENDBLK
  5
1D
330
1B
100
AcDbEntity
 67
     1
  8
0
100
AcDbBlockEnd
  0
ENDSEC
  0
SECTION
  2
ENTITIES
  0
LWPOLYLINE
  5
100
100
AcDbEntity
  8
Ebene_1
 62
7
100
AcDbPolyline
 90
10
 70
0
 10
106.739941
 20
6.463411
 30
0.0
 10
104.975318
 20
8.775375
 30
0.0
 10
105.770651
 20
9.666407
 30
0.0
 10
108.213316
 20
8.382748
 30
0.0
 10
111.181583
 20
6.742416
 30
0.0
 10
112.163747
 20
6.385800
 30
0.0
 10
110.955447
 20
6.359553
 30
0.0
 10
108.788835
 20
6.194284
 30
0.0
 10
106.739941
 20
6.463467
 30
0.0
 10
106.739941
 20
6.463411
 30
0.0
  0
LWPOLYLINE
  5
101
100
AcDbEntity
  8
Ebene_1
 62
7
100
AcDbPolyline
 90
305
 70
0
 10
102.896889
 20
9.715994
 30
0.0
 10
101.715716
 20
9.849485
 30
0.0
 10
100.669100
 20
10.490271
 30
0.0
 10
99.694036
 20
11.504267
 30
0.0
 10
96.843220
 20
16.123034
 30
0.0
 10
95.290070
 20
18.289645
 30
0.0
 10
94.957836
 20
19.486897
 30
0.0
 10
95.298204
 20
22.711929
 30
0.0
 10
94.811729
 20
24.236370
 30
0.0
 10
93.619597
 20
26.211465
 30
0.0
 10
92.154989
 20
29.145024
 30
0.0
 10
91.707084
 20
31.114280
 30
0.0
 10
91.529852
 20
34.872049
 30
0.0
 10
91.164728
 20
40.998936
 30
0.0
 10
90.365305
 20
55.415228
 30
0.0
 10
90.035294
 20
58.910996
 30
0.0
 10
84.072406
 20
64.769340
 30
0.0
 10
80.781795
 20
67.922024
 30
0.0
 10
78.621574
 20
71.410054
 30
0.0
 10
76.979910
 20
74.243314
 30
0.0
 10
74.168367
 20
79.192882
 30
0.0
 10
73.018893
 20
80.909981
 30
0.0
 10
73.711105
 20
83.565204
 30
0.0
 10
74.040880
 20
85.223342
 30
0.0
 10
76.021915
 20
91.519367
 30
0.0
 10
77.997204
 20
98.001263
 30
0.0
 10
77.588778
 20
99.914069
 30
0.0
 10
77.264039
 20
100.330725
 30
0.0
 10
77.332098
 20
100.998824
 30
0.0
 10
76.830407
 20
102.058422
 30
0.0
 10
74.160487
 20
101.261912
 30
0.0
 10
72.335581
 20
100.956217
 30
0.0
 10
70.611633
 20
101.664025
 30
0.0
 10
68.871941
 20
102.847391
 30
0.0
 10
67.081588
 20
104.360495
 30
0.0
 10
66.664932
 20
105.458740
 30
0.0
 10
66.010832
 20
106.819200
 30
0.0
 10
64.974879
 20
108.568171
 30
0.0
 10
64.229015
 20
109.361179
 30
0.0
 10
60.893449
 20
109.789053
 30
0.0
 10
58.357731
 20
111.627370
 30
0.0
 10
56.617770
 20
113.188248
 30
0.0
 10
54.173760
 20
113.149256
 30
0.0
 10
52.724591
 20
112.595815
 30
0.0
 10
48.278390
 20
114.750319
 30
0.0
 10
42.763403
 20
118.035087
 30
0.0
 10
42.050250
 20
120.566440
 30
0.0
 10
41.632386
 20
123.565471
 30
0.0
 10
39.566796
 20
126.565251
 30
0.0
 10
38.454087
 20
128.257328
 30
0.0
 10
37.341660
 20
130.648148
 30
0.0
 10
35.823381
 20
134.395424
 30
0.0
 10
34.761495
 20
136.422759
 30
0.0
 10
33.447750
 20
136.149938
 30
0.0
 10
34.303098
 20
131.810523
 30
0.0
 10
35.483388
 20
128.151774
 30
0.0
 10
36.370909
 20
125.254568
 30
0.0
 10
35.348861
 20
125.309311
 30
0.0
 10
34.515905
 20
127.444971
 30
0.0
 10
33.710364
 20
129.016402
 30
0.0
 10
32.675601
 20
131.348201
 30
0.0
 10
32.151041
 20
133.692381
 30
0.0
 10
31.499996
 20
136.667940
 30
0.0
 10
29.689764
 20
140.319800
 30
0.0
 10
28.476933
 20
141.950042
 30
0.0
 10
27.996388
 20
144.243631
 30
0.0
 10
28.023171
 20
145.510981
 30
0.0
 10
27.781634
 20
146.527229
 30
0.0
 10
27.622912
 20
148.201448
 30
0.0
 10
27.800444
 20
149.381518
 30
0.0
 10
28.431854
 20
150.606506
 30
0.0
 10
29.796607
 20
152.774873
 30
0.0
 10
31.777912
 20
155.672290
 30
0.0
 10
34.032811
 20
159.137672
 30
0.0
 10
35.545384
 20
160.990128
 30
0.0
 10
36.212035
 20
160.579161
 30
0.0
 10
37.709150
 20
161.162478
 30
0.0
 10
38.308568
 20
162.606886
 30
0.0
 10
37.999024
 20
163.219934
 30
0.0
 10
36.465589
 20
165.212203
 30
0.0
 10
35.442054
 20
167.265960
 30
0.0
 10
35.611903
 20
168.437015
 30
0.0
 10
36.622832
 20
171.000660
 30
0.0
 10
36.832385
 20
171.250652
 30
0.0
 10
36.268087
 20
173.328830
 30
0.0
 10
34.758424
 20
176.214495
 30
0.0
 10
32.488883
 20
177.525830
 30
0.0
 10
30.856614
 20
178.328698
 30
0.0
 10
27.636270
 20
179.002930
 30
0.0
 10
24.080823
 20
179.206364
 30
0.0
 10
19.904589
 20
178.379490
 30
0.0
 10
16.702244
 20
177.409642
 30
0.0
 10
12.999672
 20
175.831554
 30
0.0
 10
10.270851
 20
174.792801
 30
0.0
 10
3.376905
 20
172.348344
 30
0.0
 10
4.833219
 20
173.293114
 30
0.0
 10
10.814911
 20
176.299382
 30
0.0
 10
9.568493
 20
176.632740
 30
0.0
 10
7.814019
 20
176.754096
 30
0.0
 10
6.874081
 20
177.246579
 30
0.0
 10
7.896535
 20
177.775311
 30
0.0
 10
9.150381
 20
180.107294
 30
0.0
 10
13.366123
 20
182.345677
 30
0.0
 10
17.095501
 20
183.577190
 30
0.0
 10
16.725158
 20
184.686270
 30
0.0
 10
14.298422
 20
184.671171
 30
0.0
 10
13.497774
 20
185.535020
 30
0.0
 10
18.006856
 20
186.493918
 30
0.0
 10
20.336281
 20
186.830270
 30
0.0
 10
21.400175
 20
187.380431
 30
0.0
 10
20.699834
 20
188.125913
 30
0.0
 10
19.999492
 20
189.067296
 30
0.0
 10
23.009468
 20
189.995062
 30
0.0
 10
26.060355
 20
190.800685
 30
0.0
 10
32.095750
 20
192.144955
 30
0.0
 10
38.911533
 20
192.199314
 30
0.0
 10
43.832204
 20
191.493352
 30
0.0
 10
48.158725
 20
190.633370
 30
0.0
 10
56.386504
 20
190.675658
 30
0.0
 10
59.679365
 20
191.157180
 30
0.0
 10
60.982824
 20
191.320014
 30
0.0
 10
62.623858
 20
191.182998
 30
0.0
 10
65.210134
 20
190.873761
 30
0.0
 10
68.904368
 20
190.362592
 30
0.0
 10
71.718005
 20
189.661738
 30
0.0
 10
71.811853
 20
189.185558
 30
0.0
 10
71.772357
 20
188.473955
 30
0.0
 10
74.350010
 20
188.444451
 30
0.0
 10
76.869494
 20
187.588020
 30
0.0
 10
77.418857
 20
186.525670
 30
0.0
 10
78.131965
 20
187.419993
 30
0.0
 10
80.421475
 20
188.788743
 30
0.0
 10
83.581170
 20
188.778301
 30
0.0
 10
86.583728
 20
188.498418
 30
0.0
 10
88.929004
 20
188.044029
 30
0.0
 10
90.676322
 20
188.021169
 30
0.0
 10
92.741928
 20
189.004372
 30
0.0
 10
93.952073
 20
191.122709
 30
0.0
 10
95.115679
 20
192.544254
 30
0.0
 10
97.359831
 20
193.099292
 30
0.0
 10
97.349965
 20
192.030790
 30
0.0
 10
98.189686
 20
190.125406
 30
0.0
 10
99.151564
 20
190.120411
 30
0.0
 10
99.102016
 20
189.113784
 30
0.0
 10
102.638777
 20
189.795963
 30
0.0
 10
105.803328
 20
190.459388
 30
0.0
 10
105.247273
 20
188.595017
 30
0.0
 10
100.836081
 20
186.661817
 30
0.0
 10
97.934706
 20
186.129377
 30
0.0
 10
96.092994
 20
185.966949
 30
0.0
 10
95.342537
 20
185.149431
 30
0.0
 10
96.070991
 20
184.374025
 30
0.0
 10
94.617622
 20
183.961543
 30
0.0
 10
91.664293
 20
183.500322
 30
0.0
 10
90.162042
 20
182.858647
 30
0.0
 10
88.328756
 20
181.517262
 30
0.0
 10
82.088232
 20
176.095319
 30
0.0
 10
82.910204
 20
174.921319
 30
0.0
 10
84.236483
 20
173.828092
 30
0.0
 10
87.164410
 20
172.657451
 30
0.0
 10
90.164332
 20
171.454648
 30
0.0
 10
90.986554
 20
169.300802
 30
0.0
 10
90.838597
 20
166.647605
 30
0.0
 10
91.756184
 20
165.674175
 30
0.0
 10
94.508819
 20
168.383438
 30
0.0
 10
97.132487
 20
171.201501
 30
0.0
 10
100.485283
 20
175.442781
 30
0.0
 10
101.242250
 20
177.265736
 30
0.0
 10
102.811006
 20
179.285067
 30
0.0
 10
106.728130
 20
181.158947
 30
0.0
 10
110.845298
 20
178.948599
 30
0.0
 10
110.653706
 20
177.643192
 30
0.0
 10
111.012145
 20
176.146099
 30
0.0
 10
111.750932
 20
175.359692
 30
0.0
 10
112.957319
 20
175.985051
 30
0.0
 10
115.320580
 20
177.476051
 30
0.0
 10
116.477457
 20
178.341700
 30
0.0
 10
116.749246
 20
177.606980
 30
0.0
 10
116.843533
 20
176.409697
 30
0.0
 10
117.012254
 20
175.300214
 30
0.0
 10
117.055948
 20
174.112716
 30
0.0
 10
117.522422
 20
172.218291
 30
0.0
 10
117.616103
 20
170.391444
 30
0.0
 10
118.272566
 20
169.631380
 30
0.0
 10
121.032222
 20
169.463596
 30
0.0
 10
118.520822
 20
166.193958
 30
0.0
 10
110.497135
 20
164.516229
 30
0.0
 10
104.580623
 20
163.091543
 30
0.0
 10
101.664033
 20
161.400163
 30
0.0
 10
104.108742
 20
161.689649
 30
0.0
 10
107.425609
 20
162.662176
 30
0.0
 10
108.293312
 20
161.926259
 30
0.0
 10
107.254573
 20
160.667996
 30
0.0
 10
107.013426
 20
159.260091
 30
0.0
 10
110.538367
 20
157.834578
 30
0.0
 10
111.830434
 20
158.052592
 30
0.0
 10
110.836978
 20
157.367207
 30
0.0
 10
108.837030
 20
156.464477
 30
0.0
 10
106.308835
 20
155.480487
 30
0.0
 10
104.376442
 20
154.967661
 30
0.0
 10
106.119586
 20
156.498894
 30
0.0
 10
105.757509
 20
157.504189
 30
0.0
 10
101.146802
 20
155.767478
 30
0.0
 10
97.498768
 20
153.335242
 30
0.0
 10
94.024158
 20
151.142102
 30
0.0
 10
91.690885
 20
149.818093
 30
0.0
 10
89.678488
 20
148.215508
 30
0.0
 10
88.329843
 20
146.659109
 30
0.0
 10
87.888118
 20
146.468600
 30
0.0
 10
86.806406
 20
144.642199
 30
0.0
 10
83.700203
 20
140.462172
 30
0.0
 10
77.840479
 20
135.890099
 30
0.0
 10
77.606252
 20
131.845044
 30
0.0
 10
77.487458
 20
127.976297
 30
0.0
 10
76.512517
 20
127.203922
 30
0.0
 10
75.167672
 20
131.728399
 30
0.0
 10
74.548701
 20
133.615630
 30
0.0
 10
73.072457
 20
134.186778
 30
0.0
 10
70.827802
 20
134.664755
 30
0.0
 10
68.092946
 20
134.972744
 30
0.0
 10
66.583065
 20
133.783265
 30
0.0
 10
65.188708
 20
133.189960
 30
0.0
 10
63.264918
 20
133.870000
 30
0.0
 10
59.993250
 20
133.662008
 30
0.0
 10
57.096512
 20
132.099798
 30
0.0
 10
55.048649
 20
130.351025
 30
0.0
 10
53.682848
 20
126.280381
 30
0.0
 10
52.629612
 20
123.064126
 30
0.0
 10
53.167568
 20
120.988080
 30
0.0
 10
58.396425
 20
116.646348
 30
0.0
 10
62.330476
 20
119.493117
 30
0.0
 10
63.937768
 20
120.985613
 30
0.0
 10
66.589235
 20
121.050702
 30
0.0
 10
64.803255
 20
115.746064
 30
0.0
 10
65.928509
 20
112.720176
 30
0.0
 10
70.448565
 20
112.172843
 30
0.0
 10
70.112027
 20
108.534621
 30
0.0
 10
70.334371
 20
104.159341
 30
0.0
 10
72.002971
 20
102.494836
 30
0.0
 10
74.126696
 20
102.502908
 30
0.0
 10
77.820773
 20
102.202350
 30
0.0
 10
79.587764
 20
101.920181
 30
0.0
 10
80.884263
 20
103.463468
 30
0.0
 10
83.523068
 20
105.656496
 30
0.0
 10
84.997799
 20
106.497222
 30
0.0
 10
86.659366
 20
106.824453
 30
0.0
 10
86.073778
 20
102.855299
 30
0.0
 10
87.056682
 20
102.987323
 30
0.0
 10
87.344378
 20
104.117309
 30
0.0
 10
88.009534
 20
105.953264
 30
0.0
 10
90.925588
 20
105.667220
 30
0.0
 10
96.432659
 20
104.177459
 30
0.0
 10
104.125208
 20
99.500213
 30
0.0
 10
108.539297
 20
97.478240
 30
0.0
 10
114.670546
 20
92.997573
 30
0.0
 10
115.399256
 20
91.290007
 30
0.0
 10
113.564659
 20
88.275053
 30
0.0
 10
112.590532
 20
86.604289
 30
0.0
 10
114.476984
 20
87.610312
 30
0.0
 10
117.491569
 20
88.455455
 30
0.0
 10
117.290613
 20
87.122155
 30
0.0
 10
116.022222
 20
86.309951
 30
0.0
 10
116.314895
 20
85.962244
 30
0.0
 10
117.981518
 20
86.321426
 30
0.0
 10
121.718522
 20
86.938310
 30
0.0
 10
123.090613
 20
85.481081
 30
0.0
 10
124.129111
 20
84.505947
 30
0.0
 10
127.653438
 20
84.665814
 30
0.0
 10
131.668540
 20
82.992547
 30
0.0
 10
134.809679
 20
81.156068
 30
0.0
 10
136.982657
 20
79.382473
 30
0.0
 10
135.503023
 20
74.178149
 30
0.0
 10
133.869867
 20
71.761773
 30
0.0
 10
132.458522
 20
69.823767
 30
0.0
 10
131.806642
 20
66.893527
 30
0.0
 10
128.596692
 20
54.650750
 30
0.0
 10
126.614259
 20
54.190663
 30
0.0
 10
125.160907
 20
53.994518
 30
0.0
 10
123.543407
 20
53.003365
 30
0.0
 10
121.032476
 20
51.430592
 30
0.0
 10
120.282064
 20
49.311275
 30
0.0
 10
119.523197
 20
45.268535
 30
0.0
 10
118.996914
 20
43.706147
 30
0.0
 10
118.224088
 20
41.863699
 30
0.0
 10
116.401991
 20
38.977959
 30
0.0
 10
112.069790
 20
36.771992
 30
0.0
 10
109.330498
 20
36.991897
 30
0.0
 10
110.121914
 20
36.290837
 30
0.0
 10
111.629297
 20
34.496663
 30
0.0
 10
111.972098
 20
32.244081
 30
0.0
 10
108.005564
 20
30.332550
 30
0.0
 10
106.660216
 20
29.006142
 30
0.0
 10
106.149741
 20
26.724731
 30
0.0
 10
104.989956
 20
27.169753
 30
0.0
 10
103.798620
 20
26.061252
 30
0.0
 10
105.017965
 20
24.826127
 30
0.0
 10
105.147858
 20
23.981610
 30
0.0
 10
104.788908
 20
22.821240
 30
0.0
 10
104.123782
 20
21.143067
 30
0.0
 10
103.811163
 20
19.149125
 30
0.0
 10
104.875572
 20
18.102826
 30
0.0
 10
105.280365
 20
14.901139
 30
0.0
 10
104.989456
 20
11.175817
 30
0.0
 10
102.896900
 20
9.715994
 30
0.0
 10
102.896889
 20
9.715994
 30
0.0
  0
LWPOLYLINE
  5
102
100
AcDbEntity
  8
Ebene_1
 62
7
100
AcDbPolyline
 90
29
 70
0
 10
78.331295
 20
154.082107
 30
0.0
 10
82.213821
 20
157.329245
 30
0.0
 10
82.306215
 20
156.055147
 30
0.0
 10
81.614590
 20
155.175890
 30
0.0
 10
82.324198
 20
154.601283
 30
0.0
 10
83.842728
 20
154.395249
 30
0.0
 10
84.856145
 20
155.408128
 30
0.0
 10
85.844889
 20
155.855608
 30
0.0
 10
86.951834
 20
156.235411
 30
0.0
 10
84.636734
 20
158.314379
 30
0.0
 10
82.795926
 20
159.814596
 30
0.0
 10
82.362450
 20
161.291239
 30
0.0
 10
78.331295
 20
161.659502
 30
0.0
 10
76.240813
 20
161.265957
 30
0.0
 10
75.843826
 20
160.975644
 30
0.0
 10
75.767702
 20
160.655079
 30
0.0
 10
74.668594
 20
160.010393
 30
0.0
 10
73.839155
 20
159.373116
 30
0.0
 10
74.770661
 20
159.018958
 30
0.0
 10
76.736903
 20
159.199882
 30
0.0
 10
78.900914
 20
159.196439
 30
0.0
 10
80.811001
 20
158.853897
 30
0.0
 10
81.796255
 20
158.719074
 30
0.0
 10
80.723926
 20
158.172571
 30
0.0
 10
76.344747
 20
154.662632
 30
0.0
 10
75.566187
 20
151.923284
 30
0.0
 10
76.790092
 20
151.845637
 30
0.0
 10
78.331295
 20
154.082092
 30
0.0
 10
78.331295
 20
154.082107
 30
0.0
  0
LWPOLYLINE
  5
103
100
AcDbEntity
  8
Ebene_1
 62
7
100
AcDbPolyline
 90
5
 70
0
 10
84.387231
 20
152.024667
 30
0.0
 10
85.269778
 20
153.200213
 30
0.0
 10
83.227018
 20
152.989339
 30
0.0
 10
82.344471
 20
151.329401
 30
0.0
 10
84.387231
 20
152.024667
 30
0.0
  0
LWPOLYLINE
  5
104
100
AcDbEntity
  8
Ebene_1
 62
7
100
AcDbPolyline
 90
4
 70
0
 10
90.297433
 20
154.543334
 30
0.0
 10
90.527824
 20
155.399051
 30
0.0
 10
87.664385
 20
154.470137
 30
0.0
 10
90.297433
 20
154.543334
 30
0.0
  0
LWPOLYLINE
  5
105
100
AcDbEntity
  8
Ebene_1
 62
7
100
AcDbPolyline
 90
10
 70
0
 10
115.330331
 20
10.599716
 30
0.0
 10
115.730322
 20
11.266382
 30
0.0
 10
115.850399
 20
11.666375
 30
0.0
 10
115.170797
 20
11.119767
 30
0.0
 10
114.134076
 20
10.942955
 30
0.0
 10
113.933376
 20
11.322911
 30
0.0
 10
114.163695
 20
11.666375
 30
0.0
 10
116.163643
 20
12.001994
 30
0.0
 10
116.872218
 20
10.973153
 30
0.0
 10
115.330331
 20
10.599716
 30
0.0
  0
LWPOLYLINE
  5
106
100
AcDbEntity
  8
Ebene_1
 62
7
100
AcDbPolyline
 90
9
 70
0
 10
393.700412
 20
18.965268
 30
0.0
 10
399.656260
 20
22.966443
 30
0.0
 10
404.312165
 20
25.643628
 30
0.0
 10
406.895345
 20
26.663452
 30
0.0
 10
405.662937
 20
24.502446
 30
0.0
 10
403.684842
 20
23.127380
 30
0.0
 10
402.326026
 20
22.332752
 30
0.0
 10
400.407226
 20
21.210166
 30
0.0
 10
393.700412
 20
18.965268
 30
0.0
  0
LWPOLYLINE
  5
107
100
AcDbEntity
  8
Ebene_1
 62
7
100
AcDbPolyline
 90
8
 70
0
 10
370.372629
 20
23.295441
 30
0.0
 10
370.289288
 20
24.268396
 30
0.0
 10
370.657024
 20
25.999875
 30
0.0
 10
371.407001
 20
26.780417
 30
0.0
 10
373.323629
 20
26.472998
 30
0.0
 10
374.747948
 20
26.381019
 30
0.0
 10
372.497085
 20
23.819053
 30
0.0
 10
370.372629
 20
23.295441
 30
0.0
  0
LWPOLYLINE
  5
108
100
AcDbEntity
  8
Ebene_1
 62
7
100
AcDbPolyline
 90
15
 70
0
 10
408.889556
 20
26.210235
 30
0.0
 10
409.499776
 20
27.067067
 30
0.0
 10
409.961887
 20
28.383842
 30
0.0
 10
411.651044
 20
30.663840
 30
0.0
 10
412.779114
 20
34.429144
 30
0.0
 10
413.109173
 20
35.702909
 30
0.0
 10
413.469260
 20
34.176578
 30
0.0
 10
414.156725
 20
32.058977
 30
0.0
 10
415.733614
 20
31.374145
 30
0.0
 10
416.206364
 20
31.177374
 30
0.0
 10
415.989166
 20
30.480505
 30
0.0
 10
414.905856
 20
29.794982
 30
0.0
 10
412.322591
 20
28.001886
 30
0.0
 10
409.233472
 20
25.999324
 30
0.0
 10
408.889556
 20
26.210235
 30
0.0
  0
LWPOLYLINE
  5
109
100
AcDbEntity
  8
Ebene_1
 62
7
100
AcDbPolyline
 90
62
 70
0
 10
373.641806
 20
30.515306
 30
0.0
 10
372.135812
 20
30.849322
 30
0.0
 10
368.367524
 20
31.617195
 30
0.0
 10
367.985113
 20
32.989263
 30
0.0
 10
368.024737
 20
34.556951
 30
0.0
 10
367.657086
 20
36.014747
 30
0.0
 10
366.698688
 20
36.085173
 30
0.0
 10
366.161619
 20
35.716845
 30
0.0
 10
367.019462
 20
37.147808
 30
0.0
 10
365.989407
 20
37.963966
 30
0.0
 10
364.371850
 20
36.623611
 30
0.0
 10
363.491430
 20
37.893032
 30
0.0
 10
361.547568
 20
40.277706
 30
0.0
 10
358.094748
 20
40.830438
 30
0.0
 10
350.348017
 20
38.850556
 30
0.0
 10
346.531283
 20
37.843996
 30
0.0
 10
342.074065
 20
36.788801
 30
0.0
 10
338.813349
 20
36.336074
 30
0.0
 10
337.862641
 20
37.893092
 30
0.0
 10
339.031411
 20
39.592857
 30
0.0
 10
339.292672
 20
43.025430
 30
0.0
 10
339.264337
 20
47.939317
 30
0.0
 10
339.429101
 20
51.635067
 30
0.0
 10
339.787024
 20
53.779970
 30
0.0
 10
344.019982
 20
56.769931
 30
0.0
 10
348.633328
 20
58.331817
 30
0.0
 10
352.657591
 20
61.423903
 30
0.0
 10
353.990887
 20
62.808880
 30
0.0
 10
355.081693
 20
63.228271
 30
0.0
 10
355.629746
 20
64.156192
 30
0.0
 10
357.038910
 20
65.504955
 30
0.0
 10
359.119489
 20
67.175761
 30
0.0
 10
361.119437
 20
67.055373
 30
0.0
 10
363.619418
 20
66.119288
 30
0.0
 10
363.773003
 20
66.771464
 30
0.0
 10
365.990564
 20
69.553980
 30
0.0
 10
368.081662
 20
70.389555
 30
0.0
 10
370.748266
 20
70.641391
 30
0.0
 10
372.471374
 20
68.362601
 30
0.0
 10
374.612905
 20
63.590238
 30
0.0
 10
377.574319
 20
61.915288
 30
0.0
 10
379.099956
 20
63.605926
 30
0.0
 10
380.412148
 20
66.998260
 30
0.0
 10
382.017033
 20
71.664805
 30
0.0
 10
382.823483
 20
69.880884
 30
0.0
 10
384.151705
 20
67.336348
 30
0.0
 10
385.329560
 20
62.009751
 30
0.0
 10
386.140864
 20
59.676479
 30
0.0
 10
388.355038
 20
56.165208
 30
0.0
 10
390.710155
 20
52.130178
 30
0.0
 10
391.996608
 20
50.428426
 30
0.0
 10
391.630905
 20
47.799241
 30
0.0
 10
390.134760
 20
43.167828
 30
0.0
 10
386.009969
 20
38.505311
 30
0.0
 10
384.176936
 20
36.649471
 30
0.0
 10
382.665100
 20
34.999092
 30
0.0
 10
380.970694
 20
33.268045
 30
0.0
 10
378.176694
 20
31.510204
 30
0.0
 10
375.580504
 20
30.590589
 30
0.0
 10
374.409959
 20
29.697767
 30
0.0
 10
373.641919
 20
30.515306
 30
0.0
 10
373.641806
 20
30.515306
 30
0.0
  0
LWPOLYLINE
  5
10a
100
AcDbEntity
  8
Ebene_1
 62
7
100
AcDbPolyline
 90
490
 70
0
 10
211.106379
 20
37.523516
 30
0.0
 10
210.440284
 20
39.562631
 30
0.0
 10
209.813274
 20
41.948794
 30
0.0
 10
208.994561
 20
43.516045
 30
0.0
 10
207.684711
 20
45.634052
 30
0.0
 10
206.158863
 20
49.610814
 30
0.0
 10
203.341241
 20
59.162211
 30
0.0
 10
201.840696
 20
62.869617
 30
0.0
 10
203.719678
 20
69.756556
 30
0.0
 10
204.709355
 20
71.681543
 30
0.0
 10
204.153251
 20
73.355827
 30
0.0
 10
203.808288
 20
75.871369
 30
0.0
 10
203.377927
 20
77.771955
 30
0.0
 10
202.213588
 20
80.664569
 30
0.0
 10
200.195823
 20
83.964551
 30
0.0
 10
198.464260
 20
89.108506
 30
0.0
 10
194.834561
 20
95.849209
 30
0.0
 10
193.216849
 20
96.638113
 30
0.0
 10
191.653513
 20
98.334946
 30
0.0
 10
188.161769
 20
98.350665
 30
0.0
 10
184.828524
 20
97.200604
 30
0.0
 10
181.001125
 20
96.658709
 30
0.0
 10
177.464841
 20
96.343665
 30
0.0
 10
173.805858
 20
96.046355
 30
0.0
 10
167.383231
 20
101.835260
 30
0.0
 10
163.555564
 20
106.797797
 30
0.0
 10
163.273929
 20
107.284269
 30
0.0
 10
163.023934
 20
107.753054
 30
0.0
 10
162.912428
 20
108.668922
 30
0.0
 10
162.995760
 20
108.997143
 30
0.0
 10
162.901184
 20
109.325365
 30
0.0
 10
162.610871
 20
110.509637
 30
0.0
 10
162.446676
 20
112.276142
 30
0.0
 10
163.131051
 20
119.707271
 30
0.0
 10
164.092763
 20
123.780996
 30
0.0
 10
165.979317
 20
126.900920
 30
0.0
 10
170.020276
 20
131.663234
 30
0.0
 10
172.995500
 20
134.861862
 30
0.0
 10
175.682622
 20
139.342870
 30
0.0
 10
178.013092
 20
141.524987
 30
0.0
 10
179.837817
 20
142.204739
 30
0.0
 10
181.834592
 20
141.521860
 30
0.0
 10
185.167837
 20
142.363579
 30
0.0
 10
193.117718
 20
144.081779
 30
0.0
 10
197.320289
 20
144.454177
 30
0.0
 10
199.848236
 20
143.761773
 30
0.0
 10
199.996208
 20
142.827908
 30
0.0
 10
199.990140
 20
141.484093
 30
0.0
 10
200.510727
 20
139.646372
 30
0.0
 10
202.420993
 20
138.527801
 30
0.0
 10
206.414728
 20
136.708583
 30
0.0
 10
208.229601
 20
135.505633
 30
0.0
 10
210.433677
 20
134.775092
 30
0.0
 10
212.198249
 20
135.031345
 30
0.0
 10
212.812416
 20
136.378202
 30
0.0
 10
212.987709
 20
137.650488
 30
0.0
 10
217.253843
 20
137.374966
 30
0.0
 10
226.142623
 20
135.700657
 30
0.0
 10
228.427514
 20
135.709293
 30
0.0
 10
232.224634
 20
137.493022
 30
0.0
 10
232.620885
 20
138.663065
 30
0.0
 10
232.980298
 20
141.746317
 30
0.0
 10
233.341378
 20
142.996285
 30
0.0
 10
233.309346
 20
143.696416
 30
0.0
 10
230.078599
 20
143.628446
 30
0.0
 10
228.027224
 20
143.756992
 30
0.0
 10
225.482077
 20
143.976745
 30
0.0
 10
222.612207
 20
144.437334
 30
0.0
 10
221.327571
 20
146.992955
 30
0.0
 10
220.577591
 20
148.153306
 30
0.0
 10
220.327598
 20
149.008832
 30
0.0
 10
221.584602
 20
149.157984
 30
0.0
 10
223.220421
 20
149.858693
 30
0.0
 10
225.296665
 20
150.801053
 30
0.0
 10
227.416591
 20
151.472491
 30
0.0
 10
232.958959
 20
151.025471
 30
0.0
 10
238.834128
 20
151.220215
 30
0.0
 10
238.861617
 20
152.823460
 30
0.0
 10
235.858572
 20
155.021686
 30
0.0
 10
233.367016
 20
156.439275
 30
0.0
 10
233.833825
 20
157.341982
 30
0.0
 10
234.113888
 20
158.431436
 30
0.0
 10
234.201137
 20
159.057015
 30
0.0
 10
234.540366
 20
159.926243
 30
0.0
 10
231.428561
 20
159.119460
 30
0.0
 10
230.002407
 20
157.819093
 30
0.0
 10
231.118119
 20
157.314505
 30
0.0
 10
230.551321
 20
156.626554
 30
0.0
 10
228.445735
 20
156.496924
 30
0.0
 10
228.009286
 20
157.514256
 30
0.0
 10
227.781598
 20
158.221279
 30
0.0
 10
226.803255
 20
158.931031
 30
0.0
 10
221.938477
 20
153.554577
 30
0.0
 10
222.317197
 20
151.337188
 30
0.0
 10
223.125019
 20
150.727847
 30
0.0
 10
221.642971
 20
150.422209
 30
0.0
 10
219.201706
 20
150.378600
 30
0.0
 10
216.994339
 20
149.661502
 30
0.0
 10
216.490110
 20
149.543860
 30
0.0
 10
215.511699
 20
149.343818
 30
0.0
 10
215.823306
 20
147.472417
 30
0.0
 10
216.118959
 20
145.012043
 30
0.0
 10
214.221991
 20
145.316191
 30
0.0
 10
214.406294
 20
146.389045
 30
0.0
 10
214.494404
 20
147.260299
 30
0.0
 10
211.327819
 20
150.389090
 30
0.0
 10
208.590272
 20
153.644544
 30
0.0
 10
206.706766
 20
154.734480
 30
0.0
 10
205.039880
 20
155.901497
 30
0.0
 10
203.397096
 20
157.034095
 30
0.0
 10
202.308330
 20
157.318679
 30
0.0
 10
201.661406
 20
156.495730
 30
0.0
 10
207.986664
 20
150.666735
 30
0.0
 10
209.002681
 20
149.494319
 30
0.0
 10
207.733759
 20
148.470101
 30
0.0
 10
207.348622
 20
146.898710
 30
0.0
 10
206.582783
 20
146.162861
 30
0.0
 10
206.757056
 20
147.155809
 30
0.0
 10
203.232173
 20
150.996069
 30
0.0
 10
199.537560
 20
154.579941
 30
0.0
 10
197.031226
 20
155.421381
 30
0.0
 10
192.942913
 20
154.171444
 30
0.0
 10
190.472119
 20
152.801963
 30
0.0
 10
190.219900
 20
151.996041
 30
0.0
 10
188.796919
 20
151.163136
 30
0.0
 10
187.573539
 20
150.329824
 30
0.0
 10
185.996394
 20
147.475188
 30
0.0
 10
183.433793
 20
144.703628
 30
0.0
 10
181.362243
 20
144.329573
 30
0.0
 10
179.650221
 20
143.640957
 30
0.0
 10
178.419650
 20
143.814371
 30
0.0
 10
175.539454
 20
145.066580
 30
0.0
 10
175.181757
 20
149.862136
 30
0.0
 10
175.478144
 20
152.779513
 30
0.0
 10
177.805052
 20
154.525966
 30
0.0
 10
184.382142
 20
154.430552
 30
0.0
 10
184.987097
 20
158.853672
 30
0.0
 10
183.131471
 20
160.525152
 30
0.0
 10
183.056409
 20
161.840878
 30
0.0
 10
185.120526
 20
162.438052
 30
0.0
 10
186.328098
 20
162.829325
 30
0.0
 10
189.176138
 20
164.470921
 30
0.0
 10
190.429241
 20
165.452281
 30
0.0
 10
192.828302
 20
167.191456
 30
0.0
 10
195.924001
 20
168.914510
 30
0.0
 10
198.041020
 20
170.645726
 30
0.0
 10
197.523134
 20
173.115673
 30
0.0
 10
198.571770
 20
174.181900
 30
0.0
 10
199.426054
 20
174.741648
 30
0.0
 10
199.206736
 20
173.370113
 30
0.0
 10
199.574432
 20
172.096678
 30
0.0
 10
200.916371
 20
172.609513
 30
0.0
 10
201.870302
 20
172.505638
 30
0.0
 10
200.813543
 20
171.340949
 30
0.0
 10
200.149454
 20
171.309484
 30
0.0
 10
199.637915
 20
171.366976
 30
0.0
 10
199.194347
 20
171.639529
 30
0.0
 10
199.786497
 20
170.513618
 30
0.0
 10
201.634948
 20
169.936417
 30
0.0
 10
203.646030
 20
169.836846
 30
0.0
 10
206.348367
 20
170.034006
 30
0.0
 10
208.912590
 20
170.350965
 30
0.0
 10
210.430226
 20
170.370184
 30
0.0
 10
212.158696
 20
172.801336
 30
0.0
 10
213.718973
 20
174.408965
 30
0.0
 10
215.298483
 20
174.490019
 30
0.0
 10
214.984353
 20
175.839428
 30
0.0
 10
214.669799
 20
177.028613
 30
0.0
 10
216.919909
 20
177.173760
 30
0.0
 10
220.512084
 20
178.299818
 30
0.0
 10
216.421868
 20
178.616644
 30
0.0
 10
213.324186
 20
178.830280
 30
0.0
 10
212.539207
 20
182.346089
 30
0.0
 10
213.980073
 20
185.845763
 30
0.0
 10
211.092280
 20
184.691031
 30
0.0
 10
208.618334
 20
182.644133
 30
0.0
 10
207.123848
 20
181.256251
 30
0.0
 10
207.130678
 20
179.495196
 30
0.0
 10
208.319006
 20
178.498159
 30
0.0
 10
207.676682
 20
176.563802
 30
0.0
 10
206.343385
 20
174.628830
 30
0.0
 10
204.605650
 20
172.547782
 30
0.0
 10
202.707926
 20
172.453359
 30
0.0
 10
201.832091
 20
173.977074
 30
0.0
 10
200.719650
 20
175.982003
 30
0.0
 10
199.807618
 20
177.074472
 30
0.0
 10
198.651227
 20
176.369523
 30
0.0
 10
196.828184
 20
175.670735
 30
0.0
 10
194.463949
 20
177.876728
 30
0.0
 10
194.161599
 20
179.399342
 30
0.0
 10
196.906693
 20
181.974388
 30
0.0
 10
202.158995
 20
185.655385
 30
0.0
 10
203.961080
 20
187.720709
 30
0.0
 10
205.327970
 20
189.276434
 30
0.0
 10
206.911262
 20
190.170782
 30
0.0
 10
210.161178
 20
191.421961
 30
0.0
 10
214.494398
 20
192.177151
 30
0.0
 10
221.395829
 20
190.778361
 30
0.0
 10
223.563242
 20
190.192186
 30
0.0
 10
231.104403
 20
187.854765
 30
0.0
 10
228.088032
 20
186.771303
 30
0.0
 10
224.901540
 20
187.364728
 30
0.0
 10
222.600890
 20
187.401812
 30
0.0
 10
223.135131
 20
186.612857
 30
0.0
 10
224.526004
 20
185.266872
 30
0.0
 10
228.477157
 20
183.322132
 30
0.0
 10
228.410702
 20
184.471191
 30
0.0
 10
229.160809
 20
184.661799
 30
0.0
 10
231.120366
 20
185.479893
 30
0.0
 10
232.382746
 20
186.324579
 30
0.0
 10
234.560440
 20
187.414583
 30
0.0
 10
234.864679
 20
188.938301
 30
0.0
 10
235.747162
 20
188.421701
 30
0.0
 10
236.367484
 20
187.640191
 30
0.0
 10
238.993474
 20
188.274788
 30
0.0
 10
243.819909
 20
189.334250
 30
0.0
 10
246.636238
 20
189.324344
 30
0.0
 10
249.290515
 20
189.517491
 30
0.0
 10
249.832475
 20
189.670879
 30
0.0
 10
248.971062
 20
190.814483
 30
0.0
 10
247.257437
 20
191.392226
 30
0.0
 10
257.434162
 20
189.020851
 30
0.0
 10
258.993242
 20
189.677774
 30
0.0
 10
257.523130
 20
190.717938
 30
0.0
 10
257.212835
 20
194.478408
 30
0.0
 10
261.065507
 20
191.898984
 30
0.0
 10
262.657212
 20
187.658115
 30
0.0
 10
262.439387
 20
186.469635
 30
0.0
 10
265.128759
 20
188.156954
 30
0.0
 10
263.659787
 20
190.828349
 30
0.0
 10
261.993163
 20
193.010141
 30
0.0
 10
263.076467
 20
193.204606
 30
0.0
 10
267.497741
 20
195.143047
 30
0.0
 10
269.957268
 20
195.826329
 30
0.0
 10
271.961590
 20
196.865923
 30
0.0
 10
271.718803
 20
197.498513
 30
0.0
 10
278.895883
 20
198.501770
 30
0.0
 10
281.488865
 20
199.181172
 30
0.0
 10
282.659291
 20
200.367666
 30
0.0
 10
279.492707
 20
200.328101
 30
0.0
 10
278.818281
 20
200.621039
 30
0.0
 10
276.215876
 20
201.459315
 30
0.0
 10
269.842612
 20
202.891977
 30
0.0
 10
273.692504
 20
202.861548
 30
0.0
 10
275.857676
 20
202.328049
 30
0.0
 10
277.159435
 20
201.994725
 30
0.0
 10
278.456813
 20
201.661401
 30
0.0
 10
283.131805
 20
200.616978
 30
0.0
 10
283.822809
 20
200.328101
 30
0.0
 10
285.759099
 20
199.754081
 30
0.0
 10
289.992435
 20
199.167377
 30
0.0
 10
294.075660
 20
198.536427
 30
0.0
 10
294.987500
 20
197.706499
 30
0.0
 10
293.278035
 20
196.554378
 30
0.0
 10
294.231238
 20
195.470430
 30
0.0
 10
297.881528
 20
195.496874
 30
0.0
 10
300.656182
 20
195.327459
 30
0.0
 10
303.730307
 20
195.143013
 30
0.0
 10
306.920883
 20
194.980741
 30
0.0
 10
313.233776
 20
194.578238
 30
0.0
 10
316.351325
 20
192.882184
 30
0.0
 10
319.288671
 20
192.475417
 30
0.0
 10
322.265915
 20
192.675527
 30
0.0
 10
325.039428
 20
192.853056
 30
0.0
 10
325.657289
 20
193.829319
 30
0.0
 10
329.700004
 20
194.339678
 30
0.0
 10
332.991316
 20
193.875398
 30
0.0
 10
335.777177
 20
193.062835
 30
0.0
 10
342.134043
 20
192.203880
 30
0.0
 10
348.014623
 20
191.464638
 30
0.0
 10
353.490781
 20
190.813281
 30
0.0
 10
359.109368
 20
190.218579
 30
0.0
 10
360.428952
 20
190.738526
 30
0.0
 10
362.157224
 20
191.184053
 30
0.0
 10
372.323603
 20
189.329469
 30
0.0
 10
375.817740
 20
188.505013
 30
0.0
 10
379.374135
 20
187.469402
 30
0.0
 10
381.939563
 20
187.027456
 30
0.0
 10
385.576674
 20
185.620124
 30
0.0
 10
386.663370
 20
184.676234
 30
0.0
 10
385.844361
 20
184.470675
 30
0.0
 10
382.087955
 20
185.400614
 30
0.0
 10
381.398910
 20
185.541827
 30
0.0
 10
379.666489
 20
185.862462
 30
0.0
 10
377.825751
 20
185.325978
 30
0.0
 10
377.287779
 20
184.749609
 30
0.0
 10
378.823434
 20
183.099820
 30
0.0
 10
381.980372
 20
181.777696
 30
0.0
 10
380.511293
 20
181.242942
 30
0.0
 10
377.656812
 20
179.999708
 30
0.0
 10
376.943834
 20
179.023690
 30
0.0
 10
375.277199
 20
178.852601
 30
0.0
 10
373.406913
 20
178.883985
 30
0.0
 10
371.492176
 20
178.181979
 30
0.0
 10
370.079061
 20
177.597331
 30
0.0
 10
372.256998
 20
174.613672
 30
0.0
 10
374.016513
 20
173.037460
 30
0.0
 10
374.824007
 20
171.280475
 30
0.0
 10
374.787149
 20
170.194359
 30
0.0
 10
374.486469
 20
169.409415
 30
0.0
 10
374.807017
 20
167.995594
 30
0.0
 10
375.133605
 20
166.609076
 30
0.0
 10
374.637881
 20
165.822952
 30
0.0
 10
372.697180
 20
166.924169
 30
0.0
 10
370.236880
 20
169.169145
 30
0.0
 10
367.491986
 20
172.064022
 30
0.0
 10
366.495460
 20
175.005173
 30
0.0
 10
367.002218
 20
176.728814
 30
0.0
 10
367.472287
 20
178.323181
 30
0.0
 10
366.738961
 20
181.067862
 30
0.0
 10
365.164105
 20
180.306664
 30
0.0
 10
363.600763
 20
179.786444
 30
0.0
 10
361.414726
 20
180.519826
 30
0.0
 10
359.640522
 20
179.786692
 30
0.0
 10
359.453327
 20
177.935619
 30
0.0
 10
358.712479
 20
176.840817
 30
0.0
 10
356.511603
 20
177.174776
 30
0.0
 10
354.360093
 20
177.463351
 30
0.0
 10
350.767752
 20
177.189105
 30
0.0
 10
347.217179
 20
176.384630
 30
0.0
 10
346.001910
 20
174.051358
 30
0.0
 10
345.133498
 20
171.753513
 30
0.0
 10
346.026977
 20
170.310511
 30
0.0
 10
350.162568
 20
169.800727
 30
0.0
 10
354.685019
 20
166.274871
 30
0.0
 10
355.980484
 20
164.667825
 30
0.0
 10
356.480003
 20
156.032849
 30
0.0
 10
353.514081
 20
153.653778
 30
0.0
 10
352.502775
 20
153.995958
 30
0.0
 10
351.678694
 20
152.628493
 30
0.0
 10
351.317473
 20
150.837457
 30
0.0
 10
350.472527
 20
149.048383
 30
0.0
 10
349.657549
 20
148.354325
 30
0.0
 10
351.975022
 20
146.436695
 30
0.0
 10
354.860414
 20
143.582300
 30
0.0
 10
355.292903
 20
142.200506
 30
0.0
 10
353.778840
 20
141.383247
 30
0.0
 10
352.400311
 20
140.688277
 30
0.0
 10
351.570866
 20
142.592242
 30
0.0
 10
348.443381
 20
145.957685
 30
0.0
 10
347.490937
 20
147.001007
 30
0.0
 10
346.410534
 20
148.421019
 30
0.0
 10
344.180358
 20
148.343442
 30
0.0
 10
342.677462
 20
148.292543
 30
0.0
 10
342.324405
 20
149.462434
 30
0.0
 10
341.701789
 20
150.305815
 30
0.0
 10
339.934968
 20
149.400898
 30
0.0
 10
338.143249
 20
147.794576
 30
0.0
 10
337.942154
 20
146.888539
 30
0.0
 10
339.825705
 20
145.547444
 30
0.0
 10
341.747486
 20
145.228790
 30
0.0
 10
343.694870
 20
145.316355
 30
0.0
 10
345.157665
 20
144.919313
 30
0.0
 10
344.342452
 20
144.374435
 30
0.0
 10
342.137910
 20
141.921303
 30
0.0
 10
342.738428
 20
140.641485
 30
0.0
 10
344.253521
 20
138.829855
 30
0.0
 10
345.961612
 20
136.794065
 30
0.0
 10
346.830788
 20
134.913455
 30
0.0
 10
347.354409
 20
133.996478
 30
0.0
 10
347.395140
 20
129.803085
 30
0.0
 10
342.212941
 20
122.980408
 30
0.0
 10
339.157821
 20
122.173246
 30
0.0
 10
336.023037
 20
120.461560
 30
0.0
 10
335.336521
 20
119.588765
 30
0.0
 10
335.016328
 20
120.430931
 30
0.0
 10
332.265802
 20
121.224181
 30
0.0
 10
329.840090
 20
118.741825
 30
0.0
 10
332.359573
 20
114.636000
 30
0.0
 10
335.801843
 20
108.538374
 30
0.0
 10
333.974824
 20
104.823139
 30
0.0
 10
332.485791
 20
103.646492
 30
0.0
 10
330.487246
 20
102.337320
 30
0.0
 10
330.477424
 20
103.286633
 30
0.0
 10
330.465628
 20
104.444182
 30
0.0
 10
329.592951
 20
104.629052
 30
0.0
 10
328.390727
 20
105.051809
 30
0.0
 10
323.275870
 20
109.163790
 30
0.0
 10
322.901903
 20
107.997154
 30
0.0
 10
322.611448
 20
105.217163
 30
0.0
 10
322.936387
 20
102.667336
 30
0.0
 10
323.839038
 20
100.893019
 30
0.0
 10
326.023001
 20
98.472145
 30
0.0
 10
328.827378
 20
94.259473
 30
0.0
 10
329.658083
 20
91.313714
 30
0.0
 10
327.508608
 20
92.021056
 30
0.0
 10
324.246804
 20
97.823421
 30
0.0
 10
322.437512
 20
100.490020
 30
0.0
 10
321.178640
 20
103.163946
 30
0.0
 10
321.512497
 20
106.051226
 30
0.0
 10
320.878474
 20
109.051146
 30
0.0
 10
319.639120
 20
112.391040
 30
0.0
 10
317.335891
 20
113.507379
 30
0.0
 10
316.247334
 20
112.663701
 30
0.0
 10
315.162791
 20
114.343962
 30
0.0
 10
312.384773
 20
119.305516
 30
0.0
 10
310.805311
 20
121.041013
 30
0.0
 10
308.650022
 20
122.671298
 30
0.0
 10
306.245802
 20
122.010066
 30
0.0
 10
303.889221
 20
120.020873
 30
0.0
 10
302.839668
 20
118.904117
 30
0.0
 10
301.268912
 20
117.505850
 30
0.0
 10
300.251932
 20
116.473580
 30
0.0
 10
299.046824
 20
115.339966
 30
0.0
 10
296.986542
 20
113.260861
 30
0.0
 10
295.566561
 20
111.304812
 30
0.0
 10
294.167983
 20
103.010236
 30
0.0
 10
291.880298
 20
101.699774
 30
0.0
 10
290.840408
 20
103.203093
 30
0.0
 10
289.348474
 20
107.079635
 30
0.0
 10
284.819324
 20
119.633500
 30
0.0
 10
283.907224
 20
122.245179
 30
0.0
 10
283.483806
 20
121.634769
 30
0.0
 10
280.411027
 20
121.214848
 30
0.0
 10
279.526348
 20
122.099524
 30
0.0
 10
280.287431
 20
122.381066
 30
0.0
 10
280.194100
 20
123.395588
 30
0.0
 10
278.619814
 20
124.145568
 30
0.0
 10
277.322997
 20
124.996713
 30
0.0
 10
276.824965
 20
125.667019
 30
0.0
 10
273.863331
 20
127.077555
 30
0.0
 10
264.619588
 20
127.173502
 30
0.0
 10
262.826489
 20
128.567112
 30
0.0
 10
260.326530
 20
129.307237
 30
0.0
 10
256.806031
 20
129.922857
 30
0.0
 10
254.161804
 20
132.325959
 30
0.0
 10
251.201609
 20
134.466259
 30
0.0
 10
250.486819
 20
133.299519
 30
0.0
 10
251.307388
 20
130.918057
 30
0.0
 10
252.685183
 20
128.236757
 30
0.0
 10
254.554733
 20
127.190873
 30
0.0
 10
255.334426
 20
127.328363
 30
0.0
 10
255.541932
 20
126.496674
 30
0.0
 10
258.177504
 20
125.197568
 30
0.0
 10
260.331021
 20
126.914182
 30
0.0
 10
261.687818
 20
127.212135
 30
0.0
 10
263.100106
 20
125.108236
 30
0.0
 10
266.659721
 20
122.165770
 30
0.0
 10
265.793971
 20
120.971587
 30
0.0
 10
264.271043
 20
118.881802
 30
0.0
 10
259.985448
 20
114.663649
 30
0.0
 10
256.917416
 20
112.922112
 30
0.0
 10
255.284625
 20
111.585065
 30
0.0
 10
247.228507
 20
108.198618
 30
0.0
 10
245.379768
 20
109.234495
 30
0.0
 10
244.492001
 20
112.330374
 30
0.0
 10
243.285752
 20
115.258565
 30
0.0
 10
242.327021
 20
116.674813
 30
0.0
 10
240.990337
 20
118.373522
 30
0.0
 10
239.112188
 20
121.623819
 30
0.0
 10
237.765494
 20
124.496726
 30
0.0
 10
233.344556
 20
131.033876
 30
0.0
 10
231.993189
 20
131.825421
 30
0.0
 10
231.825755
 20
130.858799
 30
0.0
 10
230.698127
 20
132.282551
 30
0.0
 10
230.372824
 20
130.800910
 30
0.0
 10
233.107165
 20
125.830025
 30
0.0
 10
235.215966
 20
122.131991
 30
0.0
 10
235.993853
 20
120.026797
 30
0.0
 10
237.840593
 20
116.163609
 30
0.0
 10
239.140334
 20
113.784425
 30
0.0
 10
241.324491
 20
111.165790
 30
0.0
 10
245.126716
 20
106.253263
 30
0.0
 10
246.344827
 20
104.821310
 30
0.0
 10
250.539239
 20
104.990248
 30
0.0
 10
254.664441
 20
106.166150
 30
0.0
 10
255.603460
 20
106.651733
 30
0.0
 10
255.826367
 20
105.332347
 30
0.0
 10
253.438039
 20
99.004755
 30
0.0
 10
248.230438
 20
91.946817
 30
0.0
 10
244.909662
 20
88.879742
 30
0.0
 10
242.076941
 20
85.521538
 30
0.0
 10
240.477302
 20
74.030467
 30
0.0
 10
241.134951
 20
71.515424
 30
0.0
 10
241.295033
 20
69.002258
 30
0.0
 10
241.028720
 20
66.067370
 30
0.0
 10
237.410484
 20
62.864043
 30
0.0
 10
235.660528
 20
61.670534
 30
0.0
 10
234.160568
 20
59.665077
 30
0.0
 10
232.660608
 20
57.640722
 30
0.0
 10
233.347808
 20
55.958221
 30
0.0
 10
231.003388
 20
51.002528
 30
0.0
 10
229.765640
 20
47.814428
 30
0.0
 10
229.301461
 20
46.318229
 30
0.0
 10
227.864176
 20
44.734466
 30
0.0
 10
220.785744
 20
37.891585
 30
0.0
 10
217.822015
 20
37.376419
 30
0.0
 10
214.462103
 20
37.194343
 30
0.0
 10
211.106374
 20
37.523476
 30
0.0
 10
211.106379
 20
37.523516
 30
0.0
  0
LWPOLYLINE
  5
10b
100
AcDbEntity
  8
Ebene_1
 62
7
100
AcDbPolyline
 90
23
 70
0
 10
255.009918
 20
143.838157
 30
0.0
 10
255.993338
 20
145.797293
 30
0.0
 10
255.471371
 20
147.681069
 30
0.0
 10
254.437713
 20
149.103771
 30
0.0
 10
254.459669
 20
149.888488
 30
0.0
 10
255.993316
 20
150.396964
 30
0.0
 10
255.304186
 20
151.694298
 30
0.0
 10
253.970886
 20
152.317343
 30
0.0
 10
253.326719
 20
152.310880
 30
0.0
 10
252.004568
 20
153.323671
 30
0.0
 10
250.324691
 20
155.992020
 30
0.0
 10
252.641125
 20
156.840976
 30
0.0
 10
253.008079
 20
157.975283
 30
0.0
 10
246.568361
 20
157.547762
 30
0.0
 10
245.660251
 20
154.995982
 30
0.0
 10
246.326903
 20
154.143493
 30
0.0
 10
247.644440
 20
152.218427
 30
0.0
 10
249.412997
 20
147.437622
 30
0.0
 10
249.246768
 20
145.712442
 30
0.0
 10
251.536736
 20
144.537424
 30
0.0
 10
253.926591
 20
143.346012
 30
0.0
 10
255.009896
 20
143.838165
 30
0.0
 10
255.009918
 20
143.838157
 30
0.0
  0
LWPOLYLINE
  5
10c
100
AcDbEntity
  8
Ebene_1
 62
7
100
AcDbPolyline
 90
13
 70
0
 10
245.826938
 20
50.730331
 30
0.0
 10
244.506231
 20
53.513259
 30
0.0
 10
245.332295
 20
56.955732
 30
0.0
 10
246.146145
 20
60.495976
 30
0.0
 10
247.775973
 20
64.523470
 30
0.0
 10
252.688677
 20
68.860580
 30
0.0
 10
253.217251
 20
70.003633
 30
0.0
 10
253.584645
 20
69.197285
 30
0.0
 10
252.806756
 20
61.827433
 30
0.0
 10
250.755285
 20
55.498557
 30
0.0
 10
248.007183
 20
50.708817
 30
0.0
 10
245.826938
 20
50.730322
 30
0.0
 10
245.826938
 20
50.730331
 30
0.0
  0
LWPOLYLINE
  5
10d
100
AcDbEntity
  8
Ebene_1
 62
7
100
AcDbPolyline
 90
6
 70
0
 10
410.022762
 20
56.525394
 30
0.0
 10
408.322712
 20
59.191991
 30
0.0
 10
409.464188
 20
58.571488
 30
0.0
 10
411.311530
 20
56.175854
 30
0.0
 10
412.322591
 20
54.936209
 30
0.0
 10
410.022762
 20
56.525394
 30
0.0
  0
LWPOLYLINE
  5
10e
100
AcDbEntity
  8
Ebene_1
 62
7
100
AcDbPolyline
 90
5
 70
0
 10
261.326534
 20
56.998520
 30
0.0
 10
261.659858
 20
57.331844
 30
0.0
 10
261.993182
 20
56.998520
 30
0.0
 10
261.659858
 20
56.665193
 30
0.0
 10
261.326534
 20
56.998520
 30
0.0
  0
LWPOLYLINE
  5
10f
100
AcDbEntity
  8
Ebene_1
 62
7
100
AcDbPolyline
 90
4
 70
0
 10
436.858201
 20
57.606551
 30
0.0
 10
437.005352
 20
58.175502
 30
0.0
 10
437.345486
 20
57.703260
 30
0.0
 10
436.858201
 20
57.606551
 30
0.0
  0
LWPOLYLINE
  5
110
100
AcDbEntity
  8
Ebene_1
 62
7
100
AcDbPolyline
 90
5
 70
0
 10
263.659806
 20
58.145482
 30
0.0
 10
263.993130
 20
58.498480
 30
0.0
 10
264.326455
 20
58.351491
 30
0.0
 10
263.993130
 20
57.998493
 30
0.0
 10
263.659806
 20
58.145482
 30
0.0
  0
LWPOLYLINE
  5
111
100
AcDbEntity
  8
Ebene_1
 62
7
100
AcDbPolyline
 90
4
 70
0
 10
428.190084
 20
61.528480
 30
0.0
 10
429.196291
 20
62.252473
 30
0.0
 10
429.454016
 20
61.431732
 30
0.0
 10
428.190084
 20
61.528480
 30
0.0
  0
LWPOLYLINE
  5
112
100
AcDbEntity
  8
Ebene_1
 62
7
100
AcDbPolyline
 90
4
 70
0
 10
430.301981
 20
63.010830
 30
0.0
 10
431.138121
 20
63.606762
 30
0.0
 10
431.388763
 20
63.112283
 30
0.0
 10
430.301981
 20
63.010830
 30
0.0
  0
LWPOLYLINE
  5
113
100
AcDbEntity
  8
Ebene_1
 62
7
100
AcDbPolyline
 90
4
 70
0
 10
414.739204
 20
64.234054
 30
0.0
 10
415.002461
 20
64.855463
 30
0.0
 10
415.405869
 20
63.334288
 30
0.0
 10
414.739204
 20
64.234054
 30
0.0
  0
LWPOLYLINE
  5
114
100
AcDbEntity
  8
Ebene_1
 62
7
100
AcDbPolyline
 90
5
 70
0
 10
416.015469
 20
64.470548
 30
0.0
 10
416.190560
 20
64.908038
 30
0.0
 10
416.216806
 20
64.269163
 30
0.0
 10
416.015413
 20
64.470548
 30
0.0
 10
416.015469
 20
64.470548
 30
0.0
  0
LWPOLYLINE
  5
115
100
AcDbEntity
  8
Ebene_1
 62
7
100
AcDbPolyline
 90
4
 70
0
 10
443.151446
 20
67.670897
 30
0.0
 10
443.847604
 20
68.277692
 30
0.0
 10
443.903371
 20
67.732052
 30
0.0
 10
443.151446
 20
67.670897
 30
0.0
  0
LWPOLYLINE
  5
116
100
AcDbEntity
  8
Ebene_1
 62
7
100
AcDbPolyline
 90
5
 70
0
 10
246.160262
 20
69.331532
 30
0.0
 10
246.307252
 20
69.664857
 30
0.0
 10
246.660249
 20
69.331532
 30
0.0
 10
246.513260
 20
68.998208
 30
0.0
 10
246.160262
 20
69.331532
 30
0.0
  0
LWPOLYLINE
  5
117
100
AcDbEntity
  8
Ebene_1
 62
7
100
AcDbPolyline
 90
27
 70
0
 10
392.489792
 20
72.463158
 30
0.0
 10
388.593798
 20
74.980030
 30
0.0
 10
385.023320
 20
77.175239
 30
0.0
 10
383.682991
 20
75.801087
 30
0.0
 10
381.742177
 20
74.856261
 30
0.0
 10
379.604767
 20
75.904124
 30
0.0
 10
378.028160
 20
76.510075
 30
0.0
 10
376.804134
 20
76.588891
 30
0.0
 10
377.123808
 20
77.445692
 30
0.0
 10
377.404421
 20
79.203708
 30
0.0
 10
374.252140
 20
81.700480
 30
0.0
 10
370.686883
 20
82.997844
 30
0.0
 10
369.869172
 20
84.823159
 30
0.0
 10
368.894377
 20
86.034205
 30
0.0
 10
368.068679
 20
87.221478
 30
0.0
 10
369.554805
 20
87.652575
 30
0.0
 10
371.323661
 20
85.635225
 30
0.0
 10
372.043977
 20
84.171982
 30
0.0
 10
373.293939
 20
83.917460
 30
0.0
 10
375.360229
 20
85.459195
 30
0.0
 10
376.896873
 20
86.339739
 30
0.0
 10
379.026804
 20
85.378857
 30
0.0
 10
382.722250
 20
83.853802
 30
0.0
 10
386.549465
 20
81.804112
 30
0.0
 10
389.365140
 20
78.215168
 30
0.0
 10
392.739784
 20
73.499977
 30
0.0
 10
392.489792
 20
72.463158
 30
0.0
  0
LWPOLYLINE
  5
118
100
AcDbEntity
  8
Ebene_1
 62
7
100
AcDbPolyline
 90
4
 70
0
 10
406.996098
 20
72.490053
 30
0.0
 10
406.928901
 20
72.998101
 30
0.0
 10
407.570251
 20
72.134555
 30
0.0
 10
406.996098
 20
72.490053
 30
0.0
  0
LWPOLYLINE
  5
119
100
AcDbEntity
  8
Ebene_1
 62
7
100
AcDbPolyline
 90
4
 70
0
 10
350.990366
 20
73.846873
 30
0.0
 10
350.657541
 20
74.314482
 30
0.0
 10
351.980675
 20
73.543485
 30
0.0
 10
350.990366
 20
73.846873
 30
0.0
  0
LWPOLYLINE
  5
11a
100
AcDbEntity
  8
Ebene_1
 62
7
100
AcDbPolyline
 90
5
 70
0
 10
356.626053
 20
74.287377
 30
0.0
 10
360.418397
 20
75.743762
 30
0.0
 10
360.639208
 20
75.365401
 30
0.0
 10
358.211047
 20
74.331398
 30
0.0
 10
356.626053
 20
74.287377
 30
0.0
  0
LWPOLYLINE
  5
11b
100
AcDbEntity
  8
Ebene_1
 62
7
100
AcDbPolyline
 90
4
 70
0
 10
404.989470
 20
73.831416
 30
0.0
 10
405.462192
 20
74.129076
 30
0.0
 10
405.989440
 20
73.629091
 30
0.0
 10
404.989470
 20
73.831416
 30
0.0
  0
LWPOLYLINE
  5
11c
100
AcDbEntity
  8
Ebene_1
 62
7
100
AcDbPolyline
 90
5
 70
0
 10
406.550582
 20
74.125523
 30
0.0
 10
406.343883
 20
75.275307
 30
0.0
 10
406.686726
 20
75.026610
 30
0.0
 10
406.893454
 20
73.876826
 30
0.0
 10
406.550582
 20
74.125523
 30
0.0
  0
LWPOLYLINE
  5
11d
100
AcDbEntity
  8
Ebene_1
 62
7
100
AcDbPolyline
 90
5
 70
0
 10
432.322072
 20
73.811742
 30
0.0
 10
432.655404
 20
74.164740
 30
0.0
 10
432.988737
 20
74.017751
 30
0.0
 10
432.655404
 20
73.664753
 30
0.0
 10
432.322072
 20
73.811742
 30
0.0
  0
LWPOLYLINE
  5
11e
100
AcDbEntity
  8
Ebene_1
 62
7
100
AcDbPolyline
 90
7
 70
0
 10
347.072235
 20
75.211706
 30
0.0
 10
346.841908
 20
75.693168
 30
0.0
 10
349.490905
 20
75.664703
 30
0.0
 10
349.260578
 20
75.326830
 30
0.0
 10
348.157608
 20
75.178689
 30
0.0
 10
347.072235
 20
75.211723
 30
0.0
 10
347.072235
 20
75.211706
 30
0.0
  0
LWPOLYLINE
  5
11f
100
AcDbEntity
  8
Ebene_1
 62
7
100
AcDbPolyline
 90
4
 70
0
 10
352.020807
 20
75.461918
 30
0.0
 10
353.683429
 20
75.991034
 30
0.0
 10
353.620299
 20
75.202488
 30
0.0
 10
352.020807
 20
75.461918
 30
0.0
  0
LWPOLYLINE
  5
120
100
AcDbEntity
  8
Ebene_1
 62
7
100
AcDbPolyline
 90
5
 70
0
 10
402.066918
 20
75.664701
 30
0.0
 10
401.974970
 20
76.331349
 30
0.0
 10
402.656198
 20
75.664701
 30
0.0
 10
402.748090
 20
74.998052
 30
0.0
 10
402.066918
 20
75.664701
 30
0.0
  0
LWPOLYLINE
  5
121
100
AcDbEntity
  8
Ebene_1
 62
7
100
AcDbPolyline
 90
4
 70
0
 10
404.154318
 20
76.000068
 30
0.0
 10
404.657379
 20
76.163373
 30
0.0
 10
405.099226
 20
75.331376
 30
0.0
 10
404.154318
 20
76.000068
 30
0.0
  0
LWPOLYLINE
  5
122
100
AcDbEntity
  8
Ebene_1
 62
7
100
AcDbPolyline
 90
11
 70
0
 10
341.657776
 20
76.057881
 30
0.0
 10
337.924140
 20
76.872417
 30
0.0
 10
335.667531
 20
77.167712
 30
0.0
 10
331.658036
 20
78.346356
 30
0.0
 10
336.234117
 20
78.470292
 30
0.0
 10
338.547656
 20
78.343952
 30
0.0
 10
341.041225
 20
78.013636
 30
0.0
 10
342.299626
 20
77.331324
 30
0.0
 10
344.790429
 20
75.943096
 30
0.0
 10
344.221376
 20
75.711104
 30
0.0
 10
341.657776
 20
76.057881
 30
0.0
  0
LWPOLYLINE
  5
123
100
AcDbEntity
  8
Ebene_1
 62
7
100
AcDbPolyline
 90
5
 70
0
 10
401.489548
 20
77.664649
 30
0.0
 10
401.219546
 20
78.331297
 30
0.0
 10
402.156213
 20
77.664649
 30
0.0
 10
402.426187
 20
76.998000
 30
0.0
 10
401.489548
 20
77.664649
 30
0.0
  0
LWPOLYLINE
  5
124
100
AcDbEntity
  8
Ebene_1
 62
7
100
AcDbPolyline
 90
6
 70
0
 10
399.387500
 20
78.086836
 30
0.0
 10
398.828728
 20
79.499799
 30
0.0
 10
399.015249
 20
79.831260
 30
0.0
 10
399.891295
 20
78.614383
 30
0.0
 10
400.049057
 20
77.868074
 30
0.0
 10
399.387500
 20
78.086836
 30
0.0
  0
LWPOLYLINE
  5
125
100
AcDbEntity
  8
Ebene_1
 62
7
100
AcDbPolyline
 90
7
 70
0
 10
392.328304
 20
79.146654
 30
0.0
 10
391.500151
 20
79.605059
 30
0.0
 10
392.783924
 20
79.845899
 30
0.0
 10
395.195343
 20
81.076834
 30
0.0
 10
396.317910
 20
81.615743
 30
0.0
 10
394.654351
 20
79.496443
 30
0.0
 10
392.328304
 20
79.146654
 30
0.0
  0
LWPOLYLINE
  5
126
100
AcDbEntity
  8
Ebene_1
 62
7
100
AcDbPolyline
 90
13
 70
0
 10
329.801601
 20
80.444515
 30
0.0
 10
325.649130
 20
85.519040
 30
0.0
 10
323.673721
 20
88.831025
 30
0.0
 10
321.891733
 20
91.497621
 30
0.0
 10
319.991672
 20
93.830896
 30
0.0
 10
318.066496
 20
96.990160
 30
0.0
 10
322.158284
 20
94.715127
 30
0.0
 10
326.625712
 20
90.664309
 30
0.0
 10
328.471713
 20
88.164376
 30
0.0
 10
329.238737
 20
86.997740
 30
0.0
 10
330.961972
 20
85.082202
 30
0.0
 10
332.153494
 20
83.018475
 30
0.0
 10
329.801601
 20
80.444515
 30
0.0
  0
LWPOLYLINE
  5
127
100
AcDbEntity
  8
Ebene_1
 62
7
100
AcDbPolyline
 90
5
 70
0
 10
262.659831
 20
80.664569
 30
0.0
 10
262.993155
 20
80.997896
 30
0.0
 10
263.326482
 20
80.664569
 30
0.0
 10
262.993155
 20
80.331245
 30
0.0
 10
262.659831
 20
80.664569
 30
0.0
  0
LWPOLYLINE
  5
128
100
AcDbEntity
  8
Ebene_1
 62
7
100
AcDbPolyline
 90
22
 70
0
 10
350.822370
 20
80.667561
 30
0.0
 10
350.819040
 20
81.652344
 30
0.0
 10
350.512515
 20
83.082723
 30
0.0
 10
350.559548
 20
84.663201
 30
0.0
 10
351.366193
 20
87.284120
 30
0.0
 10
352.397232
 20
89.890216
 30
0.0
 10
354.942865
 20
90.339833
 30
0.0
 10
357.663829
 20
90.501673
 30
0.0
 10
358.612138
 20
90.201087
 30
0.0
 10
355.853876
 20
89.232729
 30
0.0
 10
352.547095
 20
87.292036
 30
0.0
 10
354.328315
 20
86.999321
 30
0.0
 10
355.612316
 20
86.827803
 30
0.0
 10
354.825170
 20
84.326586
 30
0.0
 10
355.322790
 20
82.502691
 30
0.0
 10
354.655608
 20
81.998171
 30
0.0
 10
353.479137
 20
83.574100
 30
0.0
 10
352.318069
 20
84.141166
 30
0.0
 10
352.022977
 20
82.197533
 30
0.0
 10
351.934611
 20
80.623577
 30
0.0
 10
350.821075
 20
80.667561
 30
0.0
 10
350.822370
 20
80.667561
 30
0.0
  0
LWPOLYLINE
  5
129
100
AcDbEntity
  8
Ebene_1
 62
7
100
AcDbPolyline
 90
5
 70
0
 10
396.554723
 20
82.445411
 30
0.0
 10
394.955624
 20
83.848806
 30
0.0
 10
394.094451
 20
84.546968
 30
0.0
 10
397.258698
 20
81.971648
 30
0.0
 10
396.554723
 20
82.445411
 30
0.0
  0
LWPOLYLINE
  5
12a
100
AcDbEntity
  8
Ebene_1
 62
7
100
AcDbPolyline
 90
21
 70
0
 10
344.210575
 20
83.554804
 30
0.0
 10
342.705015
 20
83.846165
 30
0.0
 10
338.255463
 20
84.751709
 30
0.0
 10
336.823770
 20
89.331021
 30
0.0
 10
337.086095
 20
90.789853
 30
0.0
 10
338.269030
 20
91.027343
 30
0.0
 10
339.391636
 20
91.511862
 30
0.0
 10
341.009094
 20
93.006759
 30
0.0
 10
342.644484
 20
94.632162
 30
0.0
 10
344.195843
 20
96.010092
 30
0.0
 10
346.200891
 20
97.524542
 30
0.0
 10
347.465125
 20
98.664110
 30
0.0
 10
348.926652
 20
97.563771
 30
0.0
 10
349.993159
 20
96.463426
 30
0.0
 10
349.138248
 20
95.313827
 30
0.0
 10
349.318377
 20
91.339199
 30
0.0
 10
349.984627
 20
90.403556
 30
0.0
 10
349.154448
 20
89.859604
 30
0.0
 10
348.325635
 20
88.906680
 30
0.0
 10
345.657272
 20
83.408289
 30
0.0
 10
344.210575
 20
83.554804
 30
0.0
  0
LWPOLYLINE
  5
12b
100
AcDbEntity
  8
Ebene_1
 62
7
100
AcDbPolyline
 90
6
 70
0
 10
363.573867
 20
83.560928
 30
0.0
 10
363.448871
 20
84.331124
 30
0.0
 10
365.016559
 20
84.109250
 30
0.0
 10
365.474888
 20
83.632692
 30
0.0
 10
363.573867
 20
83.560923
 30
0.0
 10
363.573867
 20
83.560928
 30
0.0
  0
LWPOLYLINE
  5
12c
100
AcDbEntity
  8
Ebene_1
 62
7
100
AcDbPolyline
 90
5
 70
0
 10
416.655831
 20
87.811362
 30
0.0
 10
416.989136
 20
88.164360
 30
0.0
 10
417.322468
 20
88.017370
 30
0.0
 10
416.989136
 20
87.664372
 30
0.0
 10
416.655831
 20
87.811362
 30
0.0
  0
LWPOLYLINE
  5
12d
100
AcDbEntity
  8
Ebene_1
 62
7
100
AcDbPolyline
 90
8
 70
0
 10
362.406173
 20
88.715410
 30
0.0
 10
362.354893
 20
89.722271
 30
0.0
 10
362.490557
 20
90.664292
 30
0.0
 10
363.553942
 20
92.330916
 30
0.0
 10
363.532493
 20
91.710883
 30
0.0
 10
363.304796
 20
90.213818
 30
0.0
 10
362.405919
 20
88.715410
 30
0.0
 10
362.406173
 20
88.715410
 30
0.0
  0
LWPOLYLINE
  5
12e
100
AcDbEntity
  8
Ebene_1
 62
7
100
AcDbPolyline
 90
5
 70
0
 10
194.994925
 20
89.811310
 30
0.0
 10
195.328249
 20
90.164308
 30
0.0
 10
195.661576
 20
90.017318
 30
0.0
 10
195.328249
 20
89.664320
 30
0.0
 10
194.994925
 20
89.811310
 30
0.0
  0
LWPOLYLINE
  5
12f
100
AcDbEntity
  8
Ebene_1
 62
7
100
AcDbPolyline
 90
5
 70
0
 10
426.155572
 20
90.664292
 30
0.0
 10
426.302582
 20
90.997619
 30
0.0
 10
426.655557
 20
90.664292
 30
0.0
 10
426.508576
 20
90.330968
 30
0.0
 10
426.155572
 20
90.664292
 30
0.0
  0
LWPOLYLINE
  5
130
100
AcDbEntity
  8
Ebene_1
 62
7
100
AcDbPolyline
 90
5
 70
0
 10
196.994873
 20
93.811223
 30
0.0
 10
197.328197
 20
94.164221
 30
0.0
 10
197.661524
 20
94.017231
 30
0.0
 10
197.328197
 20
93.664233
 30
0.0
 10
196.994873
 20
93.811223
 30
0.0
  0
LWPOLYLINE
  5
131
100
AcDbEntity
  8
Ebene_1
 62
7
100
AcDbPolyline
 90
12
 70
0
 10
357.327434
 20
98.822823
 30
0.0
 10
355.628513
 20
100.157717
 30
0.0
 10
354.984595
 20
100.652515
 30
0.0
 10
356.284795
 20
101.172665
 30
0.0
 10
358.094881
 20
101.802003
 30
0.0
 10
358.997992
 20
103.231400
 30
0.0
 10
360.528661
 20
99.742823
 30
0.0
 10
360.195470
 20
98.966635
 30
0.0
 10
359.312250
 20
98.178242
 30
0.0
 10
359.392048
 20
97.664129
 30
0.0
 10
358.520904
 20
97.462938
 30
0.0
 10
357.327434
 20
98.822823
 30
0.0
  0
LWPOLYLINE
  5
132
100
AcDbEntity
  8
Ebene_1
 62
7
100
AcDbPolyline
 90
5
 70
0
 10
296.552792
 20
98.233888
 30
0.0
 10
296.237454
 20
102.276168
 30
0.0
 10
297.393600
 20
101.776183
 30
0.0
 10
298.401291
 20
98.792360
 30
0.0
 10
296.552792
 20
98.233888
 30
0.0
  0
LWPOLYLINE
  5
133
100
AcDbEntity
  8
Ebene_1
 62
7
100
AcDbPolyline
 90
5
 70
0
 10
370.990357
 20
99.958059
 30
0.0
 10
371.323661
 20
100.497389
 30
0.0
 10
371.656994
 20
100.370070
 30
0.0
 10
371.323661
 20
99.830740
 30
0.0
 10
370.990357
 20
99.958059
 30
0.0
  0
LWPOLYLINE
  5
134
100
AcDbEntity
  8
Ebene_1
 62
7
100
AcDbPolyline
 90
5
 70
0
 10
423.322315
 20
99.997401
 30
0.0
 10
423.469325
 20
100.330725
 30
0.0
 10
423.822300
 20
99.997401
 30
0.0
 10
423.675319
 20
99.664077
 30
0.0
 10
423.322315
 20
99.997401
 30
0.0
  0
LWPOLYLINE
  5
135
100
AcDbEntity
  8
Ebene_1
 62
7
100
AcDbPolyline
 90
5
 70
0
 10
347.657620
 20
101.923144
 30
0.0
 10
349.142648
 20
103.839761
 30
0.0
 10
350.642609
 20
104.812417
 30
0.0
 10
349.529270
 20
102.895801
 30
0.0
 10
347.657620
 20
101.923144
 30
0.0
  0
LWPOLYLINE
  5
136
100
AcDbEntity
  8
Ebene_1
 62
7
100
AcDbPolyline
 90
5
 70
0
 10
354.877167
 20
102.812542
 30
0.0
 10
354.931932
 20
103.880344
 30
0.0
 10
355.593481
 20
103.907692
 30
0.0
 10
355.538715
 20
102.839893
 30
0.0
 10
354.877167
 20
102.812542
 30
0.0
  0
LWPOLYLINE
  5
137
100
AcDbEntity
  8
Ebene_1
 62
7
100
AcDbPolyline
 90
6
 70
0
 10
99.620368
 20
104.111298
 30
0.0
 10
99.772291
 20
104.777946
 30
0.0
 10
100.243961
 20
104.997273
 30
0.0
 10
100.760628
 20
104.330621
 30
0.0
 10
99.917707
 20
103.663973
 30
0.0
 10
99.620368
 20
104.111298
 30
0.0
  0
LWPOLYLINE
  5
138
100
AcDbEntity
  8
Ebene_1
 62
7
100
AcDbPolyline
 90
5
 70
0
 10
357.113806
 20
104.199583
 30
0.0
 10
356.752982
 20
105.080602
 30
0.0
 10
356.932179
 20
105.330597
 30
0.0
 10
357.485332
 20
103.714152
 30
0.0
 10
357.113806
 20
104.199583
 30
0.0
  0
LWPOLYLINE
  5
139
100
AcDbEntity
  8
Ebene_1
 62
7
100
AcDbPolyline
 90
4
 70
0
 10
353.736061
 20
105.069225
 30
0.0
 10
354.424178
 20
106.280035
 30
0.0
 10
354.527107
 20
105.391371
 30
0.0
 10
353.736061
 20
105.069225
 30
0.0
  0
LWPOLYLINE
  5
13a
100
AcDbEntity
  8
Ebene_1
 62
7
100
AcDbPolyline
 90
4
 70
0
 10
357.676893
 20
106.214793
 30
0.0
 10
357.105006
 20
107.222615
 30
0.0
 10
358.811697
 20
106.135918
 30
0.0
 10
357.676893
 20
106.214793
 30
0.0
  0
LWPOLYLINE
  5
13b
100
AcDbEntity
  8
Ebene_1
 62
7
100
AcDbPolyline
 90
5
 70
0
 10
352.197168
 20
107.505144
 30
0.0
 10
351.657516
 20
108.428401
 30
0.0
 10
352.388963
 20
108.080525
 30
0.0
 10
352.928648
 20
107.157269
 30
0.0
 10
352.197168
 20
107.505144
 30
0.0
  0
LWPOLYLINE
  5
13c
100
AcDbEntity
  8
Ebene_1
 62
7
100
AcDbPolyline
 90
5
 70
0
 10
90.553200
 20
107.552761
 30
0.0
 10
90.330983
 20
108.119415
 30
0.0
 10
90.725416
 20
108.069414
 30
0.0
 10
90.947633
 20
107.502762
 30
0.0
 10
90.553200
 20
107.552761
 30
0.0
  0
LWPOLYLINE
  5
13d
100
AcDbEntity
  8
Ebene_1
 62
7
100
AcDbPolyline
 90
5
 70
0
 10
88.664359
 20
107.997193
 30
0.0
 10
88.811349
 20
108.330517
 30
0.0
 10
89.164347
 20
107.997193
 30
0.0
 10
89.017357
 20
107.663869
 30
0.0
 10
88.664359
 20
107.997193
 30
0.0
  0
LWPOLYLINE
  5
13e
100
AcDbEntity
  8
Ebene_1
 62
7
100
AcDbPolyline
 90
5
 70
0
 10
104.330619
 20
108.663844
 30
0.0
 10
104.477608
 20
108.997169
 30
0.0
 10
104.830605
 20
108.663844
 30
0.0
 10
104.683616
 20
108.330517
 30
0.0
 10
104.330619
 20
108.663844
 30
0.0
  0
LWPOLYLINE
  5
13f
100
AcDbEntity
  8
Ebene_1
 62
7
100
AcDbPolyline
 90
12
 70
0
 10
355.549948
 20
108.714642
 30
0.0
 10
354.142184
 20
108.856458
 30
0.0
 10
351.843611
 20
110.197194
 30
0.0
 10
350.305751
 20
113.629211
 30
0.0
 10
350.657541
 20
115.288751
 30
0.0
 10
352.757822
 20
115.162005
 30
0.0
 10
352.790486
 20
112.801310
 30
0.0
 10
353.190576
 20
110.629215
 30
0.0
 10
354.820635
 20
109.859405
 30
0.0
 10
355.963604
 20
109.529790
 30
0.0
 10
355.549914
 20
108.714642
 30
0.0
 10
355.549948
 20
108.714642
 30
0.0
  0
LWPOLYLINE
  5
140
100
AcDbEntity
  8
Ebene_1
 62
7
100
AcDbPolyline
 90
5
 70
0
 10
102.330671
 20
110.810779
 30
0.0
 10
102.663995
 20
111.163777
 30
0.0
 10
102.997320
 20
111.016788
 30
0.0
 10
102.663995
 20
110.663792
 30
0.0
 10
102.330671
 20
110.810779
 30
0.0
  0
LWPOLYLINE
  5
141
100
AcDbEntity
  8
Ebene_1
 62
7
100
AcDbPolyline
 90
5
 70
0
 10
154.662643
 20
111.997089
 30
0.0
 10
154.995967
 20
112.330413
 30
0.0
 10
155.329292
 20
111.997089
 30
0.0
 10
154.995967
 20
111.663765
 30
0.0
 10
154.662643
 20
111.997089
 30
0.0
  0
LWPOLYLINE
  5
142
100
AcDbEntity
  8
Ebene_1
 62
7
100
AcDbPolyline
 90
5
 70
0
 10
101.330697
 20
113.291047
 30
0.0
 10
101.664021
 20
113.830377
 30
0.0
 10
101.997346
 20
113.703055
 30
0.0
 10
101.664021
 20
113.163725
 30
0.0
 10
101.330697
 20
113.291047
 30
0.0
  0
LWPOLYLINE
  5
143
100
AcDbEntity
  8
Ebene_1
 62
7
100
AcDbPolyline
 90
4
 70
0
 10
98.499797
 20
114.659870
 30
0.0
 10
98.813449
 20
114.790869
 30
0.0
 10
99.017097
 20
114.330361
 30
0.0
 10
98.499797
 20
114.659870
 30
0.0
  0
LWPOLYLINE
  5
144
100
AcDbEntity
  8
Ebene_1
 62
7
100
AcDbPolyline
 90
5
 70
0
 10
151.496059
 20
114.663680
 30
0.0
 10
151.643046
 20
114.997004
 30
0.0
 10
151.996044
 20
114.663680
 30
0.0
 10
151.849054
 20
114.330353
 30
0.0
 10
151.496059
 20
114.663680
 30
0.0
  0
LWPOLYLINE
  5
145
100
AcDbEntity
  8
Ebene_1
 62
7
100
AcDbPolyline
 90
5
 70
0
 10
99.830736
 20
115.330328
 30
0.0
 10
99.977725
 20
115.663653
 30
0.0
 10
100.330722
 20
115.330328
 30
0.0
 10
100.183733
 20
114.997004
 30
0.0
 10
99.830736
 20
115.330328
 30
0.0
  0
LWPOLYLINE
  5
146
100
AcDbEntity
  8
Ebene_1
 62
7
100
AcDbPolyline
 90
5
 70
0
 10
101.330697
 20
115.330328
 30
0.0
 10
101.477686
 20
115.663653
 30
0.0
 10
101.830684
 20
115.330328
 30
0.0
 10
101.683694
 20
114.997004
 30
0.0
 10
101.330697
 20
115.330328
 30
0.0
  0
LWPOLYLINE
  5
147
100
AcDbEntity
  8
Ebene_1
 62
7
100
AcDbPolyline
 90
5
 70
0
 10
78.414626
 20
116.217731
 30
0.0
 10
77.997970
 20
116.691402
 30
0.0
 10
80.184203
 20
116.507565
 30
0.0
 10
79.831256
 20
116.033894
 30
0.0
 10
78.414626
 20
116.217731
 30
0.0
  0
LWPOLYLINE
  5
148
100
AcDbEntity
  8
Ebene_1
 62
7
100
AcDbPolyline
 90
8
 70
0
 10
86.849150
 20
116.406831
 30
0.0
 10
85.381521
 20
116.508036
 30
0.0
 10
83.644300
 20
116.630323
 30
0.0
 10
84.194596
 20
116.923707
 30
0.0
 10
85.986936
 20
118.017155
 30
0.0
 10
87.352290
 20
118.663576
 30
0.0
 10
91.485743
 20
117.349493
 30
0.0
 10
86.849150
 20
116.406831
 30
0.0
  0
LWPOLYLINE
  5
149
100
AcDbEntity
  8
Ebene_1
 62
7
100
AcDbPolyline
 90
4
 70
0
 10
93.242920
 20
116.196073
 30
0.0
 10
94.211665
 20
116.996952
 30
0.0
 10
94.915867
 20
116.580296
 30
0.0
 10
93.242920
 20
116.196073
 30
0.0
  0
LWPOLYLINE
  5
14a
100
AcDbEntity
  8
Ebene_1
 62
7
100
AcDbPolyline
 90
4
 70
0
 10
334.395465
 20
116.726126
 30
0.0
 10
336.000022
 20
118.663576
 30
0.0
 10
336.102221
 20
117.607029
 30
0.0
 10
334.395465
 20
116.726126
 30
0.0
  0
LWPOLYLINE
  5
14b
100
AcDbEntity
  8
Ebene_1
 62
7
100
AcDbPolyline
 90
5
 70
0
 10
95.997502
 20
116.794627
 30
0.0
 10
96.497489
 20
117.117492
 30
0.0
 10
96.997476
 20
116.986490
 30
0.0
 10
96.497489
 20
116.663628
 30
0.0
 10
95.997502
 20
116.794627
 30
0.0
  0
LWPOLYLINE
  5
14c
100
AcDbEntity
  8
Ebene_1
 62
7
100
AcDbPolyline
 90
10
 70
0
 10
81.588580
 20
119.183968
 30
0.0
 10
80.024954
 20
119.390036
 30
0.0
 10
78.986078
 20
119.815915
 30
0.0
 10
77.652703
 20
121.305599
 30
0.0
 10
72.294355
 20
122.520857
 30
0.0
 10
70.664828
 20
122.279523
 30
0.0
 10
75.227859
 20
123.599256
 30
0.0
 10
81.664542
 20
121.152618
 30
0.0
 10
83.664490
 20
119.300950
 30
0.0
 10
81.588580
 20
119.183968
 30
0.0
  0
LWPOLYLINE
  5
14d
100
AcDbEntity
  8
Ebene_1
 62
7
100
AcDbPolyline
 90
4
 70
0
 10
83.997814
 20
121.996821
 30
0.0
 10
84.997788
 20
121.996821
 30
0.0
 10
84.247808
 20
121.668599
 30
0.0
 10
83.997814
 20
121.996821
 30
0.0
  0
LWPOLYLINE
  5
14e
100
AcDbEntity
  8
Ebene_1
 62
7
100
AcDbPolyline
 90
5
 70
0
 10
349.457473
 20
122.587966
 30
0.0
 10
348.686693
 20
123.597049
 30
0.0
 10
348.889853
 20
125.403576
 30
0.0
 10
350.444681
 20
125.895473
 30
0.0
 10
349.457473
 20
122.587966
 30
0.0
  0
LWPOLYLINE
  5
14f
100
AcDbEntity
  8
Ebene_1
 62
7
100
AcDbPolyline
 90
4
 70
0
 10
86.186301
 20
123.032195
 30
0.0
 10
87.664149
 20
123.080125
 30
0.0
 10
86.833044
 20
122.782200
 30
0.0
 10
86.186301
 20
123.032195
 30
0.0
  0
LWPOLYLINE
  5
150
100
AcDbEntity
  8
Ebene_1
 62
7
100
AcDbPolyline
 90
6
 70
0
 10
79.594935
 20
126.244677
 30
0.0
 10
79.731245
 20
127.663349
 30
0.0
 10
79.905517
 20
127.012683
 30
0.0
 10
80.116635
 20
126.225004
 30
0.0
 10
80.301424
 20
125.873651
 30
0.0
 10
79.594935
 20
126.244677
 30
0.0
  0
LWPOLYLINE
  5
151
100
AcDbEntity
  8
Ebene_1
 62
7
100
AcDbPolyline
 90
5
 70
0
 10
81.531212
 20
128.863319
 30
0.0
 10
81.482186
 20
129.592053
 30
0.0
 10
81.864536
 20
129.196643
 30
0.0
 10
81.913562
 20
128.467908
 30
0.0
 10
81.531212
 20
128.863319
 30
0.0
  0
LWPOLYLINE
  5
152
100
AcDbEntity
  8
Ebene_1
 62
7
100
AcDbPolyline
 90
5
 70
0
 10
79.442376
 20
129.163310
 30
0.0
 10
80.077283
 20
129.663297
 30
0.0
 10
80.212199
 20
129.163310
 30
0.0
 10
79.577296
 20
128.663325
 30
0.0
 10
79.442376
 20
129.163310
 30
0.0
  0
LWPOLYLINE
  5
153
100
AcDbEntity
  8
Ebene_1
 62
7
100
AcDbPolyline
 90
5
 70
0
 10
358.990657
 20
136.470878
 30
0.0
 10
358.181512
 20
137.906921
 30
0.0
 10
358.750331
 20
139.180663
 30
0.0
 10
359.788006
 20
136.522940
 30
0.0
 10
358.990657
 20
136.470878
 30
0.0
  0
LWPOLYLINE
  5
154
100
AcDbEntity
  8
Ebene_1
 62
7
100
AcDbPolyline
 90
5
 70
0
 10
100.330722
 20
138.476728
 30
0.0
 10
100.664047
 20
138.829725
 30
0.0
 10
100.997372
 20
138.682736
 30
0.0
 10
100.664047
 20
138.329738
 30
0.0
 10
100.330722
 20
138.476728
 30
0.0
  0
LWPOLYLINE
  5
155
100
AcDbEntity
  8
Ebene_1
 62
7
100
AcDbPolyline
 90
4
 70
0
 10
360.848306
 20
138.886407
 30
0.0
 10
361.907260
 20
139.991259
 30
0.0
 10
361.923911
 20
138.729728
 30
0.0
 10
360.848306
 20
138.886407
 30
0.0
  0
LWPOLYLINE
  5
156
100
AcDbEntity
  8
Ebene_1
 62
7
100
AcDbPolyline
 90
17
 70
0
 10
363.893766
 20
140.103132
 30
0.0
 10
360.239553
 20
140.645188
 30
0.0
 10
358.406274
 20
140.636919
 30
0.0
 10
358.215111
 20
140.986208
 30
0.0
 10
359.610409
 20
141.841355
 30
0.0
 10
361.408122
 20
142.487215
 30
0.0
 10
364.003184
 20
143.641724
 30
0.0
 10
365.805737
 20
148.365123
 30
0.0
 10
366.588819
 20
150.150093
 30
0.0
 10
368.441721
 20
146.822846
 30
0.0
 10
368.804235
 20
144.834280
 30
0.0
 10
368.991094
 20
142.664284
 30
0.0
 10
366.017008
 20
141.329667
 30
0.0
 10
364.782964
 20
140.269801
 30
0.0
 10
364.479010
 20
139.209935
 30
0.0
 10
363.893766
 20
140.103140
 30
0.0
 10
363.893766
 20
140.103132
 30
0.0
  0
LWPOLYLINE
  5
157
100
AcDbEntity
  8
Ebene_1
 62
7
100
AcDbPolyline
 90
5
 70
0
 10
228.860635
 20
141.240849
 30
0.0
 10
229.307692
 20
141.996310
 30
0.0
 10
230.160678
 20
142.329634
 30
0.0
 10
230.798528
 20
142.208120
 30
0.0
 10
228.860635
 20
141.240849
 30
0.0
  0
LWPOLYLINE
  5
158
100
AcDbEntity
  8
Ebene_1
 62
7
100
AcDbPolyline
 90
6
 70
0
 10
217.494341
 20
141.817612
 30
0.0
 10
216.494366
 20
142.275489
 30
0.0
 10
217.827665
 20
142.298011
 30
0.0
 10
220.470843
 20
141.625089
 30
0.0
 10
217.494341
 20
141.817609
 30
0.0
 10
217.494341
 20
141.817612
 30
0.0
  0
LWPOLYLINE
  5
159
100
AcDbEntity
  8
Ebene_1
 62
7
100
AcDbPolyline
 90
5
 70
0
 10
204.029194
 20
145.142672
 30
0.0
 10
203.328772
 20
146.092977
 30
0.0
 10
205.971211
 20
145.704546
 30
0.0
 10
205.721218
 20
144.944324
 30
0.0
 10
204.029194
 20
145.142672
 30
0.0
  0
LWPOLYLINE
  5
15a
100
AcDbEntity
  8
Ebene_1
 62
7
100
AcDbPolyline
 90
4
 70
0
 10
197.348134
 20
148.748888
 30
0.0
 10
197.457269
 20
150.268026
 30
0.0
 10
198.661497
 20
149.178780
 30
0.0
 10
197.348134
 20
148.748888
 30
0.0
  0
LWPOLYLINE
  5
15b
100
AcDbEntity
  8
Ebene_1
 62
7
100
AcDbPolyline
 90
4
 70
0
 10
189.531902
 20
148.471927
 30
0.0
 10
190.578531
 20
148.579473
 30
0.0
 10
189.885272
 20
148.055271
 30
0.0
 10
189.531902
 20
148.471927
 30
0.0
  0
LWPOLYLINE
  5
15c
100
AcDbEntity
  8
Ebene_1
 62
7
100
AcDbPolyline
 90
11
 70
0
 10
363.694828
 20
152.276528
 30
0.0
 10
363.518439
 20
153.934657
 30
0.0
 10
363.503481
 20
155.637577
 30
0.0
 10
364.159309
 20
156.183564
 30
0.0
 10
366.978257
 20
154.802044
 30
0.0
 10
368.328550
 20
153.497548
 30
0.0
 10
367.657058
 20
152.800550
 30
0.0
 10
366.740429
 20
152.551229
 30
0.0
 10
364.594778
 20
152.079381
 30
0.0
 10
363.694799
 20
152.276528
 30
0.0
 10
363.694828
 20
152.276528
 30
0.0
  0
LWPOLYLINE
  5
15d
100
AcDbEntity
  8
Ebene_1
 62
7
100
AcDbPolyline
 90
4
 70
0
 10
197.883740
 20
151.884944
 30
0.0
 10
198.161509
 20
153.116565
 30
0.0
 10
198.661497
 20
152.485578
 30
0.0
 10
197.883740
 20
151.884944
 30
0.0
  0
LWPOLYLINE
  5
15e
100
AcDbEntity
  8
Ebene_1
 62
7
100
AcDbPolyline
 90
10
 70
0
 10
361.579685
 20
158.912537
 30
0.0
 10
360.064998
 20
161.496440
 30
0.0
 10
356.832114
 20
165.986697
 30
0.0
 10
355.024030
 20
168.617815
 30
0.0
 10
356.136200
 20
167.843271
 30
0.0
 10
359.964471
 20
164.248502
 30
0.0
 10
361.218836
 20
162.518273
 30
0.0
 10
361.816385
 20
160.337664
 30
0.0
 10
363.323875
 20
158.484756
 30
0.0
 10
361.579685
 20
158.912537
 30
0.0
  0
LWPOLYLINE
  5
15f
100
AcDbEntity
  8
Ebene_1
 62
7
100
AcDbPolyline
 90
5
 70
0
 10
117.663603
 20
159.495857
 30
0.0
 10
117.986469
 20
159.995842
 30
0.0
 10
118.117470
 20
159.495857
 30
0.0
 10
117.794605
 20
158.995869
 30
0.0
 10
117.663603
 20
159.495857
 30
0.0
  0
LWPOLYLINE
  5
160
100
AcDbEntity
  8
Ebene_1
 62
7
100
AcDbPolyline
 90
9
 70
0
 10
115.921846
 20
160.571493
 30
0.0
 10
114.680077
 20
160.701759
 30
0.0
 10
117.016784
 20
163.015397
 30
0.0
 10
119.726845
 20
165.329037
 30
0.0
 10
119.572114
 20
164.745509
 30
0.0
 10
120.619469
 20
162.838779
 30
0.0
 10
121.938093
 20
161.824921
 30
0.0
 10
121.067494
 20
160.676514
 30
0.0
 10
115.921846
 20
160.571493
 30
0.0
  0
LWPOLYLINE
  5
161
100
AcDbEntity
  8
Ebene_1
 62
7
100
AcDbPolyline
 90
5
 70
0
 10
34.701017
 20
162.962836
 30
0.0
 10
34.183244
 20
164.789629
 30
0.0
 10
36.614337
 20
163.142066
 30
0.0
 10
36.367641
 20
161.995790
 30
0.0
 10
34.701017
 20
162.962836
 30
0.0
  0
LWPOLYLINE
  5
162
100
AcDbEntity
  8
Ebene_1
 62
7
100
AcDbPolyline
 90
24
 70
0
 10
181.495277
 20
164.656358
 30
0.0
 10
183.098626
 20
165.323142
 30
0.0
 10
182.609874
 20
166.456081
 30
0.0
 10
182.153876
 20
167.115216
 30
0.0
 10
182.546569
 20
167.912596
 30
0.0
 10
183.328959
 20
168.612476
 30
0.0
 10
184.328537
 20
169.289894
 30
0.0
 10
183.247707
 20
171.304568
 30
0.0
 10
182.089109
 20
171.745537
 30
0.0
 10
181.938495
 20
172.745510
 30
0.0
 10
183.411893
 20
175.323675
 30
0.0
 10
183.578556
 20
174.920035
 30
0.0
 10
184.277548
 20
174.392630
 30
0.0
 10
185.059870
 20
174.273961
 30
0.0
 10
184.312357
 20
173.478269
 30
0.0
 10
183.564843
 20
172.682577
 30
0.0
 10
184.407497
 20
172.362199
 30
0.0
 10
187.071398
 20
168.938770
 30
0.0
 10
188.272787
 20
167.884503
 30
0.0
 10
188.456598
 20
166.834428
 30
0.0
 10
187.969866
 20
165.887600
 30
0.0
 10
185.755557
 20
165.133940
 30
0.0
 10
181.995264
 20
164.543588
 30
0.0
 10
181.495277
 20
164.656358
 30
0.0
  0
LWPOLYLINE
  5
163
100
AcDbEntity
  8
Ebene_1
 62
7
100
AcDbPolyline
 90
11
 70
0
 10
175.874130
 20
166.497629
 30
0.0
 10
176.163218
 20
167.997832
 30
0.0
 10
176.327522
 20
169.163026
 30
0.0
 10
176.815059
 20
170.188596
 30
0.0
 10
178.022510
 20
170.861598
 30
0.0
 10
180.828267
 20
170.996139
 30
0.0
 10
180.514614
 20
169.922001
 30
0.0
 10
179.995316
 20
168.294304
 30
0.0
 10
178.578688
 20
166.916275
 30
0.0
 10
176.621750
 20
166.190958
 30
0.0
 10
175.874130
 20
166.497629
 30
0.0
  0
LWPOLYLINE
  5
164
100
AcDbEntity
  8
Ebene_1
 62
7
100
AcDbPolyline
 90
5
 70
0
 10
181.995264
 20
169.809247
 30
0.0
 10
182.328589
 20
170.162245
 30
0.0
 10
182.661913
 20
170.015256
 30
0.0
 10
182.328589
 20
169.662258
 30
0.0
 10
181.995264
 20
169.809247
 30
0.0
  0
LWPOLYLINE
  5
165
100
AcDbEntity
  8
Ebene_1
 62
7
100
AcDbPolyline
 90
4
 70
0
 10
34.065721
 20
171.415289
 30
0.0
 10
34.169720
 20
172.332128
 30
0.0
 10
34.788842
 20
171.629366
 30
0.0
 10
34.065721
 20
171.415289
 30
0.0
  0
LWPOLYLINE
  5
166
100
AcDbEntity
  8
Ebene_1
 62
7
100
AcDbPolyline
 90
4
 70
0
 10
33.544465
 20
173.922123
 30
0.0
 10
33.836122
 20
174.665174
 30
0.0
 10
34.035678
 20
174.043224
 30
0.0
 10
33.544465
 20
173.922123
 30
0.0
  0
LWPOLYLINE
  5
167
100
AcDbEntity
  8
Ebene_1
 62
7
100
AcDbPolyline
 90
7
 70
0
 10
11.999688
 20
174.134729
 30
0.0
 10
14.444221
 20
175.126670
 30
0.0
 10
15.201138
 20
175.051864
 30
0.0
 10
14.089902
 20
174.561861
 30
0.0
 10
12.583005
 20
174.149822
 30
0.0
 10
11.999688
 20
174.134724
 30
0.0
 10
11.999688
 20
174.134729
 30
0.0
  0
LWPOLYLINE
  5
168
100
AcDbEntity
  8
Ebene_1
 62
7
100
AcDbPolyline
 90
4
 70
0
 10
210.077866
 20
177.882804
 30
0.0
 10
210.272305
 20
178.566191
 30
0.0
 10
210.883401
 20
178.137137
 30
0.0
 10
210.077866
 20
177.882804
 30
0.0
  0
LWPOLYLINE
  5
169
100
AcDbEntity
  8
Ebene_1
 62
7
100
AcDbPolyline
 90
41
 70
0
 10
136.829772
 20
179.586453
 30
0.0
 10
134.323342
 20
183.979538
 30
0.0
 10
134.356207
 20
185.612552
 30
0.0
 10
136.366078
 20
188.985754
 30
0.0
 10
138.306903
 20
190.619072
 30
0.0
 10
137.436118
 20
193.749755
 30
0.0
 10
136.813823
 20
194.573598
 30
0.0
 10
134.835400
 20
198.328178
 30
0.0
 10
130.886398
 20
199.181508
 30
0.0
 10
126.449317
 20
200.505608
 30
0.0
 10
126.672103
 20
201.327868
 30
0.0
 10
129.672026
 20
201.675532
 30
0.0
 10
135.644819
 20
203.365515
 30
0.0
 10
147.496152
 20
204.661795
 30
0.0
 10
155.495944
 20
205.305352
 30
0.0
 10
161.550866
 20
205.827751
 30
0.0
 10
164.679977
 20
205.999388
 30
0.0
 10
173.078380
 20
204.952386
 30
0.0
 10
176.610735
 20
204.502628
 30
0.0
 10
178.162021
 20
204.233817
 30
0.0
 10
175.662085
 20
203.502808
 30
0.0
 10
171.996523
 20
200.659565
 30
0.0
 10
171.318388
 20
199.151454
 30
0.0
 10
170.160922
 20
197.657412
 30
0.0
 10
165.520886
 20
195.514629
 30
0.0
 10
164.983377
 20
194.422022
 30
0.0
 10
166.906583
 20
193.185567
 30
0.0
 10
167.751842
 20
192.542837
 30
0.0
 10
166.987666
 20
192.260149
 30
0.0
 10
164.951924
 20
192.858658
 30
0.0
 10
162.965232
 20
192.865093
 30
0.0
 10
162.635912
 20
192.224824
 30
0.0
 10
163.639486
 20
191.491153
 30
0.0
 10
165.269822
 20
191.233030
 30
0.0
 10
162.743679
 20
190.152474
 30
0.0
 10
157.995888
 20
189.512488
 30
0.0
 10
152.787155
 20
187.437536
 30
0.0
 10
149.153352
 20
186.149578
 30
0.0
 10
142.622812
 20
181.873477
 30
0.0
 10
138.996383
 20
178.681626
 30
0.0
 10
136.829772
 20
179.586453
 30
0.0
  0
LWPOLYLINE
  5
16a
100
AcDbEntity
  8
Ebene_1
 62
7
100
AcDbPolyline
 90
37
 70
0
 10
113.195515
 20
181.815785
 30
0.0
 10
111.246166
 20
183.638670
 30
0.0
 10
108.031263
 20
184.338316
 30
0.0
 10
106.396872
 20
184.298062
 30
0.0
 10
109.178313
 20
185.145624
 30
0.0
 10
111.200085
 20
185.469612
 30
0.0
 10
114.073669
 20
186.642186
 30
0.0
 10
115.839765
 20
186.666880
 30
0.0
 10
116.183266
 20
187.520032
 30
0.0
 10
115.280674
 20
187.995120
 30
0.0
 10
114.153067
 20
189.483148
 30
0.0
 10
112.155475
 20
191.666805
 30
0.0
 10
110.023190
 20
191.841826
 30
0.0
 10
107.423514
 20
191.678899
 30
0.0
 10
104.705175
 20
191.826134
 30
0.0
 10
101.664021
 20
192.638398
 30
0.0
 10
106.163903
 20
195.842690
 30
0.0
 10
107.497203
 20
196.079934
 30
0.0
 10
106.544147
 20
195.064535
 30
0.0
 10
107.151486
 20
194.272693
 30
0.0
 10
109.477356
 20
195.469219
 30
0.0
 10
112.240080
 20
194.680318
 30
0.0
 10
115.061997
 20
194.029745
 30
0.0
 10
116.496739
 20
193.461112
 30
0.0
 10
118.870267
 20
192.009703
 30
0.0
 10
120.496863
 20
190.373152
 30
0.0
 10
121.258578
 20
188.706529
 30
0.0
 10
122.962718
 20
186.397790
 30
0.0
 10
120.306183
 20
186.007426
 30
0.0
 10
118.323560
 20
186.324915
 30
0.0
 10
118.194091
 20
184.936223
 30
0.0
 10
118.365332
 20
183.105792
 30
0.0
 10
117.016135
 20
182.818670
 30
0.0
 10
115.639650
 20
182.123097
 30
0.0
 10
116.459169
 20
181.267467
 30
0.0
 10
113.195515
 20
181.815791
 30
0.0
 10
113.195515
 20
181.815785
 30
0.0
  0
LWPOLYLINE
  5
16b
100
AcDbEntity
  8
Ebene_1
 62
7
100
AcDbPolyline
 90
5
 70
0
 10
181.661940
 20
181.384177
 30
0.0
 10
182.161928
 20
181.661946
 30
0.0
 10
182.661913
 20
181.384177
 30
0.0
 10
182.161928
 20
181.106405
 30
0.0
 10
181.661940
 20
181.384177
 30
0.0
  0
LWPOLYLINE
  5
16c
100
AcDbEntity
  8
Ebene_1
 62
7
100
AcDbPolyline
 90
6
 70
0
 10
100.627605
 20
183.176782
 30
0.0
 10
98.539846
 20
183.297743
 30
0.0
 10
97.222027
 20
184.059184
 30
0.0
 10
100.153721
 20
184.998606
 30
0.0
 10
101.773682
 20
183.208157
 30
0.0
 10
100.627605
 20
183.176782
 30
0.0
  0
LWPOLYLINE
  5
16d
100
AcDbEntity
  8
Ebene_1
 62
7
100
AcDbPolyline
 90
10
 70
0
 10
166.828992
 20
183.328570
 30
0.0
 10
165.273327
 20
183.810289
 30
0.0
 10
164.888209
 20
184.286799
 30
0.0
 10
169.005230
 20
185.825449
 30
0.0
 10
170.965724
 20
186.025612
 30
0.0
 10
173.199704
 20
185.834556
 30
0.0
 10
174.100775
 20
185.244153
 30
0.0
 10
173.298144
 20
184.618650
 30
0.0
 10
168.328952
 20
182.807062
 30
0.0
 10
166.828992
 20
183.328570
 30
0.0
  0
LWPOLYLINE
  5
16e
100
AcDbEntity
  8
Ebene_1
 62
7
100
AcDbPolyline
 90
23
 70
0
 10
76.331347
 20
189.550901
 30
0.0
 10
73.850282
 20
190.422149
 30
0.0
 10
72.202528
 20
191.161698
 30
0.0
 10
74.516931
 20
191.328362
 30
0.0
 10
76.831334
 20
191.828349
 30
0.0
 10
74.831386
 20
192.340329
 30
0.0
 10
73.831412
 20
192.673653
 30
0.0
 10
73.998075
 20
193.675367
 30
0.0
 10
74.336936
 20
194.390862
 30
0.0
 10
80.341376
 20
194.856142
 30
0.0
 10
82.858117
 20
194.876575
 30
0.0
 10
83.706155
 20
195.033273
 30
0.0
 10
83.789486
 20
194.272733
 30
0.0
 10
85.325096
 20
194.488545
 30
0.0
 10
87.329814
 20
195.078268
 30
0.0
 10
86.670851
 20
193.749555
 30
0.0
 10
86.013138
 20
192.670834
 30
0.0
 10
87.088754
 20
192.109674
 30
0.0
 10
88.164373
 20
191.548515
 30
0.0
 10
86.398272
 20
190.742418
 30
0.0
 10
83.049142
 20
190.316084
 30
0.0
 10
79.871068
 20
190.012134
 30
0.0
 10
76.331347
 20
189.550901
 30
0.0
  0
LWPOLYLINE
  5
16f
100
AcDbEntity
  8
Ebene_1
 62
7
100
AcDbPolyline
 90
5
 70
0
 10
89.699749
 20
189.785727
 30
0.0
 10
90.301013
 20
190.649298
 30
0.0
 10
92.035715
 20
190.816278
 30
0.0
 10
91.643632
 20
189.966679
 30
0.0
 10
89.699749
 20
189.785727
 30
0.0
  0
LWPOLYLINE
  5
170
100
AcDbEntity
  8
Ebene_1
 62
7
100
AcDbPolyline
 90
4
 70
0
 10
181.661940
 20
191.328362
 30
0.0
 10
182.661913
 20
191.328362
 30
0.0
 10
181.911933
 20
191.000140
 30
0.0
 10
181.661940
 20
191.328362
 30
0.0
  0
LWPOLYLINE
  5
171
100
AcDbEntity
  8
Ebene_1
 62
7
100
AcDbPolyline
 90
16
 70
0
 10
242.827014
 20
192.253114
 30
0.0
 10
241.653692
 20
193.486916
 30
0.0
 10
241.784522
 20
194.005558
 30
0.0
 10
242.160366
 20
194.519894
 30
0.0
 10
242.832591
 20
195.259274
 30
0.0
 10
245.160286
 20
197.489341
 30
0.0
 10
248.326870
 20
198.116941
 30
0.0
 10
251.873822
 20
198.502112
 30
0.0
 10
253.461955
 20
198.379063
 30
0.0
 10
250.660143
 20
197.369337
 30
0.0
 10
245.533505
 20
194.981553
 30
0.0
 10
245.410282
 20
192.219814
 30
0.0
 10
246.160262
 20
191.696653
 30
0.0
 10
245.160286
 20
191.711555
 30
0.0
 10
242.827014
 20
192.253105
 30
0.0
 10
242.827014
 20
192.253114
 30
0.0
  0
LWPOLYLINE
  5
172
100
AcDbEntity
  8
Ebene_1
 62
7
100
AcDbPolyline
 90
7
 70
0
 10
68.249824
 20
193.219570
 30
0.0
 10
70.413894
 20
195.286054
 30
0.0
 10
77.664646
 20
196.334696
 30
0.0
 10
79.164607
 20
195.878010
 30
0.0
 10
77.164659
 20
195.481451
 30
0.0
 10
69.325589
 20
192.860064
 30
0.0
 10
68.249824
 20
193.219570
 30
0.0
  0
LWPOLYLINE
  5
173
100
AcDbEntity
  8
Ebene_1
 62
7
100
AcDbPolyline
 90
8
 70
0
 10
92.330931
 20
193.650989
 30
0.0
 10
91.414288
 20
194.499792
 30
0.0
 10
90.497645
 20
195.025916
 30
0.0
 10
91.724973
 20
194.832907
 30
0.0
 10
93.224934
 20
195.115126
 30
0.0
 10
96.422717
 20
196.326373
 30
0.0
 10
96.164754
 20
195.329401
 30
0.0
 10
92.330931
 20
193.650989
 30
0.0
  0
LWPOLYLINE
  5
174
100
AcDbEntity
  8
Ebene_1
 62
7
100
AcDbPolyline
 90
5
 70
0
 10
97.520559
 20
194.624240
 30
0.0
 10
101.690084
 20
196.153298
 30
0.0
 10
100.263684
 20
194.989323
 30
0.0
 10
98.281159
 20
194.516985
 30
0.0
 10
97.520559
 20
194.624240
 30
0.0
  0
LWPOLYLINE
  5
175
100
AcDbEntity
  8
Ebene_1
 62
7
100
AcDbPolyline
 90
10
 70
0
 10
108.163851
 20
197.078747
 30
0.0
 10
104.072779
 20
197.481515
 30
0.0
 10
105.318126
 20
198.989665
 30
0.0
 10
107.544114
 20
198.724156
 30
0.0
 10
111.220275
 20
198.241683
 30
0.0
 10
114.553523
 20
198.175107
 30
0.0
 10
115.496995
 20
197.936299
 30
0.0
 10
114.330359
 20
197.312898
 30
0.0
 10
112.663735
 20
196.725040
 30
0.0
 10
108.163851
 20
197.078747
 30
0.0
  0
LWPOLYLINE
  5
176
100
AcDbEntity
  8
Ebene_1
 62
7
100
AcDbPolyline
 90
32
 70
0
 10
204.087304
 20
198.441008
 30
0.0
 10
203.578037
 20
199.666583
 30
0.0
 10
204.994665
 20
200.031350
 30
0.0
 10
204.951954
 20
200.218957
 30
0.0
 10
204.021428
 20
200.434722
 30
0.0
 10
203.380450
 20
200.412934
 30
0.0
 10
202.144362
 20
200.297672
 30
0.0
 10
199.994797
 20
201.579630
 30
0.0
 10
203.161381
 20
201.870564
 30
0.0
 10
206.327965
 20
201.988028
 30
0.0
 10
207.498041
 20
201.578100
 30
0.0
 10
207.745894
 20
200.828120
 30
0.0
 10
207.893423
 20
201.578100
 30
0.0
 10
208.517758
 20
202.328080
 30
0.0
 10
208.994561
 20
202.728071
 30
0.0
 10
209.394552
 20
202.728071
 30
0.0
 10
212.061148
 20
202.328080
 30
0.0
 10
213.414585
 20
201.297743
 30
0.0
 10
209.577881
 20
201.535005
 30
0.0
 10
208.996669
 20
201.433901
 30
0.0
 10
211.378656
 20
199.994808
 30
0.0
 10
212.176388
 20
199.527197
 30
0.0
 10
212.152597
 20
198.871007
 30
0.0
 10
211.661177
 20
199.042393
 30
0.0
 10
210.461733
 20
199.177334
 30
0.0
 10
209.490451
 20
199.321502
 30
0.0
 10
209.315789
 20
200.176074
 30
0.0
 10
207.661270
 20
200.388683
 30
0.0
 10
206.577966
 20
198.918220
 30
0.0
 10
205.494661
 20
197.720531
 30
0.0
 10
204.087312
 20
198.441014
 30
0.0
 10
204.087304
 20
198.441008
 30
0.0
  0
LWPOLYLINE
  5
177
100
AcDbEntity
  8
Ebene_1
 62
7
100
AcDbPolyline
 90
21
 70
0
 10
115.663658
 20
199.174298
 30
0.0
 10
112.997059
 20
199.494817
 30
0.0
 10
110.400457
 20
199.762677
 30
0.0
 10
111.966886
 20
200.180329
 30
0.0
 10
114.303533
 20
201.319268
 30
0.0
 10
114.879467
 20
201.472574
 30
0.0
 10
116.144198
 20
202.344215
 30
0.0
 10
119.329070
 20
203.090478
 30
0.0
 10
122.943448
 20
203.299497
 30
0.0
 10
122.438346
 20
204.176472
 30
0.0
 10
116.739182
 20
204.514684
 30
0.0
 10
129.034438
 20
205.653406
 30
0.0
 10
135.200946
 20
206.142282
 30
0.0
 10
136.829772
 20
206.344424
 30
0.0
 10
134.140919
 20
205.052857
 30
0.0
 10
125.836093
 20
202.661401
 30
0.0
 10
123.216681
 20
201.661426
 30
0.0
 10
120.883460
 20
200.661453
 30
0.0
 10
118.460557
 20
199.665700
 30
0.0
 10
116.496967
 20
198.677538
 30
0.0
 10
115.663658
 20
199.174298
 30
0.0
  0
LWPOLYLINE
  5
178
100
AcDbEntity
  8
Ebene_1
 62
7
100
AcDbPolyline
 90
5
 70
0
 10
109.163826
 20
202.219597
 30
0.0
 10
108.676288
 20
203.326791
 30
0.0
 10
112.788601
 20
203.904065
 30
0.0
 10
112.186232
 20
202.718831
 30
0.0
 10
109.163826
 20
202.219597
 30
0.0
  0
ENDSEC
  0
SECTION
  2
OBJECTS
  0
DICTIONARY
  5
C
330
0
100
AcDbDictionary
  3
ACAD_GROUP
350
D
  3
ACAD_MLINESTYLE
350
17
  0
DICTIONARY
  5
D
330
C
100
AcDbDictionary
  0
DICTIONARY
  5
1A
330
C
100
AcDbDictionary
  0
DICTIONARY
  5
17
330
C
100
AcDbDictionary
  3
STANDARD
350
18
  0
DICTIONARY
  5
19
330
C
100
AcDbDictionary
  0
ENDSEC
  0
EOF
