  0
SECTION
  2
HEADER
  9
$ACADVER
  1
AC1014
  9
$HANDSEED
  5
FFFF
  9
$MEASUREMENT
 70
     1
  0
ENDSEC
  0
SECTION
  2
TABLES
  0
TABLE
  2
VPORT
  5
8
330
0
100
AcDbSymbolTable
 70
     4
  0
VPORT
  5
2E
330
8
100
AcDbSymbolTableRecord
100
AcDbViewportTableRecord
  2
*ACTIVE
 70
     0
 10
0.0
 20
0.0
 11
1.0
 21
1.0
 12
210.0
 22
148.5
 13
0.0
 23
0.0
 14
10.0
 24
10.0
 15
10.0
 25
10.0
 16
0.0
 26
0.0
 36
1.0
 17
0.0
 27
0.0
 37
0.0
 40
341.0
 41
1.24
 42
50.0
 43
0.0
 44
0.0
 50
0.0
 51
0.0
 71
     0
 72
   100
 73
     1
 74
     3
 75
     0
 76
     0
 77
     0
 78
     0
  0
ENDTAB
  0
TABLE
  2
LTYPE
  5
5
330
0
100
AcDbSymbolTable
 70
     1
  0
LTYPE
  5
14
330
5
100
AcDbSymbolTableRecord
100
AcDbLinetypeTableRecord
  2
BYBLOCK
 70
     0
  3

 72
    65
 73
     0
 40
0.0
  0
LTYPE
  5
15
330
5
100
AcDbSymbolTableRecord
100
AcDbLinetypeTableRecord
  2
BYLAYER
 70
     0
  3

 72
    65
 73
     0
 40
0.0
  0
LTYPE
  5
16
330
5
100
AcDbSymbolTableRecord
100
AcDbLinetypeTableRecord
  2
CONTINUOUS
 70
     0
  3
Solid line
 72
    65
 73
     0
 40
0.0
  0
ENDTAB
  0
TABLE
  2
LAYER
  5
2
100
AcDbSymbolTable
 70
2
  0
LAYER
  5
50
100
AcDbSymbolTableRecord
100
AcDbLayerTableRecord
  2
0
 70
0
  6
CONTINUOUS
  0
LAYER
  5
51
100
AcDbSymbolTableRecord
100
AcDbLayerTableRecord
  2
Layer_1
 70
0
  6
CONTINUOUS
  0
ENDTAB
  0
TABLE
  2
STYLE
  5
3
330
0
100
AcDbSymbolTable
 70
     1
  0
STYLE
  5
11
330
3
100
AcDbSymbolTableRecord
100
AcDbTextStyleTableRecord
  2
STANDARD
 70
     0
 40
0.0
 41
1.0
 50
0.0
 71
     0
 42
2.5
  3
txt
  4

  0
ENDTAB
  0
TABLE
  2
VIEW
  5
6
330
0
100
AcDbSymbolTable
 70
     0
  0
ENDTAB
  0
TABLE
  2
UCS
  5
7
330
0
100
AcDbSymbolTable
 70
     0
  0
ENDTAB
  0
TABLE
  2
APPID
  5
9
330
0
100
AcDbSymbolTable
 70
     2
  0
APPID
  5
12
330
9
100
AcDbSymbolTableRecord
100
AcDbRegAppTableRecord
  2
ACAD
 70
     0
  0
ENDTAB
  0
TABLE
  2
DIMSTYLE
  5
A
330
0
100
AcDbSymbolTable
 70
     1
  0
DIMSTYLE
105
27
330
A
100
AcDbSymbolTableRecord
100
AcDbDimStyleTableRecord
  2
ISO-25
 70
     0
  3

  4

  5

  6

  7

 40
1.0
 41
2.5
 42
0.625
 43
3.75
 44
1.25
 45
0.0
 46
0.0
 47
0.0
 48
0.0
140
2.5
141
2.5
142
0.0
143
0.03937007874016
144
1.0
145
0.0
146
1.0
147
0.625
 71
     0
 72
     0
 73
     0
 74
     0
 75
     0
 76
     0
 77
     1
 78
     8
170
     0
171
     3
172
     1
173
     0
174
     0
175
     0
176
     0
177
     0
178
     0
270
     2
271
     2
272
     2
273
     2
274
     3
340
11
275
     0
280
     0
281
     0
282
     0
283
     0
284
     8
285
     0
286
     0
287
     3
288
     0
  0
ENDTAB
  0
TABLE
  2
BLOCK_RECORD
  5
1
330
0
100
AcDbSymbolTable
 70
     1
  0
BLOCK_RECORD
  5
1F
330
1
100
AcDbSymbolTableRecord
100
AcDbBlockTableRecord
  2
*MODEL_SPACE
  0
BLOCK_RECORD
  5
1B
330
1
100
AcDbSymbolTableRecord
100
AcDbBlockTableRecord
  2
*PAPER_SPACE
  0
ENDTAB
  0
ENDSEC
  0
SECTION
  2
BLOCKS
  0
BLOCK
  5
20
330
1F
100
AcDbEntity
  8
0
100
AcDbBlockBegin
  2
*MODEL_SPACE
 70
     0
 10
0.0
 20
0.0
 30
0.0
  3
*MODEL_SPACE
  1

  0
ENDBLK
  5
21
330
1F
100
AcDbEntity
  8
0
100
AcDbBlockEnd
  0
BLOCK
  5
1C
330
1B
100
AcDbEntity
 67
     1
  8
0
100
AcDbBlockBegin
  2
*PAPER_SPACE
  1

  0
ENDBLK
  5
1D
330
1B
100
AcDbEntity
 67
     1
  8
0
100
AcDbBlockEnd
  0
ENDSEC
  0
SECTION
  2
ENTITIES
  0
LWPOLYLINE
  5
100
100
AcDbEntity
  8
Layer_1
 62
7
100
AcDbPolyline
 90
81
 70
0
 10
0.000000
 20
0.248046
 30
0.0
 10
0.000000
 20
2.066235
 30
0.0
 10
0.000000
 20
3.884423
 30
0.0
 10
0.000000
 20
5.702612
 30
0.0
 10
0.000000
 20
7.520772
 30
0.0
 10
0.000000
 20
9.338960
 30
0.0
 10
0.000000
 20
11.157149
 30
0.0
 10
0.000000
 20
12.975337
 30
0.0
 10
0.000000
 20
14.793523
 30
0.0
 10
1.246436
 20
14.793523
 30
0.0
 10
2.492871
 20
14.793523
 30
0.0
 10
3.739307
 20
14.793523
 30
0.0
 10
4.985742
 20
14.793523
 30
0.0
 10
6.232178
 20
14.793523
 30
0.0
 10
7.478613
 20
14.793523
 30
0.0
 10
8.725049
 20
14.793523
 30
0.0
 10
9.971484
 20
14.793523
 30
0.0
 10
9.971484
 20
14.485932
 30
0.0
 10
9.971484
 20
14.178366
 30
0.0
 10
9.971484
 20
13.870772
 30
0.0
 10
9.971484
 20
13.563206
 30
0.0
 10
9.971484
 20
13.255612
 30
0.0
 10
9.971484
 20
12.948046
 30
0.0
 10
9.971484
 20
12.640452
 30
0.0
 10
9.971484
 20
12.332887
 30
0.0
 10
9.092158
 20
12.332887
 30
0.0
 10
8.212832
 20
12.332887
 30
0.0
 10
7.333506
 20
12.332887
 30
0.0
 10
6.454180
 20
12.332887
 30
0.0
 10
5.574854
 20
12.332887
 30
0.0
 10
4.695527
 20
12.332887
 30
0.0
 10
3.816201
 20
12.332887
 30
0.0
 10
2.936875
 20
12.332887
 30
0.0
 10
2.936875
 20
11.902526
 30
0.0
 10
2.936875
 20
11.472165
 30
0.0
 10
2.936875
 20
11.041805
 30
0.0
 10
2.936875
 20
10.611444
 30
0.0
 10
2.936875
 20
10.181083
 30
0.0
 10
2.936875
 20
9.750723
 30
0.0
 10
2.936875
 20
9.320362
 30
0.0
 10
2.936875
 20
8.890001
 30
0.0
 10
3.695898
 20
8.890001
 30
0.0
 10
4.454922
 20
8.890001
 30
0.0
 10
5.213945
 20
8.890001
 30
0.0
 10
5.972969
 20
8.890001
 30
0.0
 10
6.731992
 20
8.890001
 30
0.0
 10
7.491016
 20
8.890001
 30
0.0
 10
8.250039
 20
8.890001
 30
0.0
 10
9.009063
 20
8.890001
 30
0.0
 10
9.009063
 20
8.582436
 30
0.0
 10
9.009063
 20
8.274842
 30
0.0
 10
9.009063
 20
7.967276
 30
0.0
 10
9.009063
 20
7.659682
 30
0.0
 10
9.009063
 20
7.352116
 30
0.0
 10
9.009063
 20
7.044550
 30
0.0
 10
9.009063
 20
6.736956
 30
0.0
 10
9.009063
 20
6.429390
 30
0.0
 10
8.250039
 20
6.429390
 30
0.0
 10
7.491016
 20
6.429390
 30
0.0
 10
6.731992
 20
6.429390
 30
0.0
 10
5.972969
 20
6.429390
 30
0.0
 10
5.213945
 20
6.429390
 30
0.0
 10
4.454922
 20
6.429390
 30
0.0
 10
3.695898
 20
6.429390
 30
0.0
 10
2.936875
 20
6.429390
 30
0.0
 10
2.936875
 20
5.656722
 30
0.0
 10
2.936875
 20
4.884054
 30
0.0
 10
2.936875
 20
4.111386
 30
0.0
 10
2.936875
 20
3.338718
 30
0.0
 10
2.936875
 20
2.566050
 30
0.0
 10
2.936875
 20
1.793382
 30
0.0
 10
2.936875
 20
1.020714
 30
0.0
 10
2.936875
 20
0.248046
 30
0.0
 10
2.569766
 20
0.248046
 30
0.0
 10
2.202656
 20
0.248046
 30
0.0
 10
1.835547
 20
0.248046
 30
0.0
 10
1.468438
 20
0.248046
 30
0.0
 10
1.101328
 20
0.248046
 30
0.0
 10
0.734219
 20
0.248046
 30
0.0
 10
0.367109
 20
0.248046
 30
0.0
 10
0.000000
 20
0.248046
 30
0.0
  0
LWPOLYLINE
  5
101
100
AcDbEntity
  8
Layer_1
 62
7
100
AcDbPolyline
 90
161
 70
0
 10
10.054167
 20
14.793523
 30
0.0
 10
10.421276
 20
14.793523
 30
0.0
 10
10.788385
 20
14.793523
 30
0.0
 10
11.155495
 20
14.793523
 30
0.0
 10
11.522604
 20
14.793523
 30
0.0
 10
11.889713
 20
14.793523
 30
0.0
 10
12.256823
 20
14.793523
 30
0.0
 10
12.623932
 20
14.793523
 30
0.0
 10
12.991042
 20
14.793523
 30
0.0
 10
12.991042
 20
13.808768
 30
0.0
 10
12.991042
 20
12.824038
 30
0.0
 10
12.991042
 20
11.839280
 30
0.0
 10
12.991042
 20
10.854522
 30
0.0
 10
12.991042
 20
9.869792
 30
0.0
 10
12.991042
 20
8.885034
 30
0.0
 10
12.991042
 20
7.900304
 30
0.0
 10
12.991042
 20
6.915546
 30
0.0
 10
12.992735
 20
6.467349
 30
0.0
 10
12.997849
 20
6.060413
 30
0.0
 10
13.006375
 20
5.694681
 30
0.0
 10
13.018313
 20
5.370210
 30
0.0
 10
13.033660
 20
5.086972
 30
0.0
 10
13.052419
 20
4.844967
 30
0.0
 10
13.074591
 20
4.644194
 30
0.0
 10
13.100171
 20
4.484682
 30
0.0
 10
13.155360
 20
4.266863
 30
0.0
 10
13.226673
 20
4.059909
 30
0.0
 10
13.314109
 20
3.863793
 30
0.0
 10
13.417668
 20
3.678542
 30
0.0
 10
13.537351
 20
3.504129
 30
0.0
 10
13.673157
 20
3.340581
 30
0.0
 10
13.825087
 20
3.187871
 30
0.0
 10
13.993140
 20
3.046026
 30
0.0
 10
14.179793
 20
2.920465
 30
0.0
 10
14.382570
 20
2.811612
 30
0.0
 10
14.601471
 20
2.719523
 30
0.0
 10
14.836495
 20
2.644170
 30
0.0
 10
15.087642
 20
2.585580
 30
0.0
 10
15.354914
 20
2.543727
 30
0.0
 10
15.638309
 20
2.518609
 30
0.0
 10
15.937827
 20
2.510142
 30
0.0
 10
16.240752
 20
2.518044
 30
0.0
 10
16.524454
 20
2.541751
 30
0.0
 10
16.788932
 20
2.581262
 30
0.0
 10
17.034188
 20
2.636634
 30
0.0
 10
17.260221
 20
2.707782
 30
0.0
 10
17.467032
 20
2.794763
 30
0.0
 10
17.654619
 20
2.897549
 30
0.0
 10
17.822984
 20
3.016138
 30
0.0
 10
17.973824
 20
3.148698
 30
0.0
 10
18.108852
 20
3.288370
 30
0.0
 10
18.228068
 20
3.435182
 30
0.0
 10
18.331473
 20
3.589134
 30
0.0
 10
18.419065
 20
3.750198
 30
0.0
 10
18.490844
 20
3.918403
 30
0.0
 10
18.546812
 20
4.093748
 30
0.0
 10
18.586968
 20
4.276232
 30
0.0
 10
18.617196
 20
4.477626
 30
0.0
 10
18.643394
 20
4.709698
 30
0.0
 10
18.665563
 20
4.972475
 30
0.0
 10
18.683701
 20
5.265929
 30
0.0
 10
18.697810
 20
5.590090
 30
0.0
 10
18.707891
 20
5.944956
 30
0.0
 10
18.713939
 20
6.330528
 30
0.0
 10
18.715942
 20
6.746778
 30
0.0
 10
18.715942
 20
7.752618
 30
0.0
 10
18.715942
 20
8.758429
 30
0.0
 10
18.715942
 20
9.764269
 30
0.0
 10
18.715942
 20
10.770081
 30
0.0
 10
18.715942
 20
11.775921
 30
0.0
 10
18.715942
 20
12.781761
 30
0.0
 10
18.715942
 20
13.787573
 30
0.0
 10
18.715942
 20
14.793410
 30
0.0
 10
19.083052
 20
14.793410
 30
0.0
 10
19.450161
 20
14.793410
 30
0.0
 10
19.817271
 20
14.793410
 30
0.0
 10
20.184380
 20
14.793410
 30
0.0
 10
20.551489
 20
14.793410
 30
0.0
 10
20.918598
 20
14.793410
 30
0.0
 10
21.285708
 20
14.793410
 30
0.0
 10
21.652817
 20
14.793410
 30
0.0
 10
21.652817
 20
13.838429
 30
0.0
 10
21.652817
 20
12.883446
 30
0.0
 10
21.652817
 20
11.928462
 30
0.0
 10
21.652817
 20
10.973479
 30
0.0
 10
21.652817
 20
10.018523
 30
0.0
 10
21.652817
 20
9.063540
 30
0.0
 10
21.652817
 20
8.108556
 30
0.0
 10
21.652817
 20
7.153573
 30
0.0
 10
21.649095
 20
6.522750
 30
0.0
 10
21.637930
 20
5.939989
 30
0.0
 10
21.619323
 20
5.405319
 30
0.0
 10
21.593277
 20
4.918655
 30
0.0
 10
21.559791
 20
4.480082
 30
0.0
 10
21.518865
 20
4.089571
 30
0.0
 10
21.470499
 20
3.747122
 30
0.0
 10
21.414693
 20
3.452708
 30
0.0
 10
21.348801
 20
3.187617
 30
0.0
 10
21.270198
 20
2.933052
 30
0.0
 10
21.178885
 20
2.689015
 30
0.0
 10
21.074859
 20
2.455560
 30
0.0
 10
20.958123
 20
2.232605
 30
0.0
 10
20.828675
 20
2.020233
 30
0.0
 10
20.686516
 20
1.818387
 30
0.0
 10
20.531646
 20
1.627069
 30
0.0
 10
20.366071
 20
1.445685
 30
0.0
 10
20.186855
 20
1.273614
 30
0.0
 10
19.993996
 20
1.110828
 30
0.0
 10
19.787497
 20
0.957356
 30
0.0
 10
19.567356
 20
0.813168
 30
0.0
 10
19.333574
 20
0.678294
 30
0.0
 10
19.086149
 20
0.552734
 30
0.0
 10
18.825084
 20
0.436458
 30
0.0
 10
18.546958
 20
0.334124
 30
0.0
 10
18.248369
 20
0.245450
 30
0.0
 10
17.929318
 20
0.170407
 30
0.0
 10
17.589803
 20
0.109024
 30
0.0
 10
17.229826
 20
0.061272
 30
0.0
 10
16.849385
 20
0.027179
 30
0.0
 10
16.448481
 20
0.006859
 30
0.0
 10
16.027115
 20
0.000086
 30
0.0
 10
15.521872
 20
0.007424
 30
0.0
 10
15.047946
 20
0.029719
 30
0.0
 10
14.605337
 20
0.066916
 30
0.0
 10
14.194044
 20
0.119014
 30
0.0
 10
13.814068
 20
0.185986
 30
0.0
 10
13.465408
 20
0.267830
 30
0.0
 10
13.148064
 20
0.364576
 30
0.0
 10
12.862037
 20
0.476195
 30
0.0
 10
12.601121
 20
0.602094
 30
0.0
 10
12.354159
 20
0.736658
 30
0.0
 10
12.121149
 20
0.879886
 30
0.0
 10
11.902093
 20
1.031834
 30
0.0
 10
11.696989
 20
1.192447
 30
0.0
 10
11.505839
 20
1.361724
 30
0.0
 10
11.328641
 20
1.539693
 30
0.0
 10
11.165396
 20
1.726355
 30
0.0
 10
11.015792
 20
1.920919
 30
0.0
 10
10.879521
 20
2.117656
 30
0.0
 10
10.756583
 20
2.316538
 30
0.0
 10
10.646977
 20
2.517621
 30
0.0
 10
10.550704
 20
2.720878
 30
0.0
 10
10.467763
 20
2.926279
 30
0.0
 10
10.398155
 20
3.133882
 30
0.0
 10
10.341880
 20
3.343629
 30
0.0
 10
10.274442
 20
3.674760
 30
0.0
 10
10.215996
 20
4.043117
 30
0.0
 10
10.166541
 20
4.448670
 30
0.0
 10
10.126079
 20
4.891449
 30
0.0
 10
10.094608
 20
5.371396
 30
0.0
 10
10.072129
 20
5.888596
 30
0.0
 10
10.058641
 20
6.442965
 30
0.0
 10
10.054146
 20
7.034560
 30
0.0
 10
10.054146
 20
8.004416
 30
0.0
 10
10.054146
 20
8.974273
 30
0.0
 10
10.054146
 20
9.944158
 30
0.0
 10
10.054146
 20
10.914014
 30
0.0
 10
10.054146
 20
11.883871
 30
0.0
 10
10.054146
 20
12.853728
 30
0.0
 10
10.054146
 20
13.823613
 30
0.0
 10
10.054146
 20
14.793467
 30
0.0
  0
LWPOLYLINE
  5
102
100
AcDbEntity
  8
Layer_1
 62
7
100
AcDbPolyline
 90
145
 70
0
 10
31.736772
 20
5.595932
 30
0.0
 10
32.092719
 20
5.483071
 30
0.0
 10
32.448667
 20
5.370210
 30
0.0
 10
32.804614
 20
5.257350
 30
0.0
 10
33.160561
 20
5.144489
 30
0.0
 10
33.516508
 20
5.031628
 30
0.0
 10
33.872455
 20
4.918768
 30
0.0
 10
34.228402
 20
4.805907
 30
0.0
 10
34.584349
 20
4.693046
 30
0.0
 10
34.406992
 20
4.116805
 30
0.0
 10
34.202350
 20
3.578692
 30
0.0
 10
33.970423
 20
3.078735
 30
0.0
 10
33.711213
 20
2.616879
 30
0.0
 10
33.424721
 20
2.193207
 30
0.0
 10
33.110943
 20
1.807635
 30
0.0
 10
32.769881
 20
1.460219
 30
0.0
 10
32.401535
 20
1.150932
 30
0.0
 10
32.009153
 20
0.881184
 30
0.0
 10
31.591038
 20
0.647391
 30
0.0
 10
31.147187
 20
0.449581
 30
0.0
 10
30.677604
 20
0.287727
 30
0.0
 10
30.182284
 20
0.161856
 30
0.0
 10
29.661234
 20
0.071940
 30
0.0
 10
29.114448
 20
0.017979
 30
0.0
 10
28.541926
 20
-0.000083
 30
0.0
 10
27.833751
 20
0.030764
 30
0.0
 10
27.157822
 20
0.123332
 30
0.0
 10
26.514140
 20
0.277567
 30
0.0
 10
25.902704
 20
0.493523
 30
0.0
 10
25.323516
 20
0.771174
 30
0.0
 10
24.776573
 20
1.110546
 30
0.0
 10
24.261877
 20
1.511612
 30
0.0
 10
23.779427
 20
1.974372
 30
0.0
 10
23.342244
 20
2.493096
 30
0.0
 10
22.963352
 20
3.057089
 30
0.0
 10
22.642751
 20
3.666350
 30
0.0
 10
22.380442
 20
4.320880
 30
0.0
 10
22.176423
 20
5.020678
 30
0.0
 10
22.030696
 20
5.765773
 30
0.0
 10
21.943260
 20
6.556108
 30
0.0
 10
21.914114
 20
7.391712
 30
0.0
 10
21.943415
 20
8.274136
 30
0.0
 10
22.031317
 20
9.105704
 30
0.0
 10
22.177819
 20
9.886443
 30
0.0
 10
22.382923
 20
10.616326
 30
0.0
 10
22.646628
 20
11.295353
 30
0.0
 10
22.968934
 20
11.923523
 30
0.0
 10
23.349841
 20
12.500865
 30
0.0
 10
23.789349
 20
13.027351
 30
0.0
 10
24.276605
 20
13.499396
 30
0.0
 10
24.800758
 20
13.908533
 30
0.0
 10
25.361808
 20
14.254707
 30
0.0
 10
25.959756
 20
14.537945
 30
0.0
 10
26.594601
 20
14.758220
 30
0.0
 10
27.266344
 20
14.915590
 30
0.0
 10
27.974984
 20
15.010007
 30
0.0
 10
28.720522
 20
15.041483
 30
0.0
 10
29.372106
 20
15.016817
 30
0.0
 10
29.992376
 20
14.942866
 30
0.0
 10
30.581332
 20
14.819617
 30
0.0
 10
31.138972
 20
14.647069
 30
0.0
 10
31.665297
 20
14.425214
 30
0.0
 10
32.160306
 20
14.154084
 30
0.0
 10
32.624000
 20
13.833620
 30
0.0
 10
33.056381
 20
13.463881
 30
0.0
 10
33.296671
 20
13.218009
 30
0.0
 10
33.521461
 20
12.946709
 30
0.0
 10
33.730748
 20
12.649980
 30
0.0
 10
33.924534
 20
12.327824
 30
0.0
 10
34.102819
 20
11.980267
 30
0.0
 10
34.265602
 20
11.607254
 30
0.0
 10
34.412882
 20
11.208841
 30
0.0
 10
34.544660
 20
10.784999
 30
0.0
 10
34.181271
 20
10.698188
 30
0.0
 10
33.817885
 20
10.611376
 30
0.0
 10
33.454495
 20
10.524536
 30
0.0
 10
33.091106
 20
10.437725
 30
0.0
 10
32.727717
 20
10.350913
 30
0.0
 10
32.364327
 20
10.264102
 30
0.0
 10
32.000941
 20
10.177262
 30
0.0
 10
31.637551
 20
10.090450
 30
0.0
 10
31.564219
 20
10.365786
 30
0.0
 10
31.473216
 20
10.626221
 30
0.0
 10
31.364538
 20
10.871811
 30
0.0
 10
31.238190
 20
11.102471
 30
0.0
 10
31.094166
 20
11.318286
 30
0.0
 10
30.932473
 20
11.519200
 30
0.0
 10
30.753106
 20
11.705213
 30
0.0
 10
30.556067
 20
11.876381
 30
0.0
 10
30.347085
 20
12.029853
 30
0.0
 10
30.126940
 20
12.162865
 30
0.0
 10
29.895636
 20
12.275443
 30
0.0
 10
29.653171
 20
12.367532
 30
0.0
 10
29.399543
 20
12.439132
 30
0.0
 10
29.134754
 20
12.490299
 30
0.0
 10
28.858805
 20
12.521005
 30
0.0
 10
28.571692
 20
12.531165
 30
0.0
 10
28.176831
 20
12.513102
 30
0.0
 10
27.800883
 20
12.458690
 30
0.0
 10
27.443850
 20
12.367984
 30
0.0
 10
27.105731
 20
12.241012
 30
0.0
 10
26.786526
 20
12.077775
 30
0.0
 10
26.486235
 20
11.878244
 30
0.0
 10
26.204859
 20
11.642447
 30
0.0
 10
25.942396
 20
11.370385
 30
0.0
 10
25.707525
 20
11.057682
 30
0.0
 10
25.503971
 20
10.700050
 30
0.0
 10
25.331732
 20
10.297432
 30
0.0
 10
25.190811
 20
9.849856
 30
0.0
 10
25.081205
 20
9.357322
 30
0.0
 10
25.002916
 20
8.819858
 30
0.0
 10
24.955943
 20
8.237408
 30
0.0
 10
24.940285
 20
7.609999
 30
0.0
 10
24.955791
 20
6.945225
 30
0.0
 10
25.002300
 20
6.330065
 30
0.0
 10
25.079814
 20
5.764520
 30
0.0
 10
25.188334
 20
5.248590
 30
0.0
 10
25.327859
 20
4.782246
 30
0.0
 10
25.498391
 20
4.365544
 30
0.0
 10
25.699929
 20
3.998430
 30
0.0
 10
25.932474
 20
3.680930
 30
0.0
 10
26.189823
 20
3.406525
 30
0.0
 10
26.465774
 20
3.168725
 30
0.0
 10
26.760329
 20
2.967472
 30
0.0
 10
27.073487
 20
2.802852
 30
0.0
 10
27.405250
 20
2.674779
 30
0.0
 10
27.755616
 20
2.583311
 30
0.0
 10
28.124586
 20
2.528419
 30
0.0
 10
28.512161
 20
2.510074
 30
0.0
 10
28.799737
 20
2.521646
 30
0.0
 10
29.077082
 20
2.556528
 30
0.0
 10
29.344197
 20
2.614666
 30
0.0
 10
29.601081
 20
2.696059
 30
0.0
 10
29.847732
 20
2.800707
 30
0.0
 10
30.084153
 20
2.928610
 30
0.0
 10
30.310342
 20
3.079768
 30
0.0
 10
30.526302
 20
3.254182
 30
0.0
 10
30.729696
 20
3.453543
 30
0.0
 10
30.918207
 20
3.679575
 30
0.0
 10
31.091838
 20
3.932277
 30
0.0
 10
31.250588
 20
4.211649
 30
0.0
 10
31.394457
 20
4.517662
 30
0.0
 10
31.523444
 20
4.850346
 30
0.0
 10
31.637549
 20
5.209699
 30
0.0
 10
31.736773
 20
5.595723
 30
0.0
  0
LWPOLYLINE
  5
103
100
AcDbEntity
  8
Layer_1
 62
7
100
AcDbPolyline
 90
97
 70
0
 10
34.825782
 20
0.248046
 30
0.0
 10
34.825782
 20
2.066235
 30
0.0
 10
34.825782
 20
3.884423
 30
0.0
 10
34.825782
 20
5.702612
 30
0.0
 10
34.825782
 20
7.520772
 30
0.0
 10
34.825782
 20
9.338960
 30
0.0
 10
34.825782
 20
11.157149
 30
0.0
 10
34.825782
 20
12.975337
 30
0.0
 10
34.825782
 20
14.793523
 30
0.0
 10
35.192891
 20
14.793523
 30
0.0
 10
35.560000
 20
14.793523
 30
0.0
 10
35.927109
 20
14.793523
 30
0.0
 10
36.294218
 20
14.793523
 30
0.0
 10
36.661330
 20
14.793523
 30
0.0
 10
37.028439
 20
14.793523
 30
0.0
 10
37.395548
 20
14.793523
 30
0.0
 10
37.762657
 20
14.793523
 30
0.0
 10
37.762657
 20
13.986144
 30
0.0
 10
37.762657
 20
13.178735
 30
0.0
 10
37.762657
 20
12.371354
 30
0.0
 10
37.762657
 20
11.563944
 30
0.0
 10
37.762657
 20
10.756563
 30
0.0
 10
37.762657
 20
9.949181
 30
0.0
 10
37.762657
 20
9.141772
 30
0.0
 10
37.762657
 20
8.334390
 30
0.0
 10
38.504317
 20
9.141772
 30
0.0
 10
39.245977
 20
9.949181
 30
0.0
 10
39.987638
 20
10.756563
 30
0.0
 10
40.729295
 20
11.563944
 30
0.0
 10
41.470955
 20
12.371354
 30
0.0
 10
42.212616
 20
13.178735
 30
0.0
 10
42.954276
 20
13.986144
 30
0.0
 10
43.695936
 20
14.793523
 30
0.0
 10
44.189548
 20
14.793523
 30
0.0
 10
44.683164
 20
14.793523
 30
0.0
 10
45.176776
 20
14.793523
 30
0.0
 10
45.670388
 20
14.793523
 30
0.0
 10
46.164003
 20
14.793523
 30
0.0
 10
46.657616
 20
14.793523
 30
0.0
 10
47.151231
 20
14.793523
 30
0.0
 10
47.644843
 20
14.793523
 30
0.0
 10
46.960234
 20
14.085346
 30
0.0
 10
46.275625
 20
13.377165
 30
0.0
 10
45.591016
 20
12.669013
 30
0.0
 10
44.906404
 20
11.960833
 30
0.0
 10
44.221795
 20
11.252653
 30
0.0
 10
43.537186
 20
10.544473
 30
0.0
 10
42.852577
 20
9.836321
 30
0.0
 10
42.167968
 20
9.128140
 30
0.0
 10
42.889785
 20
8.018132
 30
0.0
 10
43.611600
 20
6.908124
 30
0.0
 10
44.333417
 20
5.798116
 30
0.0
 10
45.055234
 20
4.688079
 30
0.0
 10
45.777051
 20
3.578071
 30
0.0
 10
46.498866
 20
2.468063
 30
0.0
 10
47.220683
 20
1.358055
 30
0.0
 10
47.942500
 20
0.248046
 30
0.0
 10
47.467489
 20
0.248046
 30
0.0
 10
46.992481
 20
0.248046
 30
0.0
 10
46.517470
 20
0.248046
 30
0.0
 10
46.042461
 20
0.248046
 30
0.0
 10
45.567450
 20
0.248046
 30
0.0
 10
45.092442
 20
0.248046
 30
0.0
 10
44.617431
 20
0.248046
 30
0.0
 10
44.142423
 20
0.248046
 30
0.0
 10
43.642607
 20
1.101317
 30
0.0
 10
43.142795
 20
1.954616
 30
0.0
 10
42.642979
 20
2.807887
 30
0.0
 10
42.143164
 20
3.661157
 30
0.0
 10
41.643351
 20
4.514456
 30
0.0
 10
41.143535
 20
5.367727
 30
0.0
 10
40.643723
 20
6.221026
 30
0.0
 10
40.143907
 20
7.074296
 30
0.0
 10
39.846250
 20
6.770428
 30
0.0
 10
39.548593
 20
6.466587
 30
0.0
 10
39.250939
 20
6.162719
 30
0.0
 10
38.953282
 20
5.858850
 30
0.0
 10
38.655625
 20
5.555010
 30
0.0
 10
38.357968
 20
5.251141
 30
0.0
 10
38.060314
 20
4.947300
 30
0.0
 10
37.762657
 20
4.643432
 30
0.0
 10
37.762657
 20
4.094002
 30
0.0
 10
37.762657
 20
3.544571
 30
0.0
 10
37.762657
 20
2.995169
 30
0.0
 10
37.762657
 20
2.445739
 30
0.0
 10
37.762657
 20
1.896309
 30
0.0
 10
37.762657
 20
1.346879
 30
0.0
 10
37.762657
 20
0.797477
 30
0.0
 10
37.762657
 20
0.248046
 30
0.0
 10
37.395548
 20
0.248046
 30
0.0
 10
37.028439
 20
0.248046
 30
0.0
 10
36.661330
 20
0.248046
 30
0.0
 10
36.294218
 20
0.248046
 30
0.0
 10
35.927109
 20
0.248046
 30
0.0
 10
35.560000
 20
0.248046
 30
0.0
 10
35.192891
 20
0.248046
 30
0.0
 10
34.825782
 20
0.248046
 30
0.0
  0
ENDSEC
  0
SECTION
  2
OBJECTS
  0
DICTIONARY
  5
C
330
0
100
AcDbDictionary
  3
ACAD_GROUP
350
D
  3
ACAD_MLINESTYLE
350
17
  0
DICTIONARY
  5
D
330
C
100
AcDbDictionary
  0
DICTIONARY
  5
1A
330
C
100
AcDbDictionary
  0
DICTIONARY
  5
17
330
C
100
AcDbDictionary
  3
STANDARD
350
18
  0
DICTIONARY
  5
19
330
C
100
AcDbDictionary
  0
ENDSEC
  0
EOF
