  0
SECTION
  2
HEADER
  9
$ACADVER
  1
AC1014
  9
$HANDSEED
  5
FFFF
  9
$MEASUREMENT
 70
     1
  0
ENDSEC
  0
SECTION
  2
TABLES
  0
TABLE
  2
VPORT
  5
8
330
0
100
AcDbSymbolTable
 70
     4
  0
VPORT
  5
2E
330
8
100
AcDbSymbolTableRecord
100
AcDbViewportTableRecord
  2
*ACTIVE
 70
     0
 10
0.0
 20
0.0
 11
1.0
 21
1.0
 12
210.0
 22
148.5
 13
0.0
 23
0.0
 14
10.0
 24
10.0
 15
10.0
 25
10.0
 16
0.0
 26
0.0
 36
1.0
 17
0.0
 27
0.0
 37
0.0
 40
341.0
 41
1.24
 42
50.0
 43
0.0
 44
0.0
 50
0.0
 51
0.0
 71
     0
 72
   100
 73
     1
 74
     3
 75
     0
 76
     0
 77
     0
 78
     0
  0
ENDTAB
  0
TABLE
  2
LTYPE
  5
5
330
0
100
AcDbSymbolTable
 70
     1
  0
LTYPE
  5
14
330
5
100
AcDbSymbolTableRecord
100
AcDbLinetypeTableRecord
  2
BYBLOCK
 70
     0
  3

 72
    65
 73
     0
 40
0.0
  0
LTYPE
  5
15
330
5
100
AcDbSymbolTableRecord
100
AcDbLinetypeTableRecord
  2
BYLAYER
 70
     0
  3

 72
    65
 73
     0
 40
0.0
  0
LTYPE
  5
16
330
5
100
AcDbSymbolTableRecord
100
AcDbLinetypeTableRecord
  2
CONTINUOUS
 70
     0
  3
Solid line
 72
    65
 73
     0
 40
0.0
  0
ENDTAB
  0
TABLE
  2
LAYER
  5
2
100
AcDbSymbolTable
 70
2
  0
LAYER
  5
50
100
AcDbSymbolTableRecord
100
AcDbLayerTableRecord
  2
0
 70
0
  6
CONTINUOUS
  0
LAYER
  5
51
100
AcDbSymbolTableRecord
100
AcDbLayerTableRecord
  2
Layer_1
 70
0
  6
CONTINUOUS
  0
ENDTAB
  0
TABLE
  2
STYLE
  5
3
330
0
100
AcDbSymbolTable
 70
     1
  0
STYLE
  5
11
330
3
100
AcDbSymbolTableRecord
100
AcDbTextStyleTableRecord
  2
STANDARD
 70
     0
 40
0.0
 41
1.0
 50
0.0
 71
     0
 42
2.5
  3
txt
  4

  0
ENDTAB
  0
TABLE
  2
VIEW
  5
6
330
0
100
AcDbSymbolTable
 70
     0
  0
ENDTAB
  0
TABLE
  2
UCS
  5
7
330
0
100
AcDbSymbolTable
 70
     0
  0
ENDTAB
  0
TABLE
  2
APPID
  5
9
330
0
100
AcDbSymbolTable
 70
     2
  0
APPID
  5
12
330
9
100
AcDbSymbolTableRecord
100
AcDbRegAppTableRecord
  2
ACAD
 70
     0
  0
ENDTAB
  0
TABLE
  2
DIMSTYLE
  5
A
330
0
100
AcDbSymbolTable
 70
     1
  0
DIMSTYLE
105
27
330
A
100
AcDbSymbolTableRecord
100
AcDbDimStyleTableRecord
  2
ISO-25
 70
     0
  3

  4

  5

  6

  7

 40
1.0
 41
2.5
 42
0.625
 43
3.75
 44
1.25
 45
0.0
 46
0.0
 47
0.0
 48
0.0
140
2.5
141
2.5
142
0.0
143
0.03937007874016
144
1.0
145
0.0
146
1.0
147
0.625
 71
     0
 72
     0
 73
     0
 74
     0
 75
     0
 76
     0
 77
     1
 78
     8
170
     0
171
     3
172
     1
173
     0
174
     0
175
     0
176
     0
177
     0
178
     0
270
     2
271
     2
272
     2
273
     2
274
     3
340
11
275
     0
280
     0
281
     0
282
     0
283
     0
284
     8
285
     0
286
     0
287
     3
288
     0
  0
ENDTAB
  0
TABLE
  2
BLOCK_RECORD
  5
1
330
0
100
AcDbSymbolTable
 70
     1
  0
BLOCK_RECORD
  5
1F
330
1
100
AcDbSymbolTableRecord
100
AcDbBlockTableRecord
  2
*MODEL_SPACE
  0
BLOCK_RECORD
  5
1B
330
1
100
AcDbSymbolTableRecord
100
AcDbBlockTableRecord
  2
*PAPER_SPACE
  0
ENDTAB
  0
ENDSEC
  0
SECTION
  2
BLOCKS
  0
BLOCK
  5
20
330
1F
100
AcDbEntity
  8
0
100
AcDbBlockBegin
  2
*MODEL_SPACE
 70
     0
 10
0.0
 20
0.0
 30
0.0
  3
*MODEL_SPACE
  1

  0
ENDBLK
  5
21
330
1F
100
AcDbEntity
  8
0
100
AcDbBlockEnd
  0
BLOCK
  5
1C
330
1B
100
AcDbEntity
 67
     1
  8
0
100
AcDbBlockBegin
  2
*PAPER_SPACE
  1

  0
ENDBLK
  5
1D
330
1B
100
AcDbEntity
 67
     1
  8
0
100
AcDbBlockEnd
  0
ENDSEC
  0
SECTION
  2
ENTITIES
  0
LWPOLYLINE
  5
100
100
AcDbEntity
  8
Layer_1
 62
7
100
AcDbPolyline
 90
81
 70
0
 10
0.000000
 20
14.793523
 30
0.0
 10
0.524619
 20
14.793523
 30
0.0
 10
1.049238
 20
14.793523
 30
0.0
 10
1.573857
 20
14.793523
 30
0.0
 10
2.098477
 20
14.793523
 30
0.0
 10
2.623096
 20
14.793523
 30
0.0
 10
3.147715
 20
14.793523
 30
0.0
 10
3.672334
 20
14.793523
 30
0.0
 10
4.196953
 20
14.793523
 30
0.0
 10
4.881562
 20
13.787686
 30
0.0
 10
5.566172
 20
12.781874
 30
0.0
 10
6.250781
 20
11.776034
 30
0.0
 10
6.935391
 20
10.770194
 30
0.0
 10
7.620000
 20
9.764382
 30
0.0
 10
8.304609
 20
8.758542
 30
0.0
 10
8.989219
 20
7.752730
 30
0.0
 10
9.673828
 20
6.746890
 30
0.0
 10
9.673828
 20
7.752730
 30
0.0
 10
9.673828
 20
8.758542
 30
0.0
 10
9.673828
 20
9.764382
 30
0.0
 10
9.673828
 20
10.770194
 30
0.0
 10
9.673828
 20
11.776034
 30
0.0
 10
9.673828
 20
12.781874
 30
0.0
 10
9.673828
 20
13.787686
 30
0.0
 10
9.673828
 20
14.793523
 30
0.0
 10
10.203408
 20
14.793523
 30
0.0
 10
10.732988
 20
14.793523
 30
0.0
 10
11.262568
 20
14.793523
 30
0.0
 10
11.792148
 20
14.793523
 30
0.0
 10
12.321729
 20
14.793523
 30
0.0
 10
12.851308
 20
14.793523
 30
0.0
 10
13.380888
 20
14.793523
 30
0.0
 10
13.910469
 20
14.793523
 30
0.0
 10
13.910469
 20
12.975337
 30
0.0
 10
13.910469
 20
11.157149
 30
0.0
 10
13.910469
 20
9.338960
 30
0.0
 10
13.910469
 20
7.520772
 30
0.0
 10
13.910469
 20
5.702612
 30
0.0
 10
13.910469
 20
3.884423
 30
0.0
 10
13.910469
 20
2.066235
 30
0.0
 10
13.910469
 20
0.248046
 30
0.0
 10
13.380888
 20
0.248046
 30
0.0
 10
12.851308
 20
0.248046
 30
0.0
 10
12.321729
 20
0.248046
 30
0.0
 10
11.792148
 20
0.248046
 30
0.0
 10
11.262568
 20
0.248046
 30
0.0
 10
10.732988
 20
0.248046
 30
0.0
 10
10.203408
 20
0.248046
 30
0.0
 10
9.673828
 20
0.248046
 30
0.0
 10
8.992939
 20
1.246436
 30
0.0
 10
8.312051
 20
2.244825
 30
0.0
 10
7.631162
 20
3.243214
 30
0.0
 10
6.950273
 20
4.241604
 30
0.0
 10
6.269385
 20
5.239993
 30
0.0
 10
5.588496
 20
6.238382
 30
0.0
 10
4.907608
 20
7.236772
 30
0.0
 10
4.226719
 20
8.235161
 30
0.0
 10
4.226719
 20
7.236772
 30
0.0
 10
4.226719
 20
6.238382
 30
0.0
 10
4.226719
 20
5.239993
 30
0.0
 10
4.226719
 20
4.241604
 30
0.0
 10
4.226719
 20
3.243214
 30
0.0
 10
4.226719
 20
2.244825
 30
0.0
 10
4.226719
 20
1.246436
 30
0.0
 10
4.226719
 20
0.248046
 30
0.0
 10
3.698379
 20
0.248046
 30
0.0
 10
3.170039
 20
0.248046
 30
0.0
 10
2.641699
 20
0.248046
 30
0.0
 10
2.113359
 20
0.248046
 30
0.0
 10
1.585020
 20
0.248046
 30
0.0
 10
1.056680
 20
0.248046
 30
0.0
 10
0.528340
 20
0.248046
 30
0.0
 10
0.000000
 20
0.248046
 30
0.0
 10
0.000000
 20
2.066235
 30
0.0
 10
0.000000
 20
3.884423
 30
0.0
 10
0.000000
 20
5.702612
 30
0.0
 10
0.000000
 20
7.520772
 30
0.0
 10
0.000000
 20
9.338960
 30
0.0
 10
0.000000
 20
11.157149
 30
0.0
 10
0.000000
 20
12.975337
 30
0.0
 10
0.000000
 20
14.793523
 30
0.0
  0
LWPOLYLINE
  5
101
100
AcDbEntity
  8
Layer_1
 62
7
100
AcDbPolyline
 90
81
 70
0
 10
14.657917
 20
7.510866
 30
0.0
 10
14.688922
 20
8.376696
 30
0.0
 10
14.781940
 20
9.193221
 30
0.0
 10
14.936969
 20
9.960470
 30
0.0
 10
15.154009
 20
10.678415
 30
0.0
 10
15.433062
 20
11.347056
 30
0.0
 10
15.774127
 20
11.966393
 30
0.0
 10
16.177203
 20
12.536425
 30
0.0
 10
16.642292
 20
13.057182
 30
0.0
 10
17.162724
 20
13.522256
 30
0.0
 10
17.731836
 20
13.925354
 30
0.0
 10
18.349627
 20
14.266419
 30
0.0
 10
19.016097
 20
14.545452
 30
0.0
 10
19.731247
 20
14.762510
 30
0.0
 10
20.495077
 20
14.917537
 30
0.0
 10
21.307586
 20
15.010557
 30
0.0
 10
22.168776
 20
15.041568
 30
0.0
 10
23.050579
 20
15.011023
 30
0.0
 10
23.880293
 20
14.919394
 30
0.0
 10
24.657918
 20
14.766686
 30
0.0
 10
25.383455
 20
14.552903
 30
0.0
 10
26.056902
 20
14.278019
 30
0.0
 10
26.678261
 20
13.942090
 30
0.0
 10
27.247532
 20
13.545059
 30
0.0
 10
27.764713
 20
13.086956
 30
0.0
 10
28.225146
 20
12.576275
 30
0.0
 10
28.624189
 20
12.016628
 30
0.0
 10
28.961839
 20
11.407988
 30
0.0
 10
29.238101
 20
10.750354
 30
0.0
 10
29.452971
 20
10.043726
 30
0.0
 10
29.606452
 20
9.288104
 30
0.0
 10
29.698544
 20
8.483517
 30
0.0
 10
29.729244
 20
7.629936
 30
0.0
 10
29.715754
 20
7.006704
 30
0.0
 10
29.675288
 20
6.412006
 30
0.0
 10
29.607849
 20
5.845840
 30
0.0
 10
29.513434
 20
5.308206
 30
0.0
 10
29.392047
 20
4.799077
 30
0.0
 10
29.243689
 20
4.318481
 30
0.0
 10
29.068353
 20
3.866418
 30
0.0
 10
28.866044
 20
3.442887
 30
0.0
 10
28.640628
 20
3.047268
 30
0.0
 10
28.391025
 20
2.673944
 30
0.0
 10
28.117243
 20
2.322972
 30
0.0
 10
27.819276
 20
1.994296
 30
0.0
 10
27.497126
 20
1.687972
 30
0.0
 10
27.150792
 20
1.403944
 30
0.0
 10
26.780276
 20
1.142268
 30
0.0
 10
26.385576
 20
0.902887
 30
0.0
 10
25.968698
 20
0.691276
 30
0.0
 10
25.526707
 20
0.507860
 30
0.0
 10
25.059602
 20
0.352694
 30
0.0
 10
24.567384
 20
0.225723
 30
0.0
 10
24.050052
 20
0.126973
 30
0.0
 10
23.507606
 20
0.056418
 30
0.0
 10
22.940046
 20
0.014112
 30
0.0
 10
22.347373
 20
0.000001
 30
0.0
 10
21.745392
 20
0.012137
 30
0.0
 10
21.169766
 20
0.048882
 30
0.0
 10
20.620497
 20
0.110124
 30
0.0
 10
20.097583
 20
0.195835
 30
0.0
 10
19.601024
 20
0.306071
 30
0.0
 10
19.130821
 20
0.440804
 30
0.0
 10
18.686974
 20
0.600006
 30
0.0
 10
18.269482
 20
0.783732
 30
0.0
 10
17.877102
 20
0.993960
 30
0.0
 10
17.503636
 20
1.232692
 30
0.0
 10
17.149083
 20
1.499956
 30
0.0
 10
16.813444
 20
1.795753
 30
0.0
 10
16.496720
 20
2.120083
 30
0.0
 10
16.198909
 20
2.472917
 30
0.0
 10
15.920012
 20
2.854284
 30
0.0
 10
15.660029
 20
3.264184
 30
0.0
 10
15.425160
 20
3.701684
 30
0.0
 10
15.221606
 20
4.165827
 30
0.0
 10
15.049369
 20
4.656640
 30
0.0
 10
14.908447
 20
5.174151
 30
0.0
 10
14.798841
 20
5.718303
 30
0.0
 10
14.720551
 20
6.289126
 30
0.0
 10
14.673577
 20
6.886590
 30
0.0
 10
14.657919
 20
7.510753
 30
0.0
  0
LWPOLYLINE
  5
102
100
AcDbEntity
  8
Layer_1
 62
7
100
AcDbPolyline
 90
65
 70
0
 10
19.152529
 20
7.490998
 30
0.0
 10
19.165240
 20
6.959714
 30
0.0
 10
19.203376
 20
6.467180
 30
0.0
 10
19.266937
 20
6.013395
 30
0.0
 10
19.355924
 20
5.598387
 30
0.0
 10
19.470336
 20
5.222128
 30
0.0
 10
19.610173
 20
4.884647
 30
0.0
 10
19.775435
 20
4.585887
 30
0.0
 10
19.966123
 20
4.325904
 30
0.0
 10
20.181147
 20
4.100352
 30
0.0
 10
20.414464
 20
3.904856
 30
0.0
 10
20.666076
 20
3.739446
 30
0.0
 10
20.935981
 20
3.604092
 30
0.0
 10
21.224181
 20
3.498823
 30
0.0
 10
21.530675
 20
3.423639
 30
0.0
 10
21.855463
 20
3.378540
 30
0.0
 10
22.198545
 20
3.363582
 30
0.0
 10
22.550458
 20
3.378258
 30
0.0
 10
22.881909
 20
3.422426
 30
0.0
 10
23.192896
 20
3.496086
 30
0.0
 10
23.483420
 20
3.599181
 30
0.0
 10
23.753482
 20
3.731713
 30
0.0
 10
24.003080
 20
3.893737
 30
0.0
 10
24.232216
 20
4.085168
 30
0.0
 10
24.440889
 20
4.306092
 30
0.0
 10
24.626920
 20
4.565143
 30
0.0
 10
24.788148
 20
4.871016
 30
0.0
 10
24.924572
 20
5.223709
 30
0.0
 10
25.036193
 20
5.623223
 30
0.0
 10
25.123010
 20
6.069557
 30
0.0
 10
25.185023
 20
6.562712
 30
0.0
 10
25.222233
 20
7.102660
 30
0.0
 10
25.234639
 20
7.689456
 30
0.0
 10
25.221612
 20
8.185546
 30
0.0
 10
25.182542
 20
8.646895
 30
0.0
 10
25.117428
 20
9.073559
 30
0.0
 10
25.026270
 20
9.465452
 30
0.0
 10
24.909069
 20
9.822661
 30
0.0
 10
24.765823
 20
10.145128
 30
0.0
 10
24.596534
 20
10.432854
 30
0.0
 10
24.401201
 20
10.685866
 30
0.0
 10
24.186017
 20
10.909104
 30
0.0
 10
23.952230
 20
11.102595
 30
0.0
 10
23.699841
 20
11.266284
 30
0.0
 10
23.428850
 20
11.400255
 30
0.0
 10
23.139256
 20
11.504423
 30
0.0
 10
22.831059
 20
11.578845
 30
0.0
 10
22.504259
 20
11.623493
 30
0.0
 10
22.158857
 20
11.638451
 30
0.0
 10
21.827402
 20
11.623493
 30
0.0
 10
21.512691
 20
11.578394
 30
0.0
 10
21.214723
 20
11.503182
 30
0.0
 10
20.933500
 20
11.397913
 30
0.0
 10
20.669021
 20
11.262587
 30
0.0
 10
20.421285
 20
11.097148
 30
0.0
 10
20.190293
 20
10.901653
 30
0.0
 10
19.976044
 20
10.676101
 30
0.0
 10
19.783033
 20
10.415808
 30
0.0
 10
19.615756
 20
10.116144
 30
0.0
 10
19.474214
 20
9.777082
 30
0.0
 10
19.358406
 20
9.398679
 30
0.0
 10
19.268334
 20
8.980877
 30
0.0
 10
19.203997
 20
8.523677
 30
0.0
 10
19.165395
 20
8.027135
 30
0.0
 10
19.152528
 20
7.491195
 30
0.0
  0
ENDSEC
  0
SECTION
  2
OBJECTS
  0
DICTIONARY
  5
C
330
0
100
AcDbDictionary
  3
ACAD_GROUP
350
D
  3
ACAD_MLINESTYLE
350
17
  0
DICTIONARY
  5
D
330
C
100
AcDbDictionary
  0
DICTIONARY
  5
1A
330
C
100
AcDbDictionary
  0
DICTIONARY
  5
17
330
C
100
AcDbDictionary
  3
STANDARD
350
18
  0
DICTIONARY
  5
19
330
C
100
AcDbDictionary
  0
ENDSEC
  0
EOF
