  0
SECTION
  2
HEADER
  9
$ACADVER
  1
AC1014
  9
$HANDSEED
  5
FFFF
  9
$MEASUREMENT
 70
     1
  0
ENDSEC
  0
SECTION
  2
TABLES
  0
TABLE
  2
VPORT
  5
8
330
0
100
AcDbSymbolTable
 70
     4
  0
VPORT
  5
2E
330
8
100
AcDbSymbolTableRecord
100
AcDbViewportTableRecord
  2
*ACTIVE
 70
     0
 10
0.0
 20
0.0
 11
1.0
 21
1.0
 12
210.0
 22
148.5
 13
0.0
 23
0.0
 14
10.0
 24
10.0
 15
10.0
 25
10.0
 16
0.0
 26
0.0
 36
1.0
 17
0.0
 27
0.0
 37
0.0
 40
341.0
 41
1.24
 42
50.0
 43
0.0
 44
0.0
 50
0.0
 51
0.0
 71
     0
 72
   100
 73
     1
 74
     3
 75
     0
 76
     0
 77
     0
 78
     0
  0
ENDTAB
  0
TABLE
  2
LTYPE
  5
5
330
0
100
AcDbSymbolTable
 70
     1
  0
LTYPE
  5
14
330
5
100
AcDbSymbolTableRecord
100
AcDbLinetypeTableRecord
  2
BYBLOCK
 70
     0
  3

 72
    65
 73
     0
 40
0.0
  0
LTYPE
  5
15
330
5
100
AcDbSymbolTableRecord
100
AcDbLinetypeTableRecord
  2
BYLAYER
 70
     0
  3

 72
    65
 73
     0
 40
0.0
  0
LTYPE
  5
16
330
5
100
AcDbSymbolTableRecord
100
AcDbLinetypeTableRecord
  2
CONTINUOUS
 70
     0
  3
Solid line
 72
    65
 73
     0
 40
0.0
  0
ENDTAB
  0
TABLE
  2
LAYER
  5
2
100
AcDbSymbolTable
 70
2
  0
LAYER
  5
50
100
AcDbSymbolTableRecord
100
AcDbLayerTableRecord
  2
0
 70
0
  6
CONTINUOUS
  0
LAYER
  5
51
100
AcDbSymbolTableRecord
100
AcDbLayerTableRecord
  2
Layer_1
 70
0
  6
CONTINUOUS
  0
ENDTAB
  0
TABLE
  2
STYLE
  5
3
330
0
100
AcDbSymbolTable
 70
     1
  0
STYLE
  5
11
330
3
100
AcDbSymbolTableRecord
100
AcDbTextStyleTableRecord
  2
STANDARD
 70
     0
 40
0.0
 41
1.0
 50
0.0
 71
     0
 42
2.5
  3
txt
  4

  0
ENDTAB
  0
TABLE
  2
VIEW
  5
6
330
0
100
AcDbSymbolTable
 70
     0
  0
ENDTAB
  0
TABLE
  2
UCS
  5
7
330
0
100
AcDbSymbolTable
 70
     0
  0
ENDTAB
  0
TABLE
  2
APPID
  5
9
330
0
100
AcDbSymbolTable
 70
     2
  0
APPID
  5
12
330
9
100
AcDbSymbolTableRecord
100
AcDbRegAppTableRecord
  2
ACAD
 70
     0
  0
ENDTAB
  0
TABLE
  2
DIMSTYLE
  5
A
330
0
100
AcDbSymbolTable
 70
     1
  0
DIMSTYLE
105
27
330
A
100
AcDbSymbolTableRecord
100
AcDbDimStyleTableRecord
  2
ISO-25
 70
     0
  3

  4

  5

  6

  7

 40
1.0
 41
2.5
 42
0.625
 43
3.75
 44
1.25
 45
0.0
 46
0.0
 47
0.0
 48
0.0
140
2.5
141
2.5
142
0.0
143
0.03937007874016
144
1.0
145
0.0
146
1.0
147
0.625
 71
     0
 72
     0
 73
     0
 74
     0
 75
     0
 76
     0
 77
     1
 78
     8
170
     0
171
     3
172
     1
173
     0
174
     0
175
     0
176
     0
177
     0
178
     0
270
     2
271
     2
272
     2
273
     2
274
     3
340
11
275
     0
280
     0
281
     0
282
     0
283
     0
284
     8
285
     0
286
     0
287
     3
288
     0
  0
ENDTAB
  0
TABLE
  2
BLOCK_RECORD
  5
1
330
0
100
AcDbSymbolTable
 70
     1
  0
BLOCK_RECORD
  5
1F
330
1
100
AcDbSymbolTableRecord
100
AcDbBlockTableRecord
  2
*MODEL_SPACE
  0
BLOCK_RECORD
  5
1B
330
1
100
AcDbSymbolTableRecord
100
AcDbBlockTableRecord
  2
*PAPER_SPACE
  0
ENDTAB
  0
ENDSEC
  0
SECTION
  2
BLOCKS
  0
BLOCK
  5
20
330
1F
100
AcDbEntity
  8
0
100
AcDbBlockBegin
  2
*MODEL_SPACE
 70
     0
 10
0.0
 20
0.0
 30
0.0
  3
*MODEL_SPACE
  1

  0
ENDBLK
  5
21
330
1F
100
AcDbEntity
  8
0
100
AcDbBlockEnd
  0
BLOCK
  5
1C
330
1B
100
AcDbEntity
 67
     1
  8
0
100
AcDbBlockBegin
  2
*PAPER_SPACE
  1

  0
ENDBLK
  5
1D
330
1B
100
AcDbEntity
 67
     1
  8
0
100
AcDbBlockEnd
  0
ENDSEC
  0
SECTION
  2
ENTITIES
  0
LWPOLYLINE
  5
100
100
AcDbEntity
  8
Layer_1
 62
7
100
AcDbPolyline
 90
81
 70
0
 10
0.000000
 20
0.248046
 30
0.0
 10
0.000000
 20
2.066235
 30
0.0
 10
0.000000
 20
3.884423
 30
0.0
 10
0.000000
 20
5.702612
 30
0.0
 10
0.000000
 20
7.520772
 30
0.0
 10
0.000000
 20
9.338960
 30
0.0
 10
0.000000
 20
11.157149
 30
0.0
 10
0.000000
 20
12.975337
 30
0.0
 10
0.000000
 20
14.793523
 30
0.0
 10
0.357187
 20
14.793523
 30
0.0
 10
0.714375
 20
14.793523
 30
0.0
 10
1.071562
 20
14.793523
 30
0.0
 10
1.428750
 20
14.793523
 30
0.0
 10
1.785937
 20
14.793523
 30
0.0
 10
2.143125
 20
14.793523
 30
0.0
 10
2.500312
 20
14.793523
 30
0.0
 10
2.857500
 20
14.793523
 30
0.0
 10
3.601641
 20
13.579321
 30
0.0
 10
4.345781
 20
12.365145
 30
0.0
 10
5.089922
 20
11.150940
 30
0.0
 10
5.834062
 20
9.936764
 30
0.0
 10
6.578203
 20
8.722559
 30
0.0
 10
7.322344
 20
7.508382
 30
0.0
 10
8.066484
 20
6.294178
 30
0.0
 10
8.810625
 20
5.080001
 30
0.0
 10
8.810625
 20
6.294178
 30
0.0
 10
8.810625
 20
7.508382
 30
0.0
 10
8.810625
 20
8.722559
 30
0.0
 10
8.810625
 20
9.936764
 30
0.0
 10
8.810625
 20
11.150940
 30
0.0
 10
8.810625
 20
12.365145
 30
0.0
 10
8.810625
 20
13.579321
 30
0.0
 10
8.810625
 20
14.793523
 30
0.0
 10
9.151689
 20
14.793523
 30
0.0
 10
9.492754
 20
14.793523
 30
0.0
 10
9.833818
 20
14.793523
 30
0.0
 10
10.174883
 20
14.793523
 30
0.0
 10
10.515947
 20
14.793523
 30
0.0
 10
10.857012
 20
14.793523
 30
0.0
 10
11.198076
 20
14.793523
 30
0.0
 10
11.539141
 20
14.793523
 30
0.0
 10
11.539141
 20
12.975337
 30
0.0
 10
11.539141
 20
11.157149
 30
0.0
 10
11.539141
 20
9.338960
 30
0.0
 10
11.539141
 20
7.520772
 30
0.0
 10
11.539141
 20
5.702612
 30
0.0
 10
11.539141
 20
3.884423
 30
0.0
 10
11.539141
 20
2.066235
 30
0.0
 10
11.539141
 20
0.248046
 30
0.0
 10
11.170791
 20
0.248046
 30
0.0
 10
10.802441
 20
0.248046
 30
0.0
 10
10.434092
 20
0.248046
 30
0.0
 10
10.065742
 20
0.248046
 30
0.0
 10
9.697393
 20
0.248046
 30
0.0
 10
9.329043
 20
0.248046
 30
0.0
 10
8.960693
 20
0.248046
 30
0.0
 10
8.592344
 20
0.248046
 30
0.0
 10
7.859365
 20
1.433718
 30
0.0
 10
7.126387
 20
2.619362
 30
0.0
 10
6.393408
 20
3.805034
 30
0.0
 10
5.660430
 20
4.990706
 30
0.0
 10
4.927451
 20
6.176378
 30
0.0
 10
4.194473
 20
7.362022
 30
0.0
 10
3.461494
 20
8.547694
 30
0.0
 10
2.728516
 20
9.733366
 30
0.0
 10
2.728516
 20
8.547694
 30
0.0
 10
2.728516
 20
7.362022
 30
0.0
 10
2.728516
 20
6.176378
 30
0.0
 10
2.728516
 20
4.990706
 30
0.0
 10
2.728516
 20
3.805034
 30
0.0
 10
2.728516
 20
2.619362
 30
0.0
 10
2.728516
 20
1.433718
 30
0.0
 10
2.728516
 20
0.248046
 30
0.0
 10
2.387451
 20
0.248046
 30
0.0
 10
2.046387
 20
0.248046
 30
0.0
 10
1.705322
 20
0.248046
 30
0.0
 10
1.364258
 20
0.248046
 30
0.0
 10
1.023193
 20
0.248046
 30
0.0
 10
0.682129
 20
0.248046
 30
0.0
 10
0.341064
 20
0.248046
 30
0.0
 10
-0.000000
 20
0.248046
 30
0.0
  0
LWPOLYLINE
  5
101
100
AcDbEntity
  8
Layer_1
 62
7
100
AcDbPolyline
 90
81
 70
0
 10
12.365963
 20
7.431477
 30
0.0
 10
12.376349
 20
7.975940
 30
0.0
 10
12.407510
 20
8.498079
 30
0.0
 10
12.459445
 20
8.997895
 30
0.0
 10
12.532153
 20
9.475387
 30
0.0
 10
12.625636
 20
9.930555
 30
0.0
 10
12.739893
 20
10.363399
 30
0.0
 10
12.874924
 20
10.773919
 30
0.0
 10
13.030728
 20
11.162116
 30
0.0
 10
13.160332
 20
11.436351
 30
0.0
 10
13.301098
 20
11.703475
 30
0.0
 10
13.453027
 20
11.963458
 30
0.0
 10
13.616117
 20
12.216301
 30
0.0
 10
13.790370
 20
12.462032
 30
0.0
 10
13.975786
 20
12.700622
 30
0.0
 10
14.172363
 20
12.932073
 30
0.0
 10
14.380103
 20
13.156411
 30
0.0
 10
14.598383
 20
13.370025
 30
0.0
 10
14.821625
 20
13.569415
 30
0.0
 10
15.049827
 20
13.754496
 30
0.0
 10
15.282991
 20
13.925354
 30
0.0
 10
15.521116
 20
14.081931
 30
0.0
 10
15.764203
 20
14.224255
 30
0.0
 10
16.012250
 20
14.352300
 30
0.0
 10
16.265259
 20
14.466092
 30
0.0
 10
16.611593
 20
14.600966
 30
0.0
 10
16.970950
 20
14.717862
 30
0.0
 10
17.343329
 20
14.816764
 30
0.0
 10
17.728732
 20
14.897688
 30
0.0
 10
18.127157
 20
14.960632
 30
0.0
 10
18.538605
 20
15.005593
 30
0.0
 10
18.963077
 20
15.032574
 30
0.0
 10
19.400572
 20
15.041577
 30
0.0
 10
20.184087
 20
15.010411
 30
0.0
 10
20.927295
 20
14.916927
 30
0.0
 10
21.630196
 20
14.761107
 30
0.0
 10
22.292790
 20
14.543006
 30
0.0
 10
22.915078
 20
14.262561
 30
0.0
 10
23.497060
 20
13.919774
 30
0.0
 10
24.038735
 20
13.514701
 30
0.0
 10
24.540103
 20
13.047284
 30
0.0
 10
24.993559
 20
12.524355
 30
0.0
 10
25.386555
 20
11.952770
 30
0.0
 10
25.719091
 20
11.332502
 30
0.0
 10
25.991167
 20
10.663551
 30
0.0
 10
26.202782
 20
9.945916
 30
0.0
 10
26.353938
 20
9.179598
 30
0.0
 10
26.444633
 20
8.364597
 30
0.0
 10
26.474869
 20
7.500940
 30
0.0
 10
26.444944
 20
6.644255
 30
0.0
 10
26.355178
 20
5.835321
 30
0.0
 10
26.205573
 20
5.074111
 30
0.0
 10
25.996128
 20
4.360682
 30
0.0
 10
25.726842
 20
3.694976
 30
0.0
 10
25.397717
 20
3.077050
 30
0.0
 10
25.008752
 20
2.506849
 30
0.0
 10
24.559947
 20
1.984399
 30
0.0
 10
24.061059
 20
1.519297
 30
0.0
 10
23.521864
 20
1.116227
 30
0.0
 10
22.942363
 20
0.775161
 30
0.0
 10
22.322556
 20
0.496100
 30
0.0
 10
21.662442
 20
0.279071
 30
0.0
 10
20.962021
 20
0.124046
 30
0.0
 10
20.221294
 20
0.031026
 30
0.0
 10
19.440259
 20
0.000010
 30
0.0
 10
18.649918
 20
0.030857
 30
0.0
 10
17.901126
 20
0.123426
 30
0.0
 10
17.193881
 20
0.277660
 30
0.0
 10
16.528186
 20
0.493616
 30
0.0
 10
15.904038
 20
0.771267
 30
0.0
 10
15.321439
 20
1.110639
 30
0.0
 10
14.780388
 20
1.511705
 30
0.0
 10
14.280884
 20
1.974465
 30
0.0
 10
13.832074
 20
2.493810
 30
0.0
 10
13.443106
 20
3.059666
 30
0.0
 10
13.113978
 20
3.672031
 30
0.0
 10
12.844692
 20
4.330907
 30
0.0
 10
12.635248
 20
5.036294
 30
0.0
 10
12.485645
 20
5.788190
 30
0.0
 10
12.395883
 20
6.586568
 30
0.0
 10
12.365963
 20
7.431485
 30
0.0
  0
LWPOLYLINE
  5
102
100
AcDbEntity
  8
Layer_1
 62
7
100
AcDbPolyline
 90
65
 70
0
 10
15.392134
 20
7.530715
 30
0.0
 10
15.409962
 20
6.931698
 30
0.0
 10
15.463447
 20
6.369850
 30
0.0
 10
15.552588
 20
5.845255
 30
0.0
 10
15.677386
 20
5.357829
 30
0.0
 10
15.837842
 20
4.907628
 30
0.0
 10
16.033954
 20
4.494624
 30
0.0
 10
16.265724
 20
4.118817
 30
0.0
 10
16.533151
 20
3.780235
 30
0.0
 10
16.828015
 20
3.482576
 30
0.0
 10
17.142103
 20
3.224596
 30
0.0
 10
17.475415
 20
3.006326
 30
0.0
 10
17.827951
 20
2.827735
 30
0.0
 10
18.199712
 20
2.688826
 30
0.0
 10
18.590696
 20
2.589596
 30
0.0
 10
19.000905
 20
2.530076
 30
0.0
 10
19.430338
 20
2.510320
 30
0.0
 10
19.859457
 20
2.530076
 30
0.0
 10
20.268732
 20
2.589145
 30
0.0
 10
20.658164
 20
2.687584
 30
0.0
 10
21.027753
 20
2.825393
 30
0.0
 10
21.377500
 20
3.002600
 30
0.0
 10
21.707403
 20
3.219178
 30
0.0
 10
22.017464
 20
3.475125
 30
0.0
 10
22.307682
 20
3.770470
 30
0.0
 10
22.572779
 20
4.107670
 30
0.0
 10
22.802529
 20
4.484239
 30
0.0
 10
22.996934
 20
4.900178
 30
0.0
 10
23.155994
 20
5.355487
 30
0.0
 10
23.279708
 20
5.850194
 30
0.0
 10
23.368076
 20
6.384272
 30
0.0
 10
23.421099
 20
6.957719
 30
0.0
 10
23.438777
 20
7.570536
 30
0.0
 10
23.421564
 20
8.175762
 30
0.0
 10
23.369937
 20
8.741335
 30
0.0
 10
23.283894
 20
9.267172
 30
0.0
 10
23.163436
 20
9.753356
 30
0.0
 10
23.008562
 20
10.199831
 30
0.0
 10
22.819273
 20
10.606626
 30
0.0
 10
22.595568
 20
10.973741
 30
0.0
 10
22.337448
 20
11.301175
 30
0.0
 10
22.053277
 20
11.589522
 30
0.0
 10
21.746471
 20
11.839430
 30
0.0
 10
21.417033
 20
12.050899
 30
0.0
 10
21.064961
 20
12.223901
 30
0.0
 10
20.690256
 20
12.358464
 30
0.0
 10
20.292917
 20
12.454589
 30
0.0
 10
19.872945
 20
12.512276
 30
0.0
 10
19.430339
 20
12.531467
 30
0.0
 10
18.987418
 20
12.511993
 30
0.0
 10
18.566512
 20
12.453376
 30
0.0
 10
18.167621
 20
12.355699
 30
0.0
 10
17.790744
 20
12.218962
 30
0.0
 10
17.435883
 20
12.043166
 30
0.0
 10
17.103036
 20
11.828310
 30
0.0
 10
16.792204
 20
11.574366
 30
0.0
 10
16.503386
 20
11.281363
 30
0.0
 10
16.242935
 20
10.951446
 30
0.0
 10
16.017212
 20
10.581847
 30
0.0
 10
15.826215
 20
10.172569
 30
0.0
 10
15.669945
 20
9.723610
 30
0.0
 10
15.548403
 20
9.234970
 30
0.0
 10
15.461587
 20
8.706622
 30
0.0
 10
15.409498
 20
8.138593
 30
0.0
 10
15.392136
 20
7.530884
 30
0.0
  0
ENDSEC
  0
SECTION
  2
OBJECTS
  0
DICTIONARY
  5
C
330
0
100
AcDbDictionary
  3
ACAD_GROUP
350
D
  3
ACAD_MLINESTYLE
350
17
  0
DICTIONARY
  5
D
330
C
100
AcDbDictionary
  0
DICTIONARY
  5
1A
330
C
100
AcDbDictionary
  0
DICTIONARY
  5
17
330
C
100
AcDbDictionary
  3
STANDARD
350
18
  0
DICTIONARY
  5
19
330
C
100
AcDbDictionary
  0
ENDSEC
  0
EOF
