  0
SECTION
  2
HEADER
  9
$ACADVER
  1
AC1014
  9
$HANDSEED
  5
FFFF
  9
$MEASUREMENT
 70
     1
  0
ENDSEC
  0
SECTION
  2
TABLES
  0
TABLE
  2
VPORT
  5
8
330
0
100
AcDbSymbolTable
 70
     4
  0
VPORT
  5
2E
330
8
100
AcDbSymbolTableRecord
100
AcDbViewportTableRecord
  2
*ACTIVE
 70
     0
 10
0.0
 20
0.0
 11
1.0
 21
1.0
 12
210.0
 22
148.5
 13
0.0
 23
0.0
 14
10.0
 24
10.0
 15
10.0
 25
10.0
 16
0.0
 26
0.0
 36
1.0
 17
0.0
 27
0.0
 37
0.0
 40
341.0
 41
1.24
 42
50.0
 43
0.0
 44
0.0
 50
0.0
 51
0.0
 71
     0
 72
   100
 73
     1
 74
     3
 75
     0
 76
     0
 77
     0
 78
     0
  0
ENDTAB
  0
TABLE
  2
LTYPE
  5
5
330
0
100
AcDbSymbolTable
 70
     1
  0
LTYPE
  5
14
330
5
100
AcDbSymbolTableRecord
100
AcDbLinetypeTableRecord
  2
BYBLOCK
 70
     0
  3

 72
    65
 73
     0
 40
0.0
  0
LTYPE
  5
15
330
5
100
AcDbSymbolTableRecord
100
AcDbLinetypeTableRecord
  2
BYLAYER
 70
     0
  3

 72
    65
 73
     0
 40
0.0
  0
LTYPE
  5
16
330
5
100
AcDbSymbolTableRecord
100
AcDbLinetypeTableRecord
  2
CONTINUOUS
 70
     0
  3
Solid line
 72
    65
 73
     0
 40
0.0
  0
ENDTAB
  0
TABLE
  2
LAYER
  5
2
100
AcDbSymbolTable
 70
2
  0
LAYER
  5
50
100
AcDbSymbolTableRecord
100
AcDbLayerTableRecord
  2
0
 70
0
  6
CONTINUOUS
  0
LAYER
  5
51
100
AcDbSymbolTableRecord
100
AcDbLayerTableRecord
  2
Layer_1
 70
0
  6
CONTINUOUS
  0
ENDTAB
  0
TABLE
  2
STYLE
  5
3
330
0
100
AcDbSymbolTable
 70
     1
  0
STYLE
  5
11
330
3
100
AcDbSymbolTableRecord
100
AcDbTextStyleTableRecord
  2
STANDARD
 70
     0
 40
0.0
 41
1.0
 50
0.0
 71
     0
 42
2.5
  3
txt
  4

  0
ENDTAB
  0
TABLE
  2
VIEW
  5
6
330
0
100
AcDbSymbolTable
 70
     0
  0
ENDTAB
  0
TABLE
  2
UCS
  5
7
330
0
100
AcDbSymbolTable
 70
     0
  0
ENDTAB
  0
TABLE
  2
APPID
  5
9
330
0
100
AcDbSymbolTable
 70
     2
  0
APPID
  5
12
330
9
100
AcDbSymbolTableRecord
100
AcDbRegAppTableRecord
  2
ACAD
 70
     0
  0
ENDTAB
  0
TABLE
  2
DIMSTYLE
  5
A
330
0
100
AcDbSymbolTable
 70
     1
  0
DIMSTYLE
105
27
330
A
100
AcDbSymbolTableRecord
100
AcDbDimStyleTableRecord
  2
ISO-25
 70
     0
  3

  4

  5

  6

  7

 40
1.0
 41
2.5
 42
0.625
 43
3.75
 44
1.25
 45
0.0
 46
0.0
 47
0.0
 48
0.0
140
2.5
141
2.5
142
0.0
143
0.03937007874016
144
1.0
145
0.0
146
1.0
147
0.625
 71
     0
 72
     0
 73
     0
 74
     0
 75
     0
 76
     0
 77
     1
 78
     8
170
     0
171
     3
172
     1
173
     0
174
     0
175
     0
176
     0
177
     0
178
     0
270
     2
271
     2
272
     2
273
     2
274
     3
340
11
275
     0
280
     0
281
     0
282
     0
283
     0
284
     8
285
     0
286
     0
287
     3
288
     0
  0
ENDTAB
  0
TABLE
  2
BLOCK_RECORD
  5
1
330
0
100
AcDbSymbolTable
 70
     1
  0
BLOCK_RECORD
  5
1F
330
1
100
AcDbSymbolTableRecord
100
AcDbBlockTableRecord
  2
*MODEL_SPACE
  0
BLOCK_RECORD
  5
1B
330
1
100
AcDbSymbolTableRecord
100
AcDbBlockTableRecord
  2
*PAPER_SPACE
  0
ENDTAB
  0
ENDSEC
  0
SECTION
  2
BLOCKS
  0
BLOCK
  5
20
330
1F
100
AcDbEntity
  8
0
100
AcDbBlockBegin
  2
*MODEL_SPACE
 70
     0
 10
0.0
 20
0.0
 30
0.0
  3
*MODEL_SPACE
  1

  0
ENDBLK
  5
21
330
1F
100
AcDbEntity
  8
0
100
AcDbBlockEnd
  0
BLOCK
  5
1C
330
1B
100
AcDbEntity
 67
     1
  8
0
100
AcDbBlockBegin
  2
*PAPER_SPACE
  1

  0
ENDBLK
  5
1D
330
1B
100
AcDbEntity
 67
     1
  8
0
100
AcDbBlockEnd
  0
ENDSEC
  0
SECTION
  2
ENTITIES
  0
LWPOLYLINE
  5
100
100
AcDbEntity
  8
Layer_1
 62
7
100
AcDbPolyline
 90
73
 70
0
 10
0.000000
 20
14.803443
 30
0.0
 10
0.933896
 20
14.803443
 30
0.0
 10
1.867793
 20
14.803443
 30
0.0
 10
2.801689
 20
14.803443
 30
0.0
 10
3.735586
 20
14.803443
 30
0.0
 10
4.669482
 20
14.803443
 30
0.0
 10
5.603379
 20
14.803443
 30
0.0
 10
6.537275
 20
14.803443
 30
0.0
 10
7.471172
 20
14.803443
 30
0.0
 10
8.062140
 20
14.785296
 30
0.0
 10
8.614662
 20
14.730867
 30
0.0
 10
9.128737
 20
14.640189
 30
0.0
 10
9.604367
 20
14.513217
 30
0.0
 10
10.041550
 20
14.349980
 30
0.0
 10
10.440286
 20
14.150449
 30
0.0
 10
10.800577
 20
13.914652
 30
0.0
 10
11.122422
 20
13.642590
 30
0.0
 10
11.408446
 20
13.337028
 30
0.0
 10
11.656335
 20
13.000760
 30
0.0
 10
11.866088
 20
12.633786
 30
0.0
 10
12.037705
 20
12.236135
 30
0.0
 10
12.171186
 20
11.807807
 30
0.0
 10
12.266530
 20
11.348744
 30
0.0
 10
12.323739
 20
10.859032
 30
0.0
 10
12.342812
 20
10.338586
 30
0.0
 10
12.322035
 20
9.802956
 30
0.0
 10
12.259710
 20
9.297412
 30
0.0
 10
12.155838
 20
8.821952
 30
0.0
 10
12.010420
 20
8.376549
 30
0.0
 10
11.823455
 20
7.961231
 30
0.0
 10
11.594944
 20
7.575969
 30
0.0
 10
11.324886
 20
7.220792
 30
0.0
 10
11.013282
 20
6.895701
 30
0.0
 10
10.661517
 20
6.605012
 30
0.0
 10
10.266034
 20
6.353100
 30
0.0
 10
9.826835
 20
6.139938
 30
0.0
 10
9.343918
 20
5.965524
 30
0.0
 10
8.817284
 20
5.829888
 30
0.0
 10
8.246933
 20
5.733001
 30
0.0
 10
7.632865
 20
5.674864
 30
0.0
 10
6.975079
 20
5.655390
 30
0.0
 10
6.667501
 20
5.655390
 30
0.0
 10
6.359922
 20
5.655390
 30
0.0
 10
6.052344
 20
5.655390
 30
0.0
 10
5.744766
 20
5.655390
 30
0.0
 10
5.437188
 20
5.655390
 30
0.0
 10
5.129610
 20
5.655390
 30
0.0
 10
4.822032
 20
5.655390
 30
0.0
 10
4.514454
 20
5.655390
 30
0.0
 10
4.514454
 20
4.980710
 30
0.0
 10
4.514454
 20
4.306001
 30
0.0
 10
4.514454
 20
3.631321
 30
0.0
 10
4.514454
 20
2.956640
 30
0.0
 10
4.514454
 20
2.281960
 30
0.0
 10
4.514454
 20
1.607251
 30
0.0
 10
4.514454
 20
0.932571
 30
0.0
 10
4.514454
 20
0.257890
 30
0.0
 10
3.950147
 20
0.257890
 30
0.0
 10
3.385841
 20
0.257890
 30
0.0
 10
2.821534
 20
0.257890
 30
0.0
 10
2.257227
 20
0.257890
 30
0.0
 10
1.692920
 20
0.257890
 30
0.0
 10
1.128614
 20
0.257890
 30
0.0
 10
0.564307
 20
0.257890
 30
0.0
 10
0.000001
 20
0.257890
 30
0.0
 10
0.000001
 20
2.076079
 30
0.0
 10
0.000001
 20
3.894267
 30
0.0
 10
0.000001
 20
5.712427
 30
0.0
 10
0.000001
 20
7.530616
 30
0.0
 10
0.000001
 20
9.348804
 30
0.0
 10
0.000001
 20
11.166993
 30
0.0
 10
0.000001
 20
12.985181
 30
0.0
 10
0.000001
 20
14.803353
 30
0.0
  0
LWPOLYLINE
  5
101
100
AcDbEntity
  8
Layer_1
 62
7
100
AcDbPolyline
 90
57
 70
0
 10
4.514454
 20
8.602185
 30
0.0
 10
4.652120
 20
8.602185
 30
0.0
 10
4.789786
 20
8.602185
 30
0.0
 10
4.927452
 20
8.602185
 30
0.0
 10
5.065118
 20
8.602185
 30
0.0
 10
5.202784
 20
8.602185
 30
0.0
 10
5.340450
 20
8.602185
 30
0.0
 10
5.478116
 20
8.602185
 30
0.0
 10
5.615782
 20
8.602185
 30
0.0
 10
5.928628
 20
8.609241
 30
0.0
 10
6.217291
 20
8.630125
 30
0.0
 10
6.481770
 20
8.665008
 30
0.0
 10
6.722065
 20
8.713833
 30
0.0
 10
6.938176
 20
8.776627
 30
0.0
 10
7.130103
 20
8.853363
 30
0.0
 10
7.297847
 20
8.944041
 30
0.0
 10
7.441407
 20
9.048689
 30
0.0
 10
7.564652
 20
9.166658
 30
0.0
 10
7.671465
 20
9.292388
 30
0.0
 10
7.761846
 20
9.425879
 30
0.0
 10
7.835794
 20
9.567103
 30
0.0
 10
7.893310
 20
9.716088
 30
0.0
 10
7.934395
 20
9.872835
 30
0.0
 10
7.959047
 20
10.037314
 30
0.0
 10
7.967268
 20
10.209554
 30
0.0
 10
7.960133
 20
10.377448
 30
0.0
 10
7.938738
 20
10.538823
 30
0.0
 10
7.903080
 20
10.693706
 30
0.0
 10
7.853160
 20
10.842070
 30
0.0
 10
7.788978
 20
10.983915
 30
0.0
 10
7.710535
 20
11.119241
 30
0.0
 10
7.617829
 20
11.248103
 30
0.0
 10
7.510862
 20
11.370419
 30
0.0
 10
7.384201
 20
11.482037
 30
0.0
 10
7.232425
 20
11.578755
 30
0.0
 10
7.055536
 20
11.660628
 30
0.0
 10
6.853532
 20
11.727599
 30
0.0
 10
6.626415
 20
11.779669
 30
0.0
 10
6.374183
 20
11.816894
 30
0.0
 10
6.096838
 20
11.839190
 30
0.0
 10
5.794378
 20
11.846527
 30
0.0
 10
5.634388
 20
11.846527
 30
0.0
 10
5.474398
 20
11.846527
 30
0.0
 10
5.314408
 20
11.846527
 30
0.0
 10
5.154417
 20
11.846527
 30
0.0
 10
4.994427
 20
11.846527
 30
0.0
 10
4.834437
 20
11.846527
 30
0.0
 10
4.674447
 20
11.846527
 30
0.0
 10
4.514456
 20
11.846527
 30
0.0
 10
4.514456
 20
11.440974
 30
0.0
 10
4.514456
 20
11.035421
 30
0.0
 10
4.514456
 20
10.629867
 30
0.0
 10
4.514456
 20
10.224314
 30
0.0
 10
4.514456
 20
9.818733
 30
0.0
 10
4.514456
 20
9.413179
 30
0.0
 10
4.514456
 20
9.007626
 30
0.0
 10
4.514456
 20
8.602073
 30
0.0
  0
LWPOLYLINE
  5
102
100
AcDbEntity
  8
Layer_1
 62
7
100
AcDbPolyline
 90
33
 70
0
 10
13.189479
 20
14.803443
 30
0.0
 10
13.752546
 20
14.803443
 30
0.0
 10
14.315612
 20
14.803443
 30
0.0
 10
14.878678
 20
14.803443
 30
0.0
 10
15.441745
 20
14.803443
 30
0.0
 10
16.004811
 20
14.803443
 30
0.0
 10
16.567878
 20
14.803443
 30
0.0
 10
17.130944
 20
14.803443
 30
0.0
 10
17.694010
 20
14.803443
 30
0.0
 10
17.694010
 20
12.985272
 30
0.0
 10
17.694010
 20
11.167083
 30
0.0
 10
17.694010
 20
9.348895
 30
0.0
 10
17.694010
 20
7.530706
 30
0.0
 10
17.694010
 20
5.712518
 30
0.0
 10
17.694010
 20
3.894358
 30
0.0
 10
17.694010
 20
2.076169
 30
0.0
 10
17.694010
 20
0.257981
 30
0.0
 10
17.130944
 20
0.257981
 30
0.0
 10
16.567878
 20
0.257981
 30
0.0
 10
16.004811
 20
0.257981
 30
0.0
 10
15.441745
 20
0.257981
 30
0.0
 10
14.878678
 20
0.257981
 30
0.0
 10
14.315612
 20
0.257981
 30
0.0
 10
13.752546
 20
0.257981
 30
0.0
 10
13.189479
 20
0.257981
 30
0.0
 10
13.189479
 20
2.076169
 30
0.0
 10
13.189479
 20
3.894358
 30
0.0
 10
13.189479
 20
5.712518
 30
0.0
 10
13.189479
 20
7.530706
 30
0.0
 10
13.189479
 20
9.348895
 30
0.0
 10
13.189479
 20
11.167083
 30
0.0
 10
13.189479
 20
12.985272
 30
0.0
 10
13.189479
 20
14.803443
 30
0.0
  0
LWPOLYLINE
  5
103
100
AcDbEntity
  8
Layer_1
 62
7
100
AcDbPolyline
 90
169
 70
0
 10
28.899115
 20
6.201186
 30
0.0
 10
29.391489
 20
6.052342
 30
0.0
 10
29.883862
 20
5.903526
 30
0.0
 10
30.376235
 20
5.754682
 30
0.0
 10
30.868606
 20
5.605866
 30
0.0
 10
31.360979
 20
5.457022
 30
0.0
 10
31.853353
 20
5.308206
 30
0.0
 10
32.345726
 20
5.159362
 30
0.0
 10
32.838099
 20
5.010546
 30
0.0
 10
32.731744
 20
4.604824
 30
0.0
 10
32.611128
 20
4.216176
 30
0.0
 10
32.476251
 20
3.844574
 30
0.0
 10
32.327113
 20
3.490018
 30
0.0
 10
32.163712
 20
3.152508
 30
0.0
 10
31.986051
 20
2.832073
 30
0.0
 10
31.794128
 20
2.528684
 30
0.0
 10
31.587942
 20
2.242342
 30
0.0
 10
31.368105
 20
1.973045
 30
0.0
 10
31.135249
 20
1.720823
 30
0.0
 10
30.889372
 20
1.485647
 30
0.0
 10
30.630472
 20
1.267518
 30
0.0
 10
30.358551
 20
1.066463
 30
0.0
 10
30.073608
 20
0.882426
 30
0.0
 10
29.775647
 20
0.715463
 30
0.0
 10
29.464660
 20
0.565546
 30
0.0
 10
29.138784
 20
0.432987
 30
0.0
 10
28.791208
 20
0.318122
 30
0.0
 10
28.421925
 20
0.220925
 30
0.0
 10
28.030942
 20
0.141395
 30
0.0
 10
27.618255
 20
0.079532
 30
0.0
 10
27.183865
 20
0.035336
 30
0.0
 10
26.727771
 20
0.008807
 30
0.0
 10
26.249974
 20
0.000058
 30
0.0
 10
25.670627
 20
0.010782
 30
0.0
 10
25.118256
 20
0.042871
 30
0.0
 10
24.592861
 20
0.096352
 30
0.0
 10
24.094442
 20
0.171226
 30
0.0
 10
23.622998
 20
0.267520
 30
0.0
 10
23.178530
 20
0.385178
 30
0.0
 10
22.761038
 20
0.524257
 30
0.0
 10
22.370521
 20
0.684701
 30
0.0
 10
22.002325
 20
0.874608
 30
0.0
 10
21.646842
 20
1.097084
 30
0.0
 10
21.304072
 20
1.352100
 30
0.0
 10
20.974015
 20
1.639684
 30
0.0
 10
20.656670
 20
1.959809
 30
0.0
 10
20.352038
 20
2.312502
 30
0.0
 10
20.060118
 20
2.697764
 30
0.0
 10
19.780912
 20
3.115565
 30
0.0
 10
19.525113
 20
3.564835
 30
0.0
 10
19.303421
 20
4.044500
 30
0.0
 10
19.115835
 20
4.554532
 30
0.0
 10
18.962356
 20
5.094959
 30
0.0
 10
18.842984
 20
5.665782
 30
0.0
 10
18.757717
 20
6.267000
 30
0.0
 10
18.706558
 20
6.898585
 30
0.0
 10
18.689506
 20
7.560565
 30
0.0
 10
18.719427
 20
8.437260
 30
0.0
 10
18.809189
 20
9.261547
 30
0.0
 10
18.958792
 20
10.033425
 30
0.0
 10
19.168236
 20
10.752922
 30
0.0
 10
19.437522
 20
11.420011
 30
0.0
 10
19.766649
 20
12.034691
 30
0.0
 10
20.155618
 20
12.596990
 30
0.0
 10
20.604428
 20
13.106881
 30
0.0
 10
21.110442
 20
13.562670
 30
0.0
 10
21.666066
 20
13.957668
 30
0.0
 10
22.271300
 20
14.291904
 30
0.0
 10
22.926143
 20
14.565377
 30
0.0
 10
23.630596
 20
14.778091
 30
0.0
 10
24.384659
 20
14.930023
 30
0.0
 10
25.188332
 20
15.021186
 30
0.0
 10
26.041616
 20
15.051576
 30
0.0
 10
26.710254
 20
15.034219
 30
0.0
 10
27.341995
 20
14.982126
 30
0.0
 10
27.936841
 20
14.895306
 30
0.0
 10
28.494791
 20
14.773753
 30
0.0
 10
29.015846
 20
14.617487
 30
0.0
 10
29.500004
 20
14.426507
 30
0.0
 10
29.947264
 20
14.200786
 30
0.0
 10
30.357632
 20
13.940323
 30
0.0
 10
30.739310
 20
13.643905
 30
0.0
 10
31.095564
 20
13.310290
 30
0.0
 10
31.426394
 20
12.939450
 30
0.0
 10
31.731801
 20
12.531413
 30
0.0
 10
32.011785
 20
12.086179
 30
0.0
 10
32.266344
 20
11.603720
 30
0.0
 10
32.495480
 20
11.084065
 30
0.0
 10
32.699193
 20
10.527212
 30
0.0
 10
32.203100
 20
10.416835
 30
0.0
 10
31.707007
 20
10.306458
 30
0.0
 10
31.210912
 20
10.196081
 30
0.0
 10
30.714818
 20
10.085675
 30
0.0
 10
30.218725
 20
9.975298
 30
0.0
 10
29.722632
 20
9.864921
 30
0.0
 10
29.226537
 20
9.754544
 30
0.0
 10
28.730443
 20
9.644167
 30
0.0
 10
28.678040
 20
9.804780
 30
0.0
 10
28.625019
 20
9.954216
 30
0.0
 10
28.571377
 20
10.092505
 30
0.0
 10
28.517117
 20
10.219618
 30
0.0
 10
28.462236
 20
10.335583
 30
0.0
 10
28.406737
 20
10.440400
 30
0.0
 10
28.350620
 20
10.534042
 30
0.0
 10
28.293882
 20
10.616507
 30
0.0
 10
28.196985
 20
10.741757
 30
0.0
 10
28.094818
 20
10.859585
 30
0.0
 10
27.987381
 20
10.969962
 30
0.0
 10
27.874675
 20
11.072889
 30
0.0
 10
27.756698
 20
11.168393
 30
0.0
 10
27.633451
 20
11.256446
 30
0.0
 10
27.504934
 20
11.337077
 30
0.0
 10
27.371147
 20
11.410257
 30
0.0
 10
27.232703
 20
11.475366
 30
0.0
 10
27.090229
 20
11.531782
 30
0.0
 10
26.943725
 20
11.579534
 30
0.0
 10
26.793191
 20
11.618594
 30
0.0
 10
26.638627
 20
11.648989
 30
0.0
 10
26.480033
 20
11.670720
 30
0.0
 10
26.317410
 20
11.683702
 30
0.0
 10
26.150756
 20
11.687936
 30
0.0
 10
25.779924
 20
11.668744
 30
0.0
 10
25.431416
 20
11.611058
 30
0.0
 10
25.105234
 20
11.514933
 30
0.0
 10
24.801376
 20
11.380370
 30
0.0
 10
24.519843
 20
11.207368
 30
0.0
 10
24.260635
 20
10.995898
 30
0.0
 10
24.023752
 20
10.745991
 30
0.0
 10
23.809194
 20
10.457644
 30
0.0
 10
23.665015
 20
10.213155
 30
0.0
 10
23.540060
 20
9.936126
 30
0.0
 10
23.434329
 20
9.626528
 30
0.0
 10
23.347823
 20
9.284362
 30
0.0
 10
23.280540
 20
8.909655
 30
0.0
 10
23.232482
 20
8.502409
 30
0.0
 10
23.203648
 20
8.062594
 30
0.0
 10
23.194038
 20
7.590210
 30
0.0
 10
23.205513
 20
7.008691
 30
0.0
 10
23.239930
 20
6.474614
 30
0.0
 10
23.297290
 20
5.987978
 30
0.0
 10
23.377594
 20
5.548784
 30
0.0
 10
23.480843
 20
5.157031
 30
0.0
 10
23.607036
 20
4.812720
 30
0.0
 10
23.756174
 20
4.515822
 30
0.0
 10
23.928258
 20
4.266394
 30
0.0
 10
24.121112
 20
4.057098
 30
0.0
 10
24.332570
 20
3.875714
 30
0.0
 10
24.562633
 20
3.722242
 30
0.0
 10
24.811299
 20
3.596653
 30
0.0
 10
25.078570
 20
3.499004
 30
0.0
 10
25.364445
 20
3.429238
 30
0.0
 10
25.668924
 20
3.387357
 30
0.0
 10
25.992008
 20
3.373528
 30
0.0
 10
26.304544
 20
3.384817
 30
0.0
 10
26.597237
 20
3.418768
 30
0.0
 10
26.870087
 20
3.475354
 30
0.0
 10
27.123095
 20
3.554573
 30
0.0
 10
27.356259
 20
3.656427
 30
0.0
 10
27.569581
 20
3.780916
 30
0.0
 10
27.763059
 20
3.928038
 30
0.0
 10
27.936695
 20
4.097795
 30
0.0
 10
28.097147
 20
4.289113
 30
0.0
 10
28.246129
 20
4.500864
 30
0.0
 10
28.383636
 20
4.733105
 30
0.0
 10
28.509677
 20
4.985807
 30
0.0
 10
28.624242
 20
5.258970
 30
0.0
 10
28.727338
 20
5.552594
 30
0.0
 10
28.818964
 20
5.866679
 30
0.0
 10
28.899118
 20
6.201253
 30
0.0
  0
LWPOLYLINE
  5
104
100
AcDbEntity
  8
Layer_1
 62
7
100
AcDbPolyline
 90
65
 70
0
 10
32.295702
 20
14.803443
 30
0.0
 10
34.003505
 20
14.803443
 30
0.0
 10
35.711308
 20
14.803443
 30
0.0
 10
37.419111
 20
14.803443
 30
0.0
 10
39.126914
 20
14.803443
 30
0.0
 10
40.834716
 20
14.803443
 30
0.0
 10
42.542519
 20
14.803443
 30
0.0
 10
44.250322
 20
14.803443
 30
0.0
 10
45.958125
 20
14.803443
 30
0.0
 10
45.958125
 20
14.354473
 30
0.0
 10
45.958125
 20
13.905514
 30
0.0
 10
45.958125
 20
13.456554
 30
0.0
 10
45.958125
 20
13.007595
 30
0.0
 10
45.958125
 20
12.558636
 30
0.0
 10
45.958125
 20
12.109649
 30
0.0
 10
45.958125
 20
11.660690
 30
0.0
 10
45.958125
 20
11.211731
 30
0.0
 10
45.385138
 20
11.211731
 30
0.0
 10
44.812148
 20
11.211731
 30
0.0
 10
44.239160
 20
11.211731
 30
0.0
 10
43.666170
 20
11.211731
 30
0.0
 10
43.093183
 20
11.211731
 30
0.0
 10
42.520195
 20
11.211731
 30
0.0
 10
41.947205
 20
11.211731
 30
0.0
 10
41.374218
 20
11.211731
 30
0.0
 10
41.374218
 20
9.842501
 30
0.0
 10
41.374218
 20
8.473300
 30
0.0
 10
41.374218
 20
7.104071
 30
0.0
 10
41.374218
 20
5.734842
 30
0.0
 10
41.374218
 20
4.365640
 30
0.0
 10
41.374218
 20
2.996411
 30
0.0
 10
41.374218
 20
1.627210
 30
0.0
 10
41.374218
 20
0.257981
 30
0.0
 10
40.812393
 20
0.257981
 30
0.0
 10
40.250564
 20
0.257981
 30
0.0
 10
39.688739
 20
0.257981
 30
0.0
 10
39.126914
 20
0.257981
 30
0.0
 10
38.565088
 20
0.257981
 30
0.0
 10
38.003260
 20
0.257981
 30
0.0
 10
37.441434
 20
0.257981
 30
0.0
 10
36.879609
 20
0.257981
 30
0.0
 10
36.879609
 20
1.627210
 30
0.0
 10
36.879609
 20
2.996411
 30
0.0
 10
36.879609
 20
4.365640
 30
0.0
 10
36.879609
 20
5.734842
 30
0.0
 10
36.879609
 20
7.104071
 30
0.0
 10
36.879609
 20
8.473300
 30
0.0
 10
36.879609
 20
9.842501
 30
0.0
 10
36.879609
 20
11.211731
 30
0.0
 10
36.306622
 20
11.211731
 30
0.0
 10
35.733632
 20
11.211731
 30
0.0
 10
35.160644
 20
11.211731
 30
0.0
 10
34.587657
 20
11.211731
 30
0.0
 10
34.014667
 20
11.211731
 30
0.0
 10
33.441680
 20
11.211731
 30
0.0
 10
32.868689
 20
11.211731
 30
0.0
 10
32.295702
 20
11.211731
 30
0.0
 10
32.295702
 20
11.660690
 30
0.0
 10
32.295702
 20
12.109649
 30
0.0
 10
32.295702
 20
12.558636
 30
0.0
 10
32.295702
 20
13.007595
 30
0.0
 10
32.295702
 20
13.456554
 30
0.0
 10
32.295702
 20
13.905514
 30
0.0
 10
32.295702
 20
14.354473
 30
0.0
 10
32.295702
 20
14.803443
 30
0.0
  0
LWPOLYLINE
  5
105
100
AcDbEntity
  8
Layer_1
 62
7
100
AcDbPolyline
 90
153
 70
0
 10
55.774167
 20
14.803443
 30
0.0
 10
56.334753
 20
14.803443
 30
0.0
 10
56.895337
 20
14.803443
 30
0.0
 10
57.455923
 20
14.803443
 30
0.0
 10
58.016510
 20
14.803443
 30
0.0
 10
58.577096
 20
14.803443
 30
0.0
 10
59.137680
 20
14.803443
 30
0.0
 10
59.698266
 20
14.803443
 30
0.0
 10
60.258853
 20
14.803443
 30
0.0
 10
60.258853
 20
13.719473
 30
0.0
 10
60.258853
 20
12.635514
 30
0.0
 10
60.258853
 20
11.551554
 30
0.0
 10
60.258853
 20
10.467595
 30
0.0
 10
60.258853
 20
9.383636
 30
0.0
 10
60.258853
 20
8.299649
 30
0.0
 10
60.258853
 20
7.215690
 30
0.0
 10
60.258853
 20
6.131731
 30
0.0
 10
60.252503
 20
5.811437
 30
0.0
 10
60.233425
 20
5.495489
 30
0.0
 10
60.201643
 20
5.183887
 30
0.0
 10
60.157148
 20
4.876604
 30
0.0
 10
60.099945
 20
4.573666
 30
0.0
 10
60.030027
 20
4.275104
 30
0.0
 10
59.947401
 20
3.980830
 30
0.0
 10
59.852063
 20
3.690932
 30
0.0
 10
59.745553
 20
3.410008
 30
0.0
 10
59.624474
 20
3.137776
 30
0.0
 10
59.488821
 20
2.874237
 30
0.0
 10
59.338597
 20
2.619362
 30
0.0
 10
59.173799
 20
2.373180
 30
0.0
 10
58.994432
 20
2.135690
 30
0.0
 10
58.800495
 20
1.906864
 30
0.0
 10
58.591983
 20
1.686731
 30
0.0
 10
58.377266
 20
1.481329
 30
0.0
 10
58.159757
 20
1.291704
 30
0.0
 10
57.939460
 20
1.117940
 30
0.0
 10
57.716372
 20
0.959952
 30
0.0
 10
57.490493
 20
0.817797
 30
0.0
 10
57.261828
 20
0.691446
 30
0.0
 10
57.030369
 20
0.580899
 30
0.0
 10
56.796124
 20
0.486186
 30
0.0
 10
56.460483
 20
0.372224
 30
0.0
 10
56.108408
 20
0.273475
 30
0.0
 10
55.739902
 20
0.189909
 30
0.0
 10
55.354965
 20
0.121554
 30
0.0
 10
54.953594
 20
0.068356
 30
0.0
 10
54.535792
 20
0.030397
 30
0.0
 10
54.101557
 20
0.007537
 30
0.0
 10
53.650890
 20
-0.000083
 30
0.0
 10
53.382378
 20
0.002739
 30
0.0
 10
53.107663
 20
0.009794
 30
0.0
 10
52.826751
 20
0.021366
 30
0.0
 10
52.539635
 20
0.037734
 30
0.0
 10
52.246321
 20
0.058619
 30
0.0
 10
51.946804
 20
0.084301
 30
0.0
 10
51.641090
 20
0.114527
 30
0.0
 10
51.329172
 20
0.149410
 30
0.0
 10
51.022987
 20
0.191094
 30
0.0
 10
50.729515
 20
0.241809
 30
0.0
 10
50.448758
 20
0.301471
 30
0.0
 10
50.180711
 20
0.370164
 30
0.0
 10
49.925376
 20
0.447832
 30
0.0
 10
49.682758
 20
0.534502
 30
0.0
 10
49.452852
 20
0.630147
 30
0.0
 10
49.235656
 20
0.734795
 30
0.0
 10
49.026987
 20
0.852143
 30
0.0
 10
48.822655
 20
0.980978
 30
0.0
 10
48.622670
 20
1.121270
 30
0.0
 10
48.427022
 20
1.273049
 30
0.0
 10
48.235715
 20
1.436287
 30
0.0
 10
48.048751
 20
1.611010
 30
0.0
 10
47.866128
 20
1.797192
 30
0.0
 10
47.687845
 20
1.994861
 30
0.0
 10
47.521032
 20
2.199049
 30
0.0
 10
47.367862
 20
2.404760
 30
0.0
 10
47.228337
 20
2.612053
 30
0.0
 10
47.102451
 20
2.820869
 30
0.0
 10
46.990212
 20
3.031237
 30
0.0
 10
46.891612
 20
3.243158
 30
0.0
 10
46.806657
 20
3.456631
 30
0.0
 10
46.735345
 20
3.671656
 30
0.0
 10
46.637677
 20
4.013963
 30
0.0
 10
46.553030
 20
4.346336
 30
0.0
 10
46.481407
 20
4.668804
 30
0.0
 10
46.422804
 20
4.981336
 30
0.0
 10
46.377225
 20
5.283963
 30
0.0
 10
46.344671
 20
5.576656
 30
0.0
 10
46.325141
 20
5.859443
 30
0.0
 10
46.318622
 20
6.132295
 30
0.0
 10
46.318622
 20
7.216254
 30
0.0
 10
46.318622
 20
8.300213
 30
0.0
 10
46.318622
 20
9.384201
 30
0.0
 10
46.318622
 20
10.468160
 30
0.0
 10
46.318622
 20
11.552119
 30
0.0
 10
46.318622
 20
12.636078
 30
0.0
 10
46.318622
 20
13.720037
 30
0.0
 10
46.318622
 20
14.804008
 30
0.0
 10
46.879208
 20
14.804008
 30
0.0
 10
47.439794
 20
14.804008
 30
0.0
 10
48.000381
 20
14.804008
 30
0.0
 10
48.560965
 20
14.804008
 30
0.0
 10
49.121551
 20
14.804008
 30
0.0
 10
49.682138
 20
14.804008
 30
0.0
 10
50.242724
 20
14.804008
 30
0.0
 10
50.803310
 20
14.804008
 30
0.0
 10
50.803310
 20
13.693988
 30
0.0
 10
50.803310
 20
12.583980
 30
0.0
 10
50.803310
 20
11.473972
 30
0.0
 10
50.803310
 20
10.363963
 30
0.0
 10
50.803310
 20
9.253955
 30
0.0
 10
50.803310
 20
8.143947
 30
0.0
 10
50.803310
 20
7.033939
 30
0.0
 10
50.803310
 20
5.923930
 30
0.0
 10
50.813527
 20
5.634342
 30
0.0
 10
50.844221
 20
5.360869
 30
0.0
 10
50.895380
 20
5.103510
 30
0.0
 10
50.967002
 20
4.862295
 30
0.0
 10
51.059088
 20
4.637195
 30
0.0
 10
51.171642
 20
4.428209
 30
0.0
 10
51.304658
 20
4.235338
 30
0.0
 10
51.458139
 20
4.058611
 30
0.0
 10
51.632234
 20
3.902796
 30
0.0
 10
51.822144
 20
3.767781
 30
0.0
 10
52.027867
 20
3.653509
 30
0.0
 10
52.249403
 20
3.560037
 30
0.0
 10
52.486755
 20
3.487337
 30
0.0
 10
52.739919
 20
3.435408
 30
0.0
 10
53.008897
 20
3.404250
 30
0.0
 10
53.293687
 20
3.393808
 30
0.0
 10
53.575991
 20
3.403968
 30
0.0
 10
53.842485
 20
3.434674
 30
0.0
 10
54.093166
 20
3.485813
 30
0.0
 10
54.328035
 20
3.557441
 30
0.0
 10
54.547093
 20
3.649530
 30
0.0
 10
54.750335
 20
3.762080
 30
0.0
 10
54.937770
 20
3.895120
 30
0.0
 10
55.109389
 20
4.048592
 30
0.0
 10
55.265193
 20
4.223316
 30
0.0
 10
55.400219
 20
4.415086
 30
0.0
 10
55.514477
 20
4.623902
 30
0.0
 10
55.607958
 20
4.849764
 30
0.0
 10
55.680666
 20
5.092701
 30
0.0
 10
55.732601
 20
5.352684
 30
0.0
 10
55.763764
 20
5.629714
 30
0.0
 10
55.774150
 20
5.923818
 30
0.0
 10
55.774150
 20
7.033826
 30
0.0
 10
55.774150
 20
8.143834
 30
0.0
 10
55.774150
 20
9.253842
 30
0.0
 10
55.774150
 20
10.363850
 30
0.0
 10
55.774150
 20
11.473859
 30
0.0
 10
55.774150
 20
12.583867
 30
0.0
 10
55.774150
 20
13.693875
 30
0.0
 10
55.774150
 20
14.803895
 30
0.0
  0
LWPOLYLINE
  5
106
100
AcDbEntity
  8
Layer_1
 62
7
100
AcDbPolyline
 90
153
 70
0
 10
61.621458
 20
0.257981
 30
0.0
 10
61.621458
 20
2.076169
 30
0.0
 10
61.621458
 20
3.894358
 30
0.0
 10
61.621458
 20
5.712518
 30
0.0
 10
61.621458
 20
7.530706
 30
0.0
 10
61.621458
 20
9.348895
 30
0.0
 10
61.621458
 20
11.167083
 30
0.0
 10
61.621458
 20
12.985272
 30
0.0
 10
61.621458
 20
14.803443
 30
0.0
 10
62.557835
 20
14.803443
 30
0.0
 10
63.494212
 20
14.803443
 30
0.0
 10
64.430588
 20
14.803443
 30
0.0
 10
65.366965
 20
14.803443
 30
0.0
 10
66.303344
 20
14.803443
 30
0.0
 10
67.239721
 20
14.803443
 30
0.0
 10
68.176098
 20
14.803443
 30
0.0
 10
69.112474
 20
14.803443
 30
0.0
 10
69.618022
 20
14.797855
 30
0.0
 10
70.092875
 20
14.781119
 30
0.0
 10
70.537030
 20
14.753208
 30
0.0
 10
70.950492
 20
14.714148
 30
0.0
 10
71.333261
 20
14.663912
 30
0.0
 10
71.685333
 20
14.602529
 30
0.0
 10
72.006711
 20
14.529970
 30
0.0
 10
72.297394
 20
14.446263
 30
0.0
 10
72.566056
 20
14.347344
 30
0.0
 10
72.821388
 20
14.229206
 30
0.0
 10
73.063385
 20
14.091848
 30
0.0
 10
73.292053
 20
13.935271
 30
0.0
 10
73.507391
 20
13.759475
 30
0.0
 10
73.709395
 20
13.564459
 30
0.0
 10
73.898069
 20
13.350196
 30
0.0
 10
74.073410
 20
13.116742
 30
0.0
 10
74.231537
 20
12.869459
 30
0.0
 10
74.368578
 20
12.608855
 30
0.0
 10
74.484538
 20
12.334930
 30
0.0
 10
74.579415
 20
12.047656
 30
0.0
 10
74.653211
 20
11.747033
 30
0.0
 10
74.705924
 20
11.433117
 30
0.0
 10
74.737553
 20
11.105852
 30
0.0
 10
74.748108
 20
10.765238
 30
0.0
 10
74.740036
 20
10.467748
 30
0.0
 10
74.715850
 20
10.180474
 30
0.0
 10
74.675540
 20
9.903444
 30
0.0
 10
74.619110
 20
9.636632
 30
0.0
 10
74.546556
 20
9.380063
 30
0.0
 10
74.457882
 20
9.133712
 30
0.0
 10
74.353084
 20
8.897604
 30
0.0
 10
74.232166
 20
8.671742
 30
0.0
 10
74.097131
 20
8.458580
 30
0.0
 10
73.950006
 20
8.255634
 30
0.0
 10
73.790787
 20
8.062932
 30
0.0
 10
73.619481
 20
7.880476
 30
0.0
 10
73.436082
 20
7.708235
 30
0.0
 10
73.240592
 20
7.546212
 30
0.0
 10
73.033012
 20
7.394432
 30
0.0
 10
72.813339
 20
7.252898
 30
0.0
 10
72.662802
 20
7.167949
 30
0.0
 10
72.498932
 20
7.086697
 30
0.0
 10
72.321733
 20
7.009199
 30
0.0
 10
72.131202
 20
6.935398
 30
0.0
 10
71.927339
 20
6.865322
 30
0.0
 10
71.710144
 20
6.798972
 30
0.0
 10
71.479619
 20
6.736347
 30
0.0
 10
71.235762
 20
6.677447
 30
0.0
 10
71.429855
 20
6.610476
 30
0.0
 10
71.610305
 20
6.543476
 30
0.0
 10
71.777115
 20
6.476505
 30
0.0
 10
71.930283
 20
6.409533
 30
0.0
 10
72.069810
 20
6.342562
 30
0.0
 10
72.195696
 20
6.275591
 30
0.0
 10
72.307938
 20
6.208619
 30
0.0
 10
72.406541
 20
6.141648
 30
0.0
 10
72.471960
 20
6.090650
 30
0.0
 10
72.544201
 20
6.026925
 30
0.0
 10
72.623265
 20
5.950499
 30
0.0
 10
72.709151
 20
5.861345
 30
0.0
 10
72.801858
 20
5.759491
 30
0.0
 10
72.901389
 20
5.644937
 30
0.0
 10
73.007742
 20
5.517655
 30
0.0
 10
73.120916
 20
5.377672
 30
0.0
 10
73.235013
 20
5.235517
 30
0.0
 10
73.339192
 20
5.101716
 30
0.0
 10
73.433446
 20
4.976296
 30
0.0
 10
73.517783
 20
4.859258
 30
0.0
 10
73.592196
 20
4.750575
 30
0.0
 10
73.656692
 20
4.650273
 30
0.0
 10
73.711263
 20
4.558353
 30
0.0
 10
73.755916
 20
4.474787
 30
0.0
 10
74.027527
 20
3.947681
 30
0.0
 10
74.299140
 20
3.420574
 30
0.0
 10
74.570751
 20
2.893496
 30
0.0
 10
74.842362
 20
2.366390
 30
0.0
 10
75.113972
 20
1.839283
 30
0.0
 10
75.385586
 20
1.312177
 30
0.0
 10
75.657196
 20
0.785098
 30
0.0
 10
75.928807
 20
0.257992
 30
0.0
 10
75.293807
 20
0.257992
 30
0.0
 10
74.658807
 20
0.257992
 30
0.0
 10
74.023807
 20
0.257992
 30
0.0
 10
73.388807
 20
0.257992
 30
0.0
 10
72.753807
 20
0.257992
 30
0.0
 10
72.118807
 20
0.257992
 30
0.0
 10
71.483807
 20
0.257992
 30
0.0
 10
70.848807
 20
0.257992
 30
0.0
 10
70.548669
 20
0.813603
 30
0.0
 10
70.248534
 20
1.369242
 30
0.0
 10
69.948397
 20
1.924853
 30
0.0
 10
69.648262
 20
2.480492
 30
0.0
 10
69.348124
 20
3.036103
 30
0.0
 10
69.047987
 20
3.591742
 30
0.0
 10
68.747852
 20
4.147353
 30
0.0
 10
68.447714
 20
4.702992
 30
0.0
 10
68.335161
 20
4.909325
 30
0.0
 10
68.225707
 20
5.096748
 30
0.0
 10
68.119357
 20
5.265263
 30
0.0
 10
68.016106
 20
5.414869
 30
0.0
 10
67.915959
 20
5.545566
 30
0.0
 10
67.818912
 20
5.657326
 30
0.0
 10
67.724965
 20
5.750206
 30
0.0
 10
67.634121
 20
5.824148
 30
0.0
 10
67.510558
 20
5.903227
 30
0.0
 10
67.382969
 20
5.971750
 30
0.0
 10
67.251346
 20
6.029719
 30
0.0
 10
67.115696
 20
6.077160
 30
0.0
 10
66.976015
 20
6.114047
 30
0.0
 10
66.832305
 20
6.140293
 30
0.0
 10
66.684562
 20
6.156098
 30
0.0
 10
66.532791
 20
6.161460
 30
0.0
 10
66.483182
 20
6.161460
 30
0.0
 10
66.433573
 20
6.161460
 30
0.0
 10
66.383964
 20
6.161460
 30
0.0
 10
66.334355
 20
6.161460
 30
0.0
 10
66.284743
 20
6.161460
 30
0.0
 10
66.235134
 20
6.161460
 30
0.0
 10
66.185525
 20
6.161460
 30
0.0
 10
66.135916
 20
6.161460
 30
0.0
 10
66.135916
 20
5.423534
 30
0.0
 10
66.135916
 20
4.685579
 30
0.0
 10
66.135916
 20
3.947652
 30
0.0
 10
66.135916
 20
3.209726
 30
0.0
 10
66.135916
 20
2.471771
 30
0.0
 10
66.135916
 20
1.733845
 30
0.0
 10
66.135916
 20
0.995890
 30
0.0
 10
66.135916
 20
0.257964
 30
0.0
 10
65.571610
 20
0.257964
 30
0.0
 10
65.007304
 20
0.257964
 30
0.0
 10
64.442998
 20
0.257964
 30
0.0
 10
63.878691
 20
0.257964
 30
0.0
 10
63.314382
 20
0.257964
 30
0.0
 10
62.750076
 20
0.257964
 30
0.0
 10
62.185770
 20
0.257964
 30
0.0
 10
61.621464
 20
0.257964
 30
0.0
  0
LWPOLYLINE
  5
107
100
AcDbEntity
  8
Layer_1
 62
7
100
AcDbPolyline
 90
65
 70
0
 10
66.135916
 20
8.909825
 30
0.0
 10
66.372802
 20
8.909825
 30
0.0
 10
66.609685
 20
8.909825
 30
0.0
 10
66.846571
 20
8.909825
 30
0.0
 10
67.083457
 20
8.909825
 30
0.0
 10
67.320341
 20
8.909825
 30
0.0
 10
67.557227
 20
8.909825
 30
0.0
 10
67.794110
 20
8.909825
 30
0.0
 10
68.030996
 20
8.909825
 30
0.0
 10
68.116879
 20
8.912929
 30
0.0
 10
68.220748
 20
8.922242
 30
0.0
 10
68.342597
 20
8.937765
 30
0.0
 10
68.482436
 20
8.959496
 30
0.0
 10
68.640254
 20
8.987436
 30
0.0
 10
68.816059
 20
9.021556
 30
0.0
 10
69.009847
 20
9.061858
 30
0.0
 10
69.221621
 20
9.108368
 30
0.0
 10
69.330604
 20
9.135179
 30
0.0
 10
69.434315
 20
9.170513
 30
0.0
 10
69.532757
 20
9.214540
 30
0.0
 10
69.625930
 20
9.267231
 30
0.0
 10
69.713831
 20
9.328642
 30
0.0
 10
69.796462
 20
9.398690
 30
0.0
 10
69.873825
 20
9.477458
 30
0.0
 10
69.945916
 20
9.564891
 30
0.0
 10
70.013350
 20
9.658363
 30
0.0
 10
70.071796
 20
9.755278
 30
0.0
 10
70.121249
 20
9.855580
 30
0.0
 10
70.161712
 20
9.959296
 30
0.0
 10
70.193182
 20
10.066428
 30
0.0
 10
70.215647
 20
10.176946
 30
0.0
 10
70.229137
 20
10.290907
 30
0.0
 10
70.233625
 20
10.408255
 30
0.0
 10
70.226654
 20
10.579254
 30
0.0
 10
70.205713
 20
10.740008
 30
0.0
 10
70.170830
 20
10.890545
 30
0.0
 10
70.121994
 20
11.030838
 30
0.0
 10
70.059209
 20
11.160914
 30
0.0
 10
69.982469
 20
11.280774
 30
0.0
 10
69.891780
 20
11.390389
 30
0.0
 10
69.787138
 20
11.489759
 30
0.0
 10
69.663268
 20
11.578123
 30
0.0
 10
69.514901
 20
11.654690
 30
0.0
 10
69.342042
 20
11.719488
 30
0.0
 10
69.144690
 20
11.772518
 30
0.0
 10
68.922844
 20
11.813750
 30
0.0
 10
68.676506
 20
11.843214
 30
0.0
 10
68.405671
 20
11.860994
 30
0.0
 10
68.110343
 20
11.866921
 30
0.0
 10
67.863537
 20
11.866921
 30
0.0
 10
67.616730
 20
11.866921
 30
0.0
 10
67.369921
 20
11.866921
 30
0.0
 10
67.123115
 20
11.866921
 30
0.0
 10
66.876309
 20
11.866921
 30
0.0
 10
66.629503
 20
11.866921
 30
0.0
 10
66.382694
 20
11.866921
 30
0.0
 10
66.135888
 20
11.866921
 30
0.0
 10
66.135888
 20
11.497323
 30
0.0
 10
66.135888
 20
11.127753
 30
0.0
 10
66.135888
 20
10.758154
 30
0.0
 10
66.135888
 20
10.388556
 30
0.0
 10
66.135888
 20
10.018958
 30
0.0
 10
66.135888
 20
9.649388
 30
0.0
 10
66.135888
 20
9.279790
 30
0.0
 10
66.135888
 20
8.910192
 30
0.0
  0
LWPOLYLINE
  5
108
100
AcDbEntity
  8
Layer_1
 62
7
100
AcDbPolyline
 90
97
 70
0
 10
75.654298
 20
14.803443
 30
0.0
 10
77.159942
 20
14.803443
 30
0.0
 10
78.665586
 20
14.803443
 30
0.0
 10
80.171231
 20
14.803443
 30
0.0
 10
81.676875
 20
14.803443
 30
0.0
 10
83.182519
 20
14.803443
 30
0.0
 10
84.688164
 20
14.803443
 30
0.0
 10
86.193808
 20
14.803443
 30
0.0
 10
87.699452
 20
14.803443
 30
0.0
 10
87.699452
 20
14.415235
 30
0.0
 10
87.699452
 20
14.027067
 30
0.0
 10
87.699452
 20
13.638870
 30
0.0
 10
87.699452
 20
13.250673
 30
0.0
 10
87.699452
 20
12.862477
 30
0.0
 10
87.699452
 20
12.474280
 30
0.0
 10
87.699452
 20
12.086083
 30
0.0
 10
87.699452
 20
11.697887
 30
0.0
 10
86.756875
 20
11.697887
 30
0.0
 10
85.814295
 20
11.697887
 30
0.0
 10
84.871718
 20
11.697887
 30
0.0
 10
83.929141
 20
11.697887
 30
0.0
 10
82.986561
 20
11.697887
 30
0.0
 10
82.043984
 20
11.697887
 30
0.0
 10
81.101404
 20
11.697887
 30
0.0
 10
80.158827
 20
11.697887
 30
0.0
 10
80.158827
 20
11.408919
 30
0.0
 10
80.158827
 20
11.119924
 30
0.0
 10
80.158827
 20
10.830956
 30
0.0
 10
80.158827
 20
10.541989
 30
0.0
 10
80.158827
 20
10.253022
 30
0.0
 10
80.158827
 20
9.964026
 30
0.0
 10
80.158827
 20
9.675059
 30
0.0
 10
80.158827
 20
9.386092
 30
0.0
 10
81.033194
 20
9.386092
 30
0.0
 10
81.907558
 20
9.386092
 30
0.0
 10
82.781925
 20
9.386092
 30
0.0
 10
83.656289
 20
9.386092
 30
0.0
 10
84.530655
 20
9.386092
 30
0.0
 10
85.405019
 20
9.386092
 30
0.0
 10
86.279386
 20
9.386092
 30
0.0
 10
87.153750
 20
9.386092
 30
0.0
 10
87.153750
 20
9.015252
 30
0.0
 10
87.153750
 20
8.644440
 30
0.0
 10
87.153750
 20
8.273600
 30
0.0
 10
87.153750
 20
7.902760
 30
0.0
 10
87.153750
 20
7.531948
 30
0.0
 10
87.153750
 20
7.161108
 30
0.0
 10
87.153750
 20
6.790296
 30
0.0
 10
87.153750
 20
6.419456
 30
0.0
 10
86.279386
 20
6.419456
 30
0.0
 10
85.405019
 20
6.419456
 30
0.0
 10
84.530655
 20
6.419456
 30
0.0
 10
83.656289
 20
6.419456
 30
0.0
 10
82.781925
 20
6.419456
 30
0.0
 10
81.907558
 20
6.419456
 30
0.0
 10
81.033194
 20
6.419456
 30
0.0
 10
80.158827
 20
6.419456
 30
0.0
 10
80.158827
 20
6.061034
 30
0.0
 10
80.158827
 20
5.702612
 30
0.0
 10
80.158827
 20
5.344190
 30
0.0
 10
80.158827
 20
4.985739
 30
0.0
 10
80.158827
 20
4.627317
 30
0.0
 10
80.158827
 20
4.268895
 30
0.0
 10
80.158827
 20
3.910472
 30
0.0
 10
80.158827
 20
3.552050
 30
0.0
 10
81.128689
 20
3.552050
 30
0.0
 10
82.098555
 20
3.552050
 30
0.0
 10
83.068417
 20
3.552050
 30
0.0
 10
84.038282
 20
3.552050
 30
0.0
 10
85.008144
 20
3.552050
 30
0.0
 10
85.978007
 20
3.552050
 30
0.0
 10
86.947872
 20
3.552050
 30
0.0
 10
87.917734
 20
3.552050
 30
0.0
 10
87.917734
 20
3.140288
 30
0.0
 10
87.917734
 20
2.728526
 30
0.0
 10
87.917734
 20
2.316764
 30
0.0
 10
87.917734
 20
1.905001
 30
0.0
 10
87.917734
 20
1.493267
 30
0.0
 10
87.917734
 20
1.081505
 30
0.0
 10
87.917734
 20
0.669743
 30
0.0
 10
87.917734
 20
0.257981
 30
0.0
 10
86.384805
 20
0.257981
 30
0.0
 10
84.851875
 20
0.257981
 30
0.0
 10
83.318945
 20
0.257981
 30
0.0
 10
81.786016
 20
0.257981
 30
0.0
 10
80.253086
 20
0.257981
 30
0.0
 10
78.720157
 20
0.257981
 30
0.0
 10
77.187227
 20
0.257981
 30
0.0
 10
75.654298
 20
0.257981
 30
0.0
 10
75.654298
 20
2.076169
 30
0.0
 10
75.654298
 20
3.894358
 30
0.0
 10
75.654298
 20
5.712518
 30
0.0
 10
75.654298
 20
7.530706
 30
0.0
 10
75.654298
 20
9.348895
 30
0.0
 10
75.654298
 20
11.167083
 30
0.0
 10
75.654298
 20
12.985272
 30
0.0
 10
75.654298
 20
14.803443
 30
0.0
  0
LWPOLYLINE
  5
109
100
AcDbEntity
  8
Layer_1
 62
7
100
AcDbPolyline
 90
233
 70
0
 10
87.871433
 20
5.070095
 30
0.0
 10
88.405973
 20
5.103567
 30
0.0
 10
88.940513
 20
5.137067
 30
0.0
 10
89.475056
 20
5.170538
 30
0.0
 10
90.009596
 20
5.204038
 30
0.0
 10
90.544136
 20
5.237510
 30
0.0
 10
91.078679
 20
5.271009
 30
0.0
 10
91.613220
 20
5.304481
 30
0.0
 10
92.147760
 20
5.337981
 30
0.0
 10
92.186980
 20
5.085279
 30
0.0
 10
92.235195
 20
4.848071
 30
0.0
 10
92.292399
 20
4.626386
 30
0.0
 10
92.358597
 20
4.420194
 30
0.0
 10
92.433786
 20
4.229496
 30
0.0
 10
92.517968
 20
4.054321
 30
0.0
 10
92.611140
 20
3.894640
 30
0.0
 10
92.713308
 20
3.750481
 30
0.0
 10
92.896241
 20
3.543499
 30
0.0
 10
93.097776
 20
3.364147
 30
0.0
 10
93.317918
 20
3.212368
 30
0.0
 10
93.556661
 20
3.088190
 30
0.0
 10
93.814011
 20
2.991613
 30
0.0
 10
94.089965
 20
2.922610
 30
0.0
 10
94.384520
 20
2.881236
 30
0.0
 10
94.697683
 20
2.867407
 30
0.0
 10
94.931309
 20
2.874463
 30
0.0
 10
95.150985
 20
2.895347
 30
0.0
 10
95.356705
 20
2.930230
 30
0.0
 10
95.548478
 20
2.979054
 30
0.0
 10
95.726295
 20
3.041849
 30
0.0
 10
95.890162
 20
3.118585
 30
0.0
 10
96.040078
 20
3.209263
 30
0.0
 10
96.176042
 20
3.313911
 30
0.0
 10
96.299285
 20
3.430187
 30
0.0
 10
96.406101
 20
3.550780
 30
0.0
 10
96.496480
 20
3.675748
 30
0.0
 10
96.570427
 20
3.805034
 30
0.0
 10
96.627944
 20
3.938666
 30
0.0
 10
96.669030
 20
4.076645
 30
0.0
 10
96.693696
 20
4.218970
 30
0.0
 10
96.701909
 20
4.365640
 30
0.0
 10
96.694148
 20
4.505171
 30
0.0
 10
96.670893
 20
4.640976
 30
0.0
 10
96.632135
 20
4.773056
 30
0.0
 10
96.577872
 20
4.901411
 30
0.0
 10
96.508110
 20
5.026040
 30
0.0
 10
96.422845
 20
5.146973
 30
0.0
 10
96.322080
 20
5.264180
 30
0.0
 10
96.205810
 20
5.377661
 30
0.0
 10
96.061321
 20
5.488518
 30
0.0
 10
95.875904
 20
5.597794
 30
0.0
 10
95.649559
 20
5.705547
 30
0.0
 10
95.382289
 20
5.811747
 30
0.0
 10
95.074091
 20
5.916395
 30
0.0
 10
94.724965
 20
6.019491
 30
0.0
 10
94.334914
 20
6.121034
 30
0.0
 10
93.903935
 20
6.221026
 30
0.0
 10
93.191265
 20
6.394028
 30
0.0
 10
92.531613
 20
6.580690
 30
0.0
 10
91.924982
 20
6.780983
 30
0.0
 10
91.371372
 20
6.994936
 30
0.0
 10
90.870783
 20
7.222520
 30
0.0
 10
90.423215
 20
7.463735
 30
0.0
 10
90.028666
 20
7.718610
 30
0.0
 10
89.687138
 20
7.987116
 30
0.0
 10
89.389481
 20
8.271906
 30
0.0
 10
89.131513
 20
8.575606
 30
0.0
 10
88.913231
 20
8.898214
 30
0.0
 10
88.734638
 20
9.239731
 30
0.0
 10
88.595731
 20
9.600185
 30
0.0
 10
88.496513
 20
9.979548
 30
0.0
 10
88.436981
 20
10.377820
 30
0.0
 10
88.417140
 20
10.795001
 30
0.0
 10
88.427216
 20
11.073272
 30
0.0
 10
88.457445
 20
11.347508
 30
0.0
 10
88.507830
 20
11.617736
 30
0.0
 10
88.578368
 20
11.883928
 30
0.0
 10
88.669060
 20
12.146084
 30
0.0
 10
88.779906
 20
12.404204
 30
0.0
 10
88.910908
 20
12.658289
 30
0.0
 10
89.062060
 20
12.908366
 30
0.0
 10
89.235847
 20
13.152065
 30
0.0
 10
89.429790
 20
13.382132
 30
0.0
 10
89.643884
 20
13.598540
 30
0.0
 10
89.878134
 20
13.801317
 30
0.0
 10
90.132535
 20
13.990462
 30
0.0
 10
90.407092
 20
14.165948
 30
0.0
 10
90.701805
 20
14.327803
 30
0.0
 10
91.016669
 20
14.476026
 30
0.0
 10
91.359126
 20
14.610900
 30
0.0
 10
91.731663
 20
14.727796
 30
0.0
 10
92.134272
 20
14.826690
 30
0.0
 10
92.566958
 20
14.907614
 30
0.0
 10
93.029721
 20
14.970555
 30
0.0
 10
93.522560
 20
15.015516
 30
0.0
 10
94.045476
 20
15.042497
 30
0.0
 10
94.598467
 20
15.051499
 30
0.0
 10
95.274703
 20
15.035215
 30
0.0
 10
95.909390
 20
14.986377
 30
0.0
 10
96.502530
 20
14.904984
 30
0.0
 10
97.054122
 20
14.791034
 30
0.0
 10
97.564169
 20
14.644521
 30
0.0
 10
98.032669
 20
14.465479
 30
0.0
 10
98.459623
 20
14.253869
 30
0.0
 10
98.845029
 20
14.009690
 30
0.0
 10
99.193531
 20
13.732492
 30
0.0
 10
99.504827
 20
13.416854
 30
0.0
 10
99.778916
 20
13.062778
 30
0.0
 10
100.015799
 20
12.670235
 30
0.0
 10
100.215477
 20
12.239254
 30
0.0
 10
100.377950
 20
11.769834
 30
0.0
 10
100.503217
 20
11.261975
 30
0.0
 10
100.591279
 20
10.715649
 30
0.0
 10
100.061697
 20
10.684633
 30
0.0
 10
99.532118
 20
10.653645
 30
0.0
 10
99.002537
 20
10.622628
 30
0.0
 10
98.472958
 20
10.591640
 30
0.0
 10
97.943376
 20
10.560624
 30
0.0
 10
97.413798
 20
10.529608
 30
0.0
 10
96.884216
 20
10.498620
 30
0.0
 10
96.354638
 20
10.467604
 30
0.0
 10
96.306575
 20
10.704783
 30
0.0
 10
96.246733
 20
10.925227
 30
0.0
 10
96.175108
 20
11.128935
 30
0.0
 10
96.091700
 20
11.315907
 30
0.0
 10
95.996514
 20
11.486116
 30
0.0
 10
95.889544
 20
11.639616
 30
0.0
 10
95.770793
 20
11.776353
 30
0.0
 10
95.640263
 20
11.896354
 30
0.0
 10
95.499803
 20
12.001002
 30
0.0
 10
95.346322
 20
12.091680
 30
0.0
 10
95.179820
 20
12.168416
 30
0.0
 10
95.000295
 20
12.231182
 30
0.0
 10
94.807749
 20
12.280035
 30
0.0
 10
94.602181
 20
12.314918
 30
0.0
 10
94.383592
 20
12.335802
 30
0.0
 10
94.151981
 20
12.342858
 30
0.0
 10
93.962068
 20
12.337495
 30
0.0
 10
93.784248
 20
12.321691
 30
0.0
 10
93.618521
 20
12.295444
 30
0.0
 10
93.464888
 20
12.258558
 30
0.0
 10
93.323345
 20
12.211116
 30
0.0
 10
93.193898
 20
12.153148
 30
0.0
 10
93.076542
 20
12.084624
 30
0.0
 10
92.971279
 20
12.005574
 30
0.0
 10
92.878258
 20
11.921387
 30
0.0
 10
92.797641
 20
11.832543
 30
0.0
 10
92.729428
 20
11.739071
 30
0.0
 10
92.673619
 20
11.640943
 30
0.0
 10
92.630210
 20
11.538157
 30
0.0
 10
92.599205
 20
11.430715
 30
0.0
 10
92.580607
 20
11.318617
 30
0.0
 10
92.574398
 20
11.201890
 30
0.0
 10
92.579506
 20
11.116150
 30
0.0
 10
92.594859
 20
11.032613
 30
0.0
 10
92.620428
 20
10.951220
 30
0.0
 10
92.656239
 20
10.872000
 30
0.0
 10
92.702284
 20
10.794953
 30
0.0
 10
92.758562
 20
10.720052
 30
0.0
 10
92.825070
 20
10.647351
 30
0.0
 10
92.901812
 20
10.576824
 30
0.0
 10
92.994827
 20
10.505506
 30
0.0
 10
93.115130
 20
10.435430
 30
0.0
 10
93.262715
 20
10.366596
 30
0.0
 10
93.437589
 20
10.299004
 30
0.0
 10
93.639747
 20
10.232654
 30
0.0
 10
93.869191
 20
10.167517
 30
0.0
 10
94.125920
 20
10.103650
 30
0.0
 10
94.409937
 20
10.041025
 30
0.0
 10
95.120432
 20
9.881964
 30
0.0
 10
95.778529
 20
9.722283
 30
0.0
 10
96.384229
 20
9.561981
 30
0.0
 10
96.937528
 20
9.401058
 30
0.0
 10
97.438427
 20
9.239542
 30
0.0
 10
97.886929
 20
9.077377
 30
0.0
 10
98.283031
 20
8.914591
 30
0.0
 10
98.626732
 20
8.751185
 30
0.0
 10
98.935704
 20
8.584984
 30
0.0
 10
99.222659
 20
8.408877
 30
0.0
 10
99.487603
 20
8.222836
 30
0.0
 10
99.730532
 20
8.026890
 30
0.0
 10
99.951450
 20
7.821008
 30
0.0
 10
100.150354
 20
7.605221
 30
0.0
 10
100.327246
 20
7.379500
 30
0.0
 10
100.482123
 20
7.143844
 30
0.0
 10
100.619320
 20
6.899666
 30
0.0
 10
100.738226
 20
6.648375
 30
0.0
 10
100.838838
 20
6.389944
 30
0.0
 10
100.921157
 20
6.124373
 30
0.0
 10
100.985185
 20
5.851690
 30
0.0
 10
101.030919
 20
5.571838
 30
0.0
 10
101.058351
 20
5.284903
 30
0.0
 10
101.067495
 20
4.990799
 30
0.0
 10
101.055387
 20
4.644456
 30
0.0
 10
101.019108
 20
4.304943
 30
0.0
 10
100.958644
 20
3.972259
 30
0.0
 10
100.873997
 20
3.646377
 30
0.0
 10
100.765167
 20
3.327325
 30
0.0
 10
100.632153
 20
3.015103
 30
0.0
 10
100.474958
 20
2.709710
 30
0.0
 10
100.293576
 20
2.411119
 30
0.0
 10
100.090486
 20
2.124776
 30
0.0
 10
99.868172
 20
1.856101
 30
0.0
 10
99.626634
 20
1.605120
 30
0.0
 10
99.365875
 20
1.371779
 30
0.0
 10
99.085891
 20
1.156133
 30
0.0
 10
98.786688
 20
0.958182
 30
0.0
 10
98.468259
 20
0.777871
 30
0.0
 10
98.130608
 20
0.615254
 30
0.0
 10
97.772022
 20
0.473409
 30
0.0
 10
97.390805
 20
0.350473
 30
0.0
 10
96.986951
 20
0.246446
 30
0.0
 10
96.560465
 20
0.161328
 30
0.0
 10
96.111345
 20
0.095147
 30
0.0
 10
95.639594
 20
0.047846
 30
0.0
 10
95.145205
 20
0.019483
 30
0.0
 10
94.628185
 20
0.009888
 30
0.0
 10
93.736146
 20
0.032183
 30
0.0
 10
92.915421
 20
0.099154
 30
0.0
 10
92.166008
 20
0.210773
 30
0.0
 10
91.487910
 20
0.367040
 30
0.0
 10
90.881127
 20
0.567954
 30
0.0
 10
90.345655
 20
0.813544
 30
0.0
 10
89.881498
 20
1.103753
 30
0.0
 10
89.488656
 20
1.438609
 30
0.0
 10
89.150848
 20
1.807897
 30
0.0
 10
88.851796
 20
2.201343
 30
0.0
 10
88.591500
 20
2.619004
 30
0.0
 10
88.369964
 20
3.060823
 30
0.0
 10
88.187186
 20
3.526856
 30
0.0
 10
88.043162
 20
4.017048
 30
0.0
 10
87.937899
 20
4.531454
 30
0.0
 10
87.871390
 20
5.070019
 30
0.0
  0
ENDSEC
  0
SECTION
  2
OBJECTS
  0
DICTIONARY
  5
C
330
0
100
AcDbDictionary
  3
ACAD_GROUP
350
D
  3
ACAD_MLINESTYLE
350
17
  0
DICTIONARY
  5
D
330
C
100
AcDbDictionary
  0
DICTIONARY
  5
1A
330
C
100
AcDbDictionary
  0
DICTIONARY
  5
17
330
C
100
AcDbDictionary
  3
STANDARD
350
18
  0
DICTIONARY
  5
19
330
C
100
AcDbDictionary
  0
ENDSEC
  0
EOF
