  0
SECTION
  2
HEADER
  9
$ACADVER
  1
AC1014
  9
$HANDSEED
  5
FFFF
  9
$MEASUREMENT
 70
     1
  0
ENDSEC
  0
SECTION
  2
TABLES
  0
TABLE
  2
VPORT
  5
8
330
0
100
AcDbSymbolTable
 70
     4
  0
VPORT
  5
2E
330
8
100
AcDbSymbolTableRecord
100
AcDbViewportTableRecord
  2
*ACTIVE
 70
     0
 10
0.0
 20
0.0
 11
1.0
 21
1.0
 12
210.0
 22
148.5
 13
0.0
 23
0.0
 14
10.0
 24
10.0
 15
10.0
 25
10.0
 16
0.0
 26
0.0
 36
1.0
 17
0.0
 27
0.0
 37
0.0
 40
341.0
 41
1.24
 42
50.0
 43
0.0
 44
0.0
 50
0.0
 51
0.0
 71
     0
 72
   100
 73
     1
 74
     3
 75
     0
 76
     0
 77
     0
 78
     0
  0
ENDTAB
  0
TABLE
  2
LTYPE
  5
5
330
0
100
AcDbSymbolTable
 70
     1
  0
LTYPE
  5
14
330
5
100
AcDbSymbolTableRecord
100
AcDbLinetypeTableRecord
  2
BYBLOCK
 70
     0
  3

 72
    65
 73
     0
 40
0.0
  0
LTYPE
  5
15
330
5
100
AcDbSymbolTableRecord
100
AcDbLinetypeTableRecord
  2
BYLAYER
 70
     0
  3

 72
    65
 73
     0
 40
0.0
  0
LTYPE
  5
16
330
5
100
AcDbSymbolTableRecord
100
AcDbLinetypeTableRecord
  2
CONTINUOUS
 70
     0
  3
Solid line
 72
    65
 73
     0
 40
0.0
  0
ENDTAB
  0
TABLE
  2
LAYER
  5
2
100
AcDbSymbolTable
 70
2
  0
LAYER
  5
50
100
AcDbSymbolTableRecord
100
AcDbLayerTableRecord
  2
0
 70
0
  6
CONTINUOUS
  0
LAYER
  5
51
100
AcDbSymbolTableRecord
100
AcDbLayerTableRecord
  2
Layer_1
 70
0
  6
CONTINUOUS
  0
ENDTAB
  0
TABLE
  2
STYLE
  5
3
330
0
100
AcDbSymbolTable
 70
     1
  0
STYLE
  5
11
330
3
100
AcDbSymbolTableRecord
100
AcDbTextStyleTableRecord
  2
STANDARD
 70
     0
 40
0.0
 41
1.0
 50
0.0
 71
     0
 42
2.5
  3
txt
  4

  0
ENDTAB
  0
TABLE
  2
VIEW
  5
6
330
0
100
AcDbSymbolTable
 70
     0
  0
ENDTAB
  0
TABLE
  2
UCS
  5
7
330
0
100
AcDbSymbolTable
 70
     0
  0
ENDTAB
  0
TABLE
  2
APPID
  5
9
330
0
100
AcDbSymbolTable
 70
     2
  0
APPID
  5
12
330
9
100
AcDbSymbolTableRecord
100
AcDbRegAppTableRecord
  2
ACAD
 70
     0
  0
ENDTAB
  0
TABLE
  2
DIMSTYLE
  5
A
330
0
100
AcDbSymbolTable
 70
     1
  0
DIMSTYLE
105
27
330
A
100
AcDbSymbolTableRecord
100
AcDbDimStyleTableRecord
  2
ISO-25
 70
     0
  3

  4

  5

  6

  7

 40
1.0
 41
2.5
 42
0.625
 43
3.75
 44
1.25
 45
0.0
 46
0.0
 47
0.0
 48
0.0
140
2.5
141
2.5
142
0.0
143
0.03937007874016
144
1.0
145
0.0
146
1.0
147
0.625
 71
     0
 72
     0
 73
     0
 74
     0
 75
     0
 76
     0
 77
     1
 78
     8
170
     0
171
     3
172
     1
173
     0
174
     0
175
     0
176
     0
177
     0
178
     0
270
     2
271
     2
272
     2
273
     2
274
     3
340
11
275
     0
280
     0
281
     0
282
     0
283
     0
284
     8
285
     0
286
     0
287
     3
288
     0
  0
ENDTAB
  0
TABLE
  2
BLOCK_RECORD
  5
1
330
0
100
AcDbSymbolTable
 70
     1
  0
BLOCK_RECORD
  5
1F
330
1
100
AcDbSymbolTableRecord
100
AcDbBlockTableRecord
  2
*MODEL_SPACE
  0
BLOCK_RECORD
  5
1B
330
1
100
AcDbSymbolTableRecord
100
AcDbBlockTableRecord
  2
*PAPER_SPACE
  0
ENDTAB
  0
ENDSEC
  0
SECTION
  2
BLOCKS
  0
BLOCK
  5
20
330
1F
100
AcDbEntity
  8
0
100
AcDbBlockBegin
  2
*MODEL_SPACE
 70
     0
 10
0.0
 20
0.0
 30
0.0
  3
*MODEL_SPACE
  1

  0
ENDBLK
  5
21
330
1F
100
AcDbEntity
  8
0
100
AcDbBlockEnd
  0
BLOCK
  5
1C
330
1B
100
AcDbEntity
 67
     1
  8
0
100
AcDbBlockBegin
  2
*PAPER_SPACE
  1

  0
ENDBLK
  5
1D
330
1B
100
AcDbEntity
 67
     1
  8
0
100
AcDbBlockEnd
  0
ENDSEC
  0
SECTION
  2
ENTITIES
  0
LWPOLYLINE
  5
100
100
AcDbEntity
  8
Layer_1
 62
7
100
AcDbPolyline
 90
73
 70
0
 10
-0.987778
 20
14.803443
 30
0.0
 10
-0.053881
 20
14.803443
 30
0.0
 10
0.880015
 20
14.803443
 30
0.0
 10
1.813912
 20
14.803443
 30
0.0
 10
2.747808
 20
14.803443
 30
0.0
 10
3.681705
 20
14.803443
 30
0.0
 10
4.615601
 20
14.803443
 30
0.0
 10
5.549498
 20
14.803443
 30
0.0
 10
6.483394
 20
14.803443
 30
0.0
 10
7.074362
 20
14.785296
 30
0.0
 10
7.626884
 20
14.730867
 30
0.0
 10
8.140960
 20
14.640189
 30
0.0
 10
8.616589
 20
14.513217
 30
0.0
 10
9.053772
 20
14.349980
 30
0.0
 10
9.452509
 20
14.150449
 30
0.0
 10
9.812799
 20
13.914652
 30
0.0
 10
10.134644
 20
13.642590
 30
0.0
 10
10.420669
 20
13.337028
 30
0.0
 10
10.668557
 20
13.000760
 30
0.0
 10
10.878310
 20
12.633786
 30
0.0
 10
11.049927
 20
12.236135
 30
0.0
 10
11.183408
 20
11.807807
 30
0.0
 10
11.278753
 20
11.348744
 30
0.0
 10
11.335962
 20
10.859032
 30
0.0
 10
11.355034
 20
10.338586
 30
0.0
 10
11.334257
 20
9.802956
 30
0.0
 10
11.271932
 20
9.297412
 30
0.0
 10
11.168060
 20
8.821952
 30
0.0
 10
11.022642
 20
8.376549
 30
0.0
 10
10.835678
 20
7.961231
 30
0.0
 10
10.607166
 20
7.575969
 30
0.0
 10
10.337108
 20
7.220792
 30
0.0
 10
10.025504
 20
6.895701
 30
0.0
 10
9.673739
 20
6.605012
 30
0.0
 10
9.278256
 20
6.353100
 30
0.0
 10
8.839057
 20
6.139938
 30
0.0
 10
8.356140
 20
5.965524
 30
0.0
 10
7.829507
 20
5.829888
 30
0.0
 10
7.259155
 20
5.733001
 30
0.0
 10
6.645087
 20
5.674864
 30
0.0
 10
5.987301
 20
5.655390
 30
0.0
 10
5.679723
 20
5.655390
 30
0.0
 10
5.372145
 20
5.655390
 30
0.0
 10
5.064567
 20
5.655390
 30
0.0
 10
4.756988
 20
5.655390
 30
0.0
 10
4.449410
 20
5.655390
 30
0.0
 10
4.141832
 20
5.655390
 30
0.0
 10
3.834254
 20
5.655390
 30
0.0
 10
3.526676
 20
5.655390
 30
0.0
 10
3.526676
 20
4.980710
 30
0.0
 10
3.526676
 20
4.306001
 30
0.0
 10
3.526676
 20
3.631321
 30
0.0
 10
3.526676
 20
2.956640
 30
0.0
 10
3.526676
 20
2.281960
 30
0.0
 10
3.526676
 20
1.607251
 30
0.0
 10
3.526676
 20
0.932571
 30
0.0
 10
3.526676
 20
0.257890
 30
0.0
 10
2.962369
 20
0.257890
 30
0.0
 10
2.398063
 20
0.257890
 30
0.0
 10
1.833756
 20
0.257890
 30
0.0
 10
1.269449
 20
0.257890
 30
0.0
 10
0.705143
 20
0.257890
 30
0.0
 10
0.140836
 20
0.257890
 30
0.0
 10
-0.423471
 20
0.257890
 30
0.0
 10
-0.987777
 20
0.257890
 30
0.0
 10
-0.987777
 20
2.076079
 30
0.0
 10
-0.987777
 20
3.894267
 30
0.0
 10
-0.987777
 20
5.712427
 30
0.0
 10
-0.987777
 20
7.530616
 30
0.0
 10
-0.987777
 20
9.348804
 30
0.0
 10
-0.987777
 20
11.166993
 30
0.0
 10
-0.987777
 20
12.985181
 30
0.0
 10
-0.987777
 20
14.803353
 30
0.0
  0
LWPOLYLINE
  5
101
100
AcDbEntity
  8
Layer_1
 62
7
100
AcDbPolyline
 90
57
 70
0
 10
3.526676
 20
8.602185
 30
0.0
 10
3.664342
 20
8.602185
 30
0.0
 10
3.802008
 20
8.602185
 30
0.0
 10
3.939674
 20
8.602185
 30
0.0
 10
4.077340
 20
8.602185
 30
0.0
 10
4.215006
 20
8.602185
 30
0.0
 10
4.352672
 20
8.602185
 30
0.0
 10
4.490338
 20
8.602185
 30
0.0
 10
4.628004
 20
8.602185
 30
0.0
 10
4.940850
 20
8.609241
 30
0.0
 10
5.229513
 20
8.630125
 30
0.0
 10
5.493992
 20
8.665008
 30
0.0
 10
5.734287
 20
8.713833
 30
0.0
 10
5.950398
 20
8.776627
 30
0.0
 10
6.142325
 20
8.853363
 30
0.0
 10
6.310069
 20
8.944041
 30
0.0
 10
6.453629
 20
9.048689
 30
0.0
 10
6.576874
 20
9.166658
 30
0.0
 10
6.683687
 20
9.292388
 30
0.0
 10
6.774068
 20
9.425879
 30
0.0
 10
6.848016
 20
9.567103
 30
0.0
 10
6.905533
 20
9.716088
 30
0.0
 10
6.946617
 20
9.872835
 30
0.0
 10
6.971269
 20
10.037314
 30
0.0
 10
6.979490
 20
10.209554
 30
0.0
 10
6.972356
 20
10.377448
 30
0.0
 10
6.950960
 20
10.538823
 30
0.0
 10
6.915302
 20
10.693706
 30
0.0
 10
6.865382
 20
10.842070
 30
0.0
 10
6.801201
 20
10.983915
 30
0.0
 10
6.722757
 20
11.119241
 30
0.0
 10
6.630052
 20
11.248103
 30
0.0
 10
6.523085
 20
11.370419
 30
0.0
 10
6.396423
 20
11.482037
 30
0.0
 10
6.244647
 20
11.578755
 30
0.0
 10
6.067758
 20
11.660628
 30
0.0
 10
5.865754
 20
11.727599
 30
0.0
 10
5.638637
 20
11.779669
 30
0.0
 10
5.386405
 20
11.816894
 30
0.0
 10
5.109060
 20
11.839190
 30
0.0
 10
4.806600
 20
11.846527
 30
0.0
 10
4.646610
 20
11.846527
 30
0.0
 10
4.486620
 20
11.846527
 30
0.0
 10
4.326630
 20
11.846527
 30
0.0
 10
4.166639
 20
11.846527
 30
0.0
 10
4.006649
 20
11.846527
 30
0.0
 10
3.846659
 20
11.846527
 30
0.0
 10
3.686669
 20
11.846527
 30
0.0
 10
3.526679
 20
11.846527
 30
0.0
 10
3.526679
 20
11.440974
 30
0.0
 10
3.526679
 20
11.035421
 30
0.0
 10
3.526679
 20
10.629867
 30
0.0
 10
3.526679
 20
10.224314
 30
0.0
 10
3.526679
 20
9.818733
 30
0.0
 10
3.526679
 20
9.413179
 30
0.0
 10
3.526679
 20
9.007626
 30
0.0
 10
3.526679
 20
8.602073
 30
0.0
  0
LWPOLYLINE
  5
102
100
AcDbEntity
  8
Layer_1
 62
7
100
AcDbPolyline
 90
33
 70
0
 10
12.483924
 20
14.803443
 30
0.0
 10
13.046990
 20
14.803443
 30
0.0
 10
13.610056
 20
14.803443
 30
0.0
 10
14.173123
 20
14.803443
 30
0.0
 10
14.736189
 20
14.803443
 30
0.0
 10
15.299256
 20
14.803443
 30
0.0
 10
15.862322
 20
14.803443
 30
0.0
 10
16.425388
 20
14.803443
 30
0.0
 10
16.988455
 20
14.803443
 30
0.0
 10
16.988455
 20
12.985272
 30
0.0
 10
16.988455
 20
11.167083
 30
0.0
 10
16.988455
 20
9.348895
 30
0.0
 10
16.988455
 20
7.530706
 30
0.0
 10
16.988455
 20
5.712518
 30
0.0
 10
16.988455
 20
3.894358
 30
0.0
 10
16.988455
 20
2.076169
 30
0.0
 10
16.988455
 20
0.257981
 30
0.0
 10
16.425388
 20
0.257981
 30
0.0
 10
15.862322
 20
0.257981
 30
0.0
 10
15.299256
 20
0.257981
 30
0.0
 10
14.736189
 20
0.257981
 30
0.0
 10
14.173123
 20
0.257981
 30
0.0
 10
13.610056
 20
0.257981
 30
0.0
 10
13.046990
 20
0.257981
 30
0.0
 10
12.483924
 20
0.257981
 30
0.0
 10
12.483924
 20
2.076169
 30
0.0
 10
12.483924
 20
3.894358
 30
0.0
 10
12.483924
 20
5.712518
 30
0.0
 10
12.483924
 20
7.530706
 30
0.0
 10
12.483924
 20
9.348895
 30
0.0
 10
12.483924
 20
11.167083
 30
0.0
 10
12.483924
 20
12.985272
 30
0.0
 10
12.483924
 20
14.803443
 30
0.0
  0
LWPOLYLINE
  5
103
100
AcDbEntity
  8
Layer_1
 62
7
100
AcDbPolyline
 90
169
 70
0
 10
28.475782
 20
6.201186
 30
0.0
 10
28.968155
 20
6.052342
 30
0.0
 10
29.460529
 20
5.903526
 30
0.0
 10
29.952902
 20
5.754682
 30
0.0
 10
30.445273
 20
5.605866
 30
0.0
 10
30.937646
 20
5.457022
 30
0.0
 10
31.430019
 20
5.308206
 30
0.0
 10
31.922393
 20
5.159362
 30
0.0
 10
32.414766
 20
5.010546
 30
0.0
 10
32.308411
 20
4.604824
 30
0.0
 10
32.187794
 20
4.216176
 30
0.0
 10
32.052918
 20
3.844574
 30
0.0
 10
31.903780
 20
3.490018
 30
0.0
 10
31.740379
 20
3.152508
 30
0.0
 10
31.562717
 20
2.832073
 30
0.0
 10
31.370795
 20
2.528684
 30
0.0
 10
31.164609
 20
2.242342
 30
0.0
 10
30.944772
 20
1.973045
 30
0.0
 10
30.711916
 20
1.720823
 30
0.0
 10
30.466038
 20
1.485647
 30
0.0
 10
30.207139
 20
1.267518
 30
0.0
 10
29.935218
 20
1.066463
 30
0.0
 10
29.650275
 20
0.882426
 30
0.0
 10
29.352313
 20
0.715463
 30
0.0
 10
29.041327
 20
0.565546
 30
0.0
 10
28.715454
 20
0.432987
 30
0.0
 10
28.367874
 20
0.318122
 30
0.0
 10
27.998594
 20
0.220925
 30
0.0
 10
27.607609
 20
0.141395
 30
0.0
 10
27.194922
 20
0.079532
 30
0.0
 10
26.760532
 20
0.035336
 30
0.0
 10
26.304438
 20
0.008807
 30
0.0
 10
25.826641
 20
0.000058
 30
0.0
 10
25.247294
 20
0.010782
 30
0.0
 10
24.694923
 20
0.042871
 30
0.0
 10
24.169528
 20
0.096352
 30
0.0
 10
23.671109
 20
0.171226
 30
0.0
 10
23.199665
 20
0.267520
 30
0.0
 10
22.755197
 20
0.385178
 30
0.0
 10
22.337704
 20
0.524257
 30
0.0
 10
21.947187
 20
0.684701
 30
0.0
 10
21.578992
 20
0.874608
 30
0.0
 10
21.223509
 20
1.097084
 30
0.0
 10
20.880739
 20
1.352100
 30
0.0
 10
20.550681
 20
1.639684
 30
0.0
 10
20.233337
 20
1.959809
 30
0.0
 10
19.928705
 20
2.312502
 30
0.0
 10
19.636785
 20
2.697764
 30
0.0
 10
19.357578
 20
3.115565
 30
0.0
 10
19.101779
 20
3.564835
 30
0.0
 10
18.880087
 20
4.044500
 30
0.0
 10
18.692501
 20
4.554532
 30
0.0
 10
18.539023
 20
5.094959
 30
0.0
 10
18.419650
 20
5.665782
 30
0.0
 10
18.334384
 20
6.267000
 30
0.0
 10
18.283225
 20
6.898585
 30
0.0
 10
18.266173
 20
7.560565
 30
0.0
 10
18.296094
 20
8.437260
 30
0.0
 10
18.385856
 20
9.261547
 30
0.0
 10
18.535459
 20
10.033425
 30
0.0
 10
18.744903
 20
10.752922
 30
0.0
 10
19.014189
 20
11.420011
 30
0.0
 10
19.343316
 20
12.034691
 30
0.0
 10
19.732285
 20
12.596990
 30
0.0
 10
20.181095
 20
13.106881
 30
0.0
 10
20.687109
 20
13.562670
 30
0.0
 10
21.242733
 20
13.957668
 30
0.0
 10
21.847966
 20
14.291904
 30
0.0
 10
22.502810
 20
14.565377
 30
0.0
 10
23.207263
 20
14.778091
 30
0.0
 10
23.961326
 20
14.930023
 30
0.0
 10
24.764999
 20
15.021186
 30
0.0
 10
25.618282
 20
15.051576
 30
0.0
 10
26.286920
 20
15.034219
 30
0.0
 10
26.918662
 20
14.982126
 30
0.0
 10
27.513508
 20
14.895306
 30
0.0
 10
28.071458
 20
14.773753
 30
0.0
 10
28.592513
 20
14.617487
 30
0.0
 10
29.076671
 20
14.426507
 30
0.0
 10
29.523931
 20
14.200786
 30
0.0
 10
29.934299
 20
13.940323
 30
0.0
 10
30.315976
 20
13.643905
 30
0.0
 10
30.672231
 20
13.310290
 30
0.0
 10
31.003061
 20
12.939450
 30
0.0
 10
31.308467
 20
12.531413
 30
0.0
 10
31.588451
 20
12.086179
 30
0.0
 10
31.843010
 20
11.603720
 30
0.0
 10
32.072147
 20
11.084065
 30
0.0
 10
32.275860
 20
10.527212
 30
0.0
 10
31.779767
 20
10.416835
 30
0.0
 10
31.283674
 20
10.306458
 30
0.0
 10
30.787578
 20
10.196081
 30
0.0
 10
30.291485
 20
10.085675
 30
0.0
 10
29.795392
 20
9.975298
 30
0.0
 10
29.299299
 20
9.864921
 30
0.0
 10
28.803203
 20
9.754544
 30
0.0
 10
28.307110
 20
9.644167
 30
0.0
 10
28.254707
 20
9.804780
 30
0.0
 10
28.201684
 20
9.954216
 30
0.0
 10
28.148043
 20
10.092505
 30
0.0
 10
28.093782
 20
10.219618
 30
0.0
 10
28.038902
 20
10.335583
 30
0.0
 10
27.983403
 20
10.440400
 30
0.0
 10
27.927285
 20
10.534042
 30
0.0
 10
27.870548
 20
10.616507
 30
0.0
 10
27.773651
 20
10.741757
 30
0.0
 10
27.671485
 20
10.859585
 30
0.0
 10
27.564048
 20
10.969962
 30
0.0
 10
27.451341
 20
11.072889
 30
0.0
 10
27.333364
 20
11.168393
 30
0.0
 10
27.210117
 20
11.256446
 30
0.0
 10
27.081601
 20
11.337077
 30
0.0
 10
26.947814
 20
11.410257
 30
0.0
 10
26.809370
 20
11.475366
 30
0.0
 10
26.666896
 20
11.531782
 30
0.0
 10
26.520391
 20
11.579534
 30
0.0
 10
26.369858
 20
11.618594
 30
0.0
 10
26.215294
 20
11.648989
 30
0.0
 10
26.056700
 20
11.670720
 30
0.0
 10
25.894077
 20
11.683702
 30
0.0
 10
25.727423
 20
11.687936
 30
0.0
 10
25.356591
 20
11.668744
 30
0.0
 10
25.008083
 20
11.611058
 30
0.0
 10
24.681901
 20
11.514933
 30
0.0
 10
24.378043
 20
11.380370
 30
0.0
 10
24.096510
 20
11.207368
 30
0.0
 10
23.837302
 20
10.995898
 30
0.0
 10
23.600419
 20
10.745991
 30
0.0
 10
23.385860
 20
10.457644
 30
0.0
 10
23.241681
 20
10.213155
 30
0.0
 10
23.116727
 20
9.936126
 30
0.0
 10
23.010996
 20
9.626528
 30
0.0
 10
22.924489
 20
9.284362
 30
0.0
 10
22.857207
 20
8.909655
 30
0.0
 10
22.809148
 20
8.502409
 30
0.0
 10
22.780314
 20
8.062594
 30
0.0
 10
22.770705
 20
7.590210
 30
0.0
 10
22.782180
 20
7.008691
 30
0.0
 10
22.816596
 20
6.474614
 30
0.0
 10
22.873957
 20
5.987978
 30
0.0
 10
22.954261
 20
5.548784
 30
0.0
 10
23.057509
 20
5.157031
 30
0.0
 10
23.183702
 20
4.812720
 30
0.0
 10
23.332840
 20
4.515822
 30
0.0
 10
23.504924
 20
4.266394
 30
0.0
 10
23.697779
 20
4.057098
 30
0.0
 10
23.909237
 20
3.875714
 30
0.0
 10
24.139300
 20
3.722242
 30
0.0
 10
24.387966
 20
3.596653
 30
0.0
 10
24.655237
 20
3.499004
 30
0.0
 10
24.941112
 20
3.429238
 30
0.0
 10
25.245591
 20
3.387357
 30
0.0
 10
25.568674
 20
3.373528
 30
0.0
 10
25.881210
 20
3.384817
 30
0.0
 10
26.173904
 20
3.418768
 30
0.0
 10
26.446754
 20
3.475354
 30
0.0
 10
26.699761
 20
3.554573
 30
0.0
 10
26.932926
 20
3.656427
 30
0.0
 10
27.146247
 20
3.780916
 30
0.0
 10
27.339726
 20
3.928038
 30
0.0
 10
27.513362
 20
4.097795
 30
0.0
 10
27.673814
 20
4.289113
 30
0.0
 10
27.822794
 20
4.500864
 30
0.0
 10
27.960304
 20
4.733105
 30
0.0
 10
28.086342
 20
4.985807
 30
0.0
 10
28.200909
 20
5.258970
 30
0.0
 10
28.304004
 20
5.552594
 30
0.0
 10
28.395631
 20
5.866679
 30
0.0
 10
28.475784
 20
6.201253
 30
0.0
  0
LWPOLYLINE
  5
104
100
AcDbEntity
  8
Layer_1
 62
7
100
AcDbPolyline
 90
65
 70
0
 10
32.154591
 20
14.803443
 30
0.0
 10
33.862394
 20
14.803443
 30
0.0
 10
35.570197
 20
14.803443
 30
0.0
 10
37.278000
 20
14.803443
 30
0.0
 10
38.985802
 20
14.803443
 30
0.0
 10
40.693605
 20
14.803443
 30
0.0
 10
42.401408
 20
14.803443
 30
0.0
 10
44.109211
 20
14.803443
 30
0.0
 10
45.817014
 20
14.803443
 30
0.0
 10
45.817014
 20
14.354473
 30
0.0
 10
45.817014
 20
13.905514
 30
0.0
 10
45.817014
 20
13.456554
 30
0.0
 10
45.817014
 20
13.007595
 30
0.0
 10
45.817014
 20
12.558636
 30
0.0
 10
45.817014
 20
12.109649
 30
0.0
 10
45.817014
 20
11.660690
 30
0.0
 10
45.817014
 20
11.211731
 30
0.0
 10
45.244027
 20
11.211731
 30
0.0
 10
44.671036
 20
11.211731
 30
0.0
 10
44.098049
 20
11.211731
 30
0.0
 10
43.525059
 20
11.211731
 30
0.0
 10
42.952072
 20
11.211731
 30
0.0
 10
42.379084
 20
11.211731
 30
0.0
 10
41.806094
 20
11.211731
 30
0.0
 10
41.233107
 20
11.211731
 30
0.0
 10
41.233107
 20
9.842501
 30
0.0
 10
41.233107
 20
8.473300
 30
0.0
 10
41.233107
 20
7.104071
 30
0.0
 10
41.233107
 20
5.734842
 30
0.0
 10
41.233107
 20
4.365640
 30
0.0
 10
41.233107
 20
2.996411
 30
0.0
 10
41.233107
 20
1.627210
 30
0.0
 10
41.233107
 20
0.257981
 30
0.0
 10
40.671282
 20
0.257981
 30
0.0
 10
40.109453
 20
0.257981
 30
0.0
 10
39.547628
 20
0.257981
 30
0.0
 10
38.985802
 20
0.257981
 30
0.0
 10
38.423977
 20
0.257981
 30
0.0
 10
37.862149
 20
0.257981
 30
0.0
 10
37.300323
 20
0.257981
 30
0.0
 10
36.738498
 20
0.257981
 30
0.0
 10
36.738498
 20
1.627210
 30
0.0
 10
36.738498
 20
2.996411
 30
0.0
 10
36.738498
 20
4.365640
 30
0.0
 10
36.738498
 20
5.734842
 30
0.0
 10
36.738498
 20
7.104071
 30
0.0
 10
36.738498
 20
8.473300
 30
0.0
 10
36.738498
 20
9.842501
 30
0.0
 10
36.738498
 20
11.211731
 30
0.0
 10
36.165511
 20
11.211731
 30
0.0
 10
35.592520
 20
11.211731
 30
0.0
 10
35.019533
 20
11.211731
 30
0.0
 10
34.446546
 20
11.211731
 30
0.0
 10
33.873556
 20
11.211731
 30
0.0
 10
33.300568
 20
11.211731
 30
0.0
 10
32.727578
 20
11.211731
 30
0.0
 10
32.154591
 20
11.211731
 30
0.0
 10
32.154591
 20
11.660690
 30
0.0
 10
32.154591
 20
12.109649
 30
0.0
 10
32.154591
 20
12.558636
 30
0.0
 10
32.154591
 20
13.007595
 30
0.0
 10
32.154591
 20
13.456554
 30
0.0
 10
32.154591
 20
13.905514
 30
0.0
 10
32.154591
 20
14.354473
 30
0.0
 10
32.154591
 20
14.803443
 30
0.0
  0
LWPOLYLINE
  5
105
100
AcDbEntity
  8
Layer_1
 62
7
100
AcDbPolyline
 90
153
 70
0
 10
55.915278
 20
14.803443
 30
0.0
 10
56.475864
 20
14.803443
 30
0.0
 10
57.036448
 20
14.803443
 30
0.0
 10
57.597034
 20
14.803443
 30
0.0
 10
58.157621
 20
14.803443
 30
0.0
 10
58.718207
 20
14.803443
 30
0.0
 10
59.278791
 20
14.803443
 30
0.0
 10
59.839377
 20
14.803443
 30
0.0
 10
60.399964
 20
14.803443
 30
0.0
 10
60.399964
 20
13.719473
 30
0.0
 10
60.399964
 20
12.635514
 30
0.0
 10
60.399964
 20
11.551554
 30
0.0
 10
60.399964
 20
10.467595
 30
0.0
 10
60.399964
 20
9.383636
 30
0.0
 10
60.399964
 20
8.299649
 30
0.0
 10
60.399964
 20
7.215690
 30
0.0
 10
60.399964
 20
6.131731
 30
0.0
 10
60.393614
 20
5.811437
 30
0.0
 10
60.374536
 20
5.495489
 30
0.0
 10
60.342755
 20
5.183887
 30
0.0
 10
60.298259
 20
4.876604
 30
0.0
 10
60.241056
 20
4.573666
 30
0.0
 10
60.171138
 20
4.275104
 30
0.0
 10
60.088512
 20
3.980830
 30
0.0
 10
59.993174
 20
3.690932
 30
0.0
 10
59.886664
 20
3.410008
 30
0.0
 10
59.765585
 20
3.137776
 30
0.0
 10
59.629932
 20
2.874237
 30
0.0
 10
59.479708
 20
2.619362
 30
0.0
 10
59.314910
 20
2.373180
 30
0.0
 10
59.135543
 20
2.135690
 30
0.0
 10
58.941606
 20
1.906864
 30
0.0
 10
58.733095
 20
1.686731
 30
0.0
 10
58.518377
 20
1.481329
 30
0.0
 10
58.300868
 20
1.291704
 30
0.0
 10
58.080571
 20
1.117940
 30
0.0
 10
57.857483
 20
0.959952
 30
0.0
 10
57.631604
 20
0.817797
 30
0.0
 10
57.402939
 20
0.691446
 30
0.0
 10
57.171480
 20
0.580899
 30
0.0
 10
56.937235
 20
0.486186
 30
0.0
 10
56.601594
 20
0.372224
 30
0.0
 10
56.249519
 20
0.273475
 30
0.0
 10
55.881013
 20
0.189909
 30
0.0
 10
55.496076
 20
0.121554
 30
0.0
 10
55.094705
 20
0.068356
 30
0.0
 10
54.676904
 20
0.030397
 30
0.0
 10
54.242668
 20
0.007537
 30
0.0
 10
53.792001
 20
-0.000083
 30
0.0
 10
53.523490
 20
0.002739
 30
0.0
 10
53.248774
 20
0.009794
 30
0.0
 10
52.967862
 20
0.021366
 30
0.0
 10
52.680746
 20
0.037734
 30
0.0
 10
52.387432
 20
0.058619
 30
0.0
 10
52.087915
 20
0.084301
 30
0.0
 10
51.782201
 20
0.114527
 30
0.0
 10
51.470283
 20
0.149410
 30
0.0
 10
51.164098
 20
0.191094
 30
0.0
 10
50.870626
 20
0.241809
 30
0.0
 10
50.589869
 20
0.301471
 30
0.0
 10
50.321822
 20
0.370164
 30
0.0
 10
50.066488
 20
0.447832
 30
0.0
 10
49.823870
 20
0.534502
 30
0.0
 10
49.593963
 20
0.630147
 30
0.0
 10
49.376767
 20
0.734795
 30
0.0
 10
49.168098
 20
0.852143
 30
0.0
 10
48.963766
 20
0.980978
 30
0.0
 10
48.763781
 20
1.121270
 30
0.0
 10
48.568133
 20
1.273049
 30
0.0
 10
48.376826
 20
1.436287
 30
0.0
 10
48.189862
 20
1.611010
 30
0.0
 10
48.007239
 20
1.797192
 30
0.0
 10
47.828956
 20
1.994861
 30
0.0
 10
47.662143
 20
2.199049
 30
0.0
 10
47.508973
 20
2.404760
 30
0.0
 10
47.369448
 20
2.612053
 30
0.0
 10
47.243563
 20
2.820869
 30
0.0
 10
47.131323
 20
3.031237
 30
0.0
 10
47.032723
 20
3.243158
 30
0.0
 10
46.947768
 20
3.456631
 30
0.0
 10
46.876456
 20
3.671656
 30
0.0
 10
46.778788
 20
4.013963
 30
0.0
 10
46.694141
 20
4.346336
 30
0.0
 10
46.622518
 20
4.668804
 30
0.0
 10
46.563915
 20
4.981336
 30
0.0
 10
46.518336
 20
5.283963
 30
0.0
 10
46.485782
 20
5.576656
 30
0.0
 10
46.466252
 20
5.859443
 30
0.0
 10
46.459733
 20
6.132295
 30
0.0
 10
46.459733
 20
7.216254
 30
0.0
 10
46.459733
 20
8.300213
 30
0.0
 10
46.459733
 20
9.384201
 30
0.0
 10
46.459733
 20
10.468160
 30
0.0
 10
46.459733
 20
11.552119
 30
0.0
 10
46.459733
 20
12.636078
 30
0.0
 10
46.459733
 20
13.720037
 30
0.0
 10
46.459733
 20
14.804008
 30
0.0
 10
47.020319
 20
14.804008
 30
0.0
 10
47.580906
 20
14.804008
 30
0.0
 10
48.141492
 20
14.804008
 30
0.0
 10
48.702076
 20
14.804008
 30
0.0
 10
49.262662
 20
14.804008
 30
0.0
 10
49.823249
 20
14.804008
 30
0.0
 10
50.383835
 20
14.804008
 30
0.0
 10
50.944422
 20
14.804008
 30
0.0
 10
50.944422
 20
13.693988
 30
0.0
 10
50.944422
 20
12.583980
 30
0.0
 10
50.944422
 20
11.473972
 30
0.0
 10
50.944422
 20
10.363963
 30
0.0
 10
50.944422
 20
9.253955
 30
0.0
 10
50.944422
 20
8.143947
 30
0.0
 10
50.944422
 20
7.033939
 30
0.0
 10
50.944422
 20
5.923930
 30
0.0
 10
50.954638
 20
5.634342
 30
0.0
 10
50.985333
 20
5.360869
 30
0.0
 10
51.036491
 20
5.103510
 30
0.0
 10
51.108113
 20
4.862295
 30
0.0
 10
51.200200
 20
4.637195
 30
0.0
 10
51.312753
 20
4.428209
 30
0.0
 10
51.445770
 20
4.235338
 30
0.0
 10
51.599251
 20
4.058611
 30
0.0
 10
51.773345
 20
3.902796
 30
0.0
 10
51.963255
 20
3.767781
 30
0.0
 10
52.168978
 20
3.653509
 30
0.0
 10
52.390514
 20
3.560037
 30
0.0
 10
52.627866
 20
3.487337
 30
0.0
 10
52.881030
 20
3.435408
 30
0.0
 10
53.150008
 20
3.404250
 30
0.0
 10
53.434798
 20
3.393808
 30
0.0
 10
53.717103
 20
3.403968
 30
0.0
 10
53.983596
 20
3.434674
 30
0.0
 10
54.234278
 20
3.485813
 30
0.0
 10
54.469146
 20
3.557441
 30
0.0
 10
54.688204
 20
3.649530
 30
0.0
 10
54.891446
 20
3.762080
 30
0.0
 10
55.078881
 20
3.895120
 30
0.0
 10
55.250501
 20
4.048592
 30
0.0
 10
55.406304
 20
4.223316
 30
0.0
 10
55.541331
 20
4.415086
 30
0.0
 10
55.655588
 20
4.623902
 30
0.0
 10
55.749069
 20
4.849764
 30
0.0
 10
55.821778
 20
5.092701
 30
0.0
 10
55.873712
 20
5.352684
 30
0.0
 10
55.904875
 20
5.629714
 30
0.0
 10
55.915261
 20
5.923818
 30
0.0
 10
55.915261
 20
7.033826
 30
0.0
 10
55.915261
 20
8.143834
 30
0.0
 10
55.915261
 20
9.253842
 30
0.0
 10
55.915261
 20
10.363850
 30
0.0
 10
55.915261
 20
11.473859
 30
0.0
 10
55.915261
 20
12.583867
 30
0.0
 10
55.915261
 20
13.693875
 30
0.0
 10
55.915261
 20
14.803895
 30
0.0
  0
LWPOLYLINE
  5
106
100
AcDbEntity
  8
Layer_1
 62
7
100
AcDbPolyline
 90
153
 70
0
 10
62.044792
 20
0.257981
 30
0.0
 10
62.044792
 20
2.076169
 30
0.0
 10
62.044792
 20
3.894358
 30
0.0
 10
62.044792
 20
5.712518
 30
0.0
 10
62.044792
 20
7.530706
 30
0.0
 10
62.044792
 20
9.348895
 30
0.0
 10
62.044792
 20
11.167083
 30
0.0
 10
62.044792
 20
12.985272
 30
0.0
 10
62.044792
 20
14.803443
 30
0.0
 10
62.981168
 20
14.803443
 30
0.0
 10
63.917545
 20
14.803443
 30
0.0
 10
64.853922
 20
14.803443
 30
0.0
 10
65.790298
 20
14.803443
 30
0.0
 10
66.726678
 20
14.803443
 30
0.0
 10
67.663054
 20
14.803443
 30
0.0
 10
68.599431
 20
14.803443
 30
0.0
 10
69.535808
 20
14.803443
 30
0.0
 10
70.041355
 20
14.797855
 30
0.0
 10
70.516208
 20
14.781119
 30
0.0
 10
70.960364
 20
14.753208
 30
0.0
 10
71.373825
 20
14.714148
 30
0.0
 10
71.756595
 20
14.663912
 30
0.0
 10
72.108667
 20
14.602529
 30
0.0
 10
72.430045
 20
14.529970
 30
0.0
 10
72.720728
 20
14.446263
 30
0.0
 10
72.989389
 20
14.347344
 30
0.0
 10
73.244721
 20
14.229206
 30
0.0
 10
73.486718
 20
14.091848
 30
0.0
 10
73.715386
 20
13.935271
 30
0.0
 10
73.930724
 20
13.759475
 30
0.0
 10
74.132728
 20
13.564459
 30
0.0
 10
74.321402
 20
13.350196
 30
0.0
 10
74.496744
 20
13.116742
 30
0.0
 10
74.654870
 20
12.869459
 30
0.0
 10
74.791911
 20
12.608855
 30
0.0
 10
74.907871
 20
12.334930
 30
0.0
 10
75.002748
 20
12.047656
 30
0.0
 10
75.076544
 20
11.747033
 30
0.0
 10
75.129257
 20
11.433117
 30
0.0
 10
75.160886
 20
11.105852
 30
0.0
 10
75.171441
 20
10.765238
 30
0.0
 10
75.163370
 20
10.467748
 30
0.0
 10
75.139183
 20
10.180474
 30
0.0
 10
75.098873
 20
9.903444
 30
0.0
 10
75.042443
 20
9.636632
 30
0.0
 10
74.969889
 20
9.380063
 30
0.0
 10
74.881215
 20
9.133712
 30
0.0
 10
74.776417
 20
8.897604
 30
0.0
 10
74.655499
 20
8.671742
 30
0.0
 10
74.520465
 20
8.458580
 30
0.0
 10
74.373339
 20
8.255634
 30
0.0
 10
74.214121
 20
8.062932
 30
0.0
 10
74.042815
 20
7.880476
 30
0.0
 10
73.859415
 20
7.708235
 30
0.0
 10
73.663926
 20
7.546212
 30
0.0
 10
73.456346
 20
7.394432
 30
0.0
 10
73.236672
 20
7.252898
 30
0.0
 10
73.086135
 20
7.167949
 30
0.0
 10
72.922265
 20
7.086697
 30
0.0
 10
72.745067
 20
7.009199
 30
0.0
 10
72.554536
 20
6.935398
 30
0.0
 10
72.350672
 20
6.865322
 30
0.0
 10
72.133477
 20
6.798972
 30
0.0
 10
71.902952
 20
6.736347
 30
0.0
 10
71.659095
 20
6.677447
 30
0.0
 10
71.853188
 20
6.610476
 30
0.0
 10
72.033638
 20
6.543476
 30
0.0
 10
72.200448
 20
6.476505
 30
0.0
 10
72.353616
 20
6.409533
 30
0.0
 10
72.493144
 20
6.342562
 30
0.0
 10
72.619029
 20
6.275591
 30
0.0
 10
72.731272
 20
6.208619
 30
0.0
 10
72.829874
 20
6.141648
 30
0.0
 10
72.895293
 20
6.090650
 30
0.0
 10
72.967534
 20
6.026925
 30
0.0
 10
73.046598
 20
5.950499
 30
0.0
 10
73.132484
 20
5.861345
 30
0.0
 10
73.225192
 20
5.759491
 30
0.0
 10
73.324723
 20
5.644937
 30
0.0
 10
73.431075
 20
5.517655
 30
0.0
 10
73.544249
 20
5.377672
 30
0.0
 10
73.658346
 20
5.235517
 30
0.0
 10
73.762526
 20
5.101716
 30
0.0
 10
73.856779
 20
4.976296
 30
0.0
 10
73.941116
 20
4.859258
 30
0.0
 10
74.015529
 20
4.750575
 30
0.0
 10
74.080026
 20
4.650273
 30
0.0
 10
74.134596
 20
4.558353
 30
0.0
 10
74.179249
 20
4.474787
 30
0.0
 10
74.450860
 20
3.947681
 30
0.0
 10
74.722474
 20
3.420574
 30
0.0
 10
74.994084
 20
2.893496
 30
0.0
 10
75.265695
 20
2.366390
 30
0.0
 10
75.537306
 20
1.839283
 30
0.0
 10
75.808919
 20
1.312177
 30
0.0
 10
76.080530
 20
0.785098
 30
0.0
 10
76.352140
 20
0.257992
 30
0.0
 10
75.717140
 20
0.257992
 30
0.0
 10
75.082140
 20
0.257992
 30
0.0
 10
74.447140
 20
0.257992
 30
0.0
 10
73.812140
 20
0.257992
 30
0.0
 10
73.177140
 20
0.257992
 30
0.0
 10
72.542140
 20
0.257992
 30
0.0
 10
71.907140
 20
0.257992
 30
0.0
 10
71.272140
 20
0.257992
 30
0.0
 10
70.972003
 20
0.813603
 30
0.0
 10
70.671868
 20
1.369242
 30
0.0
 10
70.371730
 20
1.924853
 30
0.0
 10
70.071595
 20
2.480492
 30
0.0
 10
69.771458
 20
3.036103
 30
0.0
 10
69.471320
 20
3.591742
 30
0.0
 10
69.171185
 20
4.147353
 30
0.0
 10
68.871047
 20
4.702992
 30
0.0
 10
68.758494
 20
4.909325
 30
0.0
 10
68.649040
 20
5.096748
 30
0.0
 10
68.542690
 20
5.265263
 30
0.0
 10
68.439439
 20
5.414869
 30
0.0
 10
68.339293
 20
5.545566
 30
0.0
 10
68.242245
 20
5.657326
 30
0.0
 10
68.148299
 20
5.750206
 30
0.0
 10
68.057454
 20
5.824148
 30
0.0
 10
67.933892
 20
5.903227
 30
0.0
 10
67.806302
 20
5.971750
 30
0.0
 10
67.674679
 20
6.029719
 30
0.0
 10
67.539029
 20
6.077160
 30
0.0
 10
67.399349
 20
6.114047
 30
0.0
 10
67.255638
 20
6.140293
 30
0.0
 10
67.107895
 20
6.156098
 30
0.0
 10
66.956124
 20
6.161460
 30
0.0
 10
66.906515
 20
6.161460
 30
0.0
 10
66.856906
 20
6.161460
 30
0.0
 10
66.807297
 20
6.161460
 30
0.0
 10
66.757688
 20
6.161460
 30
0.0
 10
66.708076
 20
6.161460
 30
0.0
 10
66.658467
 20
6.161460
 30
0.0
 10
66.608858
 20
6.161460
 30
0.0
 10
66.559249
 20
6.161460
 30
0.0
 10
66.559249
 20
5.423534
 30
0.0
 10
66.559249
 20
4.685579
 30
0.0
 10
66.559249
 20
3.947652
 30
0.0
 10
66.559249
 20
3.209726
 30
0.0
 10
66.559249
 20
2.471771
 30
0.0
 10
66.559249
 20
1.733845
 30
0.0
 10
66.559249
 20
0.995890
 30
0.0
 10
66.559249
 20
0.257964
 30
0.0
 10
65.994943
 20
0.257964
 30
0.0
 10
65.430637
 20
0.257964
 30
0.0
 10
64.866331
 20
0.257964
 30
0.0
 10
64.302025
 20
0.257964
 30
0.0
 10
63.737716
 20
0.257964
 30
0.0
 10
63.173410
 20
0.257964
 30
0.0
 10
62.609103
 20
0.257964
 30
0.0
 10
62.044797
 20
0.257964
 30
0.0
  0
LWPOLYLINE
  5
107
100
AcDbEntity
  8
Layer_1
 62
7
100
AcDbPolyline
 90
65
 70
0
 10
66.559249
 20
8.909825
 30
0.0
 10
66.796135
 20
8.909825
 30
0.0
 10
67.033019
 20
8.909825
 30
0.0
 10
67.269905
 20
8.909825
 30
0.0
 10
67.506791
 20
8.909825
 30
0.0
 10
67.743674
 20
8.909825
 30
0.0
 10
67.980560
 20
8.909825
 30
0.0
 10
68.217443
 20
8.909825
 30
0.0
 10
68.454329
 20
8.909825
 30
0.0
 10
68.540212
 20
8.912929
 30
0.0
 10
68.644081
 20
8.922242
 30
0.0
 10
68.765931
 20
8.937765
 30
0.0
 10
68.905769
 20
8.959496
 30
0.0
 10
69.063588
 20
8.987436
 30
0.0
 10
69.239392
 20
9.021556
 30
0.0
 10
69.433180
 20
9.061858
 30
0.0
 10
69.644954
 20
9.108368
 30
0.0
 10
69.753937
 20
9.135179
 30
0.0
 10
69.857648
 20
9.170513
 30
0.0
 10
69.956090
 20
9.214540
 30
0.0
 10
70.049263
 20
9.267231
 30
0.0
 10
70.137164
 20
9.328642
 30
0.0
 10
70.219796
 20
9.398690
 30
0.0
 10
70.297159
 20
9.477458
 30
0.0
 10
70.369249
 20
9.564891
 30
0.0
 10
70.436684
 20
9.658363
 30
0.0
 10
70.495129
 20
9.755278
 30
0.0
 10
70.544583
 20
9.855580
 30
0.0
 10
70.585045
 20
9.959296
 30
0.0
 10
70.616516
 20
10.066428
 30
0.0
 10
70.638980
 20
10.176946
 30
0.0
 10
70.652471
 20
10.290907
 30
0.0
 10
70.656958
 20
10.408255
 30
0.0
 10
70.649987
 20
10.579254
 30
0.0
 10
70.629046
 20
10.740008
 30
0.0
 10
70.594164
 20
10.890545
 30
0.0
 10
70.545328
 20
11.030838
 30
0.0
 10
70.482542
 20
11.160914
 30
0.0
 10
70.405803
 20
11.280774
 30
0.0
 10
70.315114
 20
11.390389
 30
0.0
 10
70.210471
 20
11.489759
 30
0.0
 10
70.086601
 20
11.578123
 30
0.0
 10
69.938234
 20
11.654690
 30
0.0
 10
69.765376
 20
11.719488
 30
0.0
 10
69.568023
 20
11.772518
 30
0.0
 10
69.346177
 20
11.813750
 30
0.0
 10
69.099839
 20
11.843214
 30
0.0
 10
68.829005
 20
11.860994
 30
0.0
 10
68.533676
 20
11.866921
 30
0.0
 10
68.286870
 20
11.866921
 30
0.0
 10
68.040064
 20
11.866921
 30
0.0
 10
67.793255
 20
11.866921
 30
0.0
 10
67.546449
 20
11.866921
 30
0.0
 10
67.299642
 20
11.866921
 30
0.0
 10
67.052836
 20
11.866921
 30
0.0
 10
66.806027
 20
11.866921
 30
0.0
 10
66.559221
 20
11.866921
 30
0.0
 10
66.559221
 20
11.497323
 30
0.0
 10
66.559221
 20
11.127753
 30
0.0
 10
66.559221
 20
10.758154
 30
0.0
 10
66.559221
 20
10.388556
 30
0.0
 10
66.559221
 20
10.018958
 30
0.0
 10
66.559221
 20
9.649388
 30
0.0
 10
66.559221
 20
9.279790
 30
0.0
 10
66.559221
 20
8.910192
 30
0.0
  0
LWPOLYLINE
  5
108
100
AcDbEntity
  8
Layer_1
 62
7
100
AcDbPolyline
 90
97
 70
0
 10
76.359853
 20
14.803443
 30
0.0
 10
77.865498
 20
14.803443
 30
0.0
 10
79.371142
 20
14.803443
 30
0.0
 10
80.876786
 20
14.803443
 30
0.0
 10
82.382431
 20
14.803443
 30
0.0
 10
83.888075
 20
14.803443
 30
0.0
 10
85.393719
 20
14.803443
 30
0.0
 10
86.899363
 20
14.803443
 30
0.0
 10
88.405008
 20
14.803443
 30
0.0
 10
88.405008
 20
14.415235
 30
0.0
 10
88.405008
 20
14.027067
 30
0.0
 10
88.405008
 20
13.638870
 30
0.0
 10
88.405008
 20
13.250673
 30
0.0
 10
88.405008
 20
12.862477
 30
0.0
 10
88.405008
 20
12.474280
 30
0.0
 10
88.405008
 20
12.086083
 30
0.0
 10
88.405008
 20
11.697887
 30
0.0
 10
87.462431
 20
11.697887
 30
0.0
 10
86.519851
 20
11.697887
 30
0.0
 10
85.577274
 20
11.697887
 30
0.0
 10
84.634697
 20
11.697887
 30
0.0
 10
83.692117
 20
11.697887
 30
0.0
 10
82.749540
 20
11.697887
 30
0.0
 10
81.806960
 20
11.697887
 30
0.0
 10
80.864383
 20
11.697887
 30
0.0
 10
80.864383
 20
11.408919
 30
0.0
 10
80.864383
 20
11.119924
 30
0.0
 10
80.864383
 20
10.830956
 30
0.0
 10
80.864383
 20
10.541989
 30
0.0
 10
80.864383
 20
10.253022
 30
0.0
 10
80.864383
 20
9.964026
 30
0.0
 10
80.864383
 20
9.675059
 30
0.0
 10
80.864383
 20
9.386092
 30
0.0
 10
81.738749
 20
9.386092
 30
0.0
 10
82.613113
 20
9.386092
 30
0.0
 10
83.487480
 20
9.386092
 30
0.0
 10
84.361844
 20
9.386092
 30
0.0
 10
85.236211
 20
9.386092
 30
0.0
 10
86.110575
 20
9.386092
 30
0.0
 10
86.984942
 20
9.386092
 30
0.0
 10
87.859306
 20
9.386092
 30
0.0
 10
87.859306
 20
9.015252
 30
0.0
 10
87.859306
 20
8.644440
 30
0.0
 10
87.859306
 20
8.273600
 30
0.0
 10
87.859306
 20
7.902760
 30
0.0
 10
87.859306
 20
7.531948
 30
0.0
 10
87.859306
 20
7.161108
 30
0.0
 10
87.859306
 20
6.790296
 30
0.0
 10
87.859306
 20
6.419456
 30
0.0
 10
86.984942
 20
6.419456
 30
0.0
 10
86.110575
 20
6.419456
 30
0.0
 10
85.236211
 20
6.419456
 30
0.0
 10
84.361844
 20
6.419456
 30
0.0
 10
83.487480
 20
6.419456
 30
0.0
 10
82.613113
 20
6.419456
 30
0.0
 10
81.738749
 20
6.419456
 30
0.0
 10
80.864383
 20
6.419456
 30
0.0
 10
80.864383
 20
6.061034
 30
0.0
 10
80.864383
 20
5.702612
 30
0.0
 10
80.864383
 20
5.344190
 30
0.0
 10
80.864383
 20
4.985739
 30
0.0
 10
80.864383
 20
4.627317
 30
0.0
 10
80.864383
 20
4.268895
 30
0.0
 10
80.864383
 20
3.910472
 30
0.0
 10
80.864383
 20
3.552050
 30
0.0
 10
81.834245
 20
3.552050
 30
0.0
 10
82.804110
 20
3.552050
 30
0.0
 10
83.773972
 20
3.552050
 30
0.0
 10
84.743838
 20
3.552050
 30
0.0
 10
85.713700
 20
3.552050
 30
0.0
 10
86.683562
 20
3.552050
 30
0.0
 10
87.653427
 20
3.552050
 30
0.0
 10
88.623290
 20
3.552050
 30
0.0
 10
88.623290
 20
3.140288
 30
0.0
 10
88.623290
 20
2.728526
 30
0.0
 10
88.623290
 20
2.316764
 30
0.0
 10
88.623290
 20
1.905001
 30
0.0
 10
88.623290
 20
1.493267
 30
0.0
 10
88.623290
 20
1.081505
 30
0.0
 10
88.623290
 20
0.669743
 30
0.0
 10
88.623290
 20
0.257981
 30
0.0
 10
87.090360
 20
0.257981
 30
0.0
 10
85.557431
 20
0.257981
 30
0.0
 10
84.024501
 20
0.257981
 30
0.0
 10
82.491572
 20
0.257981
 30
0.0
 10
80.958642
 20
0.257981
 30
0.0
 10
79.425713
 20
0.257981
 30
0.0
 10
77.892783
 20
0.257981
 30
0.0
 10
76.359853
 20
0.257981
 30
0.0
 10
76.359853
 20
2.076169
 30
0.0
 10
76.359853
 20
3.894358
 30
0.0
 10
76.359853
 20
5.712518
 30
0.0
 10
76.359853
 20
7.530706
 30
0.0
 10
76.359853
 20
9.348895
 30
0.0
 10
76.359853
 20
11.167083
 30
0.0
 10
76.359853
 20
12.985272
 30
0.0
 10
76.359853
 20
14.803443
 30
0.0
  0
LWPOLYLINE
  5
109
100
AcDbEntity
  8
Layer_1
 62
7
100
AcDbPolyline
 90
233
 70
0
 10
88.859210
 20
5.070095
 30
0.0
 10
89.393751
 20
5.103567
 30
0.0
 10
89.928291
 20
5.137067
 30
0.0
 10
90.462834
 20
5.170538
 30
0.0
 10
90.997374
 20
5.204038
 30
0.0
 10
91.531914
 20
5.237510
 30
0.0
 10
92.066457
 20
5.271009
 30
0.0
 10
92.600997
 20
5.304481
 30
0.0
 10
93.135537
 20
5.337981
 30
0.0
 10
93.174758
 20
5.085279
 30
0.0
 10
93.222973
 20
4.848071
 30
0.0
 10
93.280176
 20
4.626386
 30
0.0
 10
93.346374
 20
4.420194
 30
0.0
 10
93.421564
 20
4.229496
 30
0.0
 10
93.505745
 20
4.054321
 30
0.0
 10
93.598918
 20
3.894640
 30
0.0
 10
93.701085
 20
3.750481
 30
0.0
 10
93.884019
 20
3.543499
 30
0.0
 10
94.085554
 20
3.364147
 30
0.0
 10
94.305696
 20
3.212368
 30
0.0
 10
94.544439
 20
3.088190
 30
0.0
 10
94.801789
 20
2.991613
 30
0.0
 10
95.077743
 20
2.922610
 30
0.0
 10
95.372298
 20
2.881236
 30
0.0
 10
95.685460
 20
2.867407
 30
0.0
 10
95.919087
 20
2.874463
 30
0.0
 10
96.138763
 20
2.895347
 30
0.0
 10
96.344483
 20
2.930230
 30
0.0
 10
96.536256
 20
2.979054
 30
0.0
 10
96.714073
 20
3.041849
 30
0.0
 10
96.877940
 20
3.118585
 30
0.0
 10
97.027856
 20
3.209263
 30
0.0
 10
97.163819
 20
3.313911
 30
0.0
 10
97.287063
 20
3.430187
 30
0.0
 10
97.393879
 20
3.550780
 30
0.0
 10
97.484257
 20
3.675748
 30
0.0
 10
97.558205
 20
3.805034
 30
0.0
 10
97.615722
 20
3.938666
 30
0.0
 10
97.656808
 20
4.076645
 30
0.0
 10
97.681474
 20
4.218970
 30
0.0
 10
97.689687
 20
4.365640
 30
0.0
 10
97.681926
 20
4.505171
 30
0.0
 10
97.658671
 20
4.640976
 30
0.0
 10
97.619913
 20
4.773056
 30
0.0
 10
97.565650
 20
4.901411
 30
0.0
 10
97.495888
 20
5.026040
 30
0.0
 10
97.410623
 20
5.146973
 30
0.0
 10
97.309858
 20
5.264180
 30
0.0
 10
97.193588
 20
5.377661
 30
0.0
 10
97.049099
 20
5.488518
 30
0.0
 10
96.863682
 20
5.597794
 30
0.0
 10
96.637337
 20
5.705547
 30
0.0
 10
96.370067
 20
5.811747
 30
0.0
 10
96.061869
 20
5.916395
 30
0.0
 10
95.712743
 20
6.019491
 30
0.0
 10
95.322692
 20
6.121034
 30
0.0
 10
94.891713
 20
6.221026
 30
0.0
 10
94.179043
 20
6.394028
 30
0.0
 10
93.519391
 20
6.580690
 30
0.0
 10
92.912760
 20
6.780983
 30
0.0
 10
92.359150
 20
6.994936
 30
0.0
 10
91.858561
 20
7.222520
 30
0.0
 10
91.410993
 20
7.463735
 30
0.0
 10
91.016444
 20
7.718610
 30
0.0
 10
90.674915
 20
7.987116
 30
0.0
 10
90.377258
 20
8.271906
 30
0.0
 10
90.119290
 20
8.575606
 30
0.0
 10
89.901008
 20
8.898214
 30
0.0
 10
89.722415
 20
9.239731
 30
0.0
 10
89.583508
 20
9.600185
 30
0.0
 10
89.484290
 20
9.979548
 30
0.0
 10
89.424758
 20
10.377820
 30
0.0
 10
89.404918
 20
10.795001
 30
0.0
 10
89.414993
 20
11.073272
 30
0.0
 10
89.445222
 20
11.347508
 30
0.0
 10
89.495607
 20
11.617736
 30
0.0
 10
89.566146
 20
11.883928
 30
0.0
 10
89.656838
 20
12.146084
 30
0.0
 10
89.767684
 20
12.404204
 30
0.0
 10
89.898686
 20
12.658289
 30
0.0
 10
90.049838
 20
12.908366
 30
0.0
 10
90.223625
 20
13.152065
 30
0.0
 10
90.417568
 20
13.382132
 30
0.0
 10
90.631662
 20
13.598540
 30
0.0
 10
90.865912
 20
13.801317
 30
0.0
 10
91.120313
 20
13.990462
 30
0.0
 10
91.394870
 20
14.165948
 30
0.0
 10
91.689583
 20
14.327803
 30
0.0
 10
92.004447
 20
14.476026
 30
0.0
 10
92.346904
 20
14.610900
 30
0.0
 10
92.719440
 20
14.727796
 30
0.0
 10
93.122050
 20
14.826690
 30
0.0
 10
93.554736
 20
14.907614
 30
0.0
 10
94.017499
 20
14.970555
 30
0.0
 10
94.510338
 20
15.015516
 30
0.0
 10
95.033253
 20
15.042497
 30
0.0
 10
95.586245
 20
15.051499
 30
0.0
 10
96.262481
 20
15.035215
 30
0.0
 10
96.897167
 20
14.986377
 30
0.0
 10
97.490308
 20
14.904984
 30
0.0
 10
98.041900
 20
14.791034
 30
0.0
 10
98.551946
 20
14.644521
 30
0.0
 10
99.020447
 20
14.465479
 30
0.0
 10
99.447401
 20
14.253869
 30
0.0
 10
99.832806
 20
14.009690
 30
0.0
 10
100.181308
 20
13.732492
 30
0.0
 10
100.492605
 20
13.416854
 30
0.0
 10
100.766694
 20
13.062778
 30
0.0
 10
101.003577
 20
12.670235
 30
0.0
 10
101.203255
 20
12.239254
 30
0.0
 10
101.365727
 20
11.769834
 30
0.0
 10
101.490994
 20
11.261975
 30
0.0
 10
101.579056
 20
10.715649
 30
0.0
 10
101.049475
 20
10.684633
 30
0.0
 10
100.519896
 20
10.653645
 30
0.0
 10
99.990315
 20
10.622628
 30
0.0
 10
99.460736
 20
10.591640
 30
0.0
 10
98.931154
 20
10.560624
 30
0.0
 10
98.401576
 20
10.529608
 30
0.0
 10
97.871994
 20
10.498620
 30
0.0
 10
97.342415
 20
10.467604
 30
0.0
 10
97.294353
 20
10.704783
 30
0.0
 10
97.234510
 20
10.925227
 30
0.0
 10
97.162885
 20
11.128935
 30
0.0
 10
97.079477
 20
11.315907
 30
0.0
 10
96.984292
 20
11.486116
 30
0.0
 10
96.877322
 20
11.639616
 30
0.0
 10
96.758571
 20
11.776353
 30
0.0
 10
96.628040
 20
11.896354
 30
0.0
 10
96.487581
 20
12.001002
 30
0.0
 10
96.334100
 20
12.091680
 30
0.0
 10
96.167598
 20
12.168416
 30
0.0
 10
95.988073
 20
12.231182
 30
0.0
 10
95.795527
 20
12.280035
 30
0.0
 10
95.589959
 20
12.314918
 30
0.0
 10
95.371370
 20
12.335802
 30
0.0
 10
95.139758
 20
12.342858
 30
0.0
 10
94.949845
 20
12.337495
 30
0.0
 10
94.772026
 20
12.321691
 30
0.0
 10
94.606299
 20
12.295444
 30
0.0
 10
94.452666
 20
12.258558
 30
0.0
 10
94.311123
 20
12.211116
 30
0.0
 10
94.181676
 20
12.153148
 30
0.0
 10
94.064320
 20
12.084624
 30
0.0
 10
93.959056
 20
12.005574
 30
0.0
 10
93.866036
 20
11.921387
 30
0.0
 10
93.785419
 20
11.832543
 30
0.0
 10
93.717206
 20
11.739071
 30
0.0
 10
93.661397
 20
11.640943
 30
0.0
 10
93.617988
 20
11.538157
 30
0.0
 10
93.586983
 20
11.430715
 30
0.0
 10
93.568385
 20
11.318617
 30
0.0
 10
93.562176
 20
11.201890
 30
0.0
 10
93.567284
 20
11.116150
 30
0.0
 10
93.582637
 20
11.032613
 30
0.0
 10
93.608206
 20
10.951220
 30
0.0
 10
93.644017
 20
10.872000
 30
0.0
 10
93.690062
 20
10.794953
 30
0.0
 10
93.746340
 20
10.720052
 30
0.0
 10
93.812848
 20
10.647351
 30
0.0
 10
93.889590
 20
10.576824
 30
0.0
 10
93.982605
 20
10.505506
 30
0.0
 10
94.102908
 20
10.435430
 30
0.0
 10
94.250493
 20
10.366596
 30
0.0
 10
94.425366
 20
10.299004
 30
0.0
 10
94.627525
 20
10.232654
 30
0.0
 10
94.856969
 20
10.167517
 30
0.0
 10
95.113698
 20
10.103650
 30
0.0
 10
95.397715
 20
10.041025
 30
0.0
 10
96.108210
 20
9.881964
 30
0.0
 10
96.766307
 20
9.722283
 30
0.0
 10
97.372006
 20
9.561981
 30
0.0
 10
97.925306
 20
9.401058
 30
0.0
 10
98.426205
 20
9.239542
 30
0.0
 10
98.874707
 20
9.077377
 30
0.0
 10
99.270809
 20
8.914591
 30
0.0
 10
99.614510
 20
8.751185
 30
0.0
 10
99.923481
 20
8.584984
 30
0.0
 10
100.210437
 20
8.408877
 30
0.0
 10
100.475381
 20
8.222836
 30
0.0
 10
100.718310
 20
8.026890
 30
0.0
 10
100.939227
 20
7.821008
 30
0.0
 10
101.138132
 20
7.605221
 30
0.0
 10
101.315023
 20
7.379500
 30
0.0
 10
101.469901
 20
7.143844
 30
0.0
 10
101.607098
 20
6.899666
 30
0.0
 10
101.726004
 20
6.648375
 30
0.0
 10
101.826616
 20
6.389944
 30
0.0
 10
101.908935
 20
6.124373
 30
0.0
 10
101.972962
 20
5.851690
 30
0.0
 10
102.018696
 20
5.571838
 30
0.0
 10
102.046128
 20
5.284903
 30
0.0
 10
102.055272
 20
4.990799
 30
0.0
 10
102.043165
 20
4.644456
 30
0.0
 10
102.006885
 20
4.304943
 30
0.0
 10
101.946422
 20
3.972259
 30
0.0
 10
101.861775
 20
3.646377
 30
0.0
 10
101.752945
 20
3.327325
 30
0.0
 10
101.619931
 20
3.015103
 30
0.0
 10
101.462736
 20
2.709710
 30
0.0
 10
101.281354
 20
2.411119
 30
0.0
 10
101.078264
 20
2.124776
 30
0.0
 10
100.855949
 20
1.856101
 30
0.0
 10
100.614412
 20
1.605120
 30
0.0
 10
100.353653
 20
1.371779
 30
0.0
 10
100.073669
 20
1.156133
 30
0.0
 10
99.774465
 20
0.958182
 30
0.0
 10
99.456037
 20
0.777871
 30
0.0
 10
99.118386
 20
0.615254
 30
0.0
 10
98.759800
 20
0.473409
 30
0.0
 10
98.378583
 20
0.350473
 30
0.0
 10
97.974729
 20
0.246446
 30
0.0
 10
97.548243
 20
0.161328
 30
0.0
 10
97.099123
 20
0.095147
 30
0.0
 10
96.627371
 20
0.047846
 30
0.0
 10
96.132983
 20
0.019483
 30
0.0
 10
95.615963
 20
0.009888
 30
0.0
 10
94.723924
 20
0.032183
 30
0.0
 10
93.903199
 20
0.099154
 30
0.0
 10
93.153786
 20
0.210773
 30
0.0
 10
92.475688
 20
0.367040
 30
0.0
 10
91.868904
 20
0.567954
 30
0.0
 10
91.333433
 20
0.813544
 30
0.0
 10
90.869276
 20
1.103753
 30
0.0
 10
90.476434
 20
1.438609
 30
0.0
 10
90.138625
 20
1.807897
 30
0.0
 10
89.839574
 20
2.201343
 30
0.0
 10
89.579278
 20
2.619004
 30
0.0
 10
89.357742
 20
3.060823
 30
0.0
 10
89.174963
 20
3.526856
 30
0.0
 10
89.030940
 20
4.017048
 30
0.0
 10
88.925677
 20
4.531454
 30
0.0
 10
88.859168
 20
5.070019
 30
0.0
  0
ENDSEC
  0
SECTION
  2
OBJECTS
  0
DICTIONARY
  5
C
330
0
100
AcDbDictionary
  3
ACAD_GROUP
350
D
  3
ACAD_MLINESTYLE
350
17
  0
DICTIONARY
  5
D
330
C
100
AcDbDictionary
  0
DICTIONARY
  5
1A
330
C
100
AcDbDictionary
  0
DICTIONARY
  5
17
330
C
100
AcDbDictionary
  3
STANDARD
350
18
  0
DICTIONARY
  5
19
330
C
100
AcDbDictionary
  0
ENDSEC
  0
EOF
