  0
SECTION
  2
HEADER
  9
$ACADVER
  1
AC1014
  9
$HANDSEED
  5
FFFF
  9
$MEASUREMENT
 70
     1
  0
ENDSEC
  0
SECTION
  2
TABLES
  0
TABLE
  2
VPORT
  5
8
330
0
100
AcDbSymbolTable
 70
     4
  0
VPORT
  5
2E
330
8
100
AcDbSymbolTableRecord
100
AcDbViewportTableRecord
  2
*ACTIVE
 70
     0
 10
0.0
 20
0.0
 11
1.0
 21
1.0
 12
210.0
 22
148.5
 13
0.0
 23
0.0
 14
10.0
 24
10.0
 15
10.0
 25
10.0
 16
0.0
 26
0.0
 36
1.0
 17
0.0
 27
0.0
 37
0.0
 40
341.0
 41
1.24
 42
50.0
 43
0.0
 44
0.0
 50
0.0
 51
0.0
 71
     0
 72
   100
 73
     1
 74
     3
 75
     0
 76
     0
 77
     0
 78
     0
  0
ENDTAB
  0
TABLE
  2
LTYPE
  5
5
330
0
100
AcDbSymbolTable
 70
     1
  0
LTYPE
  5
14
330
5
100
AcDbSymbolTableRecord
100
AcDbLinetypeTableRecord
  2
BYBLOCK
 70
     0
  3

 72
    65
 73
     0
 40
0.0
  0
LTYPE
  5
15
330
5
100
AcDbSymbolTableRecord
100
AcDbLinetypeTableRecord
  2
BYLAYER
 70
     0
  3

 72
    65
 73
     0
 40
0.0
  0
LTYPE
  5
16
330
5
100
AcDbSymbolTableRecord
100
AcDbLinetypeTableRecord
  2
CONTINUOUS
 70
     0
  3
Solid line
 72
    65
 73
     0
 40
0.0
  0
ENDTAB
  0
TABLE
  2
LAYER
  5
2
100
AcDbSymbolTable
 70
2
  0
LAYER
  5
50
100
AcDbSymbolTableRecord
100
AcDbLayerTableRecord
  2
0
 70
0
  6
CONTINUOUS
  0
LAYER
  5
51
100
AcDbSymbolTableRecord
100
AcDbLayerTableRecord
  2
Layer_1
 70
0
  6
CONTINUOUS
  0
ENDTAB
  0
TABLE
  2
STYLE
  5
3
330
0
100
AcDbSymbolTable
 70
     1
  0
STYLE
  5
11
330
3
100
AcDbSymbolTableRecord
100
AcDbTextStyleTableRecord
  2
STANDARD
 70
     0
 40
0.0
 41
1.0
 50
0.0
 71
     0
 42
2.5
  3
txt
  4

  0
ENDTAB
  0
TABLE
  2
VIEW
  5
6
330
0
100
AcDbSymbolTable
 70
     0
  0
ENDTAB
  0
TABLE
  2
UCS
  5
7
330
0
100
AcDbSymbolTable
 70
     0
  0
ENDTAB
  0
TABLE
  2
APPID
  5
9
330
0
100
AcDbSymbolTable
 70
     2
  0
APPID
  5
12
330
9
100
AcDbSymbolTableRecord
100
AcDbRegAppTableRecord
  2
ACAD
 70
     0
  0
ENDTAB
  0
TABLE
  2
DIMSTYLE
  5
A
330
0
100
AcDbSymbolTable
 70
     1
  0
DIMSTYLE
105
27
330
A
100
AcDbSymbolTableRecord
100
AcDbDimStyleTableRecord
  2
ISO-25
 70
     0
  3

  4

  5

  6

  7

 40
1.0
 41
2.5
 42
0.625
 43
3.75
 44
1.25
 45
0.0
 46
0.0
 47
0.0
 48
0.0
140
2.5
141
2.5
142
0.0
143
0.03937007874016
144
1.0
145
0.0
146
1.0
147
0.625
 71
     0
 72
     0
 73
     0
 74
     0
 75
     0
 76
     0
 77
     1
 78
     8
170
     0
171
     3
172
     1
173
     0
174
     0
175
     0
176
     0
177
     0
178
     0
270
     2
271
     2
272
     2
273
     2
274
     3
340
11
275
     0
280
     0
281
     0
282
     0
283
     0
284
     8
285
     0
286
     0
287
     3
288
     0
  0
ENDTAB
  0
TABLE
  2
BLOCK_RECORD
  5
1
330
0
100
AcDbSymbolTable
 70
     1
  0
BLOCK_RECORD
  5
1F
330
1
100
AcDbSymbolTableRecord
100
AcDbBlockTableRecord
  2
*MODEL_SPACE
  0
BLOCK_RECORD
  5
1B
330
1
100
AcDbSymbolTableRecord
100
AcDbBlockTableRecord
  2
*PAPER_SPACE
  0
ENDTAB
  0
ENDSEC
  0
SECTION
  2
BLOCKS
  0
BLOCK
  5
20
330
1F
100
AcDbEntity
  8
0
100
AcDbBlockBegin
  2
*MODEL_SPACE
 70
     0
 10
0.0
 20
0.0
 30
0.0
  3
*MODEL_SPACE
  1

  0
ENDBLK
  5
21
330
1F
100
AcDbEntity
  8
0
100
AcDbBlockEnd
  0
BLOCK
  5
1C
330
1B
100
AcDbEntity
 67
     1
  8
0
100
AcDbBlockBegin
  2
*PAPER_SPACE
  1

  0
ENDBLK
  5
1D
330
1B
100
AcDbEntity
 67
     1
  8
0
100
AcDbBlockEnd
  0
ENDSEC
  0
SECTION
  2
ENTITIES
  0
LWPOLYLINE
  5
100
100
AcDbEntity
  8
Layer_1
 62
7
100
AcDbPolyline
 90
385
 70
0
 10
6.729236
 20
15.051181
 30
0.0
 10
6.176292
 20
15.042291
 30
0.0
 10
5.653502
 20
15.015564
 30
0.0
 10
5.160840
 20
14.970956
 30
0.0
 10
4.698279
 20
14.908418
 30
0.0
 10
4.265796
 20
14.827898
 30
0.0
 10
3.863362
 20
14.729334
 30
0.0
 10
3.490953
 20
14.612692
 30
0.0
 10
3.148542
 20
14.477931
 30
0.0
 10
2.833534
 20
14.329623
 30
0.0
 10
2.538448
 20
14.167515
 30
0.0
 10
2.263361
 20
13.991662
 30
0.0
 10
2.008351
 20
13.802121
 30
0.0
 10
1.773495
 20
13.598950
 30
0.0
 10
1.558870
 20
13.382175
 30
0.0
 10
1.364554
 20
13.151853
 30
0.0
 10
1.190625
 20
12.908070
 30
0.0
 10
1.039518
 20
12.657851
 30
0.0
 10
0.908643
 20
12.403400
 30
0.0
 10
0.797974
 20
12.144743
 30
0.0
 10
0.707484
 20
11.881966
 30
0.0
 10
0.637148
 20
11.615181
 30
0.0
 10
0.586940
 20
11.344446
 30
0.0
 10
0.556835
 20
11.069815
 30
0.0
 10
0.546806
 20
10.791403
 30
0.0
 10
0.566650
 20
10.374363
 30
0.0
 10
0.626181
 20
9.976458
 30
0.0
 10
0.725400
 20
9.597631
 30
0.0
 10
0.864306
 20
9.237798
 30
0.0
 10
1.042899
 20
8.896873
 30
0.0
 10
1.261180
 20
8.574773
 30
0.0
 10
1.519149
 20
8.271469
 30
0.0
 10
1.816806
 20
7.986820
 30
0.0
 10
2.158287
 20
7.718398
 30
0.0
 10
2.552710
 20
7.463777
 30
0.0
 10
3.000103
 20
7.222901
 30
0.0
 10
3.500489
 20
6.995740
 30
0.0
 10
4.053897
 20
6.782182
 30
0.0
 10
4.660351
 20
6.582256
 30
0.0
 10
5.319876
 20
6.395848
 30
0.0
 10
6.032500
 20
6.222931
 30
0.0
 10
6.463479
 20
6.122798
 30
0.0
 10
6.853531
 20
6.020888
 30
0.0
 10
7.202655
 20
5.917256
 30
0.0
 10
7.510853
 20
5.811987
 30
0.0
 10
7.778124
 20
5.705194
 30
0.0
 10
8.004468
 20
5.596934
 30
0.0
 10
8.189885
 20
5.487262
 30
0.0
 10
8.334375
 20
5.376264
 30
0.0
 10
8.450549
 20
5.262698
 30
0.0
 10
8.551066
 20
5.145237
 30
0.0
 10
8.635978
 20
5.023966
 30
0.0
 10
8.705336
 20
4.898913
 30
0.0
 10
8.759192
 20
4.770135
 30
0.0
 10
8.797597
 20
4.637717
 30
0.0
 10
8.820604
 20
4.501657
 30
0.0
 10
8.828264
 20
4.362042
 30
0.0
 10
8.820280
 20
4.215484
 30
0.0
 10
8.796251
 20
4.073413
 30
0.0
 10
8.756050
 20
3.935774
 30
0.0
 10
8.699546
 20
3.802537
 30
0.0
 10
8.626609
 20
3.673646
 30
0.0
 10
8.537111
 20
3.549045
 30
0.0
 10
8.430923
 20
3.428677
 30
0.0
 10
8.307914
 20
3.312514
 30
0.0
 10
8.171809
 20
3.208092
 30
0.0
 10
8.021519
 20
3.118035
 30
0.0
 10
7.857122
 20
3.042173
 30
0.0
 10
7.678696
 20
2.980395
 30
0.0
 10
7.486318
 20
2.932587
 30
0.0
 10
7.280065
 20
2.898579
 30
0.0
 10
7.060016
 20
2.878259
 30
0.0
 10
6.826247
 20
2.871485
 30
0.0
 10
6.513086
 20
2.885314
 30
0.0
 10
6.218529
 20
2.926575
 30
0.0
 10
5.942576
 20
2.995381
 30
0.0
 10
5.685227
 20
3.091760
 30
0.0
 10
5.446482
 20
3.215740
 30
0.0
 10
5.226342
 20
3.367350
 30
0.0
 10
5.024805
 20
3.546589
 30
0.0
 10
4.841872
 20
3.753515
 30
0.0
 10
4.739754
 20
3.897674
 30
0.0
 10
4.646705
 20
4.057355
 30
0.0
 10
4.562700
 20
4.232530
 30
0.0
 10
4.487713
 20
4.423228
 30
0.0
 10
4.421718
 20
4.629419
 30
0.0
 10
4.364689
 20
4.851105
 30
0.0
 10
4.316601
 20
5.088313
 30
0.0
 10
4.277428
 20
5.341015
 30
0.0
 10
3.742749
 20
5.306837
 30
0.0
 10
3.208071
 20
5.272660
 30
0.0
 10
2.673392
 20
5.238483
 30
0.0
 10
2.138713
 20
5.204306
 30
0.0
 10
1.604034
 20
5.170157
 30
0.0
 10
1.069355
 20
5.135980
 30
0.0
 10
0.534676
 20
5.101803
 30
0.0
 10
0.000000
 20
5.067584
 30
0.0
 10
0.066365
 20
4.529301
 30
0.0
 10
0.171255
 20
4.015657
 30
0.0
 10
0.314748
 20
3.526509
 30
0.0
 10
0.496920
 20
3.061689
 30
0.0
 10
0.717849
 20
2.621084
 30
0.0
 10
0.977614
 20
2.204496
 30
0.0
 10
1.276291
 20
1.811783
 30
0.0
 10
1.613958
 20
1.442778
 30
0.0
 10
2.006897
 20
1.107921
 30
0.0
 10
2.471304
 20
0.817712
 30
0.0
 10
3.007127
 20
0.572122
 30
0.0
 10
3.614316
 20
0.371208
 30
0.0
 10
4.292819
 20
0.214942
 30
0.0
 10
5.042584
 20
0.103323
 30
0.0
 10
5.863560
 20
0.036352
 30
0.0
 10
6.755694
 20
0.014056
 30
0.0
 10
7.272667
 20
0.023369
 30
0.0
 10
7.766928
 20
0.051027
 30
0.0
 10
8.238504
 20
0.097424
 30
0.0
 10
8.687421
 20
0.162618
 30
0.0
 10
9.113705
 20
0.246720
 30
0.0
 10
9.517381
 20
0.349844
 30
0.0
 10
9.898475
 20
0.472159
 30
0.0
 10
10.257014
 20
0.613778
 30
0.0
 10
10.594569
 20
0.776536
 30
0.0
 10
10.912746
 20
0.957214
 30
0.0
 10
11.211598
 20
1.155730
 30
0.0
 10
11.491176
 20
1.371968
 30
0.0
 10
11.751531
 20
1.605902
 30
0.0
 10
11.992715
 20
1.857419
 30
0.0
 10
12.214780
 20
2.126461
 30
0.0
 10
12.417778
 20
2.412945
 30
0.0
 10
12.563022
 20
2.648149
 30
0.0
 10
12.693285
 20
2.887756
 30
0.0
 10
12.808538
 20
3.131708
 30
0.0
 10
12.908750
 20
3.379951
 30
0.0
 10
12.993894
 20
3.632427
 30
0.0
 10
13.063937
 20
3.889136
 30
0.0
 10
13.118853
 20
4.149966
 30
0.0
 10
13.158611
 20
4.414945
 30
0.0
 10
13.179792
 20
4.324464
 30
0.0
 10
13.201594
 20
4.233702
 30
0.0
 10
13.224146
 20
4.142487
 30
0.0
 10
13.247576
 20
4.050680
 30
0.0
 10
13.272014
 20
3.958112
 30
0.0
 10
13.297586
 20
3.864583
 30
0.0
 10
13.324419
 20
3.769982
 30
0.0
 10
13.352644
 20
3.674111
 30
0.0
 10
13.423957
 20
3.459143
 30
0.0
 10
13.508913
 20
3.245811
 30
0.0
 10
13.607511
 20
3.034060
 30
0.0
 10
13.719752
 20
2.823889
 30
0.0
 10
13.845636
 20
2.615270
 30
0.0
 10
13.985163
 20
2.408175
 30
0.0
 10
14.138332
 20
2.202576
 30
0.0
 10
14.305144
 20
1.998445
 30
0.0
 10
14.483616
 20
1.800720
 30
0.0
 10
14.666739
 20
1.614397
 30
0.0
 10
14.854411
 20
1.439504
 30
0.0
 10
15.046526
 20
1.276069
 30
0.0
 10
15.242983
 20
1.124092
 30
0.0
 10
15.443677
 20
0.983602
 30
0.0
 10
15.648506
 20
0.854655
 30
0.0
 10
15.857366
 20
0.737250
 30
0.0
 10
16.074419
 20
0.632377
 30
0.0
 10
16.303951
 20
0.536082
 30
0.0
 10
16.546042
 20
0.448537
 30
0.0
 10
16.800767
 20
0.369854
 30
0.0
 10
17.068206
 20
0.300145
 30
0.0
 10
17.348435
 20
0.239580
 30
0.0
 10
17.641532
 20
0.188272
 30
0.0
 10
17.947575
 20
0.146334
 30
0.0
 10
18.259396
 20
0.111423
 30
0.0
 10
18.564863
 20
0.081056
 30
0.0
 10
18.864025
 20
0.055373
 30
0.0
 10
19.156935
 20
0.034207
 30
0.0
 10
19.443645
 20
0.017838
 30
0.0
 10
19.724206
 20
0.005984
 30
0.0
 10
19.998670
 20
-0.001071
 30
0.0
 10
20.267089
 20
-0.003893
 30
0.0
 10
20.717898
 20
0.004009
 30
0.0
 10
21.152507
 20
0.027716
 30
0.0
 10
21.570839
 20
0.066944
 30
0.0
 10
21.972816
 20
0.121526
 30
0.0
 10
22.358362
 20
0.191320
 30
0.0
 10
22.727398
 20
0.276099
 30
0.0
 10
23.079846
 20
0.375752
 30
0.0
 10
23.415630
 20
0.490024
 30
0.0
 10
23.650018
 20
0.584709
 30
0.0
 10
23.881848
 20
0.695115
 30
0.0
 10
24.111044
 20
0.821296
 30
0.0
 10
24.337528
 20
0.963254
 30
0.0
 10
24.561223
 20
1.121016
 30
0.0
 10
24.782051
 20
1.294639
 30
0.0
 10
24.999935
 20
1.484095
 30
0.0
 10
25.214797
 20
1.689468
 30
0.0
 10
25.423354
 20
1.909517
 30
0.0
 10
25.617417
 20
2.138089
 30
0.0
 10
25.796961
 20
2.375240
 30
0.0
 10
25.961959
 20
2.621027
 30
0.0
 10
26.112385
 20
2.875479
 30
0.0
 10
26.248214
 20
3.138679
 30
0.0
 10
26.369420
 20
3.410657
 30
0.0
 10
26.475978
 20
3.691496
 30
0.0
 10
26.571268
 20
3.981508
 30
0.0
 10
26.653770
 20
4.276007
 30
0.0
 10
26.723510
 20
4.574936
 30
0.0
 10
26.780513
 20
4.878269
 30
0.0
 10
26.824804
 20
5.185919
 30
0.0
 10
26.856411
 20
5.497888
 30
0.0
 10
26.875359
 20
5.814090
 30
0.0
 10
26.881673
 20
6.134468
 30
0.0
 10
26.881673
 20
7.218145
 30
0.0
 10
26.881673
 20
8.301850
 30
0.0
 10
26.881673
 20
9.385527
 30
0.0
 10
26.881673
 20
10.469232
 30
0.0
 10
26.881673
 20
11.552909
 30
0.0
 10
26.881673
 20
12.636614
 30
0.0
 10
26.881673
 20
13.720291
 30
0.0
 10
26.881673
 20
14.803982
 30
0.0
 10
26.320536
 20
14.803982
 30
0.0
 10
25.759398
 20
14.803982
 30
0.0
 10
25.198261
 20
14.803982
 30
0.0
 10
24.637124
 20
14.803982
 30
0.0
 10
24.075987
 20
14.803982
 30
0.0
 10
23.514850
 20
14.803982
 30
0.0
 10
22.953712
 20
14.803982
 30
0.0
 10
22.392575
 20
14.803982
 30
0.0
 10
22.392575
 20
13.693847
 30
0.0
 10
22.392575
 20
12.583698
 30
0.0
 10
22.392575
 20
11.473548
 30
0.0
 10
22.392575
 20
10.363399
 30
0.0
 10
22.392575
 20
9.253250
 30
0.0
 10
22.392575
 20
8.143100
 30
0.0
 10
22.392575
 20
7.032951
 30
0.0
 10
22.392575
 20
5.922802
 30
0.0
 10
22.382328
 20
5.628557
 30
0.0
 10
22.351539
 20
5.351160
 30
0.0
 10
22.300132
 20
5.090641
 30
0.0
 10
22.228030
 20
4.847112
 30
0.0
 10
22.135155
 20
4.620628
 30
0.0
 10
22.021430
 20
4.411276
 30
0.0
 10
21.886777
 20
4.219139
 30
0.0
 10
21.731118
 20
4.044274
 30
0.0
 10
21.559450
 20
3.890886
 30
0.0
 10
21.371892
 20
3.758101
 30
0.0
 10
21.168471
 20
3.645889
 30
0.0
 10
20.949212
 20
3.554223
 30
0.0
 10
20.714141
 20
3.482990
 30
0.0
 10
20.463283
 20
3.432190
 30
0.0
 10
20.196665
 20
3.401739
 30
0.0
 10
19.914312
 20
3.391579
 30
0.0
 10
19.629568
 20
3.402303
 30
0.0
 10
19.360716
 20
3.434110
 30
0.0
 10
19.107728
 20
3.486913
 30
0.0
 10
18.870581
 20
3.560630
 30
0.0
 10
18.649247
 20
3.655146
 30
0.0
 10
18.443700
 20
3.770264
 30
0.0
 10
18.253916
 20
3.905929
 30
0.0
 10
18.079868
 20
4.061969
 30
0.0
 10
17.926482
 20
4.238528
 30
0.0
 10
17.793715
 20
4.430890
 30
0.0
 10
17.681516
 20
4.639170
 30
0.0
 10
17.589833
 20
4.863452
 30
0.0
 10
17.518615
 20
5.103877
 30
0.0
 10
17.467810
 20
5.360502
 30
0.0
 10
17.437366
 20
5.633496
 30
0.0
 10
17.427228
 20
5.922886
 30
0.0
 10
17.427228
 20
7.033036
 30
0.0
 10
17.427228
 20
8.143185
 30
0.0
 10
17.427228
 20
9.253334
 30
0.0
 10
17.427228
 20
10.363484
 30
0.0
 10
17.427228
 20
11.473633
 30
0.0
 10
17.427228
 20
12.583782
 30
0.0
 10
17.427228
 20
13.693932
 30
0.0
 10
17.427228
 20
14.804067
 30
0.0
 10
16.866091
 20
14.804067
 30
0.0
 10
16.304954
 20
14.804067
 30
0.0
 10
15.743817
 20
14.804067
 30
0.0
 10
15.182680
 20
14.804067
 30
0.0
 10
14.621542
 20
14.804067
 30
0.0
 10
14.060405
 20
14.804067
 30
0.0
 10
13.499268
 20
14.804067
 30
0.0
 10
12.938131
 20
14.804067
 30
0.0
 10
12.938131
 20
13.761157
 30
0.0
 10
12.938131
 20
12.718261
 30
0.0
 10
12.938131
 20
11.675365
 30
0.0
 10
12.938131
 20
10.632470
 30
0.0
 10
12.938131
 20
9.589574
 30
0.0
 10
12.938131
 20
8.546650
 30
0.0
 10
12.938131
 20
7.503754
 30
0.0
 10
12.938131
 20
6.460858
 30
0.0
 10
12.904397
 20
6.548883
 30
0.0
 10
12.868859
 20
6.635864
 30
0.0
 10
12.831409
 20
6.721914
 30
0.0
 10
12.791944
 20
6.807032
 30
0.0
 10
12.750357
 20
6.891332
 30
0.0
 10
12.706543
 20
6.974898
 30
0.0
 10
12.660397
 20
7.057730
 30
0.0
 10
12.611811
 20
7.139970
 30
0.0
 10
12.457075
 20
7.375907
 30
0.0
 10
12.280558
 20
7.602362
 30
0.0
 10
12.082184
 20
7.819222
 30
0.0
 10
11.861874
 20
8.026317
 30
0.0
 10
11.619551
 20
8.223477
 30
0.0
 10
11.355137
 20
8.410590
 30
0.0
 10
11.068555
 20
8.587431
 30
0.0
 10
10.759728
 20
8.753914
 30
0.0
 10
10.415693
 20
8.917236
 30
0.0
 10
10.018717
 20
9.079768
 30
0.0
 10
9.568980
 20
9.241566
 30
0.0
 10
9.066663
 20
9.402714
 30
0.0
 10
8.511947
 20
9.563242
 30
0.0
 10
7.905013
 20
9.723178
 30
0.0
 10
7.246042
 20
9.882605
 30
0.0
 10
6.535214
 20
10.041581
 30
0.0
 10
6.251199
 20
10.104291
 30
0.0
 10
5.994469
 20
10.168412
 30
0.0
 10
5.765024
 20
10.233887
 30
0.0
 10
5.562866
 20
10.300633
 30
0.0
 10
5.387993
 20
10.368648
 30
0.0
 10
5.240406
 20
10.437821
 30
0.0
 10
5.120105
 20
10.508151
 30
0.0
 10
5.027089
 20
10.579553
 30
0.0
 10
4.950395
 20
10.650137
 30
0.0
 10
4.884011
 20
10.722978
 30
0.0
 10
4.827911
 20
10.798021
 30
0.0
 10
4.782070
 20
10.875294
 30
0.0
 10
4.746461
 20
10.954711
 30
0.0
 10
4.721058
 20
11.036273
 30
0.0
 10
4.705835
 20
11.119980
 30
0.0
 10
4.700769
 20
11.205748
 30
0.0
 10
4.706970
 20
11.322446
 30
0.0
 10
4.725571
 20
11.434404
 30
0.0
 10
4.756576
 20
11.541648
 30
0.0
 10
4.799984
 20
11.644236
 30
0.0
 10
4.855795
 20
11.742139
 30
0.0
 10
4.924008
 20
11.835470
 30
0.0
 10
5.004625
 20
11.924172
 30
0.0
 10
5.097644
 20
12.008303
 30
0.0
 10
5.202955
 20
12.087269
 30
0.0
 10
5.320435
 20
12.155538
 30
0.0
 10
5.450060
 20
12.213168
 30
0.0
 10
5.591804
 20
12.260186
 30
0.0
 10
5.745641
 20
12.296678
 30
0.0
 10
5.911545
 20
12.322642
 30
0.0
 10
6.089489
 20
12.338164
 30
0.0
 10
6.279450
 20
12.343244
 30
0.0
 10
6.511156
 20
12.336189
 30
0.0
 10
6.729995
 20
12.314740
 30
0.0
 10
6.935916
 20
12.279349
 30
0.0
 10
7.128867
 20
12.229904
 30
0.0
 10
7.308796
 20
12.166517
 30
0.0
 10
7.475651
 20
12.089244
 30
0.0
 10
7.629382
 20
11.998171
 30
0.0
 10
7.769936
 20
11.893382
 30
0.0
 10
7.900468
 20
11.773381
 30
0.0
 10
8.019218
 20
11.636644
 30
0.0
 10
8.126187
 20
11.483144
 30
0.0
 10
8.221374
 20
11.312936
 30
0.0
 10
8.304781
 20
11.125963
 30
0.0
 10
8.376406
 20
10.922284
 30
0.0
 10
8.436249
 20
10.701840
 30
0.0
 10
8.484311
 20
10.464660
 30
0.0
 10
9.013478
 20
10.495535
 30
0.0
 10
9.542644
 20
10.526382
 30
0.0
 10
10.071811
 20
10.557257
 30
0.0
 10
10.600978
 20
10.588132
 30
0.0
 10
11.130144
 20
10.619008
 30
0.0
 10
11.659311
 20
10.649854
 30
0.0
 10
12.188478
 20
10.680730
 30
0.0
 10
12.717644
 20
10.711605
 30
0.0
 10
12.629583
 20
11.258100
 30
0.0
 10
12.504317
 20
11.766495
 30
0.0
 10
12.341844
 20
12.236621
 30
0.0
 10
12.142166
 20
12.668421
 30
0.0
 10
11.905282
 20
13.061754
 30
0.0
 10
11.631192
 20
13.416535
 30
0.0
 10
11.319896
 20
13.732681
 30
0.0
 10
10.971394
 20
14.010049
 30
0.0
 10
10.586178
 20
14.254171
 30
0.0
 10
10.159724
 20
14.465668
 30
0.0
 10
9.691930
 20
14.644541
 30
0.0
 10
9.182693
 20
14.790853
 30
0.0
 10
8.631909
 20
14.904597
 30
0.0
 10
8.039475
 20
14.985812
 30
0.0
 10
7.405287
 20
15.034524
 30
0.0
 10
6.729236
 20
15.051181
 30
0.0
  0
LWPOLYLINE
  5
101
100
AcDbEntity
  8
Layer_1
 62
7
100
AcDbPolyline
 90
417
 70
0
 10
127.582083
 20
15.051181
 30
0.0
 10
126.728990
 20
15.020980
 30
0.0
 10
125.925814
 20
14.930322
 30
0.0
 10
125.172459
 20
14.779099
 30
0.0
 10
124.468814
 20
14.567212
 30
0.0
 10
123.814781
 20
14.294557
 30
0.0
 10
123.210255
 20
13.961027
 30
0.0
 10
122.655130
 20
13.566508
 30
0.0
 10
122.149306
 20
13.110917
 30
0.0
 10
121.773267
 20
12.692297
 30
0.0
 10
121.438086
 20
12.237552
 30
0.0
 10
121.143827
 20
11.746768
 30
0.0
 10
120.890544
 20
11.219972
 30
0.0
 10
120.678301
 20
10.657277
 30
0.0
 10
120.507156
 20
10.058684
 30
0.0
 10
120.377170
 20
9.424276
 30
0.0
 10
120.288403
 20
8.754083
 30
0.0
 10
120.288403
 20
9.510354
 30
0.0
 10
120.288403
 20
10.266625
 30
0.0
 10
120.288403
 20
11.022896
 30
0.0
 10
120.288403
 20
11.779167
 30
0.0
 10
120.288403
 20
12.535438
 30
0.0
 10
120.288403
 20
13.291708
 30
0.0
 10
120.288403
 20
14.047979
 30
0.0
 10
120.288403
 20
14.804236
 30
0.0
 10
119.759236
 20
14.804236
 30
0.0
 10
119.230069
 20
14.804236
 30
0.0
 10
118.700903
 20
14.804236
 30
0.0
 10
118.171736
 20
14.804236
 30
0.0
 10
117.642569
 20
14.804236
 30
0.0
 10
117.113403
 20
14.804236
 30
0.0
 10
116.584236
 20
14.804236
 30
0.0
 10
116.055069
 20
14.804236
 30
0.0
 10
116.055069
 20
13.798834
 30
0.0
 10
116.055069
 20
12.793417
 30
0.0
 10
116.055069
 20
11.788000
 30
0.0
 10
116.055069
 20
10.782584
 30
0.0
 10
116.055069
 20
9.777167
 30
0.0
 10
116.055069
 20
8.771750
 30
0.0
 10
116.055069
 20
7.766334
 30
0.0
 10
116.055069
 20
6.760917
 30
0.0
 10
115.370460
 20
7.766334
 30
0.0
 10
114.685851
 20
8.771750
 30
0.0
 10
114.001242
 20
9.777167
 30
0.0
 10
113.316631
 20
10.782584
 30
0.0
 10
112.632022
 20
11.788000
 30
0.0
 10
111.947412
 20
12.793417
 30
0.0
 10
111.262803
 20
13.798834
 30
0.0
 10
110.578194
 20
14.804236
 30
0.0
 10
110.053436
 20
14.804236
 30
0.0
 10
109.528681
 20
14.804236
 30
0.0
 10
109.003922
 20
14.804236
 30
0.0
 10
108.479167
 20
14.804236
 30
0.0
 10
107.954408
 20
14.804236
 30
0.0
 10
107.429653
 20
14.804236
 30
0.0
 10
106.904894
 20
14.804236
 30
0.0
 10
106.380139
 20
14.804236
 30
0.0
 10
106.380139
 20
13.346826
 30
0.0
 10
106.380139
 20
11.889403
 30
0.0
 10
106.380139
 20
10.431979
 30
0.0
 10
106.380139
 20
8.974583
 30
0.0
 10
106.380139
 20
7.517160
 30
0.0
 10
106.380139
 20
6.059736
 30
0.0
 10
106.380139
 20
4.602340
 30
0.0
 10
106.380139
 20
3.144916
 30
0.0
 10
105.832230
 20
4.602340
 30
0.0
 10
105.284324
 20
6.059736
 30
0.0
 10
104.736415
 20
7.517160
 30
0.0
 10
104.188506
 20
8.974583
 30
0.0
 10
103.640599
 20
10.431979
 30
0.0
 10
103.092690
 20
11.889403
 30
0.0
 10
102.544784
 20
13.346826
 30
0.0
 10
101.996875
 20
14.804236
 30
0.0
 10
101.383922
 20
14.804236
 30
0.0
 10
100.770972
 20
14.804236
 30
0.0
 10
100.158019
 20
14.804236
 30
0.0
 10
99.545069
 20
14.804236
 30
0.0
 10
98.932117
 20
14.804236
 30
0.0
 10
98.319167
 20
14.804236
 30
0.0
 10
97.706214
 20
14.804236
 30
0.0
 10
97.093264
 20
14.804236
 30
0.0
 10
96.578428
 20
13.433920
 30
0.0
 10
96.063593
 20
12.063590
 30
0.0
 10
95.548758
 20
10.693260
 30
0.0
 10
95.033922
 20
9.322958
 30
0.0
 10
94.519090
 20
7.952628
 30
0.0
 10
94.004254
 20
6.582298
 30
0.0
 10
93.489419
 20
5.211997
 30
0.0
 10
92.974583
 20
3.841667
 30
0.0
 10
92.172014
 20
3.841667
 30
0.0
 10
91.369444
 20
3.841667
 30
0.0
 10
90.566875
 20
3.841667
 30
0.0
 10
89.764306
 20
3.841667
 30
0.0
 10
88.961736
 20
3.841667
 30
0.0
 10
88.159167
 20
3.841667
 30
0.0
 10
87.356597
 20
3.841667
 30
0.0
 10
86.554028
 20
3.841667
 30
0.0
 10
86.554028
 20
5.211997
 30
0.0
 10
86.554028
 20
6.582298
 30
0.0
 10
86.554028
 20
7.952628
 30
0.0
 10
86.554028
 20
9.322958
 30
0.0
 10
86.554028
 20
10.693260
 30
0.0
 10
86.554028
 20
12.063590
 30
0.0
 10
86.554028
 20
13.433920
 30
0.0
 10
86.554028
 20
14.804236
 30
0.0
 10
85.992891
 20
14.804236
 30
0.0
 10
85.431754
 20
14.804236
 30
0.0
 10
84.870617
 20
14.804236
 30
0.0
 10
84.309478
 20
14.804236
 30
0.0
 10
83.748341
 20
14.804236
 30
0.0
 10
83.187204
 20
14.804236
 30
0.0
 10
82.626067
 20
14.804236
 30
0.0
 10
82.064931
 20
14.804236
 30
0.0
 10
82.064931
 20
13.433920
 30
0.0
 10
82.064931
 20
12.063590
 30
0.0
 10
82.064931
 20
10.693260
 30
0.0
 10
82.064931
 20
9.322958
 30
0.0
 10
82.064931
 20
7.952628
 30
0.0
 10
82.064931
 20
6.582298
 30
0.0
 10
82.064931
 20
5.211997
 30
0.0
 10
82.064931
 20
3.841667
 30
0.0
 10
81.246926
 20
3.841667
 30
0.0
 10
80.428922
 20
3.841667
 30
0.0
 10
79.610921
 20
3.841667
 30
0.0
 10
78.792917
 20
3.841667
 30
0.0
 10
77.974912
 20
3.841667
 30
0.0
 10
77.156908
 20
3.841667
 30
0.0
 10
76.338907
 20
3.841667
 30
0.0
 10
75.520903
 20
3.841667
 30
0.0
 10
75.520903
 20
5.211997
 30
0.0
 10
75.520903
 20
6.582298
 30
0.0
 10
75.520903
 20
7.952628
 30
0.0
 10
75.520903
 20
9.322958
 30
0.0
 10
75.520903
 20
10.693260
 30
0.0
 10
75.520903
 20
12.063590
 30
0.0
 10
75.520903
 20
13.433920
 30
0.0
 10
75.520903
 20
14.804236
 30
0.0
 10
74.959766
 20
14.804236
 30
0.0
 10
74.398629
 20
14.804236
 30
0.0
 10
73.837492
 20
14.804236
 30
0.0
 10
73.276353
 20
14.804236
 30
0.0
 10
72.715216
 20
14.804236
 30
0.0
 10
72.154079
 20
14.804236
 30
0.0
 10
71.592942
 20
14.804236
 30
0.0
 10
71.031806
 20
14.804236
 30
0.0
 10
71.031806
 20
12.986316
 30
0.0
 10
71.031806
 20
11.168410
 30
0.0
 10
71.031806
 20
9.350503
 30
0.0
 10
71.031806
 20
7.532597
 30
0.0
 10
71.031806
 20
5.714691
 30
0.0
 10
71.031806
 20
3.896785
 30
0.0
 10
71.031806
 20
2.078878
 30
0.0
 10
71.031806
 20
0.260972
 30
0.0
 10
72.470478
 20
0.260972
 30
0.0
 10
73.909149
 20
0.260972
 30
0.0
 10
75.347822
 20
0.260972
 30
0.0
 10
76.786492
 20
0.260972
 30
0.0
 10
78.225165
 20
0.260972
 30
0.0
 10
79.663838
 20
0.260972
 30
0.0
 10
81.102508
 20
0.260972
 30
0.0
 10
82.541181
 20
0.260972
 30
0.0
 10
83.920322
 20
0.260972
 30
0.0
 10
85.299463
 20
0.260972
 30
0.0
 10
86.678603
 20
0.260972
 30
0.0
 10
88.057742
 20
0.260972
 30
0.0
 10
89.436883
 20
0.260972
 30
0.0
 10
90.816024
 20
0.260972
 30
0.0
 10
92.195165
 20
0.260972
 30
0.0
 10
93.574306
 20
0.260972
 30
0.0
 10
93.905033
 20
0.260972
 30
0.0
 10
94.235764
 20
0.260972
 30
0.0
 10
94.566492
 20
0.260972
 30
0.0
 10
94.897222
 20
0.260972
 30
0.0
 10
95.227950
 20
0.260972
 30
0.0
 10
95.558681
 20
0.260972
 30
0.0
 10
95.889408
 20
0.260972
 30
0.0
 10
96.220139
 20
0.260972
 30
0.0
 10
96.308333
 20
0.560833
 30
0.0
 10
96.396528
 20
0.860694
 30
0.0
 10
96.484722
 20
1.160556
 30
0.0
 10
96.572917
 20
1.460417
 30
0.0
 10
96.661111
 20
1.760278
 30
0.0
 10
96.749306
 20
2.060139
 30
0.0
 10
96.837500
 20
2.360000
 30
0.0
 10
96.925694
 20
2.659861
 30
0.0
 10
97.566206
 20
2.659861
 30
0.0
 10
98.206718
 20
2.659861
 30
0.0
 10
98.847230
 20
2.659861
 30
0.0
 10
99.487742
 20
2.659861
 30
0.0
 10
100.128256
 20
2.659861
 30
0.0
 10
100.768768
 20
2.659861
 30
0.0
 10
101.409280
 20
2.659861
 30
0.0
 10
102.049792
 20
2.659861
 30
0.0
 10
102.139090
 20
2.360000
 30
0.0
 10
102.228385
 20
2.060139
 30
0.0
 10
102.317683
 20
1.760278
 30
0.0
 10
102.406978
 20
1.460417
 30
0.0
 10
102.496276
 20
1.160556
 30
0.0
 10
102.585574
 20
0.860694
 30
0.0
 10
102.674869
 20
0.560833
 30
0.0
 10
102.764167
 20
0.260972
 30
0.0
 10
103.351762
 20
0.260972
 30
0.0
 10
103.939357
 20
0.260972
 30
0.0
 10
104.526952
 20
0.260972
 30
0.0
 10
105.114547
 20
0.260972
 30
0.0
 10
105.702145
 20
0.260972
 30
0.0
 10
106.289740
 20
0.260972
 30
0.0
 10
106.877335
 20
0.260972
 30
0.0
 10
107.464931
 20
0.260972
 30
0.0
 10
107.857394
 20
0.260972
 30
0.0
 10
108.249861
 20
0.260972
 30
0.0
 10
108.642325
 20
0.260972
 30
0.0
 10
109.034792
 20
0.260972
 30
0.0
 10
109.427256
 20
0.260972
 30
0.0
 10
109.819722
 20
0.260972
 30
0.0
 10
110.212186
 20
0.260972
 30
0.0
 10
110.604653
 20
0.260972
 30
0.0
 10
110.604653
 20
1.258684
 30
0.0
 10
110.604653
 20
2.256368
 30
0.0
 10
110.604653
 20
3.254080
 30
0.0
 10
110.604653
 20
4.251764
 30
0.0
 10
110.604653
 20
5.249476
 30
0.0
 10
110.604653
 20
6.247188
 30
0.0
 10
110.604653
 20
7.244872
 30
0.0
 10
110.604653
 20
8.242584
 30
0.0
 10
111.285954
 20
7.244872
 30
0.0
 10
111.967256
 20
6.247188
 30
0.0
 10
112.648560
 20
5.249476
 30
0.0
 10
113.329861
 20
4.251764
 30
0.0
 10
114.011162
 20
3.254080
 30
0.0
 10
114.692464
 20
2.256368
 30
0.0
 10
115.373768
 20
1.258684
 30
0.0
 10
116.055069
 20
0.260972
 30
0.0
 10
116.584236
 20
0.260972
 30
0.0
 10
117.113403
 20
0.260972
 30
0.0
 10
117.642569
 20
0.260972
 30
0.0
 10
118.171736
 20
0.260972
 30
0.0
 10
118.700903
 20
0.260972
 30
0.0
 10
119.230069
 20
0.260972
 30
0.0
 10
119.759236
 20
0.260972
 30
0.0
 10
120.288403
 20
0.260972
 30
0.0
 10
120.288403
 20
1.027149
 30
0.0
 10
120.288403
 20
1.793354
 30
0.0
 10
120.288403
 20
2.559531
 30
0.0
 10
120.288403
 20
3.325708
 30
0.0
 10
120.288403
 20
4.091913
 30
0.0
 10
120.288403
 20
4.858090
 30
0.0
 10
120.288403
 20
5.624295
 30
0.0
 10
120.288403
 20
6.390472
 30
0.0
 10
120.346140
 20
5.917722
 30
0.0
 10
120.424050
 20
5.463174
 30
0.0
 10
120.522221
 20
5.026831
 30
0.0
 10
120.640752
 20
4.608718
 30
0.0
 10
120.779729
 20
4.208810
 30
0.0
 10
120.939250
 20
3.827132
 30
0.0
 10
121.119400
 20
3.463686
 30
0.0
 10
121.320278
 20
3.118472
 30
0.0
 10
121.599627
 20
2.700529
 30
0.0
 10
121.891922
 20
2.314901
 30
0.0
 10
122.197083
 20
1.961672
 30
0.0
 10
122.515035
 20
1.640926
 30
0.0
 10
122.845700
 20
1.352749
 30
0.0
 10
123.188998
 20
1.097197
 30
0.0
 10
123.544855
 20
0.874354
 30
0.0
 10
123.913194
 20
0.684306
 30
0.0
 10
124.303759
 20
0.523721
 30
0.0
 10
124.721377
 20
0.384275
 30
0.0
 10
125.166021
 20
0.266080
 30
0.0
 10
125.637665
 20
0.169194
 30
0.0
 10
126.136287
 20
0.093699
 30
0.0
 10
126.661861
 20
0.039682
 30
0.0
 10
127.214356
 20
0.007226
 30
0.0
 10
127.793750
 20
-0.003498
 30
0.0
 10
128.271357
 20
0.005815
 30
0.0
 10
128.726952
 20
0.033191
 30
0.0
 10
129.160637
 20
0.078600
 30
0.0
 10
129.572515
 20
0.141874
 30
0.0
 10
129.962690
 20
0.222844
 30
0.0
 10
130.331264
 20
0.321255
 30
0.0
 10
130.678343
 20
0.437022
 30
0.0
 10
131.004028
 20
0.569893
 30
0.0
 10
131.315107
 20
0.719781
 30
0.0
 10
131.613320
 20
0.886631
 30
0.0
 10
131.898616
 20
1.070470
 30
0.0
 10
132.170940
 20
1.271356
 30
0.0
 10
132.430246
 20
1.489260
 30
0.0
 10
132.676477
 20
1.724266
 30
0.0
 10
132.909584
 20
1.976375
 30
0.0
 10
133.129514
 20
2.245615
 30
0.0
 10
133.256991
 20
2.417884
 30
0.0
 10
133.379348
 20
2.596135
 30
0.0
 10
133.496524
 20
2.780483
 30
0.0
 10
133.608462
 20
2.971039
 30
0.0
 10
133.715102
 20
3.167918
 30
0.0
 10
133.816384
 20
3.371287
 30
0.0
 10
133.912249
 20
3.581204
 30
0.0
 10
134.002639
 20
3.797838
 30
0.0
 10
134.002639
 20
3.355765
 30
0.0
 10
134.002639
 20
2.913692
 30
0.0
 10
134.002639
 20
2.471619
 30
0.0
 10
134.002639
 20
2.029518
 30
0.0
 10
134.002639
 20
1.587445
 30
0.0
 10
134.002639
 20
1.145372
 30
0.0
 10
134.002639
 20
0.703299
 30
0.0
 10
134.002639
 20
0.261226
 30
0.0
 10
135.536119
 20
0.261226
 30
0.0
 10
137.069601
 20
0.261226
 30
0.0
 10
138.603081
 20
0.261226
 30
0.0
 10
140.136561
 20
0.261226
 30
0.0
 10
141.670044
 20
0.261226
 30
0.0
 10
143.203524
 20
0.261226
 30
0.0
 10
144.737006
 20
0.261226
 30
0.0
 10
146.270486
 20
0.261226
 30
0.0
 10
146.270486
 20
0.672424
 30
0.0
 10
146.270486
 20
1.083650
 30
0.0
 10
146.270486
 20
1.494848
 30
0.0
 10
146.270486
 20
1.906046
 30
0.0
 10
146.270486
 20
2.317272
 30
0.0
 10
146.270486
 20
2.728469
 30
0.0
 10
146.270486
 20
3.139695
 30
0.0
 10
146.270486
 20
3.550893
 30
0.0
 10
145.300347
 20
3.550893
 30
0.0
 10
144.330208
 20
3.550893
 30
0.0
 10
143.360069
 20
3.550893
 30
0.0
 10
142.389931
 20
3.550893
 30
0.0
 10
141.419792
 20
3.550893
 30
0.0
 10
140.449653
 20
3.550893
 30
0.0
 10
139.479514
 20
3.550893
 30
0.0
 10
138.509375
 20
3.550893
 30
0.0
 10
138.509375
 20
3.909174
 30
0.0
 10
138.509375
 20
4.267455
 30
0.0
 10
138.509375
 20
4.625765
 30
0.0
 10
138.509375
 20
4.984046
 30
0.0
 10
138.509375
 20
5.342327
 30
0.0
 10
138.509375
 20
5.700636
 30
0.0
 10
138.509375
 20
6.058917
 30
0.0
 10
138.509375
 20
6.417198
 30
0.0
 10
139.383603
 20
6.417198
 30
0.0
 10
140.257829
 20
6.417198
 30
0.0
 10
141.132058
 20
6.417198
 30
0.0
 10
142.006283
 20
6.417198
 30
0.0
 10
142.880512
 20
6.417198
 30
0.0
 10
143.754740
 20
6.417198
 30
0.0
 10
144.628966
 20
6.417198
 30
0.0
 10
145.503194
 20
6.417198
 30
0.0
 10
145.503194
 20
6.788716
 30
0.0
 10
145.503194
 20
7.160233
 30
0.0
 10
145.503194
 20
7.531750
 30
0.0
 10
145.503194
 20
7.903268
 30
0.0
 10
145.503194
 20
8.274785
 30
0.0
 10
145.503194
 20
8.646302
 30
0.0
 10
145.503194
 20
9.017820
 30
0.0
 10
145.503194
 20
9.389337
 30
0.0
 10
144.628966
 20
9.389337
 30
0.0
 10
143.754740
 20
9.389337
 30
0.0
 10
142.880512
 20
9.389337
 30
0.0
 10
142.006283
 20
9.389337
 30
0.0
 10
141.132058
 20
9.389337
 30
0.0
 10
140.257829
 20
9.389337
 30
0.0
 10
139.383603
 20
9.389337
 30
0.0
 10
138.509375
 20
9.389337
 30
0.0
 10
138.509375
 20
9.678192
 30
0.0
 10
138.509375
 20
9.967018
 30
0.0
 10
138.509375
 20
10.255844
 30
0.0
 10
138.509375
 20
10.544698
 30
0.0
 10
138.509375
 20
10.833553
 30
0.0
 10
138.509375
 20
11.122379
 30
0.0
 10
138.509375
 20
11.411205
 30
0.0
 10
138.509375
 20
11.700060
 30
0.0
 10
139.451952
 20
11.700060
 30
0.0
 10
140.394532
 20
11.700060
 30
0.0
 10
141.337109
 20
11.700060
 30
0.0
 10
142.279686
 20
11.700060
 30
0.0
 10
143.222266
 20
11.700060
 30
0.0
 10
144.164843
 20
11.700060
 30
0.0
 10
145.107423
 20
11.700060
 30
0.0
 10
146.050000
 20
11.700060
 30
0.0
 10
146.050000
 20
12.088115
 30
0.0
 10
146.050000
 20
12.476171
 30
0.0
 10
146.050000
 20
12.864226
 30
0.0
 10
146.050000
 20
13.252282
 30
0.0
 10
146.050000
 20
13.640338
 30
0.0
 10
146.050000
 20
14.028393
 30
0.0
 10
146.050000
 20
14.416449
 30
0.0
 10
146.050000
 20
14.804490
 30
0.0
 10
144.544079
 20
14.804490
 30
0.0
 10
143.038158
 20
14.804490
 30
0.0
 10
141.532240
 20
14.804490
 30
0.0
 10
140.026319
 20
14.804490
 30
0.0
 10
138.520399
 20
14.804490
 30
0.0
 10
137.014478
 20
14.804490
 30
0.0
 10
135.508560
 20
14.804490
 30
0.0
 10
134.002639
 20
14.804490
 30
0.0
 10
134.002639
 20
14.349195
 30
0.0
 10
134.002639
 20
13.893886
 30
0.0
 10
134.002639
 20
13.438577
 30
0.0
 10
134.002639
 20
12.983268
 30
0.0
 10
134.002639
 20
12.527959
 30
0.0
 10
134.002639
 20
12.072678
 30
0.0
 10
134.002639
 20
11.617369
 30
0.0
 10
134.002639
 20
11.162060
 30
0.0
 10
133.804999
 20
11.604415
 30
0.0
 10
133.589116
 20
12.019789
 30
0.0
 10
133.354868
 20
12.408071
 30
0.0
 10
133.102121
 20
12.769174
 30
0.0
 10
132.830751
 20
13.103015
 30
0.0
 10
132.540629
 20
13.409536
 30
0.0
 10
132.231624
 20
13.688598
 30
0.0
 10
131.903611
 20
13.940170
 30
0.0
 10
131.493009
 20
14.200633
 30
0.0
 10
131.045122
 20
14.426355
 30
0.0
 10
130.560081
 20
14.617334
 30
0.0
 10
130.038015
 20
14.773601
 30
0.0
 10
129.479051
 20
14.895154
 30
0.0
 10
128.883325
 20
14.981974
 30
0.0
 10
128.250958
 20
15.034067
 30
0.0
 10
127.582083
 20
15.051181
 30
0.0
  0
LWPOLYLINE
  5
102
100
AcDbEntity
  8
Layer_1
 62
7
100
AcDbPolyline
 90
305
 70
0
 10
27.393194
 20
14.804236
 30
0.0
 10
27.393194
 20
12.986316
 30
0.0
 10
27.393194
 20
11.168410
 30
0.0
 10
27.393194
 20
9.350503
 30
0.0
 10
27.393194
 20
7.532597
 30
0.0
 10
27.393194
 20
5.714691
 30
0.0
 10
27.393194
 20
3.896785
 30
0.0
 10
27.393194
 20
2.078878
 30
0.0
 10
27.393194
 20
0.260972
 30
0.0
 10
27.957639
 20
0.260972
 30
0.0
 10
28.522083
 20
0.260972
 30
0.0
 10
29.086528
 20
0.260972
 30
0.0
 10
29.650972
 20
0.260972
 30
0.0
 10
30.215417
 20
0.260972
 30
0.0
 10
30.779861
 20
0.260972
 30
0.0
 10
31.344306
 20
0.260972
 30
0.0
 10
31.908750
 20
0.260972
 30
0.0
 10
31.908750
 20
0.998504
 30
0.0
 10
31.908750
 20
1.736035
 30
0.0
 10
31.908750
 20
2.473566
 30
0.0
 10
31.908750
 20
3.211069
 30
0.0
 10
31.908750
 20
3.948601
 30
0.0
 10
31.908750
 20
4.686132
 30
0.0
 10
31.908750
 20
5.423663
 30
0.0
 10
31.908750
 20
6.161195
 30
0.0
 10
31.958359
 20
6.161195
 30
0.0
 10
32.007968
 20
6.161195
 30
0.0
 10
32.057577
 20
6.161195
 30
0.0
 10
32.107189
 20
6.161195
 30
0.0
 10
32.156798
 20
6.161195
 30
0.0
 10
32.206407
 20
6.161195
 30
0.0
 10
32.256016
 20
6.161195
 30
0.0
 10
32.305625
 20
6.161195
 30
0.0
 10
32.457444
 20
6.156115
 30
0.0
 10
32.605311
 20
6.140592
 30
0.0
 10
32.749196
 20
6.114628
 30
0.0
 10
32.889080
 20
6.078137
 30
0.0
 10
33.024936
 20
6.031090
 30
0.0
 10
33.156731
 20
5.973460
 30
0.0
 10
33.284448
 20
5.905191
 30
0.0
 10
33.408056
 20
5.826197
 30
0.0
 10
33.498807
 20
5.752283
 30
0.0
 10
33.592502
 20
5.659545
 30
0.0
 10
33.689197
 20
5.547954
 30
0.0
 10
33.788940
 20
5.417454
 30
0.0
 10
33.891784
 20
5.268074
 30
0.0
 10
33.997781
 20
5.099729
 30
0.0
 10
34.106985
 20
4.912446
 30
0.0
 10
34.219444
 20
4.706142
 30
0.0
 10
34.519306
 20
4.150502
 30
0.0
 10
34.819167
 20
3.594892
 30
0.0
 10
35.119028
 20
3.039252
 30
0.0
 10
35.418889
 20
2.483642
 30
0.0
 10
35.718750
 20
1.928002
 30
0.0
 10
36.018611
 20
1.372392
 30
0.0
 10
36.318472
 20
0.816752
 30
0.0
 10
36.618333
 20
0.261142
 30
0.0
 10
37.253333
 20
0.261142
 30
0.0
 10
37.888333
 20
0.261142
 30
0.0
 10
38.523333
 20
0.261142
 30
0.0
 10
39.158333
 20
0.261142
 30
0.0
 10
39.793333
 20
0.261142
 30
0.0
 10
40.428333
 20
0.261142
 30
0.0
 10
41.063333
 20
0.261142
 30
0.0
 10
41.698333
 20
0.261142
 30
0.0
 10
41.427135
 20
0.788107
 30
0.0
 10
41.155936
 20
1.315072
 30
0.0
 10
40.884740
 20
1.842038
 30
0.0
 10
40.613542
 20
2.368975
 30
0.0
 10
40.342343
 20
2.895940
 30
0.0
 10
40.071144
 20
3.422905
 30
0.0
 10
39.799949
 20
3.949871
 30
0.0
 10
39.528750
 20
4.476836
 30
0.0
 10
39.484097
 20
4.560261
 30
0.0
 10
39.429523
 20
4.651814
 30
0.0
 10
39.365030
 20
4.751579
 30
0.0
 10
39.290614
 20
4.859642
 30
0.0
 10
39.206280
 20
4.976087
 30
0.0
 10
39.112023
 20
5.100999
 30
0.0
 10
39.007847
 20
5.234405
 30
0.0
 10
38.893750
 20
5.376419
 30
0.0
 10
38.780573
 20
5.516543
 30
0.0
 10
38.674221
 20
5.644192
 30
0.0
 10
38.574689
 20
5.759282
 30
0.0
 10
38.481982
 20
5.861757
 30
0.0
 10
38.396096
 20
5.951504
 30
0.0
 10
38.317035
 20
6.028466
 30
0.0
 10
38.244794
 20
6.092558
 30
0.0
 10
38.179375
 20
6.143697
 30
0.0
 10
38.080679
 20
6.210781
 30
0.0
 10
37.968185
 20
6.278006
 30
0.0
 10
37.841944
 20
6.345316
 30
0.0
 10
37.702013
 20
6.412683
 30
0.0
 10
37.548442
 20
6.480078
 30
0.0
 10
37.381279
 20
6.547388
 30
0.0
 10
37.200578
 20
6.614613
 30
0.0
 10
37.006389
 20
6.681697
 30
0.0
 10
37.250294
 20
6.740512
 30
0.0
 10
37.480946
 20
6.802883
 30
0.0
 10
37.698316
 20
6.868895
 30
0.0
 10
37.902380
 20
6.938548
 30
0.0
 10
38.093114
 20
7.011954
 30
0.0
 10
38.270490
 20
7.089113
 30
0.0
 10
38.434484
 20
7.170111
 30
0.0
 10
38.585069
 20
7.254975
 30
0.0
 10
38.804788
 20
7.396566
 30
0.0
 10
39.012495
 20
7.548458
 30
0.0
 10
39.208160
 20
7.710623
 30
0.0
 10
39.391762
 20
7.883061
 30
0.0
 10
39.563271
 20
8.065743
 30
0.0
 10
39.722668
 20
8.258614
 30
0.0
 10
39.869917
 20
8.461673
 30
0.0
 10
40.005000
 20
8.674892
 30
0.0
 10
40.105121
 20
8.858449
 30
0.0
 10
40.194783
 20
9.048695
 30
0.0
 10
40.273893
 20
9.245630
 30
0.0
 10
40.342349
 20
9.449338
 30
0.0
 10
40.400055
 20
9.659875
 30
0.0
 10
40.446915
 20
9.877271
 30
0.0
 10
40.482830
 20
10.101610
 30
0.0
 10
40.507722
 20
10.332947
 30
0.0
 10
40.982869
 20
9.073982
 30
0.0
 10
41.458018
 20
7.814989
 30
0.0
 10
41.933165
 20
6.556024
 30
0.0
 10
42.408311
 20
5.297030
 30
0.0
 10
42.883461
 20
4.038065
 30
0.0
 10
43.358607
 20
2.779100
 30
0.0
 10
43.833756
 20
1.520107
 30
0.0
 10
44.308903
 20
0.261142
 30
0.0
 10
44.918548
 20
0.261142
 30
0.0
 10
45.528190
 20
0.261142
 30
0.0
 10
46.137836
 20
0.261142
 30
0.0
 10
46.747478
 20
0.261142
 30
0.0
 10
47.357123
 20
0.261142
 30
0.0
 10
47.966768
 20
0.261142
 30
0.0
 10
48.576411
 20
0.261142
 30
0.0
 10
49.186056
 20
0.261142
 30
0.0
 10
49.727350
 20
1.719666
 30
0.0
 10
50.268643
 20
3.178162
 30
0.0
 10
50.809937
 20
4.636687
 30
0.0
 10
51.351228
 20
6.095183
 30
0.0
 10
51.892522
 20
7.553707
 30
0.0
 10
52.433815
 20
9.012232
 30
0.0
 10
52.975109
 20
10.470728
 30
0.0
 10
53.516403
 20
11.929252
 30
0.0
 10
53.516403
 20
10.470728
 30
0.0
 10
53.516403
 20
9.012232
 30
0.0
 10
53.516403
 20
7.553707
 30
0.0
 10
53.516403
 20
6.095183
 30
0.0
 10
53.516403
 20
4.636687
 30
0.0
 10
53.516403
 20
3.178162
 30
0.0
 10
53.516403
 20
1.719666
 30
0.0
 10
53.516403
 20
0.261142
 30
0.0
 10
55.049883
 20
0.261142
 30
0.0
 10
56.583366
 20
0.261142
 30
0.0
 10
58.116845
 20
0.261142
 30
0.0
 10
59.650325
 20
0.261142
 30
0.0
 10
61.183808
 20
0.261142
 30
0.0
 10
62.717288
 20
0.261142
 30
0.0
 10
64.250770
 20
0.261142
 30
0.0
 10
65.784250
 20
0.261142
 30
0.0
 10
65.784250
 20
0.672339
 30
0.0
 10
65.784250
 20
1.083565
 30
0.0
 10
65.784250
 20
1.494763
 30
0.0
 10
65.784250
 20
1.905961
 30
0.0
 10
65.784250
 20
2.317187
 30
0.0
 10
65.784250
 20
2.728385
 30
0.0
 10
65.784250
 20
3.139611
 30
0.0
 10
65.784250
 20
3.550808
 30
0.0
 10
64.814111
 20
3.550808
 30
0.0
 10
63.843972
 20
3.550808
 30
0.0
 10
62.873834
 20
3.550808
 30
0.0
 10
61.903695
 20
3.550808
 30
0.0
 10
60.933556
 20
3.550808
 30
0.0
 10
59.963417
 20
3.550808
 30
0.0
 10
58.993278
 20
3.550808
 30
0.0
 10
58.023139
 20
3.550808
 30
0.0
 10
58.023139
 20
3.909090
 30
0.0
 10
58.023139
 20
4.267371
 30
0.0
 10
58.023139
 20
4.625680
 30
0.0
 10
58.023139
 20
4.983961
 30
0.0
 10
58.023139
 20
5.342242
 30
0.0
 10
58.023139
 20
5.700552
 30
0.0
 10
58.023139
 20
6.058833
 30
0.0
 10
58.023139
 20
6.417114
 30
0.0
 10
58.897368
 20
6.417114
 30
0.0
 10
59.771593
 20
6.417114
 30
0.0
 10
60.645822
 20
6.417114
 30
0.0
 10
61.520047
 20
6.417114
 30
0.0
 10
62.394276
 20
6.417114
 30
0.0
 10
63.268504
 20
6.417114
 30
0.0
 10
64.142730
 20
6.417114
 30
0.0
 10
65.016959
 20
6.417114
 30
0.0
 10
65.016959
 20
6.788631
 30
0.0
 10
65.016959
 20
7.160148
 30
0.0
 10
65.016959
 20
7.531666
 30
0.0
 10
65.016959
 20
7.903183
 30
0.0
 10
65.016959
 20
8.274700
 30
0.0
 10
65.016959
 20
8.646218
 30
0.0
 10
65.016959
 20
9.017735
 30
0.0
 10
65.016959
 20
9.389252
 30
0.0
 10
64.142730
 20
9.389252
 30
0.0
 10
63.268504
 20
9.389252
 30
0.0
 10
62.394276
 20
9.389252
 30
0.0
 10
61.520047
 20
9.389252
 30
0.0
 10
60.645822
 20
9.389252
 30
0.0
 10
59.771593
 20
9.389252
 30
0.0
 10
58.897368
 20
9.389252
 30
0.0
 10
58.023139
 20
9.389252
 30
0.0
 10
58.023139
 20
9.678107
 30
0.0
 10
58.023139
 20
9.966933
 30
0.0
 10
58.023139
 20
10.255759
 30
0.0
 10
58.023139
 20
10.544614
 30
0.0
 10
58.023139
 20
10.833468
 30
0.0
 10
58.023139
 20
11.122294
 30
0.0
 10
58.023139
 20
11.411121
 30
0.0
 10
58.023139
 20
11.699975
 30
0.0
 10
58.965716
 20
11.699975
 30
0.0
 10
59.908296
 20
11.699975
 30
0.0
 10
60.850873
 20
11.699975
 30
0.0
 10
61.793450
 20
11.699975
 30
0.0
 10
62.736030
 20
11.699975
 30
0.0
 10
63.678607
 20
11.699975
 30
0.0
 10
64.621187
 20
11.699975
 30
0.0
 10
65.563764
 20
11.699975
 30
0.0
 10
65.563764
 20
12.088031
 30
0.0
 10
65.563764
 20
12.476086
 30
0.0
 10
65.563764
 20
12.864142
 30
0.0
 10
65.563764
 20
13.252197
 30
0.0
 10
65.563764
 20
13.640253
 30
0.0
 10
65.563764
 20
14.028308
 30
0.0
 10
65.563764
 20
14.416364
 30
0.0
 10
65.563764
 20
14.804405
 30
0.0
 10
64.191238
 20
14.804405
 30
0.0
 10
62.818713
 20
14.804405
 30
0.0
 10
61.446187
 20
14.804405
 30
0.0
 10
60.073659
 20
14.804405
 30
0.0
 10
58.701133
 20
14.804405
 30
0.0
 10
57.328607
 20
14.804405
 30
0.0
 10
55.956081
 20
14.804405
 30
0.0
 10
54.583556
 20
14.804405
 30
0.0
 10
54.012496
 20
14.804405
 30
0.0
 10
53.441436
 20
14.804405
 30
0.0
 10
52.870379
 20
14.804405
 30
0.0
 10
52.299320
 20
14.804405
 30
0.0
 10
51.728260
 20
14.804405
 30
0.0
 10
51.157200
 20
14.804405
 30
0.0
 10
50.586143
 20
14.804405
 30
0.0
 10
50.015084
 20
14.804405
 30
0.0
 10
49.611593
 20
13.495812
 30
0.0
 10
49.208103
 20
12.187232
 30
0.0
 10
48.804616
 20
10.878652
 30
0.0
 10
48.401125
 20
9.570072
 30
0.0
 10
47.997635
 20
8.261492
 30
0.0
 10
47.594145
 20
6.952884
 30
0.0
 10
47.190657
 20
5.644305
 30
0.0
 10
46.787167
 20
4.335725
 30
0.0
 10
46.378165
 20
5.644305
 30
0.0
 10
45.969163
 20
6.952884
 30
0.0
 10
45.560161
 20
8.261492
 30
0.0
 10
45.151159
 20
9.570072
 30
0.0
 10
44.742159
 20
10.878652
 30
0.0
 10
44.333157
 20
12.187232
 30
0.0
 10
43.924155
 20
13.495812
 30
0.0
 10
43.515153
 20
14.804405
 30
0.0
 10
42.927558
 20
14.804405
 30
0.0
 10
42.339963
 20
14.804405
 30
0.0
 10
41.752368
 20
14.804405
 30
0.0
 10
41.164770
 20
14.804405
 30
0.0
 10
40.577175
 20
14.804405
 30
0.0
 10
39.989579
 20
14.804405
 30
0.0
 10
39.401984
 20
14.804405
 30
0.0
 10
38.814389
 20
14.804405
 30
0.0
 10
38.859590
 20
14.684249
 30
0.0
 10
38.904788
 20
14.564079
 30
0.0
 10
38.949988
 20
14.443909
 30
0.0
 10
38.995186
 20
14.323739
 30
0.0
 10
39.040387
 20
14.203568
 30
0.0
 10
39.085588
 20
14.083426
 30
0.0
 10
39.130786
 20
13.963256
 30
0.0
 10
39.175986
 20
13.843086
 30
0.0
 10
39.052571
 20
13.939606
 30
0.0
 10
38.925342
 20
14.029945
 30
0.0
 10
38.794154
 20
14.114076
 30
0.0
 10
38.658851
 20
14.192082
 30
0.0
 10
38.519292
 20
14.263936
 30
0.0
 10
38.375319
 20
14.329665
 30
0.0
 10
38.226791
 20
14.389271
 30
0.0
 10
38.073556
 20
14.442808
 30
0.0
 10
37.782921
 20
14.526713
 30
0.0
 10
37.461667
 20
14.599752
 30
0.0
 10
37.109770
 20
14.661841
 30
0.0
 10
36.727203
 20
14.712895
 30
0.0
 10
36.313943
 20
14.752773
 30
0.0
 10
35.869962
 20
14.781385
 30
0.0
 10
35.395236
 20
14.798628
 30
0.0
 10
34.889736
 20
14.804414
 30
0.0
 10
33.952671
 20
14.804414
 30
0.0
 10
33.015606
 20
14.804414
 30
0.0
 10
32.078538
 20
14.804414
 30
0.0
 10
31.141472
 20
14.804414
 30
0.0
 10
30.204407
 20
14.804414
 30
0.0
 10
29.267342
 20
14.804414
 30
0.0
 10
28.330274
 20
14.804414
 30
0.0
 10
27.393194
 20
14.804236
 30
0.0
  0
LWPOLYLINE
  5
103
100
AcDbEntity
  8
Layer_1
 62
7
100
AcDbPolyline
 90
33
 70
0
 10
65.854792
 20
14.804236
 30
0.0
 10
65.854792
 20
12.986316
 30
0.0
 10
65.854792
 20
11.168410
 30
0.0
 10
65.854792
 20
9.350503
 30
0.0
 10
65.854792
 20
7.532597
 30
0.0
 10
65.854792
 20
5.714691
 30
0.0
 10
65.854792
 20
3.896785
 30
0.0
 10
65.854792
 20
2.078878
 30
0.0
 10
65.854792
 20
0.260972
 30
0.0
 10
66.417032
 20
0.260972
 30
0.0
 10
66.979269
 20
0.260972
 30
0.0
 10
67.541510
 20
0.260972
 30
0.0
 10
68.103750
 20
0.260972
 30
0.0
 10
68.665990
 20
0.260972
 30
0.0
 10
69.228228
 20
0.260972
 30
0.0
 10
69.790468
 20
0.260972
 30
0.0
 10
70.352708
 20
0.260972
 30
0.0
 10
70.352708
 20
2.078878
 30
0.0
 10
70.352708
 20
3.896785
 30
0.0
 10
70.352708
 20
5.714691
 30
0.0
 10
70.352708
 20
7.532597
 30
0.0
 10
70.352708
 20
9.350503
 30
0.0
 10
70.352708
 20
11.168410
 30
0.0
 10
70.352708
 20
12.986316
 30
0.0
 10
70.352708
 20
14.804236
 30
0.0
 10
69.790468
 20
14.804236
 30
0.0
 10
69.228228
 20
14.804236
 30
0.0
 10
68.665990
 20
14.804236
 30
0.0
 10
68.103750
 20
14.804236
 30
0.0
 10
67.541510
 20
14.804236
 30
0.0
 10
66.979269
 20
14.804236
 30
0.0
 10
66.417032
 20
14.804236
 30
0.0
 10
65.854792
 20
14.804236
 30
0.0
  0
LWPOLYLINE
  5
104
100
AcDbEntity
  8
Layer_1
 62
7
100
AcDbPolyline
 90
65
 70
0
 10
31.908750
 20
11.867361
 30
0.0
 10
32.155694
 20
11.867361
 30
0.0
 10
32.402639
 20
11.867361
 30
0.0
 10
32.649583
 20
11.867361
 30
0.0
 10
32.896528
 20
11.867361
 30
0.0
 10
33.143472
 20
11.867361
 30
0.0
 10
33.390417
 20
11.867361
 30
0.0
 10
33.637361
 20
11.867361
 30
0.0
 10
33.884306
 20
11.867361
 30
0.0
 10
34.179586
 20
11.861434
 30
0.0
 10
34.450297
 20
11.843654
 30
0.0
 10
34.696459
 20
11.813824
 30
0.0
 10
34.918102
 20
11.772196
 30
0.0
 10
35.115254
 20
11.718743
 30
0.0
 10
35.287935
 20
11.653606
 30
0.0
 10
35.436175
 20
11.576785
 30
0.0
 10
35.560000
 20
11.488337
 30
0.0
 10
35.664783
 20
11.389192
 30
0.0
 10
35.755848
 20
11.280198
 30
0.0
 10
35.833115
 20
11.161241
 30
0.0
 10
35.896510
 20
11.032181
 30
0.0
 10
35.945953
 20
10.892876
 30
0.0
 10
35.981363
 20
10.743242
 30
0.0
 10
36.002671
 20
10.583081
 30
0.0
 10
36.009783
 20
10.412336
 30
0.0
 10
36.005155
 20
10.294847
 30
0.0
 10
35.991298
 20
10.180519
 30
0.0
 10
35.968297
 20
10.069464
 30
0.0
 10
35.936216
 20
9.961740
 30
0.0
 10
35.895147
 20
9.857403
 30
0.0
 10
35.845166
 20
9.756565
 30
0.0
 10
35.786345
 20
9.659311
 30
0.0
 10
35.718770
 20
9.565670
 30
0.0
 10
35.646727
 20
9.478124
 30
0.0
 10
35.569488
 20
9.399130
 30
0.0
 10
35.487034
 20
9.328716
 30
0.0
 10
35.399334
 20
9.266909
 30
0.0
 10
35.306364
 20
9.213795
 30
0.0
 10
35.208100
 20
9.169430
 30
0.0
 10
35.104510
 20
9.133813
 30
0.0
 10
34.995575
 20
9.107002
 30
0.0
 10
34.783804
 20
9.060689
 30
0.0
 10
34.590016
 20
9.020896
 30
0.0
 10
34.414212
 20
8.987481
 30
0.0
 10
34.256390
 20
8.960388
 30
0.0
 10
34.116555
 20
8.939503
 30
0.0
 10
33.994702
 20
8.924828
 30
0.0
 10
33.890833
 20
8.916079
 30
0.0
 10
33.804950
 20
8.913256
 30
0.0
 10
33.567929
 20
8.913256
 30
0.0
 10
33.330904
 20
8.913256
 30
0.0
 10
33.093883
 20
8.913256
 30
0.0
 10
32.856861
 20
8.913256
 30
0.0
 10
32.619837
 20
8.913256
 30
0.0
 10
32.382816
 20
8.913256
 30
0.0
 10
32.145791
 20
8.913256
 30
0.0
 10
31.908770
 20
8.913256
 30
0.0
 10
31.908770
 20
9.282572
 30
0.0
 10
31.908770
 20
9.651888
 30
0.0
 10
31.908770
 20
10.021204
 30
0.0
 10
31.908770
 20
10.390520
 30
0.0
 10
31.908770
 20
10.759808
 30
0.0
 10
31.908770
 20
11.129124
 30
0.0
 10
31.908770
 20
11.498440
 30
0.0
 10
31.908750
 20
11.867361
 30
0.0
  0
LWPOLYLINE
  5
105
100
AcDbEntity
  8
Layer_1
 62
7
100
AcDbPolyline
 90
97
 70
0
 10
127.696736
 20
11.690972
 30
0.0
 10
127.863247
 20
11.686457
 30
0.0
 10
128.025497
 20
11.672910
 30
0.0
 10
128.183561
 20
11.650614
 30
0.0
 10
128.337516
 20
11.619401
 30
0.0
 10
128.487444
 20
11.579523
 30
0.0
 10
128.633418
 20
11.531093
 30
0.0
 10
128.775516
 20
11.474169
 30
0.0
 10
128.913819
 20
11.408863
 30
0.0
 10
129.047748
 20
11.335683
 30
0.0
 10
129.176639
 20
11.255080
 30
0.0
 10
129.300416
 20
11.166998
 30
0.0
 10
129.419000
 20
11.071523
 30
0.0
 10
129.532315
 20
10.968568
 30
0.0
 10
129.640282
 20
10.858191
 30
0.0
 10
129.742822
 20
10.740363
 30
0.0
 10
129.839861
 20
10.615113
 30
0.0
 10
129.896407
 20
10.532732
 30
0.0
 10
129.952028
 20
10.439345
 30
0.0
 10
130.006821
 20
10.334894
 30
0.0
 10
130.060892
 20
10.219324
 30
0.0
 10
130.114342
 20
10.092607
 30
0.0
 10
130.167278
 20
9.954685
 30
0.0
 10
130.219800
 20
9.805502
 30
0.0
 10
130.272014
 20
9.644974
 30
0.0
 10
130.738341
 20
9.748606
 30
0.0
 10
131.204671
 20
9.852238
 30
0.0
 10
131.670998
 20
9.955870
 30
0.0
 10
132.137325
 20
10.059502
 30
0.0
 10
132.603655
 20
10.163106
 30
0.0
 10
133.069982
 20
10.266738
 30
0.0
 10
133.536312
 20
10.370370
 30
0.0
 10
134.002639
 20
10.474002
 30
0.0
 10
134.002639
 20
9.805925
 30
0.0
 10
134.002639
 20
9.137849
 30
0.0
 10
134.002639
 20
8.469772
 30
0.0
 10
134.002639
 20
7.801696
 30
0.0
 10
134.002639
 20
7.133648
 30
0.0
 10
134.002639
 20
6.465571
 30
0.0
 10
134.002639
 20
5.797495
 30
0.0
 10
134.002639
 20
5.129418
 30
0.0
 10
133.557256
 20
5.263926
 30
0.0
 10
133.111875
 20
5.398404
 30
0.0
 10
132.666492
 20
5.532912
 30
0.0
 10
132.221111
 20
5.667390
 30
0.0
 10
131.775728
 20
5.801898
 30
0.0
 10
131.330347
 20
5.936405
 30
0.0
 10
130.884964
 20
6.070884
 30
0.0
 10
130.439583
 20
6.205391
 30
0.0
 10
130.359477
 20
5.870647
 30
0.0
 10
130.267975
 20
5.556054
 30
0.0
 10
130.165057
 20
5.261724
 30
0.0
 10
130.050692
 20
4.987743
 30
0.0
 10
129.924858
 20
4.734251
 30
0.0
 10
129.787526
 20
4.501305
 30
0.0
 10
129.638668
 20
4.289045
 30
0.0
 10
129.478264
 20
4.097529
 30
0.0
 10
129.304819
 20
3.927829
 30
0.0
 10
129.111838
 20
3.780820
 30
0.0
 10
128.899223
 20
3.656529
 30
0.0
 10
128.666867
 20
3.554872
 30
0.0
 10
128.414670
 20
3.475850
 30
0.0
 10
128.142526
 20
3.419462
 30
0.0
 10
127.850333
 20
3.385624
 30
0.0
 10
127.537986
 20
3.374335
 30
0.0
 10
127.214904
 20
3.388164
 30
0.0
 10
126.910423
 20
3.429763
 30
0.0
 10
126.624548
 20
3.499190
 30
0.0
 10
126.357278
 20
3.596444
 30
0.0
 10
126.108612
 20
3.721609
 30
0.0
 10
125.878548
 20
3.874715
 30
0.0
 10
125.667090
 20
4.055873
 30
0.0
 10
125.474236
 20
4.265056
 30
0.0
 10
125.301866
 20
4.514541
 30
0.0
 10
125.151978
 20
4.811552
 30
0.0
 10
125.024724
 20
5.156060
 30
0.0
 10
124.920262
 20
5.548010
 30
0.0
 10
124.838742
 20
5.987430
 30
0.0
 10
124.780322
 20
6.474236
 30
0.0
 10
124.745157
 20
7.008426
 30
0.0
 10
124.733389
 20
7.589973
 30
0.0
 10
124.743097
 20
8.062300
 30
0.0
 10
124.772180
 20
8.502002
 30
0.0
 10
124.820593
 20
8.909080
 30
0.0
 10
124.888281
 20
9.283588
 30
0.0
 10
124.975191
 20
9.625529
 30
0.0
 10
125.081273
 20
9.934957
 30
0.0
 10
125.206478
 20
10.211874
 30
0.0
 10
125.350750
 20
10.456306
 30
0.0
 10
125.565498
 20
10.744850
 30
0.0
 10
125.802881
 20
10.995238
 30
0.0
 10
126.062794
 20
11.207413
 30
0.0
 10
126.345137
 20
11.381233
 30
0.0
 10
126.649805
 20
11.516615
 30
0.0
 10
126.976694
 20
11.613418
 30
0.0
 10
127.325701
 20
11.671612
 30
0.0
 10
127.696736
 20
11.690972
 30
0.0
  0
LWPOLYLINE
  5
106
100
AcDbEntity
  8
Layer_1
 62
7
100
AcDbPolyline
 90
25
 70
0
 10
99.492153
 20
11.029528
 30
0.0
 10
99.693897
 20
10.376889
 30
0.0
 10
99.895643
 20
9.724250
 30
0.0
 10
100.097387
 20
9.071611
 30
0.0
 10
100.299131
 20
8.418972
 30
0.0
 10
100.500877
 20
7.766334
 30
0.0
 10
100.702621
 20
7.113695
 30
0.0
 10
100.904367
 20
6.461056
 30
0.0
 10
101.106111
 20
5.808417
 30
0.0
 10
100.704825
 20
5.808417
 30
0.0
 10
100.303542
 20
5.808417
 30
0.0
 10
99.902256
 20
5.808417
 30
0.0
 10
99.500972
 20
5.808417
 30
0.0
 10
99.099686
 20
5.808417
 30
0.0
 10
98.698403
 20
5.808417
 30
0.0
 10
98.297117
 20
5.808417
 30
0.0
 10
97.895833
 20
5.808417
 30
0.0
 10
98.095373
 20
6.461056
 30
0.0
 10
98.294912
 20
7.113695
 30
0.0
 10
98.494452
 20
7.766334
 30
0.0
 10
98.693992
 20
8.418972
 30
0.0
 10
98.893534
 20
9.071611
 30
0.0
 10
99.093074
 20
9.724250
 30
0.0
 10
99.292613
 20
10.376889
 30
0.0
 10
99.492153
 20
11.029528
 30
0.0
  0
ENDSEC
  0
SECTION
  2
OBJECTS
  0
DICTIONARY
  5
C
330
0
100
AcDbDictionary
  3
ACAD_GROUP
350
D
  3
ACAD_MLINESTYLE
350
17
  0
DICTIONARY
  5
D
330
C
100
AcDbDictionary
  0
DICTIONARY
  5
1A
330
C
100
AcDbDictionary
  0
DICTIONARY
  5
17
330
C
100
AcDbDictionary
  3
STANDARD
350
18
  0
DICTIONARY
  5
19
330
C
100
AcDbDictionary
  0
ENDSEC
  0
EOF
