<?xml version="1.0" encoding="UTF-8" standalone="no"?>
<!-- Created with Inkscape (http://www.inkscape.org/) -->

<svg
   xmlns:dc="http://purl.org/dc/elements/1.1/"
   xmlns:cc="http://creativecommons.org/ns#"
   xmlns:rdf="http://www.w3.org/1999/02/22-rdf-syntax-ns#"
   xmlns:svg="http://www.w3.org/2000/svg"
   xmlns="http://www.w3.org/2000/svg"
   xmlns:sodipodi="http://sodipodi.sourceforge.net/DTD/sodipodi-0.dtd"
   xmlns:inkscape="http://www.inkscape.org/namespaces/inkscape"
   width="744.09448819"
   height="1052.3622047"
   id="svg2"
   version="1.1"
   inkscape:version="0.48.4 r9939"
   sodipodi:docname="fuck-surveillance.svg">
  <defs
     id="defs4" />
  <sodipodi:namedview
     id="base"
     pagecolor="#ffffff"
     bordercolor="#666666"
     borderopacity="1.0"
     inkscape:pageopacity="0.0"
     inkscape:pageshadow="2"
     inkscape:zoom="1.4"
     inkscape:cx="287.86106"
     inkscape:cy="115.30986"
     inkscape:document-units="px"
     inkscape:current-layer="layer1"
     showgrid="false"
     inkscape:window-width="1280"
     inkscape:window-height="784"
     inkscape:window-x="0"
     inkscape:window-y="0"
     inkscape:window-maximized="0" />
  <metadata
     id="metadata7">
    <rdf:RDF>
      <cc:Work
         rdf:about="">
        <dc:format>image/svg+xml</dc:format>
        <dc:type
           rdf:resource="http://purl.org/dc/dcmitype/StillImage" />
        <dc:title></dc:title>
      </cc:Work>
    </rdf:RDF>
  </metadata>
  <g
     inkscape:label="Layer 1"
     inkscape:groupmode="layer"
     id="layer1">
    <g
       style="font-size:72px;font-style:normal;font-variant:normal;font-weight:normal;font-stretch:normal;text-align:center;line-height:80.00000119%;letter-spacing:0px;word-spacing:0px;writing-mode:lr-tb;text-anchor:middle;fill:#000000;fill-opacity:1;stroke:none;font-family:Arial Black;-inkscape-font-specification:'Arial Black,'"
       id="text2985">
      <path
         d="m 76.837037,935.10883 39.375003,0 0,11.07421 -23.378903,0 0,9 19.968753,0 0,10.40625 -19.968753,0 0,21.0586 -15.9961,0 0,-51.53906"
         id="path3030"
         inkscape:connector-curvature="0" />
      <path
         d="m 158.39954,935.10883 15.89063,0 0,30.72656 c -6e-5,3.04689 -0.48052,5.9297 -1.44141,8.64844 -0.93755,2.69532 -2.42583,5.0625 -4.46484,7.10156 -2.01567,2.01563 -4.13677,3.43359 -6.36328,4.2539 -3.09379,1.14844 -6.80863,1.72266 -11.14453,1.72266 -2.50785,0 -5.25003,-0.17578 -8.22657,-0.52734 -2.95314,-0.35157 -5.4258,-1.04297 -7.41797,-2.07422 -1.9922,-1.05469 -3.82032,-2.54297 -5.48437,-4.46485 -1.64063,-1.92186 -2.76563,-3.90233 -3.375,-5.9414 -0.98438,-3.28124 -1.47657,-6.18748 -1.47656,-8.71875 l 0,-30.72656 15.89062,0 0,31.46484 c -2e-5,2.81252 0.77342,5.01564 2.32031,6.60937 1.57029,1.57033 3.73826,2.35548 6.50391,2.35547 2.74216,10e-6 4.88668,-0.77342 6.43359,-2.32031 1.57028,-1.5703 2.35543,-3.78514 2.35547,-6.64453 l 0,-31.46484"
         id="path3032"
         inkscape:connector-curvature="0" />
      <path
         d="m 219.21986,965.58929 13.95703,4.21875 c -0.93756,3.91408 -2.41412,7.18361 -4.42969,9.8086 -2.01567,2.625 -4.52348,4.60547 -7.52344,5.9414 -2.9766,1.33594 -6.77347,2.00391 -11.39062,2.00391 -5.60159,0 -10.18362,-0.80859 -13.7461,-2.42578 -3.53907,-1.64062 -6.59766,-4.51171 -9.17578,-8.61328 -2.57813,-4.10155 -3.86719,-9.35154 -3.86719,-15.75 0,-8.53122 2.26172,-15.08199 6.78516,-19.65235 4.54686,-4.5937 10.96873,-6.89057 19.26563,-6.89062 6.49215,5e-5 11.5898,1.31255 15.29296,3.9375 3.72652,2.62505 6.49214,6.65629 8.29688,12.09375 l -14.0625,3.12891 c -0.49223,-1.57028 -1.00785,-2.71872 -1.54688,-3.44532 -0.89066,-1.21871 -1.9805,-2.15621 -3.26953,-2.8125 -1.28909,-0.65621 -2.7305,-0.98433 -4.32422,-0.98437 -3.6094,4e-5 -6.37502,1.45316 -8.29687,4.35937 -1.45315,2.15629 -2.17971,5.543 -2.17969,10.16016 -2e-5,5.71877 0.86717,9.64455 2.60156,11.77734 1.73436,2.10939 4.17185,3.16408 7.3125,3.16407 3.04685,10e-6 5.34372,-0.85546 6.89063,-2.56641 1.57027,-1.71092 2.70699,-4.1953 3.41016,-7.45313"
         id="path3034"
         inkscape:connector-curvature="0" />
      <path
         d="m 240.94642,935.10883 15.92578,0 0,19.47656 16.69922,-19.47656 21.16406,0 -18.77344,19.4414 19.61719,32.09766 -19.61719,0 -10.86328,-21.19922 -8.22656,8.61328 0,12.58594 -15.92578,0 0,-51.53906"
         id="path3036"
         inkscape:connector-curvature="0" />
      <path
         d="m 2.3699646,1027.1971 15.1523434,-0.9492 c 0.328107,2.4609 0.996075,4.3359 2.003907,5.625 1.640603,2.0859 3.984351,3.1289 7.03125,3.1289 2.273408,0 4.0195,-0.5273 5.238281,-1.582 1.242154,-1.0781 1.863247,-2.3203 1.863281,-3.7266 -3.4e-5,-1.3359 -0.585971,-2.5312 -1.757812,-3.5859 -1.171906,-1.0547 -3.890654,-2.0508 -8.15625,-2.9883 -6.984392,-1.5703 -11.964856,-3.6562 -14.9414067,-6.2578 -3.0000059,-2.6016 -4.5000044,-5.918 -4.5,-9.9492 -4.4e-6,-2.6484 0.7617136,-5.1445 2.2851563,-7.48833 1.5468667,-2.36714 3.8554584,-4.2187 6.9257814,-5.55469 3.093733,-1.35932 7.324198,-2.03901 12.691406,-2.03906 6.585905,5e-5 11.601525,1.23052 15.046875,3.69141 3.468705,2.43754 5.531203,6.32817 6.1875,11.67187 l -15.011719,0.8789 c -0.398469,-2.3203 -1.242218,-4.0078 -2.53125,-5.0625 -1.265653,-1.0546 -3.023464,-1.582 -5.273437,-1.582 -1.851586,0 -3.246115,0.3985 -4.183594,1.1953 -0.93752,0.7735 -1.406269,1.7227 -1.40625,2.8476 -1.9e-5,0.8204 0.386699,1.5587 1.160156,2.2149 0.749979,0.6797 2.531227,1.3125 5.34375,1.8984 6.960905,1.5001 11.941369,3.0235 14.941407,4.5703 3.023393,1.5235 5.214798,3.4219 6.574218,5.6954 1.382764,2.2734 2.07417,4.8164 2.074219,7.6289 -4.9e-5,3.3047 -0.914111,6.3515 -2.742187,9.1406 -1.82817,2.7891 -4.382855,4.9101 -7.664063,6.3633 -3.281285,1.4297 -7.418,2.1445 -12.410156,2.1445 -8.765643,0 -14.835949,-1.6875 -18.2109377,-5.0625 -3.3750048,-3.375 -5.2851591,-7.6641 -5.7304687,-12.8672"
         style=""
         id="path3038" />
      <path
         d="m 90.717621,992.70883 15.890629,0 0,30.72657 c -6e-5,3.0469 -0.48053,5.9297 -1.44141,8.6484 -0.93755,2.6953 -2.42583,5.0625 -4.46484,7.1016 -2.015676,2.0156 -4.136768,3.4336 -6.363285,4.2539 -3.09379,1.1484 -6.80863,1.7227 -11.144532,1.7227 -2.507841,0 -5.250026,-0.1758 -8.226562,-0.5274 -2.953145,-0.3516 -5.425799,-1.043 -7.417969,-2.0742 -1.992201,-1.0547 -3.820324,-2.543 -5.484375,-4.4649 -1.640633,-1.9218 -2.765632,-3.9023 -3.375,-5.9414 -0.984381,-3.2812 -1.476568,-6.1874 -1.476562,-8.7187 l 0,-30.72657 15.890625,0 0,31.46487 c -2.2e-5,2.8125 0.773415,5.0156 2.320312,6.6093 1.570288,1.5704 3.738254,2.3555 6.503906,2.3555 2.742155,0 4.886684,-0.7734 6.433594,-2.3203 1.570275,-1.5703 2.35543,-3.7851 2.355469,-6.6445 l 0,-31.46487"
         style=""
         id="path3040" />
      <path
         d="m 117.43637,1044.2479 0,-51.53907 26.54297,0 c 4.92184,5e-5 8.68355,0.42192 11.28516,1.26562 2.60151,0.8438 4.69917,2.41411 6.29296,4.71094 1.5937,2.27351 2.39058,5.05081 2.39063,8.33201 -5e-5,2.8594 -0.60943,5.3321 -1.82813,7.418 -1.21879,2.0625 -2.89457,3.7383 -5.02734,5.0273 -1.35942,0.8204 -3.2227,1.5001 -5.58984,2.0391 1.89839,0.6328 3.2812,1.2656 4.14843,1.8984 0.5859,0.4219 1.42965,1.3243 2.53125,2.7071 1.12496,1.3828 1.87496,2.4492 2.25,3.1992 l 7.69922,14.9414 -18,0 -8.50781,-15.75 c -1.07815,-2.0391 -2.03909,-3.3633 -2.88281,-3.9727 -1.14846,-0.7968 -2.44924,-1.1953 -3.90235,-1.1953 l -1.40625,0 0,20.918 -15.99609,0 m 15.99609,-30.6563 6.71485,0 c 0.72653,10e-5 2.13278,-0.2343 4.21875,-0.7031 1.05465,-0.2109 1.91012,-0.75 2.5664,-1.6172 0.67966,-0.8671 1.0195,-1.8632 1.01954,-2.9883 -4e-5,-1.664 -0.52738,-2.9413 -1.58204,-3.832 -1.05472,-0.8906 -3.03518,-1.3359 -5.9414,-1.3359 l -6.9961,0 0,10.4765"
         style=""
         id="path3042" />
      <path
         d="m 166.90121,992.70883 16.66407,0 11.60156,37.08987 11.42578,-37.08987 16.17188,0 -19.125,51.53907 -17.26172,0 -19.47657,-51.53907"
         style=""
         id="path3044" />
      <path
         d="m 228.00278,992.70883 42.67968,0 0,11.00387 -26.71875,0 0,8.1914 24.78516,0 0,10.5118 -24.78516,0 0,10.1601 27.49219,0 0,11.6719 -43.45312,0 0,-51.53907"
         style=""
         id="path3046" />
      <path
         d="m 280.702,992.70883 15.96093,0 0,51.53907 -15.96093,0 0,-51.53907"
         style=""
         id="path3048" />
      <path
         d="m 308.05356,992.70883 15.92578,0 0,38.84767 24.85547,0 0,12.6914 -40.78125,0 0,-51.53907"
         style=""
         id="path3050" />
      <path
         d="m 356.14731,992.70883 15.92578,0 0,38.84767 24.85547,0 0,12.6914 -40.78125,0 0,-51.53907"
         style=""
         id="path3052" />
      <path
         d="m 435.952,1035.7401 -18.14063,0 -2.49609,8.5078 -16.27735,0 19.3711,-51.53907 17.36718,0 19.3711,51.53907 -16.66406,0 -2.53125,-8.5078 m -3.33985,-11.1446 -5.69531,-18.5273 -5.66016,18.5273 11.35547,0"
         style=""
         id="path3054" />
      <path
         d="m 460.31528,992.70883 14.87109,0 19.40625,28.51167 0,-28.51167 15.01172,0 0,51.53907 -15.01172,0 -19.30078,-28.3008 0,28.3008 -14.97656,0 0,-51.53907"
         style=""
         id="path3056" />
      <path
         d="m 554.56918,1023.1893 13.95703,4.2187 c -0.93755,3.9141 -2.41411,7.1836 -4.42968,9.8086 -2.01567,2.625 -4.52348,4.6055 -7.52344,5.9414 -2.9766,1.336 -6.77347,2.004 -11.39063,2.004 -5.60158,0 -10.18361,-0.8086 -13.74609,-2.4258 -3.53907,-1.6407 -6.59767,-4.5117 -9.17578,-8.6133 -2.57813,-4.1016 -3.86719,-9.3516 -3.86719,-15.75 0,-8.5312 2.26172,-15.082 6.78516,-19.65235 4.54686,-4.5937 10.96873,-6.89058 19.26562,-6.89063 6.49215,5e-5 11.58981,1.31255 15.29297,3.9375 3.72652,2.62505 6.49214,6.65628 8.29688,12.09378 l -14.0625,3.1289 c -0.49223,-1.5703 -1.00785,-2.7187 -1.54688,-3.4453 -0.89066,-1.2187 -1.9805,-2.1562 -3.26953,-2.8125 -1.28909,-0.6562 -2.7305,-0.9844 -4.32422,-0.9844 -3.6094,0 -6.37502,1.4532 -8.29687,4.3594 -1.45315,2.1562 -2.17971,5.543 -2.17969,10.1601 -2e-5,5.7188 0.86717,9.6446 2.60156,11.7774 1.73435,2.1094 4.17185,3.164 7.3125,3.164 3.04684,0 5.34372,-0.8554 6.89063,-2.5664 1.57027,-1.7109 2.70699,-4.1953 3.41015,-7.4531"
         style=""
         id="path3058" />
      <path
         d="m 576.19028,992.70883 42.67968,0 0,11.00387 -26.71875,0 0,8.1914 24.78516,0 0,10.5118 -24.78516,0 0,10.1601 27.49219,0 0,11.6719 -43.45312,0 0,-51.53907"
         style=""
         id="path3060" />
    </g>
  </g>
</svg>
