  0
SECTION
  2
HEADER
  9
$ACADVER
  1
AC1014
  9
$HANDSEED
  5
FFFF
  9
$MEASUREMENT
 70
     1
  0
ENDSEC
  0
SECTION
  2
TABLES
  0
TABLE
  2
VPORT
  5
8
330
0
100
AcDbSymbolTable
 70
     4
  0
VPORT
  5
2E
330
8
100
AcDbSymbolTableRecord
100
AcDbViewportTableRecord
  2
*ACTIVE
 70
     0
 10
0.0
 20
0.0
 11
1.0
 21
1.0
 12
210.0
 22
148.5
 13
0.0
 23
0.0
 14
10.0
 24
10.0
 15
10.0
 25
10.0
 16
0.0
 26
0.0
 36
1.0
 17
0.0
 27
0.0
 37
0.0
 40
341.0
 41
1.24
 42
50.0
 43
0.0
 44
0.0
 50
0.0
 51
0.0
 71
     0
 72
   100
 73
     1
 74
     3
 75
     0
 76
     0
 77
     0
 78
     0
  0
ENDTAB
  0
TABLE
  2
LTYPE
  5
5
330
0
100
AcDbSymbolTable
 70
     1
  0
LTYPE
  5
14
330
5
100
AcDbSymbolTableRecord
100
AcDbLinetypeTableRecord
  2
BYBLOCK
 70
     0
  3

 72
    65
 73
     0
 40
0.0
  0
LTYPE
  5
15
330
5
100
AcDbSymbolTableRecord
100
AcDbLinetypeTableRecord
  2
BYLAYER
 70
     0
  3

 72
    65
 73
     0
 40
0.0
  0
LTYPE
  5
16
330
5
100
AcDbSymbolTableRecord
100
AcDbLinetypeTableRecord
  2
CONTINUOUS
 70
     0
  3
Solid line
 72
    65
 73
     0
 40
0.0
  0
ENDTAB
  0
TABLE
  2
LAYER
  5
2
100
AcDbSymbolTable
 70
2
  0
LAYER
  5
50
100
AcDbSymbolTableRecord
100
AcDbLayerTableRecord
  2
0
 70
0
  6
CONTINUOUS
  0
LAYER
  5
51
100
AcDbSymbolTableRecord
100
AcDbLayerTableRecord
  2
Layer_1
 70
0
  6
CONTINUOUS
  0
ENDTAB
  0
TABLE
  2
STYLE
  5
3
330
0
100
AcDbSymbolTable
 70
     1
  0
STYLE
  5
11
330
3
100
AcDbSymbolTableRecord
100
AcDbTextStyleTableRecord
  2
STANDARD
 70
     0
 40
0.0
 41
1.0
 50
0.0
 71
     0
 42
2.5
  3
txt
  4

  0
ENDTAB
  0
TABLE
  2
VIEW
  5
6
330
0
100
AcDbSymbolTable
 70
     0
  0
ENDTAB
  0
TABLE
  2
UCS
  5
7
330
0
100
AcDbSymbolTable
 70
     0
  0
ENDTAB
  0
TABLE
  2
APPID
  5
9
330
0
100
AcDbSymbolTable
 70
     2
  0
APPID
  5
12
330
9
100
AcDbSymbolTableRecord
100
AcDbRegAppTableRecord
  2
ACAD
 70
     0
  0
ENDTAB
  0
TABLE
  2
DIMSTYLE
  5
A
330
0
100
AcDbSymbolTable
 70
     1
  0
DIMSTYLE
105
27
330
A
100
AcDbSymbolTableRecord
100
AcDbDimStyleTableRecord
  2
ISO-25
 70
     0
  3

  4

  5

  6

  7

 40
1.0
 41
2.5
 42
0.625
 43
3.75
 44
1.25
 45
0.0
 46
0.0
 47
0.0
 48
0.0
140
2.5
141
2.5
142
0.0
143
0.03937007874016
144
1.0
145
0.0
146
1.0
147
0.625
 71
     0
 72
     0
 73
     0
 74
     0
 75
     0
 76
     0
 77
     1
 78
     8
170
     0
171
     3
172
     1
173
     0
174
     0
175
     0
176
     0
177
     0
178
     0
270
     2
271
     2
272
     2
273
     2
274
     3
340
11
275
     0
280
     0
281
     0
282
     0
283
     0
284
     8
285
     0
286
     0
287
     3
288
     0
  0
ENDTAB
  0
TABLE
  2
BLOCK_RECORD
  5
1
330
0
100
AcDbSymbolTable
 70
     1
  0
BLOCK_RECORD
  5
1F
330
1
100
AcDbSymbolTableRecord
100
AcDbBlockTableRecord
  2
*MODEL_SPACE
  0
BLOCK_RECORD
  5
1B
330
1
100
AcDbSymbolTableRecord
100
AcDbBlockTableRecord
  2
*PAPER_SPACE
  0
ENDTAB
  0
ENDSEC
  0
SECTION
  2
BLOCKS
  0
BLOCK
  5
20
330
1F
100
AcDbEntity
  8
0
100
AcDbBlockBegin
  2
*MODEL_SPACE
 70
     0
 10
0.0
 20
0.0
 30
0.0
  3
*MODEL_SPACE
  1

  0
ENDBLK
  5
21
330
1F
100
AcDbEntity
  8
0
100
AcDbBlockEnd
  0
BLOCK
  5
1C
330
1B
100
AcDbEntity
 67
     1
  8
0
100
AcDbBlockBegin
  2
*PAPER_SPACE
  1

  0
ENDBLK
  5
1D
330
1B
100
AcDbEntity
 67
     1
  8
0
100
AcDbBlockEnd
  0
ENDSEC
  0
SECTION
  2
ENTITIES
  0
LWPOLYLINE
  5
100
100
AcDbEntity
  8
Layer_1
 62
7
100
AcDbPolyline
 90
41
 70
0
 10
21.685119
 20
33.091508
 30
0.0
 10
24.463245
 20
33.091508
 30
0.0
 10
27.241370
 20
33.091508
 30
0.0
 10
30.019495
 20
33.091508
 30
0.0
 10
32.797620
 20
33.091508
 30
0.0
 10
32.797620
 20
32.310162
 30
0.0
 10
32.797620
 20
31.528815
 30
0.0
 10
32.797620
 20
30.747466
 30
0.0
 10
32.797620
 20
29.966120
 30
0.0
 10
31.148107
 20
29.966120
 30
0.0
 10
29.498598
 20
29.966120
 30
0.0
 10
27.849086
 20
29.966120
 30
0.0
 10
26.199574
 20
29.966120
 30
0.0
 10
26.199574
 20
29.331120
 30
0.0
 10
26.199574
 20
28.696120
 30
0.0
 10
26.199574
 20
28.061120
 30
0.0
 10
26.199574
 20
27.426120
 30
0.0
 10
27.608481
 20
27.426120
 30
0.0
 10
29.017386
 20
27.426120
 30
0.0
 10
30.426293
 20
27.426120
 30
0.0
 10
31.835200
 20
27.426120
 30
0.0
 10
31.835200
 20
26.691902
 30
0.0
 10
31.835200
 20
25.957684
 30
0.0
 10
31.835200
 20
25.223463
 30
0.0
 10
31.835200
 20
24.489245
 30
0.0
 10
30.426293
 20
24.489245
 30
0.0
 10
29.017386
 20
24.489245
 30
0.0
 10
27.608481
 20
24.489245
 30
0.0
 10
26.199574
 20
24.489245
 30
0.0
 10
26.199574
 20
23.003444
 30
0.0
 10
26.199574
 20
21.517642
 30
0.0
 10
26.199574
 20
20.031841
 30
0.0
 10
26.199574
 20
18.546040
 30
0.0
 10
25.070960
 20
18.546040
 30
0.0
 10
23.942347
 20
18.546040
 30
0.0
 10
22.813733
 20
18.546040
 30
0.0
 10
21.685119
 20
18.546040
 30
0.0
 10
21.685119
 20
22.182408
 30
0.0
 10
21.685119
 20
25.818774
 30
0.0
 10
21.685119
 20
29.455140
 30
0.0
 10
21.685119
 20
33.091508
 30
0.0
  0
LWPOLYLINE
  5
101
100
AcDbEntity
  8
Layer_1
 62
7
100
AcDbPolyline
 90
77
 70
0
 10
44.703870
 20
33.091508
 30
0.0
 10
45.825043
 20
33.091508
 30
0.0
 10
46.946213
 20
33.091508
 30
0.0
 10
48.067386
 20
33.091508
 30
0.0
 10
49.188559
 20
33.091508
 30
0.0
 10
49.188559
 20
30.923578
 30
0.0
 10
49.188559
 20
28.755649
 30
0.0
 10
49.188559
 20
26.587719
 30
0.0
 10
49.188559
 20
24.419790
 30
0.0
 10
49.163131
 20
23.783548
 30
0.0
 10
49.086855
 20
23.164669
 30
0.0
 10
48.959733
 20
22.563157
 30
0.0
 10
48.781767
 20
21.979008
 30
0.0
 10
48.554177
 20
21.425864
 30
0.0
 10
48.268300
 20
20.907444
 30
0.0
 10
47.924139
 20
20.423755
 30
0.0
 10
47.521690
 20
19.974790
 30
0.0
 10
47.089461
 20
19.579775
 30
0.0
 10
46.646073
 20
19.248014
 30
0.0
 10
46.191531
 20
18.979502
 30
0.0
 10
45.725831
 20
18.774245
 30
0.0
 10
45.038114
 20
18.561545
 30
0.0
 10
44.284671
 20
18.409614
 30
0.0
 10
43.465499
 20
18.318459
 30
0.0
 10
42.580597
 20
18.288072
 30
0.0
 10
42.037370
 20
18.297385
 30
0.0
 10
41.469338
 20
18.325297
 30
0.0
 10
40.876508
 20
18.371804
 30
0.0
 10
40.258876
 20
18.436916
 30
0.0
 10
39.659221
 20
18.529315
 30
0.0
 10
39.110415
 20
18.657679
 30
0.0
 10
38.612462
 20
18.822008
 30
0.0
 10
38.165360
 20
19.022307
 30
0.0
 10
37.752359
 20
19.268495
 30
0.0
 10
37.356725
 20
19.560570
 30
0.0
 10
36.978455
 20
19.898533
 30
0.0
 10
36.617549
 20
20.282387
 30
0.0
 10
36.297568
 20
20.692281
 30
0.0
 10
36.032158
 20
21.108381
 30
0.0
 10
35.821318
 20
21.530681
 30
0.0
 10
35.665049
 20
21.959182
 30
0.0
 10
35.482733
 20
22.633868
 30
0.0
 10
35.352507
 20
23.268865
 30
0.0
 10
35.274374
 20
23.864179
 30
0.0
 10
35.248325
 20
24.419807
 30
0.0
 10
35.248325
 20
26.587736
 30
0.0
 10
35.248325
 20
28.755666
 30
0.0
 10
35.248325
 20
30.923595
 30
0.0
 10
35.248325
 20
33.091525
 30
0.0
 10
36.369495
 20
33.091525
 30
0.0
 10
37.490668
 20
33.091525
 30
0.0
 10
38.611838
 20
33.091525
 30
0.0
 10
39.733011
 20
33.091525
 30
0.0
 10
39.733011
 20
30.871506
 30
0.0
 10
39.733011
 20
28.651486
 30
0.0
 10
39.733011
 20
26.431467
 30
0.0
 10
39.733011
 20
24.211448
 30
0.0
 10
39.773936
 20
23.648378
 30
0.0
 10
39.896717
 20
23.149804
 30
0.0
 10
40.101356
 20
22.715724
 30
0.0
 10
40.387854
 20
22.346137
 30
0.0
 10
40.751859
 20
22.055298
 30
0.0
 10
41.179118
 20
21.847560
 30
0.0
 10
41.669634
 20
21.722917
 30
0.0
 10
42.223402
 20
21.681371
 30
0.0
 10
42.772200
 20
21.722299
 30
0.0
 10
43.257749
 20
21.845079
 30
0.0
 10
43.680053
 20
22.049719
 30
0.0
 10
44.039104
 20
22.336214
 30
0.0
 10
44.329937
 20
22.702699
 30
0.0
 10
44.537672
 20
23.137400
 30
0.0
 10
44.662316
 20
23.640318
 30
0.0
 10
44.703870
 20
24.211448
 30
0.0
 10
44.703870
 20
26.431467
 30
0.0
 10
44.703870
 20
28.651486
 30
0.0
 10
44.703870
 20
30.871506
 30
0.0
 10
44.703870
 20
33.091525
 30
0.0
  0
LWPOLYLINE
  5
102
100
AcDbEntity
  8
Layer_1
 62
7
100
AcDbPolyline
 90
85
 70
0
 10
61.868716
 20
24.489245
 30
0.0
 10
62.853463
 20
24.191588
 30
0.0
 10
63.838207
 20
23.893934
 30
0.0
 10
64.822953
 20
23.596277
 30
0.0
 10
65.807700
 20
23.298620
 30
0.0
 10
65.580728
 20
22.504246
 30
0.0
 10
65.296711
 20
21.778088
 30
0.0
 10
64.955649
 20
21.120144
 30
0.0
 10
64.557543
 20
20.530415
 30
0.0
 10
64.104850
 20
20.008896
 30
0.0
 10
63.600073
 20
19.555591
 30
0.0
 10
63.043209
 20
19.170499
 30
0.0
 10
62.434261
 20
18.853620
 30
0.0
 10
61.760808
 20
18.606193
 30
0.0
 10
61.000544
 20
18.429460
 30
0.0
 10
60.153465
 20
18.323417
 30
0.0
 10
59.219575
 20
18.288072
 30
0.0
 10
58.087855
 20
18.330860
 30
0.0
 10
57.064041
 20
18.459223
 30
0.0
 10
56.148131
 20
18.673164
 30
0.0
 10
55.340120
 20
18.972681
 30
0.0
 10
54.616443
 20
19.385058
 30
0.0
 10
53.943614
 20
19.927659
 30
0.0
 10
53.321639
 20
20.600488
 30
0.0
 10
52.750511
 20
21.403540
 30
0.0
 10
52.273022
 20
22.332474
 30
0.0
 10
51.931957
 20
23.382951
 30
0.0
 10
51.727317
 20
24.554972
 30
0.0
 10
51.659104
 20
25.848540
 30
0.0
 10
51.778786
 20
27.549516
 30
0.0
 10
52.137835
 20
29.040897
 30
0.0
 10
52.736248
 20
30.322679
 30
0.0
 10
53.574027
 20
31.394870
 30
0.0
 10
54.635665
 20
32.245663
 30
0.0
 10
55.895742
 20
32.853375
 30
0.0
 10
57.354258
 20
33.218006
 30
0.0
 10
59.011216
 20
33.339556
 30
0.0
 10
60.311594
 20
33.270095
 30
0.0
 10
61.464390
 20
33.061734
 30
0.0
 10
62.469601
 20
32.714470
 30
0.0
 10
63.327229
 20
32.228306
 30
0.0
 10
64.065161
 20
31.598259
 30
0.0
 10
64.701400
 20
30.819390
 30
0.0
 10
65.235943
 20
29.891698
 30
0.0
 10
65.668793
 20
28.815181
 30
0.0
 10
64.676604
 20
28.594418
 30
0.0
 10
63.684418
 20
28.373658
 30
0.0
 10
62.692229
 20
28.152896
 30
0.0
 10
61.700043
 20
27.932133
 30
0.0
 10
61.594616
 20
28.242185
 30
0.0
 10
61.486714
 20
28.507595
 30
0.0
 10
61.376334
 20
28.728361
 30
0.0
 10
61.263479
 20
28.904479
 30
0.0
 10
61.064417
 20
29.147560
 30
0.0
 10
60.844272
 20
29.360877
 30
0.0
 10
60.603048
 20
29.544435
 30
0.0
 10
60.340745
 20
29.698229
 30
0.0
 10
60.059827
 20
29.819765
 30
0.0
 10
59.762791
 20
29.906579
 30
0.0
 10
59.449631
 20
29.958669
 30
0.0
 10
59.120354
 20
29.976054
 30
0.0
 10
58.401015
 20
29.899154
 30
0.0
 10
57.770974
 20
29.668469
 30
0.0
 10
57.230233
 20
29.283997
 30
0.0
 10
56.778793
 20
28.745743
 30
0.0
 10
56.509658
 20
28.224219
 30
0.0
 10
56.317422
 20
27.572475
 30
0.0
 10
56.202080
 20
26.790507
 30
0.0
 10
56.163636
 20
25.878320
 30
0.0
 10
56.209528
 20
24.762727
 30
0.0
 10
56.347191
 20
23.836891
 30
0.0
 10
56.576632
 20
23.100813
 30
0.0
 10
56.897854
 20
22.554493
 30
0.0
 10
57.302169
 20
22.163816
 30
0.0
 10
57.780896
 20
21.884763
 30
0.0
 10
58.334041
 20
21.717332
 30
0.0
 10
58.961604
 20
21.661522
 30
0.0
 10
59.566835
 20
21.706791
 30
0.0
 10
60.092692
 20
21.842596
 30
0.0
 10
60.539178
 20
22.068938
 30
0.0
 10
60.906293
 20
22.385820
 30
0.0
 10
61.215724
 20
22.788893
 30
0.0
 10
61.479272
 20
23.273824
 30
0.0
 10
61.696936
 20
23.840613
 30
0.0
 10
61.868716
 20
24.489259
 30
0.0
  0
LWPOLYLINE
  5
103
100
AcDbEntity
  8
Layer_1
 62
7
100
AcDbPolyline
 90
49
 70
0
 10
68.000434
 20
33.091508
 30
0.0
 10
69.124085
 20
33.091508
 30
0.0
 10
70.247739
 20
33.091508
 30
0.0
 10
71.371389
 20
33.091508
 30
0.0
 10
72.495043
 20
33.091508
 30
0.0
 10
72.495043
 20
31.717328
 30
0.0
 10
72.495043
 20
30.343149
 30
0.0
 10
72.495043
 20
28.968969
 30
0.0
 10
72.495043
 20
27.594790
 30
0.0
 10
73.673267
 20
28.968969
 30
0.0
 10
74.851489
 20
30.343149
 30
0.0
 10
76.029710
 20
31.717328
 30
0.0
 10
77.207934
 20
33.091508
 30
0.0
 10
78.701175
 20
33.091508
 30
0.0
 10
80.194418
 20
33.091508
 30
0.0
 10
81.687662
 20
33.091508
 30
0.0
 10
83.180902
 20
33.091508
 30
0.0
 10
81.856332
 20
31.719809
 30
0.0
 10
80.531761
 20
30.348110
 30
0.0
 10
79.207191
 20
28.976412
 30
0.0
 10
77.882620
 20
27.604713
 30
0.0
 10
79.266723
 20
25.340043
 30
0.0
 10
80.650822
 20
23.075376
 30
0.0
 10
82.034925
 20
20.810707
 30
0.0
 10
83.419027
 20
18.546040
 30
0.0
 10
82.034925
 20
18.546040
 30
0.0
 10
80.650822
 20
18.546040
 30
0.0
 10
79.266723
 20
18.546040
 30
0.0
 10
77.882620
 20
18.546040
 30
0.0
 10
77.116155
 20
20.041761
 30
0.0
 10
76.349691
 20
21.537485
 30
0.0
 10
75.583226
 20
23.033207
 30
0.0
 10
74.816761
 20
24.528931
 30
0.0
 10
74.236332
 20
23.921216
 30
0.0
 10
73.655902
 20
23.313501
 30
0.0
 10
73.075473
 20
22.705787
 30
0.0
 10
72.495043
 20
22.098072
 30
0.0
 10
72.495043
 20
21.210062
 30
0.0
 10
72.495043
 20
20.322056
 30
0.0
 10
72.495043
 20
19.434047
 30
0.0
 10
72.495043
 20
18.546040
 30
0.0
 10
71.371392
 20
18.546040
 30
0.0
 10
70.247739
 20
18.546040
 30
0.0
 10
69.124085
 20
18.546040
 30
0.0
 10
68.000434
 20
18.546040
 30
0.0
 10
68.000434
 20
22.182406
 30
0.0
 10
68.000434
 20
25.818774
 30
0.0
 10
68.000434
 20
29.455140
 30
0.0
 10
68.000434
 20
33.091508
 30
0.0
  0
LWPOLYLINE
  5
104
100
AcDbEntity
  8
Layer_1
 62
7
100
AcDbPolyline
 90
117
 70
0
 10
0.668857
 20
7.102152
 30
0.0
 10
1.737939
 20
7.169123
 30
0.0
 10
2.807021
 20
7.236094
 30
0.0
 10
3.876103
 20
7.303066
 30
0.0
 10
4.945185
 20
7.370037
 30
0.0
 10
5.032618
 20
6.880156
 30
0.0
 10
5.156021
 20
6.452279
 30
0.0
 10
5.315392
 20
6.086406
 30
0.0
 10
5.510732
 20
5.782537
 30
0.0
 10
5.895201
 20
5.396203
 30
0.0
 10
6.354086
 20
5.120246
 30
0.0
 10
6.887388
 20
4.954695
 30
0.0
 10
7.495107
 20
4.899492
 30
0.0
 10
7.948408
 20
4.927432
 30
0.0
 10
8.345901
 20
5.011139
 30
0.0
 10
8.687587
 20
5.150670
 30
0.0
 10
8.973466
 20
5.345996
 30
0.0
 10
9.203524
 20
5.582865
 30
0.0
 10
9.367854
 20
5.837119
 30
0.0
 10
9.466454
 20
6.108730
 30
0.0
 10
9.499325
 20
6.397725
 30
0.0
 10
9.468314
 20
6.673061
 30
0.0
 10
9.375295
 20
6.933496
 30
0.0
 10
9.220267
 20
7.179057
 30
0.0
 10
9.003232
 20
7.409746
 30
0.0
 10
8.673325
 20
7.629879
 30
0.0
 10
8.179710
 20
7.843832
 30
0.0
 10
7.522387
 20
8.051576
 30
0.0
 10
6.701357
 20
8.253110
 30
0.0
 10
5.329035
 20
8.612774
 30
0.0
 10
4.168795
 20
9.027020
 30
0.0
 10
3.220637
 20
9.495820
 30
0.0
 10
2.484560
 20
10.019201
 30
0.0
 10
1.928934
 20
10.607690
 30
0.0
 10
1.532059
 20
11.271844
 30
0.0
 10
1.293934
 20
12.011633
 30
0.0
 10
1.214560
 20
12.827086
 30
0.0
 10
1.254868
 20
13.379592
 30
0.0
 10
1.375790
 20
13.916012
 30
0.0
 10
1.577328
 20
14.436289
 30
0.0
 10
1.859482
 20
14.940459
 30
0.0
 10
2.227210
 20
15.414220
 30
0.0
 10
2.675554
 20
15.833419
 30
0.0
 10
3.204514
 20
16.198050
 30
0.0
 10
3.814091
 20
16.508116
 30
0.0
 10
4.529083
 20
16.759875
 30
0.0
 10
5.364380
 20
16.939707
 30
0.0
 10
6.319981
 20
17.047609
 30
0.0
 10
7.395888
 20
17.083584
 30
0.0
 10
8.706810
 20
17.018464
 30
0.0
 10
9.851545
 20
16.823124
 30
0.0
 10
10.830091
 20
16.497564
 30
0.0
 10
11.642450
 20
16.041786
 30
0.0
 10
12.302248
 20
15.448947
 30
0.0
 10
12.813222
 20
14.702312
 30
0.0
 10
13.175373
 20
13.801910
 30
0.0
 10
13.388700
 20
12.747725
 30
0.0
 10
12.329540
 20
12.685721
 30
0.0
 10
11.270380
 20
12.623717
 30
0.0
 10
10.211220
 20
12.561684
 30
0.0
 10
9.152060
 20
12.499680
 30
0.0
 10
9.044154
 20
12.957332
 30
0.0
 10
8.889123
 20
13.348012
 30
0.0
 10
8.686967
 20
13.671692
 30
0.0
 10
8.437685
 20
13.928430
 30
0.0
 10
8.143745
 20
14.123756
 30
0.0
 10
7.797718
 20
14.263287
 30
0.0
 10
7.399604
 20
14.346994
 30
0.0
 10
6.949404
 20
14.374934
 30
0.0
 10
6.581671
 20
14.353767
 30
0.0
 10
6.262309
 20
14.290521
 30
0.0
 10
5.991319
 20
14.185083
 30
0.0
 10
5.768700
 20
14.037509
 30
0.0
 10
5.595065
 20
13.864478
 30
0.0
 10
5.471040
 20
13.672878
 30
0.0
 10
5.396627
 20
13.462650
 30
0.0
 10
5.371825
 20
13.233853
 30
0.0
 10
5.392287
 20
13.064548
 30
0.0
 10
5.453677
 20
12.903935
 30
0.0
 10
5.555997
 20
12.751987
 30
0.0
 10
5.699247
 20
12.608759
 30
0.0
 10
5.912564
 20
12.467366
 30
0.0
 10
6.235024
 20
12.330939
 30
0.0
 10
6.666627
 20
12.199480
 30
0.0
 10
7.207372
 20
12.072988
 30
0.0
 10
8.575966
 20
11.754246
 30
0.0
 10
9.734963
 20
11.433021
 30
0.0
 10
10.684364
 20
11.109312
 30
0.0
 10
11.424170
 20
10.783148
 30
0.0
 10
12.020095
 20
10.440841
 30
0.0
 10
12.527969
 20
10.058853
 30
0.0
 10
12.947790
 20
9.637156
 30
0.0
 10
13.279560
 20
9.175780
 30
0.0
 10
13.535661
 20
8.680310
 30
0.0
 10
13.718593
 20
8.156308
 30
0.0
 10
13.828356
 20
7.603774
 30
0.0
 10
13.864951
 20
7.022734
 30
0.0
 10
13.816574
 20
6.336878
 30
0.0
 10
13.671464
 20
5.678341
 30
0.0
 10
13.429621
 20
5.047038
 30
0.0
 10
13.091045
 20
4.443054
 30
0.0
 10
12.665637
 20
3.888036
 30
0.0
 10
12.163340
 20
3.403742
 30
0.0
 10
11.584153
 20
2.990118
 30
0.0
 10
10.928076
 20
2.647189
 30
0.0
 10
10.188270
 20
2.382408
 30
0.0
 10
9.357932
 20
2.193263
 30
0.0
 10
8.437060
 20
2.079782
 30
0.0
 10
7.425654
 20
2.041964
 30
0.0
 10
5.712888
 20
2.131259
 30
0.0
 10
4.285377
 20
2.399144
 30
0.0
 10
3.143122
 20
2.845648
 30
0.0
 10
2.286123
 20
3.470714
 30
0.0
 10
1.649262
 20
4.233448
 30
0.0
 10
1.167431
 20
5.092955
 30
0.0
 10
0.840629
 20
6.049181
 30
0.0
 10
0.668857
 20
7.102124
 30
0.0
  0
LWPOLYLINE
  5
105
100
AcDbEntity
  8
Layer_1
 62
7
100
AcDbPolyline
 90
77
 70
0
 10
25.602529
 20
16.835508
 30
0.0
 10
26.723701
 20
16.835508
 30
0.0
 10
27.844873
 20
16.835508
 30
0.0
 10
28.966044
 20
16.835508
 30
0.0
 10
30.087217
 20
16.835508
 30
0.0
 10
30.087217
 20
14.667570
 30
0.0
 10
30.087217
 20
12.499652
 30
0.0
 10
30.087217
 20
10.331705
 30
0.0
 10
30.087217
 20
8.163787
 30
0.0
 10
30.061789
 20
7.527545
 30
0.0
 10
29.985510
 20
6.908660
 30
0.0
 10
29.858389
 20
6.307160
 30
0.0
 10
29.680425
 20
5.723016
 30
0.0
 10
29.452835
 20
5.169861
 30
0.0
 10
29.166958
 20
4.651447
 30
0.0
 10
28.822797
 20
4.167746
 30
0.0
 10
28.420348
 20
3.718787
 30
0.0
 10
27.988118
 20
3.323789
 30
0.0
 10
27.544732
 20
2.992008
 30
0.0
 10
27.090188
 20
2.723502
 30
0.0
 10
26.624487
 20
2.518242
 30
0.0
 10
25.936771
 20
2.305531
 30
0.0
 10
25.183327
 20
2.153611
 30
0.0
 10
24.364154
 20
2.062453
 30
0.0
 10
23.479253
 20
2.032058
 30
0.0
 10
22.936026
 20
2.041371
 30
0.0
 10
22.367997
 20
2.069311
 30
0.0
 10
21.775167
 20
2.115850
 30
0.0
 10
21.157534
 20
2.180958
 30
0.0
 10
20.557878
 20
2.273358
 30
0.0
 10
20.009073
 20
2.401712
 30
0.0
 10
19.511120
 20
2.566050
 30
0.0
 10
19.064019
 20
2.766344
 30
0.0
 10
18.651018
 20
3.012526
 30
0.0
 10
18.255383
 20
3.304598
 30
0.0
 10
17.877112
 20
3.642587
 30
0.0
 10
17.516206
 20
4.026438
 30
0.0
 10
17.196224
 20
4.436337
 30
0.0
 10
16.930814
 20
4.852417
 30
0.0
 10
16.719974
 20
5.274735
 30
0.0
 10
16.563706
 20
5.703233
 30
0.0
 10
16.381391
 20
6.377913
 30
0.0
 10
16.251166
 20
7.012913
 30
0.0
 10
16.173032
 20
7.608204
 30
0.0
 10
16.146988
 20
8.163844
 30
0.0
 10
16.146988
 20
10.331762
 30
0.0
 10
16.146988
 20
12.499708
 30
0.0
 10
16.146988
 20
14.667626
 30
0.0
 10
16.146988
 20
16.835564
 30
0.0
 10
17.268160
 20
16.835564
 30
0.0
 10
18.389332
 20
16.835564
 30
0.0
 10
19.510504
 20
16.835564
 30
0.0
 10
20.631676
 20
16.835564
 30
0.0
 10
20.631676
 20
14.615556
 30
0.0
 10
20.631676
 20
12.395512
 30
0.0
 10
20.631676
 20
10.175495
 30
0.0
 10
20.631676
 20
7.955479
 30
0.0
 10
20.672601
 20
7.392417
 30
0.0
 10
20.795382
 20
6.893844
 30
0.0
 10
21.000022
 20
6.459758
 30
0.0
 10
21.286519
 20
6.090188
 30
0.0
 10
21.650524
 20
5.799329
 30
0.0
 10
22.077783
 20
5.591586
 30
0.0
 10
22.568297
 20
5.466956
 30
0.0
 10
23.122066
 20
5.425413
 30
0.0
 10
23.670865
 20
5.466335
 30
0.0
 10
24.156415
 20
5.589130
 30
0.0
 10
24.578716
 20
5.793770
 30
0.0
 10
24.937769
 20
6.080253
 30
0.0
 10
25.228601
 20
6.446747
 30
0.0
 10
25.436338
 20
6.881426
 30
0.0
 10
25.560982
 20
7.384346
 30
0.0
 10
25.602535
 20
7.955479
 30
0.0
 10
25.602535
 20
10.175495
 30
0.0
 10
25.602535
 20
12.395512
 30
0.0
 10
25.602535
 20
14.615556
 30
0.0
 10
25.602535
 20
16.835564
 30
0.0
  0
LWPOLYLINE
  5
106
100
AcDbEntity
  8
Layer_1
 62
7
100
AcDbPolyline
 90
77
 70
0
 10
33.143153
 20
2.290037
 30
0.0
 10
33.143153
 20
5.926414
 30
0.0
 10
33.143153
 20
9.562763
 30
0.0
 10
33.143153
 20
13.199140
 30
0.0
 10
33.143153
 20
16.835508
 30
0.0
 10
35.015907
 20
16.835508
 30
0.0
 10
36.888660
 20
16.835508
 30
0.0
 10
38.761416
 20
16.835508
 30
0.0
 10
40.634169
 20
16.835508
 30
0.0
 10
41.614570
 20
16.813184
 30
0.0
 10
42.472189
 20
16.746210
 30
0.0
 10
43.207028
 20
16.634591
 30
0.0
 10
43.819092
 20
16.478330
 30
0.0
 10
44.343083
 20
16.261282
 30
0.0
 10
44.813748
 20
15.967344
 30
0.0
 10
45.231090
 20
15.596516
 30
0.0
 10
45.595105
 20
15.148798
 30
0.0
 10
45.890273
 20
14.640908
 30
0.0
 10
46.101110
 20
14.079710
 30
0.0
 10
46.227619
 20
13.465171
 30
0.0
 10
46.269794
 20
12.797320
 30
0.0
 10
46.237539
 20
12.212556
 30
0.0
 10
46.140799
 20
11.668685
 30
0.0
 10
45.979571
 20
11.165765
 30
0.0
 10
45.753855
 20
10.703796
 30
0.0
 10
45.471695
 20
10.287687
 30
0.0
 10
45.141171
 20
9.912529
 30
0.0
 10
44.762282
 20
9.578293
 30
0.0
 10
44.335028
 20
9.284980
 30
0.0
 10
44.020621
 20
9.118779
 30
0.0
 10
43.652889
 20
8.967452
 30
0.0
 10
43.231833
 20
8.831025
 30
0.0
 10
42.757451
 20
8.709500
 30
0.0
 10
43.131994
 20
8.575558
 30
0.0
 10
43.451972
 20
8.441615
 30
0.0
 10
43.717385
 20
8.307672
 30
0.0
 10
43.928230
 20
8.173730
 30
0.0
 10
44.065890
 20
8.059006
 30
0.0
 10
44.230840
 20
7.893427
 30
0.0
 10
44.423079
 20
7.676990
 30
0.0
 10
44.642605
 20
7.409726
 30
0.0
 10
44.860879
 20
7.133769
 30
0.0
 10
45.039472
 20
6.891312
 30
0.0
 10
45.178379
 20
6.682326
 30
0.0
 10
45.277605
 20
6.506841
 30
0.0
 10
45.820827
 20
5.452628
 30
0.0
 10
46.364051
 20
4.398443
 30
0.0
 10
46.907272
 20
3.344230
 30
0.0
 10
47.450496
 20
2.290046
 30
0.0
 10
46.180496
 20
2.290046
 30
0.0
 10
44.910496
 20
2.290046
 30
0.0
 10
43.640496
 20
2.290046
 30
0.0
 10
42.370496
 20
2.290046
 30
0.0
 10
41.770224
 20
3.401296
 30
0.0
 10
41.169948
 20
4.512546
 30
0.0
 10
40.569676
 20
5.623796
 30
0.0
 10
39.969403
 20
6.735046
 30
0.0
 10
39.747396
 20
7.128830
 30
0.0
 10
39.537795
 20
7.446951
 30
0.0
 10
39.340601
 20
7.689408
 30
0.0
 10
39.155810
 20
7.856230
 30
0.0
 10
38.904658
 20
8.003804
 30
0.0
 10
38.637388
 20
8.109214
 30
0.0
 10
38.353994
 20
8.172488
 30
0.0
 10
38.054480
 20
8.193655
 30
0.0
 10
37.955262
 20
8.193655
 30
0.0
 10
37.856041
 20
8.193655
 30
0.0
 10
37.756823
 20
8.193655
 30
0.0
 10
37.657605
 20
8.193655
 30
0.0
 10
37.657605
 20
6.717774
 30
0.0
 10
37.657605
 20
5.241892
 30
0.0
 10
37.657605
 20
3.766011
 30
0.0
 10
37.657605
 20
2.290130
 30
0.0
 10
36.528993
 20
2.290130
 30
0.0
 10
35.400378
 20
2.290130
 30
0.0
 10
34.271766
 20
2.290130
 30
0.0
 10
33.143153
 20
2.290130
 30
0.0
  0
LWPOLYLINE
  5
107
100
AcDbEntity
  8
Layer_1
 62
7
100
AcDbPolyline
 90
33
 70
0
 10
37.657605
 20
10.942019
 30
0.0
 10
38.131375
 20
10.942019
 30
0.0
 10
38.605144
 20
10.942019
 30
0.0
 10
39.078916
 20
10.942019
 30
0.0
 10
39.552685
 20
10.942019
 30
0.0
 10
39.742435
 20
10.954437
 30
0.0
 10
40.004122
 20
10.991634
 30
0.0
 10
40.337748
 20
11.053666
 30
0.0
 10
40.743310
 20
11.140478
 30
0.0
 10
40.956004
 20
11.202482
 30
0.0
 10
41.147619
 20
11.299228
 30
0.0
 10
41.318152
 20
11.430687
 30
0.0
 10
41.467605
 20
11.596888
 30
0.0
 10
41.593485
 20
11.787247
 30
0.0
 10
41.683401
 20
11.991265
 30
0.0
 10
41.737353
 20
12.208943
 30
0.0
 10
41.755331
 20
12.440252
 30
0.0
 10
41.727419
 20
12.772005
 30
0.0
 10
41.643701
 20
13.062835
 30
0.0
 10
41.504176
 20
13.312742
 30
0.0
 10
41.308844
 20
13.521728
 30
0.0
 10
41.036607
 20
13.686687
 30
0.0
 10
40.666396
 20
13.804486
 30
0.0
 10
40.198212
 20
13.875183
 30
0.0
 10
39.632049
 20
13.898890
 30
0.0
 10
39.138434
 20
13.898890
 30
0.0
 10
38.644822
 20
13.898890
 30
0.0
 10
38.151206
 20
13.898890
 30
0.0
 10
37.657594
 20
13.898890
 30
0.0
 10
37.657594
 20
13.159722
 30
0.0
 10
37.657594
 20
12.420525
 30
0.0
 10
37.657594
 20
11.681357
 30
0.0
 10
37.657594
 20
10.942189
 30
0.0
  0
LWPOLYLINE
  5
108
100
AcDbEntity
  8
Layer_1
 62
7
100
AcDbPolyline
 90
29
 70
0
 10
47.103230
 20
16.835508
 30
0.0
 10
48.278974
 20
16.835508
 30
0.0
 10
49.454714
 20
16.835508
 30
0.0
 10
50.630458
 20
16.835508
 30
0.0
 10
51.806201
 20
16.835508
 30
0.0
 10
52.624756
 20
14.218611
 30
0.0
 10
53.443310
 20
11.601705
 30
0.0
 10
54.261865
 20
8.984828
 30
0.0
 10
55.080419
 20
6.367922
 30
0.0
 10
55.886570
 20
8.984828
 30
0.0
 10
56.692724
 20
11.601705
 30
0.0
 10
57.498875
 20
14.218611
 30
0.0
 10
58.305028
 20
16.835508
 30
0.0
 10
59.446044
 20
16.835508
 30
0.0
 10
60.587060
 20
16.835508
 30
0.0
 10
61.728076
 20
16.835508
 30
0.0
 10
62.869092
 20
16.835508
 30
0.0
 10
61.519717
 20
13.199140
 30
0.0
 10
60.170342
 20
9.562763
 30
0.0
 10
58.820967
 20
5.926414
 30
0.0
 10
57.471592
 20
2.290037
 30
0.0
 10
56.253682
 20
2.290037
 30
0.0
 10
55.035772
 20
2.290037
 30
0.0
 10
53.817861
 20
2.290037
 30
0.0
 10
52.599951
 20
2.290037
 30
0.0
 10
51.225772
 20
5.926414
 30
0.0
 10
49.851589
 20
9.562763
 30
0.0
 10
48.477410
 20
13.199140
 30
0.0
 10
47.103230
 20
16.835508
 30
0.0
  0
LWPOLYLINE
  5
109
100
AcDbEntity
  8
Layer_1
 62
7
100
AcDbPolyline
 90
49
 70
0
 10
64.347451
 20
16.835508
 30
0.0
 10
67.358740
 20
16.835508
 30
0.0
 10
70.370028
 20
16.835508
 30
0.0
 10
73.381317
 20
16.835508
 30
0.0
 10
76.392605
 20
16.835508
 30
0.0
 10
76.392605
 20
16.059123
 30
0.0
 10
76.392605
 20
15.282738
 30
0.0
 10
76.392605
 20
14.506365
 30
0.0
 10
76.392605
 20
13.729971
 30
0.0
 10
74.507448
 20
13.729971
 30
0.0
 10
72.622291
 20
13.729971
 30
0.0
 10
70.737137
 20
13.729971
 30
0.0
 10
68.851980
 20
13.729971
 30
0.0
 10
68.851980
 20
13.152008
 30
0.0
 10
68.851980
 20
12.574074
 30
0.0
 10
68.851980
 20
11.996111
 30
0.0
 10
68.851980
 20
11.418176
 30
0.0
 10
70.600711
 20
11.418176
 30
0.0
 10
72.349442
 20
11.418176
 30
0.0
 10
74.098173
 20
11.418176
 30
0.0
 10
75.846903
 20
11.418176
 30
0.0
 10
75.846903
 20
10.676496
 30
0.0
 10
75.846903
 20
9.934844
 30
0.0
 10
75.846903
 20
9.193164
 30
0.0
 10
75.846903
 20
8.451513
 30
0.0
 10
74.098173
 20
8.451513
 30
0.0
 10
72.349442
 20
8.451513
 30
0.0
 10
70.600711
 20
8.451513
 30
0.0
 10
68.851980
 20
8.451513
 30
0.0
 10
68.851980
 20
7.734668
 30
0.0
 10
68.851980
 20
7.017796
 30
0.0
 10
68.851980
 20
6.300951
 30
0.0
 10
68.851980
 20
5.584107
 30
0.0
 10
70.791708
 20
5.584107
 30
0.0
 10
72.731435
 20
5.584107
 30
0.0
 10
74.671160
 20
5.584107
 30
0.0
 10
76.610887
 20
5.584107
 30
0.0
 10
76.610887
 20
4.760582
 30
0.0
 10
76.610887
 20
3.937058
 30
0.0
 10
76.610887
 20
3.113562
 30
0.0
 10
76.610887
 20
2.290037
 30
0.0
 10
73.545028
 20
2.290037
 30
0.0
 10
70.479169
 20
2.290037
 30
0.0
 10
67.413310
 20
2.290037
 30
0.0
 10
64.347451
 20
2.290037
 30
0.0
 10
64.347451
 20
5.926414
 30
0.0
 10
64.347451
 20
9.562763
 30
0.0
 10
64.347451
 20
13.199140
 30
0.0
 10
64.347451
 20
16.835508
 30
0.0
  0
LWPOLYLINE
  5
10a
100
AcDbEntity
  8
Layer_1
 62
7
100
AcDbPolyline
 90
17
 70
0
 10
79.220342
 20
16.835508
 30
0.0
 10
80.346474
 20
16.835508
 30
0.0
 10
81.472605
 20
16.835508
 30
0.0
 10
82.598740
 20
16.835508
 30
0.0
 10
83.724871
 20
16.835508
 30
0.0
 10
83.724871
 20
13.199140
 30
0.0
 10
83.724871
 20
9.562763
 30
0.0
 10
83.724871
 20
5.926414
 30
0.0
 10
83.724871
 20
2.290037
 30
0.0
 10
82.598740
 20
2.290037
 30
0.0
 10
81.472605
 20
2.290037
 30
0.0
 10
80.346474
 20
2.290037
 30
0.0
 10
79.220342
 20
2.290037
 30
0.0
 10
79.220342
 20
5.926414
 30
0.0
 10
79.220342
 20
9.562763
 30
0.0
 10
79.220342
 20
13.199140
 30
0.0
 10
79.220342
 20
16.835508
 30
0.0
  0
LWPOLYLINE
  5
10b
100
AcDbEntity
  8
Layer_1
 62
7
100
AcDbPolyline
 90
25
 70
0
 10
86.939560
 20
16.835508
 30
0.0
 10
88.063211
 20
16.835508
 30
0.0
 10
89.186865
 20
16.835508
 30
0.0
 10
90.310516
 20
16.835508
 30
0.0
 10
91.434169
 20
16.835508
 30
0.0
 10
91.434169
 20
14.094602
 30
0.0
 10
91.434169
 20
11.353660
 30
0.0
 10
91.434169
 20
8.612746
 30
0.0
 10
91.434169
 20
5.871832
 30
0.0
 10
93.187861
 20
5.871832
 30
0.0
 10
94.941551
 20
5.871832
 30
0.0
 10
96.695243
 20
5.871832
 30
0.0
 10
98.448935
 20
5.871832
 30
0.0
 10
98.448935
 20
4.976369
 30
0.0
 10
98.448935
 20
4.080935
 30
0.0
 10
98.448935
 20
3.185472
 30
0.0
 10
98.448935
 20
2.290037
 30
0.0
 10
95.571592
 20
2.290037
 30
0.0
 10
92.694246
 20
2.290037
 30
0.0
 10
89.816903
 20
2.290037
 30
0.0
 10
86.939560
 20
2.290037
 30
0.0
 10
86.939560
 20
5.926414
 30
0.0
 10
86.939560
 20
9.562763
 30
0.0
 10
86.939560
 20
13.199140
 30
0.0
 10
86.939560
 20
16.835508
 30
0.0
  0
LWPOLYLINE
  5
10c
100
AcDbEntity
  8
Layer_1
 62
7
100
AcDbPolyline
 90
25
 70
0
 10
100.512685
 20
16.835508
 30
0.0
 10
101.636336
 20
16.835508
 30
0.0
 10
102.759990
 20
16.835508
 30
0.0
 10
103.883641
 20
16.835508
 30
0.0
 10
105.007294
 20
16.835508
 30
0.0
 10
105.007294
 20
14.094602
 30
0.0
 10
105.007294
 20
11.353660
 30
0.0
 10
105.007294
 20
8.612746
 30
0.0
 10
105.007294
 20
5.871832
 30
0.0
 10
106.760986
 20
5.871832
 30
0.0
 10
108.514676
 20
5.871832
 30
0.0
 10
110.268368
 20
5.871832
 30
0.0
 10
112.022060
 20
5.871832
 30
0.0
 10
112.022060
 20
4.976369
 30
0.0
 10
112.022060
 20
4.080935
 30
0.0
 10
112.022060
 20
3.185472
 30
0.0
 10
112.022060
 20
2.290037
 30
0.0
 10
109.144717
 20
2.290037
 30
0.0
 10
106.267371
 20
2.290037
 30
0.0
 10
103.390028
 20
2.290037
 30
0.0
 10
100.512685
 20
2.290037
 30
0.0
 10
100.512685
 20
5.926414
 30
0.0
 10
100.512685
 20
9.562763
 30
0.0
 10
100.512685
 20
13.199140
 30
0.0
 10
100.512685
 20
16.835508
 30
0.0
  0
LWPOLYLINE
  5
10d
100
AcDbEntity
  8
Layer_1
 62
7
100
AcDbPolyline
 90
33
 70
0
 10
123.035342
 20
4.691127
 30
0.0
 10
121.755419
 20
4.691127
 30
0.0
 10
120.475496
 20
4.691127
 30
0.0
 10
119.195576
 20
4.691127
 30
0.0
 10
117.915653
 20
4.691127
 30
0.0
 10
117.739541
 20
4.090841
 30
0.0
 10
117.563429
 20
3.490582
 30
0.0
 10
117.387314
 20
2.890296
 30
0.0
 10
117.211201
 20
2.290037
 30
0.0
 10
116.062743
 20
2.290037
 30
0.0
 10
114.914285
 20
2.290037
 30
0.0
 10
113.765830
 20
2.290037
 30
0.0
 10
112.617371
 20
2.290037
 30
0.0
 10
113.984111
 20
5.926414
 30
0.0
 10
115.350849
 20
9.562763
 30
0.0
 10
116.717586
 20
13.199140
 30
0.0
 10
118.084326
 20
16.835508
 30
0.0
 10
119.309679
 20
16.835508
 30
0.0
 10
120.535028
 20
16.835508
 30
0.0
 10
121.760381
 20
16.835508
 30
0.0
 10
122.985730
 20
16.835508
 30
0.0
 10
124.352471
 20
13.199140
 30
0.0
 10
125.719208
 20
9.562763
 30
0.0
 10
127.085948
 20
5.926414
 30
0.0
 10
128.452685
 20
2.290037
 30
0.0
 10
127.276945
 20
2.290037
 30
0.0
 10
126.101201
 20
2.290037
 30
0.0
 10
124.925461
 20
2.290037
 30
0.0
 10
123.749717
 20
2.290037
 30
0.0
 10
123.571124
 20
2.890296
 30
0.0
 10
123.392531
 20
3.490582
 30
0.0
 10
123.213935
 20
4.090841
 30
0.0
 10
123.035342
 20
4.691127
 30
0.0
  0
LWPOLYLINE
  5
10e
100
AcDbEntity
  8
Layer_1
 62
7
100
AcDbPolyline
 90
13
 70
0
 10
122.092762
 20
7.836381
 30
0.0
 10
121.690926
 20
9.143578
 30
0.0
 10
121.289089
 20
10.450803
 30
0.0
 10
120.887256
 20
11.758000
 30
0.0
 10
120.485419
 20
13.065197
 30
0.0
 10
120.086064
 20
11.758000
 30
0.0
 10
119.686708
 20
10.450803
 30
0.0
 10
119.287352
 20
9.143578
 30
0.0
 10
118.887996
 20
7.836381
 30
0.0
 10
119.689189
 20
7.836381
 30
0.0
 10
120.490381
 20
7.836381
 30
0.0
 10
121.291570
 20
7.836381
 30
0.0
 10
122.092762
 20
7.836381
 30
0.0
  0
LWPOLYLINE
  5
10f
100
AcDbEntity
  8
Layer_1
 62
7
100
AcDbPolyline
 90
41
 70
0
 10
129.911201
 20
16.835508
 30
0.0
 10
130.960439
 20
16.835508
 30
0.0
 10
132.009676
 20
16.835508
 30
0.0
 10
133.058916
 20
16.835508
 30
0.0
 10
134.108153
 20
16.835508
 30
0.0
 10
135.477371
 20
14.823851
 30
0.0
 10
136.846589
 20
12.812185
 30
0.0
 10
138.215810
 20
10.800533
 30
0.0
 10
139.585028
 20
8.788881
 30
0.0
 10
139.585028
 20
10.800533
 30
0.0
 10
139.585028
 20
12.812185
 30
0.0
 10
139.585028
 20
14.823851
 30
0.0
 10
139.585028
 20
16.835508
 30
0.0
 10
140.644189
 20
16.835508
 30
0.0
 10
141.703349
 20
16.835508
 30
0.0
 10
142.762509
 20
16.835508
 30
0.0
 10
143.821669
 20
16.835508
 30
0.0
 10
143.821669
 20
13.199140
 30
0.0
 10
143.821669
 20
9.562763
 30
0.0
 10
143.821669
 20
5.926414
 30
0.0
 10
143.821669
 20
2.290037
 30
0.0
 10
142.762509
 20
2.290037
 30
0.0
 10
141.703349
 20
2.290037
 30
0.0
 10
140.644189
 20
2.290037
 30
0.0
 10
139.585028
 20
2.290037
 30
0.0
 10
138.223250
 20
4.286816
 30
0.0
 10
136.861474
 20
6.283594
 30
0.0
 10
135.499695
 20
8.280373
 30
0.0
 10
134.137919
 20
10.277152
 30
0.0
 10
134.137919
 20
8.280373
 30
0.0
 10
134.137919
 20
6.283594
 30
0.0
 10
134.137919
 20
4.286816
 30
0.0
 10
134.137919
 20
2.290037
 30
0.0
 10
133.081240
 20
2.290037
 30
0.0
 10
132.024560
 20
2.290037
 30
0.0
 10
130.967881
 20
2.290037
 30
0.0
 10
129.911201
 20
2.290037
 30
0.0
 10
129.911201
 20
5.926414
 30
0.0
 10
129.911201
 20
9.562763
 30
0.0
 10
129.911201
 20
13.199140
 30
0.0
 10
129.911201
 20
16.835508
 30
0.0
  0
LWPOLYLINE
  5
110
100
AcDbEntity
  8
Layer_1
 62
7
100
AcDbPolyline
 90
85
 70
0
 10
156.511746
 20
8.233242
 30
0.0
 10
157.496493
 20
7.935582
 30
0.0
 10
158.481237
 20
7.637922
 30
0.0
 10
159.465984
 20
7.340291
 30
0.0
 10
160.450730
 20
7.042631
 30
0.0
 10
160.223759
 20
6.248260
 30
0.0
 10
159.939744
 20
5.522102
 30
0.0
 10
159.598682
 20
4.864158
 30
0.0
 10
159.200576
 20
4.274426
 30
0.0
 10
158.747883
 20
3.752908
 30
0.0
 10
158.243106
 20
3.299602
 30
0.0
 10
157.686242
 20
2.914510
 30
0.0
 10
157.077294
 20
2.597631
 30
0.0
 10
156.403842
 20
2.350207
 30
0.0
 10
155.643577
 20
2.173451
 30
0.0
 10
154.796498
 20
2.067420
 30
0.0
 10
153.862605
 20
2.032058
 30
0.0
 10
152.730889
 20
2.074843
 30
0.0
 10
151.707074
 20
2.203226
 30
0.0
 10
150.791164
 20
2.417150
 30
0.0
 10
149.983153
 20
2.716672
 30
0.0
 10
149.259476
 20
3.129056
 30
0.0
 10
148.586647
 20
3.671656
 30
0.0
 10
147.964669
 20
4.344474
 30
0.0
 10
147.393544
 20
5.147537
 30
0.0
 10
146.916055
 20
6.076472
 30
0.0
 10
146.574990
 20
7.126959
 30
0.0
 10
146.370350
 20
8.298972
 30
0.0
 10
146.302137
 20
9.592537
 30
0.0
 10
146.421819
 20
11.293519
 30
0.0
 10
146.780868
 20
12.784894
 30
0.0
 10
147.379281
 20
14.066691
 30
0.0
 10
148.217060
 20
15.138867
 30
0.0
 10
149.278698
 20
15.989660
 30
0.0
 10
150.538775
 20
16.597372
 30
0.0
 10
151.997291
 20
16.962006
 30
0.0
 10
153.654246
 20
17.083556
 30
0.0
 10
154.954628
 20
17.014095
 30
0.0
 10
156.107424
 20
16.805734
 30
0.0
 10
157.112634
 20
16.458470
 30
0.0
 10
157.970262
 20
15.972306
 30
0.0
 10
158.708194
 20
15.342259
 30
0.0
 10
159.344433
 20
14.563402
 30
0.0
 10
159.878976
 20
13.635709
 30
0.0
 10
160.311826
 20
12.559172
 30
0.0
 10
159.319637
 20
12.338418
 30
0.0
 10
158.327451
 20
12.117664
 30
0.0
 10
157.335262
 20
11.896882
 30
0.0
 10
156.343076
 20
11.676127
 30
0.0
 10
156.237649
 20
11.986177
 30
0.0
 10
156.129747
 20
12.251578
 30
0.0
 10
156.019367
 20
12.472361
 30
0.0
 10
155.906512
 20
12.648468
 30
0.0
 10
155.707450
 20
12.891546
 30
0.0
 10
155.487305
 20
13.104877
 30
0.0
 10
155.246081
 20
13.288435
 30
0.0
 10
154.983778
 20
13.442218
 30
0.0
 10
154.702860
 20
13.563742
 30
0.0
 10
154.405824
 20
13.650582
 30
0.0
 10
154.092664
 20
13.702680
 30
0.0
 10
153.763387
 20
13.720178
 30
0.0
 10
153.044048
 20
13.643273
 30
0.0
 10
152.414007
 20
13.412584
 30
0.0
 10
151.873266
 20
13.028113
 30
0.0
 10
151.421826
 20
12.489859
 30
0.0
 10
151.152691
 20
11.968340
 30
0.0
 10
150.960455
 20
11.316604
 30
0.0
 10
150.845114
 20
10.534623
 30
0.0
 10
150.806669
 20
9.622453
 30
0.0
 10
150.852561
 20
8.506856
 30
0.0
 10
150.990224
 20
7.581026
 30
0.0
 10
151.219665
 20
6.844934
 30
0.0
 10
151.540887
 20
6.298609
 30
0.0
 10
151.945199
 20
5.907928
 30
0.0
 10
152.423930
 20
5.628895
 30
0.0
 10
152.977074
 20
5.461453
 30
0.0
 10
153.604637
 20
5.405658
 30
0.0
 10
154.209866
 20
5.450926
 30
0.0
 10
154.735725
 20
5.586731
 30
0.0
 10
155.182212
 20
5.813074
 30
0.0
 10
155.549326
 20
6.129953
 30
0.0
 10
155.858758
 20
6.533022
 30
0.0
 10
156.122305
 20
7.017965
 30
0.0
 10
156.339969
 20
7.584752
 30
0.0
 10
156.511746
 20
8.233383
 30
0.0
  0
LWPOLYLINE
  5
111
100
AcDbEntity
  8
Layer_1
 62
7
100
AcDbPolyline
 90
49
 70
0
 10
162.613701
 20
16.835508
 30
0.0
 10
165.624990
 20
16.835508
 30
0.0
 10
168.636278
 20
16.835508
 30
0.0
 10
171.647567
 20
16.835508
 30
0.0
 10
174.658855
 20
16.835508
 30
0.0
 10
174.658855
 20
16.059123
 30
0.0
 10
174.658855
 20
15.282738
 30
0.0
 10
174.658855
 20
14.506365
 30
0.0
 10
174.658855
 20
13.729971
 30
0.0
 10
172.773698
 20
13.729971
 30
0.0
 10
170.888541
 20
13.729971
 30
0.0
 10
169.003387
 20
13.729971
 30
0.0
 10
167.118230
 20
13.729971
 30
0.0
 10
167.118230
 20
13.152008
 30
0.0
 10
167.118230
 20
12.574074
 30
0.0
 10
167.118230
 20
11.996111
 30
0.0
 10
167.118230
 20
11.418176
 30
0.0
 10
168.866961
 20
11.418176
 30
0.0
 10
170.615692
 20
11.418176
 30
0.0
 10
172.364423
 20
11.418176
 30
0.0
 10
174.113153
 20
11.418176
 30
0.0
 10
174.113153
 20
10.676496
 30
0.0
 10
174.113153
 20
9.934844
 30
0.0
 10
174.113153
 20
9.193164
 30
0.0
 10
174.113153
 20
8.451513
 30
0.0
 10
172.364423
 20
8.451513
 30
0.0
 10
170.615692
 20
8.451513
 30
0.0
 10
168.866961
 20
8.451513
 30
0.0
 10
167.118230
 20
8.451513
 30
0.0
 10
167.118230
 20
7.734668
 30
0.0
 10
167.118230
 20
7.017796
 30
0.0
 10
167.118230
 20
6.300951
 30
0.0
 10
167.118230
 20
5.584107
 30
0.0
 10
169.057958
 20
5.584107
 30
0.0
 10
170.997682
 20
5.584107
 30
0.0
 10
172.937410
 20
5.584107
 30
0.0
 10
174.877137
 20
5.584107
 30
0.0
 10
174.877137
 20
4.760582
 30
0.0
 10
174.877137
 20
3.937058
 30
0.0
 10
174.877137
 20
3.113562
 30
0.0
 10
174.877137
 20
2.290037
 30
0.0
 10
171.811278
 20
2.290037
 30
0.0
 10
168.745419
 20
2.290037
 30
0.0
 10
165.679560
 20
2.290037
 30
0.0
 10
162.613701
 20
2.290037
 30
0.0
 10
162.613701
 20
5.926414
 30
0.0
 10
162.613701
 20
9.562763
 30
0.0
 10
162.613701
 20
13.199140
 30
0.0
 10
162.613701
 20
16.835508
 30
0.0
  0
ENDSEC
  0
SECTION
  2
OBJECTS
  0
DICTIONARY
  5
C
330
0
100
AcDbDictionary
  3
ACAD_GROUP
350
D
  3
ACAD_MLINESTYLE
350
17
  0
DICTIONARY
  5
D
330
C
100
AcDbDictionary
  0
DICTIONARY
  5
1A
330
C
100
AcDbDictionary
  0
DICTIONARY
  5
17
330
C
100
AcDbDictionary
  3
STANDARD
350
18
  0
DICTIONARY
  5
19
330
C
100
AcDbDictionary
  0
ENDSEC
  0
EOF
