  0
SECTION
  2
HEADER
  9
$ACADVER
  1
AC1014
  9
$HANDSEED
  5
FFFF
  9
$MEASUREMENT
 70
     1
  0
ENDSEC
  0
SECTION
  2
TABLES
  0
TABLE
  2
VPORT
  5
8
330
0
100
AcDbSymbolTable
 70
     4
  0
VPORT
  5
2E
330
8
100
AcDbSymbolTableRecord
100
AcDbViewportTableRecord
  2
*ACTIVE
 70
     0
 10
0.0
 20
0.0
 11
1.0
 21
1.0
 12
210.0
 22
148.5
 13
0.0
 23
0.0
 14
10.0
 24
10.0
 15
10.0
 25
10.0
 16
0.0
 26
0.0
 36
1.0
 17
0.0
 27
0.0
 37
0.0
 40
341.0
 41
1.24
 42
50.0
 43
0.0
 44
0.0
 50
0.0
 51
0.0
 71
     0
 72
   100
 73
     1
 74
     3
 75
     0
 76
     0
 77
     0
 78
     0
  0
ENDTAB
  0
TABLE
  2
LTYPE
  5
5
330
0
100
AcDbSymbolTable
 70
     1
  0
LTYPE
  5
14
330
5
100
AcDbSymbolTableRecord
100
AcDbLinetypeTableRecord
  2
BYBLOCK
 70
     0
  3

 72
    65
 73
     0
 40
0.0
  0
LTYPE
  5
15
330
5
100
AcDbSymbolTableRecord
100
AcDbLinetypeTableRecord
  2
BYLAYER
 70
     0
  3

 72
    65
 73
     0
 40
0.0
  0
LTYPE
  5
16
330
5
100
AcDbSymbolTableRecord
100
AcDbLinetypeTableRecord
  2
CONTINUOUS
 70
     0
  3
Solid line
 72
    65
 73
     0
 40
0.0
  0
ENDTAB
  0
TABLE
  2
LAYER
  5
2
100
AcDbSymbolTable
 70
2
  0
LAYER
  5
50
100
AcDbSymbolTableRecord
100
AcDbLayerTableRecord
  2
0
 70
0
  6
CONTINUOUS
  0
LAYER
  5
51
100
AcDbSymbolTableRecord
100
AcDbLayerTableRecord
  2
Layer_1
 70
0
  6
CONTINUOUS
  0
ENDTAB
  0
TABLE
  2
STYLE
  5
3
330
0
100
AcDbSymbolTable
 70
     1
  0
STYLE
  5
11
330
3
100
AcDbSymbolTableRecord
100
AcDbTextStyleTableRecord
  2
STANDARD
 70
     0
 40
0.0
 41
1.0
 50
0.0
 71
     0
 42
2.5
  3
txt
  4

  0
ENDTAB
  0
TABLE
  2
VIEW
  5
6
330
0
100
AcDbSymbolTable
 70
     0
  0
ENDTAB
  0
TABLE
  2
UCS
  5
7
330
0
100
AcDbSymbolTable
 70
     0
  0
ENDTAB
  0
TABLE
  2
APPID
  5
9
330
0
100
AcDbSymbolTable
 70
     2
  0
APPID
  5
12
330
9
100
AcDbSymbolTableRecord
100
AcDbRegAppTableRecord
  2
ACAD
 70
     0
  0
ENDTAB
  0
TABLE
  2
DIMSTYLE
  5
A
330
0
100
AcDbSymbolTable
 70
     1
  0
DIMSTYLE
105
27
330
A
100
AcDbSymbolTableRecord
100
AcDbDimStyleTableRecord
  2
ISO-25
 70
     0
  3

  4

  5

  6

  7

 40
1.0
 41
2.5
 42
0.625
 43
3.75
 44
1.25
 45
0.0
 46
0.0
 47
0.0
 48
0.0
140
2.5
141
2.5
142
0.0
143
0.03937007874016
144
1.0
145
0.0
146
1.0
147
0.625
 71
     0
 72
     0
 73
     0
 74
     0
 75
     0
 76
     0
 77
     1
 78
     8
170
     0
171
     3
172
     1
173
     0
174
     0
175
     0
176
     0
177
     0
178
     0
270
     2
271
     2
272
     2
273
     2
274
     3
340
11
275
     0
280
     0
281
     0
282
     0
283
     0
284
     8
285
     0
286
     0
287
     3
288
     0
  0
ENDTAB
  0
TABLE
  2
BLOCK_RECORD
  5
1
330
0
100
AcDbSymbolTable
 70
     1
  0
BLOCK_RECORD
  5
1F
330
1
100
AcDbSymbolTableRecord
100
AcDbBlockTableRecord
  2
*MODEL_SPACE
  0
BLOCK_RECORD
  5
1B
330
1
100
AcDbSymbolTableRecord
100
AcDbBlockTableRecord
  2
*PAPER_SPACE
  0
ENDTAB
  0
ENDSEC
  0
SECTION
  2
BLOCKS
  0
BLOCK
  5
20
330
1F
100
AcDbEntity
  8
0
100
AcDbBlockBegin
  2
*MODEL_SPACE
 70
     0
 10
0.0
 20
0.0
 30
0.0
  3
*MODEL_SPACE
  1

  0
ENDBLK
  5
21
330
1F
100
AcDbEntity
  8
0
100
AcDbBlockEnd
  0
BLOCK
  5
1C
330
1B
100
AcDbEntity
 67
     1
  8
0
100
AcDbBlockBegin
  2
*PAPER_SPACE
  1

  0
ENDBLK
  5
1D
330
1B
100
AcDbEntity
 67
     1
  8
0
100
AcDbBlockEnd
  0
ENDSEC
  0
SECTION
  2
ENTITIES
  0
LWPOLYLINE
  5
100
100
AcDbEntity
  8
Layer_1
 62
7
100
AcDbPolyline
 90
41
 70
0
 10
21.685119
 20
33.091508
 30
0.0
 10
24.463245
 20
33.091508
 30
0.0
 10
27.241370
 20
33.091508
 30
0.0
 10
30.019495
 20
33.091508
 30
0.0
 10
32.797620
 20
33.091508
 30
0.0
 10
32.797620
 20
32.310162
 30
0.0
 10
32.797620
 20
31.528815
 30
0.0
 10
32.797620
 20
30.747466
 30
0.0
 10
32.797620
 20
29.966120
 30
0.0
 10
31.148107
 20
29.966120
 30
0.0
 10
29.498598
 20
29.966120
 30
0.0
 10
27.849086
 20
29.966120
 30
0.0
 10
26.199574
 20
29.966120
 30
0.0
 10
26.199574
 20
29.331120
 30
0.0
 10
26.199574
 20
28.696120
 30
0.0
 10
26.199574
 20
28.061120
 30
0.0
 10
26.199574
 20
27.426120
 30
0.0
 10
27.608481
 20
27.426120
 30
0.0
 10
29.017386
 20
27.426120
 30
0.0
 10
30.426293
 20
27.426120
 30
0.0
 10
31.835200
 20
27.426120
 30
0.0
 10
31.835200
 20
26.691902
 30
0.0
 10
31.835200
 20
25.957684
 30
0.0
 10
31.835200
 20
25.223463
 30
0.0
 10
31.835200
 20
24.489245
 30
0.0
 10
30.426293
 20
24.489245
 30
0.0
 10
29.017386
 20
24.489245
 30
0.0
 10
27.608481
 20
24.489245
 30
0.0
 10
26.199574
 20
24.489245
 30
0.0
 10
26.199574
 20
23.003444
 30
0.0
 10
26.199574
 20
21.517642
 30
0.0
 10
26.199574
 20
20.031841
 30
0.0
 10
26.199574
 20
18.546040
 30
0.0
 10
25.070960
 20
18.546040
 30
0.0
 10
23.942347
 20
18.546040
 30
0.0
 10
22.813733
 20
18.546040
 30
0.0
 10
21.685119
 20
18.546040
 30
0.0
 10
21.685119
 20
22.182408
 30
0.0
 10
21.685119
 20
25.818774
 30
0.0
 10
21.685119
 20
29.455140
 30
0.0
 10
21.685119
 20
33.091508
 30
0.0
  0
LWPOLYLINE
  5
101
100
AcDbEntity
  8
Layer_1
 62
7
100
AcDbPolyline
 90
77
 70
0
 10
44.703870
 20
33.091508
 30
0.0
 10
45.825043
 20
33.091508
 30
0.0
 10
46.946213
 20
33.091508
 30
0.0
 10
48.067386
 20
33.091508
 30
0.0
 10
49.188559
 20
33.091508
 30
0.0
 10
49.188559
 20
30.923578
 30
0.0
 10
49.188559
 20
28.755649
 30
0.0
 10
49.188559
 20
26.587719
 30
0.0
 10
49.188559
 20
24.419790
 30
0.0
 10
49.163131
 20
23.783548
 30
0.0
 10
49.086855
 20
23.164669
 30
0.0
 10
48.959733
 20
22.563157
 30
0.0
 10
48.781767
 20
21.979008
 30
0.0
 10
48.554177
 20
21.425864
 30
0.0
 10
48.268300
 20
20.907444
 30
0.0
 10
47.924139
 20
20.423755
 30
0.0
 10
47.521690
 20
19.974790
 30
0.0
 10
47.089461
 20
19.579775
 30
0.0
 10
46.646073
 20
19.248014
 30
0.0
 10
46.191531
 20
18.979502
 30
0.0
 10
45.725831
 20
18.774245
 30
0.0
 10
45.038114
 20
18.561545
 30
0.0
 10
44.284671
 20
18.409614
 30
0.0
 10
43.465499
 20
18.318459
 30
0.0
 10
42.580597
 20
18.288072
 30
0.0
 10
42.037370
 20
18.297385
 30
0.0
 10
41.469338
 20
18.325297
 30
0.0
 10
40.876508
 20
18.371804
 30
0.0
 10
40.258876
 20
18.436916
 30
0.0
 10
39.659221
 20
18.529315
 30
0.0
 10
39.110415
 20
18.657679
 30
0.0
 10
38.612462
 20
18.822008
 30
0.0
 10
38.165360
 20
19.022307
 30
0.0
 10
37.752359
 20
19.268495
 30
0.0
 10
37.356725
 20
19.560570
 30
0.0
 10
36.978455
 20
19.898533
 30
0.0
 10
36.617549
 20
20.282387
 30
0.0
 10
36.297568
 20
20.692281
 30
0.0
 10
36.032158
 20
21.108381
 30
0.0
 10
35.821318
 20
21.530681
 30
0.0
 10
35.665049
 20
21.959182
 30
0.0
 10
35.482733
 20
22.633868
 30
0.0
 10
35.352507
 20
23.268865
 30
0.0
 10
35.274374
 20
23.864179
 30
0.0
 10
35.248325
 20
24.419807
 30
0.0
 10
35.248325
 20
26.587736
 30
0.0
 10
35.248325
 20
28.755666
 30
0.0
 10
35.248325
 20
30.923595
 30
0.0
 10
35.248325
 20
33.091525
 30
0.0
 10
36.369495
 20
33.091525
 30
0.0
 10
37.490668
 20
33.091525
 30
0.0
 10
38.611838
 20
33.091525
 30
0.0
 10
39.733011
 20
33.091525
 30
0.0
 10
39.733011
 20
30.871506
 30
0.0
 10
39.733011
 20
28.651486
 30
0.0
 10
39.733011
 20
26.431467
 30
0.0
 10
39.733011
 20
24.211448
 30
0.0
 10
39.773936
 20
23.648378
 30
0.0
 10
39.896717
 20
23.149804
 30
0.0
 10
40.101356
 20
22.715724
 30
0.0
 10
40.387854
 20
22.346137
 30
0.0
 10
40.751859
 20
22.055298
 30
0.0
 10
41.179118
 20
21.847560
 30
0.0
 10
41.669634
 20
21.722917
 30
0.0
 10
42.223402
 20
21.681371
 30
0.0
 10
42.772200
 20
21.722299
 30
0.0
 10
43.257749
 20
21.845079
 30
0.0
 10
43.680053
 20
22.049719
 30
0.0
 10
44.039104
 20
22.336214
 30
0.0
 10
44.329937
 20
22.702699
 30
0.0
 10
44.537672
 20
23.137400
 30
0.0
 10
44.662316
 20
23.640318
 30
0.0
 10
44.703870
 20
24.211448
 30
0.0
 10
44.703870
 20
26.431467
 30
0.0
 10
44.703870
 20
28.651486
 30
0.0
 10
44.703870
 20
30.871506
 30
0.0
 10
44.703870
 20
33.091525
 30
0.0
  0
LWPOLYLINE
  5
102
100
AcDbEntity
  8
Layer_1
 62
7
100
AcDbPolyline
 90
85
 70
0
 10
61.868716
 20
24.489245
 30
0.0
 10
62.853463
 20
24.191588
 30
0.0
 10
63.838207
 20
23.893934
 30
0.0
 10
64.822953
 20
23.596277
 30
0.0
 10
65.807700
 20
23.298620
 30
0.0
 10
65.580728
 20
22.504246
 30
0.0
 10
65.296711
 20
21.778088
 30
0.0
 10
64.955649
 20
21.120144
 30
0.0
 10
64.557543
 20
20.530415
 30
0.0
 10
64.104850
 20
20.008896
 30
0.0
 10
63.600073
 20
19.555591
 30
0.0
 10
63.043209
 20
19.170499
 30
0.0
 10
62.434261
 20
18.853620
 30
0.0
 10
61.760808
 20
18.606193
 30
0.0
 10
61.000544
 20
18.429460
 30
0.0
 10
60.153465
 20
18.323417
 30
0.0
 10
59.219575
 20
18.288072
 30
0.0
 10
58.087855
 20
18.330860
 30
0.0
 10
57.064041
 20
18.459223
 30
0.0
 10
56.148131
 20
18.673164
 30
0.0
 10
55.340120
 20
18.972681
 30
0.0
 10
54.616443
 20
19.385058
 30
0.0
 10
53.943614
 20
19.927659
 30
0.0
 10
53.321639
 20
20.600488
 30
0.0
 10
52.750511
 20
21.403540
 30
0.0
 10
52.273022
 20
22.332474
 30
0.0
 10
51.931957
 20
23.382951
 30
0.0
 10
51.727317
 20
24.554972
 30
0.0
 10
51.659104
 20
25.848540
 30
0.0
 10
51.778786
 20
27.549516
 30
0.0
 10
52.137835
 20
29.040897
 30
0.0
 10
52.736248
 20
30.322679
 30
0.0
 10
53.574027
 20
31.394870
 30
0.0
 10
54.635665
 20
32.245663
 30
0.0
 10
55.895742
 20
32.853375
 30
0.0
 10
57.354258
 20
33.218006
 30
0.0
 10
59.011216
 20
33.339556
 30
0.0
 10
60.311594
 20
33.270095
 30
0.0
 10
61.464390
 20
33.061734
 30
0.0
 10
62.469601
 20
32.714470
 30
0.0
 10
63.327229
 20
32.228306
 30
0.0
 10
64.065161
 20
31.598259
 30
0.0
 10
64.701400
 20
30.819390
 30
0.0
 10
65.235943
 20
29.891698
 30
0.0
 10
65.668793
 20
28.815181
 30
0.0
 10
64.676604
 20
28.594418
 30
0.0
 10
63.684418
 20
28.373658
 30
0.0
 10
62.692229
 20
28.152896
 30
0.0
 10
61.700043
 20
27.932133
 30
0.0
 10
61.594616
 20
28.242185
 30
0.0
 10
61.486714
 20
28.507595
 30
0.0
 10
61.376334
 20
28.728361
 30
0.0
 10
61.263479
 20
28.904479
 30
0.0
 10
61.064417
 20
29.147560
 30
0.0
 10
60.844272
 20
29.360877
 30
0.0
 10
60.603048
 20
29.544435
 30
0.0
 10
60.340745
 20
29.698229
 30
0.0
 10
60.059827
 20
29.819765
 30
0.0
 10
59.762791
 20
29.906579
 30
0.0
 10
59.449631
 20
29.958669
 30
0.0
 10
59.120354
 20
29.976054
 30
0.0
 10
58.401015
 20
29.899154
 30
0.0
 10
57.770974
 20
29.668469
 30
0.0
 10
57.230233
 20
29.283997
 30
0.0
 10
56.778793
 20
28.745743
 30
0.0
 10
56.509658
 20
28.224219
 30
0.0
 10
56.317422
 20
27.572475
 30
0.0
 10
56.202080
 20
26.790507
 30
0.0
 10
56.163636
 20
25.878320
 30
0.0
 10
56.209528
 20
24.762727
 30
0.0
 10
56.347191
 20
23.836891
 30
0.0
 10
56.576632
 20
23.100813
 30
0.0
 10
56.897854
 20
22.554493
 30
0.0
 10
57.302169
 20
22.163816
 30
0.0
 10
57.780896
 20
21.884763
 30
0.0
 10
58.334041
 20
21.717332
 30
0.0
 10
58.961604
 20
21.661522
 30
0.0
 10
59.566835
 20
21.706791
 30
0.0
 10
60.092692
 20
21.842596
 30
0.0
 10
60.539178
 20
22.068938
 30
0.0
 10
60.906293
 20
22.385820
 30
0.0
 10
61.215724
 20
22.788893
 30
0.0
 10
61.479272
 20
23.273824
 30
0.0
 10
61.696936
 20
23.840613
 30
0.0
 10
61.868716
 20
24.489259
 30
0.0
  0
LWPOLYLINE
  5
103
100
AcDbEntity
  8
Layer_1
 62
7
100
AcDbPolyline
 90
49
 70
0
 10
68.000434
 20
33.091508
 30
0.0
 10
69.124085
 20
33.091508
 30
0.0
 10
70.247739
 20
33.091508
 30
0.0
 10
71.371389
 20
33.091508
 30
0.0
 10
72.495043
 20
33.091508
 30
0.0
 10
72.495043
 20
31.717328
 30
0.0
 10
72.495043
 20
30.343149
 30
0.0
 10
72.495043
 20
28.968969
 30
0.0
 10
72.495043
 20
27.594790
 30
0.0
 10
73.673267
 20
28.968969
 30
0.0
 10
74.851489
 20
30.343149
 30
0.0
 10
76.029710
 20
31.717328
 30
0.0
 10
77.207934
 20
33.091508
 30
0.0
 10
78.701175
 20
33.091508
 30
0.0
 10
80.194418
 20
33.091508
 30
0.0
 10
81.687662
 20
33.091508
 30
0.0
 10
83.180902
 20
33.091508
 30
0.0
 10
81.856332
 20
31.719809
 30
0.0
 10
80.531761
 20
30.348110
 30
0.0
 10
79.207191
 20
28.976412
 30
0.0
 10
77.882620
 20
27.604713
 30
0.0
 10
79.266723
 20
25.340043
 30
0.0
 10
80.650822
 20
23.075376
 30
0.0
 10
82.034925
 20
20.810707
 30
0.0
 10
83.419027
 20
18.546040
 30
0.0
 10
82.034925
 20
18.546040
 30
0.0
 10
80.650822
 20
18.546040
 30
0.0
 10
79.266723
 20
18.546040
 30
0.0
 10
77.882620
 20
18.546040
 30
0.0
 10
77.116155
 20
20.041761
 30
0.0
 10
76.349691
 20
21.537485
 30
0.0
 10
75.583226
 20
23.033207
 30
0.0
 10
74.816761
 20
24.528931
 30
0.0
 10
74.236332
 20
23.921216
 30
0.0
 10
73.655902
 20
23.313501
 30
0.0
 10
73.075473
 20
22.705787
 30
0.0
 10
72.495043
 20
22.098072
 30
0.0
 10
72.495043
 20
21.210062
 30
0.0
 10
72.495043
 20
20.322056
 30
0.0
 10
72.495043
 20
19.434047
 30
0.0
 10
72.495043
 20
18.546040
 30
0.0
 10
71.371392
 20
18.546040
 30
0.0
 10
70.247739
 20
18.546040
 30
0.0
 10
69.124085
 20
18.546040
 30
0.0
 10
68.000434
 20
18.546040
 30
0.0
 10
68.000434
 20
22.182406
 30
0.0
 10
68.000434
 20
25.818774
 30
0.0
 10
68.000434
 20
29.455140
 30
0.0
 10
68.000434
 20
33.091508
 30
0.0
  0
ENDSEC
  0
SECTION
  2
OBJECTS
  0
DICTIONARY
  5
C
330
0
100
AcDbDictionary
  3
ACAD_GROUP
350
D
  3
ACAD_MLINESTYLE
350
17
  0
DICTIONARY
  5
D
330
C
100
AcDbDictionary
  0
DICTIONARY
  5
1A
330
C
100
AcDbDictionary
  0
DICTIONARY
  5
17
330
C
100
AcDbDictionary
  3
STANDARD
350
18
  0
DICTIONARY
  5
19
330
C
100
AcDbDictionary
  0
ENDSEC
  0
EOF
