<?xml version="1.0" encoding="UTF-8" standalone="no"?>
<!-- Created with Inkscape (http://www.inkscape.org/) -->

<svg
   xmlns:dc="http://purl.org/dc/elements/1.1/"
   xmlns:cc="http://creativecommons.org/ns#"
   xmlns:rdf="http://www.w3.org/1999/02/22-rdf-syntax-ns#"
   xmlns:svg="http://www.w3.org/2000/svg"
   xmlns="http://www.w3.org/2000/svg"
   xmlns:sodipodi="http://sodipodi.sourceforge.net/DTD/sodipodi-0.dtd"
   xmlns:inkscape="http://www.inkscape.org/namespaces/inkscape"
   width="310.33539"
   height="80.557251"
   id="svg4480"
   version="1.1"
   inkscape:version="0.48.4 r9939"
   sodipodi:docname="shrunk.svg">
  <defs
     id="defs4482">
    <clipPath
       clipPathUnits="userSpaceOnUse"
       id="clipPath3502">
      <path
         inkscape:connector-curvature="0"
         d="m 0,0 1024,0 0,768 L 0,768 0,0 z"
         id="path3504" />
    </clipPath>
  </defs>
  <sodipodi:namedview
     id="base"
     pagecolor="#ffffff"
     bordercolor="#666666"
     borderopacity="1.0"
     inkscape:pageopacity="0.0"
     inkscape:pageshadow="2"
     inkscape:zoom="5.6"
     inkscape:cx="126.95133"
     inkscape:cy="36.7724"
     inkscape:document-units="px"
     inkscape:current-layer="svg4480"
     showgrid="false"
     fit-margin-top="10"
     fit-margin-left="10"
     fit-margin-right="10"
     fit-margin-bottom="10"
     inkscape:window-width="1280"
     inkscape:window-height="784"
     inkscape:window-x="0"
     inkscape:window-y="0"
     inkscape:window-maximized="0" />
  <metadata
     id="metadata4485">
    <rdf:RDF>
      <cc:Work
         rdf:about="">
        <dc:format>image/svg+xml</dc:format>
        <dc:type
           rdf:resource="http://purl.org/dc/dcmitype/StillImage" />
        <dc:title></dc:title>
      </cc:Work>
    </rdf:RDF>
  </metadata>
  <g
     inkscape:label="Layer 1"
     inkscape:groupmode="layer"
     id="layer1"
     transform="translate(-219.83231,-492.08356)">
    <g
       id="g3214"
       transform="matrix(1.25,0,0,-1.25,306.75294,540.49656)">
      <path
         style="fill:#ed1d24;fill-opacity:1;fill-rule:nonzero;stroke:none"
         d="m -1.28125,-2.78125 c -2.4436582,-0.5981203 -5.209446,2.2536549 -1.3125,0.96875 3.36978008,-1.2997071 9.5535526,0.7847166 7,5.1875 -3.2066903,2.6935818 -12.1786089,4.2087625 -8.125,10.125 2.4518724,2.329587 6.280274,1.831716 9.3125,1.21875 -1.643884,-1.251878 -6.9036051,1.032271 -8.25,-2.59375 C -4.3697349,5.1469186 8.5607577,7.6883071 6.78125,0.5 6.0854748,-2.8444081 1.3524761,-2.8658663 -1.28125,-2.78125 z"
         id="path3216"
         inkscape:connector-curvature="0" />
    </g>
    <g
       id="g3218"
       transform="matrix(1.25,0,0,-1.25,340.0679,544.91581)">
      <path
         style="fill:#ed1d24;fill-opacity:1;fill-rule:nonzero;stroke:none"
         d="m -9.96875,0.84375 c -6.728918,-0.15871846 -6.501878,8.0801298 -6.0625,12.75 0.182832,9.961635 3.09176,-0.353504 1.9375,-5.125 -0.690634,-4.8048884 4.1426398,-7.95741905 8.46875,-6.375 3.9175728,2.4712264 0.6442979,11.163029 1.71875,16.09375 C 0.35128894,16.257539 -3.1314775,6.5872725 -2,1.53125 -4.6432596,1.0151094 -7.2571267,0.72258955 -9.96875,0.84375 z"
         id="path3220"
         inkscape:connector-curvature="0" />
    </g>
    <g
       id="g3222"
       transform="matrix(1.25,0,0,-1.25,364.31417,544.96519)">
      <path
         style="fill:#ed1d24;fill-opacity:1;fill-rule:nonzero;stroke:none"
         d="m -9.59375,0.84375 c -9.595714,-0.39445168 -10.831777,16.375265 -1.71875,17.75 3.0113788,1.347236 8.577411,-4.384556 7.40625,1.15625 C -5.0478734,30.017061 -0.56902947,27.815215 -2,18.8125 -2.2309269,13.126817 -1.5529236,6.757375 -2.3125,1.46875 -4.7092582,1.0470889 -7.1551581,0.72421105 -9.59375,0.84375 z m 1.09375,1 c 5.4514702,-1.03703175 4.9453366,3.9994831 4.59375,8.21875 0.7689185,3.673546 0.043879,7.568585 -4.21875,7.53125 -9.824489,1.608461 -9.584366,-16.2430891 -0.375,-15.75 z"
         id="path3224"
         inkscape:connector-curvature="0" />
    </g>
    <g
       id="g3226"
       transform="matrix(1.25,0,0,-1.25,390.4874,532.69993)">
      <path
         style="fill:#ed1d24;fill-opacity:1;fill-rule:nonzero;stroke:none"
         d="m -11.15625,-9 c -9.85483,0.448878 -9.76779,17.481291 0.03125,17.90625 11.21152889,1.839272 12.4682066,-17.9649347 1.34375,-17.9375 -0.458058,0.014629 -0.919143,-0.031886 -1.375,0.03125 z m 0.90625,1.03125 c 9.207812,0.1608292 7.9556184,18.004518 -1.5625,15.65625 -6.926041,-1.8388736 -6.207553,-15.7372351 1.5625,-15.65625 z"
         id="path3228"
         inkscape:connector-curvature="0" />
    </g>
  </g>
</svg>
