  0
SECTION
  2
HEADER
  9
$ACADVER
  1
AC1014
  9
$HANDSEED
  5
FFFF
  9
$MEASUREMENT
 70
     1
  0
ENDSEC
  0
SECTION
  2
TABLES
  0
TABLE
  2
VPORT
  5
8
330
0
100
AcDbSymbolTable
 70
     4
  0
VPORT
  5
2E
330
8
100
AcDbSymbolTableRecord
100
AcDbViewportTableRecord
  2
*ACTIVE
 70
     0
 10
0.0
 20
0.0
 11
1.0
 21
1.0
 12
210.0
 22
148.5
 13
0.0
 23
0.0
 14
10.0
 24
10.0
 15
10.0
 25
10.0
 16
0.0
 26
0.0
 36
1.0
 17
0.0
 27
0.0
 37
0.0
 40
341.0
 41
1.24
 42
50.0
 43
0.0
 44
0.0
 50
0.0
 51
0.0
 71
     0
 72
   100
 73
     1
 74
     3
 75
     0
 76
     0
 77
     0
 78
     0
  0
ENDTAB
  0
TABLE
  2
LTYPE
  5
5
330
0
100
AcDbSymbolTable
 70
     1
  0
LTYPE
  5
14
330
5
100
AcDbSymbolTableRecord
100
AcDbLinetypeTableRecord
  2
BYBLOCK
 70
     0
  3

 72
    65
 73
     0
 40
0.0
  0
LTYPE
  5
15
330
5
100
AcDbSymbolTableRecord
100
AcDbLinetypeTableRecord
  2
BYLAYER
 70
     0
  3

 72
    65
 73
     0
 40
0.0
  0
LTYPE
  5
16
330
5
100
AcDbSymbolTableRecord
100
AcDbLinetypeTableRecord
  2
CONTINUOUS
 70
     0
  3
Solid line
 72
    65
 73
     0
 40
0.0
  0
ENDTAB
  0
TABLE
  2
LAYER
  5
2
100
AcDbSymbolTable
 70
2
  0
LAYER
  5
50
100
AcDbSymbolTableRecord
100
AcDbLayerTableRecord
  2
0
 70
0
  6
CONTINUOUS
  0
LAYER
  5
51
100
AcDbSymbolTableRecord
100
AcDbLayerTableRecord
  2
Layer_1
 70
0
  6
CONTINUOUS
  0
ENDTAB
  0
TABLE
  2
STYLE
  5
3
330
0
100
AcDbSymbolTable
 70
     1
  0
STYLE
  5
11
330
3
100
AcDbSymbolTableRecord
100
AcDbTextStyleTableRecord
  2
STANDARD
 70
     0
 40
0.0
 41
1.0
 50
0.0
 71
     0
 42
2.5
  3
txt
  4

  0
ENDTAB
  0
TABLE
  2
VIEW
  5
6
330
0
100
AcDbSymbolTable
 70
     0
  0
ENDTAB
  0
TABLE
  2
UCS
  5
7
330
0
100
AcDbSymbolTable
 70
     0
  0
ENDTAB
  0
TABLE
  2
APPID
  5
9
330
0
100
AcDbSymbolTable
 70
     2
  0
APPID
  5
12
330
9
100
AcDbSymbolTableRecord
100
AcDbRegAppTableRecord
  2
ACAD
 70
     0
  0
ENDTAB
  0
TABLE
  2
DIMSTYLE
  5
A
330
0
100
AcDbSymbolTable
 70
     1
  0
DIMSTYLE
105
27
330
A
100
AcDbSymbolTableRecord
100
AcDbDimStyleTableRecord
  2
ISO-25
 70
     0
  3

  4

  5

  6

  7

 40
1.0
 41
2.5
 42
0.625
 43
3.75
 44
1.25
 45
0.0
 46
0.0
 47
0.0
 48
0.0
140
2.5
141
2.5
142
0.0
143
0.03937007874016
144
1.0
145
0.0
146
1.0
147
0.625
 71
     0
 72
     0
 73
     0
 74
     0
 75
     0
 76
     0
 77
     1
 78
     8
170
     0
171
     3
172
     1
173
     0
174
     0
175
     0
176
     0
177
     0
178
     0
270
     2
271
     2
272
     2
273
     2
274
     3
340
11
275
     0
280
     0
281
     0
282
     0
283
     0
284
     8
285
     0
286
     0
287
     3
288
     0
  0
ENDTAB
  0
TABLE
  2
BLOCK_RECORD
  5
1
330
0
100
AcDbSymbolTable
 70
     1
  0
BLOCK_RECORD
  5
1F
330
1
100
AcDbSymbolTableRecord
100
AcDbBlockTableRecord
  2
*MODEL_SPACE
  0
BLOCK_RECORD
  5
1B
330
1
100
AcDbSymbolTableRecord
100
AcDbBlockTableRecord
  2
*PAPER_SPACE
  0
ENDTAB
  0
ENDSEC
  0
SECTION
  2
BLOCKS
  0
BLOCK
  5
20
330
1F
100
AcDbEntity
  8
0
100
AcDbBlockBegin
  2
*MODEL_SPACE
 70
     0
 10
0.0
 20
0.0
 30
0.0
  3
*MODEL_SPACE
  1

  0
ENDBLK
  5
21
330
1F
100
AcDbEntity
  8
0
100
AcDbBlockEnd
  0
BLOCK
  5
1C
330
1B
100
AcDbEntity
 67
     1
  8
0
100
AcDbBlockBegin
  2
*PAPER_SPACE
  1

  0
ENDBLK
  5
1D
330
1B
100
AcDbEntity
 67
     1
  8
0
100
AcDbBlockEnd
  0
ENDSEC
  0
SECTION
  2
ENTITIES
  0
LWPOLYLINE
  5
100
100
AcDbEntity
  8
Layer_1
 62
7
100
AcDbPolyline
 90
113
 70
0
 10
24.078937
 20
8.090659
 30
0.0
 10
23.916569
 20
8.064705
 30
0.0
 10
23.755147
 20
8.063353
 30
0.0
 10
23.598281
 20
8.082687
 30
0.0
 10
23.449580
 20
8.118783
 30
0.0
 10
23.312653
 20
8.167722
 30
0.0
 10
23.191111
 20
8.225583
 30
0.0
 10
23.088563
 20
8.288446
 30
0.0
 10
23.008617
 20
8.352391
 30
0.0
 10
22.954885
 20
8.413495
 30
0.0
 10
22.930975
 20
8.467841
 30
0.0
 10
22.940496
 20
8.511506
 30
0.0
 10
22.987060
 20
8.540570
 30
0.0
 10
23.074274
 20
8.551113
 30
0.0
 10
23.205748
 20
8.539215
 30
0.0
 10
23.385092
 20
8.500954
 30
0.0
 10
23.615916
 20
8.432411
 30
0.0
 10
23.849451
 20
8.360340
 30
0.0
 10
24.100284
 20
8.315698
 30
0.0
 10
24.362445
 20
8.297936
 30
0.0
 10
24.629965
 20
8.306502
 30
0.0
 10
24.896874
 20
8.340846
 30
0.0
 10
25.157204
 20
8.400417
 30
0.0
 10
25.404984
 20
8.484664
 30
0.0
 10
25.634246
 20
8.593037
 30
0.0
 10
25.839020
 20
8.724984
 30
0.0
 10
26.013337
 20
8.879955
 30
0.0
 10
26.151228
 20
9.057400
 30
0.0
 10
26.246723
 20
9.256768
 30
0.0
 10
26.293853
 20
9.477507
 30
0.0
 10
26.286649
 20
9.719067
 30
0.0
 10
26.219141
 20
9.980897
 30
0.0
 10
26.085360
 20
10.262447
 30
0.0
 10
25.851036
 20
10.436225
 30
0.0
 10
25.578753
 20
10.603143
 30
0.0
 10
25.278223
 20
10.766084
 30
0.0
 10
24.959155
 20
10.927932
 30
0.0
 10
24.631261
 20
11.091570
 30
0.0
 10
24.304251
 20
11.259881
 30
0.0
 10
23.987835
 20
11.435747
 30
0.0
 10
23.691724
 20
11.622054
 30
0.0
 10
23.425627
 20
11.821683
 30
0.0
 10
23.199256
 20
12.037519
 30
0.0
 10
23.022320
 20
12.272443
 30
0.0
 10
22.904531
 20
12.529341
 30
0.0
 10
22.855597
 20
12.811094
 30
0.0
 10
22.885231
 20
13.120587
 30
0.0
 10
23.003142
 20
13.460701
 30
0.0
 10
23.219041
 20
13.834322
 30
0.0
 10
23.386726
 20
13.976959
 30
0.0
 10
23.564669
 20
14.097620
 30
0.0
 10
23.751748
 20
14.197706
 30
0.0
 10
23.946841
 20
14.278618
 30
0.0
 10
24.148824
 20
14.341760
 30
0.0
 10
24.356574
 20
14.388531
 30
0.0
 10
24.568969
 20
14.420334
 30
0.0
 10
24.784887
 20
14.438572
 30
0.0
 10
25.003203
 20
14.444644
 30
0.0
 10
25.222796
 20
14.439952
 30
0.0
 10
25.442543
 20
14.425901
 30
0.0
 10
25.661320
 20
14.403887
 30
0.0
 10
25.878006
 20
14.375316
 30
0.0
 10
26.091477
 20
14.341590
 30
0.0
 10
26.300611
 20
14.304106
 30
0.0
 10
26.504284
 20
14.264270
 30
0.0
 10
26.381248
 20
14.195268
 30
0.0
 10
26.232206
 20
14.150621
 30
0.0
 10
26.061050
 20
14.125449
 30
0.0
 10
25.871669
 20
14.114868
 30
0.0
 10
25.667955
 20
14.113999
 30
0.0
 10
25.453798
 20
14.117958
 30
0.0
 10
25.233090
 20
14.121866
 30
0.0
 10
25.009720
 20
14.120841
 30
0.0
 10
24.787581
 20
14.110000
 30
0.0
 10
24.570562
 20
14.084463
 30
0.0
 10
24.362555
 20
14.039348
 30
0.0
 10
24.167449
 20
13.969773
 30
0.0
 10
23.989137
 20
13.870858
 30
0.0
 10
23.831509
 20
13.737720
 30
0.0
 10
23.698455
 20
13.565479
 30
0.0
 10
23.593867
 20
13.349253
 30
0.0
 10
23.538539
 20
12.925378
 30
0.0
 10
23.589122
 20
12.570266
 30
0.0
 10
23.730446
 20
12.273968
 30
0.0
 10
23.947342
 20
12.026537
 30
0.0
 10
24.224642
 20
11.818027
 30
0.0
 10
24.547177
 20
11.638489
 30
0.0
 10
24.899776
 20
11.477977
 30
0.0
 10
25.267272
 20
11.326543
 30
0.0
 10
25.634495
 20
11.174240
 30
0.0
 10
25.986275
 20
11.011120
 30
0.0
 10
26.307445
 20
10.827237
 30
0.0
 10
26.582834
 20
10.612643
 30
0.0
 10
26.797274
 20
10.357390
 30
0.0
 10
26.935596
 20
10.051532
 30
0.0
 10
26.982630
 20
9.685122
 30
0.0
 10
26.923208
 20
9.248211
 30
0.0
 10
26.861023
 20
9.040453
 30
0.0
 10
26.768629
 20
8.858507
 30
0.0
 10
26.649197
 20
8.700711
 30
0.0
 10
26.505897
 20
8.565404
 30
0.0
 10
26.341901
 20
8.450921
 30
0.0
 10
26.160380
 20
8.355602
 30
0.0
 10
25.964505
 20
8.277784
 30
0.0
 10
25.757447
 20
8.215803
 30
0.0
 10
25.542377
 20
8.167999
 30
0.0
 10
25.322467
 20
8.132709
 30
0.0
 10
25.100888
 20
8.108269
 30
0.0
 10
24.880810
 20
8.093019
 30
0.0
 10
24.665405
 20
8.085295
 30
0.0
 10
24.457843
 20
8.083436
 30
0.0
 10
24.261297
 20
8.085778
 30
0.0
 10
24.078937
 20
8.090659
 30
0.0
  0
LWPOLYLINE
  5
101
100
AcDbEntity
  8
Layer_1
 62
7
100
AcDbPolyline
 90
97
 70
0
 10
30.416402
 20
8.122268
 30
0.0
 10
29.999488
 20
8.145455
 30
0.0
 10
29.636603
 20
8.231891
 30
0.0
 10
29.324261
 20
8.375393
 30
0.0
 10
29.058978
 20
8.569776
 30
0.0
 10
28.837269
 20
8.808856
 30
0.0
 10
28.655650
 20
9.086451
 30
0.0
 10
28.510634
 20
9.396374
 30
0.0
 10
28.398738
 20
9.732444
 30
0.0
 10
28.316477
 20
10.088475
 30
0.0
 10
28.260365
 20
10.458285
 30
0.0
 10
28.226918
 20
10.835689
 30
0.0
 10
28.212652
 20
11.214503
 30
0.0
 10
28.214063
 20
11.588543
 30
0.0
 10
28.227702
 20
11.951626
 30
0.0
 10
28.250064
 20
12.297568
 30
0.0
 10
28.277669
 20
12.620184
 30
0.0
 10
28.300448
 20
13.197502
 30
0.0
 10
28.342258
 20
13.620510
 30
0.0
 10
28.399591
 20
13.902552
 30
0.0
 10
28.468939
 20
14.056969
 30
0.0
 10
28.546794
 20
14.097105
 30
0.0
 10
28.629646
 20
14.036304
 30
0.0
 10
28.713987
 20
13.887909
 30
0.0
 10
28.796309
 20
13.665262
 30
0.0
 10
28.873103
 20
13.381706
 30
0.0
 10
28.940861
 20
13.050585
 30
0.0
 10
28.996074
 20
12.685242
 30
0.0
 10
29.035235
 20
12.299019
 30
0.0
 10
29.054835
 20
11.905261
 30
0.0
 10
29.051378
 20
11.517309
 30
0.0
 10
29.021328
 20
11.148507
 30
0.0
 10
28.961191
 20
10.812198
 30
0.0
 10
28.937827
 20
10.501471
 30
0.0
 10
28.957018
 20
10.206000
 30
0.0
 10
29.015648
 20
9.927376
 30
0.0
 10
29.110602
 20
9.667193
 30
0.0
 10
29.238762
 20
9.427044
 30
0.0
 10
29.397011
 20
9.208522
 30
0.0
 10
29.582234
 20
9.013220
 30
0.0
 10
29.791313
 20
8.842731
 30
0.0
 10
30.021132
 20
8.698648
 30
0.0
 10
30.268574
 20
8.582564
 30
0.0
 10
30.530522
 20
8.496071
 30
0.0
 10
30.803860
 20
8.440764
 30
0.0
 10
31.085472
 20
8.418233
 30
0.0
 10
31.372240
 20
8.430074
 30
0.0
 10
31.661048
 20
8.477879
 30
0.0
 10
31.948780
 20
8.563240
 30
0.0
 10
32.179178
 20
8.751558
 30
0.0
 10
32.356082
 20
8.986151
 30
0.0
 10
32.485456
 20
9.261861
 30
0.0
 10
32.573263
 20
9.573530
 30
0.0
 10
32.625465
 20
9.915999
 30
0.0
 10
32.648025
 20
10.284111
 30
0.0
 10
32.646907
 20
10.672706
 30
0.0
 10
32.628071
 20
11.076628
 30
0.0
 10
32.597482
 20
11.490717
 30
0.0
 10
32.561101
 20
11.909817
 30
0.0
 10
32.524892
 20
12.328767
 30
0.0
 10
32.494818
 20
12.742411
 30
0.0
 10
32.476841
 20
13.145590
 30
0.0
 10
32.476923
 20
13.533146
 30
0.0
 10
32.501028
 20
13.899922
 30
0.0
 10
32.555119
 20
14.240757
 30
0.0
 10
32.805802
 20
14.082163
 30
0.0
 10
32.998871
 20
13.865955
 30
0.0
 10
33.140710
 20
13.598516
 30
0.0
 10
33.237704
 20
13.286233
 30
0.0
 10
33.296236
 20
12.935488
 30
0.0
 10
33.322692
 20
12.552667
 30
0.0
 10
33.323454
 20
12.144153
 30
0.0
 10
33.304910
 20
11.716332
 30
0.0
 10
33.273442
 20
11.275587
 30
0.0
 10
33.235435
 20
10.828303
 30
0.0
 10
33.197274
 20
10.380864
 30
0.0
 10
33.165342
 20
9.939655
 30
0.0
 10
33.146024
 20
9.511059
 30
0.0
 10
33.145705
 20
9.101463
 30
0.0
 10
33.170769
 20
8.717249
 30
0.0
 10
33.227600
 20
8.364802
 30
0.0
 10
33.052870
 20
8.331603
 30
0.0
 10
32.878317
 20
8.300350
 30
0.0
 10
32.703876
 20
8.271143
 30
0.0
 10
32.529481
 20
8.244079
 30
0.0
 10
32.355066
 20
8.219258
 30
0.0
 10
32.180565
 20
8.196776
 30
0.0
 10
32.005913
 20
8.176732
 30
0.0
 10
31.831045
 20
8.159225
 30
0.0
 10
31.655894
 20
8.144353
 30
0.0
 10
31.480394
 20
8.132214
 30
0.0
 10
31.304480
 20
8.122905
 30
0.0
 10
31.128087
 20
8.116526
 30
0.0
 10
30.951148
 20
8.113175
 30
0.0
 10
30.773598
 20
8.112949
 30
0.0
 10
30.595371
 20
8.115947
 30
0.0
 10
30.416402
 20
8.122268
 30
0.0
  0
LWPOLYLINE
  5
102
100
AcDbEntity
  8
Layer_1
 62
7
100
AcDbPolyline
 90
81
 70
0
 10
37.391530
 20
8.108332
 30
0.0
 10
36.791544
 20
8.150395
 30
0.0
 10
36.261707
 20
8.317550
 30
0.0
 10
35.803044
 20
8.592971
 30
0.0
 10
35.416586
 20
8.959833
 30
0.0
 10
35.103359
 20
9.401311
 30
0.0
 10
34.864392
 20
9.900580
 30
0.0
 10
34.700714
 20
10.440813
 30
0.0
 10
34.613351
 20
11.005186
 30
0.0
 10
34.603332
 20
11.576872
 30
0.0
 10
34.671685
 20
12.139048
 30
0.0
 10
34.819439
 20
12.674886
 30
0.0
 10
35.047621
 20
13.167562
 30
0.0
 10
35.357259
 20
13.600251
 30
0.0
 10
35.749382
 20
13.956127
 30
0.0
 10
36.225017
 20
14.218364
 30
0.0
 10
36.785193
 20
14.370137
 30
0.0
 10
36.994144
 20
14.431566
 30
0.0
 10
37.219416
 20
14.443949
 30
0.0
 10
37.456207
 20
14.416767
 30
0.0
 10
37.699715
 20
14.359504
 30
0.0
 10
37.945139
 20
14.281644
 30
0.0
 10
38.187677
 20
14.192670
 30
0.0
 10
38.422527
 20
14.102065
 30
0.0
 10
38.644888
 20
14.019314
 30
0.0
 10
38.849958
 20
13.953900
 30
0.0
 10
39.032935
 20
13.915306
 30
0.0
 10
39.189018
 20
13.913013
 30
0.0
 10
39.313404
 20
13.956509
 30
0.0
 10
39.401292
 20
14.055277
 30
0.0
 10
39.447881
 20
14.218798
 30
0.0
 10
39.448368
 20
14.456556
 30
0.0
 10
39.397953
 20
14.778036
 30
0.0
 10
39.344682
 20
15.406100
 30
0.0
 10
39.331924
 20
15.933997
 30
0.0
 10
39.353721
 20
16.364656
 30
0.0
 10
39.404113
 20
16.701007
 30
0.0
 10
39.477143
 20
16.945977
 30
0.0
 10
39.566852
 20
17.102498
 30
0.0
 10
39.667281
 20
17.173496
 30
0.0
 10
39.772473
 20
17.161904
 30
0.0
 10
39.876469
 20
17.070647
 30
0.0
 10
39.973310
 20
16.902655
 30
0.0
 10
40.057038
 20
16.660858
 30
0.0
 10
40.121694
 20
16.348185
 30
0.0
 10
40.161321
 20
15.967564
 30
0.0
 10
40.169959
 20
15.521925
 30
0.0
 10
40.141650
 20
15.014197
 30
0.0
 10
40.070436
 20
14.447307
 30
0.0
 10
40.058717
 20
14.068548
 30
0.0
 10
40.053300
 20
13.685048
 30
0.0
 10
40.052974
 20
13.297717
 30
0.0
 10
40.056524
 20
12.907469
 30
0.0
 10
40.062740
 20
12.515215
 30
0.0
 10
40.070408
 20
12.121867
 30
0.0
 10
40.078315
 20
11.728336
 30
0.0
 10
40.085250
 20
11.335535
 30
0.0
 10
40.089999
 20
10.944375
 30
0.0
 10
40.091351
 20
10.555769
 30
0.0
 10
40.088091
 20
10.170628
 30
0.0
 10
40.079008
 20
9.789865
 30
0.0
 10
40.062889
 20
9.414390
 30
0.0
 10
40.038522
 20
9.045116
 30
0.0
 10
40.004694
 20
8.682954
 30
0.0
 10
39.960193
 20
8.328818
 30
0.0
 10
39.801459
 20
8.301364
 30
0.0
 10
39.642348
 20
8.274906
 30
0.0
 10
39.482889
 20
8.249619
 30
0.0
 10
39.323111
 20
8.225681
 30
0.0
 10
39.163044
 20
8.203271
 30
0.0
 10
39.002716
 20
8.182565
 30
0.0
 10
38.842157
 20
8.163742
 30
0.0
 10
38.681396
 20
8.146978
 30
0.0
 10
38.520461
 20
8.132452
 30
0.0
 10
38.359383
 20
8.120341
 30
0.0
 10
38.198191
 20
8.110822
 30
0.0
 10
38.036913
 20
8.104073
 30
0.0
 10
37.875579
 20
8.100272
 30
0.0
 10
37.714217
 20
8.099597
 30
0.0
 10
37.552858
 20
8.102224
 30
0.0
 10
37.391530
 20
8.108332
 30
0.0
  0
LWPOLYLINE
  5
103
100
AcDbEntity
  8
Layer_1
 62
7
100
AcDbPolyline
 90
49
 70
0
 10
37.777380
 20
8.461109
 30
0.0
 10
38.113870
 20
8.417029
 30
0.0
 10
38.404258
 20
8.419604
 30
0.0
 10
38.651705
 20
8.465277
 30
0.0
 10
38.859369
 20
8.550483
 30
0.0
 10
39.030408
 20
8.671664
 30
0.0
 10
39.167981
 20
8.825258
 30
0.0
 10
39.275247
 20
9.007703
 30
0.0
 10
39.355363
 20
9.215440
 30
0.0
 10
39.411489
 20
9.444906
 30
0.0
 10
39.446783
 20
9.692542
 30
0.0
 10
39.464403
 20
9.954787
 30
0.0
 10
39.467508
 20
10.228078
 30
0.0
 10
39.459257
 20
10.508856
 30
0.0
 10
39.442808
 20
10.793560
 30
0.0
 10
39.421321
 20
11.078628
 30
0.0
 10
39.397952
 20
11.360500
 30
0.0
 10
39.442461
 20
11.604048
 30
0.0
 10
39.473561
 20
11.847281
 30
0.0
 10
39.490197
 20
12.088051
 30
0.0
 10
39.491311
 20
12.324213
 30
0.0
 10
39.475850
 20
12.553621
 30
0.0
 10
39.442755
 20
12.774127
 30
0.0
 10
39.390972
 20
12.983585
 30
0.0
 10
39.319443
 20
13.179848
 30
0.0
 10
39.227114
 20
13.360770
 30
0.0
 10
39.112928
 20
13.524204
 30
0.0
 10
38.975828
 20
13.668004
 30
0.0
 10
38.814760
 20
13.790023
 30
0.0
 10
38.628666
 20
13.888114
 30
0.0
 10
38.416490
 20
13.960132
 30
0.0
 10
38.177177
 20
14.003929
 30
0.0
 10
37.909671
 20
14.017359
 30
0.0
 10
37.301336
 20
14.046558
 30
0.0
 10
36.775651
 20
13.934394
 30
0.0
 10
36.332051
 20
13.700401
 30
0.0
 10
35.969969
 20
13.364117
 30
0.0
 10
35.688840
 20
12.945078
 30
0.0
 10
35.488096
 20
12.462820
 30
0.0
 10
35.367174
 20
11.936878
 30
0.0
 10
35.325505
 20
11.386788
 30
0.0
 10
35.362524
 20
10.832088
 30
0.0
 10
35.477665
 20
10.292313
 30
0.0
 10
35.670363
 20
9.786999
 30
0.0
 10
35.940051
 20
9.335682
 30
0.0
 10
36.286162
 20
8.957899
 30
0.0
 10
36.708131
 20
8.673185
 30
0.0
 10
37.205393
 20
8.501076
 30
0.0
 10
37.777380
 20
8.461109
 30
0.0
  0
LWPOLYLINE
  5
104
100
AcDbEntity
  8
Layer_1
 62
7
100
AcDbPolyline
 90
49
 70
0
 10
44.226982
 20
8.097204
 30
0.0
 10
43.616207
 20
8.192595
 30
0.0
 10
43.087515
 20
8.407951
 30
0.0
 10
42.640787
 20
8.726119
 30
0.0
 10
42.275904
 20
9.129948
 30
0.0
 10
41.992748
 20
9.602285
 30
0.0
 10
41.791200
 20
10.125980
 30
0.0
 10
41.671140
 20
10.683879
 30
0.0
 10
41.632451
 20
11.258832
 30
0.0
 10
41.675013
 20
11.833686
 30
0.0
 10
41.798707
 20
12.391289
 30
0.0
 10
42.003416
 20
12.914489
 30
0.0
 10
42.289019
 20
13.386134
 30
0.0
 10
42.655398
 20
13.789073
 30
0.0
 10
43.102435
 20
14.106153
 30
0.0
 10
43.630011
 20
14.320224
 30
0.0
 10
44.238006
 20
14.414131
 30
0.0
 10
44.938238
 20
14.449887
 30
0.0
 10
45.554908
 20
14.328122
 30
0.0
 10
46.086761
 20
14.070270
 30
0.0
 10
46.532544
 20
13.697763
 30
0.0
 10
46.891002
 20
13.232035
 30
0.0
 10
47.160882
 20
12.694517
 30
0.0
 10
47.340931
 20
12.106643
 30
0.0
 10
47.429893
 20
11.489847
 30
0.0
 10
47.426516
 20
10.865559
 30
0.0
 10
47.329546
 20
10.255215
 30
0.0
 10
47.137729
 20
9.680245
 30
0.0
 10
46.849810
 20
9.162084
 30
0.0
 10
46.464537
 20
8.722164
 30
0.0
 10
45.980656
 20
8.381918
 30
0.0
 10
45.396911
 20
8.162779
 30
0.0
 10
44.712051
 20
8.086180
 30
0.0
 10
44.681741
 20
8.086910
 30
0.0
 10
44.651410
 20
8.087222
 30
0.0
 10
44.621062
 20
8.087206
 30
0.0
 10
44.590702
 20
8.086948
 30
0.0
 10
44.560335
 20
8.086539
 30
0.0
 10
44.529964
 20
8.086066
 30
0.0
 10
44.499593
 20
8.085615
 30
0.0
 10
44.469226
 20
8.085277
 30
0.0
 10
44.438870
 20
8.085139
 30
0.0
 10
44.408527
 20
8.085291
 30
0.0
 10
44.378203
 20
8.085820
 30
0.0
 10
44.347899
 20
8.086815
 30
0.0
 10
44.317620
 20
8.088363
 30
0.0
 10
44.287373
 20
8.090554
 30
0.0
 10
44.257161
 20
8.093471
 30
0.0
 10
44.226982
 20
8.097204
 30
0.0
  0
LWPOLYLINE
  5
105
100
AcDbEntity
  8
Layer_1
 62
7
100
AcDbPolyline
 90
33
 70
0
 10
44.546687
 20
8.461006
 30
0.0
 10
45.112691
 20
8.541485
 30
0.0
 10
45.593344
 20
8.748598
 30
0.0
 10
45.989778
 20
9.062772
 30
0.0
 10
46.303128
 20
9.464435
 30
0.0
 10
46.534528
 20
9.934014
 30
0.0
 10
46.685111
 20
10.451937
 30
0.0
 10
46.756012
 20
10.998633
 30
0.0
 10
46.748363
 20
11.554527
 30
0.0
 10
46.663300
 20
12.100049
 30
0.0
 10
46.501955
 20
12.615626
 30
0.0
 10
46.265462
 20
13.081685
 30
0.0
 10
45.954956
 20
13.478654
 30
0.0
 10
45.571570
 20
13.786961
 30
0.0
 10
45.116438
 20
13.987033
 30
0.0
 10
44.590694
 20
14.059298
 30
0.0
 10
43.995471
 20
13.984183
 30
0.0
 10
43.568895
 20
13.814937
 30
0.0
 10
43.205219
 20
13.559436
 30
0.0
 10
42.904136
 20
13.231136
 30
0.0
 10
42.665341
 20
12.843493
 30
0.0
 10
42.488528
 20
12.409964
 30
0.0
 10
42.373388
 20
11.944003
 30
0.0
 10
42.319617
 20
11.459068
 30
0.0
 10
42.326909
 20
10.968614
 30
0.0
 10
42.394955
 20
10.486096
 30
0.0
 10
42.523450
 20
10.024971
 30
0.0
 10
42.712088
 20
9.598696
 30
0.0
 10
42.960561
 20
9.220724
 30
0.0
 10
43.268565
 20
8.904514
 30
0.0
 10
43.635791
 20
8.663520
 30
0.0
 10
44.061934
 20
8.511199
 30
0.0
 10
44.546687
 20
8.461006
 30
0.0
  0
ENDSEC
  0
SECTION
  2
OBJECTS
  0
DICTIONARY
  5
C
330
0
100
AcDbDictionary
  3
ACAD_GROUP
350
D
  3
ACAD_MLINESTYLE
350
17
  0
DICTIONARY
  5
D
330
C
100
AcDbDictionary
  0
DICTIONARY
  5
1A
330
C
100
AcDbDictionary
  0
DICTIONARY
  5
17
330
C
100
AcDbDictionary
  3
STANDARD
350
18
  0
DICTIONARY
  5
19
330
C
100
AcDbDictionary
  0
ENDSEC
  0
EOF
