<?xml version="1.0" encoding="UTF-8" standalone="no"?>
<!-- Created with Inkscape (http://www.inkscape.org/) -->

<svg
   xmlns:dc="http://purl.org/dc/elements/1.1/"
   xmlns:cc="http://creativecommons.org/ns#"
   xmlns:rdf="http://www.w3.org/1999/02/22-rdf-syntax-ns#"
   xmlns:svg="http://www.w3.org/2000/svg"
   xmlns="http://www.w3.org/2000/svg"
   xmlns:sodipodi="http://sodipodi.sourceforge.net/DTD/sodipodi-0.dtd"
   xmlns:inkscape="http://www.inkscape.org/namespaces/inkscape"
   width="98.244278"
   height="77.475868"
   id="svg4480"
   version="1.1"
   inkscape:version="0.48.4 r9939"
   sodipodi:docname="sudo.dxf">
  <defs
     id="defs4482">
    <clipPath
       clipPathUnits="userSpaceOnUse"
       id="clipPath3502">
      <path
         inkscape:connector-curvature="0"
         d="m 0,0 1024,0 0,768 L 0,768 0,0 z"
         id="path3504" />
    </clipPath>
  </defs>
  <sodipodi:namedview
     id="base"
     pagecolor="#ffffff"
     bordercolor="#666666"
     borderopacity="1.0"
     inkscape:pageopacity="0.0"
     inkscape:pageshadow="2"
     inkscape:zoom="9.795415"
     inkscape:cx="64.537515"
     inkscape:cy="36.109154"
     inkscape:document-units="px"
     inkscape:current-layer="layer1"
     showgrid="false"
     fit-margin-top="10"
     fit-margin-left="10"
     fit-margin-right="10"
     fit-margin-bottom="10"
     inkscape:window-width="1280"
     inkscape:window-height="784"
     inkscape:window-x="0"
     inkscape:window-y="0"
     inkscape:window-maximized="0" />
  <metadata
     id="metadata4485">
    <rdf:RDF>
      <cc:Work
         rdf:about="">
        <dc:format>image/svg+xml</dc:format>
        <dc:type
           rdf:resource="http://purl.org/dc/dcmitype/StillImage" />
        <dc:title></dc:title>
      </cc:Work>
    </rdf:RDF>
  </metadata>
  <g
     inkscape:label="Layer 1"
     inkscape:groupmode="layer"
     id="layer1"
     transform="translate(-306.1437,-487.2827)">
    <g
       id="g3214"
       transform="matrix(1.25,0,0,-1.25,325.18245,518.7852)">
      <path
         d="m 0,0.31875 c 0.27125,0 0.522625,0.0264499 0.75417188,0.0694372 C 0.98571875,0.43117451 1.1974375,0.49069927 1.389375,0.55684902 1.5813125,0.62299878 1.7534688,0.69577354 1.9058906,0.76526085 2.0583125,0.83474817 2.191,0.90094805 2.304,0.95394805 2.4165,1.007198 2.5023705,1.047728 2.5691032,1.0842688 c 0.066733,0.036541 0.1143277,0.069092 0.1502767,0.1063857 0.035949,0.037293 0.060252,0.079328 0.080401,0.1348358 0.020149,0.055508 0.036143,0.1244875 0.055476,0.2156709 0.024629,0.1161678 0.026428,0.2217778 0.00618,0.3204422 -0.02025,0.098664 -0.062548,0.190383 -0.1261123,0.2787682 C 2.6717576,2.2287569 2.5869271,2.3138086 2.4816127,2.399139 2.3762983,2.4844695 2.2505,2.5700786 2.105,2.6595786 1.95925,2.7488286 1.7945,2.8409536 1.6107344,2.9359849 1.4269687,3.0310161 1.2241875,3.1289536 1.002375,3.2298286 0.7805625,3.3307036 0.53971875,3.4345161 0.27982812,3.5412974 0.0199375,3.6480786 -0.259,3.7578286 -0.557,3.8705786 -0.78875,3.9568286 -1.0150625,4.0438911 -1.2359687,4.1317348 -1.456875,4.2195786 -1.672375,4.3082036 -1.8825,4.3975786 -2.092625,4.4869536 -2.297375,4.5770786 -2.4967813,4.6679223 -2.6961875,4.7587661 -2.89025,4.8503286 -3.079,4.9425786 c -0.18875,0.093 -0.3704375,0.190375 -0.5450937,0.2922031 C -3.79875,5.3366099 -3.966375,5.4428911 -4.127,5.5537036 -4.287625,5.6645161 -4.44125,5.7798599 -4.5879062,5.899813 -4.7345625,6.0197661 -4.87425,6.1443286 -5.007,6.2735786 c -0.13225,0.129 -0.2570625,0.26425 -0.3744375,0.4057656 C -5.4988125,6.8208599 -5.60875,6.9686411 -5.71125,7.1227036 -5.81375,7.2767661 -5.9088125,7.4371099 -5.9964375,7.6037505 -6.0840625,7.7703911 -6.16425,7.9433286 -6.237,8.1225786 -6.31,8.3008286 -6.3738125,8.4971049 -6.4284687,8.7070038 -6.483125,8.9169027 -6.528625,9.1404241 -6.565,9.3731643 -6.601375,9.6059045 -6.628625,9.8478634 -6.6467813,10.094637 -6.6649375,10.341411 -6.674,10.593 -6.674,10.845 c 0,0.48975 0.0455,0.953875 0.1365156,1.392359 0.091016,0.438485 0.2275469,0.851329 0.4096094,1.238516 0.1820625,0.387188 0.4096563,0.748719 0.6827969,1.084578 0.2731406,0.33586 0.5918281,0.646047 0.9560781,0.930547 0.36375,0.285 0.7615625,0.534438 1.1934062,0.748281 0.4318438,0.213844 0.8977188,0.392094 1.3975938,0.534719 0.499875,0.142625 1.03375,0.249625 1.60159375,0.320969 C 0.2714375,17.166313 0.87325,17.202 1.509,17.202 c 0.31775,0 0.6321875,-0.0071 0.9433281,-0.02133 0.3111406,-0.0142 0.6189844,-0.03549 0.9235469,-0.0638 0.3045625,-0.02831 0.6058437,-0.06366 0.9038594,-0.105984 C 4.57775,16.968563 4.8725,16.91925 5.164,16.863 5.455,16.8065 5.7311875,16.748813 5.9925469,16.689922 6.2539063,16.631031 6.5004375,16.570938 6.732125,16.509625 6.9638125,16.448313 7.1806563,16.385781 7.3826406,16.322016 7.584625,16.25825 7.77175,16.19325 7.944,16.127 L 7.68575,14.91275 7.4275,13.6985 7.16925,12.48425 6.911,11.27 C 6.73875,11.3295 6.562875,11.387312 6.3833281,11.443484 6.2037813,11.499656 6.0205625,11.554188 5.833625,11.607125 5.6466875,11.660062 5.4560312,11.711406 5.2616094,11.761203 5.0671875,11.811 4.869,11.85925 4.667,11.906 c -0.202,0.046 -0.4101883,0.08669 -0.6245643,0.121774 -0.214376,0.03508 -0.4349397,0.06456 -0.6616905,0.08812 -0.2267508,0.02357 -0.4596887,0.04123 -0.6988131,0.05268 -0.2391244,0.01145 -0.4844353,0.01669 -0.7359321,0.01543 -0.4348132,-0.0022 -0.7725215,-0.0139 -1.0420787,-0.03798 -0.26955718,-0.02407 -0.47096327,-0.0605 -0.63317216,-0.112117 -0.1622089,-0.05161 -0.28522059,-0.118411 -0.39798897,-0.20322 -0.11276839,-0.08481 -0.21529346,-0.187629 -0.33652911,-0.311289 -0.0700005,-0.0714 -0.12459777,-0.148483 -0.16422683,-0.232621 -0.0396291,-0.08414 -0.0642899,-0.17533 -0.0744173,-0.274949 -0.0101274,-0.09962 -0.005721,-0.207663 0.0127829,-0.325504 0.0185044,-0.117842 0.0511073,-0.245481 0.0973738,-0.384289 0.01975,-0.04625 0.0368285,-0.08887 0.0550557,-0.129464 0.0182271,-0.04059 0.0376029,-0.07915 0.0619475,-0.117269 0.0243445,-0.03812 0.0536578,-0.075805 0.09176,-0.1146454 C -0.34539102,9.9018139 -0.2985,9.861816 -0.239,9.819066 -0.17925,9.775566 -0.1141875,9.7313785 -0.04379687,9.6864254 0.02659375,9.6414723 0.1023125,9.5957535 0.183375,9.549191 0.2644375,9.5026285 0.35084375,9.4552223 0.44260938,9.4068941 0.534375,9.358566 0.6315,9.309316 0.734,9.259066 0.83675,9.209066 0.9465,9.157816 1.0632656,9.1053473 1.1800312,9.0528785 1.3038125,8.999191 1.434625,8.944316 1.5654375,8.889441 1.7032813,8.8333785 1.8481719,8.7761598 1.9930625,8.718941 2.145,8.660566 2.304,8.601066 2.628,8.480316 2.9380625,8.360191 3.2341406,8.2406285 3.5302188,8.121066 3.8123125,8.002066 4.080375,7.883566 4.3484375,7.765066 4.6024688,7.647066 4.8424219,7.5295035 5.082375,7.411941 5.30825,7.294816 5.52,7.178066 5.732,7.061066 5.9328125,6.9351869 6.1224375,6.8037119 6.3120625,6.672237 6.4905,6.5351662 6.65775,6.395783 6.825,6.2563998 6.9810625,6.114704 7.1259375,5.9739791 7.2708125,5.8332541 7.4045,5.6935 7.527,5.558 7.6495,5.42275 7.762875,5.2836875 7.867125,5.1408438 7.971375,4.998 8.0665,4.851375 8.1525,4.701 8.2385,4.550625 8.315375,4.3965 8.383125,4.2386563 8.450875,4.0808125 8.5095,3.91925 8.559,3.754 8.60875,3.58875 8.6523125,3.417 8.6896719,3.2387031 8.7270313,3.0604063 8.7581875,2.8755625 8.783125,2.684125 8.8080625,2.4926875 8.8267813,2.2946562 8.8392656,2.0899844 8.85175,1.8853125 8.858,1.674 8.858,1.456 8.858,0.94075 8.8095625,0.4568125 8.7127031,0.00420313 8.6158438,-0.44840625 8.4705625,-0.8696875 8.276875,-1.259625 8.0831875,-1.6495625 7.8410938,-2.0081563 7.5506094,-2.3353906 7.260125,-2.662625 6.92125,-2.9585 6.534,-3.223 6.14675,-3.487 5.7193125,-3.7179375 5.2517188,-3.9158437 4.784125,-4.11375 4.276375,-4.278625 3.7285,-4.4105 3.180625,-4.542375 2.592625,-4.64125 1.9645312,-4.7071563 1.3364375,-4.7730625 0.66825,-4.806 -0.04,-4.806 c -0.4635,0 -0.9075625,0.00988 -1.3321719,0.029641 -0.4246094,0.019766 -0.8297656,0.049422 -1.2154531,0.088984 -0.3856875,0.039563 -0.7519062,0.089031 -1.0986406,0.1484219 C -4.033,-4.4795625 -4.36025,-4.41025 -4.668,-4.331 c -0.308,0.07975 -0.5923125,0.1560625 -0.853,0.229 -0.2606875,0.072938 -0.49775,0.1425 -0.71125,0.20875 -0.2135,0.06625 -0.4034375,0.1291875 -0.569875,0.188875 C -6.9685625,-3.6446875 -7.1115,-3.58825 -7.231,-3.535 l 0.2485,1.2810495 0.2485,1.28104955 0.2485,1.28104952 0.2485,1.28104953 c 0.2515,-0.09925 0.5046875,-0.1931875 0.7595469,-0.2817656 0.2548593,-0.088578 0.5113906,-0.1717969 0.7695781,-0.2496094 0.2581875,-0.0778125 0.5180312,-0.15021879 0.7795156,-0.21717192 C -3.666875,0.77369805 -3.40375,0.71219805 -3.139,0.65619805 c 0.26475,-0.05675 0.5286875,-0.10625 0.7918281,-0.14857812 0.2631407,-0.0423281 0.5254844,-0.0774844 0.7870469,-0.10554688 0.2615625,-0.0280625 0.5223438,-0.0490312 0.78235938,-0.0629844 C -0.51775,0.32513555 -0.2585,0.31819805 0,0.31819805"
         style="fill:#ed1d24;fill-opacity:1;fill-rule:nonzero;stroke:none"
         id="path3216"
         inkscape:connector-curvature="0"
         sodipodi:nodetypes="cssscssssssscssscssscssscssscssssssscssssssscssscccccssscssssssssssscssscssscssscssscssscssscssssssscssssssscssscccccssscsssc" />
    </g>
    <g
       id="g3218"
       transform="matrix(1.25,0,0,-1.25,355.18351,534.93237)">
      <path
         d="m 0,0 c -0.126,-0.036625 -0.25653125,-0.07289062 -0.3915957,-0.10880664 -0.13506446,-0.035916 -0.27466211,-0.0714824 -0.41879492,-0.10670898 -0.14413282,-0.0352266 -0.29280078,-0.0701133 -0.44600588,-0.10466993 -0.1532051,-0.0345566 -0.3109472,-0.0687832 -0.4732285,-0.10268945 -0.1622812,-0.0339063 -0.3291016,-0.0674922 -0.5004629,-0.10076758 -0.1713613,-0.0332754 -0.3472637,-0.0662402 -0.527709,-0.0989043 -0.1804453,-0.0326641 -0.3654336,-0.0650274 -0.5549668,-0.0970996 C -3.5022969,-0.75171875 -3.696375,-0.7835 -3.895,-0.815 c -0.1985,-0.031375 -0.3982656,-0.0607969 -0.599293,-0.0882637 -0.2010273,-0.0274668 -0.4033164,-0.0529785 -0.6068632,-0.0765332 -0.2035469,-0.0235547 -0.4083516,-0.0451523 -0.6144102,-0.064791 -0.2060586,-0.019639 -0.4133711,-0.037318 -0.6219336,-0.053037 -0.2085625,-0.015719 -0.418375,-0.029477 -0.6294336,-0.041271 -0.2110586,-0.011795 -0.4233633,-0.021627 -0.6369101,-0.029494 -0.2135469,-0.00787 -0.428336,-0.01377 -0.6443633,-0.017705 C -8.4642344,-1.1900312 -8.6815,-1.192 -8.9,-1.192 c -0.22175,0 -0.438875,0.0037 -0.6513672,0.011117 -0.2124922,0.00741 -0.4203516,0.018539 -0.6235698,0.033383 -0.203219,0.014844 -0.401797,0.033406 -0.595727,0.055695 -0.19393,0.022289 -0.383211,0.048305 -0.567836,0.078055 -0.184625,0.02975 -0.364594,0.0632344 -0.539898,0.10046094 -0.175305,0.0372266 -0.345946,0.0781953 -0.511914,0.12291406 -0.165969,0.0447188 -0.327266,0.0931875 -0.483883,0.14541406 C -13.030813,-0.59273437 -13.18275,-0.53675 -13.33,-0.477 c -0.14725,0.059625 -0.290672,0.12225 -0.430266,0.187875 -0.139593,0.065625 -0.275359,0.13425 -0.407297,0.205875 -0.131937,0.071625 -0.260046,0.14625 -0.384328,0.223875 -0.124281,0.077625 -0.244734,0.15825 -0.361359,0.241875 -0.116625,0.083625 -0.229422,0.17025 -0.338391,0.259875 -0.108968,0.089625 -0.214109,0.18225 -0.315422,0.277875 -0.101312,0.095625 -0.198796,0.19425 -0.292453,0.295875 C -15.953172,1.31775 -16.043,1.422375 -16.129,1.53 c -0.08612,0.107375 -0.169156,0.217375 -0.249088,0.3299941 -0.07993,0.1126192 -0.156764,0.2278575 -0.23049,0.345709 -0.07373,0.1178516 -0.144348,0.2383164 -0.211858,0.3613887 -0.06751,0.1230723 -0.131908,0.248752 -0.193189,0.3770332 -0.06128,0.1282812 -0.119445,0.2591641 -0.174486,0.3926426 -0.05504,0.1334785 -0.106959,0.2695527 -0.155748,0.4082168 -0.04879,0.138664 -0.09445,0.2799179 -0.136975,0.4237558 C -17.523359,4.3125781 -17.56275,4.459 -17.599,4.608 c -0.0365,0.148875 -0.0707,0.299625 -0.102613,0.452248 -0.03191,0.1526231 -0.06153,0.3071192 -0.08886,0.4634864 -0.02733,0.1563672 -0.05237,0.3146054 -0.07512,0.4747129 -0.02275,0.1601074 -0.04322,0.322084 -0.06141,0.4859277 -0.01819,0.1638438 -0.03409,0.3295547 -0.04772,0.4971309 -0.01363,0.1675761 -0.02498,0.3370175 -0.03406,0.5083222 -0.0091,0.1713047 -0.01588,0.3444727 -0.02042,0.519502 C -18.033734,8.1843594 -18.036,8.36125 -18.036,8.54 l 0,1.455 0,1.455 0,1.455 0,1.455 0,1.455 0,1.455 0,1.455 0,1.455 0.739875,0 0.739875,0 0.739875,0 0.739875,0 0.739875,0 0.739875,0 0.739875,0 0.739875,0 0,-1.21127 0,-1.211269 0,-1.21127 0,-1.211269 0,-1.21127 0,-1.21127 0,-1.211269 0,-1.21127 c 0,-0.2385 0.0039,-0.468703 0.01177,-0.6906114 0.0078,-0.2219083 0.01962,-0.4355216 0.03531,-0.6408419 0.0157,-0.2053203 0.03532,-0.4023477 0.05887,-0.591084 0.02355,-0.1887364 0.05103,-0.3691817 0.08243,-0.541338 0.03141,-0.1721562 0.06674,-0.3360234 0.10601,-0.4916035 0.03927,-0.1555801 0.08247,-0.3028731 0.129599,-0.4418809 0.04713,-0.1390078 0.0982,-0.2697304 0.153202,-0.3921699 0.055,-0.1224394 0.113939,-0.2365957 0.176814,-0.3424707 0.063,-0.106125 0.132828,-0.2055937 0.20948,-0.2984121 0.07665,-0.092818 0.160129,-0.1789863 0.250426,-0.2585098 0.0903,-0.079523 0.187414,-0.1524023 0.291348,-0.2186426 0.103933,-0.06624 0.214684,-0.1258417 0.332246,-0.1788105 0.117563,-0.052969 0.241938,-0.099305 0.3731211,-0.1390137 0.1311836,-0.039709 0.2691758,-0.072791 0.4139727,-0.099252 0.1447968,-0.026461 0.2963984,-0.046301 0.4548007,-0.059525 C -8.8792031,5.0924521 -8.714,5.0858427 -8.542,5.0858427 c 0.052875,0 0.1061719,3.281e-4 0.1598926,9.785e-4 0.053721,6.504e-4 0.1078652,0.00162 0.1624355,0.00291 0.05457,0.00129 0.1095664,0.00289 0.1649903,0.00481 0.055424,0.00192 0.1112753,0.00414 0.1675566,0.00667 0.056281,0.00253 0.1129922,0.00537 0.1701348,0.0085 0.057142,0.00313 0.1147168,0.00657 0.1727246,0.010295 0.058008,0.00373 0.1164492,0.00775 0.1753261,0.012053 0.058877,0.00431 0.1181895,0.0089 0.1779395,0.013775 0.0595,0.00488 0.1181719,0.00984 0.1760176,0.014914 0.057846,0.00507 0.1148652,0.010242 0.1710605,0.015523 0.056195,0.00528 0.1115664,0.010672 0.1661153,0.01618 0.054549,0.00551 0.1082754,0.011133 0.1611816,0.016883 0.052906,0.00575 0.1049922,0.011625 0.1562598,0.017633 0.051268,0.00601 0.1017168,0.012149 0.1513496,0.01843 0.049633,0.00628 0.098449,0.012703 0.1464511,0.019273 0.048002,0.00657 0.09519,0.013289 0.1415645,0.020164 l 0,1.8618947 0,1.8618946 0,1.861895 0,1.861894 0,1.861895 0,1.861895 0,1.861894 0,1.861895 0.740125,0 0.740125,0 0.740125,0 0.740125,0 0.740125,0 0.740125,0 0.740125,0 L 0,20.18 0,17.6575 0,15.135 0,12.6125 0,10.09 0,7.5675 0,5.045 0,2.5225 z"
         style="fill:#ed1d24;fill-opacity:1;fill-rule:nonzero;stroke:none"
         id="path3220"
         inkscape:connector-curvature="0"
         sodipodi:nodetypes="cssssssscssssssssssssssscssssssscssssssscsssssssscccccccccccccccccccccccsssssssscssssssssssssssscsssssssccccccccccccccccccccccccc" />
    </g>
    <g
       id="g3222"
       transform="matrix(1.25,0,0,-1.25,375.92131,544.96519)">
      <path
         d="M 0,0 C -0.066375,-0.019875 -0.13395312,-0.03964063 -0.20274219,-0.05930078 -0.27153125,-0.07896094 -0.34153125,-0.09851563 -0.41275,-0.11796875 -0.48396875,-0.13742188 -0.55640625,-0.15677344 -0.63007031,-0.17602734 -0.70373437,-0.19528125 -0.778625,-0.2144375 -0.85475,-0.2335 c -0.076125,-0.0190625 -0.1534844,-0.0380312 -0.2320859,-0.0569102 -0.078602,-0.0188789 -0.1584454,-0.037668 -0.2395391,-0.0563711 -0.081094,-0.0187031 -0.1634375,-0.0373203 -0.2470391,-0.0558555 C -1.6570156,-0.42117188 -1.741875,-0.439625 -1.828,-0.458 c -0.086125,-0.018125 -0.17275,-0.0359687 -0.259877,-0.0535234 -0.087127,-0.0175547 -0.1747558,-0.0348203 -0.2628886,-0.0517891 -0.088133,-0.0169687 -0.1767696,-0.0336406 -0.2659121,-0.0500078 C -2.7058203,-0.6296875 -2.7954688,-0.64575 -2.885625,-0.6615 c -0.090156,-0.01575 -0.1808203,-0.0311875 -0.2719941,-0.0463047 -0.091174,-0.0151172 -0.1828575,-0.0299141 -0.2750528,-0.0443828 -0.092195,-0.0144688 -0.1849023,-0.0286094 -0.278123,-0.0424141 C -3.8040156,-0.80840625 -3.89775,-0.821875 -3.992,-0.835 c -0.0945,-0.013125 -0.1891719,-0.0259531 -0.2840234,-0.0384824 -0.094852,-0.0125293 -0.1898828,-0.0247598 -0.2851016,-0.0366895 -0.095219,-0.0119297 -0.190625,-0.0235586 -0.2862266,-0.0348848 -0.095602,-0.0113262 -0.1913984,-0.0223496 -0.2873984,-0.0330684 -0.096,-0.0107187 -0.1922031,-0.0211328 -0.2886172,-0.0312402 -0.096414,-0.010107 -0.193039,-0.019908 -0.2898828,-0.0294 -0.096844,-0.00949 -0.1939062,-0.018676 -0.2911953,-0.027549 C -6.1017344,-1.0751875 -6.19925,-1.08375 -6.297,-1.092 c -0.09775,-0.00825 -0.1949375,-0.016 -0.2915742,-0.023246 -0.096637,-0.00725 -0.1927227,-0.013988 -0.2882695,-0.020223 -0.095547,-0.00623 -0.1905547,-0.011961 -0.2850352,-0.017176 -0.094481,-0.00521 -0.1884336,-0.00992 -0.2818711,-0.014105 -0.093438,-0.00419 -0.1863594,-0.00786 -0.2787773,-0.011012 -0.092418,-0.00315 -0.1843321,-0.00579 -0.275754,-0.00789 -0.091422,-0.00211 -0.1823515,-0.0037 -0.2728007,-0.00475 C -8.3615313,-1.1914688 -8.4515,-1.192 -8.541,-1.192 c -0.21525,0 -0.4275938,0.00394 -0.6370313,0.01181 -0.2094375,0.00787 -0.4159687,0.019682 -0.6195937,0.035424 -0.203625,0.015742 -0.404344,0.035418 -0.602156,0.059025 -0.197813,0.023607 -0.392719,0.051146 -0.584719,0.082615 -0.192,0.0314688 -0.381094,0.0668672 -0.567281,0.10619336 -0.186188,0.0393262 -0.369469,0.0825801 -0.549844,0.12975977 -0.180375,0.0471797 -0.357844,0.0982851 -0.532406,0.15331445 -0.174563,0.0550293 -0.346219,0.11398242 -0.514969,0.17685742 -0.168875,0.06275 -0.334438,0.1289375 -0.496688,0.19856055 -0.16225,0.069623 -0.321187,0.14268164 -0.476812,0.21917382 -0.155625,0.07649219 -0.307937,0.15641797 -0.456937,0.2397754 -0.149001,0.0833574 -0.294688,0.17014648 -0.437063,0.26036523 -0.142375,0.0902187 -0.281438,0.18386719 -0.417188,0.28094336 -0.13575,0.0970762 -0.268187,0.19758008 -0.397312,0.30150974 -0.129125,0.1039297 -0.254937,0.2112852 -0.377438,0.3220645 C -16.330937,1.4961719 -16.450125,1.610375 -16.566,1.728 c -0.115875,0.117375 -0.228328,0.237875 -0.337361,0.361498 -0.109034,0.1236231 -0.214647,0.2503692 -0.316842,0.3802364 -0.102195,0.1298672 -0.200973,0.2628554 -0.296334,0.3989629 -0.09536,0.1361074 -0.187307,0.275334 -0.275838,0.4176777 -0.08853,0.1423438 -0.173648,0.2878047 -0.255354,0.4363809 -0.0817,0.1485761 -0.159998,0.3002675 -0.23488,0.4550722 -0.07488,0.1548047 -0.146356,0.3127227 -0.21442,0.473752 C -18.565094,4.8126094 -18.62975,4.97675 -18.691,5.144 c -0.06125,0.166875 -0.118672,0.3363906 -0.172266,0.508541 -0.05359,0.1721504 -0.103359,0.3469356 -0.149297,0.5243496 -0.04594,0.1774141 -0.08805,0.3574571 -0.126328,0.5401231 -0.03828,0.182666 -0.07273,0.367955 -0.103359,0.5558613 -0.03063,0.1879063 -0.05742,0.3784297 -0.08039,0.5715645 -0.02297,0.1931347 -0.04211,0.3888808 -0.05742,0.5872324 -0.01531,0.1983515 -0.0268,0.3993086 -0.03445,0.6028652 C -19.422172,9.2380938 -19.426,9.44425 -19.426,9.653 c 0,0.21175 0.0033,0.420922 0.0099,0.62752 0.0066,0.206597 0.0165,0.410621 0.02971,0.612074 0.01321,0.201453 0.02973,0.400336 0.04957,0.596652 0.01983,0.196317 0.04298,0.390067 0.06945,0.581254 0.02647,0.191188 0.05626,0.379813 0.08937,0.565879 0.03311,0.186066 0.06956,0.369574 0.10933,0.550527 0.03977,0.180953 0.08288,0.359352 0.129322,0.535199 0.04644,0.175848 0.09623,0.349145 0.14935,0.519895 0.053,0.170375 0.108891,0.337531 0.167672,0.501477 0.05878,0.163945 0.120453,0.324679 0.185016,0.482211 0.06456,0.157531 0.132015,0.311859 0.202359,0.462992 0.07034,0.151133 0.143578,0.29907 0.219703,0.44382 0.07613,0.14475 0.155141,0.286313 0.237047,0.424695 0.08191,0.138383 0.166703,0.273586 0.25439,0.405618 0.08769,0.132031 0.178266,0.26089 0.271735,0.386585 0.09347,0.125696 0.189828,0.248227 0.289078,0.367602 0.09938,0.119125 0.201531,0.234734 0.306471,0.346828 0.104939,0.112094 0.212662,0.220672 0.32317,0.325735 0.110507,0.105062 0.2238,0.206609 0.33988,0.30464 0.116081,0.09803 0.234948,0.192547 0.356604,0.283547 0.121656,0.091 0.246102,0.178484 0.373338,0.262453 0.127236,0.08397 0.257264,0.164422 0.390084,0.24136 0.13282,0.07694 0.268433,0.150359 0.406842,0.220265 0.138408,0.06991 0.279611,0.136297 0.423611,0.199172 0.144,0.06288 0.290578,0.121844 0.439736,0.1769 0.149159,0.05506 0.300897,0.106202 0.455217,0.153428 0.15432,0.04723 0.311223,0.09053 0.470709,0.12992 0.159486,0.03938 0.321557,0.07485 0.486213,0.106377 0.164656,0.03153 0.331898,0.05913 0.501729,0.0828 0.16983,0.02367 0.342248,0.0434 0.517255,0.05918 0.175008,0.01579 0.352606,0.02764 0.532795,0.03554 0.18019,0.0079 0.362971,0.01185 0.548346,0.01185 0.102625,0 0.2039063,-0.0013 0.3038457,-0.0038 0.099939,-0.0025 0.1985371,-0.0063 0.2957949,-0.01134 0.097258,-0.005 0.1931758,-0.01131 0.2877559,-0.01884 0.09458,-0.0075 0.1878223,-0.01629 0.2797285,-0.02629 0.091906,-0.01 0.1824766,-0.02123 0.2717129,-0.0337 0.089236,-0.01246 0.1771387,-0.02615 0.263709,-0.04106 0.08657,-0.01491 0.1718086,-0.03103 0.2557168,-0.04837 0.083908,-0.01734 0.1664863,-0.03588 0.2477363,-0.05563 0.081125,-0.01987 0.1623437,-0.04081 0.2436582,-0.0628 0.081315,-0.02199 0.1627246,-0.04503 0.2442324,-0.06912 0.081508,-0.02409 0.1631133,-0.04922 0.2448184,-0.07538 0.081705,-0.02616 0.1635098,-0.05336 0.245416,-0.08158 0.081906,-0.02822 0.1639141,-0.05746 0.2460254,-0.08772 0.082111,-0.03026 0.1643262,-0.06152 0.2466465,-0.0938 0.08232,-0.03227 0.1647461,-0.06555 0.2472793,-0.09982 C -6.0843906,19.813516 -6.00175,19.77825 -5.919,19.742 l 0,1.181875 0,1.181875 0,1.181875 0,1.181875 0,1.181875 0,1.181875 0,1.181875 0,1.181875 0.739875,0.119125 0.739875,0.119125 0.739875,0.119125 0.739875,0.119125 0.739875,0.119125 0.739875,0.119125 0.739875,0.119125 L 0,30.15 0,26.38125 0,22.6125 0,18.84375 0,15.075 0,11.30625 0,7.5375 0,3.76875 z m -13.387,9.931 c 0,-0.2285 0.0064,-0.4435625 0.01922,-0.6471504 0.01281,-0.2035879 0.03203,-0.3957012 0.05766,-0.5783027 0.02562,-0.1826016 0.05766,-0.3556914 0.09609,-0.5212324 0.03844,-0.1655411 0.08328,-0.3235332 0.134531,-0.4759395 0.05125,-0.1524062 0.108906,-0.2992266 0.172969,-0.4424238 0.06406,-0.1431973 0.134531,-0.2827715 0.211406,-0.4206856 0.07688,-0.137914 0.160156,-0.2741679 0.249844,-0.4107246 0.08969,-0.1365566 0.185781,-0.273416 0.288281,-0.412541 0.10275,-0.139 0.211672,-0.2693281 0.326773,-0.3909805 0.115102,-0.1216523 0.236383,-0.2346289 0.363852,-0.3389257 0.127469,-0.1042969 0.261125,-0.1999141 0.400977,-0.2868477 0.139851,-0.086934 0.285898,-0.1651836 0.438148,-0.2347461 0.15225,-0.069562 0.310703,-0.1304375 0.475367,-0.1826211 0.1646643,-0.052184 0.3355392,-0.095676 0.512633,-0.1304726 0.1770937,-0.034797 0.3604063,-0.060898 0.5499453,-0.078301 C -8.8997656,4.3617031 -8.704,4.353 -8.502,4.353 c 0.06625,0 0.131875,2.812e-4 0.196877,8.555e-4 0.065002,5.742e-4 0.1293808,0.00144 0.1931386,0.00261 0.063758,0.00117 0.1268946,0.00265 0.1894121,0.00444 0.062518,0.00179 0.1244161,0.0039 0.1856973,0.00634 0.061281,0.00244 0.1219453,0.0052 0.1819941,0.00831 0.060049,0.00311 0.1194825,0.00655 0.1783028,0.010348 0.05882,0.0038 0.1170273,0.00795 0.174623,0.012457 0.057596,0.00451 0.1145801,0.00939 0.1709551,0.014637 0.05625,0.005 0.11125,0.010063 0.1650039,0.015201 0.053754,0.00514 0.1062617,0.010353 0.1575274,0.015658 0.051266,0.0053 0.101289,0.010699 0.1500742,0.016197 0.048785,0.0055 0.096332,0.0111 0.1426445,0.016818 0.046312,0.00572 0.091391,0.011555 0.1352383,0.017521 0.043848,0.00597 0.086465,0.012064 0.1278555,0.018307 0.041391,0.00624 0.081555,0.012629 0.120496,0.019174 0.038941,0.00654 0.07666,0.013248 0.1131602,0.020123 l 0,1.245625 0,1.245625 0,1.245625 0,1.245625 0,1.245625 0,1.245625 0,1.245625 0,1.245625 c -0.046375,0.02975 -0.094484,0.05889 -0.1443359,0.08742 -0.049852,0.02853 -0.1014453,0.05645 -0.1547891,0.08377 -0.053344,0.02731 -0.1084375,0.05401 -0.1652891,0.08011 -0.056851,0.02609 -0.1154609,0.05158 -0.1758359,0.07645 -0.060375,0.02487 -0.1225156,0.04914 -0.1864297,0.0728 -0.063914,0.02366 -0.1296015,0.0467 -0.1970703,0.06914 -0.067469,0.02244 -0.1367187,0.04427 -0.2077578,0.06548 -0.071039,0.02122 -0.1438672,0.04183 -0.2184922,0.06183 -0.0745,0.01975 -0.15666,0.03828 -0.2445744,0.05539 -0.087914,0.01711 -0.1815831,0.0328 -0.2791004,0.04687 -0.097517,0.01407 -0.1988832,0.02653 -0.302192,0.03717 -0.1033088,0.01064 -0.2085605,0.01946 -0.3138493,0.02627 -0.1052889,0.0068 -0.2106149,0.0116 -0.3140723,0.01418 -0.1034575,0.0026 -0.2050464,0.0029 -0.302861,9.05e-4 -0.097815,-0.002 -0.1918549,-0.0065 -0.2802153,-0.01356 -0.08836,-0.0071 -0.1710407,-0.01674 -0.2461353,-0.02922 -0.282,-0.04687 -0.551859,-0.105594 -0.808207,-0.17991 -0.256348,-0.07432 -0.499184,-0.164231 -0.727137,-0.273496 -0.227953,-0.109266 -0.441023,-0.237883 -0.63784,-0.389606 -0.196816,-0.151723 -0.377378,-0.326551 -0.540316,-0.528238 -0.162937,-0.201688 -0.30825,-0.430235 -0.434566,-0.689395 -0.126317,-0.25916 -0.233637,-0.548933 -0.32059,-0.873074 -0.08695,-0.32414 -0.153539,-0.682648 -0.198387,-1.079277 C -13.363891,10.842375 -13.387,10.407625 -13.387,9.931"
         style="fill:#ed1d24;fill-opacity:1;fill-rule:nonzero;stroke:none"
         id="path3224"
         inkscape:connector-curvature="0"
         sodipodi:nodetypes="cssssssscssssssscssssssssssssssssssssssscssssssscssssssscssssssssssssssscssssssscssssssssssssssssssssssscsssssssccccccccccccccccccccccccccssssssscssssssssssssssscssssssscccccccccssssssscsssssssssssssssc" />
    </g>
    <g
       id="g3226"
       transform="matrix(1.25,0,0,-1.25,394.38798,540.95482)">
      <path
         d="M 0,0 C 0,-0.205625 -0.00375,-0.409 -0.01124023,-0.61014062 -0.01873047,-0.81128125 -0.02996094,-1.0101875 -0.04492188,-1.206875 -0.05988281,-1.4035625 -0.07857422,-1.5980312 -0.10098633,-1.7902969 -0.12339844,-1.9825625 -0.14953125,-2.172625 -0.179375,-2.3605 c -0.0298438,-0.187875 -0.0633984,-0.3735625 -0.1006543,-0.5570781 -0.0372559,-0.1835156 -0.0782129,-0.3648594 -0.12286132,-0.5440469 -0.0446484,-0.1791875 -0.0929883,-0.3562188 -0.14500977,-0.5311094 C -0.59992187,-4.167625 -0.655625,-4.340375 -0.715,-4.511 -0.774625,-4.681375 -0.8375625,-4.8486563 -0.9038125,-5.0128398 -0.9700625,-5.1770234 -1.039625,-5.3381094 -1.1125,-5.4960937 -1.185375,-5.6540781 -1.2615625,-5.8089609 -1.3410625,-5.9607383 -1.4205625,-6.1125156 -1.503375,-6.2611875 -1.5895,-6.40675 -1.675625,-6.5523125 -1.7650625,-6.6947656 -1.8578125,-6.8341055 -1.9505625,-6.9734453 -2.046625,-7.1096719 -2.146,-7.2427812 -2.245375,-7.3758906 -2.3480625,-7.5058828 -2.4540625,-7.6327539 -2.5600625,-7.759625 -2.669375,-7.883375 -2.782,-8.004 -2.894375,-8.12525 -3.0095625,-8.2430156 -3.1275586,-8.3573047 -3.2455547,-8.4715937 -3.3663594,-8.5824062 -3.4899688,-8.68975 -3.6135781,-8.7970938 -3.7399922,-8.9009688 -3.869207,-9.0013828 -3.9984219,-9.1017969 -4.1304375,-9.19875 -4.26525,-9.29225 -4.4000625,-9.38575 -4.5376719,-9.4757969 -4.6780742,-9.5623984 -4.8184766,-9.649 -4.9616719,-9.7321563 -5.1076562,-9.811875 c -0.1459844,-0.079719 -0.2947579,-0.156 -0.4463165,-0.228852 C -5.7055312,-10.113578 -5.859875,-10.183 -6.017,-10.249 c -0.157375,-0.06625 -0.317125,-0.128344 -0.479248,-0.186285 -0.1621231,-0.05794 -0.3266192,-0.111731 -0.4934864,-0.161371 -0.1668672,-0.04964 -0.3361054,-0.09513 -0.5077129,-0.136481 -0.1716074,-0.04135 -0.345584,-0.07855 -0.5219277,-0.111613 -0.1763438,-0.03306 -0.3550547,-0.06198 -0.5361309,-0.08677 -0.1810761,-0.02478 -0.3645175,-0.04543 -0.5503222,-0.06195 -0.1858047,-0.01652 -0.3739727,-0.0289 -0.564502,-0.03715 -0.1905293,-0.0083 -0.3834199,-0.01238 -0.5786699,-0.01238 -0.191875,0 -0.381609,0.0041 -0.569197,0.01238 -0.187588,0.0083 -0.37303,0.02064 -0.556319,0.03715 -0.183289,0.01652 -0.364425,0.03716 -0.543404,0.06195 -0.178978,0.02479 -0.355799,0.05371 -0.530455,0.08677 -0.174656,0.03306 -0.347148,0.07027 -0.517471,0.111613 -0.170322,0.04135 -0.338474,0.08684 -0.504451,0.136481 -0.165976,0.04964 -0.329777,0.103429 -0.491396,0.161371 -0.161619,0.05794 -0.321057,0.120035 -0.478307,0.186285 -0.157375,0.066 -0.311922,0.135422 -0.463648,0.208273 -0.151727,0.072852 -0.300633,0.1491333 -0.446727,0.228852 -0.146094,0.079719 -0.289375,0.162875 -0.429852,0.2494766 -0.140476,0.086601 -0.278148,0.1766484 -0.413023,0.2701484 -0.134875,0.0935 -0.266953,0.1904531 -0.396242,0.2908672 -0.129289,0.1004141 -0.255789,0.2042891 -0.379508,0.3116328 -0.123719,0.1073438 -0.244656,0.2181563 -0.36282,0.3324453 -0.118164,0.1142891 -0.233555,0.2320547 -0.34618,0.3533047 -0.1125,0.120625 -0.221906,0.244375 -0.328219,0.3712461 -0.106312,0.1268711 -0.209531,0.2568633 -0.309656,0.3899727 -0.100125,0.1331093 -0.197156,0.2693359 -0.291094,0.4086757 -0.09394,0.1393399 -0.184781,0.281793 -0.272531,0.4273555 -0.08775,0.1455625 -0.172406,0.2942344 -0.253969,0.4460117 -0.08156,0.1517774 -0.160031,0.3066602 -0.235406,0.4646446 -0.07538,0.1579843 -0.147656,0.3190703 -0.216844,0.4832539 -0.06919,0.1641836 -0.135281,0.3314648 -0.198281,0.5018398 -0.063,0.170625 -0.122016,0.343375 -0.177059,0.5182656 -0.05504,0.1748907 -0.106113,0.3519219 -0.153222,0.5311094 -0.04711,0.1791875 -0.09026,0.3605313 -0.129457,0.5440469 -0.0392,0.1835156 -0.07445,0.3692031 -0.105762,0.5570781 -0.03131,0.187875 -0.05869,0.3779375 -0.08214,0.5702031 -0.02345,0.1922657 -0.04297,0.3867344 -0.05858,0.5834219 -0.01561,0.1966875 -0.0273,0.39559375 -0.0351,0.59673438 C -20.533109,-0.409 -20.537,-0.205625 -20.537,0 c 0,0.205 0.004,0.40776563 0.01205,0.60828906 0.008,0.20052344 0.02009,0.39880474 0.03617,0.59483594 0.01608,0.1960313 0.03618,0.3898125 0.06031,0.5813359 0.02413,0.1915235 0.05229,0.3807891 0.08447,0.5677891 0.03219,0.187 0.06841,0.3717344 0.10866,0.5541953 0.04025,0.182461 0.08454,0.3626485 0.132871,0.5405547 0.04833,0.1779063 0.100696,0.3535313 0.157106,0.5268672 0.05641,0.1733359 0.116863,0.3443828 0.181363,0.5131328 0.0645,0.169125 0.132141,0.3350625 0.202912,0.497832 0.07077,0.1627696 0.144674,0.3223711 0.221697,0.4788243 0.07702,0.1564531 0.157168,0.3097578 0.240424,0.4599335 0.08326,0.1501758 0.169623,0.2972227 0.259092,0.4411602 0.08947,0.1439375 0.182039,0.2847656 0.277701,0.4225039 0.09566,0.1377383 0.194416,0.2723867 0.296252,0.4039649 0.101836,0.1315781 0.206754,0.2600859 0.314744,0.3855429 0.10799,0.1254571 0.219053,0.2478633 0.333178,0.3672383 0.11425,0.119125 0.231156,0.2349375 0.350729,0.3474414 0.119572,0.1125039 0.24181,0.2216992 0.366724,0.3275899 0.124914,0.1058906 0.252504,0.2084765 0.382779,0.3077617 0.130276,0.099285 0.263237,0.1952695 0.398893,0.287957 0.135656,0.092688 0.274008,0.1820781 0.415064,0.2681758 0.141057,0.086098 0.284819,0.1689023 0.431295,0.2484179 0.146477,0.079516 0.295668,0.1557422 0.447584,0.2286836 0.151916,0.072942 0.306557,0.1425977 0.463932,0.2089727 0.157375,0.06612 0.316453,0.128141 0.47725,0.186041 0.160797,0.0579 0.323312,0.111686 0.487563,0.16135 0.164249,0.04966 0.330234,0.09521 0.497968,0.136623 0.167735,0.04142 0.337219,0.0787 0.508469,0.111861 0.17125,0.03316 0.344266,0.06218 0.519062,0.08706 0.174797,0.02488 0.351375,0.04563 0.52975,0.06223 0.178375,0.0166 0.358547,0.02906 0.540532,0.03736 0.181984,0.0083 0.365781,0.01246 0.551406,0.01246 0.188875,0 0.37575,-0.0042 0.5606328,-0.01246 0.1848828,-0.0083 0.3677735,-0.02076 0.5486797,-0.03736 0.1809063,-0.0166 0.3598281,-0.03735 0.5367734,-0.06223 0.1769454,-0.02488 0.3519141,-0.05391 0.5249141,-0.08706 0.173,-0.03316 0.3440313,-0.07044 0.5131016,-0.111861 0.1690703,-0.04142 0.3361797,-0.08696 0.5013359,-0.136623 0.1651563,-0.04966 0.3283594,-0.10345 0.4896172,-0.16135 0.1612578,-0.0579 0.3205703,-0.119916 0.4779453,-0.186041 0.157125,-0.06638 0.3114844,-0.136031 0.4630684,-0.2089727 0.1515839,-0.072941 0.3003925,-0.1491679 0.446416,-0.2286836 0.1460234,-0.079516 0.2892617,-0.1623203 0.4297051,-0.2484179 0.1404433,-0.086098 0.2780917,-0.1754883 0.4129355,-0.2681758 0.1348438,-0.092688 0.2668828,-0.1886719 0.3961074,-0.287957 0.1292246,-0.099285 0.2556348,-0.2018711 0.3792207,-0.3077617 0.123586,-0.1058907 0.2443477,-0.215086 0.3622754,-0.3275899 C -3.0883438,8.1789375 -2.97325,8.063125 -2.861,7.944 -2.748375,7.824625 -2.6388594,7.7022188 -2.5324512,7.5767617 -2.426043,7.4513047 -2.3227422,7.3227969 -2.2225469,7.1912187 -2.1223516,7.0596406 -2.0252617,6.9249922 -1.9312754,6.7872539 -1.8372891,6.6495156 -1.7464063,6.5086875 -1.658625,6.36475 -1.5708438,6.2208125 -1.4861641,6.0737656 -1.404584,5.9235898 -1.3230039,5.7734141 -1.2445234,5.6201094 -1.1691406,5.4636562 -1.0937578,5.3072031 -1.0214727,5.1476016 -0.9522832,4.984832 -0.88309375,4.8220625 -0.817,4.656125 -0.754,4.487 -0.69125,4.31825 -0.63240625,4.1472031 -0.57747266,3.9738672 -0.52253906,3.8005313 -0.47151562,3.6249063 -0.42440625,3.447 -0.37729687,3.2690938 -0.33410156,3.0889063 -0.29482422,2.9064453 -0.25554687,2.7239844 -0.2201875,2.53925 -0.18875,2.35225 c 0.0314375,-0.187 0.0589531,-0.3762656 0.082543,-0.5677891 C -0.08261719,1.5929375 -0.06295313,1.3991563 -0.04721875,1.203125 -0.03148438,1.0070937 -0.01967969,0.8088125 -0.01180859,0.60828906 -0.0039375,0.40776563 0,0.205 0,0 m -6.037,0 c 0,0.2285 -0.00572,0.4461875 -0.017146,0.65423828 -0.011428,0.20805078 -0.028564,0.40646482 -0.0514,0.59641792 -0.022836,0.1899532 -0.051371,0.3714454 -0.085596,0.5456524 -0.034225,0.174207 -0.074139,0.3411289 -0.1197324,0.5019414 -0.045594,0.1608125 -0.096867,0.3155156 -0.1538105,0.4652852 -0.056943,0.1497695 -0.1195567,0.2946054 -0.1878301,0.4356836 -0.068274,0.1410781 -0.1422071,0.2783984 -0.221791,0.4131367 C -6.9538906,3.7470938 -7.039125,3.87925 -7.13,4.01 -7.221125,4.14075 -7.3170938,4.2633281 -7.4179102,4.3777344 -7.5187266,4.4921406 -7.6243906,4.598375 -7.7349062,4.6964375 -7.8454219,4.7945 -7.9607891,4.8843906 -8.0810117,4.9661094 -8.2012344,5.0478281 -8.3263125,5.121375 -8.45625,5.18675 -8.5861875,5.252125 -8.7209844,5.3093281 -8.8606445,5.3583594 -9.0003047,5.4073906 -9.1448281,5.44825 -9.2942188,5.4809375 -9.4436094,5.513625 -9.5978672,5.5381406 -9.7569961,5.5544844 -9.916125,5.5708281 -10.080125,5.579 -10.249,5.579 c -0.168875,0 -0.332984,-0.00817 -0.49233,-0.024516 -0.159346,-0.016344 -0.313928,-0.040859 -0.463748,-0.073547 -0.14982,-0.032687 -0.294879,-0.073547 -0.435178,-0.1225781 C -11.780555,5.3093281 -11.916094,5.252125 -12.046875,5.18675 -12.177656,5.121375 -12.30368,5.0478281 -12.424947,4.9661094 -12.546215,4.8843906 -12.662727,4.7945 -12.774484,4.6964375 -12.886242,4.598375 -12.993246,4.4921406 -13.095498,4.3777344 -13.19775,4.2633281 -13.29525,4.14075 -13.388,4.01 c -0.09262,-0.13075 -0.179469,-0.2629062 -0.260529,-0.3976445 -0.08106,-0.1347383 -0.156338,-0.2720586 -0.22583,-0.4131367 -0.06949,-0.1410782 -0.1332,-0.2859141 -0.19112,-0.4356836 -0.05792,-0.1497696 -0.110052,-0.3044727 -0.156396,-0.4652852 -0.04634,-0.1608125 -0.0869,-0.3277344 -0.121662,-0.5019414 -0.03476,-0.174207 -0.06374,-0.3556992 -0.08692,-0.5456524 -0.02318,-0.1899531 -0.04057,-0.38836714 -0.05216,-0.59641792 C -14.494203,0.4461875 -14.5,0.2285 -14.5,0 c 0,-0.228625 0.0058,-0.44426562 0.01739,-0.64869531 0.01159,-0.20442969 0.02898,-0.39764839 0.05216,-0.58142969 0.02318,-0.1837812 0.05215,-0.358125 0.08692,-0.5248047 0.03476,-0.1666797 0.07532,-0.3256953 0.121662,-0.4788203 0.04634,-0.153125 0.09848,-0.3003594 0.156396,-0.4434766 0.05792,-0.1431171 0.121627,-0.2821171 0.19112,-0.4187734 0.06949,-0.1366562 0.144769,-0.2709687 0.22583,-0.4047109 0.08106,-0.1337422 0.167904,-0.2669141 0.260529,-0.4012891 0.09275,-0.134 0.19025,-0.2596094 0.292502,-0.376832 0.102252,-0.1172227 0.209256,-0.2260586 0.321014,-0.3265117 0.111757,-0.1004532 0.228269,-0.1925235 0.349537,-0.2762149 0.121267,-0.083691 0.247291,-0.1590039 0.378072,-0.2259414 0.130781,-0.066937 0.26632,-0.1255 0.406619,-0.1756914 0.140299,-0.050191 0.285358,-0.092012 0.435178,-0.1254648 0.14982,-0.033453 0.304402,-0.058539 0.463748,-0.075262 0.159346,-0.016723 0.323455,-0.025082 0.49233,-0.025082 0.168875,0 0.332875,0.00836 0.4920039,0.025082 0.1591289,0.016723 0.3133867,0.041809 0.4627773,0.075262 0.1493907,0.033453 0.2939141,0.075273 0.4335743,0.1254648 0.1396601,0.050191 0.274457,0.1087539 0.4043945,0.1756914 0.1299375,0.066937 0.2550156,0.14225 0.3752383,0.2259414 0.1202226,0.083691 0.2355898,0.1757617 0.3461055,0.2762149 0.1105156,0.1004531 0.2161796,0.209289 0.316996,0.3265117 C -7.3170937,-4.1616094 -7.221125,-4.036 -7.13,-3.902 c 0.090875,0.134375 0.1761094,0.2675469 0.2556934,0.4012891 0.079584,0.1337422 0.1535175,0.2680546 0.221791,0.4047109 0.068273,0.1366563 0.1308867,0.2756563 0.1878301,0.4187734 0.056943,0.1431172 0.1082167,0.2903516 0.1538105,0.4434766 0.045594,0.153125 0.085508,0.3121406 0.1197324,0.4788203 0.034225,0.1666797 0.06276,0.3410235 0.085596,0.5248047 0.022836,0.1837813 0.039973,0.377 0.0514,0.58142969 C -6.0427187,-0.44426562 -6.037,-0.228625 -6.037,0"
         style="fill:#ed1d24;fill-opacity:1;fill-rule:nonzero;stroke:none"
         id="path3228"
         inkscape:connector-curvature="0"
         sodipodi:nodetypes="cssssssscssssssscssssssscssssssssssssssscssssssscssssssscssssssssssssssscssssssscssssssscssssssssssssssscssssssscssssssscsssssssccssssssscssssssssssssssscssssssssssssssscssssssssssssssscsssssssc" />
    </g>
  </g>
</svg>
