<?xml version="1.0" encoding="UTF-8" standalone="no"?>
<!-- Created with Inkscape (http://www.inkscape.org/) -->

<svg
   xmlns:dc="http://purl.org/dc/elements/1.1/"
   xmlns:cc="http://creativecommons.org/ns#"
   xmlns:rdf="http://www.w3.org/1999/02/22-rdf-syntax-ns#"
   xmlns:svg="http://www.w3.org/2000/svg"
   xmlns="http://www.w3.org/2000/svg"
   xmlns:sodipodi="http://sodipodi.sourceforge.net/DTD/sodipodi-0.dtd"
   xmlns:inkscape="http://www.inkscape.org/namespaces/inkscape"
   width="98.244278"
   height="77.475868"
   id="svg4480"
   version="1.1"
   inkscape:version="0.48.4 r9939"
   sodipodi:docname="sudo.svg">
  <defs
     id="defs4482">
    <clipPath
       clipPathUnits="userSpaceOnUse"
       id="clipPath3502">
      <path
         inkscape:connector-curvature="0"
         d="m 0,0 1024,0 0,768 L 0,768 0,0 z"
         id="path3504" />
    </clipPath>
  </defs>
  <sodipodi:namedview
     id="base"
     pagecolor="#ffffff"
     bordercolor="#666666"
     borderopacity="1.0"
     inkscape:pageopacity="0.0"
     inkscape:pageshadow="2"
     inkscape:zoom="5.6568543"
     inkscape:cx="60.795328"
     inkscape:cy="38.570092"
     inkscape:document-units="px"
     inkscape:current-layer="layer1"
     showgrid="false"
     fit-margin-top="10"
     fit-margin-left="10"
     fit-margin-right="10"
     fit-margin-bottom="10"
     inkscape:window-width="1280"
     inkscape:window-height="784"
     inkscape:window-x="0"
     inkscape:window-y="0"
     inkscape:window-maximized="0" />
  <metadata
     id="metadata4485">
    <rdf:RDF>
      <cc:Work
         rdf:about="">
        <dc:format>image/svg+xml</dc:format>
        <dc:type
           rdf:resource="http://purl.org/dc/dcmitype/StillImage" />
        <dc:title></dc:title>
      </cc:Work>
    </rdf:RDF>
  </metadata>
  <g
     inkscape:label="Layer 1"
     inkscape:groupmode="layer"
     id="layer1"
     transform="translate(-306.1437,-487.2827)">
    <g
       id="g3214"
       transform="matrix(1.25,0,0,-1.25,325.18245,518.7852)">
      <path
         style="fill:#ed1d24;fill-opacity:1;fill-rule:nonzero;stroke:none"
         d="M 20.9375 10 C 20.142812 10 19.366055 10.03582 18.65625 10.125 C 17.946445 10.21418 17.281094 10.352969 16.65625 10.53125 C 16.031406 10.709531 15.446055 10.951445 14.90625 11.21875 C 14.366445 11.486054 13.892188 11.76875 13.4375 12.125 C 12.982188 12.480625 12.560176 12.892675 12.21875 13.3125 C 11.877324 13.732324 11.602578 14.172265 11.375 14.65625 C 11.147422 15.140234 10.98877 15.670644 10.875 16.21875 C 10.76123 16.766855 10.6875 17.325312 10.6875 17.9375 C 10.6875 18.2525 10.696055 18.566533 10.71875 18.875 C 10.741445 19.183467 10.798281 19.490325 10.84375 19.78125 C 10.889219 20.072175 10.93168 20.362626 11 20.625 C 11.06832 20.887374 11.15875 21.120938 11.25 21.34375 C 11.340938 21.567812 11.421719 21.791699 11.53125 22 C 11.640781 22.208301 11.778125 22.401172 11.90625 22.59375 C 12.034375 22.786328 12.165781 22.979355 12.3125 23.15625 C 12.459219 23.333144 12.615937 23.495 12.78125 23.65625 C 12.947187 23.817812 13.12918 23.975059 13.3125 24.125 C 13.49582 24.274941 13.674219 24.423984 13.875 24.5625 C 14.075781 24.701016 14.28168 24.841465 14.5 24.96875 C 14.71832 25.096035 14.951562 25.19625 15.1875 25.3125 C 15.423438 25.427812 15.656992 25.542695 15.90625 25.65625 C 16.155508 25.769805 16.424844 25.888281 16.6875 26 C 16.950156 26.111719 17.223867 26.233945 17.5 26.34375 C 17.776133 26.453555 18.054063 26.548437 18.34375 26.65625 C 18.71625 26.797187 19.050137 26.929023 19.375 27.0625 C 19.699863 27.195977 20.003984 27.342656 20.28125 27.46875 C 20.558516 27.594844 20.832793 27.724961 21.0625 27.84375 C 21.292207 27.962539 21.474062 28.075938 21.65625 28.1875 C 21.838125 28.299375 22.024607 28.393337 22.15625 28.5 C 22.287893 28.606663 22.389291 28.702018 22.46875 28.8125 C 22.548205 28.922981 22.599687 29.06417 22.625 29.1875 C 22.65031 29.310831 22.624536 29.41729 22.59375 29.5625 C 22.569584 29.676479 22.556436 29.774365 22.53125 29.84375 C 22.506064 29.913135 22.482436 29.953384 22.4375 30 C 22.392564 30.046617 22.333416 30.110574 22.25 30.15625 C 22.166584 30.201926 22.046875 30.245938 21.90625 30.3125 C 21.765 30.37875 21.596777 30.444391 21.40625 30.53125 C 21.215723 30.618109 21.021172 30.729813 20.78125 30.8125 C 20.541328 30.895187 20.258184 30.977516 19.96875 31.03125 C 19.679316 31.084984 19.370313 31.09375 19.03125 31.09375 C 18.708125 31.09375 18.38752 31.111191 18.0625 31.09375 C 17.737481 31.076308 17.420703 31.035078 17.09375 31 C 16.766797 30.964922 16.422676 30.92791 16.09375 30.875 C 15.764824 30.82209 15.455937 30.758437 15.125 30.6875 C 14.794063 30.6175 14.451855 30.521191 14.125 30.4375 C 13.798144 30.353809 13.478984 30.284766 13.15625 30.1875 C 12.833516 30.090234 12.506074 29.985722 12.1875 29.875 C 11.868926 29.764277 11.564375 29.655312 11.25 29.53125 L 10.9375 31.125 L 10.625 32.71875 L 10.3125 34.3125 L 10 35.90625 C 10.149375 35.972812 10.323203 36.050391 10.53125 36.125 C 10.739297 36.199609 10.983125 36.292187 11.25 36.375 C 11.516875 36.457813 11.799141 36.533828 12.125 36.625 C 12.450859 36.716172 12.83375 36.806562 13.21875 36.90625 C 13.603438 37.005313 14.004082 37.113262 14.4375 37.1875 C 14.870918 37.261739 15.330391 37.325546 15.8125 37.375 C 16.294609 37.424452 16.781738 37.444042 17.3125 37.46875 C 17.843262 37.493451 18.420625 37.5 19 37.5 C 19.885313 37.5 20.714883 37.457383 21.5 37.375 C 22.285117 37.292617 23.002656 37.196094 23.6875 37.03125 C 24.372344 36.866406 25.009258 36.653633 25.59375 36.40625 C 25.908344 36.2731 26.214495 36.125829 26.5 35.96875 L 26.5 36.96875 C 26.5 37.192187 26.494336 37.406213 26.5 37.625 C 26.505675 37.843787 26.519875 38.067119 26.53125 38.28125 C 26.5426 38.495381 26.545462 38.72803 26.5625 38.9375 C 26.579538 39.14697 26.602262 39.326445 26.625 39.53125 C 26.647737 39.736055 26.690313 39.956116 26.71875 40.15625 C 26.747187 40.356384 26.778338 40.554541 26.8125 40.75 C 26.846663 40.945459 26.866363 41.121721 26.90625 41.3125 C 26.946141 41.503279 26.985625 41.688906 27.03125 41.875 C 27.076563 42.06125 27.134344 42.257703 27.1875 42.4375 C 27.240656 42.617297 27.314013 42.79542 27.375 42.96875 C 27.435986 43.14208 27.4937 43.301902 27.5625 43.46875 C 27.631301 43.635598 27.70465 43.808399 27.78125 43.96875 C 27.857851 44.129102 27.915613 44.28366 28 44.4375 C 28.084387 44.59134 28.189087 44.758935 28.28125 44.90625 C 28.373407 45.053564 28.462587 45.171726 28.5625 45.3125 C 28.662415 45.453274 28.76735 45.615781 28.875 45.75 C 28.9825 45.884531 29.10168 45.997969 29.21875 46.125 C 29.335821 46.252031 29.46711 46.380469 29.59375 46.5 C 29.720391 46.619531 29.83254 46.731719 29.96875 46.84375 C 30.104961 46.955781 30.260469 47.051719 30.40625 47.15625 C 30.552031 47.260781 30.688399 47.371719 30.84375 47.46875 C 30.999102 47.565781 31.178829 47.660469 31.34375 47.75 C 31.508672 47.839531 31.669259 47.917969 31.84375 48 C 32.018242 48.082031 32.190938 48.175469 32.375 48.25 C 32.559063 48.324688 32.741728 48.403467 32.9375 48.46875 C 33.133271 48.534033 33.355039 48.569102 33.5625 48.625 C 33.76996 48.680898 33.968369 48.734717 34.1875 48.78125 C 34.40663 48.827783 34.644219 48.869062 34.875 48.90625 C 35.105781 48.943438 35.320087 48.972139 35.5625 49 C 35.804913 49.027861 36.058476 49.075195 36.3125 49.09375 C 36.566523 49.112305 36.828135 49.115738 37.09375 49.125 C 37.359365 49.134271 37.629062 49.125 37.90625 49.125 C 38.179375 49.125 38.448716 49.12992 38.71875 49.125 C 38.988784 49.120081 39.264316 49.134838 39.53125 49.125 C 39.798184 49.115166 40.079927 49.077244 40.34375 49.0625 C 40.607573 49.047758 40.864297 49.050899 41.125 49.03125 C 41.385703 49.011601 41.648677 48.993299 41.90625 48.96875 C 42.163823 48.944202 42.401816 48.904443 42.65625 48.875 C 42.910684 48.845557 43.186216 48.815583 43.4375 48.78125 C 43.688784 48.746916 43.908125 48.695469 44.15625 48.65625 C 44.404531 48.616875 44.669334 48.60259 44.90625 48.5625 C 45.143166 48.52241 45.368193 48.47833 45.59375 48.4375 C 45.626818 48.431514 45.654676 48.412252 45.6875 48.40625 C 45.696876 48.468258 45.708716 48.532191 45.71875 48.59375 C 45.757036 48.828633 45.7959 49.052917 45.84375 49.28125 C 45.891598 49.509583 45.942575 49.746982 46 49.96875 C 46.057423 50.190517 46.120512 50.409812 46.1875 50.625 C 46.254492 50.840188 46.329687 51.041406 46.40625 51.25 C 46.482812 51.459063 46.571169 51.673713 46.65625 51.875 C 46.74133 52.076287 46.8439 52.275244 46.9375 52.46875 C 47.031102 52.662256 47.116625 52.84553 47.21875 53.03125 C 47.320883 53.21697 47.420588 53.38457 47.53125 53.5625 C 47.641914 53.74043 47.7558 53.923616 47.875 54.09375 C 47.994201 54.263884 48.122256 54.431416 48.25 54.59375 C 48.377744 54.756084 48.519957 54.907971 48.65625 55.0625 C 48.792541 55.217029 48.917656 55.384531 49.0625 55.53125 C 49.207344 55.678281 49.378126 55.799025 49.53125 55.9375 C 49.684376 56.075974 49.838594 56.213838 50 56.34375 C 50.161406 56.473662 50.330312 56.597405 50.5 56.71875 C 50.669688 56.840095 50.822031 56.980977 51 57.09375 C 51.177969 57.206523 51.376249 57.302053 51.5625 57.40625 C 51.74875 57.510447 51.930469 57.623135 52.125 57.71875 C 52.319531 57.814365 52.515937 57.881721 52.71875 57.96875 C 52.921563 58.055779 53.132656 58.140313 53.34375 58.21875 C 53.554688 58.297344 53.781796 58.368713 54 58.4375 C 54.218202 58.506287 54.430781 58.597275 54.65625 58.65625 C 54.881719 58.715225 55.111015 58.763342 55.34375 58.8125 C 55.576484 58.861658 55.8225 58.898164 56.0625 58.9375 C 56.3025 58.976836 56.533984 59.001741 56.78125 59.03125 C 57.028515 59.060759 57.276719 59.105322 57.53125 59.125 C 57.785781 59.144678 58.050703 59.146413 58.3125 59.15625 C 58.574297 59.166088 58.824688 59.1875 59.09375 59.1875 C 59.205625 59.1875 59.324438 59.157584 59.4375 59.15625 C 59.550562 59.154938 59.666972 59.158887 59.78125 59.15625 C 59.895527 59.153625 60.009478 59.160187 60.125 59.15625 C 60.240522 59.15231 60.351952 59.161487 60.46875 59.15625 C 60.585547 59.151019 60.694399 59.131512 60.8125 59.125 C 60.930601 59.118481 61.068066 59.101537 61.1875 59.09375 C 61.306933 59.085956 61.410454 59.071562 61.53125 59.0625 C 61.652046 59.053442 61.784062 59.072812 61.90625 59.0625 C 62.028437 59.052187 62.159639 59.011091 62.28125 59 C 62.402861 58.988909 62.503945 58.980612 62.625 58.96875 C 62.746055 58.956885 62.879483 58.950134 63 58.9375 C 63.120518 58.924866 63.22375 58.919648 63.34375 58.90625 C 63.344786 58.909345 63.373962 58.903156 63.375 58.90625 C 63.41962 59.039275 63.451625 59.181484 63.5 59.3125 C 63.57875 59.525469 63.663513 59.73227 63.75 59.9375 C 63.836485 60.14273 63.937025 60.33377 64.03125 60.53125 C 64.125469 60.728731 64.21055 60.935278 64.3125 61.125 C 64.414454 61.314722 64.546562 61.505547 64.65625 61.6875 C 64.765937 61.869453 64.882575 62.044575 65 62.21875 C 65.117423 62.392925 65.218594 62.552363 65.34375 62.71875 C 65.468906 62.885137 65.61711 63.060161 65.75 63.21875 C 65.882891 63.377339 66.015625 63.536719 66.15625 63.6875 C 66.297031 63.839062 66.446045 63.982139 66.59375 64.125 C 66.741455 64.267861 66.876601 64.39707 67.03125 64.53125 C 67.185899 64.66543 67.338389 64.811982 67.5 64.9375 C 67.661611 65.063018 67.831406 65.164375 68 65.28125 C 68.168594 65.398125 68.355655 65.516749 68.53125 65.625 C 68.706846 65.733252 68.879883 65.837851 69.0625 65.9375 C 69.245118 66.037148 69.435341 66.127685 69.625 66.21875 C 69.814657 66.309814 69.990781 66.38625 70.1875 66.46875 C 70.384062 66.551563 70.579226 66.646325 70.78125 66.71875 C 70.983274 66.791178 71.19878 66.8442 71.40625 66.90625 C 71.613721 66.968301 71.818348 67.042063 72.03125 67.09375 C 72.244154 67.145429 72.46918 67.177425 72.6875 67.21875 C 72.90582 67.260075 73.120028 67.312763 73.34375 67.34375 C 73.567474 67.374737 73.802139 67.3856 74.03125 67.40625 C 74.260361 67.426887 74.484265 67.458375 74.71875 67.46875 C 74.953235 67.4791 75.197656 67.46875 75.4375 67.46875 C 75.681562 67.46875 75.918088 67.479125 76.15625 67.46875 C 76.394412 67.458438 76.642744 67.4269 76.875 67.40625 C 77.107256 67.3856 77.336155 67.374725 77.5625 67.34375 C 77.788845 67.312763 77.99832 67.260075 78.21875 67.21875 C 78.43918 67.177421 78.660491 67.145437 78.875 67.09375 C 79.089509 67.042061 79.291416 66.9683 79.5 66.90625 C 79.708584 66.8442 79.922346 66.791175 80.125 66.71875 C 80.327654 66.646324 80.522031 66.551563 80.71875 66.46875 C 80.915156 66.38625 81.123052 66.309814 81.3125 66.21875 C 81.501948 66.127685 81.69252 66.037149 81.875 65.9375 C 82.05748 65.837852 82.230747 65.733252 82.40625 65.625 C 82.581753 65.516748 82.737734 65.398125 82.90625 65.28125 C 83.074766 65.164375 83.244731 65.063018 83.40625 64.9375 C 83.567768 64.811982 83.720488 64.66543 83.875 64.53125 C 84.029512 64.39707 84.196255 64.267861 84.34375 64.125 C 84.491245 63.982139 84.640781 63.839062 84.78125 63.6875 C 84.922031 63.536719 85.055 63.377339 85.1875 63.21875 C 85.32 63.060161 85.438281 62.885137 85.5625 62.71875 C 85.686719 62.552363 85.821562 62.392925 85.9375 62.21875 C 86.053438 62.044575 86.142344 61.869453 86.25 61.6875 C 86.357656 61.505547 86.463125 61.314722 86.5625 61.125 C 86.661875 60.935278 86.752656 60.72873 86.84375 60.53125 C 86.934844 60.33377 87.042188 60.14273 87.125 59.9375 C 87.207813 59.732271 87.269219 59.525469 87.34375 59.3125 C 87.417969 59.099219 87.497473 58.874863 87.5625 58.65625 C 87.627527 58.437637 87.69419 58.223984 87.75 58 C 87.805811 57.776016 87.85968 57.541894 87.90625 57.3125 C 87.95282 57.083105 87.993945 56.859844 88.03125 56.625 C 88.068555 56.390156 88.096985 56.146582 88.125 55.90625 C 88.153015 55.665918 88.168799 55.433359 88.1875 55.1875 C 88.206201 54.941641 88.209387 54.688926 88.21875 54.4375 C 88.228113 54.186074 88.25 53.944531 88.25 53.6875 C 88.25 53.43125 88.228589 53.156904 88.21875 52.90625 C 88.208911 52.655596 88.207168 52.401289 88.1875 52.15625 C 88.167832 51.911211 88.154487 51.676904 88.125 51.4375 C 88.095513 51.198096 88.039297 50.9525 88 50.71875 C 87.960703 50.485 87.924097 50.259326 87.875 50.03125 C 87.825903 49.803174 87.777637 49.597383 87.71875 49.375 C 87.659863 49.152617 87.599917 48.93542 87.53125 48.71875 C 87.462583 48.50208 87.390937 48.273438 87.3125 48.0625 C 87.23375 47.851094 87.148987 47.640962 87.0625 47.4375 C 86.976013 47.234038 86.875478 47.039316 86.78125 46.84375 C 86.687022 46.648184 86.601975 46.46897 86.5 46.28125 C 86.398025 46.09353 86.265976 45.898672 86.15625 45.71875 C 86.046523 45.538828 85.961233 45.359673 85.84375 45.1875 C 85.726267 45.015327 85.593994 44.851973 85.46875 44.6875 C 85.343506 44.523027 85.22676 44.344321 85.09375 44.1875 C 84.96074 44.030679 84.797031 43.899219 84.65625 43.75 C 84.515938 43.601094 84.39741 43.45313 84.25 43.3125 C 84.10259 43.17187 83.935733 43.038613 83.78125 42.90625 C 83.626768 42.773887 83.474031 42.624106 83.3125 42.5 C 83.150969 42.375894 82.981055 42.27211 82.8125 42.15625 C 82.643945 42.040391 82.488054 41.920122 82.3125 41.8125 C 82.136946 41.704878 81.932529 41.599395 81.75 41.5 C 81.567471 41.400605 81.37698 41.309926 81.1875 41.21875 C 80.99802 41.127573 80.821406 41.051725 80.625 40.96875 C 80.428281 40.886094 80.232822 40.791125 80.03125 40.71875 C 79.829678 40.646375 79.612695 40.593325 79.40625 40.53125 C 79.199805 40.469171 78.992588 40.395525 78.78125 40.34375 C 78.569912 40.291974 78.3725 40.2602 78.15625 40.21875 C 77.94 40.177312 77.721182 40.12485 77.5 40.09375 C 77.278818 40.06265 77.038633 40.052 76.8125 40.03125 C 76.586367 40.0105 76.356104 39.979125 76.125 39.96875 C 75.893896 39.958425 75.673594 39.96875 75.4375 39.96875 C 75.205469 39.96875 74.97748 39.958375 74.75 39.96875 C 74.522519 39.979125 74.285469 40.0105 74.0625 40.03125 C 73.839531 40.052 73.624746 40.06265 73.40625 40.09375 C 73.187755 40.12485 72.964062 40.1773 72.75 40.21875 C 72.535937 40.260201 72.334669 40.291975 72.125 40.34375 C 71.915332 40.395516 71.705311 40.469175 71.5 40.53125 C 71.294686 40.59333 71.075996 40.646375 70.875 40.71875 C 70.674004 40.791125 70.477969 40.8861 70.28125 40.96875 C 70.10684 41.04231 69.950296 41.107488 69.78125 41.1875 L 69.78125 38.84375 L 69.78125 34.125 L 69.78125 29.40625 L 69.78125 24.71875 L 69.78125 20 L 68.84375 20.15625 L 67.9375 20.28125 L 67 20.4375 L 66.09375 20.59375 L 65.15625 20.75 L 64.21875 20.875 L 63.3125 21.03125 L 62.375 21.1875 L 62.375 22.65625 L 62.375 24.15625 L 62.375 25.625 L 62.375 27.09375 L 62.375 28.5625 L 62.375 30.0625 L 62.375 31.53125 L 62.375 33 C 62.271563 32.954687 62.165664 32.917786 62.0625 32.875 C 61.959333 32.832162 61.8529 32.790337 61.75 32.75 C 61.6471 32.70965 61.540139 32.662825 61.4375 32.625 C 61.334861 32.587175 61.258633 32.566525 61.15625 32.53125 C 61.053867 32.495975 60.945881 32.43895 60.84375 32.40625 C 60.741619 32.37355 60.633135 32.342613 60.53125 32.3125 C 60.429365 32.282387 60.320394 32.277487 60.21875 32.25 C 60.117107 32.222513 60.007656 32.181088 59.90625 32.15625 C 59.804688 32.131563 59.729885 32.115425 59.625 32.09375 C 59.520115 32.072075 59.389463 32.049887 59.28125 32.03125 C 59.173037 32.012612 59.080295 31.984325 58.96875 31.96875 C 58.857205 31.953163 58.739883 31.95 58.625 31.9375 C 58.510117 31.925 58.399475 31.915625 58.28125 31.90625 C 58.163025 31.896838 58.027822 31.88125 57.90625 31.875 C 57.784678 31.8687 57.656174 31.878125 57.53125 31.875 C 57.406326 31.871875 57.284531 31.875 57.15625 31.875 C 56.924531 31.875 56.693987 31.865125 56.46875 31.875 C 56.243514 31.884875 56.03126 31.886513 55.8125 31.90625 C 55.593741 31.925975 55.368537 31.970413 55.15625 32 C 54.943961 32.029587 54.73707 32.054338 54.53125 32.09375 C 54.32543 32.133159 54.136857 32.169525 53.9375 32.21875 C 53.738143 32.267987 53.53665 32.347213 53.34375 32.40625 C 53.15085 32.465283 52.967699 32.524925 52.78125 32.59375 C 52.594803 32.66257 52.39875 32.7339 52.21875 32.8125 C 52.03875 32.891094 51.86051 32.975112 51.6875 33.0625 C 51.514489 33.149882 51.353525 33.247575 51.1875 33.34375 C 51.021475 33.439923 50.846545 33.520038 50.6875 33.625 C 50.528455 33.729961 50.37082 33.855 50.21875 33.96875 C 50.06668 34.0825 49.926351 34.189963 49.78125 34.3125 C 49.63615 34.435039 49.513134 34.556173 49.375 34.6875 C 49.258117 34.798624 49.143149 34.913833 49.03125 35.03125 L 49.03125 31.875 L 49.03125 28.71875 L 49.03125 25.5625 L 49.03125 22.4375 L 48.125 22.4375 L 47.1875 22.4375 L 46.25 22.4375 L 45.34375 22.4375 L 44.40625 22.4375 L 43.5 22.4375 L 42.5625 22.4375 L 41.625 22.4375 L 41.625 24.75 L 41.625 27.09375 L 41.625 29.40625 L 41.625 31.71875 L 41.625 34.0625 L 41.625 36.375 L 41.625 38.71875 L 41.625 41.03125 C 41.567032 41.039844 41.528753 41.054288 41.46875 41.0625 C 41.408747 41.070712 41.343291 41.0859 41.28125 41.09375 C 41.219209 41.101601 41.157835 41.117488 41.09375 41.125 C 41.029666 41.13251 40.972383 41.117812 40.90625 41.125 C 40.840117 41.132188 40.755686 41.149363 40.6875 41.15625 C 40.619314 41.163135 40.570244 41.1809 40.5 41.1875 C 40.429756 41.194101 40.353558 41.181162 40.28125 41.1875 C 40.208943 41.193843 40.136875 41.21265 40.0625 41.21875 C 39.987813 41.224844 39.917346 41.244612 39.84375 41.25 C 39.770154 41.255379 39.69751 41.245337 39.625 41.25 C 39.55249 41.254656 39.477677 41.246088 39.40625 41.25 C 39.334822 41.253912 39.257851 41.278087 39.1875 41.28125 C 39.117148 41.284413 39.03803 41.27885 38.96875 41.28125 C 38.89947 41.28365 38.818212 41.279637 38.75 41.28125 C 38.681787 41.282863 38.629651 41.280437 38.5625 41.28125 C 38.495349 41.282063 38.441094 41.28125 38.375 41.28125 C 38.16 41.28125 37.947997 41.297781 37.75 41.28125 C 37.551997 41.26472 37.368496 41.220576 37.1875 41.1875 C 37.006504 41.154424 36.820229 41.112136 36.65625 41.0625 C 36.492271 41.012864 36.334454 40.972461 36.1875 40.90625 C 36.040548 40.840039 35.911166 40.73905 35.78125 40.65625 C 35.651333 40.57345 35.519125 40.505654 35.40625 40.40625 C 35.293379 40.306846 35.189563 40.178522 35.09375 40.0625 C 34.997935 39.946477 34.9225 39.820156 34.84375 39.6875 C 34.765156 39.555156 34.69375 39.434299 34.625 39.28125 C 34.556247 39.128201 34.496413 38.95501 34.4375 38.78125 C 34.378589 38.60749 34.299087 38.413225 34.25 38.21875 C 34.200913 38.024275 34.164262 37.840195 34.125 37.625 C 34.08575 37.409805 34.060688 37.17342 34.03125 36.9375 C 34.001812 36.70158 33.957125 36.44415 33.9375 36.1875 C 33.917887 35.93085 33.916 35.683635 33.90625 35.40625 C 33.896412 35.128864 33.90625 34.829375 33.90625 34.53125 L 33.90625 33.03125 L 33.90625 31.5 L 33.90625 30 L 33.90625 28.46875 L 33.90625 26.96875 L 33.90625 25.4375 L 33.90625 23.9375 L 33.90625 22.4375 L 32.96875 22.4375 L 32.03125 22.4375 L 31.125 22.4375 L 30.1875 22.4375 L 29.28125 22.4375 L 28.34375 22.4375 L 27.40625 22.4375 L 26.5 22.4375 L 26.5 22.875 C 26.318027 22.755366 26.135009 22.640253 25.9375 22.53125 C 25.672813 22.385313 25.393691 22.240703 25.09375 22.09375 C 24.793809 21.946797 24.460078 21.804375 24.125 21.65625 C 23.789922 21.508125 23.463848 21.336953 23.09375 21.1875 C 22.723652 21.038047 22.31125 20.900938 21.90625 20.75 C 21.7075 20.675625 21.524863 20.602774 21.34375 20.53125 C 21.162637 20.459727 21.007266 20.381094 20.84375 20.3125 C 20.680234 20.243906 20.520957 20.190586 20.375 20.125 C 20.229043 20.059414 20.097188 20 19.96875 19.9375 C 19.840625 19.874688 19.708457 19.81041 19.59375 19.75 C 19.479043 19.68959 19.382578 19.620703 19.28125 19.5625 C 19.179922 19.504297 19.056738 19.462441 18.96875 19.40625 C 18.880762 19.350059 18.824687 19.273125 18.75 19.21875 C 18.675625 19.165312 18.610128 19.111053 18.5625 19.0625 C 18.514872 19.013949 18.467931 18.98515 18.4375 18.9375 C 18.407069 18.889851 18.397784 18.831988 18.375 18.78125 C 18.352216 18.730508 18.337188 18.682813 18.3125 18.625 C 18.254667 18.45149 18.210631 18.303552 18.1875 18.15625 C 18.16437 18.008949 18.143591 17.874525 18.15625 17.75 C 18.168909 17.625476 18.200464 17.511425 18.25 17.40625 C 18.299536 17.301078 18.381249 17.183 18.46875 17.09375 C 18.620295 16.939175 18.73404 16.824762 18.875 16.71875 C 19.01596 16.612739 19.172239 16.533262 19.375 16.46875 C 19.577761 16.404229 19.819304 16.342588 20.15625 16.3125 C 20.493197 16.2824 20.925234 16.284 21.46875 16.28125 C 21.783121 16.279675 22.107344 16.266938 22.40625 16.28125 C 22.705156 16.295562 22.966561 16.314287 23.25 16.34375 C 23.533438 16.3732 23.82578 16.4249 24.09375 16.46875 C 24.36172 16.512605 24.6225 16.5675 24.875 16.625 C 25.1275 16.683438 25.381973 16.750254 25.625 16.8125 C 25.868027 16.874746 26.110078 16.933829 26.34375 17 C 26.577422 17.066171 26.806817 17.117285 27.03125 17.1875 C 27.255684 17.257715 27.472188 17.331875 27.6875 17.40625 L 28 15.90625 L 28.3125 14.375 L 28.65625 12.875 L 28.96875 11.34375 C 28.753438 11.260937 28.533731 11.173458 28.28125 11.09375 C 28.02877 11.014044 27.758359 10.95164 27.46875 10.875 C 27.179141 10.798359 26.857949 10.698614 26.53125 10.625 C 26.204551 10.551386 25.86375 10.508125 25.5 10.4375 C 25.135625 10.367187 24.747519 10.302904 24.375 10.25 C 24.00248 10.197095 23.630703 10.129138 23.25 10.09375 C 22.869297 10.058362 22.482676 10.049 22.09375 10.03125 C 21.704824 10.013463 21.334688 10 20.9375 10 z M 58.375 38.5625 C 58.497268 38.560006 58.620678 38.55925 58.75 38.5625 C 58.879322 38.565725 59.024639 38.58525 59.15625 38.59375 C 59.287861 38.602262 59.402114 38.6117 59.53125 38.625 C 59.660386 38.6383 59.784354 38.638663 59.90625 38.65625 C 60.028147 38.673838 60.140107 38.697362 60.25 38.71875 C 60.359893 38.740137 60.469375 38.756563 60.5625 38.78125 C 60.655781 38.80625 60.754951 38.848475 60.84375 38.875 C 60.932549 38.901513 61.009414 38.90945 61.09375 38.9375 C 61.178086 38.96555 61.263858 39.001675 61.34375 39.03125 C 61.423643 39.060825 61.518281 39.093912 61.59375 39.125 C 61.669219 39.156087 61.741436 39.186138 61.8125 39.21875 C 61.883564 39.251375 61.93332 39.278363 62 39.3125 C 62.06668 39.34665 62.125185 39.401837 62.1875 39.4375 C 62.249815 39.473163 62.317031 39.494062 62.375 39.53125 L 62.375 41.09375 L 62.375 42.65625 L 62.375 44.21875 L 62.375 45.75 L 62.375 47.3125 L 62.375 48.875 L 62.375 50.4375 L 62.375 52 C 62.329375 52.008594 62.298676 52.023075 62.25 52.03125 C 62.201324 52.039431 62.145489 52.02345 62.09375 52.03125 C 62.042012 52.039054 61.99231 52.055037 61.9375 52.0625 C 61.882691 52.069958 61.80789 52.0866 61.75 52.09375 C 61.692109 52.100898 61.654731 52.086875 61.59375 52.09375 C 61.532769 52.100623 61.470332 52.118375 61.40625 52.125 C 61.342168 52.131631 61.254692 52.149825 61.1875 52.15625 C 61.120308 52.162672 61.070312 52.15 61 52.15625 C 60.929531 52.162809 60.853245 52.181863 60.78125 52.1875 C 60.709255 52.193134 60.636025 52.18275 60.5625 52.1875 C 60.488975 52.192248 60.418811 52.214863 60.34375 52.21875 C 60.268689 52.222638 60.170351 52.2157 60.09375 52.21875 C 60.017148 52.2218 59.953148 52.216513 59.875 52.21875 C 59.796853 52.220987 59.704698 52.248538 59.625 52.25 C 59.545303 52.251463 59.487502 52.249282 59.40625 52.25 C 59.324997 52.250718 59.239062 52.25 59.15625 52.25 C 58.90375 52.25 58.643173 52.240503 58.40625 52.21875 C 58.169326 52.196996 57.940117 52.168496 57.71875 52.125 C 57.497383 52.081504 57.29958 52.00273 57.09375 51.9375 C 56.88792 51.87227 56.690312 51.805703 56.5 51.71875 C 56.309688 51.631797 56.112314 51.546168 55.9375 51.4375 C 55.762685 51.328833 55.596836 51.192871 55.4375 51.0625 C 55.278164 50.932129 55.143878 50.808315 55 50.65625 C 54.856124 50.504184 54.722187 50.33 54.59375 50.15625 C 54.465625 49.982344 54.330862 49.795696 54.21875 49.625 C 54.10664 49.454304 54.00235 49.297393 53.90625 49.125 C 53.810156 48.952607 53.736325 48.772747 53.65625 48.59375 C 53.576171 48.414754 53.501562 48.253008 53.4375 48.0625 C 53.373436 47.871992 53.29805 47.644426 53.25 47.4375 C 53.201963 47.230574 53.157025 47.040752 53.125 46.8125 C 53.092962 46.584248 53.078513 46.316985 53.0625 46.0625 C 53.046475 45.808015 53.03125 45.566875 53.03125 45.28125 C 53.03125 44.685469 53.06894 44.120788 53.125 43.625 C 53.18106 43.129214 53.266313 42.686425 53.375 42.28125 C 53.483691 41.876074 53.623354 41.51145 53.78125 41.1875 C 53.939145 40.86355 54.108829 40.59586 54.3125 40.34375 C 54.516173 40.091641 54.75398 39.845904 55 39.65625 C 55.246021 39.466596 55.496309 39.324082 55.78125 39.1875 C 56.066191 39.050919 56.367065 38.93665 56.6875 38.84375 C 57.007935 38.750855 57.36625 38.683588 57.71875 38.625 C 57.812618 38.6094 57.9208 38.602625 58.03125 38.59375 C 58.141701 38.584925 58.252731 38.565 58.375 38.5625 z M 75.4375 46.6875 C 75.648594 46.6875 75.863589 46.69832 76.0625 46.71875 C 76.261411 46.73918 76.438262 46.771641 76.625 46.8125 C 76.811738 46.853359 76.981675 46.907461 77.15625 46.96875 C 77.330825 47.030039 77.525078 47.105781 77.6875 47.1875 C 77.849922 47.269219 78.005972 47.366602 78.15625 47.46875 C 78.306528 47.570898 78.424355 47.689922 78.5625 47.8125 C 78.700644 47.935078 78.842729 48.044492 78.96875 48.1875 C 79.09477 48.330508 79.229844 48.492813 79.34375 48.65625 C 79.457344 48.819688 79.556769 48.987827 79.65625 49.15625 C 79.75573 49.324673 79.852158 49.511152 79.9375 49.6875 C 80.022842 49.863848 80.085071 50.031538 80.15625 50.21875 C 80.227429 50.405962 80.286757 50.611484 80.34375 50.8125 C 80.400742 51.013516 80.457219 51.219741 80.5 51.4375 C 80.542781 51.655259 80.596455 51.856308 80.625 52.09375 C 80.653545 52.331191 80.673215 52.583687 80.6875 52.84375 C 80.701783 53.103813 80.6875 53.401875 80.6875 53.6875 C 80.6875 53.973281 80.701785 54.213213 80.6875 54.46875 C 80.673216 54.724287 80.653545 54.989023 80.625 55.21875 C 80.596455 55.448477 80.542781 55.66665 80.5 55.875 C 80.457219 56.08335 80.400742 56.277344 80.34375 56.46875 C 80.286758 56.660156 80.227429 56.852353 80.15625 57.03125 C 80.085071 57.210146 80.022841 57.36043 79.9375 57.53125 C 79.852158 57.70207 79.75573 57.895322 79.65625 58.0625 C 79.55677 58.229678 79.457344 58.394531 79.34375 58.5625 C 79.229844 58.73 79.094762 58.884722 78.96875 59.03125 C 78.84273 59.177778 78.700644 59.311934 78.5625 59.4375 C 78.424355 59.563066 78.306528 59.676636 78.15625 59.78125 C 78.005972 59.885864 77.849922 59.978829 77.6875 60.0625 C 77.525078 60.146172 77.330825 60.218511 77.15625 60.28125 C 76.981675 60.34399 76.811738 60.395684 76.625 60.4375 C 76.438262 60.479316 76.261411 60.510346 76.0625 60.53125 C 75.863589 60.552153 75.648594 60.5625 75.4375 60.5625 C 75.226406 60.5625 75.011683 60.552154 74.8125 60.53125 C 74.613318 60.510346 74.437275 60.479316 74.25 60.4375 C 74.062725 60.395684 73.862874 60.343989 73.6875 60.28125 C 73.512126 60.218511 73.350976 60.146171 73.1875 60.0625 C 73.024024 59.978828 72.870334 59.885864 72.71875 59.78125 C 72.567165 59.676636 72.420946 59.563066 72.28125 59.4375 C 72.141553 59.311934 72.002815 59.177778 71.875 59.03125 C 71.747185 58.884722 71.615938 58.73 71.5 58.5625 C 71.384219 58.394531 71.288825 58.229678 71.1875 58.0625 C 71.086174 57.895322 70.993112 57.70207 70.90625 57.53125 C 70.819384 57.36043 70.72865 57.210146 70.65625 57.03125 C 70.583855 56.852353 70.526675 56.660156 70.46875 56.46875 C 70.410822 56.277344 70.35595 56.08335 70.3125 55.875 C 70.269037 55.66665 70.247725 55.448477 70.21875 55.21875 C 70.189775 54.989023 70.170738 54.724287 70.15625 54.46875 C 70.141762 54.213213 70.125 53.973281 70.125 53.6875 C 70.125 53.401875 70.141768 53.103813 70.15625 52.84375 C 70.170738 52.583687 70.189775 52.331191 70.21875 52.09375 C 70.247725 51.856308 70.26905 51.655259 70.3125 51.4375 C 70.355953 51.219741 70.410825 51.013516 70.46875 50.8125 C 70.52668 50.611484 70.58385 50.405962 70.65625 50.21875 C 70.72865 50.031538 70.819388 49.863848 70.90625 49.6875 C 70.993115 49.511152 71.086175 49.324673 71.1875 49.15625 C 71.288825 48.987827 71.384225 48.819688 71.5 48.65625 C 71.615938 48.492813 71.747185 48.330508 71.875 48.1875 C 72.002815 48.044492 72.141552 47.935078 72.28125 47.8125 C 72.420946 47.689922 72.567165 47.570898 72.71875 47.46875 C 72.870334 47.366602 73.024024 47.269219 73.1875 47.1875 C 73.350976 47.105781 73.512126 47.030039 73.6875 46.96875 C 73.862874 46.907461 74.062725 46.853359 74.25 46.8125 C 74.437275 46.77164 74.613318 46.73918 74.8125 46.71875 C 75.011683 46.698318 75.226406 46.6875 75.4375 46.6875 z "
         transform="matrix(0.8,0,0,-0.8,-15.231,25.202)"
         id="path3216" />
    </g>
    <g
       id="g3218"
       transform="matrix(1.25,0,0,-1.25,355.18351,534.93237)" />
    <g
       id="g3222"
       transform="matrix(1.25,0,0,-1.25,375.92131,544.96519)" />
    <g
       id="g3226"
       transform="matrix(1.25,0,0,-1.25,394.38798,540.95482)" />
  </g>
</svg>
