<?xml version="1.0" encoding="UTF-8" standalone="no"?>
<!-- Created with Inkscape (http://www.inkscape.org/) -->

<svg
   xmlns:dc="http://purl.org/dc/elements/1.1/"
   xmlns:cc="http://creativecommons.org/ns#"
   xmlns:rdf="http://www.w3.org/1999/02/22-rdf-syntax-ns#"
   xmlns:svg="http://www.w3.org/2000/svg"
   xmlns="http://www.w3.org/2000/svg"
   version="1.1"
   width="744.09448"
   height="1052.3622"
   id="svg4593">
  <defs
     id="defs4595" />
  <metadata
     id="metadata4598">
    <rdf:RDF>
      <cc:Work
         rdf:about="">
        <dc:format>image/svg+xml</dc:format>
        <dc:type
           rdf:resource="http://purl.org/dc/dcmitype/StillImage" />
        <dc:title></dc:title>
      </cc:Work>
    </rdf:RDF>
  </metadata>
  <g
     id="layer1">
    <g
       transform="matrix(0,-12.5,-12.5,0,215.025,961.97465)"
       id="g3214">
      <path
         d="m 20.9375,10 -2.28125,0.125 -2,0.40625 -1.75,0.6875 -1.46875,0.90625 -1.21875,1.1875 -0.84375,1.34375 -0.5,1.5625 -0.1875,1.71875 0.03125,0.9375 0.125,0.90625 L 11,20.625 11.25,21.34375 11.53125,22 l 0.375,0.59375 0.40625,0.5625 0.46875,0.5 0.53125,0.46875 0.5625,0.4375 0.625,0.40625 0.6875,0.34375 0.71875,0.34375 L 16.6875,26 17.5,26.34375 l 0.84375,0.3125 1.03125,0.40625 0.90625,0.40625 0.78125,0.375 0.59375,0.34375 0.5,0.3125 0.3125,0.3125 0.15625,0.375 -0.03125,0.375 -0.0625,0.28125 L 22.4375,30 22.25,30.15625 l -0.34375,0.15625 -0.5,0.21875 -0.625,0.28125 -0.8125,0.21875 -0.9375,0.0625 -0.96875,0 L 17.09375,31 l -1,-0.125 -0.96875,-0.1875 -1,-0.25 -0.96875,-0.25 L 12.1875,29.875 11.25,29.53125 10.9375,31.125 10.625,32.71875 10.3125,34.3125 10,35.90625 l 0.53125,0.21875 0.71875,0.25 0.875,0.25 1.09375,0.28125 1.21875,0.28125 1.375,0.1875 1.5,0.09375 L 19,37.5 l 2.5,-0.125 2.1875,-0.34375 1.90625,-0.625 0.90625,-0.4375 0,1 0,0.65625 0.03125,0.65625 0.03125,0.65625 0.0625,0.59375 0.09375,0.625 0.09375,0.59375 0.09375,0.5625 0.125,0.5625 0.15625,0.5625 0.1875,0.53125 0.1875,0.5 0.21875,0.5 L 28,44.4375 l 0.28125,0.46875 0.28125,0.40625 0.3125,0.4375 0.34375,0.375 0.375,0.375 0.375,0.34375 0.4375,0.3125 0.4375,0.3125 0.5,0.28125 0.5,0.25 0.53125,0.25 0.5625,0.21875 0.625,0.15625 0.625,0.15625 0.6875,0.125 0.6875,0.09375 0.75,0.09375 0.78125,0.03125 0.8125,0 0.8125,0 0.8125,0 0.8125,-0.0625 0.78125,-0.03125 0.78125,-0.0625 0.75,-0.09375 0.78125,-0.09375 0.71875,-0.125 0.75,-0.09375 0.6875,-0.125 0.09375,-0.03125 0.03125,0.1875 0.125,0.6875 0.15625,0.6875 0.1875,0.65625 0.21875,0.625 0.25,0.625 0.28125,0.59375 0.28125,0.5625 0.3125,0.53125 0.34375,0.53125 0.375,0.5 0.40625,0.46875 0.40625,0.46875 0.46875,0.40625 0.46875,0.40625 0.5,0.375 0.5,0.375 0.5625,0.3125 0.5625,0.3125 0.59375,0.25 0.625,0.25 L 54,58.4375 l 0.65625,0.21875 0.6875,0.15625 0.71875,0.125 0.71875,0.09375 0.75,0.09375 0.78125,0.03125 0.78125,0.03125 0.34375,-0.03125 0.34375,0 0.34375,0 0.34375,0 0.34375,-0.03125 0.375,-0.03125 0.34375,-0.03125 0.375,0 L 62.28125,59 62.625,58.96875 63,58.9375 l 0.34375,-0.03125 0.03125,0 0.125,0.40625 0.25,0.625 0.28125,0.59375 0.28125,0.59375 0.34375,0.5625 0.34375,0.53125 0.34375,0.5 0.40625,0.5 0.40625,0.46875 0.4375,0.4375 0.4375,0.40625 0.46875,0.40625 0.5,0.34375 0.53125,0.34375 0.53125,0.3125 0.5625,0.28125 0.5625,0.25 0.59375,0.25 0.625,0.1875 0.625,0.1875 0.65625,0.125 0.65625,0.125 0.6875,0.0625 0.6875,0.0625 0.71875,0 0.71875,0 0.71875,-0.0625 0.6875,-0.0625 0.65625,-0.125 0.65625,-0.125 0.625,-0.1875 0.625,-0.1875 0.59375,-0.25 0.59375,-0.25 0.5625,-0.28125 0.53125,-0.3125 0.5,-0.34375 0.5,-0.34375 0.46875,-0.40625 0.46875,-0.40625 0.4375,-0.4375 0.40625,-0.46875 0.375,-0.5 0.375,-0.5 L 86.25,61.6875 86.5625,61.125 86.84375,60.53125 87.125,59.9375 87.34375,59.3125 87.5625,58.65625 87.75,58 l 0.15625,-0.6875 0.125,-0.6875 0.09375,-0.71875 0.0625,-0.71875 0.03125,-0.75 0.03125,-0.75 -0.03125,-0.78125 -0.03125,-0.75 L 88.125,51.4375 88,50.71875 87.875,50.03125 87.71875,49.375 87.53125,48.71875 87.3125,48.0625 l -0.25,-0.625 -0.28125,-0.59375 -0.28125,-0.5625 -0.34375,-0.5625 -0.3125,-0.53125 -0.375,-0.5 -0.375,-0.5 L 84.65625,43.75 84.25,43.3125 83.78125,42.90625 83.3125,42.5 l -0.5,-0.34375 -0.5,-0.34375 L 81.75,41.5 l -0.5625,-0.28125 -0.5625,-0.25 -0.59375,-0.25 -0.625,-0.1875 -0.625,-0.1875 -0.625,-0.125 -0.65625,-0.125 -0.6875,-0.0625 -0.6875,-0.0625 -0.6875,0 -0.6875,0 -0.6875,0.0625 -0.65625,0.0625 -0.65625,0.125 -0.625,0.125 -0.625,0.1875 -0.625,0.1875 -0.59375,0.25 -0.5,0.21875 0,-2.34375 0,-4.71875 0,-4.71875 0,-4.6875 0,-4.71875 -0.9375,0.15625 -0.90625,0.125 L 67,20.4375 l -0.90625,0.15625 -0.9375,0.15625 -0.9375,0.125 -0.90625,0.15625 -0.9375,0.15625 0,1.46875 0,1.5 0,1.46875 0,1.46875 0,1.46875 0,1.5 0,1.46875 0,1.46875 -0.3125,-0.125 -0.3125,-0.125 -0.3125,-0.125 -0.28125,-0.09375 -0.3125,-0.125 -0.3125,-0.09375 -0.3125,-0.0625 -0.3125,-0.09375 -0.28125,-0.0625 -0.34375,-0.0625 -0.3125,-0.0625 -0.34375,-0.03125 -0.34375,-0.03125 -0.375,-0.03125 -0.375,0 -0.375,0 -0.6875,0 L 55.8125,31.90625 55.15625,32 l -0.625,0.09375 -0.59375,0.125 -0.59375,0.1875 -0.5625,0.1875 -0.5625,0.21875 -0.53125,0.25 -0.5,0.28125 -0.5,0.28125 -0.46875,0.34375 -0.4375,0.34375 -0.40625,0.375 -0.34375,0.34375 0,-3.15625 0,-3.15625 0,-3.15625 0,-3.125 -0.90625,0 -0.9375,0 -0.9375,0 -0.90625,0 -0.9375,0 -0.90625,0 -0.9375,0 -0.9375,0 0,2.3125 0,2.34375 0,2.3125 0,2.3125 0,2.34375 0,2.3125 0,2.34375 0,2.3125 -0.15625,0.03125 -0.1875,0.03125 -0.1875,0.03125 -0.1875,0 -0.21875,0.03125 -0.1875,0.03125 -0.21875,0 -0.21875,0.03125 -0.21875,0.03125 -0.21875,0 -0.21875,0 -0.21875,0.03125 -0.21875,0 -0.21875,0 -0.1875,0 -0.1875,0 -0.625,0 -0.5625,-0.09375 -0.53125,-0.125 -0.46875,-0.15625 -0.40625,-0.25 -0.375,-0.25 -0.3125,-0.34375 -0.25,-0.375 -0.21875,-0.40625 -0.1875,-0.5 -0.1875,-0.5625 -0.125,-0.59375 -0.09375,-0.6875 -0.09375,-0.75 -0.03125,-0.78125 0,-0.875 0,-1.5 0,-1.53125 0,-1.5 0,-1.53125 0,-1.5 0,-1.53125 0,-1.5 0,-1.5 -0.9375,0 -0.9375,0 -0.90625,0 -0.9375,0 -0.90625,0 -0.9375,0 -0.9375,0 -0.90625,0 0,0.4375 -0.5625,-0.34375 -0.84375,-0.4375 -0.96875,-0.4375 -1.03125,-0.46875 -1.1875,-0.4375 -0.5625,-0.21875 -0.5,-0.21875 L 20.375,20.125 19.96875,19.9375 19.59375,19.75 19.28125,19.5625 18.96875,19.40625 18.75,19.21875 18.5625,19.0625 18.4375,18.9375 18.375,18.78125 18.3125,18.625 18.1875,18.15625 18.15625,17.75 18.25,17.40625 l 0.21875,-0.3125 0.40625,-0.375 0.5,-0.25 0.78125,-0.15625 1.3125,-0.03125 0.9375,0 0.84375,0.0625 0.84375,0.125 0.78125,0.15625 0.75,0.1875 0.71875,0.1875 0.6875,0.1875 0.65625,0.21875 0.3125,-1.5 0.3125,-1.53125 0.34375,-1.5 0.3125,-1.53125 -0.6875,-0.25 -0.8125,-0.21875 -0.9375,-0.25 L 25.5,10.4375 24.375,10.25 23.25,10.09375 22.09375,10.03125 z m 37.4375,28.5625 0.375,0 0.40625,0.03125 0.375,0.03125 0.375,0.03125 0.34375,0.0625 0.3125,0.0625 0.28125,0.09375 0.25,0.0625 0.25,0.09375 0.25,0.09375 0.21875,0.09375 0.1875,0.09375 0.1875,0.125 0.1875,0.09375 0,1.5625 0,1.5625 0,1.5625 0,1.53125 0,1.5625 0,1.5625 0,1.5625 0,1.5625 -0.125,0.03125 -0.15625,0 -0.15625,0.03125 -0.1875,0.03125 -0.15625,0 -0.1875,0.03125 -0.21875,0.03125 -0.1875,0 -0.21875,0.03125 -0.21875,0 -0.21875,0.03125 -0.25,0 -0.21875,0 -0.25,0.03125 -0.21875,0 -0.25,0 -0.75,-0.03125 -0.6875,-0.09375 -0.625,-0.1875 L 56.5,51.71875 55.9375,51.4375 55.4375,51.0625 55,50.65625 l -0.40625,-0.5 -0.375,-0.53125 -0.3125,-0.5 -0.25,-0.53125 L 53.4375,48.0625 53.25,47.4375 53.125,46.8125 53.0625,46.0625 53.03125,45.28125 53.125,43.625 53.375,42.28125 53.78125,41.1875 54.3125,40.34375 55,39.65625 55.78125,39.1875 56.6875,38.84375 57.71875,38.625 l 0.3125,-0.03125 z m 17.0625,8.125 0.625,0.03125 0.5625,0.09375 0.53125,0.15625 0.53125,0.21875 0.46875,0.28125 0.40625,0.34375 0.40625,0.375 0.375,0.46875 0.3125,0.5 0.28125,0.53125 0.21875,0.53125 0.1875,0.59375 0.15625,0.625 0.125,0.65625 0.0625,0.75 0,0.84375 0,0.78125 -0.0625,0.75 -0.125,0.65625 -0.15625,0.59375 -0.1875,0.5625 -0.21875,0.5 -0.28125,0.53125 -0.3125,0.5 -0.375,0.46875 -0.40625,0.40625 -0.40625,0.34375 -0.46875,0.28125 -0.53125,0.21875 -0.53125,0.15625 -0.5625,0.09375 -0.625,0.03125 -0.625,-0.03125 L 74.25,60.4375 73.6875,60.28125 73.1875,60.0625 72.71875,59.78125 72.28125,59.4375 71.875,59.03125 71.5,58.5625 l -0.3125,-0.5 -0.28125,-0.53125 -0.25,-0.5 -0.1875,-0.5625 -0.15625,-0.59375 -0.09375,-0.65625 -0.0625,-0.75 -0.03125,-0.78125 0.03125,-0.84375 0.0625,-0.75 0.09375,-0.65625 0.15625,-0.625 0.1875,-0.59375 0.25,-0.53125 0.28125,-0.53125 0.3125,-0.5 0.375,-0.46875 0.40625,-0.375 0.4375,-0.34375 0.46875,-0.28125 0.5,-0.21875 0.5625,-0.15625 0.5625,-0.09375 z"
         transform="matrix(0.8,0,0,-0.8,-15.231,25.202)"
         id="path3216"
         style="fill:#ed1d24;fill-opacity:1;fill-rule:nonzero;stroke:none" />
    </g>
  </g>
</svg>
