<?xml version="1.0" encoding="UTF-8" standalone="no"?>
<!-- Created with Inkscape (http://www.inkscape.org/) -->

<svg
   xmlns:dc="http://purl.org/dc/elements/1.1/"
   xmlns:cc="http://creativecommons.org/ns#"
   xmlns:rdf="http://www.w3.org/1999/02/22-rdf-syntax-ns#"
   xmlns:svg="http://www.w3.org/2000/svg"
   xmlns="http://www.w3.org/2000/svg"
   xmlns:sodipodi="http://sodipodi.sourceforge.net/DTD/sodipodi-0.dtd"
   xmlns:inkscape="http://www.inkscape.org/namespaces/inkscape"
   width="310.33539"
   height="80.557251"
   id="svg4480"
   version="1.1"
   inkscape:version="0.48.3.1 r9886"
   sodipodi:docname="New document 9">
  <defs
     id="defs4482">
    <clipPath
       clipPathUnits="userSpaceOnUse"
       id="clipPath3502">
      <path
         inkscape:connector-curvature="0"
         d="m 0,0 1024,0 0,768 L 0,768 0,0 z"
         id="path3504" />
    </clipPath>
  </defs>
  <sodipodi:namedview
     id="base"
     pagecolor="#ffffff"
     bordercolor="#666666"
     borderopacity="1.0"
     inkscape:pageopacity="0.0"
     inkscape:pageshadow="2"
     inkscape:zoom="0.35"
     inkscape:cx="155.16769"
     inkscape:cy="40.278627"
     inkscape:document-units="px"
     inkscape:current-layer="layer1"
     showgrid="false"
     fit-margin-top="10"
     fit-margin-left="10"
     fit-margin-right="10"
     fit-margin-bottom="10"
     inkscape:window-width="501"
     inkscape:window-height="442"
     inkscape:window-x="199"
     inkscape:window-y="79"
     inkscape:window-maximized="0" />
  <metadata
     id="metadata4485">
    <rdf:RDF>
      <cc:Work
         rdf:about="">
        <dc:format>image/svg+xml</dc:format>
        <dc:type
           rdf:resource="http://purl.org/dc/dcmitype/StillImage" />
        <dc:title></dc:title>
      </cc:Work>
    </rdf:RDF>
  </metadata>
  <g
     inkscape:label="Layer 1"
     inkscape:groupmode="layer"
     id="layer1"
     transform="translate(-219.83231,-492.08356)">
    <g
       id="g3214"
       transform="matrix(1.25,0,0,-1.25,306.75294,540.49656)">
      <path
         d="m 0,0 c 1.085,0 1.852,0.105 2.304,0.317 0.45,0.213 0.675,0.623 0.675,1.233 0,0.475 -0.292,0.893 -0.874,1.251 -0.583,0.357 -1.47,0.76 -2.662,1.211 -0.927,0.345 -1.767,0.703 -2.522,1.072 -0.755,0.372 -1.397,0.814 -1.928,1.331 -0.529,0.516 -0.939,1.132 -1.23,1.849 -0.292,0.713 -0.437,1.573 -0.437,2.581 0,1.959 0.728,3.508 2.185,4.646 1.455,1.14 3.455,1.711 5.998,1.711 1.271,0 2.489,-0.114 3.655,-0.339 1.164,-0.226 2.091,-0.471 2.78,-0.736 L 6.911,11.52 c -0.689,0.238 -1.436,0.449 -2.244,0.636 -0.808,0.184 -1.715,0.278 -2.721,0.278 -1.854,0 -2.781,-0.516 -2.781,-1.551 0,-0.237 0.04,-0.45 0.119,-0.634 0.079,-0.185 0.239,-0.365 0.477,-0.536 C 0,9.539 0.324,9.354 0.734,9.153 1.145,8.953 1.668,8.733 2.304,8.495 3.6,8.012 4.673,7.539 5.52,7.072 6.368,6.604 7.037,6.1 7.527,5.558 8.017,5.017 8.361,4.415 8.559,3.754 8.758,3.093 8.858,2.328 8.858,1.456 8.858,-0.605 8.083,-2.165 6.534,-3.223 4.985,-4.279 2.793,-4.806 -0.04,-4.806 c -1.854,0 -3.397,0.158 -4.628,0.475 -1.232,0.319 -2.085,0.583 -2.563,0.796 l 0.994,4.806 C -5.231,0.874 -4.198,0.562 -3.139,0.338 -2.08,0.111 -1.034,0 0,0"
         style="fill:#ed1d24;fill-opacity:1;fill-rule:nonzero;stroke:none"
         id="path3216"
         inkscape:connector-curvature="0" />
    </g>
    <g
       id="g3218"
       transform="matrix(1.25,0,0,-1.25,345.78218,544.91581)">
      <path
         d="m 0,0 c -1.008,-0.293 -2.306,-0.563 -3.895,-0.815 -1.588,-0.251 -3.257,-0.377 -5.005,-0.377 -1.774,0 -3.252,0.237 -4.43,0.715 -1.178,0.477 -2.111,1.146 -2.799,2.007 -0.689,0.859 -1.18,1.886 -1.47,3.078 -0.292,1.191 -0.437,2.502 -0.437,3.932 l 0,11.64 5.919,0 0,-10.923 c 0,-1.908 0.251,-3.285 0.754,-4.132 0.504,-0.849 1.445,-1.272 2.821,-1.272 0.423,0 0.873,0.021 1.351,0.06 0.476,0.039 0.899,0.084 1.27,0.139 l 0,16.128 L 0,20.18 0,0 z"
         style="fill:#ed1d24;fill-opacity:1;fill-rule:nonzero;stroke:none"
         id="path3220"
         inkscape:connector-curvature="0" />
    </g>
    <g
       id="g3222"
       transform="matrix(1.25,0,0,-1.25,375.92131,544.96519)">
      <path
         d="m 0,0 c -0.531,-0.159 -1.139,-0.311 -1.828,-0.458 -0.689,-0.145 -1.41,-0.272 -2.164,-0.377 -0.756,-0.105 -1.523,-0.191 -2.305,-0.257 -0.782,-0.066 -1.528,-0.1 -2.244,-0.1 -1.722,0 -3.258,0.252 -4.608,0.755 -1.351,0.502 -2.49,1.224 -3.417,2.165 -0.927,0.939 -1.635,2.078 -2.125,3.416 -0.49,1.335 -0.735,2.839 -0.735,4.509 0,1.694 0.211,3.223 0.636,4.589 0.424,1.363 1.033,2.52 1.827,3.475 0.795,0.953 1.768,1.681 2.92,2.184 1.152,0.503 2.469,0.756 3.952,0.756 0.821,0 1.556,-0.081 2.206,-0.239 0.649,-0.159 1.304,-0.386 1.966,-0.676 l 0,9.455 L 0,30.15 0,0 z m -13.387,9.931 c 0,-1.828 0.41,-3.296 1.23,-4.409 0.822,-1.112 2.039,-1.669 3.655,-1.669 0.53,0 1.02,0.018 1.471,0.06 0.45,0.04 0.82,0.084 1.112,0.139 l 0,10.765 c -0.371,0.238 -0.853,0.437 -1.45,0.597 -0.596,0.158 -1.199,0.238 -1.808,0.238 -2.806,0 -4.21,-1.908 -4.21,-5.721"
         style="fill:#ed1d24;fill-opacity:1;fill-rule:nonzero;stroke:none"
         id="path3224"
         inkscape:connector-curvature="0" />
    </g>
    <g
       id="g3226"
       transform="matrix(1.25,0,0,-1.25,407.45169,532.69993)">
      <path
         d="m 0,0 c 0,-1.645 -0.24,-3.146 -0.715,-4.511 -0.477,-1.363 -1.166,-2.528 -2.067,-3.493 -0.899,-0.97 -1.978,-1.717 -3.235,-2.245 -1.259,-0.53 -2.67,-0.794 -4.232,-0.794 -1.535,0 -2.933,0.264 -4.191,0.794 -1.259,0.528 -2.337,1.275 -3.238,2.245 -0.9,0.965 -1.602,2.13 -2.106,3.493 -0.504,1.365 -0.753,2.866 -0.753,4.511 0,1.64 0.257,3.137 0.773,4.487 0.516,1.353 1.233,2.502 2.146,3.457 0.914,0.953 1.998,1.694 3.257,2.225 1.259,0.529 2.627,0.795 4.112,0.795 1.511,0 2.894,-0.266 4.153,-0.795 C -4.839,9.638 -3.759,8.897 -2.861,7.944 -1.96,6.989 -1.258,5.84 -0.754,4.487 -0.252,3.137 0,1.64 0,0 m -6.037,0 c 0,1.828 -0.366,3.264 -1.093,4.31 -0.729,1.046 -1.768,1.569 -3.119,1.569 -1.351,0 -2.397,-0.523 -3.139,-1.569 C -14.129,3.264 -14.5,1.828 -14.5,0 c 0,-1.829 0.371,-3.277 1.112,-4.352 0.742,-1.072 1.788,-1.607 3.139,-1.607 1.351,0 2.39,0.535 3.119,1.607 0.727,1.075 1.093,2.523 1.093,4.352"
         style="fill:#ed1d24;fill-opacity:1;fill-rule:nonzero;stroke:none"
         id="path3228"
         inkscape:connector-curvature="0" />
    </g>
    <g
       id="g3230"
       transform="matrix(1.25,0,0,-1.25,423.34281,519.44219)">
      <path
         d="M 0,0 C 0.315,0 0.679,-0.021 1.092,-0.061 1.502,-0.1 1.905,-0.153 2.303,-0.22 2.701,-0.285 3.064,-0.352 3.395,-0.416 3.726,-0.484 3.971,-0.543 4.131,-0.596 L 3.493,-3.813 c -0.291,0.105 -0.774,0.231 -1.448,0.376 -0.678,0.146 -1.544,0.218 -2.602,0.218 -0.689,0 -1.372,-0.072 -2.047,-0.218 -0.675,-0.145 -1.118,-0.245 -1.33,-0.297 l 0,-17.36 -3.694,0 0,19.783 c 0.875,0.317 1.959,0.615 3.258,0.895 C -3.075,-0.141 -1.615,0 0,0"
         style="fill:#636466;fill-opacity:1;fill-rule:nonzero;stroke:none"
         id="path3232"
         inkscape:connector-curvature="0" />
    </g>
    <g
       id="g3234"
       transform="matrix(1.25,0,0,-1.25,453.92881,532.89906)">
      <path
         d="m 0,0 c 0,-1.644 -0.237,-3.125 -0.715,-4.449 -0.477,-1.326 -1.146,-2.464 -2.007,-3.416 -0.862,-0.953 -1.888,-1.689 -3.077,-2.207 -1.194,-0.516 -2.491,-0.773 -3.896,-0.773 -1.404,0 -2.698,0.257 -3.891,0.773 -1.194,0.518 -2.218,1.254 -3.078,2.207 -0.861,0.952 -1.53,2.09 -2.007,3.416 -0.477,1.324 -0.716,2.805 -0.716,4.449 0,1.615 0.239,3.091 0.716,4.429 0.477,1.338 1.146,2.482 2.007,3.435 0.86,0.955 1.884,1.69 3.078,2.205 1.193,0.516 2.487,0.776 3.891,0.776 1.405,0 2.702,-0.26 3.896,-0.776 1.189,-0.515 2.215,-1.25 3.077,-2.205 0.861,-0.953 1.53,-2.097 2.007,-3.435 C -0.237,3.091 0,1.615 0,0 m -3.852,0 c 0,2.33 -0.523,4.178 -1.57,5.541 -1.047,1.364 -2.47,2.045 -4.273,2.045 -1.799,0 -3.223,-0.681 -4.269,-2.045 C -15.01,4.178 -15.532,2.33 -15.532,0 c 0,-2.331 0.522,-4.178 1.568,-5.541 1.046,-1.364 2.47,-2.045 4.269,-2.045 1.803,0 3.226,0.681 4.273,2.045 1.047,1.363 1.57,3.21 1.57,5.541"
         style="fill:#636466;fill-opacity:1;fill-rule:nonzero;stroke:none"
         id="path3236"
         inkscape:connector-curvature="0" />
    </g>
    <g
       id="g3238"
       transform="matrix(1.25,0,0,-1.25,481.38744,532.89906)">
      <path
         d="m 0,0 c 0,-1.644 -0.238,-3.125 -0.716,-4.449 -0.474,-1.326 -1.146,-2.464 -2.006,-3.416 -0.86,-0.953 -1.885,-1.689 -3.078,-2.207 -1.191,-0.516 -2.488,-0.773 -3.894,-0.773 -1.402,0 -2.699,0.257 -3.891,0.773 -1.193,0.518 -2.219,1.254 -3.079,2.207 -0.861,0.952 -1.53,2.09 -2.006,3.416 -0.476,1.324 -0.716,2.805 -0.716,4.449 0,1.615 0.24,3.091 0.716,4.429 0.476,1.338 1.145,2.482 2.006,3.435 0.86,0.955 1.886,1.69 3.079,2.205 1.192,0.516 2.489,0.776 3.891,0.776 1.406,0 2.703,-0.26 3.894,-0.776 1.193,-0.515 2.218,-1.25 3.078,-2.205 C -1.862,6.911 -1.19,5.767 -0.716,4.429 -0.238,3.091 0,1.615 0,0 m -3.853,0 c 0,2.33 -0.525,4.178 -1.569,5.541 -1.047,1.364 -2.471,2.045 -4.272,2.045 -1.8,0 -3.224,-0.681 -4.269,-2.045 C -15.01,4.178 -15.532,2.33 -15.532,0 c 0,-2.331 0.522,-4.178 1.569,-5.541 1.045,-1.364 2.469,-2.045 4.269,-2.045 1.801,0 3.225,0.681 4.272,2.045 1.044,1.363 1.569,3.21 1.569,5.541"
         style="fill:#636466;fill-opacity:1;fill-rule:nonzero;stroke:none"
         id="path3240"
         inkscape:connector-curvature="0" />
    </g>
    <g
       id="g3242"
       transform="matrix(1.25,0,0,-1.25,485.06269,520.73419)">
      <path
         d="m 0,0 c 0.847,0.212 1.967,0.437 3.358,0.675 1.389,0.239 2.996,0.359 4.824,0.359 1.325,0 2.438,-0.181 3.337,-0.538 0.901,-0.355 1.654,-0.879 2.266,-1.568 0.184,0.132 0.475,0.316 0.872,0.556 0.397,0.238 0.887,0.47 1.47,0.694 0.583,0.226 1.231,0.425 1.948,0.596 0.715,0.172 1.48,0.26 2.304,0.26 1.587,0 2.886,-0.233 3.892,-0.697 1.005,-0.463 1.792,-1.117 2.364,-1.966 0.57,-0.847 0.954,-1.855 1.152,-3.019 0.197,-1.166 0.297,-2.436 0.297,-3.813 l 0,-11.599 -3.693,0 0,10.805 c 0,1.217 -0.062,2.263 -0.178,3.138 -0.122,0.874 -0.346,1.6 -0.677,2.184 -0.332,0.583 -0.783,1.014 -1.349,1.292 -0.572,0.278 -1.306,0.416 -2.206,0.416 -1.246,0 -2.272,-0.166 -3.078,-0.497 -0.809,-0.331 -1.359,-0.628 -1.649,-0.892 0.211,-0.689 0.372,-1.445 0.476,-2.266 0.106,-0.819 0.159,-1.681 0.159,-2.581 l 0,-11.599 -3.695,0 0,10.805 c 0,1.217 -0.065,2.263 -0.199,3.138 -0.132,0.874 -0.363,1.6 -0.695,2.184 -0.328,0.583 -0.779,1.014 -1.351,1.292 -0.568,0.278 -1.29,0.416 -2.163,0.416 -0.372,0 -0.768,-0.013 -1.193,-0.04 C 6.169,-2.291 5.766,-2.324 5.381,-2.363 4.997,-2.403 4.647,-2.45 4.328,-2.502 4.012,-2.555 3.798,-2.596 3.695,-2.623 l 0,-17.437 L 0,-20.06 0,0 z"
         style="fill:#636466;fill-opacity:1;fill-rule:nonzero;stroke:none"
         id="path3244"
         inkscape:connector-curvature="0" />
    </g>
    <g
       transform="matrix(1.25,0,0,-1.25,-261.76794,854.63631)"
       clip-path="url(#clipPath3502)"
       id="g3500">
      <g
         transform="translate(419.057,277.8502)"
         id="g3506">
        <path
           inkscape:connector-curvature="0"
           id="path3508"
           style="fill:#ed1d24;fill-opacity:1;fill-rule:nonzero;stroke:none"
           d="m 0,0 c 0,2.315 -1.877,4.192 -4.192,4.192 -2.313,0 -4.19,-1.877 -4.19,-4.192 0,-2.313 1.877,-4.189 4.19,-4.189 C -1.877,-4.189 0,-2.313 0,0" />
      </g>
      <g
         transform="translate(436.4494,267.8046)"
         id="g3510">
        <path
           inkscape:connector-curvature="0"
           id="path3512"
           style="fill:#ed1d24;fill-opacity:1;fill-rule:nonzero;stroke:none"
           d="M 0,0 C 0,2.315 -1.875,4.19 -4.188,4.19 -6.503,4.19 -8.38,2.315 -8.38,0 c 0,-2.314 1.877,-4.191 4.192,-4.191 C -1.875,-4.191 0,-2.314 0,0" />
      </g>
      <g
         transform="translate(436.4494,247.8975)"
         id="g3514">
        <path
           inkscape:connector-curvature="0"
           id="path3516"
           style="fill:#ed1d24;fill-opacity:1;fill-rule:nonzero;stroke:none"
           d="M 0,0 C 0,2.315 -1.875,4.191 -4.188,4.191 -6.503,4.191 -8.38,2.315 -8.38,0 c 0,-2.314 1.877,-4.191 4.192,-4.191 C -1.875,-4.191 0,-2.314 0,0" />
      </g>
      <g
         transform="translate(401.6622,267.8046)"
         id="g3518">
        <path
           inkscape:connector-curvature="0"
           id="path3520"
           style="fill:#ed1d24;fill-opacity:1;fill-rule:nonzero;stroke:none"
           d="m 0,0 c 0,2.315 -1.877,4.19 -4.191,4.19 -2.315,0 -4.191,-1.875 -4.191,-4.19 0,-2.314 1.876,-4.191 4.191,-4.191 C -1.877,-4.191 0,-2.314 0,0" />
      </g>
      <g
         transform="translate(401.6622,247.8975)"
         id="g3522">
        <path
           inkscape:connector-curvature="0"
           id="path3524"
           style="fill:#ed1d24;fill-opacity:1;fill-rule:nonzero;stroke:none"
           d="m 0,0 c 0,2.315 -1.877,4.191 -4.191,4.191 -2.315,0 -4.191,-1.876 -4.191,-4.191 0,-2.314 1.876,-4.191 4.191,-4.191 C -1.877,-4.191 0,-2.314 0,0" />
      </g>
      <g
         transform="translate(419.057,257.8825)"
         id="g3526">
        <path
           inkscape:connector-curvature="0"
           id="path3528"
           style="fill:#ed1d24;fill-opacity:1;fill-rule:nonzero;stroke:none"
           d="m 0,0 c 0,2.315 -1.877,4.191 -4.192,4.191 -2.313,0 -4.19,-1.876 -4.19,-4.191 0,-2.314 1.877,-4.191 4.19,-4.191 C -1.877,-4.191 0,-2.314 0,0" />
      </g>
      <g
         transform="translate(419.057,237.7864)"
         id="g3530">
        <path
           inkscape:connector-curvature="0"
           id="path3532"
           style="fill:#ed1d24;fill-opacity:1;fill-rule:nonzero;stroke:none"
           d="m 0,0 c 0,2.315 -1.877,4.192 -4.192,4.192 -2.313,0 -4.19,-1.877 -4.19,-4.192 0,-2.313 1.877,-4.19 4.19,-4.19 C -1.877,-4.19 0,-2.313 0,0" />
      </g>
      <g
         transform="translate(418.3654,237.8618)"
         id="g3534">
        <path
           inkscape:connector-curvature="0"
           id="path3536"
           style="fill:#ed1d24;fill-opacity:1;fill-rule:nonzero;stroke:none"
           d="m 0,0 c 0,1.934 -1.567,3.501 -3.5,3.501 -1.932,0 -3.499,-1.567 -3.499,-3.501 0,-1.933 1.567,-3.5 3.499,-3.5 1.933,0 3.5,1.567 3.5,3.5" />
      </g>
    </g>
    <path
       inkscape:connector-curvature="0"
       d="m 280.34706,540.97131 -3.92375,0 0,-17.03375 3.92375,0 0,17.03375 z"
       style="fill:#ed1d24;fill-opacity:1;fill-rule:nonzero;stroke:none"
       id="path3538" />
    <path
       inkscape:connector-curvature="0"
       d="m 237.09706,540.97131 -3.92375,0 0,-17.03375 3.92375,0 0,17.03375 z"
       style="fill:#ed1d24;fill-opacity:1;fill-rule:nonzero;stroke:none"
       id="path3540" />
    <path
       inkscape:connector-curvature="0"
       d="m 258.76206,553.53256 -3.925,0 0,-17.03375 3.925,0 0,17.03375 z"
       style="fill:#ed1d24;fill-opacity:1;fill-rule:nonzero;stroke:none"
       id="path3542" />
    <path
       inkscape:connector-curvature="0"
       id="path3546"
       style="fill:#ed1d24;fill-opacity:1;fill-rule:nonzero;stroke:none"
       d="m 237.91643,548.71143 1.97,-3.39625 14.73375,8.5475 -1.96749,3.39375 -14.73626,-8.545 z" />
    <path
       inkscape:connector-curvature="0"
       id="path3550"
       style="fill:#ed1d24;fill-opacity:1;fill-rule:nonzero;stroke:none"
       d="m 259.61681,511.29668 1.97,-3.39375 14.7325,8.54625 -1.96875,3.3925 -14.73375,-8.545 z" />
    <path
       inkscape:connector-curvature="0"
       id="path3554"
       style="fill:#ed1d24;fill-opacity:1;fill-rule:nonzero;stroke:none"
       d="m 237.88318,523.73793 1.96875,-3.39375 14.73375,8.5425 -1.96875,3.395 -14.73375,-8.54375 z" />
    <path
       inkscape:connector-curvature="0"
       id="path3558"
       style="fill:#ed1d24;fill-opacity:1;fill-rule:nonzero;stroke:none"
       d="m 251.99931,507.99506 1.9675,3.39625 -14.73375,8.545 -1.96875,-3.39625 14.735,-8.545 z" />
    <path
       inkscape:connector-curvature="0"
       id="path3562"
       style="fill:#ed1d24;fill-opacity:1;fill-rule:nonzero;stroke:none"
       d="m 273.69643,545.40968 1.96875,3.39625 -14.735,8.54375 -1.96749,-3.39375 14.73374,-8.54625 z" />
    <path
       inkscape:connector-curvature="0"
       id="path3566"
       style="fill:#ed1d24;fill-opacity:1;fill-rule:nonzero;stroke:none"
       d="m 273.69344,520.36831 1.96749,3.39625 -14.735,8.54375 -1.9675,-3.395 14.73501,-8.545 z" />
  </g>
</svg>
