  0
SECTION
  2
HEADER
  9
$ACADVER
  1
AC1014
  9
$HANDSEED
  5
FFFF
  9
$MEASUREMENT
 70
     1
  0
ENDSEC
  0
SECTION
  2
TABLES
  0
TABLE
  2
VPORT
  5
8
330
0
100
AcDbSymbolTable
 70
     4
  0
VPORT
  5
2E
330
8
100
AcDbSymbolTableRecord
100
AcDbViewportTableRecord
  2
*ACTIVE
 70
     0
 10
0.0
 20
0.0
 11
1.0
 21
1.0
 12
210.0
 22
148.5
 13
0.0
 23
0.0
 14
10.0
 24
10.0
 15
10.0
 25
10.0
 16
0.0
 26
0.0
 36
1.0
 17
0.0
 27
0.0
 37
0.0
 40
341.0
 41
1.24
 42
50.0
 43
0.0
 44
0.0
 50
0.0
 51
0.0
 71
     0
 72
   100
 73
     1
 74
     3
 75
     0
 76
     0
 77
     0
 78
     0
  0
ENDTAB
  0
TABLE
  2
LTYPE
  5
5
330
0
100
AcDbSymbolTable
 70
     1
  0
LTYPE
  5
14
330
5
100
AcDbSymbolTableRecord
100
AcDbLinetypeTableRecord
  2
BYBLOCK
 70
     0
  3

 72
    65
 73
     0
 40
0.0
  0
LTYPE
  5
15
330
5
100
AcDbSymbolTableRecord
100
AcDbLinetypeTableRecord
  2
BYLAYER
 70
     0
  3

 72
    65
 73
     0
 40
0.0
  0
LTYPE
  5
16
330
5
100
AcDbSymbolTableRecord
100
AcDbLinetypeTableRecord
  2
CONTINUOUS
 70
     0
  3
Solid line
 72
    65
 73
     0
 40
0.0
  0
ENDTAB
  0
TABLE
  2
LAYER
  5
2
100
AcDbSymbolTable
 70
2
  0
LAYER
  5
50
100
AcDbSymbolTableRecord
100
AcDbLayerTableRecord
  2
0
 70
0
  6
CONTINUOUS
  0
LAYER
  5
51
100
AcDbSymbolTableRecord
100
AcDbLayerTableRecord
  2
Layer_1
 70
0
  6
CONTINUOUS
  0
ENDTAB
  0
TABLE
  2
STYLE
  5
3
330
0
100
AcDbSymbolTable
 70
     1
  0
STYLE
  5
11
330
3
100
AcDbSymbolTableRecord
100
AcDbTextStyleTableRecord
  2
STANDARD
 70
     0
 40
0.0
 41
1.0
 50
0.0
 71
     0
 42
2.5
  3
txt
  4

  0
ENDTAB
  0
TABLE
  2
VIEW
  5
6
330
0
100
AcDbSymbolTable
 70
     0
  0
ENDTAB
  0
TABLE
  2
UCS
  5
7
330
0
100
AcDbSymbolTable
 70
     0
  0
ENDTAB
  0
TABLE
  2
APPID
  5
9
330
0
100
AcDbSymbolTable
 70
     2
  0
APPID
  5
12
330
9
100
AcDbSymbolTableRecord
100
AcDbRegAppTableRecord
  2
ACAD
 70
     0
  0
ENDTAB
  0
TABLE
  2
DIMSTYLE
  5
A
330
0
100
AcDbSymbolTable
 70
     1
  0
DIMSTYLE
105
27
330
A
100
AcDbSymbolTableRecord
100
AcDbDimStyleTableRecord
  2
ISO-25
 70
     0
  3

  4

  5

  6

  7

 40
1.0
 41
2.5
 42
0.625
 43
3.75
 44
1.25
 45
0.0
 46
0.0
 47
0.0
 48
0.0
140
2.5
141
2.5
142
0.0
143
0.03937007874016
144
1.0
145
0.0
146
1.0
147
0.625
 71
     0
 72
     0
 73
     0
 74
     0
 75
     0
 76
     0
 77
     1
 78
     8
170
     0
171
     3
172
     1
173
     0
174
     0
175
     0
176
     0
177
     0
178
     0
270
     2
271
     2
272
     2
273
     2
274
     3
340
11
275
     0
280
     0
281
     0
282
     0
283
     0
284
     8
285
     0
286
     0
287
     3
288
     0
  0
ENDTAB
  0
TABLE
  2
BLOCK_RECORD
  5
1
330
0
100
AcDbSymbolTable
 70
     1
  0
BLOCK_RECORD
  5
1F
330
1
100
AcDbSymbolTableRecord
100
AcDbBlockTableRecord
  2
*MODEL_SPACE
  0
BLOCK_RECORD
  5
1B
330
1
100
AcDbSymbolTableRecord
100
AcDbBlockTableRecord
  2
*PAPER_SPACE
  0
ENDTAB
  0
ENDSEC
  0
SECTION
  2
BLOCKS
  0
BLOCK
  5
20
330
1F
100
AcDbEntity
  8
0
100
AcDbBlockBegin
  2
*MODEL_SPACE
 70
     0
 10
0.0
 20
0.0
 30
0.0
  3
*MODEL_SPACE
  1

  0
ENDBLK
  5
21
330
1F
100
AcDbEntity
  8
0
100
AcDbBlockEnd
  0
BLOCK
  5
1C
330
1B
100
AcDbEntity
 67
     1
  8
0
100
AcDbBlockBegin
  2
*PAPER_SPACE
  1

  0
ENDBLK
  5
1D
330
1B
100
AcDbEntity
 67
     1
  8
0
100
AcDbBlockEnd
  0
ENDSEC
  0
SECTION
  2
ENTITIES
  0
SPLINE
  5
100
100
AcDbEntity
  8
Layer_1
 62
7
100
AcDbSpline
 70
8
 71
3
 72
8
 73
4
 74
0
 40
0
 40
0
 40
0
 40
0
 40
1
 40
1
 40
1
 40
1
 10
15.231000
 20
37.097444
 30
0.0
 10
16.316000
 20
37.097444
 30
0.0
 10
17.083000
 20
37.520642
 30
0.0
 10
17.535000
 20
37.732642
 30
0.0
  0
SPLINE
  5
101
100
AcDbEntity
  8
Layer_1
 62
7
100
AcDbSpline
 70
8
 71
3
 72
8
 73
4
 74
0
 40
0
 40
0
 40
0
 40
0
 40
1
 40
1
 40
1
 40
1
 10
17.535000
 20
37.732642
 30
0.0
 10
17.985000
 20
37.945642
 30
0.0
 10
18.008928
 20
37.955122
 30
0.0
 10
18.086256
 20
38.319856
 30
0.0
  0
SPLINE
  5
102
100
AcDbEntity
  8
Layer_1
 62
7
100
AcDbSpline
 70
8
 71
3
 72
8
 73
4
 74
0
 40
0
 40
0
 40
0
 40
0
 40
1
 40
1
 40
1
 40
1
 10
18.086256
 20
38.319856
 30
0.0
 10
18.184773
 20
38.784527
 30
0.0
 10
17.918000
 20
39.080273
 30
0.0
 10
17.336000
 20
39.438273
 30
0.0
  0
SPLINE
  5
103
100
AcDbEntity
  8
Layer_1
 62
7
100
AcDbSpline
 70
8
 71
3
 72
8
 73
4
 74
0
 40
0
 40
0
 40
0
 40
0
 40
1
 40
1
 40
1
 40
1
 10
17.336000
 20
39.438273
 30
0.0
 10
16.753000
 20
39.795273
 30
0.0
 10
15.866000
 20
40.198273
 30
0.0
 10
14.674000
 20
40.649273
 30
0.0
  0
SPLINE
  5
104
100
AcDbEntity
  8
Layer_1
 62
7
100
AcDbSpline
 70
8
 71
3
 72
8
 73
4
 74
0
 40
0
 40
0
 40
0
 40
0
 40
1
 40
1
 40
1
 40
1
 10
14.674000
 20
40.649273
 30
0.0
 10
13.747000
 20
40.994273
 30
0.0
 10
12.907000
 20
41.352273
 30
0.0
 10
12.152000
 20
41.721273
 30
0.0
  0
SPLINE
  5
105
100
AcDbEntity
  8
Layer_1
 62
7
100
AcDbSpline
 70
8
 71
3
 72
8
 73
4
 74
0
 40
0
 40
0
 40
0
 40
0
 40
1
 40
1
 40
1
 40
1
 10
12.152000
 20
41.721273
 30
0.0
 10
11.397000
 20
42.093273
 30
0.0
 10
10.755000
 20
42.535273
 30
0.0
 10
10.224000
 20
43.052273
 30
0.0
  0
SPLINE
  5
106
100
AcDbEntity
  8
Layer_1
 62
7
100
AcDbSpline
 70
8
 71
3
 72
8
 73
4
 74
0
 40
0
 40
0
 40
0
 40
0
 40
1
 40
1
 40
1
 40
1
 10
10.224000
 20
43.052273
 30
0.0
 10
9.695000
 20
43.568273
 30
0.0
 10
9.285000
 20
44.184273
 30
0.0
 10
8.994000
 20
44.901273
 30
0.0
  0
SPLINE
  5
107
100
AcDbEntity
  8
Layer_1
 62
7
100
AcDbSpline
 70
8
 71
3
 72
8
 73
4
 74
0
 40
0
 40
0
 40
0
 40
0
 40
1
 40
1
 40
1
 40
1
 10
8.994000
 20
44.901273
 30
0.0
 10
8.702000
 20
45.614273
 30
0.0
 10
8.557000
 20
46.615694
 30
0.0
 10
8.557000
 20
47.623694
 30
0.0
  0
SPLINE
  5
108
100
AcDbEntity
  8
Layer_1
 62
7
100
AcDbSpline
 70
8
 71
3
 72
8
 73
4
 74
0
 40
0
 40
0
 40
0
 40
0
 40
1
 40
1
 40
1
 40
1
 10
8.557000
 20
47.623694
 30
0.0
 10
8.557000
 20
49.582694
 30
0.0
 10
9.285000
 20
51.131694
 30
0.0
 10
10.742000
 20
52.269694
 30
0.0
  0
SPLINE
  5
109
100
AcDbEntity
  8
Layer_1
 62
7
100
AcDbSpline
 70
8
 71
3
 72
8
 73
4
 74
0
 40
0
 40
0
 40
0
 40
0
 40
1
 40
1
 40
1
 40
1
 10
10.742000
 20
52.269694
 30
0.0
 10
12.197000
 20
53.409694
 30
0.0
 10
14.197000
 20
53.980694
 30
0.0
 10
16.740000
 20
53.980694
 30
0.0
  0
SPLINE
  5
10a
100
AcDbEntity
  8
Layer_1
 62
7
100
AcDbSpline
 70
8
 71
3
 72
8
 73
4
 74
0
 40
0
 40
0
 40
0
 40
0
 40
1
 40
1
 40
1
 40
1
 10
16.740000
 20
53.980694
 30
0.0
 10
18.011000
 20
53.980694
 30
0.0
 10
19.229000
 20
53.866694
 30
0.0
 10
20.395000
 20
53.641694
 30
0.0
  0
SPLINE
  5
10b
100
AcDbEntity
  8
Layer_1
 62
7
100
AcDbSpline
 70
8
 71
3
 72
8
 73
4
 74
0
 40
0
 40
0
 40
0
 40
0
 40
1
 40
1
 40
1
 40
1
 10
20.395000
 20
53.641694
 30
0.0
 10
21.559000
 20
53.415694
 30
0.0
 10
22.486000
 20
53.170694
 30
0.0
 10
23.175000
 20
52.905694
 30
0.0
  0
SPLINE
  5
10c
100
AcDbEntity
  8
Layer_1
 62
7
100
AcDbSpline
 70
8
 71
3
 72
8
 73
4
 74
0
 40
0
 40
0
 40
0
 40
0
 40
1
 40
1
 40
1
 40
1
 10
22.142000
 20
48.048694
 30
0.0
 10
21.453000
 20
48.286694
 30
0.0
 10
20.706000
 20
48.497694
 30
0.0
 10
19.898000
 20
48.684694
 30
0.0
  0
SPLINE
  5
10d
100
AcDbEntity
  8
Layer_1
 62
7
100
AcDbSpline
 70
8
 71
3
 72
8
 73
4
 74
0
 40
0
 40
0
 40
0
 40
0
 40
1
 40
1
 40
1
 40
1
 10
19.898000
 20
48.684694
 30
0.0
 10
19.090000
 20
48.868694
 30
0.0
 10
18.182987
 20
48.967756
 30
0.0
 10
17.177000
 20
48.962694
 30
0.0
  0
SPLINE
  5
10e
100
AcDbEntity
  8
Layer_1
 62
7
100
AcDbSpline
 70
8
 71
3
 72
8
 73
4
 74
0
 40
0
 40
0
 40
0
 40
0
 40
1
 40
1
 40
1
 40
1
 10
17.177000
 20
48.962694
 30
0.0
 10
15.437747
 20
48.953894
 30
0.0
 10
15.252174
 20
48.792728
 30
0.0
 10
14.767231
 20
48.298090
 30
0.0
  0
SPLINE
  5
10f
100
AcDbEntity
  8
Layer_1
 62
7
100
AcDbSpline
 70
8
 71
3
 72
8
 73
4
 74
0
 40
0
 40
0
 40
0
 40
0
 40
1
 40
1
 40
1
 40
1
 10
14.767231
 20
48.298090
 30
0.0
 10
14.487229
 20
48.012490
 30
0.0
 10
14.453678
 20
47.635958
 30
0.0
 10
14.638744
 20
47.080727
 30
0.0
  0
SPLINE
  5
110
100
AcDbEntity
  8
Layer_1
 62
7
100
AcDbSpline
 70
8
 71
3
 72
8
 73
4
 74
0
 40
0
 40
0
 40
0
 40
0
 40
1
 40
1
 40
1
 40
1
 10
14.638744
 20
47.080727
 30
0.0
 10
14.717744
 20
46.895727
 30
0.0
 10
14.754000
 20
46.768760
 30
0.0
 10
14.992000
 20
46.597760
 30
0.0
  0
SPLINE
  5
111
100
AcDbEntity
  8
Layer_1
 62
7
100
AcDbSpline
 70
8
 71
3
 72
8
 73
4
 74
0
 40
0
 40
0
 40
0
 40
0
 40
1
 40
1
 40
1
 40
1
 10
14.992000
 20
46.597760
 30
0.0
 10
15.231000
 20
46.423760
 30
0.0
 10
15.555000
 20
46.238760
 30
0.0
 10
15.965000
 20
46.037760
 30
0.0
  0
SPLINE
  5
112
100
AcDbEntity
  8
Layer_1
 62
7
100
AcDbSpline
 70
8
 71
3
 72
8
 73
4
 74
0
 40
0
 40
0
 40
0
 40
0
 40
1
 40
1
 40
1
 40
1
 10
15.965000
 20
46.037760
 30
0.0
 10
16.376000
 20
45.837760
 30
0.0
 10
16.899000
 20
45.617760
 30
0.0
 10
17.535000
 20
45.379760
 30
0.0
  0
SPLINE
  5
113
100
AcDbEntity
  8
Layer_1
 62
7
100
AcDbSpline
 70
8
 71
3
 72
8
 73
4
 74
0
 40
0
 40
0
 40
0
 40
0
 40
1
 40
1
 40
1
 40
1
 10
17.535000
 20
45.379760
 30
0.0
 10
18.831000
 20
44.896760
 30
0.0
 10
19.904000
 20
44.423760
 30
0.0
 10
20.751000
 20
43.956760
 30
0.0
  0
SPLINE
  5
114
100
AcDbEntity
  8
Layer_1
 62
7
100
AcDbSpline
 70
8
 71
3
 72
8
 73
4
 74
0
 40
0
 40
0
 40
0
 40
0
 40
1
 40
1
 40
1
 40
1
 10
20.751000
 20
43.956760
 30
0.0
 10
21.599000
 20
43.488760
 30
0.0
 10
22.268000
 20
42.878694
 30
0.0
 10
22.758000
 20
42.336694
 30
0.0
  0
SPLINE
  5
115
100
AcDbEntity
  8
Layer_1
 62
7
100
AcDbSpline
 70
8
 71
3
 72
8
 73
4
 74
0
 40
0
 40
0
 40
0
 40
0
 40
1
 40
1
 40
1
 40
1
 10
22.758000
 20
42.336694
 30
0.0
 10
23.248000
 20
41.795694
 30
0.0
 10
23.592000
 20
41.193694
 30
0.0
 10
23.790000
 20
40.532694
 30
0.0
  0
SPLINE
  5
116
100
AcDbEntity
  8
Layer_1
 62
7
100
AcDbSpline
 70
8
 71
3
 72
8
 73
4
 74
0
 40
0
 40
0
 40
0
 40
0
 40
1
 40
1
 40
1
 40
1
 10
23.790000
 20
40.532694
 30
0.0
 10
23.989000
 20
39.871694
 30
0.0
 10
24.089000
 20
39.106694
 30
0.0
 10
24.089000
 20
38.234694
 30
0.0
  0
SPLINE
  5
117
100
AcDbEntity
  8
Layer_1
 62
7
100
AcDbSpline
 70
8
 71
3
 72
8
 73
4
 74
0
 40
0
 40
0
 40
0
 40
0
 40
1
 40
1
 40
1
 40
1
 10
24.089000
 20
38.234694
 30
0.0
 10
24.089000
 20
36.173694
 30
0.0
 10
23.314000
 20
34.613694
 30
0.0
 10
21.765000
 20
33.555694
 30
0.0
  0
SPLINE
  5
118
100
AcDbEntity
  8
Layer_1
 62
7
100
AcDbSpline
 70
8
 71
3
 72
8
 73
4
 74
0
 40
0
 40
0
 40
0
 40
0
 40
1
 40
1
 40
1
 40
1
 10
21.765000
 20
33.555694
 30
0.0
 10
20.216000
 20
32.499694
 30
0.0
 10
18.024000
 20
31.972694
 30
0.0
 10
15.191000
 20
31.972694
 30
0.0
  0
SPLINE
  5
119
100
AcDbEntity
  8
Layer_1
 62
7
100
AcDbSpline
 70
8
 71
3
 72
8
 73
4
 74
0
 40
0
 40
0
 40
0
 40
0
 40
1
 40
1
 40
1
 40
1
 10
15.191000
 20
31.972694
 30
0.0
 10
13.337000
 20
31.972694
 30
0.0
 10
11.794000
 20
32.130694
 30
0.0
 10
10.563000
 20
32.447694
 30
0.0
  0
SPLINE
  5
11a
100
AcDbEntity
  8
Layer_1
 62
7
100
AcDbSpline
 70
8
 71
3
 72
8
 73
4
 74
0
 40
0
 40
0
 40
0
 40
0
 40
1
 40
1
 40
1
 40
1
 10
10.563000
 20
32.447694
 30
0.0
 10
9.331000
 20
32.766694
 30
0.0
 10
8.478000
 20
33.030694
 30
0.0
 10
8.000000
 20
33.243694
 30
0.0
  0
LWPOLYLINE
  5
11b
100
AcDbEntity
  8
Layer_1
 62
7
100
AcDbPolyline
 90
2
 70
0
 10
23.175000
 20
52.905694
 30
0.0
 10
22.142000
 20
48.048694
 30
0.0
  0
SPLINE
  5
11c
100
AcDbEntity
  8
Layer_1
 62
7
100
AcDbSpline
 70
8
 71
3
 72
8
 73
4
 74
0
 40
0
 40
0
 40
0
 40
0
 40
1
 40
1
 40
1
 40
1
 10
8.994000
 20
38.367892
 30
0.0
 10
10.000000
 20
37.970892
 30
0.0
 10
11.033000
 20
37.658892
 30
0.0
 10
12.092000
 20
37.434892
 30
0.0
  0
SPLINE
  5
11d
100
AcDbEntity
  8
Layer_1
 62
7
100
AcDbSpline
 70
8
 71
3
 72
8
 73
4
 74
0
 40
0
 40
0
 40
0
 40
0
 40
1
 40
1
 40
1
 40
1
 10
12.092000
 20
37.434892
 30
0.0
 10
13.151000
 20
37.207892
 30
0.0
 10
14.197000
 20
37.096892
 30
0.0
 10
15.231000
 20
37.096892
 30
0.0
  0
SPLINE
  5
11e
100
AcDbEntity
  8
Layer_1
 62
7
100
AcDbSpline
 70
8
 71
3
 72
8
 73
4
 74
0
 40
0
 40
0
 40
0
 40
0
 40
1
 40
1
 40
1
 40
1
 10
39.231848
 20
23.860958
 30
0.0
 10
38.223848
 20
23.567958
 30
0.0
 10
36.925848
 20
23.297958
 30
0.0
 10
35.336848
 20
23.045958
 30
0.0
  0
SPLINE
  5
11f
100
AcDbEntity
  8
Layer_1
 62
7
100
AcDbSpline
 70
8
 71
3
 72
8
 73
4
 74
0
 40
0
 40
0
 40
0
 40
0
 40
1
 40
1
 40
1
 40
1
 10
35.336848
 20
23.045958
 30
0.0
 10
33.748848
 20
22.794958
 30
0.0
 10
32.079848
 20
22.668958
 30
0.0
 10
30.331848
 20
22.668958
 30
0.0
  0
SPLINE
  5
120
100
AcDbEntity
  8
Layer_1
 62
7
100
AcDbSpline
 70
8
 71
3
 72
8
 73
4
 74
0
 40
0
 40
0
 40
0
 40
0
 40
1
 40
1
 40
1
 40
1
 10
30.331848
 20
22.668958
 30
0.0
 10
28.557848
 20
22.668958
 30
0.0
 10
27.079848
 20
22.905958
 30
0.0
 10
25.901848
 20
23.383958
 30
0.0
  0
SPLINE
  5
121
100
AcDbEntity
  8
Layer_1
 62
7
100
AcDbSpline
 70
8
 71
3
 72
8
 73
4
 74
0
 40
0
 40
0
 40
0
 40
0
 40
1
 40
1
 40
1
 40
1
 10
25.901848
 20
23.383958
 30
0.0
 10
24.723848
 20
23.860958
 30
0.0
 10
23.790848
 20
24.529958
 30
0.0
 10
23.102848
 20
25.390958
 30
0.0
  0
SPLINE
  5
122
100
AcDbEntity
  8
Layer_1
 62
7
100
AcDbSpline
 70
8
 71
3
 72
8
 73
4
 74
0
 40
0
 40
0
 40
0
 40
0
 40
1
 40
1
 40
1
 40
1
 10
23.102848
 20
25.390958
 30
0.0
 10
22.413848
 20
26.249958
 30
0.0
 10
21.922848
 20
27.276958
 30
0.0
 10
21.632848
 20
28.468958
 30
0.0
  0
SPLINE
  5
123
100
AcDbEntity
  8
Layer_1
 62
7
100
AcDbSpline
 70
8
 71
3
 72
8
 73
4
 74
0
 40
0
 40
0
 40
0
 40
0
 40
1
 40
1
 40
1
 40
1
 10
21.632848
 20
28.468958
 30
0.0
 10
21.340848
 20
29.659958
 30
0.0
 10
21.195848
 20
30.970958
 30
0.0
 10
21.195848
 20
32.400958
 30
0.0
  0
LWPOLYLINE
  5
124
100
AcDbEntity
  8
Layer_1
 62
7
100
AcDbPolyline
 90
2
 70
0
 10
8.000000
 20
33.243694
 30
0.0
 10
8.994000
 20
38.367892
 30
0.0
  0
SPLINE
  5
125
100
AcDbEntity
  8
Layer_1
 62
7
100
AcDbSpline
 70
8
 71
3
 72
8
 73
4
 74
0
 40
0
 40
0
 40
0
 40
0
 40
1
 40
1
 40
1
 40
1
 10
27.114848
 20
34.350801
 30
0.0
 10
27.114848
 20
32.442801
 30
0.0
 10
27.365848
 20
31.065801
 30
0.0
 10
27.868848
 20
30.218801
 30
0.0
  0
SPLINE
  5
126
100
AcDbEntity
  8
Layer_1
 62
7
100
AcDbSpline
 70
8
 71
3
 72
8
 73
4
 74
0
 40
0
 40
0
 40
0
 40
0
 40
1
 40
1
 40
1
 40
1
 10
27.868848
 20
30.218801
 30
0.0
 10
28.372848
 20
29.369801
 30
0.0
 10
29.313848
 20
28.946801
 30
0.0
 10
30.689848
 20
28.946801
 30
0.0
  0
SPLINE
  5
127
100
AcDbEntity
  8
Layer_1
 62
7
100
AcDbSpline
 70
8
 71
3
 72
8
 73
4
 74
0
 40
0
 40
0
 40
0
 40
0
 40
1
 40
1
 40
1
 40
1
 10
30.689848
 20
28.946801
 30
0.0
 10
31.112848
 20
28.946801
 30
0.0
 10
31.562848
 20
28.967801
 30
0.0
 10
32.040848
 20
29.006801
 30
0.0
  0
SPLINE
  5
128
100
AcDbEntity
  8
Layer_1
 62
7
100
AcDbSpline
 70
8
 71
3
 72
8
 73
4
 74
0
 40
0
 40
0
 40
0
 40
0
 40
1
 40
1
 40
1
 40
1
 10
32.040848
 20
29.006801
 30
0.0
 10
32.516848
 20
29.045801
 30
0.0
 10
32.939848
 20
29.090801
 30
0.0
 10
33.310848
 20
29.145801
 30
0.0
  0
LWPOLYLINE
  5
129
100
AcDbEntity
  8
Layer_1
 62
7
100
AcDbPolyline
 90
4
 70
0
 10
21.195848
 20
32.400958
 30
0.0
 10
21.195848
 20
44.040958
 30
0.0
 10
27.114848
 20
44.040958
 30
0.0
 10
27.114848
 20
34.350801
 30
0.0
  0
SPLINE
  5
12a
100
AcDbEntity
  8
Layer_1
 62
7
100
AcDbSpline
 70
8
 71
3
 72
8
 73
4
 74
0
 40
0
 40
0
 40
0
 40
0
 40
1
 40
1
 40
1
 40
1
 10
55.822088
 20
15.834702
 30
0.0
 10
55.291088
 20
15.675702
 30
0.0
 10
54.683088
 20
15.523702
 30
0.0
 10
53.994088
 20
15.376702
 30
0.0
  0
SPLINE
  5
12b
100
AcDbEntity
  8
Layer_1
 62
7
100
AcDbSpline
 70
8
 71
3
 72
8
 73
4
 74
0
 40
0
 40
0
 40
0
 40
0
 40
1
 40
1
 40
1
 40
1
 10
53.994088
 20
15.376702
 30
0.0
 10
53.305088
 20
15.231702
 30
0.0
 10
52.584088
 20
15.104702
 30
0.0
 10
51.830088
 20
14.999702
 30
0.0
  0
SPLINE
  5
12c
100
AcDbEntity
  8
Layer_1
 62
7
100
AcDbSpline
 70
8
 71
3
 72
8
 73
4
 74
0
 40
0
 40
0
 40
0
 40
0
 40
1
 40
1
 40
1
 40
1
 10
51.830088
 20
14.999702
 30
0.0
 10
51.074088
 20
14.894702
 30
0.0
 10
50.307088
 20
14.808702
 30
0.0
 10
49.525088
 20
14.742702
 30
0.0
  0
SPLINE
  5
12d
100
AcDbEntity
  8
Layer_1
 62
7
100
AcDbSpline
 70
8
 71
3
 72
8
 73
4
 74
0
 40
0
 40
0
 40
0
 40
0
 40
1
 40
1
 40
1
 40
1
 10
49.525088
 20
14.742702
 30
0.0
 10
48.743088
 20
14.676702
 30
0.0
 10
47.997088
 20
14.642702
 30
0.0
 10
47.281088
 20
14.642702
 30
0.0
  0
SPLINE
  5
12e
100
AcDbEntity
  8
Layer_1
 62
7
100
AcDbSpline
 70
8
 71
3
 72
8
 73
4
 74
0
 40
0
 40
0
 40
0
 40
0
 40
1
 40
1
 40
1
 40
1
 10
47.281088
 20
14.642702
 30
0.0
 10
45.559088
 20
14.642702
 30
0.0
 10
44.023088
 20
14.894702
 30
0.0
 10
42.673088
 20
15.397702
 30
0.0
  0
SPLINE
  5
12f
100
AcDbEntity
  8
Layer_1
 62
7
100
AcDbSpline
 70
8
 71
3
 72
8
 73
4
 74
0
 40
0
 40
0
 40
0
 40
0
 40
1
 40
1
 40
1
 40
1
 10
42.673088
 20
15.397702
 30
0.0
 10
41.322088
 20
15.899702
 30
0.0
 10
40.183088
 20
16.621702
 30
0.0
 10
39.256088
 20
17.562702
 30
0.0
  0
SPLINE
  5
130
100
AcDbEntity
  8
Layer_1
 62
7
100
AcDbSpline
 70
8
 71
3
 72
8
 73
4
 74
0
 40
0
 40
0
 40
0
 40
0
 40
1
 40
1
 40
1
 40
1
 10
39.256088
 20
17.562702
 30
0.0
 10
38.329088
 20
18.501702
 30
0.0
 10
37.621088
 20
19.640702
 30
0.0
 10
37.131088
 20
20.978702
 30
0.0
  0
SPLINE
  5
131
100
AcDbEntity
  8
Layer_1
 62
7
100
AcDbSpline
 70
8
 71
3
 72
8
 73
4
 74
0
 40
0
 40
0
 40
0
 40
0
 40
1
 40
1
 40
1
 40
1
 10
37.131088
 20
20.978702
 30
0.0
 10
36.641088
 20
22.313702
 30
0.0
 10
36.396088
 20
23.817702
 30
0.0
 10
36.396088
 20
25.487702
 30
0.0
  0
SPLINE
  5
132
100
AcDbEntity
  8
Layer_1
 62
7
100
AcDbSpline
 70
8
 71
3
 72
8
 73
4
 74
0
 40
0
 40
0
 40
0
 40
0
 40
1
 40
1
 40
1
 40
1
 10
36.396088
 20
25.487702
 30
0.0
 10
36.396088
 20
27.181702
 30
0.0
 10
36.607088
 20
28.710702
 30
0.0
 10
37.032088
 20
30.076702
 30
0.0
  0
SPLINE
  5
133
100
AcDbEntity
  8
Layer_1
 62
7
100
AcDbSpline
 70
8
 71
3
 72
8
 73
4
 74
0
 40
0
 40
0
 40
0
 40
0
 40
1
 40
1
 40
1
 40
1
 10
37.032088
 20
30.076702
 30
0.0
 10
37.456088
 20
31.439702
 30
0.0
 10
38.065088
 20
32.596702
 30
0.0
 10
38.859088
 20
33.551702
 30
0.0
  0
SPLINE
  5
134
100
AcDbEntity
  8
Layer_1
 62
7
100
AcDbSpline
 70
8
 71
3
 72
8
 73
4
 74
0
 40
0
 40
0
 40
0
 40
0
 40
1
 40
1
 40
1
 40
1
 10
38.859088
 20
33.551702
 30
0.0
 10
39.654088
 20
34.504702
 30
0.0
 10
40.627088
 20
35.232702
 30
0.0
 10
41.779088
 20
35.735702
 30
0.0
  0
SPLINE
  5
135
100
AcDbEntity
  8
Layer_1
 62
7
100
AcDbSpline
 70
8
 71
3
 72
8
 73
4
 74
0
 40
0
 40
0
 40
0
 40
0
 40
1
 40
1
 40
1
 40
1
 10
41.779088
 20
35.735702
 30
0.0
 10
42.931088
 20
36.238702
 30
0.0
 10
44.248088
 20
36.491702
 30
0.0
 10
45.731088
 20
36.491702
 30
0.0
  0
SPLINE
  5
136
100
AcDbEntity
  8
Layer_1
 62
7
100
AcDbSpline
 70
8
 71
3
 72
8
 73
4
 74
0
 40
0
 40
0
 40
0
 40
0
 40
1
 40
1
 40
1
 40
1
 10
45.731088
 20
36.491702
 30
0.0
 10
46.552088
 20
36.491702
 30
0.0
 10
47.287088
 20
36.410702
 30
0.0
 10
47.937088
 20
36.252702
 30
0.0
  0
SPLINE
  5
137
100
AcDbEntity
  8
Layer_1
 62
7
100
AcDbSpline
 70
8
 71
3
 72
8
 73
4
 74
0
 40
0
 40
0
 40
0
 40
0
 40
1
 40
1
 40
1
 40
1
 10
47.937088
 20
36.252702
 30
0.0
 10
48.586088
 20
36.093702
 30
0.0
 10
49.241088
 20
35.866702
 30
0.0
 10
49.903088
 20
35.576702
 30
0.0
  0
LWPOLYLINE
  5
138
100
AcDbEntity
  8
Layer_1
 62
7
100
AcDbPolyline
 90
4
 70
0
 10
33.310848
 20
29.145801
 30
0.0
 10
33.310848
 20
44.040958
 30
0.0
 10
39.231848
 20
44.040958
 30
0.0
 10
39.231848
 20
23.860958
 30
0.0
  0
SPLINE
  5
139
100
AcDbEntity
  8
Layer_1
 62
7
100
AcDbSpline
 70
8
 71
3
 72
8
 73
4
 74
0
 40
0
 40
0
 40
0
 40
0
 40
1
 40
1
 40
1
 40
1
 10
42.435088
 20
25.765702
 30
0.0
 10
42.435088
 20
23.937702
 30
0.0
 10
42.845088
 20
22.969702
 30
0.0
 10
43.665088
 20
21.856702
 30
0.0
  0
SPLINE
  5
13a
100
AcDbEntity
  8
Layer_1
 62
7
100
AcDbSpline
 70
8
 71
3
 72
8
 73
4
 74
0
 40
0
 40
0
 40
0
 40
0
 40
1
 40
1
 40
1
 40
1
 10
43.665088
 20
21.856702
 30
0.0
 10
44.487088
 20
20.744702
 30
0.0
 10
45.704088
 20
20.187702
 30
0.0
 10
47.320088
 20
20.187702
 30
0.0
  0
SPLINE
  5
13b
100
AcDbEntity
  8
Layer_1
 62
7
100
AcDbSpline
 70
8
 71
3
 72
8
 73
4
 74
0
 40
0
 40
0
 40
0
 40
0
 40
1
 40
1
 40
1
 40
1
 10
47.320088
 20
20.187702
 30
0.0
 10
47.850088
 20
20.187702
 30
0.0
 10
48.340088
 20
20.205702
 30
0.0
 10
48.791088
 20
20.247702
 30
0.0
  0
SPLINE
  5
13c
100
AcDbEntity
  8
Layer_1
 62
7
100
AcDbSpline
 70
8
 71
3
 72
8
 73
4
 74
0
 40
0
 40
0
 40
0
 40
0
 40
1
 40
1
 40
1
 40
1
 10
48.791088
 20
20.247702
 30
0.0
 10
49.241088
 20
20.287702
 30
0.0
 10
49.611088
 20
20.331702
 30
0.0
 10
49.903088
 20
20.386702
 30
0.0
  0
LWPOLYLINE
  5
13d
100
AcDbEntity
  8
Layer_1
 62
7
100
AcDbPolyline
 90
4
 70
0
 10
49.903088
 20
35.576702
 30
0.0
 10
49.903088
 20
45.031702
 30
0.0
 10
55.822088
 20
45.984702
 30
0.0
 10
55.822088
 20
15.834702
 30
0.0
  0
SPLINE
  5
13e
100
AcDbEntity
  8
Layer_1
 62
7
100
AcDbSpline
 70
8
 71
3
 72
8
 73
4
 74
0
 40
0
 40
0
 40
0
 40
0
 40
1
 40
1
 40
1
 40
1
 10
49.903088
 20
30.351702
 30
0.0
 10
49.532088
 20
30.589702
 30
0.0
 10
49.050088
 20
30.788702
 30
0.0
 10
48.453088
 20
30.948702
 30
0.0
  0
SPLINE
  5
13f
100
AcDbEntity
  8
Layer_1
 62
7
100
AcDbSpline
 70
8
 71
3
 72
8
 73
4
 74
0
 40
0
 40
0
 40
0
 40
0
 40
1
 40
1
 40
1
 40
1
 10
48.453088
 20
30.948702
 30
0.0
 10
47.857088
 20
31.106702
 30
0.0
 10
46.770845
 20
31.186562
 30
0.0
 10
46.170088
 20
31.086702
 30
0.0
  0
SPLINE
  5
140
100
AcDbEntity
  8
Layer_1
 62
7
100
AcDbSpline
 70
8
 71
3
 72
8
 73
4
 74
0
 40
0
 40
0
 40
0
 40
0
 40
1
 40
1
 40
1
 40
1
 10
46.170088
 20
31.086702
 30
0.0
 10
43.914088
 20
30.711702
 30
0.0
 10
42.435088
 20
29.578702
 30
0.0
 10
42.435088
 20
25.765702
 30
0.0
  0
SPLINE
  5
141
100
AcDbEntity
  8
Layer_1
 62
7
100
AcDbSpline
 70
8
 71
3
 72
8
 73
4
 74
0
 40
0
 40
0
 40
0
 40
0
 40
1
 40
1
 40
1
 40
1
 10
70.595424
 20
19.042998
 30
0.0
 10
70.595424
 20
17.397998
 30
0.0
 10
70.355424
 20
15.896998
 30
0.0
 10
69.880424
 20
14.531998
 30
0.0
  0
SPLINE
  5
142
100
AcDbEntity
  8
Layer_1
 62
7
100
AcDbSpline
 70
8
 71
3
 72
8
 73
4
 74
0
 40
0
 40
0
 40
0
 40
0
 40
1
 40
1
 40
1
 40
1
 10
69.880424
 20
14.531998
 30
0.0
 10
69.403424
 20
13.168998
 30
0.0
 10
68.714424
 20
12.003998
 30
0.0
 10
67.813424
 20
11.038998
 30
0.0
  0
SPLINE
  5
143
100
AcDbEntity
  8
Layer_1
 62
7
100
AcDbSpline
 70
8
 71
3
 72
8
 73
4
 74
0
 40
0
 40
0
 40
0
 40
0
 40
1
 40
1
 40
1
 40
1
 10
67.813424
 20
11.038998
 30
0.0
 10
66.914424
 20
10.068998
 30
0.0
 10
65.835424
 20
9.321998
 30
0.0
 10
64.578424
 20
8.793998
 30
0.0
  0
SPLINE
  5
144
100
AcDbEntity
  8
Layer_1
 62
7
100
AcDbSpline
 70
8
 71
3
 72
8
 73
4
 74
0
 40
0
 40
0
 40
0
 40
0
 40
1
 40
1
 40
1
 40
1
 10
64.578424
 20
8.793998
 30
0.0
 10
63.319424
 20
8.263998
 30
0.0
 10
61.908424
 20
7.999998
 30
0.0
 10
60.346424
 20
7.999998
 30
0.0
  0
SPLINE
  5
145
100
AcDbEntity
  8
Layer_1
 62
7
100
AcDbSpline
 70
8
 71
3
 72
8
 73
4
 74
0
 40
0
 40
0
 40
0
 40
0
 40
1
 40
1
 40
1
 40
1
 10
60.346424
 20
7.999998
 30
0.0
 10
58.811424
 20
7.999998
 30
0.0
 10
57.413424
 20
8.263998
 30
0.0
 10
56.155424
 20
8.793998
 30
0.0
  0
SPLINE
  5
146
100
AcDbEntity
  8
Layer_1
 62
7
100
AcDbSpline
 70
8
 71
3
 72
8
 73
4
 74
0
 40
0
 40
0
 40
0
 40
0
 40
1
 40
1
 40
1
 40
1
 10
56.155424
 20
8.793998
 30
0.0
 10
54.896424
 20
9.321998
 30
0.0
 10
53.818424
 20
10.068998
 30
0.0
 10
52.917424
 20
11.038998
 30
0.0
  0
SPLINE
  5
147
100
AcDbEntity
  8
Layer_1
 62
7
100
AcDbSpline
 70
8
 71
3
 72
8
 73
4
 74
0
 40
0
 40
0
 40
0
 40
0
 40
1
 40
1
 40
1
 40
1
 10
52.917424
 20
11.038998
 30
0.0
 10
52.017424
 20
12.003998
 30
0.0
 10
51.315424
 20
13.168998
 30
0.0
 10
50.811424
 20
14.531998
 30
0.0
  0
SPLINE
  5
148
100
AcDbEntity
  8
Layer_1
 62
7
100
AcDbSpline
 70
8
 71
3
 72
8
 73
4
 74
0
 40
0
 40
0
 40
0
 40
0
 40
1
 40
1
 40
1
 40
1
 10
50.811424
 20
14.531998
 30
0.0
 10
50.307424
 20
15.896998
 30
0.0
 10
50.058424
 20
17.397998
 30
0.0
 10
50.058424
 20
19.042998
 30
0.0
  0
SPLINE
  5
149
100
AcDbEntity
  8
Layer_1
 62
7
100
AcDbSpline
 70
8
 71
3
 72
8
 73
4
 74
0
 40
0
 40
0
 40
0
 40
0
 40
1
 40
1
 40
1
 40
1
 10
50.058424
 20
19.042998
 30
0.0
 10
50.058424
 20
20.682998
 30
0.0
 10
50.315424
 20
22.179998
 30
0.0
 10
50.831424
 20
23.529998
 30
0.0
  0
SPLINE
  5
14a
100
AcDbEntity
  8
Layer_1
 62
7
100
AcDbSpline
 70
8
 71
3
 72
8
 73
4
 74
0
 40
0
 40
0
 40
0
 40
0
 40
1
 40
1
 40
1
 40
1
 10
50.831424
 20
23.529998
 30
0.0
 10
51.347424
 20
24.882998
 30
0.0
 10
52.064424
 20
26.031998
 30
0.0
 10
52.977424
 20
26.986998
 30
0.0
  0
SPLINE
  5
14b
100
AcDbEntity
  8
Layer_1
 62
7
100
AcDbSpline
 70
8
 71
3
 72
8
 73
4
 74
0
 40
0
 40
0
 40
0
 40
0
 40
1
 40
1
 40
1
 40
1
 10
52.977424
 20
26.986998
 30
0.0
 10
53.891424
 20
27.939998
 30
0.0
 10
54.975424
 20
28.680998
 30
0.0
 10
56.234424
 20
29.211998
 30
0.0
  0
SPLINE
  5
14c
100
AcDbEntity
  8
Layer_1
 62
7
100
AcDbSpline
 70
8
 71
3
 72
8
 73
4
 74
0
 40
0
 40
0
 40
0
 40
0
 40
1
 40
1
 40
1
 40
1
 10
56.234424
 20
29.211998
 30
0.0
 10
57.493424
 20
29.740998
 30
0.0
 10
58.861424
 20
30.006998
 30
0.0
 10
60.346424
 20
30.006998
 30
0.0
  0
SPLINE
  5
14d
100
AcDbEntity
  8
Layer_1
 62
7
100
AcDbSpline
 70
8
 71
3
 72
8
 73
4
 74
0
 40
0
 40
0
 40
0
 40
0
 40
1
 40
1
 40
1
 40
1
 10
60.346424
 20
30.006998
 30
0.0
 10
61.857424
 20
30.006998
 30
0.0
 10
63.240424
 20
29.740998
 30
0.0
 10
64.499424
 20
29.211998
 30
0.0
  0
SPLINE
  5
14e
100
AcDbEntity
  8
Layer_1
 62
7
100
AcDbSpline
 70
8
 71
3
 72
8
 73
4
 74
0
 40
0
 40
0
 40
0
 40
0
 40
1
 40
1
 40
1
 40
1
 10
64.499424
 20
29.211998
 30
0.0
 10
65.756424
 20
28.680998
 30
0.0
 10
66.836424
 20
27.939998
 30
0.0
 10
67.734424
 20
26.986998
 30
0.0
  0
SPLINE
  5
14f
100
AcDbEntity
  8
Layer_1
 62
7
100
AcDbSpline
 70
8
 71
3
 72
8
 73
4
 74
0
 40
0
 40
0
 40
0
 40
0
 40
1
 40
1
 40
1
 40
1
 10
67.734424
 20
26.986998
 30
0.0
 10
68.635424
 20
26.031998
 30
0.0
 10
69.337424
 20
24.882998
 30
0.0
 10
69.841424
 20
23.529998
 30
0.0
  0
SPLINE
  5
150
100
AcDbEntity
  8
Layer_1
 62
7
100
AcDbSpline
 70
8
 71
3
 72
8
 73
4
 74
0
 40
0
 40
0
 40
0
 40
0
 40
1
 40
1
 40
1
 40
1
 10
69.841424
 20
23.529998
 30
0.0
 10
70.343424
 20
22.179998
 30
0.0
 10
70.595424
 20
20.682998
 30
0.0
 10
70.595424
 20
19.042998
 30
0.0
  0
SPLINE
  5
151
100
AcDbEntity
  8
Layer_1
 62
7
100
AcDbSpline
 70
8
 71
3
 72
8
 73
4
 74
0
 40
0
 40
0
 40
0
 40
0
 40
1
 40
1
 40
1
 40
1
 10
64.558424
 20
19.042998
 30
0.0
 10
64.558424
 20
20.870998
 30
0.0
 10
64.192424
 20
22.006998
 30
0.0
 10
63.465424
 20
23.052998
 30
0.0
  0
SPLINE
  5
152
100
AcDbEntity
  8
Layer_1
 62
7
100
AcDbSpline
 70
8
 71
3
 72
8
 73
4
 74
0
 40
0
 40
0
 40
0
 40
0
 40
1
 40
1
 40
1
 40
1
 10
63.465424
 20
23.052998
 30
0.0
 10
62.736424
 20
24.098998
 30
0.0
 10
61.697424
 20
24.621998
 30
0.0
 10
60.346424
 20
24.621998
 30
0.0
  0
SPLINE
  5
153
100
AcDbEntity
  8
Layer_1
 62
7
100
AcDbSpline
 70
8
 71
3
 72
8
 73
4
 74
0
 40
0
 40
0
 40
0
 40
0
 40
1
 40
1
 40
1
 40
1
 10
60.346424
 20
24.621998
 30
0.0
 10
58.995424
 20
24.621998
 30
0.0
 10
57.949424
 20
24.098998
 30
0.0
 10
57.207424
 20
23.052998
 30
0.0
  0
SPLINE
  5
154
100
AcDbEntity
  8
Layer_1
 62
7
100
AcDbSpline
 70
8
 71
3
 72
8
 73
4
 74
0
 40
0
 40
0
 40
0
 40
0
 40
1
 40
1
 40
1
 40
1
 10
57.207424
 20
23.052998
 30
0.0
 10
56.466424
 20
22.006998
 30
0.0
 10
56.095424
 20
20.870998
 30
0.0
 10
56.095424
 20
19.042998
 30
0.0
  0
SPLINE
  5
155
100
AcDbEntity
  8
Layer_1
 62
7
100
AcDbSpline
 70
8
 71
3
 72
8
 73
4
 74
0
 40
0
 40
0
 40
0
 40
0
 40
1
 40
1
 40
1
 40
1
 10
56.095424
 20
19.042998
 30
0.0
 10
56.095424
 20
17.213998
 30
0.0
 10
56.466424
 20
16.215998
 30
0.0
 10
57.207424
 20
15.140998
 30
0.0
  0
SPLINE
  5
156
100
AcDbEntity
  8
Layer_1
 62
7
100
AcDbSpline
 70
8
 71
3
 72
8
 73
4
 74
0
 40
0
 40
0
 40
0
 40
0
 40
1
 40
1
 40
1
 40
1
 10
57.207424
 20
15.140998
 30
0.0
 10
57.949424
 20
14.068998
 30
0.0
 10
58.995424
 20
13.533998
 30
0.0
 10
60.346424
 20
13.533998
 30
0.0
  0
SPLINE
  5
157
100
AcDbEntity
  8
Layer_1
 62
7
100
AcDbSpline
 70
8
 71
3
 72
8
 73
4
 74
0
 40
0
 40
0
 40
0
 40
0
 40
1
 40
1
 40
1
 40
1
 10
60.346424
 20
13.533998
 30
0.0
 10
61.697424
 20
13.533998
 30
0.0
 10
62.736424
 20
14.068998
 30
0.0
 10
63.465424
 20
15.140998
 30
0.0
  0
SPLINE
  5
158
100
AcDbEntity
  8
Layer_1
 62
7
100
AcDbSpline
 70
8
 71
3
 72
8
 73
4
 74
0
 40
0
 40
0
 40
0
 40
0
 40
1
 40
1
 40
1
 40
1
 10
63.465424
 20
15.140998
 30
0.0
 10
64.192424
 20
16.215998
 30
0.0
 10
64.558424
 20
17.213998
 30
0.0
 10
64.558424
 20
19.042998
 30
0.0
  0
LWPOLYLINE
  5
159
100
AcDbEntity
  8
Layer_1
 62
7
100
AcDbPolyline
 90
2
 70
0
 10
49.903088
 20
20.386702
 30
0.0
 10
49.903088
 20
30.351702
 30
0.0
  0
ENDSEC
  0
SECTION
  2
OBJECTS
  0
DICTIONARY
  5
C
330
0
100
AcDbDictionary
  3
ACAD_GROUP
350
D
  3
ACAD_MLINESTYLE
350
17
  0
DICTIONARY
  5
D
330
C
100
AcDbDictionary
  0
DICTIONARY
  5
1A
330
C
100
AcDbDictionary
  0
DICTIONARY
  5
17
330
C
100
AcDbDictionary
  3
STANDARD
350
18
  0
DICTIONARY
  5
19
330
C
100
AcDbDictionary
  0
ENDSEC
  0
EOF
