  0
SECTION
  2
HEADER
  9
$ACADVER
  1
AC1014
  9
$HANDSEED
  5
FFFF
  9
$MEASUREMENT
 70
     1
  0
ENDSEC
  0
SECTION
  2
TABLES
  0
TABLE
  2
VPORT
  5
8
330
0
100
AcDbSymbolTable
 70
     4
  0
VPORT
  5
2E
330
8
100
AcDbSymbolTableRecord
100
AcDbViewportTableRecord
  2
*ACTIVE
 70
     0
 10
0.0
 20
0.0
 11
1.0
 21
1.0
 12
210.0
 22
148.5
 13
0.0
 23
0.0
 14
10.0
 24
10.0
 15
10.0
 25
10.0
 16
0.0
 26
0.0
 36
1.0
 17
0.0
 27
0.0
 37
0.0
 40
341.0
 41
1.24
 42
50.0
 43
0.0
 44
0.0
 50
0.0
 51
0.0
 71
     0
 72
   100
 73
     1
 74
     3
 75
     0
 76
     0
 77
     0
 78
     0
  0
ENDTAB
  0
TABLE
  2
LTYPE
  5
5
330
0
100
AcDbSymbolTable
 70
     1
  0
LTYPE
  5
14
330
5
100
AcDbSymbolTableRecord
100
AcDbLinetypeTableRecord
  2
BYBLOCK
 70
     0
  3

 72
    65
 73
     0
 40
0.0
  0
LTYPE
  5
15
330
5
100
AcDbSymbolTableRecord
100
AcDbLinetypeTableRecord
  2
BYLAYER
 70
     0
  3

 72
    65
 73
     0
 40
0.0
  0
LTYPE
  5
16
330
5
100
AcDbSymbolTableRecord
100
AcDbLinetypeTableRecord
  2
CONTINUOUS
 70
     0
  3
Solid line
 72
    65
 73
     0
 40
0.0
  0
ENDTAB
  0
TABLE
  2
LAYER
  5
2
100
AcDbSymbolTable
 70
2
  0
LAYER
  5
50
100
AcDbSymbolTableRecord
100
AcDbLayerTableRecord
  2
0
 70
0
  6
CONTINUOUS
  0
LAYER
  5
51
100
AcDbSymbolTableRecord
100
AcDbLayerTableRecord
  2
Layer_1
 70
0
  6
CONTINUOUS
  0
ENDTAB
  0
TABLE
  2
STYLE
  5
3
330
0
100
AcDbSymbolTable
 70
     1
  0
STYLE
  5
11
330
3
100
AcDbSymbolTableRecord
100
AcDbTextStyleTableRecord
  2
STANDARD
 70
     0
 40
0.0
 41
1.0
 50
0.0
 71
     0
 42
2.5
  3
txt
  4

  0
ENDTAB
  0
TABLE
  2
VIEW
  5
6
330
0
100
AcDbSymbolTable
 70
     0
  0
ENDTAB
  0
TABLE
  2
UCS
  5
7
330
0
100
AcDbSymbolTable
 70
     0
  0
ENDTAB
  0
TABLE
  2
APPID
  5
9
330
0
100
AcDbSymbolTable
 70
     2
  0
APPID
  5
12
330
9
100
AcDbSymbolTableRecord
100
AcDbRegAppTableRecord
  2
ACAD
 70
     0
  0
ENDTAB
  0
TABLE
  2
DIMSTYLE
  5
A
330
0
100
AcDbSymbolTable
 70
     1
  0
DIMSTYLE
105
27
330
A
100
AcDbSymbolTableRecord
100
AcDbDimStyleTableRecord
  2
ISO-25
 70
     0
  3

  4

  5

  6

  7

 40
1.0
 41
2.5
 42
0.625
 43
3.75
 44
1.25
 45
0.0
 46
0.0
 47
0.0
 48
0.0
140
2.5
141
2.5
142
0.0
143
0.03937007874016
144
1.0
145
0.0
146
1.0
147
0.625
 71
     0
 72
     0
 73
     0
 74
     0
 75
     0
 76
     0
 77
     1
 78
     8
170
     0
171
     3
172
     1
173
     0
174
     0
175
     0
176
     0
177
     0
178
     0
270
     2
271
     2
272
     2
273
     2
274
     3
340
11
275
     0
280
     0
281
     0
282
     0
283
     0
284
     8
285
     0
286
     0
287
     3
288
     0
  0
ENDTAB
  0
TABLE
  2
BLOCK_RECORD
  5
1
330
0
100
AcDbSymbolTable
 70
     1
  0
BLOCK_RECORD
  5
1F
330
1
100
AcDbSymbolTableRecord
100
AcDbBlockTableRecord
  2
*MODEL_SPACE
  0
BLOCK_RECORD
  5
1B
330
1
100
AcDbSymbolTableRecord
100
AcDbBlockTableRecord
  2
*PAPER_SPACE
  0
ENDTAB
  0
ENDSEC
  0
SECTION
  2
BLOCKS
  0
BLOCK
  5
20
330
1F
100
AcDbEntity
  8
0
100
AcDbBlockBegin
  2
*MODEL_SPACE
 70
     0
 10
0.0
 20
0.0
 30
0.0
  3
*MODEL_SPACE
  1

  0
ENDBLK
  5
21
330
1F
100
AcDbEntity
  8
0
100
AcDbBlockEnd
  0
BLOCK
  5
1C
330
1B
100
AcDbEntity
 67
     1
  8
0
100
AcDbBlockBegin
  2
*PAPER_SPACE
  1

  0
ENDBLK
  5
1D
330
1B
100
AcDbEntity
 67
     1
  8
0
100
AcDbBlockEnd
  0
ENDSEC
  0
SECTION
  2
ENTITIES
  0
LWPOLYLINE
  5
100
100
AcDbEntity
  8
Layer_1
 62
7
100
AcDbPolyline
 90
415
 70
0
 10
-0.000000
 20
30.868071
 30
0.0
 10
0.352778
 20
24.429877
 30
0.0
 10
1.499306
 20
18.785432
 30
0.0
 10
3.439583
 20
13.846543
 30
0.0
 10
5.997222
 20
9.701404
 30
0.0
 10
9.348611
 20
6.261821
 30
0.0
 10
13.140972
 20
3.880571
 30
0.0
 10
17.550694
 20
2.469460
 30
0.0
 10
22.401389
 20
1.940293
 30
0.0
 10
25.047222
 20
2.028488
 30
0.0
 10
27.604861
 20
2.381265
 30
0.0
 10
29.986111
 20
2.822238
 30
0.0
 10
32.014583
 20
3.527793
 30
0.0
 10
33.866667
 20
4.321543
 30
0.0
 10
35.542361
 20
5.379877
 30
0.0
 10
37.129861
 20
6.526404
 30
0.0
 10
38.540972
 20
7.849321
 30
0.0
 10
39.863889
 20
9.348627
 30
0.0
 10
41.098611
 20
10.936127
 30
0.0
 10
42.245139
 20
12.700015
 30
0.0
 10
43.215278
 20
14.640293
 30
0.0
 10
44.185417
 20
16.668765
 30
0.0
 10
45.155556
 20
18.873627
 30
0.0
 10
46.125694
 20
21.166682
 30
0.0
 10
47.007639
 20
23.547932
 30
0.0
 10
48.154167
 20
26.458349
 30
0.0
 10
49.300694
 20
29.015988
 30
0.0
 10
50.359028
 20
31.220849
 30
0.0
 10
51.329167
 20
32.896543
 30
0.0
 10
52.211111
 20
34.307654
 30
0.0
 10
53.093056
 20
35.189599
 30
0.0
 10
54.151389
 20
35.630571
 30
0.0
 10
55.209722
 20
35.542377
 30
0.0
 10
56.003472
 20
35.365988
 30
0.0
 10
56.444444
 20
35.101404
 30
0.0
 10
56.885417
 20
34.572238
 30
0.0
 10
57.326389
 20
33.602099
 30
0.0
 10
57.943750
 20
32.190988
 30
0.0
 10
58.737500
 20
30.427099
 30
0.0
 10
59.354861
 20
28.134043
 30
0.0
 10
59.531250
 20
25.488210
 30
0.0
 10
59.531250
 20
22.754182
 30
0.0
 10
59.266667
 20
20.020154
 30
0.0
 10
58.913889
 20
17.197932
 30
0.0
 10
58.384722
 20
14.463904
 30
0.0
 10
57.679167
 20
11.641682
 30
0.0
 10
56.973611
 20
8.907654
 30
0.0
 10
56.091667
 20
6.173627
 30
0.0
 10
55.121528
 20
3.527793
 30
0.0
 10
59.619444
 20
2.645849
 30
0.0
 10
64.117361
 20
1.763904
 30
0.0
 10
68.615278
 20
0.881960
 30
0.0
 10
73.113194
 20
0.000015
 30
0.0
 10
73.730556
 20
1.499321
 30
0.0
 10
74.436111
 20
3.527793
 30
0.0
 10
75.141667
 20
5.997238
 30
0.0
 10
75.935417
 20
9.084043
 30
0.0
 10
76.729167
 20
12.523627
 30
0.0
 10
77.258333
 20
16.404182
 30
0.0
 10
77.522917
 20
20.637515
 30
0.0
 10
77.611111
 20
25.400015
 30
0.0
 10
77.258333
 20
32.455571
 30
0.0
 10
76.288194
 20
38.629182
 30
0.0
 10
74.524306
 20
44.009043
 30
0.0
 10
73.289583
 20
46.566682
 30
0.0
 10
76.111806
 20
46.566682
 30
0.0
 10
77.963889
 20
46.566682
 30
0.0
 10
79.815972
 20
46.654877
 30
0.0
 10
81.668056
 20
46.743071
 30
0.0
 10
83.343750
 20
46.919460
 30
0.0
 10
85.107639
 20
47.184043
 30
0.0
 10
86.783333
 20
47.448627
 30
0.0
 10
88.370833
 20
47.713210
 30
0.0
 10
89.958333
 20
48.065988
 30
0.0
 10
91.545833
 20
48.506960
 30
0.0
 10
93.045139
 20
49.036127
 30
0.0
 10
94.456250
 20
49.565293
 30
0.0
 10
95.867361
 20
50.182654
 30
0.0
 10
97.190278
 20
50.800015
 30
0.0
 10
98.513194
 20
51.593765
 30
0.0
 10
99.659722
 20
52.387515
 30
0.0
 10
100.894444
 20
53.269460
 30
0.0
 10
101.952778
 20
54.239599
 30
0.0
 10
103.011111
 20
55.297932
 30
0.0
 10
103.981250
 20
56.356265
 30
0.0
 10
104.863194
 20
57.590988
 30
0.0
 10
105.745139
 20
58.825710
 30
0.0
 10
106.538889
 20
60.236821
 30
0.0
 10
107.244444
 20
61.647932
 30
0.0
 10
107.950000
 20
63.147238
 30
0.0
 10
108.567361
 20
64.734738
 30
0.0
 10
109.008333
 20
66.498627
 30
0.0
 10
109.449306
 20
68.262515
 30
0.0
 10
109.802083
 20
70.202793
 30
0.0
 10
110.066667
 20
72.143071
 30
0.0
 10
110.331250
 20
74.259738
 30
0.0
 10
110.419444
 20
76.464599
 30
0.0
 10
110.419444
 20
78.757654
 30
0.0
 10
110.419444
 20
81.050710
 30
0.0
 10
110.419444
 20
83.343765
 30
0.0
 10
110.243056
 20
85.636821
 30
0.0
 10
110.154861
 20
87.841682
 30
0.0
 10
109.978472
 20
90.046543
 30
0.0
 10
109.713889
 20
92.163210
 30
0.0
 10
109.449306
 20
94.368071
 30
0.0
 10
109.096528
 20
96.396543
 30
0.0
 10
108.831944
 20
98.513210
 30
0.0
 10
108.479167
 20
100.453488
 30
0.0
 10
108.390972
 20
100.718071
 30
0.0
 10
108.920139
 20
100.806265
 30
0.0
 10
110.860417
 20
101.159043
 30
0.0
 10
112.800694
 20
101.600015
 30
0.0
 10
114.652778
 20
102.129182
 30
0.0
 10
116.416667
 20
102.746543
 30
0.0
 10
118.180556
 20
103.452099
 30
0.0
 10
119.856250
 20
104.245849
 30
0.0
 10
121.443750
 20
105.039599
 30
0.0
 10
122.943056
 20
105.921543
 30
0.0
 10
124.442361
 20
106.891682
 30
0.0
 10
125.853472
 20
107.950015
 30
0.0
 10
127.176389
 20
109.096543
 30
0.0
 10
128.499306
 20
110.243071
 30
0.0
 10
129.645833
 20
111.565988
 30
0.0
 10
130.792361
 20
112.888904
 30
0.0
 10
131.850694
 20
114.300015
 30
0.0
 10
132.909028
 20
115.711127
 30
0.0
 10
133.790972
 20
117.298627
 30
0.0
 10
134.672917
 20
118.886127
 30
0.0
 10
135.378472
 20
120.561821
 30
0.0
 10
136.084028
 20
122.325710
 30
0.0
 10
136.701389
 20
124.177793
 30
0.0
 10
137.318750
 20
126.029877
 30
0.0
 10
137.759722
 20
127.970154
 30
0.0
 10
138.112500
 20
129.998627
 30
0.0
 10
138.377083
 20
132.027099
 30
0.0
 10
138.641667
 20
134.143765
 30
0.0
 10
138.729861
 20
136.348627
 30
0.0
 10
138.818056
 20
138.553488
 30
0.0
 10
138.729861
 20
139.523627
 30
0.0
 10
138.729861
 20
140.493765
 30
0.0
 10
138.729861
 20
141.463904
 30
0.0
 10
138.729861
 20
142.434043
 30
0.0
 10
138.641667
 20
143.404182
 30
0.0
 10
138.553472
 20
144.462515
 30
0.0
 10
138.465278
 20
145.432654
 30
0.0
 10
138.465278
 20
146.490988
 30
0.0
 10
138.288889
 20
147.549321
 30
0.0
 10
138.200694
 20
148.519460
 30
0.0
 10
138.112500
 20
149.577793
 30
0.0
 10
138.024306
 20
150.547932
 30
0.0
 10
138.024306
 20
150.636127
 30
0.0
 10
139.170833
 20
150.988904
 30
0.0
 10
140.934722
 20
151.694460
 30
0.0
 10
142.610417
 20
152.488210
 30
0.0
 10
144.286111
 20
153.281960
 30
0.0
 10
145.873611
 20
154.252099
 30
0.0
 10
147.372917
 20
155.222238
 30
0.0
 10
148.784028
 20
156.192377
 30
0.0
 10
150.195139
 20
157.338904
 30
0.0
 10
151.518056
 20
158.485432
 30
0.0
 10
152.752778
 20
159.720154
 30
0.0
 10
153.899306
 20
160.954877
 30
0.0
 10
155.045833
 20
162.277793
 30
0.0
 10
156.015972
 20
163.688904
 30
0.0
 10
156.986111
 20
165.188210
 30
0.0
 10
157.868056
 20
166.687515
 30
0.0
 10
158.661806
 20
168.275015
 30
0.0
 10
159.367361
 20
169.862515
 30
0.0
 10
160.072917
 20
171.538210
 30
0.0
 10
160.602083
 20
173.302099
 30
0.0
 10
161.131250
 20
175.065988
 30
0.0
 10
161.484028
 20
176.918071
 30
0.0
 10
161.836806
 20
178.770154
 30
0.0
 10
162.013194
 20
180.710432
 30
0.0
 10
162.189583
 20
182.650710
 30
0.0
 10
162.189583
 20
184.679182
 30
0.0
 10
162.189583
 20
186.707654
 30
0.0
 10
162.013194
 20
188.736127
 30
0.0
 10
161.836806
 20
190.676404
 30
0.0
 10
161.484028
 20
192.528488
 30
0.0
 10
161.131250
 20
194.380571
 30
0.0
 10
160.602083
 20
196.144460
 30
0.0
 10
160.072917
 20
197.908349
 30
0.0
 10
159.367361
 20
199.584043
 30
0.0
 10
158.661806
 20
201.259738
 30
0.0
 10
157.868056
 20
202.847238
 30
0.0
 10
156.986111
 20
204.346543
 30
0.0
 10
156.015972
 20
205.757654
 30
0.0
 10
155.045833
 20
207.168765
 30
0.0
 10
153.899306
 20
208.491682
 30
0.0
 10
152.752778
 20
209.814599
 30
0.0
 10
151.518056
 20
211.049321
 30
0.0
 10
150.195139
 20
212.195849
 30
0.0
 10
148.784028
 20
213.254182
 30
0.0
 10
147.372917
 20
214.312515
 30
0.0
 10
145.873611
 20
215.194460
 30
0.0
 10
144.286111
 20
216.076404
 30
0.0
 10
142.610417
 20
216.870154
 30
0.0
 10
140.934722
 20
217.663904
 30
0.0
 10
139.170833
 20
218.281265
 30
0.0
 10
137.318750
 20
218.898627
 30
0.0
 10
135.466667
 20
219.427793
 30
0.0
 10
133.526389
 20
219.868765
 30
0.0
 10
131.586111
 20
220.221543
 30
0.0
 10
129.557639
 20
220.486127
 30
0.0
 10
127.529167
 20
220.662515
 30
0.0
 10
125.412500
 20
220.750710
 30
0.0
 10
123.295833
 20
220.838904
 30
0.0
 10
121.090972
 20
220.750710
 30
0.0
 10
118.974306
 20
220.662515
 30
0.0
 10
116.945833
 20
220.486127
 30
0.0
 10
114.917361
 20
220.133349
 30
0.0
 10
112.977083
 20
219.780571
 30
0.0
 10
111.125000
 20
219.339599
 30
0.0
 10
109.272917
 20
218.810432
 30
0.0
 10
107.420833
 20
218.193071
 30
0.0
 10
105.656944
 20
217.487515
 30
0.0
 10
103.981250
 20
216.693765
 30
0.0
 10
102.393750
 20
215.900015
 30
0.0
 10
100.806250
 20
214.929877
 30
0.0
 10
99.306944
 20
214.047932
 30
0.0
 10
97.895833
 20
212.989599
 30
0.0
 10
96.484722
 20
211.931265
 30
0.0
 10
95.250000
 20
210.696543
 30
0.0
 10
94.015278
 20
209.550015
 30
0.0
 10
92.868750
 20
208.227099
 30
0.0
 10
91.722222
 20
206.904182
 30
0.0
 10
90.752083
 20
205.493071
 30
0.0
 10
89.781944
 20
204.081960
 30
0.0
 10
88.900000
 20
202.494460
 30
0.0
 10
88.106250
 20
200.906960
 30
0.0
 10
87.400694
 20
199.319460
 30
0.0
 10
86.695139
 20
197.643765
 30
0.0
 10
86.165972
 20
195.879877
 30
0.0
 10
85.636806
 20
194.115988
 30
0.0
 10
85.284028
 20
192.352099
 30
0.0
 10
84.931250
 20
190.500015
 30
0.0
 10
84.754861
 20
188.559738
 30
0.0
 10
84.578472
 20
186.619460
 30
0.0
 10
84.578472
 20
184.679182
 30
0.0
 10
84.578472
 20
182.738904
 30
0.0
 10
84.754861
 20
180.798627
 30
0.0
 10
84.931250
 20
178.946543
 30
0.0
 10
85.284028
 20
177.094460
 30
0.0
 10
85.636806
 20
175.330571
 30
0.0
 10
86.165972
 20
173.566682
 30
0.0
 10
86.695139
 20
171.802793
 30
0.0
 10
87.400694
 20
170.127099
 30
0.0
 10
88.018056
 20
168.715988
 30
0.0
 10
81.403472
 20
168.715988
 30
0.0
 10
68.086111
 20
168.715988
 30
0.0
 10
54.768750
 20
168.715988
 30
0.0
 10
41.539583
 20
168.715988
 30
0.0
 10
28.222222
 20
168.715988
 30
0.0
 10
28.663194
 20
166.070154
 30
0.0
 10
29.015972
 20
163.512515
 30
0.0
 10
29.456944
 20
160.866682
 30
0.0
 10
29.897917
 20
158.309043
 30
0.0
 10
30.338889
 20
155.663210
 30
0.0
 10
30.691667
 20
153.017377
 30
0.0
 10
31.132639
 20
150.459738
 30
0.0
 10
31.573611
 20
147.813904
 30
0.0
 10
35.718750
 20
147.813904
 30
0.0
 10
39.952083
 20
147.813904
 30
0.0
 10
44.097222
 20
147.813904
 30
0.0
 10
48.242361
 20
147.813904
 30
0.0
 10
52.387500
 20
147.813904
 30
0.0
 10
56.620833
 20
147.813904
 30
0.0
 10
60.765972
 20
147.813904
 30
0.0
 10
64.911111
 20
147.813904
 30
0.0
 10
64.558333
 20
146.931960
 30
0.0
 10
64.205556
 20
146.050015
 30
0.0
 10
63.852778
 20
145.168071
 30
0.0
 10
63.588194
 20
144.374321
 30
0.0
 10
63.235417
 20
143.492377
 30
0.0
 10
62.970833
 20
142.610432
 30
0.0
 10
62.794444
 20
141.728488
 30
0.0
 10
62.529861
 20
140.846543
 30
0.0
 10
62.353472
 20
140.052793
 30
0.0
 10
62.177083
 20
139.082654
 30
0.0
 10
62.000694
 20
138.200710
 30
0.0
 10
61.912500
 20
137.230571
 30
0.0
 10
61.824306
 20
136.260432
 30
0.0
 10
61.736111
 20
135.202099
 30
0.0
 10
61.736111
 20
134.143765
 30
0.0
 10
61.736111
 20
133.085432
 30
0.0
 10
61.736111
 20
131.145154
 30
0.0
 10
61.824306
 20
129.293071
 30
0.0
 10
62.088889
 20
127.440988
 30
0.0
 10
62.353472
 20
125.677099
 30
0.0
 10
62.706250
 20
124.001404
 30
0.0
 10
63.235417
 20
122.325710
 30
0.0
 10
63.764583
 20
120.738210
 30
0.0
 10
64.381944
 20
119.150710
 30
0.0
 10
65.087500
 20
117.651404
 30
0.0
 10
65.881250
 20
116.240293
 30
0.0
 10
66.675000
 20
114.829182
 30
0.0
 10
67.645139
 20
113.506265
 30
0.0
 10
68.615278
 20
112.271543
 30
0.0
 10
69.673611
 20
111.125015
 30
0.0
 10
70.643750
 20
110.154877
 30
0.0
 10
61.736111
 20
110.154877
 30
0.0
 10
52.828472
 20
110.154877
 30
0.0
 10
43.920833
 20
110.154877
 30
0.0
 10
35.101389
 20
110.154877
 30
0.0
 10
35.101389
 20
107.597238
 30
0.0
 10
35.101389
 20
104.951404
 30
0.0
 10
35.101389
 20
102.305571
 30
0.0
 10
35.101389
 20
99.747932
 30
0.0
 10
35.101389
 20
97.102099
 30
0.0
 10
35.101389
 20
94.544460
 30
0.0
 10
35.101389
 20
91.898627
 30
0.0
 10
35.101389
 20
89.252793
 30
0.0
 10
41.627778
 20
89.252793
 30
0.0
 10
48.242361
 20
89.252793
 30
0.0
 10
54.768750
 20
89.252793
 30
0.0
 10
61.295139
 20
89.252793
 30
0.0
 10
67.909722
 20
89.252793
 30
0.0
 10
74.436111
 20
89.252793
 30
0.0
 10
81.050694
 20
89.252793
 30
0.0
 10
87.577083
 20
89.252793
 30
0.0
 10
87.665278
 20
88.811821
 30
0.0
 10
87.753472
 20
88.282654
 30
0.0
 10
87.841667
 20
87.753488
 30
0.0
 10
87.841667
 20
87.224321
 30
0.0
 10
87.929861
 20
86.606960
 30
0.0
 10
88.018056
 20
86.077793
 30
0.0
 10
88.018056
 20
85.460432
 30
0.0
 10
88.106250
 20
84.843071
 30
0.0
 10
88.194444
 20
84.225710
 30
0.0
 10
88.194444
 20
83.608349
 30
0.0
 10
88.194444
 20
82.990988
 30
0.0
 10
88.282639
 20
82.373627
 30
0.0
 10
88.282639
 20
81.756265
 30
0.0
 10
88.282639
 20
81.138904
 30
0.0
 10
88.282639
 20
80.609738
 30
0.0
 10
88.282639
 20
80.080571
 30
0.0
 10
88.282639
 20
78.316682
 30
0.0
 10
88.018056
 20
76.729182
 30
0.0
 10
87.665278
 20
75.229877
 30
0.0
 10
87.224306
 20
73.906960
 30
0.0
 10
86.518750
 20
72.760432
 30
0.0
 10
85.813194
 20
71.702099
 30
0.0
 10
84.843056
 20
70.820154
 30
0.0
 10
83.784722
 20
70.114599
 30
0.0
 10
82.638194
 20
69.497238
 30
0.0
 10
81.227083
 20
68.968071
 30
0.0
 10
79.639583
 20
68.438904
 30
0.0
 10
77.963889
 20
68.086127
 30
0.0
 10
76.023611
 20
67.821543
 30
0.0
 10
73.906944
 20
67.556960
 30
0.0
 10
71.702083
 20
67.468765
 30
0.0
 10
69.232639
 20
67.468765
 30
0.0
 10
64.999306
 20
67.468765
 30
0.0
 10
60.677778
 20
67.468765
 30
0.0
 10
56.444444
 20
67.468765
 30
0.0
 10
52.122917
 20
67.468765
 30
0.0
 10
47.889583
 20
67.468765
 30
0.0
 10
43.568056
 20
67.468765
 30
0.0
 10
39.334722
 20
67.468765
 30
0.0
 10
35.101389
 20
67.468765
 30
0.0
 10
35.101389
 20
64.822932
 30
0.0
 10
35.101389
 20
62.177099
 30
0.0
 10
35.101389
 20
59.619460
 30
0.0
 10
35.101389
 20
56.973627
 30
0.0
 10
35.101389
 20
54.415988
 30
0.0
 10
35.101389
 20
51.770154
 30
0.0
 10
35.101389
 20
49.124321
 30
0.0
 10
35.101389
 20
46.566682
 30
0.0
 10
36.336111
 20
46.566682
 30
0.0
 10
35.365972
 20
44.979182
 30
0.0
 10
34.131250
 20
42.597932
 30
0.0
 10
32.896528
 20
39.863904
 30
0.0
 10
31.573611
 20
36.953488
 30
0.0
 10
30.338889
 20
33.602099
 30
0.0
 10
29.721528
 20
32.014599
 30
0.0
 10
29.104167
 20
30.603488
 30
0.0
 10
28.575000
 20
29.280571
 30
0.0
 10
28.045833
 20
28.134043
 30
0.0
 10
27.516667
 20
27.075710
 30
0.0
 10
26.987500
 20
26.193765
 30
0.0
 10
26.546528
 20
25.311821
 30
0.0
 10
26.017361
 20
24.694460
 30
0.0
 10
25.576389
 20
24.165293
 30
0.0
 10
25.223611
 20
23.812515
 30
0.0
 10
24.782639
 20
23.636127
 30
0.0
 10
24.341667
 20
23.459738
 30
0.0
 10
23.018750
 20
23.106960
 30
0.0
 10
21.872222
 20
23.018765
 30
0.0
 10
20.902083
 20
23.283349
 30
0.0
 10
20.020139
 20
23.900710
 30
0.0
 10
18.961806
 20
25.047238
 30
0.0
 10
18.256250
 20
26.458349
 30
0.0
 10
17.815278
 20
28.663210
 30
0.0
 10
17.727083
 20
32.367377
 30
0.0
 10
17.727083
 20
35.013210
 30
0.0
 10
17.903472
 20
37.394460
 30
0.0
 10
18.256250
 20
39.775710
 30
0.0
 10
18.697222
 20
41.980571
 30
0.0
 10
19.226389
 20
44.097238
 30
0.0
 10
19.755556
 20
46.125710
 30
0.0
 10
20.284722
 20
48.065988
 30
0.0
 10
20.902083
 20
49.918071
 30
0.0
 10
16.668750
 20
50.800015
 30
0.0
 10
12.347222
 20
51.681960
 30
0.0
 10
8.113889
 20
52.652099
 30
0.0
 10
3.792361
 20
53.534043
 30
0.0
 10
3.086806
 20
51.593765
 30
0.0
 10
2.469444
 20
49.300710
 30
0.0
 10
1.763889
 20
46.654877
 30
0.0
 10
1.234722
 20
43.744460
 30
0.0
 10
0.705556
 20
40.569460
 30
0.0
 10
0.264583
 20
37.394460
 30
0.0
 10
0.088194
 20
34.131265
 30
0.0
 10
-0.000000
 20
30.868071
 30
0.0
  0
LWPOLYLINE
  5
101
100
AcDbEntity
  8
Layer_1
 62
7
100
AcDbPolyline
 90
65
 70
0
 10
80.609722
 20
136.525015
 30
0.0
 10
80.609722
 20
137.583349
 30
0.0
 10
80.697917
 20
138.729877
 30
0.0
 10
80.786111
 20
139.788210
 30
0.0
 10
80.874306
 20
140.846543
 30
0.0
 10
81.050694
 20
141.816682
 30
0.0
 10
81.227083
 20
142.698627
 30
0.0
 10
81.491667
 20
143.492377
 30
0.0
 10
81.668056
 20
144.197932
 30
0.0
 10
81.932639
 20
144.903488
 30
0.0
 10
82.197222
 20
145.609043
 30
0.0
 10
82.461806
 20
146.226404
 30
0.0
 10
82.726389
 20
146.755571
 30
0.0
 10
83.079167
 20
147.284738
 30
0.0
 10
83.343750
 20
147.813904
 30
0.0
 10
87.753472
 20
147.813904
 30
0.0
 10
92.163194
 20
147.813904
 30
0.0
 10
96.572917
 20
147.813904
 30
0.0
 10
100.894444
 20
147.813904
 30
0.0
 10
105.304167
 20
147.813904
 30
0.0
 10
109.713889
 20
147.813904
 30
0.0
 10
114.123611
 20
147.813904
 30
0.0
 10
118.533333
 20
147.813904
 30
0.0
 10
118.621528
 20
147.461127
 30
0.0
 10
118.621528
 20
147.020154
 30
0.0
 10
118.709722
 20
146.579182
 30
0.0
 10
118.797917
 20
146.050015
 30
0.0
 10
118.797917
 20
145.609043
 30
0.0
 10
118.886111
 20
145.079877
 30
0.0
 10
118.974306
 20
144.462515
 30
0.0
 10
118.974306
 20
143.933349
 30
0.0
 10
119.062500
 20
143.315988
 30
0.0
 10
119.062500
 20
142.698627
 30
0.0
 10
119.150694
 20
142.081265
 30
0.0
 10
119.150694
 20
141.375710
 30
0.0
 10
119.150694
 20
140.758349
 30
0.0
 10
119.238889
 20
140.052793
 30
0.0
 10
119.238889
 20
139.435432
 30
0.0
 10
119.238889
 20
138.729877
 30
0.0
 10
119.150694
 20
136.613210
 30
0.0
 10
118.886111
 20
134.672932
 30
0.0
 10
118.356944
 20
132.909043
 30
0.0
 10
117.739583
 20
131.233349
 30
0.0
 10
116.945833
 20
129.645849
 30
0.0
 10
115.887500
 20
128.234738
 30
0.0
 10
114.740972
 20
127.000015
 30
0.0
 10
113.329861
 20
125.853488
 30
0.0
 10
111.830556
 20
124.795154
 30
0.0
 10
110.419444
 20
123.913210
 30
0.0
 10
108.920139
 20
123.207654
 30
0.0
 10
107.420833
 20
122.590293
 30
0.0
 10
105.656944
 20
122.061127
 30
0.0
 10
103.893056
 20
121.708349
 30
0.0
 10
101.776389
 20
121.531960
 30
0.0
 10
99.571528
 20
121.443765
 30
0.0
 10
94.897222
 20
121.708349
 30
0.0
 10
91.104861
 20
122.413904
 30
0.0
 10
88.018056
 20
123.560432
 30
0.0
 10
85.636806
 20
125.059738
 30
0.0
 10
83.696528
 20
127.000015
 30
0.0
 10
82.373611
 20
129.204877
 30
0.0
 10
81.403472
 20
131.762515
 30
0.0
 10
80.786111
 20
134.672932
 30
0.0
 10
80.697917
 20
135.554877
 30
0.0
 10
80.609722
 20
136.525015
 30
0.0
  0
LWPOLYLINE
  5
102
100
AcDbEntity
  8
Layer_1
 62
7
100
AcDbPolyline
 90
65
 70
0
 10
103.540278
 20
184.679182
 30
0.0
 10
103.628472
 20
186.443071
 30
0.0
 10
103.893056
 20
188.030571
 30
0.0
 10
104.334028
 20
189.529877
 30
0.0
 10
104.951389
 20
191.029182
 30
0.0
 10
105.745139
 20
192.352099
 30
0.0
 10
106.715278
 20
193.498627
 30
0.0
 10
107.773611
 20
194.645154
 30
0.0
 10
109.096528
 20
195.703488
 30
0.0
 10
110.507639
 20
196.585432
 30
0.0
 10
112.006944
 20
197.379182
 30
0.0
 10
113.506250
 20
197.996543
 30
0.0
 10
115.181944
 20
198.525710
 30
0.0
 10
116.945833
 20
198.966682
 30
0.0
 10
118.797917
 20
199.319460
 30
0.0
 10
120.914583
 20
199.495849
 30
0.0
 10
123.295833
 20
199.495849
 30
0.0
 10
125.500694
 20
199.495849
 30
0.0
 10
127.617361
 20
199.319460
 30
0.0
 10
129.469444
 20
198.966682
 30
0.0
 10
131.145139
 20
198.525710
 30
0.0
 10
132.732639
 20
197.996543
 30
0.0
 10
134.143750
 20
197.379182
 30
0.0
 10
135.643056
 20
196.585432
 30
0.0
 10
137.054167
 20
195.703488
 30
0.0
 10
138.377083
 20
194.645154
 30
0.0
 10
139.523611
 20
193.498627
 30
0.0
 10
140.493750
 20
192.352099
 30
0.0
 10
141.287500
 20
191.029182
 30
0.0
 10
141.904861
 20
189.529877
 30
0.0
 10
142.345833
 20
188.030571
 30
0.0
 10
142.610417
 20
186.443071
 30
0.0
 10
142.698611
 20
184.679182
 30
0.0
 10
142.610417
 20
182.915293
 30
0.0
 10
142.345833
 20
181.327793
 30
0.0
 10
141.904861
 20
179.740293
 30
0.0
 10
141.287500
 20
178.329182
 30
0.0
 10
140.493750
 20
177.006265
 30
0.0
 10
139.523611
 20
175.771543
 30
0.0
 10
138.377083
 20
174.625015
 30
0.0
 10
137.054167
 20
173.566682
 30
0.0
 10
135.643056
 20
172.684738
 30
0.0
 10
134.143750
 20
171.890988
 30
0.0
 10
132.732639
 20
171.185432
 30
0.0
 10
131.145139
 20
170.656265
 30
0.0
 10
129.469444
 20
170.215293
 30
0.0
 10
127.617361
 20
169.950710
 30
0.0
 10
125.500694
 20
169.774321
 30
0.0
 10
123.295833
 20
169.686127
 30
0.0
 10
120.914583
 20
169.774321
 30
0.0
 10
118.797917
 20
169.950710
 30
0.0
 10
116.945833
 20
170.215293
 30
0.0
 10
115.181944
 20
170.656265
 30
0.0
 10
113.506250
 20
171.185432
 30
0.0
 10
112.006944
 20
171.890988
 30
0.0
 10
110.507639
 20
172.684738
 30
0.0
 10
109.096528
 20
173.566682
 30
0.0
 10
107.773611
 20
174.625015
 30
0.0
 10
106.715278
 20
175.771543
 30
0.0
 10
105.745139
 20
177.006265
 30
0.0
 10
104.951389
 20
178.329182
 30
0.0
 10
104.334028
 20
179.740293
 30
0.0
 10
103.893056
 20
181.327793
 30
0.0
 10
103.628472
 20
182.915293
 30
0.0
 10
103.540278
 20
184.679182
 30
0.0
  0
ENDSEC
  0
SECTION
  2
OBJECTS
  0
DICTIONARY
  5
C
330
0
100
AcDbDictionary
  3
ACAD_GROUP
350
D
  3
ACAD_MLINESTYLE
350
17
  0
DICTIONARY
  5
D
330
C
100
AcDbDictionary
  0
DICTIONARY
  5
1A
330
C
100
AcDbDictionary
  0
DICTIONARY
  5
17
330
C
100
AcDbDictionary
  3
STANDARD
350
18
  0
DICTIONARY
  5
19
330
C
100
AcDbDictionary
  0
ENDSEC
  0
EOF
