<?xml version="1.0" encoding="UTF-8" standalone="no"?>
<!-- Created with Inkscape (http://www.inkscape.org/) -->

<svg
   xmlns:dc="http://purl.org/dc/elements/1.1/"
   xmlns:cc="http://creativecommons.org/ns#"
   xmlns:rdf="http://www.w3.org/1999/02/22-rdf-syntax-ns#"
   xmlns:svg="http://www.w3.org/2000/svg"
   xmlns="http://www.w3.org/2000/svg"
   xmlns:sodipodi="http://sodipodi.sourceforge.net/DTD/sodipodi-0.dtd"
   xmlns:inkscape="http://www.inkscape.org/namespaces/inkscape"
   width="98.244278"
   height="77.475868"
   id="svg4480"
   version="1.1"
   inkscape:version="0.48.4 r9939"
   sodipodi:docname="sudo.svg">
  <defs
     id="defs4482">
    <clipPath
       clipPathUnits="userSpaceOnUse"
       id="clipPath3502">
      <path
         inkscape:connector-curvature="0"
         d="m 0,0 1024,0 0,768 L 0,768 0,0 z"
         id="path3504" />
    </clipPath>
  </defs>
  <sodipodi:namedview
     id="base"
     pagecolor="#ffffff"
     bordercolor="#666666"
     borderopacity="1.0"
     inkscape:pageopacity="0.0"
     inkscape:pageshadow="2"
     inkscape:zoom="3.4632022"
     inkscape:cx="49.12214"
     inkscape:cy="38.737935"
     inkscape:document-units="px"
     inkscape:current-layer="svg4480"
     showgrid="false"
     fit-margin-top="10"
     fit-margin-left="10"
     fit-margin-right="10"
     fit-margin-bottom="10"
     inkscape:window-width="1280"
     inkscape:window-height="784"
     inkscape:window-x="0"
     inkscape:window-y="0"
     inkscape:window-maximized="0" />
  <metadata
     id="metadata4485">
    <rdf:RDF>
      <cc:Work
         rdf:about="">
        <dc:format>image/svg+xml</dc:format>
        <dc:type
           rdf:resource="http://purl.org/dc/dcmitype/StillImage" />
        <dc:title></dc:title>
      </cc:Work>
    </rdf:RDF>
  </metadata>
  <g
     inkscape:label="Layer 1"
     inkscape:groupmode="layer"
     id="layer1"
     transform="translate(-306.1437,-487.2827)">
    <g
       id="g3214"
       transform="matrix(1.25,0,0,-1.25,325.18245,518.7852)">
      <path
         d="m 0,0.31875 c 1.085,0 1.852,0.42319805 2.304,0.63519805 C 2.754,1.166948 2.7779277,1.1764277 2.8552563,1.5411612 2.9537732,2.0058325 2.687,2.3015786 2.105,2.6595786 c -0.583,0.357 -1.47,0.76 -2.662,1.211 -0.927,0.345 -1.767,0.703 -2.522,1.072 -0.755,0.372 -1.397,0.814 -1.928,1.331 -0.529,0.516 -0.939,1.132 -1.23,1.849 -0.292,0.713 -0.437,1.7144214 -0.437,2.7224214 0,1.959 0.728,3.508 2.185,4.646 1.455,1.14 3.455,1.711 5.998,1.711 1.271,0 2.489,-0.114 3.655,-0.339 1.164,-0.226 2.091,-0.471 2.78,-0.736 L 6.911,11.27 C 6.222,11.508 5.475,11.719 4.667,11.906 3.859,12.09 2.9519873,12.189062 1.946,12.184 0.20674726,12.1752 0.02117366,12.014034 -0.46376894,11.519396 c -0.28000169,-0.2856 -0.31355339,-0.662132 -0.12848735,-1.217363 0.079,-0.185 0.11525629,-0.311967 0.35325629,-0.482967 0.239,-0.174 0.563,-0.359 0.973,-0.56 0.411,-0.2 0.934,-0.42 1.57,-0.658 1.296,-0.483 2.369,-0.956 3.216,-1.423 C 6.368,6.710066 7.037,6.1 7.527,5.558 8.017,5.017 8.361,4.415 8.559,3.754 8.758,3.093 8.858,2.328 8.858,1.456 8.858,-0.605 8.083,-2.165 6.534,-3.223 4.985,-4.279 2.793,-4.806 -0.04,-4.806 c -1.854,0 -3.397,0.158 -4.628,0.475 -1.232,0.319 -2.085,0.583 -2.563,0.796 l 0.994,5.1241981 c 1.006,-0.397 2.039,-0.70900005 3.098,-0.93300005 1.059,-0.227 2.105,-0.338 3.139,-0.338"
         style="fill:#ed1d24;fill-opacity:1;fill-rule:nonzero;stroke:none"
         id="path3216"
         inkscape:connector-curvature="0"
         sodipodi:nodetypes="ccscccccscsccccsscccccccscsccccc" />
    </g>
    <g
       id="g3218"
       transform="matrix(1.25,0,0,-1.25,355.18351,534.93237)">
      <path
         d="m 0,0 c -1.008,-0.293 -2.306,-0.563 -3.895,-0.815 -1.588,-0.251 -3.257,-0.377 -5.005,-0.377 -1.774,0 -3.252,0.237 -4.43,0.715 -1.178,0.477 -2.111,1.146 -2.799,2.007 -0.689,0.859 -1.18,1.886 -1.47,3.078 -0.292,1.191 -0.437,2.502 -0.437,3.932 l 0,11.64 5.919,0 0,-9.690157 c 0,-1.9080003 0.251,-3.2850003 0.754,-4.1320003 0.504,-0.849 1.445,-1.272 2.821,-1.272 0.423,0 0.873,0.021 1.351,0.06 0.476,0.039 0.899,0.084 1.27,0.139 l 0,14.8951573 5.921,0 z"
         style="fill:#ed1d24;fill-opacity:1;fill-rule:nonzero;stroke:none"
         id="path3220"
         inkscape:connector-curvature="0"
         sodipodi:nodetypes="ccscccsccscsccccc" />
    </g>
    <g
       id="g3222"
       transform="matrix(1.25,0,0,-1.25,375.92131,544.96519)">
      <path
         d="m 0,0 c -0.531,-0.159 -1.139,-0.311 -1.828,-0.458 -0.689,-0.145 -1.41,-0.272 -2.164,-0.377 -0.756,-0.105 -1.523,-0.191 -2.305,-0.257 -0.782,-0.066 -1.528,-0.1 -2.244,-0.1 -1.722,0 -3.258,0.252 -4.608,0.755 -1.351,0.502 -2.49,1.224 -3.417,2.165 -0.927,0.939 -1.635,2.078 -2.125,3.416 -0.49,1.335 -0.735,2.839 -0.735,4.509 0,1.694 0.211,3.223 0.636,4.589 0.424,1.363 1.033,2.52 1.827,3.475 0.795,0.953 1.768,1.681 2.92,2.184 1.152,0.503 2.469,0.756 3.952,0.756 0.821,0 1.556,-0.081 2.206,-0.239 0.649,-0.159 1.304,-0.386 1.966,-0.676 l 0,9.455 L 0,30.15 z m -13.387,9.931 c 0,-1.828 0.41,-2.796 1.23,-3.909 0.822,-1.112 2.039,-1.669 3.655,-1.669 0.53,0 1.02,0.018 1.471,0.06 0.45,0.04 0.82,0.084 1.112,0.139 l 0,9.965 c -0.371,0.238 -0.853,0.437 -1.45,0.597 -0.596,0.158 -1.682243,0.23786 -2.283,0.138 -2.256,-0.375 -3.735,-1.508 -3.735,-5.321"
         style="fill:#ed1d24;fill-opacity:1;fill-rule:nonzero;stroke:none"
         id="path3224"
         inkscape:connector-curvature="0"
         sodipodi:nodetypes="cccsscccsccsscccccccsccccsc" />
    </g>
    <g
       id="g3226"
       transform="matrix(1.25,0,0,-1.25,394.38798,540.95482)">
      <path
         d="m 0,0 c 0,-1.645 -0.24,-3.146 -0.715,-4.511 -0.477,-1.363 -1.166,-2.528 -2.067,-3.493 -0.899,-0.97 -1.978,-1.717 -3.235,-2.245 -1.259,-0.53 -2.67,-0.794 -4.232,-0.794 -1.535,0 -2.933,0.264 -4.191,0.794 -1.259,0.528 -2.337,1.275 -3.238,2.245 -0.9,0.965 -1.602,2.13 -2.106,3.493 -0.504,1.365 -0.753,2.866 -0.753,4.511 0,1.64 0.257,3.137 0.773,4.487 0.516,1.353 1.233,2.502 2.146,3.457 0.914,0.953 1.998,1.694 3.257,2.225 1.259,0.529 2.627,0.795 4.112,0.795 1.511,0 2.894,-0.266 4.153,-0.795 C -4.839,9.638 -3.759,8.897 -2.861,7.944 -1.96,6.989 -1.258,5.84 -0.754,4.487 -0.252,3.137 0,1.64 0,0 m -6.037,0 c 0,1.828 -0.366,2.964 -1.093,4.01 -0.729,1.046 -1.768,1.569 -3.119,1.569 -1.351,0 -2.397,-0.523 -3.139,-1.569 C -14.129,2.964 -14.5,1.828 -14.5,0 c 0,-1.829 0.371,-2.827 1.112,-3.902 0.742,-1.072 1.788,-1.607 3.139,-1.607 1.351,0 2.39,0.535 3.119,1.607 0.727,1.075 1.093,2.073 1.093,3.902"
         style="fill:#ed1d24;fill-opacity:1;fill-rule:nonzero;stroke:none"
         id="path3228"
         inkscape:connector-curvature="0"
         sodipodi:nodetypes="ccccscccscccsccccccscscscc" />
    </g>
  </g>
</svg>
