<?xml version="1.0" encoding="UTF-8" standalone="no"?>
<!-- Created with Inkscape (http://www.inkscape.org/) -->

<svg
   xmlns:dc="http://purl.org/dc/elements/1.1/"
   xmlns:cc="http://creativecommons.org/ns#"
   xmlns:rdf="http://www.w3.org/1999/02/22-rdf-syntax-ns#"
   xmlns:svg="http://www.w3.org/2000/svg"
   xmlns="http://www.w3.org/2000/svg"
   xmlns:sodipodi="http://sodipodi.sourceforge.net/DTD/sodipodi-0.dtd"
   xmlns:inkscape="http://www.inkscape.org/namespaces/inkscape"
   width="744.09448819"
   height="1052.3622047"
   id="svg3783"
   version="1.1"
   inkscape:version="0.48.5 r10040"
   sodipodi:docname="New document 3">
  <defs
     id="defs3785" />
  <sodipodi:namedview
     id="base"
     pagecolor="#ffffff"
     bordercolor="#666666"
     borderopacity="1.0"
     inkscape:pageopacity="0.0"
     inkscape:pageshadow="2"
     inkscape:zoom="0.35"
     inkscape:cx="375"
     inkscape:cy="520"
     inkscape:document-units="px"
     inkscape:current-layer="layer1"
     showgrid="false"
     inkscape:window-width="1280"
     inkscape:window-height="784"
     inkscape:window-x="0"
     inkscape:window-y="0"
     inkscape:window-maximized="0" />
  <metadata
     id="metadata3788">
    <rdf:RDF>
      <cc:Work
         rdf:about="">
        <dc:format>image/svg+xml</dc:format>
        <dc:type
           rdf:resource="http://purl.org/dc/dcmitype/StillImage" />
        <dc:title></dc:title>
      </cc:Work>
    </rdf:RDF>
  </metadata>
  <g
     inkscape:label="Layer 1"
     inkscape:groupmode="layer"
     id="layer1">
    <path
       style="fill:#f5b712;fill-opacity:1"
       id="path3817"
       d="m -526.14169,530.78505 c 13.42636,-9.49938 25.21979,-21.03922 37.93546,-31.42426 12.57038,-10.26638 14.42932,-11.28097 27.67639,-20.77647 63.18377,-41.53014 130.51641,-76.05808 197.96478,-109.95108 12.07864,-5.68923 23.53409,-13.79676 36.70034,-17.01528 2.53099,-0.61871 5.26118,-1.52438 7.77239,-0.82972 2.41314,0.66753 4.70544,2.43098 5.92371,4.61838 1.6999,3.05217 1.55908,6.81108 2.33862,10.21663 -1.04813,3.06458 -1.81839,6.23876 -3.14441,9.19375 -2.65979,5.92727 -8.6076,14.40538 -12.28262,19.26696 -11.24381,14.87412 -24.23068,28.18049 -37.05028,41.671 -29.38372,30.26218 -57.75466,61.40005 -84.55501,93.97056 -23.09731,29.24257 -42.75971,61.32322 -58.33106,95.16872 -8.68574,20.69725 -13.56797,42.65162 -13.95212,65.0738 0.50014,12.25318 4.09508,23.94219 11.38446,33.82572 6.6586,6.56345 13.86275,13.34004 22.59464,17.08337 2.25892,0.96839 4.65721,1.57239 6.98581,2.35858 6.74438,1.45845 13.16334,3.21113 20.16944,3.09774 20.77868,-0.33629 40.36922,-10.30511 58.71707,-18.85604 5.47723,-2.85146 21.77583,-11.64811 16.4317,-8.55437 -130.8885,75.77183 -84.87093,50.60972 -58.15612,30.96675 7.63916,-5.61694 18.88911,-14.709 25.69759,-21.34392 3.98509,-3.8835 7.5749,-8.15298 11.36235,-12.22946 18.46887,-21.87658 30.59659,-47.82122 37.03282,-75.64011 1.31049,-5.66425 2.12636,-11.43167 3.18953,-17.1475 6.76814,-36.90549 9.31429,-74.25107 9.54092,-111.70891 -0.58452,-17.86867 -1.9698,-35.899 -5.76018,-53.41815 -3.16808,-14.64286 -8.50539,-28.58774 -14.02234,-42.45701 -4.01064,-7.49613 -7.25627,-17.26764 -14.69339,-22.39557 -0.89061,-0.61407 -2.29847,-1.59022 -3.12148,-0.88814 -1.01014,0.86171 -1.65054,4.56964 -0.47364,3.95498 32.06356,-16.74571 63.08344,-35.41808 94.62516,-53.12713 -0.82975,1.9935 -2.059,3.8645 -2.48925,5.98048 -1.09484,5.38438 -0.24843,14.61798 0.36534,19.6785 1.73992,14.34561 5.6623,27.76851 9.95765,41.51149 9.3013,25.09598 22.70782,48.76826 38.64186,70.24934 4.13909,4.17021 10.58945,12.07841 16.93193,13.27736 1.92103,0.36314 9.49079,-1.85854 10.88247,-2.58516 2.17506,-1.13565 3.99166,-2.85466 5.98749,-4.28198 -157.39651,87.75317 -97.13722,61.44924 -68.73232,35.33286 7.26988,-6.68416 14.04915,-13.9138 21.1537,-20.7732 35.10713,-29.83754 9.68019,-8.83315 106.246069,-63.66119 2.007917,-1.14006 4.363409,-1.52748 6.597334,-2.11146 6.339029,-1.65712 11.706229,-1.61456 18.107888,-0.68849 13.750914,3.82182 18.203611,13.25778 23.35438,25.46909 7.7096182,19.81863 6.1134523,40.88984 3.9772406,61.57222 -6.2936436,34.38688 -11.4899216,68.99922 -19.1532056,103.11507 -5.937289,21.82022 -10.083478,44.07251 -15.989005,65.89514 -0.973444,4.45849 -2.810546,8.7414 -3.416885,13.28653 -0.07249,0.54336 0.536481,1.41085 0.04037,1.64402 -123.397748,57.99697 -133.213188,63.53795 -97.756028,43.9786 9.77761,-17.57361 16.27932,-36.71881 23.55491,-55.39588 7.54106,-19.35853 8.20708,-20.52486 16.42879,-39.92278 15.09419,-34.59396 29.427552,-69.51635 43.863371,-104.38923 8.072306,-19.37568 16.075358,-38.74669 26.485544,-57.00504 24.233729,-36.21349 64.577888,-42.47581 108.808104,-64.07911 1.761252,-0.86024 3.790041,1.15438 5.462983,2.1758 4.795231,2.92774 6.977807,6.20066 10.5594,10.41101 10.702038,18.02651 17.328828,37.99121 21.148028,58.50646 1.87001,14.9945 4.07308,30.2149 1.58908,45.2832 -1.93063,11.7115 -3.95277,16.04408 -7.81858,27.36121 -10.103598,24.81188 -22.568013,48.54455 -33.681189,72.91382 -2.660869,6.51015 -6.092255,12.70026 -8.422912,19.34848 -0.345204,0.9847 -0.845438,1.96959 -0.848965,3.01304 -0.0026,0.76239 1.527201,1.81865 0.831574,2.13065 -34.142365,15.31374 -68.8938388,29.2316 -103.340758,43.8474 10.803957,-23.71151 21.212906,-47.60503 31.5135925,-71.54034 15.4872537,-34.74294 30.1097105,-70.00175 49.3684965,-102.8687 10.170498,-16.73191 24.035722,-30.82624 41.07092,-40.627 34.206161,-19.67963 68.657801,-38.92946 102.986701,-58.39419 11.66243,-4.24908 23.83673,-6.84549 36.0482,-8.918 5.82834,-0.98918 14.68032,-2.35895 20.74859,-2.30836 2.76794,0.0231 5.50844,0.55247 8.26265,0.82871 5.43264,1.97052 8.30112,2.383 12.64789,6.36077 9.23782,8.45363 11.42243,22.58946 13.91761,34.16859 3.30083,24.95207 2.49466,50.74343 -2.92313,75.37154 -1.41876,6.4494 -3.38051,12.76725 -5.07077,19.15088 -2.048,6.22762 -3.95214,12.50441 -6.14401,18.68286 -3.34651,9.43313 -12.13206,31.59387 -15.678,40.77637 -8.06093,20.87441 -15.71594,41.89326 -23.48089,62.87865 -14.92342,40.71794 -28.85285,81.86366 -38.40696,124.19429 -4.99587,26.18217 -6.99179,52.79172 -6.72217,79.41286 0.23248,2.96961 0.22746,8.82497 1.80925,11.96387 0.26094,0.51782 1.02615,1.22163 1.4979,0.88447 0.78281,-0.55946 0.65452,-1.81084 1.03492,-2.69464 0.64172,-1.49094 3.46402,-5.18668 2.02999,-4.42624 -30.48308,16.16481 -60.01694,34.05943 -90.025403,51.08914 22.594813,-15.50365 43.104883,-33.86569 62.254763,-53.40519 29.27903,-32.92826 51.72995,-71.09654 73.11696,-109.40762 22.31437,-41.26242 38.75458,-85.23456 56.20386,-128.66039 8.81479,-20.25487 15.46713,-41.51709 26.10485,-60.94324 33.77061,-17.30952 66.35953,-37.14983 101.31182,-51.92856 2.59631,-1.09779 3.27184,4.64747 4.3499,7.25204 4.90103,11.84081 4.29596,29.48321 4.69754,42.06026 0.63215,27.82993 0.24334,55.66795 0.8186,83.49773 0.2402,12.53011 -0.49155,24.87776 -3.50202,37.07393 -2.28917,9.27399 -5.83163,18.21529 -8.64105,27.33527 -7.40582,39.95128 -1.33861,12.35925 -102.10561,51.69503 -2.93235,1.14469 0.82521,-6.25769 1.61968,-9.30364 0.92079,-3.53024 2.24606,-6.94457 3.51088,-10.36665 4.15986,-11.25495 7.52758,-18.74534 12.31331,-29.98806 12.00769,-24.9543 24.09454,-49.93941 38.27974,-73.75385 8.32654,-13.97878 11.05751,-17.51022 19.99501,-30.47311 11.03213,-14.65262 22.23998,-29.41903 36.58652,-41.03949 32.68365,-26.4732 72.59901,-42.49686 109.16886,-63.27421 2.86944,-0.17627 5.74688,-0.80618 8.60832,-0.52883 12.68409,1.22947 23.0529,11.30205 28.03372,22.44871 1.58628,3.54997 2.47264,7.37295 3.70896,11.05943 5.65003,25.35909 6.38071,51.43698 6.75204,77.31166 -0.11212,17.12301 -2.24772,34.13096 -3.41236,51.19094 -3.06231,22.92138 0.57261,45.47374 6.07327,67.69134 7.28946,23.5069 20.73237,44.41624 38.551,61.27548 1.83387,1.18224 3.44112,2.82898 5.50162,3.5467 2.32483,0.8098 7.39907,-0.29141 9.38488,-1.48091 1.96114,-1.17472 7.25132,-5.51482 5.24556,-4.418 -80.9159,44.24745 -112.60042,68.43987 -73.79577,39.69582 19.64991,-17.26456 38.39855,-36.02 54.07089,-57.04296 12.28284,-16.47626 16.41771,-24.41392 26.96752,-42.05376 16.50858,-29.05324 28.88083,-60.12051 36.71554,-92.59305 3.57653,-14.82363 4.27396,-21.00322 6.54902,-35.51374 0.37473,-4.28357 0.93697,-8.55487 1.1242,-12.85073 0.13256,-3.04135 0.07,-6.09613 -0.16611,-9.1312 -0.13305,-1.71023 -0.38491,-3.43617 -0.93786,-5.06 -0.0888,-0.26084 -1.06811,0.0175 -0.82022,-0.10287 101.92196,-49.47611 122.86462,-76.66772 96.72282,-44.12682 -0.7586,3.01797 -1.78723,5.98065 -2.27579,9.0539 -2.67819,16.847 -2.223,34.19095 -2.54665,51.17114 -0.37325,19.58179 -0.67012,24.18095 -1.47694,44.09246 -1.09298,20.57448 -1.43145,41.2178 -0.10547,61.79142 0.55695,8.64159 1.39017,18.19409 3.50256,26.69208 0.72641,2.92229 1.93775,5.70219 2.90662,8.55329 2.44901,3.73362 3.34188,6.7877 7.88964,8.17024 4.14592,1.26039 6.56514,-0.89878 10.14043,-2.63637 10.3468,-5.02853 5.93012,-2.8146 16.98714,-8.69799 3.31194,-1.99265 13.28977,-7.89905 9.93582,-5.97794 -276.75313,158.52113 242.48026,-138.1131 -50.58146,29.63139 1.51944,-0.97721 3.03888,-1.95442 4.55833,-2.93162 0,0 102.94573,-41.64538 102.94573,-41.64538 l 0,0 c -1.50035,1.57939 -3.00071,3.15877 -4.50106,4.73816 -33.43591,19.29578 -66.80635,38.70546 -100.30773,57.88734 -2.33557,1.33728 -9.51428,5.02899 -7.1942,3.66501 27.91413,-16.41068 55.98372,-32.55548 83.98793,-48.81195 3.37166,-1.95725 -6.71551,3.96219 -10.09018,5.91424 -34.2029,19.78429 -68.36041,39.64767 -102.64237,59.29467 -3.55638,2.03817 -7.24412,3.83807 -10.86618,5.75711 -6.31779,2.68876 -13.62025,6.43354 -20.67666,7.02082 -13.02981,1.08442 -20.93302,-8.37716 -25.26873,-19.38736 -0.75679,-3.51015 -1.75735,-6.97648 -2.27036,-10.53045 -1.39513,-9.66501 -1.40612,-19.56392 -1.32328,-29.29045 0.17937,-21.05994 1.67379,-42.08019 1.95831,-63.13778 0.43225,-34.27679 -0.0811,-68.56652 -3.29899,-102.72155 0.12387,-44.63037 -1.92477,-10.41196 102.64232,-58.45115 1.33791,-0.61465 0.82854,2.86009 0.86219,4.33205 0.0524,2.2938 -0.3666,4.57461 -0.60642,6.85645 -1.39887,13.31036 -1.15188,10.25053 -3.77666,25.02676 -10.58438,45.78637 -23.39517,91.47503 -45.78904,133.07596 -6.74618,11.88014 -17.37285,31.06597 -24.95162,42.57556 -13.88762,21.09062 -31.5303,39.15329 -48.82134,57.41528 -37.38584,34.74297 -14.82517,15.05706 -111.80471,68.53236 -9.96723,5.49601 -20.8605,-2.13532 -27.22376,-9.07631 -16.44586,-20.03988 -29.72922,-42.8976 -38.66914,-67.23964 -6.53831,-22.53669 -12.0578,-45.51994 -10.98993,-69.17699 1.19397,-17.36276 3.83325,-34.49815 5.89644,-51.77246 1.02061,-24.54866 0.26813,-49.57014 -5.69129,-73.50632 -1.10588,-2.86544 -1.92648,-5.85799 -3.31763,-8.59631 -6.0819,-11.97144 -16.15762,-13.78922 -27.70588,-8.66599 28.59919,-16.70655 57.25724,-33.31275 85.79757,-50.11966 2.96188,-1.7442 -6.14796,3.09893 -9.05766,4.92884 -3.35956,2.11284 -6.6142,4.4055 -9.71777,6.87906 -11.81319,9.41516 -21.4883,21.00443 -30.86934,32.75477 -10.20997,12.99855 -12.90701,15.80955 -22.04314,30.12798 -14.45055,22.64735 -26.28501,46.98893 -37.0707,71.54312 -5.14699,13.82707 -5.66579,14.24524 -9.36644,27.51814 -0.82023,2.94185 -1.38719,5.95011 -2.19681,8.89489 -0.35361,1.28617 -0.11654,3.15406 -1.29016,3.78801 -33.18713,17.92644 -66.96268,34.75543 -100.8252,51.37088 -1.31171,0.64363 1.91641,-2.20605 2.87461,-3.30908 5.88507,-11.62372 12.02691,-24.95026 14.6848,-37.73837 1.71812,-8.26652 1.6787,-15.80228 2.03469,-24.20426 0.60834,-27.59043 0.49301,-55.22846 -0.88725,-82.79272 -0.76654,-9.72574 -0.79358,-12.77144 -2.28588,-22.07575 -0.41854,-2.60955 -0.87542,-5.21907 -1.529,-7.77988 -0.43183,-1.69196 -0.96804,-3.37213 -1.71953,-4.94835 -0.11853,-0.24863 -1.0146,-0.14823 -0.77557,-0.28509 31.58861,-18.08639 63.38577,-35.80609 95.07866,-53.70914 -1.57181,0.6544 -3.38653,0.89886 -4.71543,1.96321 -3.79152,3.03672 -8.84755,11.52703 -10.83511,15.13637 -7.57308,13.75241 -12.64798,28.67111 -19.79931,42.62884 -20.32043,43.40794 -37.00267,88.48654 -59.27257,130.97649 -19.65558,38.06312 -40.413,75.81878 -66.96417,109.6028 -3.52224,3.99985 -6.86107,8.16901 -10.56673,11.99955 -14.35294,14.83663 -30.8643,27.7363 -45.95179,41.81202 -33.60931,19.43192 -66.57354,40.02497 -100.827926,58.29577 -2.077571,1.10815 -4.848701,0.13639 -7.02177,-0.77029 -9.634952,-4.02002 -9.040999,-16.57821 -8.715717,-24.86686 1.823646,-28.00018 3.593976,-56.10011 10.29379,-83.46756 1.434639,-6.36487 2.665925,-12.77901 4.303916,-19.09461 5.452147,-21.02184 13.204757,-41.24839 20.201437,-61.76758 2.59137,-7.5997 4.972,-15.26966 7.48217,-22.89657 2.45652,-7.46391 4.94524,-14.91719 7.41787,-22.37578 14.56322,-40.29338 30.16281,-80.20532 44.12847,-120.71479 1.55659,-5.98509 3.35593,-11.91225 4.66978,-17.95527 4.98061,-22.90832 5.24661,-46.71026 1.10317,-69.75955 -1.91564,-8.25124 -3.41183,-20.04142 -11.29533,-25.15857 -3.1008,-2.01272 -5.36649,-2.02891 -8.96228,-2.69403 -20.58259,-0.36765 -41.03199,5.01217 -59.65962,13.55034 27.29406,-15.92932 54.67634,-31.70845 81.88219,-47.78797 3.29306,-1.94631 -6.8785,3.37584 -10.13483,5.38298 -13.31172,8.20512 -25.33192,18.89115 -34.67243,31.39839 -2.96297,4.29183 -6.09389,8.47245 -8.88892,12.8755 -17.67653,27.84616 -30.29697,58.63415 -42.893938,88.98063 -8.407148,22.11578 -18.195852,44.04115 -23.447328,67.16382 -34.853824,15.7917 -69.956418,31.04547 -104.561473,47.37511 -0.686037,0.32373 1.360647,1.33226 2.043428,1.00171 1.130925,-0.5475 1.579909,-1.96742 2.203998,-3.05795 3.886806,-6.7918 6.630216,-14.26258 10.761253,-20.93252 6.071118,-11.24397 11.527457,-22.71467 17.282469,-34.11638 6.4025194,-12.68454 13.2131791,-25.16783 18.581747,-38.35683 3.276636,-8.90383 6.042317,-15.19192 7.786843,-24.48678 2.623495,-13.97801 0.888699,-28.30957 -0.834011,-42.25579 -3.280896,-18.39683 -7.745756,-36.96781 -19.9301429,-51.72451 -2.9935816,-2.4787 -3.5721561,-3.87167 -7.5495771,-4.0084 -1.095045,-0.0376 -4.158747,1.24451 -3.2139,0.68971 30.499351,-17.90878 61.625885,-34.7408 92.016571,-52.83337 1.65529,-0.98545 -3.902516,0.49843 -5.609078,1.39215 -1.961562,1.02727 -3.415518,2.81891 -5.123278,4.22837 -12.899551,17.5147 -21.670103,37.43146 -30.803491,57.06902 -16.543619,34.86264 -32.0165694,70.23739 -47.2357823,105.69129 -12.4017137,29.92866 -23.8886237,60.23202 -31.2568167,91.84969 -1.260195,44.10431 1.57572,9.61605 -104.116523,54.16504 -1.23978,0.52256 -0.34475,-2.67748 -0.32894,-4.0228 0.065,-5.53141 1.78179,-10.68868 3.8421,-15.76349 8.56887,-22.00855 14.93602,-44.69761 21.31234,-67.43025 4.39493,-17.07026 8.19306,-34.20712 11.15635,-51.59446 3.0267,-17.75949 2.4874,-17.56822 4.76983,-34.92559 0.63355,-4.81801 1.37513,-9.62119 2.0627,-14.43179 0.89099,-8.93457 1.89784,-15.50165 1.49032,-24.42744 -0.46971,-10.28811 -2.84969,-20.65783 -6.23982,-30.33989 -4.02699,-8.57372 -6.71022,-14.69846 -17.24033,-14.56791 -5.16117,0.6186 -9.79006,1.73234 -14.54668,3.95592 -1.8814,0.8795 -7.27474,4.0088 -5.48524,2.95483 96.170655,-56.64203 115.86407,-69.28013 80.803017,-46.99027 -7.987136,6.51979 -14.960648,13.58676 -22.203246,20.91479 -34.614981,35.02332 -59.624941,47.85386 -117.715011,73.93548 -6.79175,1.57713 -9.34172,3.06651 -16.15932,1.46338 -11.2351,-2.64189 -18.55356,-12.32557 -24.98122,-21.09412 -14.73864,-23.55392 -27.11575,-48.6688 -38.11411,-74.15199 -7.48309,-23.49208 -15.77058,-47.08291 -16.85272,-71.95235 89.20593,-54.86308 91.88386,-93.59342 119.02964,-25.55058 4.97756,14.82021 10.30759,29.7499 13.40927,45.11137 3.67066,18.17936 4.2689,36.81322 5.73976,55.23779 0.0886,6.33683 0.34019,12.67348 0.26571,19.0105 -0.19533,16.6188 -0.94256,21.04891 -2.33709,37.66364 -1.58488,18.88254 -3.14188,37.77268 -6.08707,56.50781 -1.89376,10.45618 -4.47026,25.8175 -7.1664,36.06919 -5.91085,22.4752 -16.24088,43.14613 -30.31026,61.62812 -3.62405,4.43648 -6.97732,9.10867 -10.87213,13.30945 -7.84296,8.45908 -17.00219,15.76792 -26.07957,22.81406 -4.91571,3.81573 -9.61648,7.97327 -14.94445,11.18836 -90.67105,54.71423 -71.70116,44.94214 -121.92327,69.46201 -31.40641,13.2613 -54.18261,21.96469 -88.20382,12.34887 -2.86687,-1.13341 -5.81654,-2.07642 -8.60063,-3.40021 -10.05609,-4.78151 -18.57232,-12.8072 -25.69347,-21.18308 -7.73071,-12.22297 -13.59451,-25.86215 -13.61538,-40.54969 1.30708,-24.35884 6.54899,-48.34987 16.18586,-70.82018 2.34855,-5.17767 4.53117,-10.43387 7.04566,-15.53302 6.80712,-13.80416 10.07188,-18.64259 18.12222,-31.84675 10.6875,-17.52963 21.43855,-35.06951 34.27322,-51.15084 26.26415,-32.92322 54.75255,-63.9668 83.7789,-94.46592 4.24364,-4.5672 20.39942,-21.82002 24.85281,-27.10702 7.47074,-8.86913 13.45368,-18.38129 19.72792,-28.05304 1.0762,-1.65897 2.27265,-3.23676 3.40897,-4.85514 0.21313,0.0511 5.28368,0.77015 3.23678,1.77898 -1.64655,0.81151 -3.57492,0.86155 -5.30861,1.46489 -11.22276,3.90567 -21.55806,9.91764 -32.27337,14.95188 -17.82282,8.77596 -35.63612,17.61753 -53.24407,26.81893 -6.67402,3.48764 -26.3643,14.55374 -19.91023,10.67417 185.25211,-111.35571 68.0616,-39.59102 54.27779,-31.13043 -12.5122,8.49209 -15.38204,10.06205 -27.03519,19.43 -11.1389,8.95454 -10.32628,8.84703 -20.081,18.15653 -14.14755,13.50185 -0.88981,0.53472 -11.93779,11.4079 0,0 -104.1494,41.63043 -104.1494,41.63043 z"
       inkscape:connector-curvature="0" />
    <path
       style="fill:#f5b712;fill-opacity:1"
       id="path3819"
       d="m 727.35711,403.7805 c -4.80839,5.62943 -12.37334,14.15144 -13.41388,21.61891 2.65662,9.64611 11.78511,15.79367 20.07775,20.39264 6.61361,2.4245 18.60413,7.49279 25.1648,2.61451 1.13487,-0.84385 1.78867,-2.19105 2.68301,-3.28658 -30.94981,17.87448 -61.76331,35.98711 -92.84944,53.62345 -1.06768,0.60573 1.90907,-1.56199 2.7158,-2.48722 3.71206,-4.25735 5.84709,-9.47739 7.58829,-14.75126 3.20536,-8.56326 6.04774,-17.07589 6.89577,-26.21909 -0.40122,-7.75667 -7.14309,-6.94766 -12.90004,-5.20128 -4.43086,0.50186 -7.55576,2.33252 -10.9481,5.03052 0,0 87.68178,-69.51648 87.68178,-69.51648 l 0,0 c 4.62136,-0.92738 9.21543,-1.74003 13.96314,-1.35798 11.20046,2.46504 20.06896,8.6582 21.84868,20.72064 0.0934,9.88058 -1.13542,19.90301 -5.38977,28.93436 -1.4405,4.53288 -2.16701,9.32569 -4.0183,13.71748 -16.63549,39.46413 -54.04412,41.53343 -102.23581,67.34938 -11.81812,0.53226 -23.22847,-3.10953 -33.3821,-9.07773 -10.96015,-7.44526 -21.3389,-16.12544 -26.22734,-28.84787 -0.35437,-1.97086 -0.99558,-3.91125 -1.06311,-5.91257 -0.31273,-9.26869 6.70709,-15.22205 9.96273,-23.22216 0,0 103.84614,-44.12167 103.84614,-44.12167 z"
       inkscape:connector-curvature="0" />
  </g>
</svg>
