  0
SECTION
  2
HEADER
  9
$ACADVER
  1
AC1014
  9
$HANDSEED
  5
FFFF
  9
$MEASUREMENT
 70
     1
  0
ENDSEC
  0
SECTION
  2
TABLES
  0
TABLE
  2
VPORT
  5
8
330
0
100
AcDbSymbolTable
 70
     4
  0
VPORT
  5
2E
330
8
100
AcDbSymbolTableRecord
100
AcDbViewportTableRecord
  2
*ACTIVE
 70
     0
 10
0.0
 20
0.0
 11
1.0
 21
1.0
 12
210.0
 22
148.5
 13
0.0
 23
0.0
 14
10.0
 24
10.0
 15
10.0
 25
10.0
 16
0.0
 26
0.0
 36
1.0
 17
0.0
 27
0.0
 37
0.0
 40
341.0
 41
1.24
 42
50.0
 43
0.0
 44
0.0
 50
0.0
 51
0.0
 71
     0
 72
   100
 73
     1
 74
     3
 75
     0
 76
     0
 77
     0
 78
     0
  0
ENDTAB
  0
TABLE
  2
LTYPE
  5
5
330
0
100
AcDbSymbolTable
 70
     1
  0
LTYPE
  5
14
330
5
100
AcDbSymbolTableRecord
100
AcDbLinetypeTableRecord
  2
BYBLOCK
 70
     0
  3

 72
    65
 73
     0
 40
0.0
  0
LTYPE
  5
15
330
5
100
AcDbSymbolTableRecord
100
AcDbLinetypeTableRecord
  2
BYLAYER
 70
     0
  3

 72
    65
 73
     0
 40
0.0
  0
LTYPE
  5
16
330
5
100
AcDbSymbolTableRecord
100
AcDbLinetypeTableRecord
  2
CONTINUOUS
 70
     0
  3
Solid line
 72
    65
 73
     0
 40
0.0
  0
ENDTAB
  0
TABLE
  2
LAYER
  5
2
100
AcDbSymbolTable
 70
2
  0
LAYER
  5
50
100
AcDbSymbolTableRecord
100
AcDbLayerTableRecord
  2
0
 70
0
  6
CONTINUOUS
  0
LAYER
  5
51
100
AcDbSymbolTableRecord
100
AcDbLayerTableRecord
  2
Layer_1
 70
0
  6
CONTINUOUS
  0
ENDTAB
  0
TABLE
  2
STYLE
  5
3
330
0
100
AcDbSymbolTable
 70
     1
  0
STYLE
  5
11
330
3
100
AcDbSymbolTableRecord
100
AcDbTextStyleTableRecord
  2
STANDARD
 70
     0
 40
0.0
 41
1.0
 50
0.0
 71
     0
 42
2.5
  3
txt
  4

  0
ENDTAB
  0
TABLE
  2
VIEW
  5
6
330
0
100
AcDbSymbolTable
 70
     0
  0
ENDTAB
  0
TABLE
  2
UCS
  5
7
330
0
100
AcDbSymbolTable
 70
     0
  0
ENDTAB
  0
TABLE
  2
APPID
  5
9
330
0
100
AcDbSymbolTable
 70
     2
  0
APPID
  5
12
330
9
100
AcDbSymbolTableRecord
100
AcDbRegAppTableRecord
  2
ACAD
 70
     0
  0
ENDTAB
  0
TABLE
  2
DIMSTYLE
  5
A
330
0
100
AcDbSymbolTable
 70
     1
  0
DIMSTYLE
105
27
330
A
100
AcDbSymbolTableRecord
100
AcDbDimStyleTableRecord
  2
ISO-25
 70
     0
  3

  4

  5

  6

  7

 40
1.0
 41
2.5
 42
0.625
 43
3.75
 44
1.25
 45
0.0
 46
0.0
 47
0.0
 48
0.0
140
2.5
141
2.5
142
0.0
143
0.03937007874016
144
1.0
145
0.0
146
1.0
147
0.625
 71
     0
 72
     0
 73
     0
 74
     0
 75
     0
 76
     0
 77
     1
 78
     8
170
     0
171
     3
172
     1
173
     0
174
     0
175
     0
176
     0
177
     0
178
     0
270
     2
271
     2
272
     2
273
     2
274
     3
340
11
275
     0
280
     0
281
     0
282
     0
283
     0
284
     8
285
     0
286
     0
287
     3
288
     0
  0
ENDTAB
  0
TABLE
  2
BLOCK_RECORD
  5
1
330
0
100
AcDbSymbolTable
 70
     1
  0
BLOCK_RECORD
  5
1F
330
1
100
AcDbSymbolTableRecord
100
AcDbBlockTableRecord
  2
*MODEL_SPACE
  0
BLOCK_RECORD
  5
1B
330
1
100
AcDbSymbolTableRecord
100
AcDbBlockTableRecord
  2
*PAPER_SPACE
  0
ENDTAB
  0
ENDSEC
  0
SECTION
  2
BLOCKS
  0
BLOCK
  5
20
330
1F
100
AcDbEntity
  8
0
100
AcDbBlockBegin
  2
*MODEL_SPACE
 70
     0
 10
0.0
 20
0.0
 30
0.0
  3
*MODEL_SPACE
  1

  0
ENDBLK
  5
21
330
1F
100
AcDbEntity
  8
0
100
AcDbBlockEnd
  0
BLOCK
  5
1C
330
1B
100
AcDbEntity
 67
     1
  8
0
100
AcDbBlockBegin
  2
*PAPER_SPACE
  1

  0
ENDBLK
  5
1D
330
1B
100
AcDbEntity
 67
     1
  8
0
100
AcDbBlockEnd
  0
ENDSEC
  0
SECTION
  2
ENTITIES
  0
LWPOLYLINE
  5
100
100
AcDbEntity
  8
Layer_1
 62
7
100
AcDbPolyline
 90
277
 70
1
 10
9.013472
 20
251.112431
 30
0.0
 10
2.208232
 20
247.520840
 30
0.0
 10
-4.002445
 20
242.823750
 30
0.0
 10
-10.216056
 20
238.072138
 30
0.0
 10
-17.030099
 20
234.316991
 30
0.0
 10
-33.696094
 20
225.602965
 30
0.0
 10
-50.087132
 20
216.347860
 30
0.0
 10
-65.806106
 20
206.067904
 30
0.0
 10
-80.455922
 20
194.279335
 30
0.0
 10
-81.402936
 20
193.032294
 30
0.0
 10
-80.548847
 20
192.688640
 30
0.0
 10
-78.920848
 20
192.993477
 30
0.0
 10
-77.546144
 20
193.691906
 30
0.0
 10
-70.653811
 20
196.492335
 30
0.0
 10
-63.686134
 20
199.171745
 30
0.0
 10
-56.790017
 20
201.968488
 30
0.0
 10
-50.112360
 20
205.120910
 30
0.0
 10
-44.954884
 20
210.201878
 30
0.0
 10
-39.193814
 20
214.481476
 30
0.0
 10
-32.972843
 20
218.097719
 30
0.0
 10
-26.435655
 20
221.188626
 30
0.0
 10
-23.340212
 20
222.737162
 30
0.0
 10
-23.185946
 20
221.709597
 30
0.0
 10
-24.796069
 20
219.271894
 30
0.0
 10
-26.993793
 20
216.590009
 30
0.0
 10
-41.659669
 20
200.756677
 30
0.0
 10
-55.868508
 20
184.350105
 30
0.0
 10
-68.124039
 20
166.650640
 30
0.0
 10
-76.929996
 20
146.938626
 30
0.0
 10
-78.612732
 20
139.251700
 30
0.0
 10
-78.458125
 20
131.350573
 30
0.0
 10
-75.978388
 20
124.071424
 30
0.0
 10
-70.685719
 20
118.250432
 30
0.0
 10
-61.500718
 20
114.400495
 30
0.0
 10
-51.732499
 20
114.644801
 30
0.0
 10
-42.032569
 20
117.596854
 30
0.0
 10
-33.052425
 20
121.870161
 30
0.0
 10
-23.310768
 20
127.377488
 30
0.0
 10
-13.608627
 20
133.006653
 30
0.0
 10
-4.220801
 20
139.099907
 30
0.0
 10
4.577912
 20
145.999495
 30
0.0
 10
12.397651
 20
155.511058
 30
0.0
 10
17.477546
 20
166.594066
 30
0.0
 10
20.422383
 20
178.576773
 30
0.0
 10
21.836944
 20
190.787431
 30
0.0
 10
25.476787
 20
192.645937
 30
0.0
 10
29.027865
 20
194.669042
 30
0.0
 10
32.482598
 20
196.852575
 30
0.0
 10
35.833403
 20
199.192361
 30
0.0
 10
38.314664
 20
190.415840
 30
0.0
 10
38.149953
 20
181.308602
 30
0.0
 10
36.675370
 20
172.118617
 30
0.0
 10
35.227017
 20
163.093853
 30
0.0
 10
33.317592
 20
154.903612
 30
0.0
 10
31.092493
 20
146.757053
 30
0.0
 10
28.508300
 20
138.743914
 30
0.0
 10
25.521591
 20
130.953926
 30
0.0
 10
24.309077
 20
130.337621
 30
0.0
 10
22.808510
 20
129.481452
 30
0.0
 10
21.979314
 20
128.562257
 30
0.0
 10
22.780911
 20
127.756873
 30
0.0
 10
23.973129
 20
128.338629
 30
0.0
 10
25.060011
 20
128.653680
 30
0.0
 10
26.115877
 20
128.676737
 30
0.0
 10
27.215050
 20
128.382526
 30
0.0
 10
33.998837
 20
131.162615
 30
0.0
 10
41.004394
 20
133.325075
 30
0.0
 10
48.105108
 20
135.132802
 30
0.0
 10
55.174363
 20
136.848702
 30
0.0
 10
56.097040
 20
138.140893
 30
0.0
 10
56.626591
 20
139.574638
 30
0.0
 10
57.364904
 20
140.777754
 30
0.0
 10
58.913878
 20
141.378061
 30
0.0
 10
65.953426
 20
144.371454
 30
0.0
 10
73.110355
 20
147.248585
 30
0.0
 10
80.147586
 20
150.266988
 30
0.0
 10
86.828037
 20
153.684194
 30
0.0
 10
87.436379
 20
156.894097
 30
0.0
 10
88.866602
 20
160.027808
 30
0.0
 10
90.552716
 20
163.128781
 30
0.0
 10
91.928738
 20
166.240470
 30
0.0
 10
94.980292
 20
172.553180
 30
0.0
 10
97.803736
 20
178.988687
 30
0.0
 10
100.117783
 20
185.588894
 30
0.0
 10
101.641134
 20
192.395705
 30
0.0
 10
103.649495
 20
196.049103
 30
0.0
 10
105.846795
 20
199.660966
 30
0.0
 10
108.746087
 20
202.189347
 30
0.0
 10
112.860430
 20
202.592292
 30
0.0
 10
116.594588
 20
200.690335
 30
0.0
 10
118.302490
 20
196.841379
 30
0.0
 10
118.897228
 20
192.197294
 30
0.0
 10
119.291899
 20
187.909949
 30
0.0
 10
117.868438
 20
174.969502
 30
0.0
 10
114.096902
 20
162.524455
 30
0.0
 10
109.330549
 20
150.303830
 30
0.0
 10
104.922647
 20
138.036654
 30
0.0
 10
99.469236
 20
122.252197
 30
0.0
 10
94.597209
 20
106.235092
 30
0.0
 10
91.297210
 20
89.918149
 30
0.0
 10
90.559890
 20
73.234182
 30
0.0
 10
91.955267
 20
70.564636
 30
0.0
 10
94.379373
 20
69.609370
 30
0.0
 10
97.161483
 20
70.076327
 30
0.0
 10
99.630882
 20
71.673445
 30
0.0
 10
109.535251
 20
77.264563
 30
0.0
 10
119.299976
 20
83.094620
 30
0.0
 10
128.540262
 20
89.644543
 30
0.0
 10
136.871309
 20
97.395274
 30
0.0
 10
143.241773
 20
105.044453
 30
0.0
 10
148.804082
 20
113.299351
 30
0.0
 10
153.818963
 20
121.926292
 30
0.0
 10
158.547139
 20
130.691589
 30
0.0
 10
157.409882
 20
127.710552
 30
0.0
 10
156.024828
 20
124.637700
 30
0.0
 10
154.967759
 20
121.562189
 30
0.0
 10
154.814456
 20
118.573176
 30
0.0
 10
159.080307
 20
119.675934
 30
0.0
 10
163.383934
 20
121.205810
 30
0.0
 10
167.733300
 20
122.746388
 30
0.0
 10
172.136364
 20
123.881248
 30
0.0
 10
176.002411
 20
124.763272
 30
0.0
 10
180.063081
 20
125.723615
 30
0.0
 10
183.258796
 20
127.660771
 30
0.0
 10
184.529973
 20
131.473235
 30
0.0
 10
186.276906
 20
137.702280
 30
0.0
 10
187.946973
 20
143.927092
 30
0.0
 10
189.997035
 20
150.006571
 30
0.0
 10
192.883954
 20
155.799619
 30
0.0
 10
194.757847
 20
159.343007
 30
0.0
 10
196.749453
 20
162.822053
 30
0.0
 10
198.873584
 20
166.220881
 30
0.0
 10
201.145061
 20
169.523606
 30
0.0
 10
203.347597
 20
158.866153
 30
0.0
 10
203.233311
 20
148.035858
 30
0.0
 10
202.270699
 20
137.148235
 30
0.0
 10
201.928256
 20
126.318807
 30
0.0
 10
203.835121
 20
116.598806
 30
0.0
 10
207.196560
 20
107.208107
 30
0.0
 10
212.112002
 20
98.598100
 30
0.0
 10
218.680877
 20
91.220173
 30
0.0
 10
223.044487
 20
90.441502
 30
0.0
 10
227.185742
 20
92.055734
 30
0.0
 10
231.222502
 20
94.597142
 30
0.0
 10
235.272625
 20
96.599997
 30
0.0
 10
242.384707
 20
100.122574
 30
0.0
 10
249.090101
 20
104.291580
 30
0.0
 10
255.236678
 20
109.216606
 30
0.0
 10
260.672303
 20
115.007242
 30
0.0
 10
261.825833
 20
113.632498
 30
0.0
 10
263.126237
 20
110.474104
 30
0.0
 10
265.114780
 20
107.360281
 30
0.0
 10
268.332735
 20
106.119257
 30
0.0
 10
274.877962
 20
107.573968
 30
0.0
 10
280.956221
 20
110.569351
 30
0.0
 10
286.844853
 20
114.151372
 30
0.0
 10
292.821162
 20
117.365999
 30
0.0
 10
298.949505
 20
120.932748
 30
0.0
 10
305.204876
 20
124.473012
 30
0.0
 10
311.339794
 20
128.048666
 30
0.0
 10
317.106893
 20
131.721593
 30
0.0
 10
317.394816
 20
132.119676
 30
0.0
 10
317.987793
 20
132.169624
 30
0.0
 10
318.677939
 20
132.433719
 30
0.0
 10
319.257454
 20
133.474247
 30
0.0
 10
319.257454
 20
134.222641
 30
0.0
 10
318.209620
 20
134.189556
 30
0.0
 10
316.896891
 20
134.289756
 30
0.0
 10
316.103395
 20
135.438003
 30
0.0
 10
313.431767
 20
136.239519
 30
0.0
 10
310.733214
 20
135.041576
 30
0.0
 10
308.038331
 20
133.126704
 30
0.0
 10
305.377765
 20
131.777428
 30
0.0
 10
302.095944
 20
130.038581
 30
0.0
 10
298.852223
 20
128.069872
 30
0.0
 10
295.543930
 20
126.342373
 30
0.0
 10
292.068419
 20
125.327157
 30
0.0
 10
289.480526
 20
130.899931
 30
0.0
 10
288.628836
 20
137.101138
 30
0.0
 10
288.637585
 20
143.535675
 30
0.0
 10
288.630812
 20
149.808437
 30
0.0
 10
288.925931
 20
158.324210
 30
0.0
 10
289.224918
 20
166.823067
 30
0.0
 10
289.883794
 20
175.280510
 30
0.0
 10
291.258611
 20
183.672052
 30
0.0
 10
291.986631
 20
185.074338
 30
0.0
 10
292.948191
 20
186.757870
 30
0.0
 10
293.143517
 20
187.987984
 30
0.0
 10
291.572865
 20
188.030018
 30
0.0
 10
284.465324
 20
184.831557
 30
0.0
 10
277.109722
 20
182.222776
 30
0.0
 10
269.643039
 20
179.966418
 30
0.0
 10
262.202247
 20
177.825221
 30
0.0
 10
260.754052
 20
173.635144
 30
0.0
 10
260.792527
 20
169.069302
 30
0.0
 10
261.331450
 20
164.380998
 30
0.0
 10
261.384590
 20
159.823524
 30
0.0
 10
258.496446
 20
147.380270
 30
0.0
 10
253.899774
 20
135.416590
 30
0.0
 10
247.834187
 20
124.130597
 30
0.0
 10
240.539298
 20
113.720413
 30
0.0
 10
234.516481
 20
122.671486
 30
0.0
 10
231.481478
 20
132.950053
 30
0.0
 10
230.755035
 20
143.837026
 30
0.0
 10
231.657906
 20
154.613309
 30
0.0
 10
231.845039
 20
163.157514
 30
0.0
 10
231.664804
 20
171.796709
 30
0.0
 10
230.485496
 20
180.261727
 30
0.0
 10
227.675406
 20
188.283408
 30
0.0
 10
224.479141
 20
191.532703
 30
0.0
 10
220.388358
 20
192.675715
 30
0.0
 10
216.072652
 20
191.970743
 30
0.0
 10
212.201622
 20
189.676099
 30
0.0
 10
206.027717
 20
186.492180
 30
0.0
 10
199.878312
 20
183.248578
 30
0.0
 10
193.878248
 20
179.754870
 30
0.0
 10
188.152357
 20
175.820627
 30
0.0
 10
188.041791
 20
179.525389
 30
0.0
 10
187.833689
 20
183.369160
 30
0.0
 10
187.049664
 20
187.000048
 30
0.0
 10
185.211319
 20
190.066161
 30
0.0
 10
177.668414
 20
186.838896
 30
0.0
 10
170.325082
 20
183.059704
 30
0.0
 10
163.063880
 20
179.070221
 30
0.0
 10
155.767363
 20
175.212094
 30
0.0
 10
148.353055
 20
157.842344
 30
0.0
 10
141.196373
 20
140.330824
 30
0.0
 10
133.331461
 20
123.167954
 30
0.0
 10
123.792448
 20
106.844153
 30
0.0
 10
122.441121
 20
104.819449
 30
0.0
 10
120.844451
 20
102.237809
 30
0.0
 10
119.671883
 20
100.958451
 30
0.0
 10
119.592860
 20
102.840594
 30
0.0
 10
123.799394
 20
124.265677
 30
0.0
 10
130.562313
 20
145.022267
 30
0.0
 10
138.328301
 20
165.506263
 30
0.0
 10
145.544043
 20
186.113568
 30
0.0
 10
147.047492
 20
194.602908
 30
0.0
 10
147.608318
 20
203.356587
 30
0.0
 10
146.539684
 20
211.901296
 30
0.0
 10
143.154758
 20
219.763728
 30
0.0
 10
137.778284
 20
222.102887
 30
0.0
 10
131.862658
 20
222.045283
 30
0.0
 10
125.844196
 20
220.667824
 30
0.0
 10
120.159204
 20
219.047408
 30
0.0
 10
114.873594
 20
216.171832
 30
0.0
 10
109.638530
 20
213.192883
 30
0.0
 10
104.401803
 20
210.212476
 30
0.0
 10
99.111198
 20
207.332522
 30
0.0
 10
97.579109
 20
211.757428
 30
0.0
 10
95.699233
 20
216.312909
 30
0.0
 10
93.005182
 20
220.146303
 30
0.0
 10
89.030573
 20
222.404947
 30
0.0
 10
83.217154
 20
219.780475
 30
0.0
 10
77.295880
 20
217.384194
 30
0.0
 10
71.449785
 20
214.837023
 30
0.0
 10
65.861892
 20
211.759878
 30
0.0
 10
63.912998
 20
216.532806
 30
0.0
 10
60.196380
 20
219.812916
 30
0.0
 10
55.467899
 20
221.061772
 30
0.0
 10
50.483414
 20
219.740944
 30
0.0
 10
44.530574
 20
216.374025
 30
0.0
 10
38.506132
 20
213.051312
 30
0.0
 10
32.449014
 20
209.850105
 30
0.0
 10
26.398147
 20
206.847704
 30
0.0
 10
24.053292
 20
209.698081
 30
0.0
 10
22.839937
 20
213.029626
 30
0.0
 10
22.364822
 20
216.640349
 30
0.0
 10
22.234690
 20
220.328249
 30
0.0
 10
20.979897
 20
228.132715
 30
0.0
 10
19.059807
 20
235.883923
 30
0.0
 10
16.191656
 20
243.278362
 30
0.0
 10
12.092681
 20
250.012526
 30
0.0
 10
11.414438
 20
250.504592
 30
0.0
 10
10.658960
 20
250.870230
 30
0.0
 10
9.850286
 20
251.081993
 30
0.0
 10
9.013472
 20
251.112431
 30
0.0
  0
LWPOLYLINE
  5
101
100
AcDbEntity
  8
Layer_1
 62
7
100
AcDbPolyline
 90
25
 70
1
 10
282.460361
 20
235.255069
 30
0.0
 10
278.402409
 20
234.170467
 30
0.0
 10
274.945780
 20
231.671189
 30
0.0
 10
271.505223
 20
229.007177
 30
0.0
 10
267.495491
 20
227.428359
 30
0.0
 10
261.320376
 20
224.759499
 30
0.0
 10
255.051108
 20
222.185564
 30
0.0
 10
248.864851
 20
219.531081
 30
0.0
 10
242.938763
 20
216.620580
 30
0.0
 10
240.855215
 20
213.064707
 30
0.0
 10
240.471683
 20
209.196137
 30
0.0
 10
241.719964
 20
205.491888
 30
0.0
 10
244.531854
 20
202.428976
 30
0.0
 10
248.713425
 20
199.296216
 30
0.0
 10
253.564534
 20
197.387369
 30
0.0
 10
258.600002
 20
197.263920
 30
0.0
 10
263.334655
 20
199.487354
 30
0.0
 10
271.234620
 20
202.746434
 30
0.0
 10
279.013883
 20
206.762786
 30
0.0
 10
285.280552
 20
212.324062
 30
0.0
 10
288.642778
 20
220.217919
 30
0.0
 10
290.111321
 20
225.060661
 30
0.0
 10
289.820717
 20
229.887409
 30
0.0
 10
287.395553
 20
233.638698
 30
0.0
 10
282.460361
 20
235.255069
 30
0.0
  0
LWPOLYLINE
  5
102
100
AcDbEntity
  8
Layer_1
 62
7
100
AcDbPolyline
 90
25
 70
1
 10
-12.294306
 20
211.327917
 30
0.0
 10
-10.447240
 20
207.022761
 30
0.0
 10
-8.216062
 20
202.838455
 30
0.0
 10
-6.144731
 20
198.644133
 30
0.0
 10
-4.777208
 20
194.308940
 30
0.0
 10
-5.689735
 20
179.197267
 30
0.0
 10
-7.932118
 20
164.029857
 30
0.0
 10
-12.890125
 20
149.850220
 30
0.0
 10
-21.949529
 20
137.701860
 30
0.0
 10
-30.078821
 20
133.222826
 30
0.0
 10
-39.413553
 20
134.159025
 30
0.0
 10
-46.983009
 20
139.545442
 30
0.0
 10
-49.816481
 20
148.417067
 30
0.0
 10
-47.584179
 20
161.649121
 30
0.0
 10
-42.288598
 20
173.967426
 30
0.0
 10
-35.052358
 20
185.452781
 30
0.0
 10
-26.998086
 20
196.185992
 30
0.0
 10
-23.453523
 20
200.265009
 30
0.0
 10
-19.780368
 20
204.546591
 30
0.0
 10
-16.095939
 20
208.559859
 30
0.0
 10
-12.517552
 20
211.833924
 30
0.0
 10
-12.461742
 20
211.707421
 30
0.0
 10
-12.405933
 20
211.580918
 30
0.0
 10
-12.350123
 20
211.454414
 30
0.0
 10
-12.294306
 20
211.327917
 30
0.0
  0
LWPOLYLINE
  5
103
100
AcDbEntity
  8
Layer_1
 62
7
100
AcDbPolyline
 90
13
 70
1
 10
72.248889
 20
184.878403
 30
0.0
 10
72.293635
 20
178.677978
 30
0.0
 10
70.289894
 20
172.850202
 30
0.0
 10
67.460667
 20
167.174400
 30
0.0
 10
65.028950
 20
161.429888
 30
0.0
 10
62.983601
 20
156.733301
 30
0.0
 10
60.934038
 20
152.038520
 30
0.0
 10
58.867384
 20
147.351291
 30
0.0
 10
56.770767
 20
142.677361
 30
0.0
 10
59.475029
 20
153.636806
 30
0.0
 10
63.343556
 20
164.477809
 30
0.0
 10
67.795219
 20
174.968847
 30
0.0
 10
72.248889
 20
184.878403
 30
0.0
  0
ENDSEC
  0
SECTION
  2
OBJECTS
  0
DICTIONARY
  5
C
330
0
100
AcDbDictionary
  3
ACAD_GROUP
350
D
  3
ACAD_MLINESTYLE
350
17
  0
DICTIONARY
  5
D
330
C
100
AcDbDictionary
  0
DICTIONARY
  5
1A
330
C
100
AcDbDictionary
  0
DICTIONARY
  5
17
330
C
100
AcDbDictionary
  3
STANDARD
350
18
  0
DICTIONARY
  5
19
330
C
100
AcDbDictionary
  0
ENDSEC
  0
EOF
