<?xml version="1.0" encoding="UTF-8" standalone="no"?>
<!-- Created with Inkscape (http://www.inkscape.org/) -->

<svg
   xmlns:dc="http://purl.org/dc/elements/1.1/"
   xmlns:cc="http://creativecommons.org/ns#"
   xmlns:rdf="http://www.w3.org/1999/02/22-rdf-syntax-ns#"
   xmlns:svg="http://www.w3.org/2000/svg"
   xmlns="http://www.w3.org/2000/svg"
   xmlns:sodipodi="http://sodipodi.sourceforge.net/DTD/sodipodi-0.dtd"
   xmlns:inkscape="http://www.inkscape.org/namespaces/inkscape"
   width="744.09448819"
   height="1052.3622047"
   id="svg3783"
   version="1.1"
   inkscape:version="0.48.5 r10040"
   sodipodi:docname="omni.dxf">
  <defs
     id="defs3785" />
  <sodipodi:namedview
     id="base"
     pagecolor="#ffffff"
     bordercolor="#666666"
     borderopacity="1.0"
     inkscape:pageopacity="0.0"
     inkscape:pageshadow="2"
     inkscape:zoom="0.5"
     inkscape:cx="309.56901"
     inkscape:cy="509.63911"
     inkscape:document-units="px"
     inkscape:current-layer="layer1"
     showgrid="false"
     inkscape:window-width="1280"
     inkscape:window-height="784"
     inkscape:window-x="0"
     inkscape:window-y="0"
     inkscape:window-maximized="0"
     showguides="true"
     inkscape:guide-bbox="true" />
  <metadata
     id="metadata3788">
    <rdf:RDF>
      <cc:Work
         rdf:about="">
        <dc:format>image/svg+xml</dc:format>
        <dc:type
           rdf:resource="http://purl.org/dc/dcmitype/StillImage" />
        <dc:title></dc:title>
      </cc:Work>
    </rdf:RDF>
  </metadata>
  <g
     inkscape:label="Layer 1"
     inkscape:groupmode="layer"
     id="layer1">
    <path
       style="font-size:medium;font-style:normal;font-variant:normal;font-weight:normal;font-stretch:normal;text-indent:0;text-align:start;text-decoration:none;line-height:normal;letter-spacing:normal;word-spacing:normal;text-transform:none;direction:ltr;block-progression:tb;writing-mode:lr-tb;text-anchor:start;baseline-shift:baseline;color:#000000;fill-opacity:1;fill-rule:nonzero;stroke:none;stroke-width:1;marker:none;visibility:visible;display:inline;overflow:visible;enable-background:accumulate;font-family:Sans;-inkscape-font-specification:Sans"
       d="m 32.78125,162.5625 -23.351449,11.58889 -21.138546,15.83015 -20.94306,16.43054 -22.764991,13.39007 -59.959434,31.05306 -58.99853,33.01322 -56.5691,36.74228 -52.67112,42.24023 -4.84039,3.92286 1.29267,2.50406 4.55621,0.38255 4.95024,-2.44166 25.13837,-10.22448 25.41066,-9.78054 25.15958,-10.19209 24.38514,-11.45914 17.70004,-17.46965 19.67189,-14.8787 21.25935,-12.59514 L -96.46875,270 l 11.63578,-6.12319 2.985587,1.61979 -3.694687,7.07662 -8.405045,10.24731 -51.562535,55.90629 -50.19924,57.66588 -43.66913,62.04823 -31.97216,69.05335 -6.74356,28.16896 -0.17845,29.15249 8.50291,26.96195 19.30048,21.59732 32.5493,13.6279 34.60934,-0.86308 34.3652,-10.45271 31.81691,-15.14099 34.521777,-19.51685 34.38242,-19.94804 33.26701,-21.59431 L 16.2187,535.0313 43.929724,501.33443 61.92893,462.06549 72.362095,419.60757 77.375,376.34375 l 12.898832,-6.58195 12.581468,-7.17052 12.23976,-7.73959 11.87369,-8.28919 8.79038,31.09741 -0.58407,32.26833 -5.22141,32.5619 -5.12164,31.97814 -6.77611,29.01739 -7.88335,28.86563 -9.15224,28.39299 -10.58281,27.59946 -4.297453,2.19111 -5.319056,3.03164 -2.940489,3.25621 2.838248,2.86479 4.222745,-2.06367 3.851772,-1.12164 3.744201,-0.0837 3.900032,1.05032 24.03074,-9.86123 24.82376,-7.6564 25.16214,-6.39758 8.04586,-6.83479 5.24381,-11.15539 1.48063,-12.61139 1.11061,-12.96238 4.13377,-12.20834 10.42062,-31.20076 14.90482,-44.53891 18.60975,-31.73296 27.22169,-24.55983 5.61392,26.38822 -3.55223,22.12523 -8.63055,23.70705 -8.65044,20.40576 -7.8219,18.52736 -8.90033,18.92273 -7.55484,18.68205 -3.78543,17.80536 26.45035,-11.45832 10.98355,-8.88446 26.59469,-11.33811 25.28376,-12.81926 2.15124,-11.37038 5.07995,-11.09974 5.97998,-10.98968 4.85133,-11.0402 10.82379,-22.36 10.0048,-22.79811 8.19988,-23.38312 5.40903,-24.11502 7.10456,-12.95633 7.78491,-12.79908 10.27767,-8.96046 14.58286,-1.44043 13.22774,6.76007 6.0477,13.63529 2.10529,16.44543 1.40052,15.19046 -5.04967,45.85127 -13.36067,44.09933 -16.88353,43.30472 -15.61826,43.46739 -19.32866,55.92917 -17.25965,56.75537 -11.6906,57.81835 -2.62151,59.11815 4.95774,9.45872 8.58797,3.38113 9.85418,-1.656 8.75636,-5.65265 35.0902,-19.81824 34.60908,-20.64273 32.74381,-23.2013 29.49441,-27.49398 22.58408,-27.09257 19.71237,-29.24684 17.76728,-30.56933 16.74877,-31.06001 -4.02506,10.56402 -4.91378,10.88846 -3.74903,10.8966 -0.53083,10.58842 15.10955,-3.9074 15.24629,-5.41622 15.40871,-5.45385 15.59685,-4.0203 13.70347,-3.1289 14.39373,-3.40639 11.32509,-6.869 4.49756,-13.51669 6.19388,-22.06914 5.919,-22.05311 7.26328,-21.53903 10.22673,-20.52694 6.64552,-12.55081 7.05565,-12.32746 7.52309,-12.04439 8.04785,-11.70162 7.80545,37.7654 -0.40857,38.37659 -3.41171,38.57903 -1.20397,38.37273 6.74955,34.44245 11.91248,33.26881 17.4174,30.50692 23.26432,26.15682 15.47152,2.74063 14.67455,-5.72364 14.30463,-8.99777 14.3618,-7.08172 25.1974,-12.49635 23.75787,-14.77981 21.78024,-17.45423 19.26449,-20.51961 4.07877,4.89183 4.60558,11.1925 7.04466,11.02535 11.39599,4.39032 23.19408,-5.14647 21.54013,-10.61371 20.86829,-12.69524 21.1784,-11.39103 21.7105,-12.64388 22.1701,-12.54743 21.7377,-12.66985 20.4133,-13.01114 1.0329,-1.40484 2.0985,-0.17358 2.4389,-0.93123 2.0542,-3.6778 0.016,-2.66448 -3.7065,0.11406 -4.6502,-0.35288 -2.8153,-4.0653 -9.466,-2.84866 -9.5615,4.24312 -9.5477,6.78806 -9.4248,4.78618 -11.6307,6.15488 -11.4949,6.97499 -11.7212,6.12102 -12.3095,3.59296 -9.1787,-19.73373 -3.0248,-21.97735 0.03,-22.80932 -0.014,-22.2296 1.0326,-30.16918 1.0574,-30.10966 2.3406,-29.96242 4.8823,-29.72749 2.5729,-4.97561 3.4036,-5.96961 0.6887,-4.35637 -5.5716,-0.13591 -25.1872,11.32705 -26.06226,9.23986 -26.45316,7.99546 -26.35983,7.59388 -5.12838,14.84645 0.13811,16.17694 1.90668,16.61055 0.17734,16.14731 -10.21483,44.08885 -16.29093,42.39051 -21.49899,39.98678 -25.839,36.87766 -21.34721,-31.70384 -10.75007,-36.42268 -2.57238,-38.58345 3.18587,-38.18614 0.70515,-29.521 -0.61171,-29.7955 -3.77185,-29.3117 -8.7753,-28.06964 -10.18407,-12.10965 -13.97806,-5.76688 -15.1567,0.83384 -13.71999,7.69254 -22.71748,11.768 -22.67697,11.89601 -22.14192,12.79216 -21.11231,14.45648 -0.37909,-13.14982 -0.74485,-13.6175 -2.79226,-12.85103 -6.52135,-10.8504 -26.71973,11.43798 -26.01645,13.38798 -25.72649,14.13124 -25.84983,13.66775 -26.2766,61.54638 -25.35698,62.05272 -27.86832,60.81566 -33.8106,57.83524 -4.77459,7.17364 -5.65289,9.1428 -4.15699,4.53495 -0.28692,-6.64989 14.90961,-75.91868 23.95973,-73.55246 27.51634,-72.58601 25.57946,-73.0193 5.31877,-30.08444 1.98312,-31.01646 -3.78501,-30.27851 -11.98563,-27.87059 -19.06272,-8.27415 -20.96432,0.20881 -21.3258,4.88208 -20.14716,5.74566 -18.72104,10.19307 -18.54754,10.54847 -18.55388,10.55269 -18.74004,10.20577 -5.42854,-15.67887 -6.66119,-16.14166 -9.54601,-13.58297 -14.08301,-8.0028 -20.59738,9.30352 -20.98346,8.4858 -20.71647,9.02083 -19.79644,10.9086 -6.91183,-16.91095 -13.17002,-11.62331 -16.75409,-4.42649 -17.66406,4.67945 -21.09184,11.93196 -21.34427,11.77606 -21.46214,11.34391 -21.4455,10.63552 -8.301487,-10.1054 L 80.936811,297.52905 79.255107,284.73977 78.786964,271.67479 74.345667,244.02084 67.543294,216.55247 57.376953,190.35157 42.84375,166.5 l -2.213931,-1.64323 -2.462525,-1.25553 -2.639922,-0.79053 z m 968.06255,56.21875 -14.37834,3.84097 -12.2478,8.8558 -12.19256,9.4371 -14.2126,5.58488 -21.88561,9.45831 -22.19489,9.14066 -21.90464,9.4193 -21.01486,10.29423 -7.38515,12.595 -1.36094,13.70364 4.41835,13.12464 9.95269,10.85797 14.8199,11.09599 17.18686,6.767 17.84096,0.44627 16.78222,-7.8662 27.99018,-11.56144 27.56767,-14.23411 22.20936,-19.7049 11.9154,-27.97376 5.2049,-17.15942 -1.0298,-17.10007 -8.5939,-13.29066 z M -44.96875,300.375 l 6.676423,15.31866 7.549619,15.02911 7.465401,14.94785 6.423768,15.07487 -3.039614,53.5593 -7.513007,53.79873 -16.898312,50.51147 L -75.5,562.3125 l -28.81566,17.51224 -33.89201,-2.37368 -27.78818,-18.90389 -10.50415,-32.07842 7.89593,-46.88125 18.76223,-43.64443 25.64225,-40.69312 28.536012,-38.02735 12.352334,-14.49368 12.653429,-14.23188 12.824254,-14.081 z"
       id="path3817"
       inkscape:connector-curvature="0"
       sodipodi:nodetypes="ccccccccccccccccccccccccccccccccccccccccccccccccccccccccccccccccccccccccccccccccccccccccccccccccccccccccccccccccccccccccccccccccccccccccccccccccccccccccccccccccccccccccccccccccccccccccccccccccccccccccccccccccccccccccccccccccccccccccccccccccccccccccccccccccccccccccccccccccccccccccccccccccccccccccccccccccccccccccccccccccccccccccccccccc" />
  </g>
</svg>
