  0
SECTION
  2
HEADER
  9
$ACADVER
  1
AC1014
  9
$HANDSEED
  5
FFFF
  9
$MEASUREMENT
 70
     1
  0
ENDSEC
  0
SECTION
  2
TABLES
  0
TABLE
  2
VPORT
  5
8
330
0
100
AcDbSymbolTable
 70
     4
  0
VPORT
  5
2E
330
8
100
AcDbSymbolTableRecord
100
AcDbViewportTableRecord
  2
*ACTIVE
 70
     0
 10
0.0
 20
0.0
 11
1.0
 21
1.0
 12
210.0
 22
148.5
 13
0.0
 23
0.0
 14
10.0
 24
10.0
 15
10.0
 25
10.0
 16
0.0
 26
0.0
 36
1.0
 17
0.0
 27
0.0
 37
0.0
 40
341.0
 41
1.24
 42
50.0
 43
0.0
 44
0.0
 50
0.0
 51
0.0
 71
     0
 72
   100
 73
     1
 74
     3
 75
     0
 76
     0
 77
     0
 78
     0
  0
ENDTAB
  0
TABLE
  2
LTYPE
  5
5
330
0
100
AcDbSymbolTable
 70
     1
  0
LTYPE
  5
14
330
5
100
AcDbSymbolTableRecord
100
AcDbLinetypeTableRecord
  2
BYBLOCK
 70
     0
  3

 72
    65
 73
     0
 40
0.0
  0
LTYPE
  5
15
330
5
100
AcDbSymbolTableRecord
100
AcDbLinetypeTableRecord
  2
BYLAYER
 70
     0
  3

 72
    65
 73
     0
 40
0.0
  0
LTYPE
  5
16
330
5
100
AcDbSymbolTableRecord
100
AcDbLinetypeTableRecord
  2
CONTINUOUS
 70
     0
  3
Solid line
 72
    65
 73
     0
 40
0.0
  0
ENDTAB
  0
TABLE
  2
LAYER
  5
2
100
AcDbSymbolTable
 70
2
  0
LAYER
  5
50
100
AcDbSymbolTableRecord
100
AcDbLayerTableRecord
  2
0
 70
0
  6
CONTINUOUS
  0
LAYER
  5
51
100
AcDbSymbolTableRecord
100
AcDbLayerTableRecord
  2
Layer_1
 70
0
  6
CONTINUOUS
  0
ENDTAB
  0
TABLE
  2
STYLE
  5
3
330
0
100
AcDbSymbolTable
 70
     1
  0
STYLE
  5
11
330
3
100
AcDbSymbolTableRecord
100
AcDbTextStyleTableRecord
  2
STANDARD
 70
     0
 40
0.0
 41
1.0
 50
0.0
 71
     0
 42
2.5
  3
txt
  4

  0
ENDTAB
  0
TABLE
  2
VIEW
  5
6
330
0
100
AcDbSymbolTable
 70
     0
  0
ENDTAB
  0
TABLE
  2
UCS
  5
7
330
0
100
AcDbSymbolTable
 70
     0
  0
ENDTAB
  0
TABLE
  2
APPID
  5
9
330
0
100
AcDbSymbolTable
 70
     2
  0
APPID
  5
12
330
9
100
AcDbSymbolTableRecord
100
AcDbRegAppTableRecord
  2
ACAD
 70
     0
  0
ENDTAB
  0
TABLE
  2
DIMSTYLE
  5
A
330
0
100
AcDbSymbolTable
 70
     1
  0
DIMSTYLE
105
27
330
A
100
AcDbSymbolTableRecord
100
AcDbDimStyleTableRecord
  2
ISO-25
 70
     0
  3

  4

  5

  6

  7

 40
1.0
 41
2.5
 42
0.625
 43
3.75
 44
1.25
 45
0.0
 46
0.0
 47
0.0
 48
0.0
140
2.5
141
2.5
142
0.0
143
0.03937007874016
144
1.0
145
0.0
146
1.0
147
0.625
 71
     0
 72
     0
 73
     0
 74
     0
 75
     0
 76
     0
 77
     1
 78
     8
170
     0
171
     3
172
     1
173
     0
174
     0
175
     0
176
     0
177
     0
178
     0
270
     2
271
     2
272
     2
273
     2
274
     3
340
11
275
     0
280
     0
281
     0
282
     0
283
     0
284
     8
285
     0
286
     0
287
     3
288
     0
  0
ENDTAB
  0
TABLE
  2
BLOCK_RECORD
  5
1
330
0
100
AcDbSymbolTable
 70
     1
  0
BLOCK_RECORD
  5
1F
330
1
100
AcDbSymbolTableRecord
100
AcDbBlockTableRecord
  2
*MODEL_SPACE
  0
BLOCK_RECORD
  5
1B
330
1
100
AcDbSymbolTableRecord
100
AcDbBlockTableRecord
  2
*PAPER_SPACE
  0
ENDTAB
  0
ENDSEC
  0
SECTION
  2
BLOCKS
  0
BLOCK
  5
20
330
1F
100
AcDbEntity
  8
0
100
AcDbBlockBegin
  2
*MODEL_SPACE
 70
     0
 10
0.0
 20
0.0
 30
0.0
  3
*MODEL_SPACE
  1

  0
ENDBLK
  5
21
330
1F
100
AcDbEntity
  8
0
100
AcDbBlockEnd
  0
BLOCK
  5
1C
330
1B
100
AcDbEntity
 67
     1
  8
0
100
AcDbBlockBegin
  2
*PAPER_SPACE
  1

  0
ENDBLK
  5
1D
330
1B
100
AcDbEntity
 67
     1
  8
0
100
AcDbBlockEnd
  0
ENDSEC
  0
SECTION
  2
ENTITIES
  0
LWPOLYLINE
  5
100
100
AcDbEntity
  8
Layer_1
 62
7
100
AcDbPolyline
 90
289
 70
1
 10
9.251597
 20
251.121250
 30
0.0
 10
2.661299
 20
247.850608
 30
0.0
 10
-3.304468
 20
243.382988
 30
0.0
 10
-9.215065
 20
238.745924
 30
0.0
 10
-15.639851
 20
234.966949
 30
0.0
 10
-32.561736
 20
226.203085
 30
0.0
 10
-49.212432
 20
216.886021
 30
0.0
 10
-65.177489
 20
206.516533
 30
0.0
 10
-80.042450
 20
194.595401
 30
0.0
 10
-81.408516
 20
193.488283
 30
0.0
 10
-81.043695
 20
192.781582
 30
0.0
 10
-79.757832
 20
192.673618
 30
0.0
 10
-78.360764
 20
193.362708
 30
0.0
 10
-71.266157
 20
196.248284
 30
0.0
 10
-64.094704
 20
199.008570
 30
0.0
 10
-56.994112
 20
201.885004
 30
0.0
 10
-50.112083
 20
205.119028
 30
0.0
 10
-45.116739
 20
210.049351
 30
0.0
 10
-39.564894
 20
214.248451
 30
0.0
 10
-33.565033
 20
217.803079
 30
0.0
 10
-27.225625
 20
220.800000
 30
0.0
 10
-23.941749
 20
222.528100
 30
0.0
 10
-23.099150
 20
222.070960
 30
0.0
 10
-24.141873
 20
220.073780
 30
0.0
 10
-26.513964
 20
217.181762
 30
0.0
 10
-41.066057
 20
201.403764
 30
0.0
 10
-55.233398
 20
185.129171
 30
0.0
 10
-67.557797
 20
167.617782
 30
0.0
 10
-76.581051
 20
148.129392
 30
0.0
 10
-78.484233
 20
140.179486
 30
0.0
 10
-78.534596
 20
131.952005
 30
0.0
 10
-76.134886
 20
124.342744
 30
0.0
 10
-70.687861
 20
118.247500
 30
0.0
 10
-61.501726
 20
114.401404
 30
0.0
 10
-51.734201
 20
114.644984
 30
0.0
 10
-42.035578
 20
117.594971
 30
0.0
 10
-33.056139
 20
121.868095
 30
0.0
 10
-23.313326
 20
127.376184
 30
0.0
 10
-13.609843
 20
133.005964
 30
0.0
 10
-4.221153
 20
139.100358
 30
0.0
 10
4.577278
 20
146.002278
 30
0.0
 10
12.397944
 20
155.512283
 30
0.0
 10
17.477720
 20
166.594851
 30
0.0
 10
20.422191
 20
178.577419
 30
0.0
 10
21.836944
 20
190.787431
 30
0.0
 10
25.477281
 20
192.645003
 30
0.0
 10
29.028051
 20
194.668683
 30
0.0
 10
32.482384
 20
196.852967
 30
0.0
 10
35.833403
 20
199.192361
 30
0.0
 10
38.314243
 20
190.415981
 30
0.0
 10
38.149406
 20
181.309141
 30
0.0
 10
36.675808
 20
172.119449
 30
0.0
 10
35.230367
 20
163.094508
 30
0.0
 10
33.317998
 20
154.905155
 30
0.0
 10
31.093142
 20
146.758633
 30
0.0
 10
28.510176
 20
138.745500
 30
0.0
 10
25.523472
 20
130.956319
 30
0.0
 10
24.310635
 20
130.337940
 30
0.0
 10
22.809480
 20
129.482343
 30
0.0
 10
21.979608
 20
128.563369
 30
0.0
 10
22.780625
 20
127.754861
 30
0.0
 10
23.972377
 20
128.337275
 30
0.0
 10
25.059433
 20
128.653826
 30
0.0
 10
26.116130
 20
128.677448
 30
0.0
 10
27.216806
 20
128.381025
 30
0.0
 10
33.998814
 20
131.164083
 30
0.0
 10
41.004631
 20
133.324889
 30
0.0
 10
48.105946
 20
135.130428
 30
0.0
 10
50.376667
 20
137.059358
 30
0.0
 10
51.856586
 20
140.207657
 30
0.0
 10
52.274453
 20
143.766872
 30
0.0
 10
52.587892
 20
147.425143
 30
0.0
 10
53.754534
 20
150.870608
 30
0.0
 10
56.695464
 20
159.676156
 30
0.0
 10
60.901936
 20
172.246026
 30
0.0
 10
66.154021
 20
181.201773
 30
0.0
 10
73.836586
 20
188.133102
 30
0.0
 10
75.420959
 20
180.685760
 30
0.0
 10
74.418441
 20
174.441529
 30
0.0
 10
71.982708
 20
167.750872
 30
0.0
 10
69.541362
 20
161.991913
 30
0.0
 10
67.333848
 20
156.763081
 30
0.0
 10
64.821977
 20
151.422666
 30
0.0
 10
62.689833
 20
146.150176
 30
0.0
 10
61.621501
 20
141.125108
 30
0.0
 10
69.086377
 20
144.358900
 30
0.0
 10
72.186179
 20
146.866292
 30
0.0
 10
79.691792
 20
150.066159
 30
0.0
 10
86.827431
 20
153.684039
 30
0.0
 10
87.434558
 20
156.893013
 30
0.0
 10
88.868233
 20
160.025606
 30
0.0
 10
90.555916
 20
163.127138
 30
0.0
 10
91.925069
 20
166.242928
 30
0.0
 10
94.979784
 20
172.553417
 30
0.0
 10
97.803360
 20
178.987550
 30
0.0
 10
100.117549
 20
185.586786
 30
0.0
 10
101.644097
 20
192.392581
 30
0.0
 10
103.649162
 20
196.049145
 30
0.0
 10
105.846237
 20
199.661330
 30
0.0
 10
108.746823
 20
202.190171
 30
0.0
 10
112.862431
 20
202.596692
 30
0.0
 10
116.595593
 20
200.688850
 30
0.0
 10
118.302388
 20
196.840668
 30
0.0
 10
118.896548
 20
192.199402
 30
0.0
 10
119.291806
 20
187.912317
 30
0.0
 10
117.866676
 20
174.972070
 30
0.0
 10
114.095998
 20
162.526259
 30
0.0
 10
109.331091
 20
150.304705
 30
0.0
 10
104.923271
 20
138.037241
 30
0.0
 10
99.468294
 20
122.252786
 30
0.0
 10
94.597237
 20
106.235160
 30
0.0
 10
91.297890
 20
89.917537
 30
0.0
 10
90.558041
 20
73.233081
 30
0.0
 10
91.957226
 20
70.563620
 30
0.0
 10
94.380942
 20
69.609390
 30
0.0
 10
97.162010
 20
70.076750
 30
0.0
 10
99.633250
 20
71.672053
 30
0.0
 10
109.536484
 20
77.265201
 30
0.0
 10
119.303935
 20
83.091038
 30
0.0
 10
128.544966
 20
89.638961
 30
0.0
 10
136.868944
 20
97.398373
 30
0.0
 10
143.242673
 20
105.044498
 30
0.0
 10
148.805942
 20
113.298606
 30
0.0
 10
153.820264
 20
121.925951
 30
0.0
 10
158.547139
 20
130.691776
 30
0.0
 10
157.411177
 20
127.710374
 30
0.0
 10
156.024399
 20
124.637409
 30
0.0
 10
154.966340
 20
121.562146
 30
0.0
 10
154.816528
 20
118.573859
 30
0.0
 10
159.080779
 20
119.676614
 30
0.0
 10
163.383620
 20
121.205192
 30
0.0
 10
167.732301
 20
122.744389
 30
0.0
 10
172.134078
 20
123.879007
 30
0.0
 10
176.001502
 20
124.762052
 30
0.0
 10
180.063733
 20
125.723411
 30
0.0
 10
183.259925
 20
127.661996
 30
0.0
 10
184.529236
 20
131.476706
 30
0.0
 10
186.277287
 20
137.705108
 30
0.0
 10
187.947760
 20
143.928986
 30
0.0
 10
189.997619
 20
150.007779
 30
0.0
 10
192.883830
 20
155.800937
 30
0.0
 10
194.759343
 20
159.343055
 30
0.0
 10
196.750604
 20
162.822138
 30
0.0
 10
198.873787
 20
166.221332
 30
0.0
 10
201.145069
 20
169.523790
 30
0.0
 10
203.347941
 20
158.865554
 30
0.0
 10
203.232633
 20
148.034828
 30
0.0
 10
202.269773
 20
137.146968
 30
0.0
 10
201.929986
 20
126.317331
 30
0.0
 10
203.834859
 20
116.596906
 30
0.0
 10
207.196825
 20
107.207709
 30
0.0
 10
212.112403
 20
98.597978
 30
0.0
 10
218.678111
 20
91.215942
 30
0.0
 10
223.044518
 20
90.442476
 30
0.0
 10
227.186002
 20
92.057814
 30
0.0
 10
231.223086
 20
94.597185
 30
0.0
 10
235.276305
 20
96.595803
 30
0.0
 10
242.387572
 20
100.122551
 30
0.0
 10
249.092570
 20
104.293742
 30
0.0
 10
255.239438
 20
109.219713
 30
0.0
 10
260.676305
 20
115.010803
 30
0.0
 10
261.827425
 20
113.630220
 30
0.0
 10
263.127222
 20
110.471448
 30
0.0
 10
265.115381
 20
107.359849
 30
0.0
 10
268.331583
 20
106.120803
 30
0.0
 10
274.877468
 20
107.573252
 30
0.0
 10
280.956571
 20
110.568676
 30
0.0
 10
286.846066
 20
114.151555
 30
0.0
 10
292.823082
 20
117.366357
 30
0.0
 10
298.950267
 20
120.934741
 30
0.0
 10
305.207162
 20
124.475905
 30
0.0
 10
311.342024
 20
128.051618
 30
0.0
 10
317.103111
 20
131.723651
 30
0.0
 10
317.394618
 20
132.120128
 30
0.0
 10
317.986862
 20
132.169116
 30
0.0
 10
318.675173
 20
132.431930
 30
0.0
 10
319.254914
 20
133.469887
 30
0.0
 10
319.259430
 20
134.221862
 30
0.0
 10
318.213373
 20
134.189672
 30
0.0
 10
316.900983
 20
134.289262
 30
0.0
 10
316.106443
 20
135.436580
 30
0.0
 10
313.434928
 20
136.240535
 30
0.0
 10
310.736460
 20
135.043033
 30
0.0
 10
308.041887
 20
133.127291
 30
0.0
 10
305.381999
 20
131.776525
 30
0.0
 10
302.099557
 20
130.039481
 30
0.0
 10
298.855440
 20
128.070984
 30
0.0
 10
295.547457
 20
126.343496
 30
0.0
 10
292.073443
 20
125.329483
 30
0.0
 10
289.483010
 20
130.898780
 30
0.0
 10
288.629344
 20
137.101277
 30
0.0
 10
288.637811
 20
143.538574
 30
0.0
 10
288.633860
 20
149.812261
 30
0.0
 10
288.925282
 20
158.326674
 30
0.0
 10
289.223704
 20
166.824289
 30
0.0
 10
289.884273
 20
175.280350
 30
0.0
 10
291.262167
 20
183.670108
 30
0.0
 10
291.988296
 20
185.074336
 30
0.0
 10
292.948868
 20
186.759092
 30
0.0
 10
293.143234
 20
187.988557
 30
0.0
 10
291.570805
 20
188.026913
 30
0.0
 10
284.462418
 20
184.830168
 30
0.0
 10
277.107069
 20
182.222474
 30
0.0
 10
269.641399
 20
179.965978
 30
0.0
 10
262.202069
 20
177.822816
 30
0.0
 10
260.754726
 20
173.632818
 30
0.0
 10
260.793704
 20
169.067326
 30
0.0
 10
261.331812
 20
164.379460
 30
0.0
 10
261.381861
 20
159.822330
 30
0.0
 10
258.499009
 20
147.379477
 30
0.0
 10
253.901346
 20
135.415933
 30
0.0
 10
247.833854
 20
124.130775
 30
0.0
 10
240.541514
 20
113.723080
 30
0.0
 10
234.516857
 20
122.670608
 30
0.0
 10
231.482948
 20
132.949898
 30
0.0
 10
230.756965
 20
143.839005
 30
0.0
 10
231.656088
 20
154.615982
 30
0.0
 10
231.855097
 20
162.947464
 30
0.0
 10
231.682459
 20
171.356416
 30
0.0
 10
230.617959
 20
179.628830
 30
0.0
 10
228.141375
 20
187.550706
 30
0.0
 10
225.267204
 20
190.968318
 30
0.0
 10
221.322285
 20
192.595860
 30
0.0
 10
217.044727
 20
192.360532
 30
0.0
 10
213.172641
 20
190.189526
 30
0.0
 10
206.761263
 20
186.868335
 30
0.0
 10
200.361319
 20
183.511016
 30
0.0
 10
194.112377
 20
179.900785
 30
0.0
 10
188.154014
 20
175.820845
 30
0.0
 10
188.047026
 20
179.532016
 30
0.0
 10
187.836813
 20
183.375177
 30
0.0
 10
187.048775
 20
187.002023
 30
0.0
 10
185.208305
 20
190.064247
 30
0.0
 10
177.667404
 20
186.836195
 30
0.0
 10
170.324983
 20
183.057810
 30
0.0
 10
163.064396
 20
179.069660
 30
0.0
 10
155.769000
 20
175.212317
 30
0.0
 10
148.353159
 20
157.842561
 30
0.0
 10
141.196856
 20
140.329904
 30
0.0
 10
133.331797
 20
123.166374
 30
0.0
 10
123.789694
 20
106.843984
 30
0.0
 10
122.442199
 20
104.819423
 30
0.0
 10
120.846827
 20
102.239122
 30
0.0
 10
119.673632
 20
100.959258
 30
0.0
 10
119.592657
 20
102.836005
 30
0.0
 10
123.800481
 20
124.261943
 30
0.0
 10
130.562449
 20
145.020082
 30
0.0
 10
138.328171
 20
165.505467
 30
0.0
 10
145.547263
 20
186.113136
 30
0.0
 10
147.048339
 20
194.603634
 30
0.0
 10
147.608019
 20
203.357168
 30
0.0
 10
146.539805
 20
211.902436
 30
0.0
 10
143.157194
 20
219.768136
 30
0.0
 10
137.777271
 20
222.103285
 30
0.0
 10
131.860674
 20
222.044354
 30
0.0
 10
125.842059
 20
220.666523
 30
0.0
 10
120.156083
 20
219.044970
 30
0.0
 10
114.872589
 20
216.168259
 30
0.0
 10
109.638061
 20
213.191247
 30
0.0
 10
104.401744
 20
210.213043
 30
0.0
 10
99.112888
 20
207.332748
 30
0.0
 10
97.580834
 20
211.757673
 30
0.0
 10
95.700898
 20
216.313209
 30
0.0
 10
93.006802
 20
220.146625
 30
0.0
 10
89.032263
 20
222.405193
 30
0.0
 10
83.219225
 20
219.779532
 30
0.0
 10
77.297226
 20
217.384651
 30
0.0
 10
71.450578
 20
214.838772
 30
0.0
 10
65.863583
 20
211.760123
 30
0.0
 10
63.912911
 20
216.532769
 30
0.0
 10
60.196039
 20
219.813125
 30
0.0
 10
55.467662
 20
221.062379
 30
0.0
 10
50.482472
 20
219.741734
 30
0.0
 10
44.529886
 20
216.374270
 30
0.0
 10
38.506059
 20
213.050804
 30
0.0
 10
32.448966
 20
209.849301
 30
0.0
 10
26.396569
 20
206.847721
 30
0.0
 10
24.053705
 20
209.699689
 30
0.0
 10
22.842167
 20
213.030690
 30
0.0
 10
22.367552
 20
216.640109
 30
0.0
 10
22.235432
 20
220.327337
 30
0.0
 10
20.981999
 20
228.131896
 30
0.0
 10
19.062219
 20
235.884081
 30
0.0
 10
16.193051
 20
243.278557
 30
0.0
 10
12.091458
 20
250.010000
 30
0.0
 10
11.466638
 20
250.473756
 30
0.0
 10
10.771659
 20
250.828094
 30
0.0
 10
10.026614
 20
251.051200
 30
0.0
 10
9.251597
 20
251.121250
 30
0.0
  0
LWPOLYLINE
  5
101
100
AcDbEntity
  8
Layer_1
 62
7
100
AcDbPolyline
 90
25
 70
1
 10
282.460361
 20
235.255069
 30
0.0
 10
278.402474
 20
234.171062
 30
0.0
 10
274.945873
 20
231.671759
 30
0.0
 10
271.504862
 20
229.008399
 30
0.0
 10
267.493750
 20
227.432222
 30
0.0
 10
261.317145
 20
224.762877
 30
0.0
 10
255.053253
 20
222.183180
 30
0.0
 10
248.871277
 20
219.524844
 30
0.0
 10
242.940417
 20
216.619583
 30
0.0
 10
240.856163
 20
213.064994
 30
0.0
 10
240.472076
 20
209.197523
 30
0.0
 10
241.719032
 20
205.493458
 30
0.0
 10
244.527903
 20
202.429097
 30
0.0
 10
248.710408
 20
199.297562
 30
0.0
 10
253.560921
 20
197.387764
 30
0.0
 10
258.596037
 20
197.261817
 30
0.0
 10
263.332352
 20
199.481834
 30
0.0
 10
271.231803
 20
202.744729
 30
0.0
 10
279.012012
 20
206.761911
 30
0.0
 10
285.279987
 20
212.323072
 30
0.0
 10
288.642778
 20
220.217888
 30
0.0
 10
290.111716
 20
225.060658
 30
0.0
 10
289.821084
 20
229.886678
 30
0.0
 10
287.395694
 20
233.637597
 30
0.0
 10
282.460361
 20
235.255069
 30
0.0
  0
LWPOLYLINE
  5
102
100
AcDbEntity
  8
Layer_1
 62
7
100
AcDbPolyline
 90
21
 70
1
 10
-12.691181
 20
212.227500
 30
0.0
 10
-10.806946
 20
207.904234
 30
0.0
 10
-8.676275
 20
203.662685
 30
0.0
 10
-6.569373
 20
199.444069
 30
0.0
 10
-4.756443
 20
195.189606
 30
0.0
 10
-5.614290
 20
180.073981
 30
0.0
 10
-7.734627
 20
164.890784
 30
0.0
 10
-12.503707
 20
150.635325
 30
0.0
 10
-21.307778
 20
138.302917
 30
0.0
 10
-29.440197
 20
133.360573
 30
0.0
 10
-39.005276
 20
134.030479
 30
0.0
 10
-46.847718
 20
139.365576
 30
0.0
 10
-49.812222
 20
148.418819
 30
0.0
 10
-47.583815
 20
161.649750
 30
0.0
 10
-42.288697
 20
173.967178
 30
0.0
 10
-35.051884
 20
185.451681
 30
0.0
 10
-26.998388
 20
196.183844
 30
0.0
 10
-23.512284
 20
200.274283
 30
0.0
 10
-19.941206
 20
204.290835
 30
0.0
 10
-16.321916
 20
208.264806
 30
0.0
 10
-12.691181
 20
212.227500
 30
0.0
  0
ENDSEC
  0
SECTION
  2
OBJECTS
  0
DICTIONARY
  5
C
330
0
100
AcDbDictionary
  3
ACAD_GROUP
350
D
  3
ACAD_MLINESTYLE
350
17
  0
DICTIONARY
  5
D
330
C
100
AcDbDictionary
  0
DICTIONARY
  5
1A
330
C
100
AcDbDictionary
  0
DICTIONARY
  5
17
330
C
100
AcDbDictionary
  3
STANDARD
350
18
  0
DICTIONARY
  5
19
330
C
100
AcDbDictionary
  0
ENDSEC
  0
EOF
