  0
SECTION
  2
HEADER
  9
$ACADVER
  1
AC1014
  9
$HANDSEED
  5
FFFF
  9
$MEASUREMENT
 70
     1
  0
ENDSEC
  0
SECTION
  2
TABLES
  0
TABLE
  2
VPORT
  5
8
330
0
100
AcDbSymbolTable
 70
     4
  0
VPORT
  5
2E
330
8
100
AcDbSymbolTableRecord
100
AcDbViewportTableRecord
  2
*ACTIVE
 70
     0
 10
0.0
 20
0.0
 11
1.0
 21
1.0
 12
210.0
 22
148.5
 13
0.0
 23
0.0
 14
10.0
 24
10.0
 15
10.0
 25
10.0
 16
0.0
 26
0.0
 36
1.0
 17
0.0
 27
0.0
 37
0.0
 40
341.0
 41
1.24
 42
50.0
 43
0.0
 44
0.0
 50
0.0
 51
0.0
 71
     0
 72
   100
 73
     1
 74
     3
 75
     0
 76
     0
 77
     0
 78
     0
  0
ENDTAB
  0
TABLE
  2
LTYPE
  5
5
330
0
100
AcDbSymbolTable
 70
     1
  0
LTYPE
  5
14
330
5
100
AcDbSymbolTableRecord
100
AcDbLinetypeTableRecord
  2
BYBLOCK
 70
     0
  3

 72
    65
 73
     0
 40
0.0
  0
LTYPE
  5
15
330
5
100
AcDbSymbolTableRecord
100
AcDbLinetypeTableRecord
  2
BYLAYER
 70
     0
  3

 72
    65
 73
     0
 40
0.0
  0
LTYPE
  5
16
330
5
100
AcDbSymbolTableRecord
100
AcDbLinetypeTableRecord
  2
CONTINUOUS
 70
     0
  3
Solid line
 72
    65
 73
     0
 40
0.0
  0
ENDTAB
  0
TABLE
  2
LAYER
  5
2
100
AcDbSymbolTable
 70
2
  0
LAYER
  5
50
100
AcDbSymbolTableRecord
100
AcDbLayerTableRecord
  2
0
 70
0
  6
CONTINUOUS
  0
LAYER
  5
51
100
AcDbSymbolTableRecord
100
AcDbLayerTableRecord
  2
Layer_1
 70
0
  6
CONTINUOUS
  0
ENDTAB
  0
TABLE
  2
STYLE
  5
3
330
0
100
AcDbSymbolTable
 70
     1
  0
STYLE
  5
11
330
3
100
AcDbSymbolTableRecord
100
AcDbTextStyleTableRecord
  2
STANDARD
 70
     0
 40
0.0
 41
1.0
 50
0.0
 71
     0
 42
2.5
  3
txt
  4

  0
ENDTAB
  0
TABLE
  2
VIEW
  5
6
330
0
100
AcDbSymbolTable
 70
     0
  0
ENDTAB
  0
TABLE
  2
UCS
  5
7
330
0
100
AcDbSymbolTable
 70
     0
  0
ENDTAB
  0
TABLE
  2
APPID
  5
9
330
0
100
AcDbSymbolTable
 70
     2
  0
APPID
  5
12
330
9
100
AcDbSymbolTableRecord
100
AcDbRegAppTableRecord
  2
ACAD
 70
     0
  0
ENDTAB
  0
TABLE
  2
DIMSTYLE
  5
A
330
0
100
AcDbSymbolTable
 70
     1
  0
DIMSTYLE
105
27
330
A
100
AcDbSymbolTableRecord
100
AcDbDimStyleTableRecord
  2
ISO-25
 70
     0
  3

  4

  5

  6

  7

 40
1.0
 41
2.5
 42
0.625
 43
3.75
 44
1.25
 45
0.0
 46
0.0
 47
0.0
 48
0.0
140
2.5
141
2.5
142
0.0
143
0.03937007874016
144
1.0
145
0.0
146
1.0
147
0.625
 71
     0
 72
     0
 73
     0
 74
     0
 75
     0
 76
     0
 77
     1
 78
     8
170
     0
171
     3
172
     1
173
     0
174
     0
175
     0
176
     0
177
     0
178
     0
270
     2
271
     2
272
     2
273
     2
274
     3
340
11
275
     0
280
     0
281
     0
282
     0
283
     0
284
     8
285
     0
286
     0
287
     3
288
     0
  0
ENDTAB
  0
TABLE
  2
BLOCK_RECORD
  5
1
330
0
100
AcDbSymbolTable
 70
     1
  0
BLOCK_RECORD
  5
1F
330
1
100
AcDbSymbolTableRecord
100
AcDbBlockTableRecord
  2
*MODEL_SPACE
  0
BLOCK_RECORD
  5
1B
330
1
100
AcDbSymbolTableRecord
100
AcDbBlockTableRecord
  2
*PAPER_SPACE
  0
ENDTAB
  0
ENDSEC
  0
SECTION
  2
BLOCKS
  0
BLOCK
  5
20
330
1F
100
AcDbEntity
  8
0
100
AcDbBlockBegin
  2
*MODEL_SPACE
 70
     0
 10
0.0
 20
0.0
 30
0.0
  3
*MODEL_SPACE
  1

  0
ENDBLK
  5
21
330
1F
100
AcDbEntity
  8
0
100
AcDbBlockEnd
  0
BLOCK
  5
1C
330
1B
100
AcDbEntity
 67
     1
  8
0
100
AcDbBlockBegin
  2
*PAPER_SPACE
  1

  0
ENDBLK
  5
1D
330
1B
100
AcDbEntity
 67
     1
  8
0
100
AcDbBlockEnd
  0
ENDSEC
  0
SECTION
  2
ENTITIES
  0
LWPOLYLINE
  5
100
100
AcDbEntity
  8
Layer_1
 62
7
100
AcDbPolyline
 90
1729
 70
1
 10
9.013472
 20
251.112431
 30
0.0
 10
8.277696
 20
250.967507
 30
0.0
 10
7.565783
 20
250.765517
 30
0.0
 10
6.875677
 20
250.511918
 30
0.0
 10
6.205319
 20
250.212164
 30
0.0
 10
5.552654
 20
249.871714
 30
0.0
 10
4.915622
 20
249.496020
 30
0.0
 10
4.292168
 20
249.090543
 30
0.0
 10
3.680234
 20
248.660732
 30
0.0
 10
3.077763
 20
248.212050
 30
0.0
 10
2.482696
 20
247.749948
 30
0.0
 10
1.892978
 20
247.279884
 30
0.0
 10
1.306551
 20
246.807314
 30
0.0
 10
0.721357
 20
246.337693
 30
0.0
 10
0.135339
 20
245.876480
 30
0.0
 10
-0.453560
 20
245.429127
 30
0.0
 10
-1.047397
 20
245.001089
 30
0.0
 10
-2.001373
 20
244.271869
 30
0.0
 10
-2.953606
 20
243.537552
 30
0.0
 10
-3.905753
 20
242.800986
 30
0.0
 10
-4.859472
 20
242.065018
 30
0.0
 10
-5.816421
 20
241.332496
 30
0.0
 10
-6.778257
 20
240.606274
 30
0.0
 10
-7.746638
 20
239.889195
 30
0.0
 10
-8.723222
 20
239.184108
 30
0.0
 10
-9.709666
 20
238.493863
 30
0.0
 10
-10.707628
 20
237.821308
 30
0.0
 10
-11.718765
 20
237.169292
 30
0.0
 10
-12.744735
 20
236.540665
 30
0.0
 10
-13.787196
 20
235.938270
 30
0.0
 10
-14.847805
 20
235.364961
 30
0.0
 10
-15.928221
 20
234.823586
 30
0.0
 10
-17.030099
 20
234.316991
 30
0.0
 10
-20.045862
 20
232.766789
 30
0.0
 10
-23.059276
 20
231.208785
 30
0.0
 10
-26.068797
 20
229.640868
 30
0.0
 10
-29.072880
 20
228.060934
 30
0.0
 10
-32.069984
 20
226.466884
 30
0.0
 10
-35.058559
 20
224.856606
 30
0.0
 10
-38.037064
 20
223.227997
 30
0.0
 10
-41.003954
 20
221.578953
 30
0.0
 10
-43.957686
 20
219.907368
 30
0.0
 10
-46.896711
 20
218.211139
 30
0.0
 10
-49.819492
 20
216.488161
 30
0.0
 10
-52.724479
 20
214.736329
 30
0.0
 10
-55.610128
 20
212.953534
 30
0.0
 10
-58.474898
 20
211.137676
 30
0.0
 10
-61.317240
 20
209.286648
 30
0.0
 10
-64.135612
 20
207.398345
 30
0.0
 10
-65.295221
 20
206.611063
 30
0.0
 10
-66.430892
 20
205.794541
 30
0.0
 10
-67.545791
 20
204.952646
 30
0.0
 10
-68.643079
 20
204.089247
 30
0.0
 10
-69.725924
 20
203.208214
 30
0.0
 10
-70.797488
 20
202.313417
 30
0.0
 10
-71.860935
 20
201.408726
 30
0.0
 10
-72.919426
 20
200.498009
 30
0.0
 10
-73.976131
 20
199.585135
 30
0.0
 10
-75.034208
 20
198.673978
 30
0.0
 10
-76.096820
 20
197.768403
 30
0.0
 10
-77.167136
 20
196.872283
 30
0.0
 10
-78.248315
 20
195.989483
 30
0.0
 10
-79.343524
 20
195.123879
 30
0.0
 10
-80.455922
 20
194.279335
 30
0.0
 10
-81.588681
 20
193.459722
 30
0.0
 10
-81.500924
 20
193.133835
 30
0.0
 10
-81.386034
 20
192.883103
 30
0.0
 10
-81.246576
 20
192.700556
 30
0.0
 10
-81.085109
 20
192.579228
 30
0.0
 10
-80.904196
 20
192.512155
 30
0.0
 10
-80.706395
 20
192.492372
 30
0.0
 10
-80.494274
 20
192.512917
 30
0.0
 10
-80.270390
 20
192.566811
 30
0.0
 10
-80.037302
 20
192.647094
 30
0.0
 10
-79.797580
 20
192.746803
 30
0.0
 10
-79.553779
 20
192.858967
 30
0.0
 10
-79.308463
 20
192.976626
 30
0.0
 10
-79.064194
 20
193.092805
 30
0.0
 10
-78.823532
 20
193.200546
 30
0.0
 10
-78.589042
 20
193.292881
 30
0.0
 10
-78.363281
 20
193.362841
 30
0.0
 10
-76.646109
 20
194.054356
 30
0.0
 10
-74.927223
 20
194.743740
 30
0.0
 10
-73.206966
 20
195.431406
 30
0.0
 10
-71.485667
 20
196.117776
 30
0.0
 10
-69.763660
 20
196.803263
 30
0.0
 10
-68.041283
 20
197.488284
 30
0.0
 10
-66.318867
 20
198.173259
 30
0.0
 10
-64.596747
 20
198.858602
 30
0.0
 10
-62.875256
 20
199.544730
 30
0.0
 10
-61.154731
 20
200.232062
 30
0.0
 10
-59.435503
 20
200.921015
 30
0.0
 10
-57.717910
 20
201.612002
 30
0.0
 10
-56.002284
 20
202.305444
 30
0.0
 10
-54.288961
 20
203.001754
 30
0.0
 10
-52.578274
 20
203.701355
 30
0.0
 10
-50.870556
 20
204.404658
 30
0.0
 10
-50.112360
 20
205.120910
 30
0.0
 10
-49.358827
 20
205.843961
 30
0.0
 10
-48.608090
 20
206.571377
 30
0.0
 10
-47.858279
 20
207.300724
 30
0.0
 10
-47.107526
 20
208.029563
 30
0.0
 10
-46.353964
 20
208.755464
 30
0.0
 10
-45.595723
 20
209.475986
 30
0.0
 10
-44.830935
 20
210.188698
 30
0.0
 10
-44.057731
 20
210.891161
 30
0.0
 10
-43.274245
 20
211.580946
 30
0.0
 10
-42.478607
 20
212.255609
 30
0.0
 10
-41.668948
 20
212.912721
 30
0.0
 10
-40.843400
 20
213.549847
 30
0.0
 10
-40.000095
 20
214.164546
 30
0.0
 10
-39.137167
 20
214.754391
 30
0.0
 10
-38.252741
 20
215.316939
 30
0.0
 10
-37.250257
 20
215.817556
 30
0.0
 10
-36.248380
 20
216.318791
 30
0.0
 10
-35.246920
 20
216.820314
 30
0.0
 10
-34.245688
 20
217.321797
 30
0.0
 10
-33.244502
 20
217.822908
 30
0.0
 10
-32.243175
 20
218.323319
 30
0.0
 10
-31.241517
 20
218.822700
 30
0.0
 10
-30.239343
 20
219.320727
 30
0.0
 10
-29.236464
 20
219.817062
 30
0.0
 10
-28.232695
 20
220.311383
 30
0.0
 10
-27.227848
 20
220.803358
 30
0.0
 10
-26.221736
 20
221.292661
 30
0.0
 10
-25.214172
 20
221.778958
 30
0.0
 10
-24.204970
 20
222.261922
 30
0.0
 10
-23.193943
 20
222.741223
 30
0.0
 10
-22.180903
 20
223.216533
 30
0.0
 10
-23.060376
 20
221.828079
 30
0.0
 10
-23.985823
 20
220.474541
 30
0.0
 10
-24.952823
 20
219.152573
 30
0.0
 10
-25.956954
 20
217.858844
 30
0.0
 10
-26.993793
 20
216.590009
 30
0.0
 10
-28.058919
 20
215.342731
 30
0.0
 10
-29.147908
 20
214.113673
 30
0.0
 10
-30.256345
 20
212.899494
 30
0.0
 10
-31.379798
 20
211.696854
 30
0.0
 10
-32.513851
 20
210.502419
 30
0.0
 10
-33.654083
 20
209.312844
 30
0.0
 10
-34.796067
 20
208.124796
 30
0.0
 10
-35.935387
 20
206.934933
 30
0.0
 10
-37.067617
 20
205.739917
 30
0.0
 10
-38.188338
 20
204.536408
 30
0.0
 10
-39.293125
 20
203.321069
 30
0.0
 10
-41.099113
 20
201.343202
 30
0.0
 10
-42.906927
 20
199.363430
 30
0.0
 10
-44.712272
 20
197.378934
 30
0.0
 10
-46.510854
 20
195.386891
 30
0.0
 10
-48.298391
 20
193.384485
 30
0.0
 10
-50.070583
 20
191.368893
 30
0.0
 10
-51.823143
 20
189.337302
 30
0.0
 10
-53.551780
 20
187.286890
 30
0.0
 10
-55.252205
 20
185.214834
 30
0.0
 10
-56.920122
 20
183.118321
 30
0.0
 10
-58.551245
 20
180.994528
 30
0.0
 10
-60.141279
 20
178.840639
 30
0.0
 10
-61.685935
 20
176.653829
 30
0.0
 10
-63.180920
 20
174.431287
 30
0.0
 10
-64.621946
 20
172.170187
 30
0.0
 10
-66.004722
 20
169.867714
 30
0.0
 10
-67.147180
 20
168.076131
 30
0.0
 10
-68.261546
 20
166.263372
 30
0.0
 10
-69.343597
 20
164.429295
 30
0.0
 10
-70.389101
 20
162.573748
 30
0.0
 10
-71.393829
 20
160.696584
 30
0.0
 10
-72.353554
 20
158.797652
 30
0.0
 10
-73.264045
 20
156.876802
 30
0.0
 10
-74.121075
 20
154.933891
 30
0.0
 10
-74.920413
 20
152.968767
 30
0.0
 10
-75.657831
 20
150.981279
 30
0.0
 10
-76.329103
 20
148.971284
 30
0.0
 10
-76.929996
 20
146.938626
 30
0.0
 10
-77.456287
 20
144.883165
 30
0.0
 10
-77.903739
 20
142.804745
 30
0.0
 10
-78.268130
 20
140.703222
 30
0.0
 10
-78.545227
 20
138.578445
 30
0.0
 10
-78.675972
 20
137.770662
 30
0.0
 10
-78.777267
 20
136.959090
 30
0.0
 10
-78.848684
 20
136.144952
 30
0.0
 10
-78.889789
 20
135.329474
 30
0.0
 10
-78.900147
 20
134.513880
 30
0.0
 10
-78.879319
 20
133.699398
 30
0.0
 10
-78.826896
 20
132.887250
 30
0.0
 10
-78.742433
 20
132.078664
 30
0.0
 10
-78.625497
 20
131.274861
 30
0.0
 10
-78.475659
 20
130.477069
 30
0.0
 10
-78.292483
 20
129.686511
 30
0.0
 10
-78.075539
 20
128.904417
 30
0.0
 10
-77.824395
 20
128.132009
 30
0.0
 10
-77.538620
 20
127.370508
 30
0.0
 10
-77.217781
 20
126.621146
 30
0.0
 10
-76.861444
 20
125.885145
 30
0.0
 10
-76.478824
 20
125.069805
 30
0.0
 10
-76.054752
 20
124.275507
 30
0.0
 10
-75.591122
 20
123.503327
 30
0.0
 10
-75.089837
 20
122.754335
 30
0.0
 10
-74.552787
 20
122.029597
 30
0.0
 10
-73.981874
 20
121.330182
 30
0.0
 10
-73.378991
 20
120.657161
 30
0.0
 10
-72.746037
 20
120.011609
 30
0.0
 10
-72.084909
 20
119.394589
 30
0.0
 10
-71.397503
 20
118.807175
 30
0.0
 10
-70.685719
 20
118.250432
 30
0.0
 10
-69.951448
 20
117.725437
 30
0.0
 10
-69.196591
 20
117.233255
 30
0.0
 10
-68.423042
 20
116.774955
 30
0.0
 10
-67.632701
 20
116.351610
 30
0.0
 10
-66.827462
 20
115.964288
 30
0.0
 10
-65.526864
 20
115.457987
 30
0.0
 10
-64.202299
 20
115.033195
 30
0.0
 10
-62.857222
 20
114.687851
 30
0.0
 10
-61.495085
 20
114.419901
 30
0.0
 10
-60.119345
 20
114.227284
 30
0.0
 10
-58.733453
 20
114.107949
 30
0.0
 10
-57.340867
 20
114.059833
 30
0.0
 10
-55.945038
 20
114.080887
 30
0.0
 10
-54.549418
 20
114.169047
 30
0.0
 10
-53.157467
 20
114.322260
 30
0.0
 10
-51.772634
 20
114.538468
 30
0.0
 10
-50.398378
 20
114.815613
 30
0.0
 10
-49.038146
 20
115.151638
 30
0.0
 10
-47.695400
 20
115.544491
 30
0.0
 10
-46.373587
 20
115.992110
 30
0.0
 10
-45.076166
 20
116.492439
 30
0.0
 10
-43.162087
 20
117.235296
 30
0.0
 10
-41.265433
 20
118.015508
 30
0.0
 10
-39.385359
 20
118.830972
 30
0.0
 10
-37.521010
 20
119.679586
 30
0.0
 10
-35.671543
 20
120.559250
 30
0.0
 10
-33.836105
 20
121.467859
 30
0.0
 10
-32.013852
 20
122.403310
 30
0.0
 10
-30.203930
 20
123.363500
 30
0.0
 10
-28.405492
 20
124.346325
 30
0.0
 10
-26.617689
 20
125.349687
 30
0.0
 10
-24.839673
 20
126.371481
 30
0.0
 10
-23.070594
 20
127.409605
 30
0.0
 10
-21.309604
 20
128.461952
 30
0.0
 10
-19.555854
 20
129.526426
 30
0.0
 10
-17.808494
 20
130.600920
 30
0.0
 10
-16.066676
 20
131.683332
 30
0.0
 10
-15.034346
 20
132.333888
 30
0.0
 10
-13.993997
 20
132.972515
 30
0.0
 10
-12.947726
 20
133.602215
 30
0.0
 10
-11.897631
 20
134.225991
 30
0.0
 10
-10.845811
 20
134.846846
 30
0.0
 10
-9.794362
 20
135.467783
 30
0.0
 10
-8.745384
 20
136.091804
 30
0.0
 10
-7.700973
 20
136.721913
 30
0.0
 10
-6.663228
 20
137.361110
 30
0.0
 10
-5.634246
 20
138.012400
 30
0.0
 10
-4.616125
 20
138.678786
 30
0.0
 10
-3.610963
 20
139.363268
 30
0.0
 10
-2.620858
 20
140.068852
 30
0.0
 10
-1.647907
 20
140.798537
 30
0.0
 10
-0.694209
 20
141.555330
 30
0.0
 10
0.238125
 20
142.342222
 30
0.0
 10
1.734902
 20
143.502587
 30
0.0
 10
3.181852
 20
144.722566
 30
0.0
 10
4.577912
 20
145.999495
 30
0.0
 10
5.922020
 20
147.330703
 30
0.0
 10
7.213113
 20
148.713530
 30
0.0
 10
8.450131
 20
150.145311
 30
0.0
 10
9.632010
 20
151.623379
 30
0.0
 10
10.757688
 20
153.145068
 30
0.0
 10
11.826103
 20
154.707718
 30
0.0
 10
12.836194
 20
156.308661
 30
0.0
 10
13.786897
 20
157.945231
 30
0.0
 10
14.677151
 20
159.614764
 30
0.0
 10
15.505894
 20
161.314597
 30
0.0
 10
16.272063
 20
163.042062
 30
0.0
 10
16.974596
 20
164.794499
 30
0.0
 10
17.612431
 20
166.569236
 30
0.0
 10
18.047145
 20
168.045543
 30
0.0
 10
18.452165
 20
169.529505
 30
0.0
 10
18.828978
 20
171.020549
 30
0.0
 10
19.179069
 20
172.518102
 30
0.0
 10
19.503925
 20
174.021590
 30
0.0
 10
19.805033
 20
175.530441
 30
0.0
 10
20.083879
 20
177.044075
 30
0.0
 10
20.341949
 20
178.561919
 30
0.0
 10
20.580729
 20
180.083405
 30
0.0
 10
20.801706
 20
181.607952
 30
0.0
 10
21.006367
 20
183.134992
 30
0.0
 10
21.196198
 20
184.663945
 30
0.0
 10
21.372684
 20
186.194238
 30
0.0
 10
21.537314
 20
187.725303
 30
0.0
 10
21.691571
 20
189.256556
 30
0.0
 10
21.836944
 20
190.787431
 30
0.0
 10
22.754781
 20
191.235580
 30
0.0
 10
23.669475
 20
191.695771
 30
0.0
 10
24.580471
 20
192.167636
 30
0.0
 10
25.487210
 20
192.650791
 30
0.0
 10
26.389137
 20
193.144864
 30
0.0
 10
27.285693
 20
193.649477
 30
0.0
 10
28.176324
 20
194.164250
 30
0.0
 10
29.060470
 20
194.688808
 30
0.0
 10
29.937575
 20
195.222779
 30
0.0
 10
30.807084
 20
195.765780
 30
0.0
 10
31.668438
 20
196.317434
 30
0.0
 10
32.521082
 20
196.877371
 30
0.0
 10
33.364455
 20
197.445208
 30
0.0
 10
34.198007
 20
198.020569
 30
0.0
 10
35.021173
 20
198.603078
 30
0.0
 10
35.833403
 20
199.192361
 30
0.0
 10
36.358765
 20
198.170762
 30
0.0
 10
36.820399
 20
197.124081
 30
0.0
 10
37.220790
 20
196.054846
 30
0.0
 10
37.562426
 20
194.965592
 30
0.0
 10
37.847786
 20
193.858847
 30
0.0
 10
38.079364
 20
192.737140
 30
0.0
 10
38.259642
 20
191.603005
 30
0.0
 10
38.391104
 20
190.458972
 30
0.0
 10
38.476236
 20
189.307573
 30
0.0
 10
38.517528
 20
188.151337
 30
0.0
 10
38.517463
 20
186.992792
 30
0.0
 10
38.478525
 20
185.834476
 30
0.0
 10
38.403203
 20
184.678914
 30
0.0
 10
38.293980
 20
183.528641
 30
0.0
 10
38.153346
 20
182.386186
 30
0.0
 10
37.983781
 20
181.254077
 30
0.0
 10
37.783222
 20
179.677135
 30
0.0
 10
37.579921
 20
178.100283
 30
0.0
 10
37.372482
 20
176.523795
 30
0.0
 10
37.159514
 20
174.947954
 30
0.0
 10
36.939629
 20
173.373027
 30
0.0
 10
36.711436
 20
171.799296
 30
0.0
 10
36.473545
 20
170.227034
 30
0.0
 10
36.224563
 20
168.656512
 30
0.0
 10
35.963098
 20
167.088014
 30
0.0
 10
35.687762
 20
165.521808
 30
0.0
 10
35.397166
 20
163.958173
 30
0.0
 10
35.089914
 20
162.397385
 30
0.0
 10
34.764622
 20
160.839716
 30
0.0
 10
34.419890
 20
159.285447
 30
0.0
 10
34.054336
 20
157.734848
 30
0.0
 10
33.666565
 20
156.188197
 30
0.0
 10
33.284219
 20
154.680484
 30
0.0
 10
32.889577
 20
153.176135
 30
0.0
 10
32.482982
 20
151.675128
 30
0.0
 10
32.064774
 20
150.177439
 30
0.0
 10
31.635294
 20
148.683047
 30
0.0
 10
31.194880
 20
147.191926
 30
0.0
 10
30.743875
 20
145.704056
 30
0.0
 10
30.282617
 20
144.219409
 30
0.0
 10
29.811447
 20
142.737968
 30
0.0
 10
29.330706
 20
141.259708
 30
0.0
 10
28.840732
 20
139.784603
 30
0.0
 10
28.341868
 20
138.312631
 30
0.0
 10
27.834454
 20
136.843771
 30
0.0
 10
27.318828
 20
135.377999
 30
0.0
 10
26.795332
 20
133.915292
 30
0.0
 10
26.264306
 20
132.455625
 30
0.0
 10
26.242727
 20
132.129582
 30
0.0
 10
26.174049
 20
131.838484
 30
0.0
 10
26.062936
 20
131.578848
 30
0.0
 10
25.914047
 20
131.347197
 30
0.0
 10
25.732045
 20
131.140049
 30
0.0
 10
25.521591
 20
130.953926
 30
0.0
 10
25.287345
 20
130.785346
 30
0.0
 10
25.033970
 20
130.630830
 30
0.0
 10
24.766125
 20
130.486902
 30
0.0
 10
24.488474
 20
130.350078
 30
0.0
 10
24.205676
 20
130.216877
 30
0.0
 10
23.922393
 20
130.083824
 30
0.0
 10
23.643287
 20
129.947437
 30
0.0
 10
23.373019
 20
129.804235
 30
0.0
 10
23.116249
 20
129.650740
 30
0.0
 10
22.877640
 20
129.483472
 30
0.0
 10
22.704718
 20
129.444796
 30
0.0
 10
22.542614
 20
129.376696
 30
0.0
 10
22.393398
 20
129.283416
 30
0.0
 10
22.259143
 20
129.169201
 30
0.0
 10
22.141919
 20
129.038298
 30
0.0
 10
22.043798
 20
128.894949
 30
0.0
 10
21.966852
 20
128.743395
 30
0.0
 10
21.913151
 20
128.587891
 30
0.0
 10
21.884767
 20
128.432671
 30
0.0
 10
21.883780
 20
128.281984
 30
0.0
 10
21.912244
 20
128.140078
 30
0.0
 10
21.972241
 20
128.011192
 30
0.0
 10
22.065840
 20
127.899573
 30
0.0
 10
22.195113
 20
127.809465
 30
0.0
 10
22.362131
 20
127.745113
 30
0.0
 10
22.568967
 20
127.710764
 30
0.0
 10
22.780911
 20
127.756873
 30
0.0
 10
22.994752
 20
127.819264
 30
0.0
 10
23.209887
 20
127.895385
 30
0.0
 10
23.425711
 20
127.982679
 30
0.0
 10
23.641622
 20
128.078593
 30
0.0
 10
23.857016
 20
128.180571
 30
0.0
 10
24.071290
 20
128.286060
 30
0.0
 10
24.283840
 20
128.392506
 30
0.0
 10
24.494064
 20
128.497354
 30
0.0
 10
24.701357
 20
128.598048
 30
0.0
 10
24.905117
 20
128.692034
 30
0.0
 10
25.104741
 20
128.776760
 30
0.0
 10
25.299624
 20
128.849666
 30
0.0
 10
25.489164
 20
128.908202
 30
0.0
 10
25.672757
 20
128.949813
 30
0.0
 10
25.849800
 20
128.971939
 30
0.0
 10
25.950559
 20
128.724173
 30
0.0
 10
26.077255
 20
128.537794
 30
0.0
 10
26.226905
 20
128.406981
 30
0.0
 10
26.396525
 20
128.325912
 30
0.0
 10
26.583132
 20
128.288763
 30
0.0
 10
26.783744
 20
128.289610
 30
0.0
 10
26.995378
 20
128.322842
 30
0.0
 10
27.215050
 20
128.382532
 30
0.0
 10
27.439777
 20
128.462855
 30
0.0
 10
27.666577
 20
128.557995
 30
0.0
 10
27.892465
 20
128.662127
 30
0.0
 10
28.114460
 20
128.769427
 30
0.0
 10
28.329579
 20
128.874078
 30
0.0
 10
28.534837
 20
128.970257
 30
0.0
 10
28.727253
 20
129.052141
 30
0.0
 10
28.903842
 20
129.113908
 30
0.0
 10
30.378747
 20
129.717330
 30
0.0
 10
31.860069
 20
130.300887
 30
0.0
 10
33.347821
 20
130.864092
 30
0.0
 10
34.842012
 20
131.406472
 30
0.0
 10
36.342653
 20
131.927542
 30
0.0
 10
37.849750
 20
132.426824
 30
0.0
 10
39.363320
 20
132.903836
 30
0.0
 10
40.883368
 20
133.358098
 30
0.0
 10
42.409908
 20
133.789131
 30
0.0
 10
43.942951
 20
134.196454
 30
0.0
 10
45.482501
 20
134.579584
 30
0.0
 10
47.028571
 20
134.938046
 30
0.0
 10
48.581174
 20
135.271359
 30
0.0
 10
50.140319
 20
135.579038
 30
0.0
 10
51.706015
 20
135.860605
 30
0.0
 10
53.278272
 20
136.115582
 30
0.0
 10
53.629833
 20
136.163006
 30
0.0
 10
53.969127
 20
136.242567
 30
0.0
 10
54.294690
 20
136.352595
 30
0.0
 10
54.605058
 20
136.491408
 30
0.0
 10
54.898769
 20
136.657338
 30
0.0
 10
55.174362
 20
136.848707
 30
0.0
 10
55.430375
 20
137.063843
 30
0.0
 10
55.665344
 20
137.301070
 30
0.0
 10
55.877807
 20
137.558714
 30
0.0
 10
56.066300
 20
137.835102
 30
0.0
 10
56.229363
 20
138.128560
 30
0.0
 10
56.365532
 20
138.437412
 30
0.0
 10
56.473344
 20
138.759987
 30
0.0
 10
56.551339
 20
139.094606
 30
0.0
 10
56.598052
 20
139.439601
 30
0.0
 10
56.612022
 20
139.793290
 30
0.0
 10
56.594242
 20
139.953787
 30
0.0
 10
56.604938
 20
140.090382
 30
0.0
 10
56.641204
 20
140.205831
 30
0.0
 10
56.700090
 20
140.302882
 30
0.0
 10
56.778663
 20
140.384283
 30
0.0
 10
56.873986
 20
140.452792
 30
0.0
 10
56.983127
 20
140.511156
 30
0.0
 10
57.103154
 20
140.562125
 30
0.0
 10
57.231127
 20
140.608452
 30
0.0
 10
57.364113
 20
140.652888
 30
0.0
 10
57.499182
 20
140.698182
 30
0.0
 10
57.633396
 20
140.747085
 30
0.0
 10
57.763822
 20
140.802350
 30
0.0
 10
57.887523
 20
140.866728
 30
0.0
 10
58.001566
 20
140.942967
 30
0.0
 10
58.103016
 20
141.033820
 30
0.0
 10
59.886220
 20
141.790870
 30
0.0
 10
61.672365
 20
142.542586
 30
0.0
 10
63.460805
 20
143.290173
 30
0.0
 10
65.250892
 20
144.034839
 30
0.0
 10
67.041976
 20
144.777783
 30
0.0
 10
68.833413
 20
145.520214
 30
0.0
 10
70.624550
 20
146.263333
 30
0.0
 10
72.414745
 20
147.008349
 30
0.0
 10
74.203345
 20
147.756461
 30
0.0
 10
75.989710
 20
148.508879
 30
0.0
 10
77.773185
 20
149.266804
 30
0.0
 10
79.553124
 20
150.031440
 30
0.0
 10
81.328881
 20
150.803995
 30
0.0
 10
83.099808
 20
151.585672
 30
0.0
 10
84.865258
 20
152.377675
 30
0.0
 10
86.624580
 20
153.181207
 30
0.0
 10
86.724721
 20
153.306115
 30
0.0
 10
86.788422
 20
153.431622
 30
0.0
 10
86.821066
 20
153.557671
 30
0.0
 10
86.828037
 20
153.684200
 30
0.0
 10
86.814744
 20
153.811149
 30
0.0
 10
86.786550
 20
153.938462
 30
0.0
 10
86.748871
 20
154.066078
 30
0.0
 10
86.707079
 20
154.193936
 30
0.0
 10
86.666569
 20
154.321980
 30
0.0
 10
86.632728
 20
154.450151
 30
0.0
 10
86.610940
 20
154.578387
 30
0.0
 10
86.606594
 20
154.706632
 30
0.0
 10
86.625108
 20
154.834823
 30
0.0
 10
86.671833
 20
154.962904
 30
0.0
 10
86.752167
 20
155.090815
 30
0.0
 10
86.871508
 20
155.218498
 30
0.0
 10
87.657886
 20
157.076545
 30
0.0
 10
88.474217
 20
158.923356
 30
0.0
 10
89.314979
 20
160.761044
 30
0.0
 10
90.174665
 20
162.591720
 30
0.0
 10
91.047756
 20
164.417492
 30
0.0
 10
91.928738
 20
166.240475
 30
0.0
 10
92.812099
 20
168.062779
 30
0.0
 10
93.692328
 20
169.886516
 30
0.0
 10
94.563903
 20
171.713792
 30
0.0
 10
95.421317
 20
173.546723
 30
0.0
 10
96.259051
 20
175.387422
 30
0.0
 10
97.071595
 20
177.237995
 30
0.0
 10
97.853432
 20
179.100558
 30
0.0
 10
98.599046
 20
180.977217
 30
0.0
 10
99.302931
 20
182.870087
 30
0.0
 10
99.959563
 20
184.781276
 30
0.0
 10
100.096794
 20
185.203949
 30
0.0
 10
100.221920
 20
185.629932
 30
0.0
 10
100.335986
 20
186.058825
 30
0.0
 10
100.440035
 20
186.490230
 30
0.0
 10
100.535116
 20
186.923746
 30
0.0
 10
100.622266
 20
187.358978
 30
0.0
 10
100.702533
 20
187.795522
 30
0.0
 10
100.776961
 20
188.232984
 30
0.0
 10
100.846591
 20
188.670961
 30
0.0
 10
100.912470
 20
189.109055
 30
0.0
 10
100.975639
 20
189.546869
 30
0.0
 10
101.037144
 20
189.984000
 30
0.0
 10
101.098031
 20
190.420051
 30
0.0
 10
101.159338
 20
190.854625
 30
0.0
 10
101.222115
 20
191.287319
 30
0.0
 10
101.287402
 20
191.717739
 30
0.0
 10
101.641134
 20
192.395711
 30
0.0
 10
102.000219
 20
193.070879
 30
0.0
 10
102.364813
 20
193.743082
 30
0.0
 10
102.735069
 20
194.412160
 30
0.0
 10
103.111144
 20
195.077948
 30
0.0
 10
103.493194
 20
195.740284
 30
0.0
 10
103.881377
 20
196.399002
 30
0.0
 10
104.275845
 20
197.053944
 30
0.0
 10
104.676755
 20
197.704946
 30
0.0
 10
105.084262
 20
198.351841
 30
0.0
 10
105.498522
 20
198.994473
 30
0.0
 10
105.919693
 20
199.632676
 30
0.0
 10
106.347929
 20
200.266287
 30
0.0
 10
106.783383
 20
200.895143
 30
0.0
 10
107.226213
 20
201.519083
 30
0.0
 10
107.676577
 20
202.137943
 30
0.0
 10
108.174843
 20
202.183248
 30
0.0
 10
108.681870
 20
202.240593
 30
0.0
 10
109.196050
 20
202.305478
 30
0.0
 10
109.715771
 20
202.373398
 30
0.0
 10
110.239429
 20
202.439844
 30
0.0
 10
110.765409
 20
202.500313
 30
0.0
 10
111.292109
 20
202.550300
 30
0.0
 10
111.817917
 20
202.585299
 30
0.0
 10
112.341228
 20
202.600793
 30
0.0
 10
112.860429
 20
202.592298
 30
0.0
 10
113.373913
 20
202.555307
 30
0.0
 10
113.880073
 20
202.485310
 30
0.0
 10
114.377298
 20
202.377798
 30
0.0
 10
114.863981
 20
202.228271
 30
0.0
 10
115.338513
 20
202.032222
 30
0.0
 10
115.799286
 20
201.785145
 30
0.0
 10
116.216057
 20
201.365596
 30
0.0
 10
116.583022
 20
200.917230
 30
0.0
 10
116.904360
 20
200.442860
 30
0.0
 10
117.184246
 20
199.945296
 30
0.0
 10
117.426853
 20
199.427351
 30
0.0
 10
117.636360
 20
198.891837
 30
0.0
 10
117.816943
 20
198.341568
 30
0.0
 10
117.972775
 20
197.779353
 30
0.0
 10
118.108035
 20
197.208009
 30
0.0
 10
118.226896
 20
196.630342
 30
0.0
 10
118.333534
 20
196.049168
 30
0.0
 10
118.432128
 20
195.467299
 30
0.0
 10
118.526850
 20
194.887544
 30
0.0
 10
118.621880
 20
194.312719
 30
0.0
 10
118.721389
 20
193.745636
 30
0.0
 10
118.829556
 20
193.189105
 30
0.0
 10
119.053567
 20
191.431843
 30
0.0
 10
119.207043
 20
189.671637
 30
0.0
 10
119.291898
 20
187.909955
 30
0.0
 10
119.310045
 20
186.148264
 30
0.0
 10
119.263414
 20
184.388030
 30
0.0
 10
119.153914
 20
182.630723
 30
0.0
 10
118.983466
 20
180.877807
 30
0.0
 10
118.753983
 20
179.130747
 30
0.0
 10
118.467383
 20
177.391011
 30
0.0
 10
118.125587
 20
175.660068
 30
0.0
 10
117.730510
 20
173.939382
 30
0.0
 10
117.284065
 20
172.230422
 30
0.0
 10
116.788175
 20
170.534653
 30
0.0
 10
116.244756
 20
168.853543
 30
0.0
 10
115.655725
 20
167.188556
 30
0.0
 10
115.022997
 20
165.541160
 30
0.0
 10
114.088322
 20
162.951043
 30
0.0
 10
113.143433
 20
160.364470
 30
0.0
 10
112.190812
 20
157.780585
 30
0.0
 10
111.232944
 20
155.198523
 30
0.0
 10
110.272308
 20
152.617417
 30
0.0
 10
109.311389
 20
150.036407
 30
0.0
 10
108.352672
 20
147.454633
 30
0.0
 10
107.398636
 20
144.871227
 30
0.0
 10
106.451769
 20
142.285326
 30
0.0
 10
105.514552
 20
139.696073
 30
0.0
 10
104.589470
 20
137.102597
 30
0.0
 10
103.679001
 20
134.504042
 30
0.0
 10
102.785635
 20
131.899543
 30
0.0
 10
101.911850
 20
129.288234
 30
0.0
 10
101.060131
 20
126.669254
 30
0.0
 10
100.232960
 20
124.041742
 30
0.0
 10
99.704068
 20
122.544774
 30
0.0
 10
99.175705
 20
121.045609
 30
0.0
 10
98.649877
 20
119.543995
 30
0.0
 10
98.128590
 20
118.039669
 30
0.0
 10
97.613845
 20
116.532376
 30
0.0
 10
97.107648
 20
115.021858
 30
0.0
 10
96.612007
 20
113.507854
 30
0.0
 10
96.128924
 20
111.990108
 30
0.0
 10
95.660404
 20
110.468361
 30
0.0
 10
95.208451
 20
108.942357
 30
0.0
 10
94.775071
 20
107.411835
 30
0.0
 10
94.362267
 20
105.876537
 30
0.0
 10
93.972044
 20
104.336205
 30
0.0
 10
93.606411
 20
102.790584
 30
0.0
 10
93.267366
 20
101.239414
 30
0.0
 10
92.956919
 20
99.682437
 30
0.0
 10
92.649590
 20
98.174159
 30
0.0
 10
92.366510
 20
96.661663
 30
0.0
 10
92.106620
 20
95.145271
 30
0.0
 10
91.868856
 20
93.625313
 30
0.0
 10
91.652157
 20
92.102112
 30
0.0
 10
91.455465
 20
90.575995
 30
0.0
 10
91.277713
 20
89.047287
 30
0.0
 10
91.117843
 20
87.516317
 30
0.0
 10
90.974793
 20
85.983407
 30
0.0
 10
90.847500
 20
84.448883
 30
0.0
 10
90.734899
 20
82.913072
 30
0.0
 10
90.635934
 20
81.376301
 30
0.0
 10
90.549543
 20
79.838893
 30
0.0
 10
90.474661
 20
78.301177
 30
0.0
 10
90.410227
 20
76.763475
 30
0.0
 10
90.355183
 20
75.226117
 30
0.0
 10
90.349595
 20
74.727163
 30
0.0
 10
90.382149
 20
74.226009
 30
0.0
 10
90.452400
 20
73.726928
 30
0.0
 10
90.559890
 20
73.234187
 30
0.0
 10
90.704167
 20
72.752059
 30
0.0
 10
90.884770
 20
72.284809
 30
0.0
 10
91.101246
 20
71.836707
 30
0.0
 10
91.353137
 20
71.412028
 30
0.0
 10
91.639991
 20
71.015034
 30
0.0
 10
91.961346
 20
70.650000
 30
0.0
 10
92.316751
 20
70.321194
 30
0.0
 10
92.705747
 20
70.032884
 30
0.0
 10
93.127878
 20
69.789340
 30
0.0
 10
93.582690
 20
69.594836
 30
0.0
 10
94.069724
 20
69.453634
 30
0.0
 10
94.588527
 20
69.370006
 30
0.0
 10
94.960996
 20
69.381464
 30
0.0
 10
95.323651
 20
69.432335
 30
0.0
 10
95.677558
 20
69.518195
 30
0.0
 10
96.023785
 20
69.634643
 30
0.0
 10
96.363403
 20
69.777267
 30
0.0
 10
96.697475
 20
69.941661
 30
0.0
 10
97.027071
 20
70.123413
 30
0.0
 10
97.353261
 20
70.318121
 30
0.0
 10
97.677111
 20
70.521371
 30
0.0
 10
97.999688
 20
70.728757
 30
0.0
 10
98.322062
 20
70.935871
 30
0.0
 10
98.645302
 20
71.138306
 30
0.0
 10
98.970473
 20
71.331654
 30
0.0
 10
99.298641
 20
71.511503
 30
0.0
 10
99.630882
 20
71.673450
 30
0.0
 10
99.968256
 20
71.813083
 30
0.0
 10
101.516496
 20
72.683608
 30
0.0
 10
103.065063
 20
73.562355
 30
0.0
 10
104.613532
 20
74.448392
 30
0.0
 10
106.161470
 20
75.340787
 30
0.0
 10
107.708449
 20
76.238607
 30
0.0
 10
109.254041
 20
77.140922
 30
0.0
 10
110.797817
 20
78.046801
 30
0.0
 10
112.339351
 20
78.955311
 30
0.0
 10
113.878210
 20
79.865523
 30
0.0
 10
115.413968
 20
80.776500
 30
0.0
 10
116.946194
 20
81.687313
 30
0.0
 10
118.474461
 20
82.597031
 30
0.0
 10
119.998340
 20
83.504722
 30
0.0
 10
121.517401
 20
84.409456
 30
0.0
 10
123.031219
 20
85.310298
 30
0.0
 10
124.539361
 20
86.206317
 30
0.0
 10
125.775231
 20
87.316625
 30
0.0
 10
127.021578
 20
88.419360
 30
0.0
 10
128.274253
 20
89.518079
 30
0.0
 10
129.529100
 20
90.616336
 30
0.0
 10
130.781969
 20
91.717688
 30
0.0
 10
132.028706
 20
92.825690
 30
0.0
 10
133.265164
 20
93.943894
 30
0.0
 10
134.487183
 20
95.075856
 30
0.0
 10
135.690615
 20
96.225133
 30
0.0
 10
136.871309
 20
97.395280
 30
0.0
 10
138.025110
 20
98.589847
 30
0.0
 10
139.147866
 20
99.812397
 30
0.0
 10
140.235426
 20
101.066477
 30
0.0
 10
141.283636
 20
102.355646
 30
0.0
 10
142.288347
 20
103.683459
 30
0.0
 10
143.245402
 20
105.053470
 30
0.0
 10
144.330798
 20
106.573508
 30
0.0
 10
145.393858
 20
108.108633
 30
0.0
 10
146.435685
 20
109.657971
 30
0.0
 10
147.457377
 20
111.220635
 30
0.0
 10
148.460031
 20
112.795748
 30
0.0
 10
149.444749
 20
114.382427
 30
0.0
 10
150.412628
 20
115.979794
 30
0.0
 10
151.364766
 20
117.586962
 30
0.0
 10
152.302263
 20
119.203056
 30
0.0
 10
153.226219
 20
120.827195
 30
0.0
 10
154.137735
 20
122.458493
 30
0.0
 10
155.037905
 20
124.096076
 30
0.0
 10
155.927831
 20
125.739055
 30
0.0
 10
156.808613
 20
127.386558
 30
0.0
 10
157.681351
 20
129.037697
 30
0.0
 10
158.547138
 20
130.691595
 30
0.0
 10
158.254358
 20
130.011772
 30
0.0
 10
157.965586
 20
129.328267
 30
0.0
 10
157.680987
 20
128.641468
 30
0.0
 10
157.400726
 20
127.951759
 30
0.0
 10
157.124978
 20
127.259519
 30
0.0
 10
156.853904
 20
126.565136
 30
0.0
 10
156.587675
 20
125.868996
 30
0.0
 10
156.326459
 20
125.171478
 30
0.0
 10
156.070421
 20
124.472969
 30
0.0
 10
155.819732
 20
123.773854
 30
0.0
 10
155.574557
 20
123.074516
 30
0.0
 10
155.335063
 20
122.375336
 30
0.0
 10
155.101422
 20
121.676703
 30
0.0
 10
154.873799
 20
120.978999
 30
0.0
 10
154.652362
 20
120.282607
 30
0.0
 10
154.437277
 20
119.587914
 30
0.0
 10
154.408333
 20
119.398134
 30
0.0
 10
154.411917
 20
119.221788
 30
0.0
 10
154.445069
 20
119.059778
 30
0.0
 10
154.504850
 20
118.913008
 30
0.0
 10
154.588308
 20
118.782382
 30
0.0
 10
154.692494
 20
118.668807
 30
0.0
 10
154.814456
 20
118.573182
 30
0.0
 10
154.951252
 20
118.496412
 30
0.0
 10
155.099929
 20
118.439403
 30
0.0
 10
155.257539
 20
118.403055
 30
0.0
 10
155.421132
 20
118.388267
 30
0.0
 10
155.587762
 20
118.395971
 30
0.0
 10
155.754476
 20
118.427036
 30
0.0
 10
155.918329
 20
118.482382
 30
0.0
 10
156.076367
 20
118.562909
 30
0.0
 10
156.225649
 20
118.669524
 30
0.0
 10
157.703997
 20
119.252174
 30
0.0
 10
159.189242
 20
119.815250
 30
0.0
 10
160.681088
 20
120.359101
 30
0.0
 10
162.179248
 20
120.884082
 30
0.0
 10
163.683425
 20
121.390550
 30
0.0
 10
165.193328
 20
121.878856
 30
0.0
 10
166.708661
 20
122.349352
 30
0.0
 10
168.229136
 20
122.802397
 30
0.0
 10
169.754459
 20
123.238343
 30
0.0
 10
171.284335
 20
123.657542
 30
0.0
 10
172.818473
 20
124.060349
 30
0.0
 10
174.356578
 20
124.447121
 30
0.0
 10
175.898361
 20
124.818206
 30
0.0
 10
177.443528
 20
125.173964
 30
0.0
 10
178.991785
 20
125.514745
 30
0.0
 10
180.542838
 20
125.840903
 30
0.0
 10
180.956071
 20
125.931254
 30
0.0
 10
181.346204
 20
126.060881
 30
0.0
 10
181.713200
 20
126.227105
 30
0.0
 10
182.057023
 20
126.427243
 30
0.0
 10
182.377630
 20
126.658608
 30
0.0
 10
182.674991
 20
126.918521
 30
0.0
 10
182.949062
 20
127.204299
 30
0.0
 10
183.199811
 20
127.513256
 30
0.0
 10
183.427198
 20
127.842717
 30
0.0
 10
183.631188
 20
128.189991
 30
0.0
 10
183.811739
 20
128.552401
 30
0.0
 10
183.968819
 20
128.927263
 30
0.0
 10
184.102389
 20
129.311892
 30
0.0
 10
184.212410
 20
129.703608
 30
0.0
 10
184.298844
 20
130.099730
 30
0.0
 10
184.361658
 20
130.497570
 30
0.0
 10
184.529972
 20
131.473240
 30
0.0
 10
184.737152
 20
132.439939
 30
0.0
 10
184.976849
 20
133.399102
 30
0.0
 10
185.242711
 20
134.352158
 30
0.0
 10
185.528390
 20
135.300546
 30
0.0
 10
185.827537
 20
136.245697
 30
0.0
 10
186.133802
 20
137.189042
 30
0.0
 10
186.440834
 20
138.132020
 30
0.0
 10
186.742287
 20
139.076062
 30
0.0
 10
187.031810
 20
140.022604
 30
0.0
 10
187.303051
 20
140.973075
 30
0.0
 10
187.549666
 20
141.928911
 30
0.0
 10
187.765300
 20
142.891548
 30
0.0
 10
187.943605
 20
143.862415
 30
0.0
 10
188.078237
 20
144.842948
 30
0.0
 10
188.162838
 20
145.834584
 30
0.0
 10
188.854768
 20
147.375924
 30
0.0
 10
189.556099
 20
148.914198
 30
0.0
 10
190.268225
 20
150.448327
 30
0.0
 10
190.992548
 20
151.977235
 30
0.0
 10
191.730466
 20
153.499841
 30
0.0
 10
192.483378
 20
155.015061
 30
0.0
 10
193.252685
 20
156.521820
 30
0.0
 10
194.039786
 20
158.019034
 30
0.0
 10
194.846078
 20
159.505626
 30
0.0
 10
195.672964
 20
160.980516
 30
0.0
 10
196.521840
 20
162.442622
 30
0.0
 10
197.394107
 20
163.890865
 30
0.0
 10
198.291162
 20
165.324165
 30
0.0
 10
199.214407
 20
166.741442
 30
0.0
 10
200.165242
 20
168.141617
 30
0.0
 10
201.145061
 20
169.523612
 30
0.0
 10
201.526583
 20
168.413093
 30
0.0
 10
201.864231
 20
167.291694
 30
0.0
 10
202.160756
 20
166.160417
 30
0.0
 10
202.418913
 20
165.020268
 30
0.0
 10
202.641457
 20
163.872250
 30
0.0
 10
202.831141
 20
162.717366
 30
0.0
 10
202.990715
 20
161.556617
 30
0.0
 10
203.122933
 20
160.391008
 30
0.0
 10
203.230553
 20
159.221544
 30
0.0
 10
203.316323
 20
158.049227
 30
0.0
 10
203.382998
 20
156.875061
 30
0.0
 10
203.433330
 20
155.700046
 30
0.0
 10
203.470075
 20
154.525191
 30
0.0
 10
203.495983
 20
153.351494
 30
0.0
 10
203.513820
 20
152.179964
 30
0.0
 10
203.526322
 20
151.011598
 30
0.0
 10
203.487257
 20
149.364651
 30
0.0
 10
203.393062
 20
147.718098
 30
0.0
 10
203.254237
 20
146.071879
 30
0.0
 10
203.081277
 20
144.425923
 30
0.0
 10
202.884684
 20
142.780166
 30
0.0
 10
202.674951
 20
141.134540
 30
0.0
 10
202.462576
 20
139.488978
 30
0.0
 10
202.258060
 20
137.843414
 30
0.0
 10
202.071898
 20
136.197782
 30
0.0
 10
201.914590
 20
134.552014
 30
0.0
 10
201.796630
 20
132.906043
 30
0.0
 10
201.728518
 20
131.259804
 30
0.0
 10
201.720757
 20
129.613232
 30
0.0
 10
201.783834
 20
127.966257
 30
0.0
 10
201.928256
 20
126.318813
 30
0.0
 10
202.164512
 20
124.670835
 30
0.0
 10
202.373949
 20
123.339407
 30
0.0
 10
202.604991
 20
122.010191
 30
0.0
 10
202.858765
 20
120.684274
 30
0.0
 10
203.136401
 20
119.362738
 30
0.0
 10
203.439028
 20
118.046665
 30
0.0
 10
203.767769
 20
116.737140
 30
0.0
 10
204.123755
 20
115.435246
 30
0.0
 10
204.508114
 20
114.142067
 30
0.0
 10
204.921973
 20
112.858684
 30
0.0
 10
205.366456
 20
111.586181
 30
0.0
 10
205.842698
 20
110.325641
 30
0.0
 10
206.351821
 20
109.078148
 30
0.0
 10
206.894955
 20
107.844786
 30
0.0
 10
207.473228
 20
106.626636
 30
0.0
 10
208.087767
 20
105.424781
 30
0.0
 10
208.739697
 20
104.240309
 30
0.0
 10
209.202234
 20
103.436825
 30
0.0
 10
209.668832
 20
102.632633
 30
0.0
 10
210.140832
 20
101.829284
 30
0.0
 10
210.619585
 20
101.028326
 30
0.0
 10
211.106438
 20
100.231314
 30
0.0
 10
211.602737
 20
99.439796
 30
0.0
 10
212.109829
 20
98.655329
 30
0.0
 10
212.629064
 20
97.879460
 30
0.0
 10
213.161787
 20
97.113740
 30
0.0
 10
213.709343
 20
96.359725
 30
0.0
 10
214.273082
 20
95.618962
 30
0.0
 10
214.854352
 20
94.893004
 30
0.0
 10
215.454498
 20
94.183407
 30
0.0
 10
216.074870
 20
93.491715
 30
0.0
 10
216.716813
 20
92.819484
 30
0.0
 10
217.381672
 20
92.168264
 30
0.0
 10
217.790031
 20
91.825390
 30
0.0
 10
218.224142
 20
91.508525
 30
0.0
 10
218.680876
 20
91.220178
 30
0.0
 10
219.157093
 20
90.962862
 30
0.0
 10
219.649655
 20
90.739088
 30
0.0
 10
220.155428
 20
90.551363
 30
0.0
 10
220.671274
 20
90.402200
 30
0.0
 10
221.194057
 20
90.294111
 30
0.0
 10
221.720638
 20
90.229604
 30
0.0
 10
222.247883
 20
90.211203
 30
0.0
 10
222.772658
 20
90.241395
 30
0.0
 10
223.291820
 20
90.322700
 30
0.0
 10
223.802239
 20
90.457634
 30
0.0
 10
224.300773
 20
90.648701
 30
0.0
 10
224.784288
 20
90.898417
 30
0.0
 10
225.249647
 20
91.209290
 30
0.0
 10
226.666360
 20
92.007152
 30
0.0
 10
228.089547
 20
92.793220
 30
0.0
 10
229.518354
 20
93.569021
 30
0.0
 10
230.951918
 20
94.336075
 30
0.0
 10
232.389392
 20
95.095911
 30
0.0
 10
233.829911
 20
95.850045
 30
0.0
 10
235.272625
 20
96.600003
 30
0.0
 10
236.716674
 20
97.347310
 30
0.0
 10
238.161203
 20
98.093486
 30
0.0
 10
239.605357
 20
98.840060
 30
0.0
 10
241.048280
 20
99.588547
 30
0.0
 10
242.489115
 20
100.340477
 30
0.0
 10
243.927006
 20
101.097372
 30
0.0
 10
245.361096
 20
101.860752
 30
0.0
 10
246.790529
 20
102.632144
 30
0.0
 10
248.214450
 20
103.413070
 30
0.0
 10
249.137316
 20
104.073755
 30
0.0
 10
250.041971
 20
104.757935
 30
0.0
 10
250.929577
 20
105.463886
 30
0.0
 10
251.801285
 20
106.189889
 30
0.0
 10
252.658262
 20
106.934221
 30
0.0
 10
253.501657
 20
107.695166
 30
0.0
 10
254.332632
 20
108.470998
 30
0.0
 10
255.152347
 20
109.260001
 30
0.0
 10
255.961958
 20
110.060453
 30
0.0
 10
256.762625
 20
110.870634
 30
0.0
 10
257.555503
 20
111.688822
 30
0.0
 10
258.341752
 20
112.513298
 30
0.0
 10
259.122528
 20
113.342342
 30
0.0
 10
259.898994
 20
114.174232
 30
0.0
 10
260.672303
 20
115.007247
 30
0.0
 10
261.443616
 20
115.839667
 30
0.0
 10
261.516941
 20
115.103818
 30
0.0
 10
261.627586
 20
114.360919
 30
0.0
 10
261.776467
 20
113.616400
 30
0.0
 10
261.964503
 20
112.875694
 30
0.0
 10
262.192609
 20
112.144233
 30
0.0
 10
262.461699
 20
111.427448
 30
0.0
 10
262.772691
 20
110.730774
 30
0.0
 10
263.126502
 20
110.059635
 30
0.0
 10
263.524049
 20
109.419468
 30
0.0
 10
263.966246
 20
108.815707
 30
0.0
 10
264.454008
 20
108.253777
 30
0.0
 10
264.988257
 20
107.739114
 30
0.0
 10
265.569903
 20
107.277147
 30
0.0
 10
266.199868
 20
106.873309
 30
0.0
 10
266.879064
 20
106.533034
 30
0.0
 10
267.608408
 20
106.261751
 30
0.0
 10
268.332734
 20
106.119262
 30
0.0
 10
269.052051
 20
106.049709
 30
0.0
 10
269.766169
 20
106.046887
 30
0.0
 10
270.474903
 20
106.104883
 30
0.0
 10
271.178065
 20
106.217490
 30
0.0
 10
271.875470
 20
106.378596
 30
0.0
 10
272.566928
 20
106.582096
 30
0.0
 10
273.252254
 20
106.821880
 30
0.0
 10
273.931258
 20
107.091834
 30
0.0
 10
274.603754
 20
107.385850
 30
0.0
 10
275.269559
 20
107.697824
 30
0.0
 10
275.928480
 20
108.021643
 30
0.0
 10
276.580332
 20
108.351194
 30
0.0
 10
277.224927
 20
108.680376
 30
0.0
 10
277.862081
 20
109.003071
 30
0.0
 10
278.491603
 20
109.313177
 30
0.0
 10
279.715795
 20
110.027594
 30
0.0
 10
280.943117
 20
110.734042
 30
0.0
 10
282.173107
 20
111.433730
 30
0.0
 10
283.405303
 20
112.127884
 30
0.0
 10
284.639235
 20
112.817714
 30
0.0
 10
285.874437
 20
113.504439
 30
0.0
 10
287.110458
 20
114.189280
 30
0.0
 10
288.346817
 20
114.873449
 30
0.0
 10
289.583063
 20
115.558168
 30
0.0
 10
290.818745
 20
116.244651
 30
0.0
 10
292.053382
 20
116.934117
 30
0.0
 10
293.286524
 20
117.627785
 30
0.0
 10
294.517662
 20
118.326869
 30
0.0
 10
295.746401
 20
119.032586
 30
0.0
 10
296.972233
 20
119.746156
 30
0.0
 10
298.194707
 20
120.468795
 30
0.0
 10
299.386221
 20
121.155182
 30
0.0
 10
300.577481
 20
121.842009
 30
0.0
 10
301.768515
 20
122.529223
 30
0.0
 10
302.959352
 20
123.216781
 30
0.0
 10
304.150019
 20
123.904633
 30
0.0
 10
305.340546
 20
124.592730
 30
0.0
 10
306.530959
 20
125.281020
 30
0.0
 10
307.721288
 20
125.969461
 30
0.0
 10
308.911588
 20
126.657999
 30
0.0
 10
310.101832
 20
127.346584
 30
0.0
 10
311.292076
 20
128.035176
 30
0.0
 10
312.482320
 20
128.723716
 30
0.0
 10
313.672649
 20
129.412163
 30
0.0
 10
314.863062
 20
130.100464
 30
0.0
 10
316.053588
 20
130.788572
 30
0.0
 10
317.244256
 20
131.476441
 30
0.0
 10
317.106898
 20
131.721599
 30
0.0
 10
317.026352
 20
131.920357
 30
0.0
 10
316.995194
 20
132.076104
 30
0.0
 10
317.005919
 20
132.192241
 30
0.0
 10
317.051074
 20
132.272161
 30
0.0
 10
317.123239
 20
132.319261
 30
0.0
 10
317.214876
 20
132.336928
 30
0.0
 10
317.318536
 20
132.328574
 30
0.0
 10
317.426797
 20
132.297586
 30
0.0
 10
317.532122
 20
132.247365
 30
0.0
 10
317.627118
 20
132.181297
 30
0.0
 10
317.704250
 20
132.102785
 30
0.0
 10
317.756094
 20
132.015226
 30
0.0
 10
317.775285
 20
131.922008
 30
0.0
 10
317.754118
 20
131.826535
 30
0.0
 10
317.685256
 20
131.732196
 30
0.0
 10
317.846574
 20
131.854449
 30
0.0
 10
318.007356
 20
131.987243
 30
0.0
 10
318.166501
 20
132.129469
 30
0.0
 10
318.323050
 20
132.280024
 30
0.0
 10
318.475902
 20
132.437803
 30
0.0
 10
318.624040
 20
132.601698
 30
0.0
 10
318.766393
 20
132.770605
 30
0.0
 10
318.901972
 20
132.943421
 30
0.0
 10
319.029706
 20
133.119036
 30
0.0
 10
319.148550
 20
133.296348
 30
0.0
 10
319.257460
 20
133.474252
 30
0.0
 10
319.355419
 20
133.651638
 30
0.0
 10
319.441356
 20
133.827406
 30
0.0
 10
319.514254
 20
134.000447
 30
0.0
 10
319.573069
 20
134.169659
 30
0.0
 10
319.616728
 20
134.333932
 30
0.0
 10
319.554583
 20
134.398477
 30
0.0
 10
319.468816
 20
134.421958
 30
0.0
 10
319.362192
 20
134.411290
 30
0.0
 10
319.237478
 20
134.373429
 30
0.0
 10
319.097411
 20
134.315317
 30
0.0
 10
318.944786
 20
134.243898
 30
0.0
 10
318.782310
 20
134.166115
 30
0.0
 10
318.612751
 20
134.088907
 30
0.0
 10
318.438874
 20
134.019221
 30
0.0
 10
318.263445
 20
133.963996
 30
0.0
 10
318.089229
 20
133.930177
 30
0.0
 10
317.918936
 20
133.924702
 30
0.0
 10
317.755360
 20
133.954519
 30
0.0
 10
317.601267
 20
134.026570
 30
0.0
 10
317.459394
 20
134.147796
 30
0.0
 10
317.332478
 20
134.325138
 30
0.0
 10
317.105741
 20
134.516330
 30
0.0
 10
316.868900
 20
134.730599
 30
0.0
 10
316.622633
 20
134.960556
 30
0.0
 10
316.367589
 20
135.198822
 30
0.0
 10
316.104473
 20
135.438008
 30
0.0
 10
315.833878
 20
135.670726
 30
0.0
 10
315.556510
 20
135.889595
 30
0.0
 10
315.273018
 20
136.087224
 30
0.0
 10
314.984079
 20
136.256230
 30
0.0
 10
314.690342
 20
136.389227
 30
0.0
 10
314.392456
 20
136.478830
 30
0.0
 10
314.091128
 20
136.517649
 30
0.0
 10
313.786949
 20
136.498317
 30
0.0
 10
313.480653
 20
136.413419
 30
0.0
 10
313.172833
 20
136.255581
 30
0.0
 10
312.864223
 20
136.017419
 30
0.0
 10
311.795363
 20
135.410181
 30
0.0
 10
310.726587
 20
134.802932
 30
0.0
 10
309.657784
 20
134.195982
 30
0.0
 10
308.588754
 20
133.589645
 30
0.0
 10
307.519358
 20
132.984233
 30
0.0
 10
306.449453
 20
132.380060
 30
0.0
 10
305.378843
 20
131.777434
 30
0.0
 10
304.307415
 20
131.176673
 30
0.0
 10
303.234998
 20
130.578088
 30
0.0
 10
302.161425
 20
129.981990
 30
0.0
 10
301.086525
 20
129.388691
 30
0.0
 10
300.010186
 20
128.798505
 30
0.0
 10
298.932238
 20
128.211745
 30
0.0
 10
297.852484
 20
127.628722
 30
0.0
 10
296.770811
 20
127.049749
 30
0.0
 10
295.687050
 20
126.475139
 30
0.0
 10
295.434461
 20
126.355251
 30
0.0
 10
295.171740
 20
126.218000
 30
0.0
 10
294.900468
 20
126.069560
 30
0.0
 10
294.622254
 20
125.916099
 30
0.0
 10
294.338648
 20
125.763789
 30
0.0
 10
294.051346
 20
125.618797
 30
0.0
 10
293.761871
 20
125.487299
 30
0.0
 10
293.471831
 20
125.375462
 30
0.0
 10
293.182864
 20
125.289455
 30
0.0
 10
292.896549
 20
125.235455
 30
0.0
 10
292.614468
 20
125.219622
 30
0.0
 10
292.338257
 20
125.248135
 30
0.0
 10
292.069497
 20
125.327163
 30
0.0
 10
291.809796
 20
125.462878
 30
0.0
 10
291.560735
 20
125.661444
 30
0.0
 10
291.323951
 20
125.929039
 30
0.0
 10
290.876487
 20
126.676721
 30
0.0
 10
290.489984
 20
127.446816
 30
0.0
 10
290.159332
 20
128.237091
 30
0.0
 10
289.879537
 20
129.045325
 30
0.0
 10
289.645519
 20
129.869290
 30
0.0
 10
289.452253
 20
130.706759
 30
0.0
 10
289.294660
 20
131.555505
 30
0.0
 10
289.167716
 20
132.413303
 30
0.0
 10
289.066342
 20
133.277925
 30
0.0
 10
288.985514
 20
134.147146
 30
0.0
 10
288.920151
 20
135.018739
 30
0.0
 10
288.865231
 20
135.890478
 30
0.0
 10
288.815701
 20
136.760135
 30
0.0
 10
288.766509
 20
137.625485
 30
0.0
 10
288.712605
 20
138.484301
 30
0.0
 10
288.648936
 20
139.334357
 30
0.0
 10
288.586367
 20
141.429829
 30
0.0
 10
288.557806
 20
143.524914
 30
0.0
 10
288.557806
 20
145.619672
 30
0.0
 10
288.584335
 20
147.714161
 30
0.0
 10
288.631833
 20
149.808442
 30
0.0
 10
288.696095
 20
151.902571
 30
0.0
 10
288.772775
 20
153.996606
 30
0.0
 10
288.857611
 20
156.090607
 30
0.0
 10
288.946257
 20
158.184634
 30
0.0
 10
289.034423
 20
160.278745
 30
0.0
 10
289.117791
 20
162.373001
 30
0.0
 10
289.192072
 20
164.467459
 30
0.0
 10
289.252948
 20
166.562178
 30
0.0
 10
289.296128
 20
168.657215
 30
0.0
 10
289.317294
 20
170.752630
 30
0.0
 10
289.312214
 20
172.848483
 30
0.0
 10
289.490409
 20
173.561475
 30
0.0
 10
289.661972
 20
174.275856
 30
0.0
 10
289.826790
 20
174.991583
 30
0.0
 10
289.984834
 20
175.708622
 30
0.0
 10
290.136049
 20
176.426934
 30
0.0
 10
290.280378
 20
177.146488
 30
0.0
 10
290.417735
 20
177.867238
 30
0.0
 10
290.548094
 20
178.589157
 30
0.0
 10
290.671396
 20
179.312199
 30
0.0
 10
290.787587
 20
180.036333
 30
0.0
 10
290.896582
 20
180.761520
 30
0.0
 10
290.998351
 20
181.487723
 30
0.0
 10
291.092811
 20
182.214902
 30
0.0
 10
291.179933
 20
182.943027
 30
0.0
 10
291.259632
 20
183.672058
 30
0.0
 10
291.331853
 20
184.401955
 30
0.0
 10
291.457442
 20
184.615823
 30
0.0
 10
291.604649
 20
184.826463
 30
0.0
 10
291.768846
 20
185.034853
 30
0.0
 10
291.945404
 20
185.241967
 30
0.0
 10
292.129695
 20
185.448780
 30
0.0
 10
292.317091
 20
185.656266
 30
0.0
 10
292.502962
 20
185.865402
 30
0.0
 10
292.682653
 20
186.077159
 30
0.0
 10
292.851563
 20
186.292514
 30
0.0
 10
293.005036
 20
186.512444
 30
0.0
 10
293.138470
 20
186.737923
 30
0.0
 10
293.247210
 20
186.969921
 30
0.0
 10
293.326628
 20
187.209420
 30
0.0
 10
293.372094
 20
187.457392
 30
0.0
 10
293.379149
 20
187.714809
 30
0.0
 10
293.342827
 20
187.982650
 30
0.0
 10
293.161274
 20
188.160396
 30
0.0
 10
292.974556
 20
188.280451
 30
0.0
 10
292.783265
 20
188.349059
 30
0.0
 10
292.588024
 20
188.372455
 30
0.0
 10
292.389452
 20
188.356905
 30
0.0
 10
292.188115
 20
188.308642
 30
0.0
 10
291.984689
 20
188.233912
 30
0.0
 10
291.779740
 20
188.138958
 30
0.0
 10
291.573887
 20
188.030023
 30
0.0
 10
291.367752
 20
187.913353
 30
0.0
 10
291.161927
 20
187.795189
 30
0.0
 10
290.957034
 20
187.681781
 30
0.0
 10
290.753692
 20
187.579368
 30
0.0
 10
290.552496
 20
187.494196
 30
0.0
 10
290.354066
 20
187.432508
 30
0.0
 10
290.159022
 20
187.400552
 30
0.0
 10
288.594241
 20
186.681715
 30
0.0
 10
287.020034
 20
185.982335
 30
0.0
 10
285.436569
 20
185.303187
 30
0.0
 10
283.843989
 20
184.645053
 30
0.0
 10
282.242519
 20
184.008707
 30
0.0
 10
280.632303
 20
183.394927
 30
0.0
 10
279.013530
 20
182.804493
 30
0.0
 10
277.386378
 20
182.238177
 30
0.0
 10
275.751024
 20
181.696762
 30
0.0
 10
274.107644
 20
181.181021
 30
0.0
 10
272.456416
 20
180.691735
 30
0.0
 10
270.797514
 20
180.229678
 30
0.0
 10
269.131118
 20
179.795629
 30
0.0
 10
267.457408
 20
179.390366
 30
0.0
 10
265.776557
 20
179.014663
 30
0.0
 10
264.088744
 20
178.669302
 30
0.0
 10
263.735526
 20
178.601586
 30
0.0
 10
263.396024
 20
178.502393
 30
0.0
 10
263.071644
 20
178.373440
 30
0.0
 10
262.763784
 20
178.216451
 30
0.0
 10
262.473857
 20
178.033139
 30
0.0
 10
262.203263
 20
177.825226
 30
0.0
 10
261.953409
 20
177.594431
 30
0.0
 10
261.725695
 20
177.342471
 30
0.0
 10
261.521527
 20
177.071064
 30
0.0
 10
261.342313
 20
176.781933
 30
0.0
 10
261.189453
 20
176.476788
 30
0.0
 10
261.064352
 20
176.157358
 30
0.0
 10
260.968419
 20
175.825355
 30
0.0
 10
260.903054
 20
175.482500
 30
0.0
 10
260.869661
 20
175.130512
 30
0.0
 10
260.869647
 20
174.771108
 30
0.0
 10
260.798835
 20
173.773283
 30
0.0
 10
260.765434
 20
172.775531
 30
0.0
 10
260.764305
 20
171.777879
 30
0.0
 10
260.790241
 20
170.780353
 30
0.0
 10
260.838089
 20
169.782982
 30
0.0
 10
260.902690
 20
168.785790
 30
0.0
 10
260.978878
 20
167.788803
 30
0.0
 10
261.061485
 20
166.792051
 30
0.0
 10
261.145347
 20
165.795558
 30
0.0
 10
261.225301
 20
164.799350
 30
0.0
 10
261.296175
 20
163.803456
 30
0.0
 10
261.352809
 20
162.807900
 30
0.0
 10
261.390037
 20
161.812708
 30
0.0
 10
261.402680
 20
160.817908
 30
0.0
 10
261.385606
 20
159.823530
 30
0.0
 10
261.333618
 20
158.829594
 30
0.0
 10
260.740623
 20
155.818669
 30
0.0
 10
260.046820
 20
152.831166
 30
0.0
 10
259.254924
 20
149.868934
 30
0.0
 10
258.367662
 20
146.933814
 30
0.0
 10
257.387759
 20
144.027653
 30
0.0
 10
256.317930
 20
141.152297
 30
0.0
 10
255.160901
 20
138.309591
 30
0.0
 10
253.919397
 20
135.501384
 30
0.0
 10
252.596136
 20
132.729516
 30
0.0
 10
251.193844
 20
129.995835
 30
0.0
 10
249.715243
 20
127.302185
 30
0.0
 10
248.163051
 20
124.650417
 30
0.0
 10
246.539997
 20
122.042367
 30
0.0
 10
244.848800
 20
119.479891
 30
0.0
 10
243.092181
 20
116.964828
 30
0.0
 10
241.272867
 20
114.499024
 30
0.0
 10
241.128214
 20
114.186119
 30
0.0
 10
240.982452
 20
113.959678
 30
0.0
 10
240.835758
 20
113.811827
 30
0.0
 10
240.688320
 20
113.734699
 30
0.0
 10
240.540314
 20
113.720418
 30
0.0
 10
240.391927
 20
113.761118
 30
0.0
 10
240.243337
 20
113.848928
 30
0.0
 10
240.094725
 20
113.975974
 30
0.0
 10
239.946276
 20
114.134385
 30
0.0
 10
239.798168
 20
114.316291
 30
0.0
 10
239.650586
 20
114.513821
 30
0.0
 10
239.503709
 20
114.719104
 30
0.0
 10
239.357718
 20
114.924268
 30
0.0
 10
239.212800
 20
115.121443
 30
0.0
 10
239.069132
 20
115.302759
 30
0.0
 10
238.926895
 20
115.460344
 30
0.0
 10
238.165547
 20
116.473759
 30
0.0
 10
237.442152
 20
117.511106
 30
0.0
 10
236.756775
 20
118.571282
 30
0.0
 10
236.109470
 20
119.653178
 30
0.0
 10
235.500302
 20
120.755694
 30
0.0
 10
234.929327
 20
121.877722
 30
0.0
 10
234.396604
 20
123.018162
 30
0.0
 10
233.902193
 20
124.175902
 30
0.0
 10
233.446159
 20
125.349845
 30
0.0
 10
233.028555
 20
126.538884
 30
0.0
 10
232.649443
 20
127.741913
 30
0.0
 10
232.308882
 20
128.957828
 30
0.0
 10
232.006936
 20
130.185523
 30
0.0
 10
231.743656
 20
131.423897
 30
0.0
 10
231.519109
 20
132.671844
 30
0.0
 10
231.333353
 20
133.928261
 30
0.0
 10
231.157243
 20
134.922964
 30
0.0
 10
231.012816
 20
135.920179
 30
0.0
 10
230.898189
 20
136.919593
 30
0.0
 10
230.811479
 20
137.920892
 30
0.0
 10
230.750801
 20
138.923772
 30
0.0
 10
230.714273
 20
139.927918
 30
0.0
 10
230.700021
 20
140.933022
 30
0.0
 10
230.706145
 20
141.938774
 30
0.0
 10
230.730755
 20
142.944860
 30
0.0
 10
230.771985
 20
143.950974
 30
0.0
 10
230.827949
 20
144.956805
 30
0.0
 10
230.896761
 20
145.962041
 30
0.0
 10
230.976534
 20
146.966371
 30
0.0
 10
231.065389
 20
147.969485
 30
0.0
 10
231.161440
 20
148.971075
 30
0.0
 10
231.262803
 20
149.970830
 30
0.0
 10
231.446468
 20
151.850986
 30
0.0
 10
231.600778
 20
153.734328
 30
0.0
 10
231.725529
 20
155.620287
 30
0.0
 10
231.820519
 20
157.508288
 30
0.0
 10
231.885549
 20
159.397761
 30
0.0
 10
231.920420
 20
161.288136
 30
0.0
 10
231.924936
 20
163.178838
 30
0.0
 10
231.898887
 20
165.069298
 30
0.0
 10
231.842070
 20
166.958945
 30
0.0
 10
231.754287
 20
168.847207
 30
0.0
 10
231.635336
 20
170.733512
 30
0.0
 10
231.485022
 20
172.617292
 30
0.0
 10
231.303141
 20
174.497970
 30
0.0
 10
231.089490
 20
176.374977
 30
0.0
 10
230.843870
 20
178.247741
 30
0.0
 10
230.566081
 20
180.115691
 30
0.0
 10
230.435102
 20
180.967489
 30
0.0
 10
230.273493
 20
181.823009
 30
0.0
 10
230.079572
 20
182.677936
 30
0.0
 10
229.851664
 20
183.527955
 30
0.0
 10
229.588085
 20
184.368752
 30
0.0
 10
229.287163
 20
185.196013
 30
0.0
 10
228.947212
 20
186.005426
 30
0.0
 10
228.566559
 20
186.792671
 30
0.0
 10
228.143522
 20
187.553440
 30
0.0
 10
227.676422
 20
188.283414
 30
0.0
 10
227.163579
 20
188.978282
 30
0.0
 10
226.603317
 20
189.633726
 30
0.0
 10
225.993954
 20
190.245434
 30
0.0
 10
225.333817
 20
190.809091
 30
0.0
 10
224.621217
 20
191.320385
 30
0.0
 10
223.854484
 20
191.774997
 30
0.0
 10
223.377926
 20
192.019449
 30
0.0
 10
222.884303
 20
192.235747
 30
0.0
 10
222.376317
 20
192.422527
 30
0.0
 10
221.856672
 20
192.578430
 30
0.0
 10
221.328081
 20
192.702097
 30
0.0
 10
220.793242
 20
192.792165
 30
0.0
 10
220.254864
 20
192.847275
 30
0.0
 10
219.715650
 20
192.866071
 30
0.0
 10
219.178304
 20
192.847190
 30
0.0
 10
218.645537
 20
192.789264
 30
0.0
 10
218.120047
 20
192.690938
 30
0.0
 10
217.604546
 20
192.550854
 30
0.0
 10
217.101736
 20
192.367646
 30
0.0
 10
216.614318
 20
192.139961
 30
0.0
 10
216.145005
 20
191.866431
 30
0.0
 10
215.696498
 20
191.545702
 30
0.0
 10
213.955122
 20
190.603108
 30
0.0
 10
212.202637
 20
189.676104
 30
0.0
 10
210.441991
 20
188.760203
 30
0.0
 10
208.676138
 20
187.850911
 30
0.0
 10
206.908024
 20
186.943742
 30
0.0
 10
205.140602
 20
186.034199
 30
0.0
 10
203.376820
 20
185.117801
 30
0.0
 10
201.619629
 20
184.190049
 30
0.0
 10
199.871979
 20
183.246458
 30
0.0
 10
198.136817
 20
182.282537
 30
0.0
 10
196.417099
 20
181.293797
 30
0.0
 10
194.715773
 20
180.275745
 30
0.0
 10
193.035786
 20
179.223894
 30
0.0
 10
191.380090
 20
178.133752
 30
0.0
 10
189.751637
 20
177.000827
 30
0.0
 10
188.153373
 20
175.820633
 30
0.0
 10
188.141576
 20
176.700492
 30
0.0
 10
188.128819
 20
177.585730
 30
0.0
 10
188.111717
 20
178.474831
 30
0.0
 10
188.086853
 20
179.366275
 30
0.0
 10
188.050805
 20
180.258546
 30
0.0
 10
188.000160
 20
181.150123
 30
0.0
 10
187.931504
 20
182.039484
 30
0.0
 10
187.841421
 20
182.925117
 30
0.0
 10
187.726500
 20
183.805501
 30
0.0
 10
187.583323
 20
184.679117
 30
0.0
 10
187.408478
 20
185.544444
 30
0.0
 10
187.198550
 20
186.399964
 30
0.0
 10
186.950121
 20
187.244162
 30
0.0
 10
186.659779
 20
188.075515
 30
0.0
 10
186.324110
 20
188.892509
 30
0.0
 10
185.939698
 20
189.693619
 30
0.0
 10
185.704214
 20
189.878997
 30
0.0
 10
185.461433
 20
190.000945
 30
0.0
 10
185.212335
 20
190.066167
 30
0.0
 10
184.957906
 20
190.081378
 30
0.0
 10
184.699134
 20
190.053269
 30
0.0
 10
184.437000
 20
189.988547
 30
0.0
 10
184.172490
 20
189.893923
 30
0.0
 10
183.906592
 20
189.776096
 30
0.0
 10
183.640284
 20
189.641775
 30
0.0
 10
183.374555
 20
189.497664
 30
0.0
 10
183.110389
 20
189.350468
 30
0.0
 10
182.848772
 20
189.206887
 30
0.0
 10
182.590688
 20
189.073633
 30
0.0
 10
182.337120
 20
188.957409
 30
0.0
 10
182.089055
 20
188.864916
 30
0.0
 10
181.847476
 20
188.802864
 30
0.0
 10
180.179686
 20
188.029637
 30
0.0
 10
178.521687
 20
187.236031
 30
0.0
 10
176.872459
 20
186.424235
 30
0.0
 10
175.230984
 20
185.596441
 30
0.0
 10
173.596252
 20
184.754840
 30
0.0
 10
171.967242
 20
183.901618
 30
0.0
 10
170.342941
 20
183.038966
 30
0.0
 10
168.722328
 20
182.169075
 30
0.0
 10
167.104393
 20
181.294133
 30
0.0
 10
165.488115
 20
180.416331
 30
0.0
 10
163.872480
 20
179.537861
 30
0.0
 10
162.256473
 20
178.660912
 30
0.0
 10
160.639074
 20
177.787668
 30
0.0
 10
159.019268
 20
176.920326
 30
0.0
 10
157.396041
 20
176.061072
 30
0.0
 10
155.768378
 20
175.212100
 30
0.0
 10
155.083764
 20
173.884089
 30
0.0
 10
154.426539
 20
172.543697
 30
0.0
 10
153.793765
 20
171.192160
 30
0.0
 10
153.182503
 20
169.830723
 30
0.0
 10
152.589811
 20
168.460619
 30
0.0
 10
152.012751
 20
167.083092
 30
0.0
 10
151.448380
 20
165.699382
 30
0.0
 10
150.893763
 20
164.310730
 30
0.0
 10
150.345953
 20
162.918370
 30
0.0
 10
149.802017
 20
161.523549
 30
0.0
 10
149.259010
 20
160.127503
 30
0.0
 10
148.713997
 20
158.731473
 30
0.0
 10
148.164030
 20
157.336700
 30
0.0
 10
147.606179
 20
155.944419
 30
0.0
 10
147.037495
 20
154.555877
 30
0.0
 10
146.455045
 20
153.172308
 30
0.0
 10
145.449702
 20
150.621609
 30
0.0
 10
144.436456
 20
148.073032
 30
0.0
 10
143.412551
 20
145.528198
 30
0.0
 10
142.375218
 20
142.988720
 30
0.0
 10
141.321702
 20
140.456224
 30
0.0
 10
140.249238
 20
137.932328
 30
0.0
 10
139.155065
 20
135.418648
 30
0.0
 10
138.036421
 20
132.916807
 30
0.0
 10
136.890548
 20
130.428423
 30
0.0
 10
135.714678
 20
127.955115
 30
0.0
 10
134.506055
 20
125.498503
 30
0.0
 10
133.261915
 20
123.060207
 30
0.0
 10
131.979498
 20
120.641845
 30
0.0
 10
130.656039
 20
118.245036
 30
0.0
 10
129.288780
 20
115.871401
 30
0.0
 10
127.874959
 20
113.522558
 30
0.0
 10
127.377331
 20
112.680362
 30
0.0
 10
126.876429
 20
111.840014
 30
0.0
 10
126.372095
 20
111.001642
 30
0.0
 10
125.864171
 20
110.165384
 30
0.0
 10
125.352502
 20
109.331372
 30
0.0
 10
124.836933
 20
108.499742
 30
0.0
 10
124.317305
 20
107.670624
 30
0.0
 10
123.793464
 20
106.844159
 30
0.0
 10
123.265254
 20
106.020473
 30
0.0
 10
122.732515
 20
105.199703
 30
0.0
 10
122.195093
 20
104.381984
 30
0.0
 10
121.652834
 20
103.567451
 30
0.0
 10
121.105577
 20
102.756235
 30
0.0
 10
120.553166
 20
101.948472
 30
0.0
 10
119.995450
 20
101.144294
 30
0.0
 10
119.432267
 20
100.343836
 30
0.0
 10
119.525053
 20
101.962383
 30
0.0
 10
119.651562
 20
103.576720
 30
0.0
 10
119.810504
 20
105.186812
 30
0.0
 10
120.000584
 20
106.792628
 30
0.0
 10
120.220505
 20
108.394137
 30
0.0
 10
120.468971
 20
109.991306
 30
0.0
 10
120.744691
 20
111.584106
 30
0.0
 10
121.046367
 20
113.172504
 30
0.0
 10
121.372706
 20
114.756468
 30
0.0
 10
121.722413
 20
116.335967
 30
0.0
 10
122.094190
 20
117.910964
 30
0.0
 10
122.486750
 20
119.481435
 30
0.0
 10
122.898789
 20
121.047342
 30
0.0
 10
123.329020
 20
122.608655
 30
0.0
 10
123.776141
 20
124.165344
 30
0.0
 10
124.238864
 20
125.717378
 30
0.0
 10
125.260523
 20
129.100875
 30
0.0
 10
126.322356
 20
132.472358
 30
0.0
 10
127.420697
 20
135.832837
 30
0.0
 10
128.551880
 20
139.183317
 30
0.0
 10
129.712234
 20
142.524803
 30
0.0
 10
130.898095
 20
145.858305
 30
0.0
 10
132.105792
 20
149.184827
 30
0.0
 10
133.331664
 20
152.505375
 30
0.0
 10
134.572036
 20
155.820955
 30
0.0
 10
135.823246
 20
159.132576
 30
0.0
 10
137.081627
 20
162.441245
 30
0.0
 10
138.343507
 20
165.747964
 30
0.0
 10
139.605224
 20
169.053743
 30
0.0
 10
140.863105
 20
172.359587
 30
0.0
 10
142.113491
 20
175.666503
 30
0.0
 10
143.352706
 20
178.975496
 30
0.0
 10
143.968902
 20
180.738699
 30
0.0
 10
144.540520
 20
182.516897
 30
0.0
 10
145.066323
 20
184.308915
 30
0.0
 10
145.545059
 20
186.113574
 30
0.0
 10
145.975493
 20
187.929702
 30
0.0
 10
146.356375
 20
189.756120
 30
0.0
 10
146.686464
 20
191.591654
 30
0.0
 10
146.964515
 20
193.435127
 30
0.0
 10
147.189286
 20
195.285361
 30
0.0
 10
147.359531
 20
197.141181
 30
0.0
 10
147.474008
 20
199.001415
 30
0.0
 10
147.531474
 20
200.864881
 30
0.0
 10
147.530628
 20
202.730403
 30
0.0
 10
147.470337
 20
204.596809
 30
0.0
 10
147.349303
 20
206.462922
 30
0.0
 10
147.166282
 20
208.327564
 30
0.0
 10
147.043106
 20
209.121086
 30
0.0
 10
146.917401
 20
209.926345
 30
0.0
 10
146.785002
 20
210.739613
 30
0.0
 10
146.641735
 20
211.557149
 30
0.0
 10
146.483431
 20
212.375221
 30
0.0
 10
146.305916
 20
213.190095
 30
0.0
 10
146.105022
 20
213.998032
 30
0.0
 10
145.876580
 20
214.795305
 30
0.0
 10
145.616419
 20
215.578169
 30
0.0
 10
145.320365
 20
216.342898
 30
0.0
 10
144.984250
 20
217.085752
 30
0.0
 10
144.603904
 20
217.802998
 30
0.0
 10
144.175158
 20
218.490900
 30
0.0
 10
143.693836
 20
219.145723
 30
0.0
 10
143.155774
 20
219.763734
 30
0.0
 10
142.556797
 20
220.341197
 30
0.0
 10
141.815924
 20
220.870093
 30
0.0
 10
141.044103
 20
221.304424
 30
0.0
 10
140.244717
 20
221.651225
 30
0.0
 10
139.421144
 20
221.917527
 30
0.0
 10
138.576764
 20
222.110363
 30
0.0
 10
137.714961
 20
222.236765
 30
0.0
 10
136.839113
 20
222.303767
 30
0.0
 10
135.952599
 20
222.318415
 30
0.0
 10
135.058802
 20
222.287712
 30
0.0
 10
134.161101
 20
222.218709
 30
0.0
 10
133.262875
 20
222.118435
 30
0.0
 10
132.367508
 20
221.993924
 30
0.0
 10
131.478375
 20
221.852209
 30
0.0
 10
130.598864
 20
221.700320
 30
0.0
 10
129.732348
 20
221.545292
 30
0.0
 10
128.882210
 20
221.394160
 30
0.0
 10
128.073895
 20
221.237814
 30
0.0
 10
127.265218
 20
221.076578
 30
0.0
 10
126.457326
 20
220.908277
 30
0.0
 10
125.651367
 20
220.730748
 30
0.0
 10
124.848487
 20
220.541820
 30
0.0
 10
124.049838
 20
220.339323
 30
0.0
 10
123.256567
 20
220.121089
 30
0.0
 10
122.469819
 20
219.884951
 30
0.0
 10
121.690751
 20
219.628738
 30
0.0
 10
120.920501
 20
219.350281
 30
0.0
 10
120.160220
 20
219.047414
 30
0.0
 10
119.411061
 20
218.717968
 30
0.0
 10
118.674168
 20
218.359771
 30
0.0
 10
117.950691
 20
217.970660
 30
0.0
 10
117.241777
 20
217.548459
 30
0.0
 10
116.548574
 20
217.091005
 30
0.0
 10
115.460684
 20
216.484444
 30
0.0
 10
114.369901
 20
215.871841
 30
0.0
 10
113.276789
 20
215.254398
 30
0.0
 10
112.181922
 20
214.633312
 30
0.0
 10
111.085858
 20
214.009778
 30
0.0
 10
109.989165
 20
213.385001
 30
0.0
 10
108.892413
 20
212.760178
 30
0.0
 10
107.796163
 20
212.136506
 30
0.0
 10
106.700983
 20
211.515188
 30
0.0
 10
105.607440
 20
210.897421
 30
0.0
 10
104.516095
 20
210.284403
 30
0.0
 10
103.427521
 20
209.677334
 30
0.0
 10
102.342278
 20
209.077412
 30
0.0
 10
101.260938
 20
208.485837
 30
0.0
 10
100.184060
 20
207.903810
 30
0.0
 10
99.112214
 20
207.332528
 30
0.0
 10
98.837761
 20
208.187195
 30
0.0
 10
98.559210
 20
209.045261
 30
0.0
 10
98.274211
 20
209.904662
 30
0.0
 10
97.980409
 20
210.763340
 30
0.0
 10
97.675451
 20
211.619238
 30
0.0
 10
97.356992
 20
212.470296
 30
0.0
 10
97.022671
 20
213.314459
 30
0.0
 10
96.670145
 20
214.149662
 30
0.0
 10
96.297053
 20
214.973852
 30
0.0
 10
95.901050
 20
215.784968
 30
0.0
 10
95.479782
 20
216.580953
 30
0.0
 10
95.030896
 20
217.359745
 30
0.0
 10
94.552042
 20
218.119287
 30
0.0
 10
94.040867
 20
218.857524
 30
0.0
 10
93.495018
 20
219.572390
 30
0.0
 10
92.912144
 20
220.261833
 30
0.0
 10
92.708479
 20
220.435149
 30
0.0
 10
92.500616
 20
220.620230
 30
0.0
 10
92.288348
 20
220.813431
 30
0.0
 10
92.071461
 20
221.011105
 30
0.0
 10
91.849744
 20
221.209606
 30
0.0
 10
91.622987
 20
221.405288
 30
0.0
 10
91.390975
 20
221.594506
 30
0.0
 10
91.153502
 20
221.773610
 30
0.0
 10
90.910350
 20
221.938961
 30
0.0
 10
90.661309
 20
222.086908
 30
0.0
 10
90.406172
 20
222.213806
 30
0.0
 10
90.144724
 20
222.316010
 30
0.0
 10
89.876751
 20
222.389873
 30
0.0
 10
89.602047
 20
222.431750
 30
0.0
 10
89.320395
 20
222.437987
 30
0.0
 10
89.031589
 20
222.404953
 30
0.0
 10
87.598103
 20
221.705606
 30
0.0
 10
86.148802
 20
221.038531
 30
0.0
 10
84.686651
 20
220.397785
 30
0.0
 10
83.214630
 20
219.777424
 30
0.0
 10
81.735712
 20
219.171507
 30
0.0
 10
80.252872
 20
218.574088
 30
0.0
 10
78.769080
 20
217.979226
 30
0.0
 10
77.287312
 20
217.380974
 30
0.0
 10
75.810544
 20
216.773394
 30
0.0
 10
74.341747
 20
216.150544
 30
0.0
 10
72.883894
 20
215.506473
 30
0.0
 10
71.439964
 20
214.835247
 30
0.0
 10
70.012924
 20
214.130917
 30
0.0
 10
68.605752
 20
213.387541
 30
0.0
 10
67.221424
 20
212.599178
 30
0.0
 10
65.862908
 20
211.759883
 30
0.0
 10
65.635101
 20
212.451172
 30
0.0
 10
65.386915
 20
213.148301
 30
0.0
 10
65.116422
 20
213.846146
 30
0.0
 10
64.821692
 20
214.539575
 30
0.0
 10
64.500799
 20
215.223458
 30
0.0
 10
64.151815
 20
215.892675
 30
0.0
 10
63.772810
 20
216.542094
 30
0.0
 10
63.361858
 20
217.166586
 30
0.0
 10
62.917027
 20
217.761025
 30
0.0
 10
62.436392
 20
218.320285
 30
0.0
 10
61.918026
 20
218.839236
 30
0.0
 10
61.359996
 20
219.312748
 30
0.0
 10
60.760375
 20
219.735698
 30
0.0
 10
60.117239
 20
220.102953
 30
0.0
 10
59.428656
 20
220.409393
 30
0.0
 10
58.692700
 20
220.649883
 30
0.0
 10
58.002658
 20
220.796303
 30
0.0
 10
57.308072
 20
220.898338
 30
0.0
 10
56.610634
 20
220.957186
 30
0.0
 10
55.912035
 20
220.974035
 30
0.0
 10
55.213969
 20
220.950103
 30
0.0
 10
54.518122
 20
220.886574
 30
0.0
 10
53.826190
 20
220.784647
 30
0.0
 10
53.139862
 20
220.645520
 30
0.0
 10
52.460832
 20
220.470390
 30
0.0
 10
51.790789
 20
220.260453
 30
0.0
 10
51.131425
 20
220.016907
 30
0.0
 10
50.484430
 20
219.740950
 30
0.0
 10
49.851499
 20
219.433776
 30
0.0
 10
49.234321
 20
219.096586
 30
0.0
 10
48.634588
 20
218.730575
 30
0.0
 10
48.053989
 20
218.336942
 30
0.0
 10
46.763395
 20
217.591015
 30
0.0
 10
45.467210
 20
216.856142
 30
0.0
 10
44.166126
 20
216.130997
 30
0.0
 10
42.860832
 20
215.414269
 30
0.0
 10
41.552009
 20
214.704627
 30
0.0
 10
40.240353
 20
214.000750
 30
0.0
 10
38.926547
 20
213.301325
 30
0.0
 10
37.611278
 20
212.605020
 30
0.0
 10
36.295237
 20
211.910522
 30
0.0
 10
34.979110
 20
211.216507
 30
0.0
 10
33.663588
 20
210.521653
 30
0.0
 10
32.349355
 20
209.824637
 30
0.0
 10
31.037101
 20
209.124142
 30
0.0
 10
29.727513
 20
208.418843
 30
0.0
 10
28.421279
 20
207.707420
 30
0.0
 10
27.119089
 20
206.988552
 30
0.0
 10
26.967340
 20
206.862173
 30
0.0
 10
26.819623
 20
206.790475
 30
0.0
 10
26.675789
 20
206.767869
 30
0.0
 10
26.535685
 20
206.788810
 30
0.0
 10
26.399163
 20
206.847709
 30
0.0
 10
26.266072
 20
206.938989
 30
0.0
 10
26.136261
 20
207.057079
 30
0.0
 10
26.009580
 20
207.196401
 30
0.0
 10
25.885878
 20
207.351380
 30
0.0
 10
25.765006
 20
207.516443
 30
0.0
 10
25.646813
 20
207.686014
 30
0.0
 10
25.531149
 20
207.854517
 30
0.0
 10
25.417863
 20
208.016380
 30
0.0
 10
25.306805
 20
208.166026
 30
0.0
 10
25.197825
 20
208.297880
 30
0.0
 10
25.090772
 20
208.406369
 30
0.0
 10
24.878826
 20
208.714025
 30
0.0
 10
24.658418
 20
209.019226
 30
0.0
 10
24.433163
 20
209.323222
 30
0.0
 10
24.206676
 20
209.627257
 30
0.0
 10
23.982576
 20
209.932585
 30
0.0
 10
23.764477
 20
210.240447
 30
0.0
 10
23.555995
 20
210.552096
 30
0.0
 10
23.360748
 20
210.868778
 30
0.0
 10
23.182350
 20
211.191739
 30
0.0
 10
23.024419
 20
211.522229
 30
0.0
 10
22.890571
 20
211.861494
 30
0.0
 10
22.784420
 20
212.210787
 30
0.0
 10
22.709585
 20
212.571348
 30
0.0
 10
22.669680
 20
212.944429
 30
0.0
 10
22.668326
 20
213.331277
 30
0.0
 10
22.709131
 20
213.733141
 30
0.0
 10
22.635181
 20
215.164087
 30
0.0
 10
22.547293
 20
216.594587
 30
0.0
 10
22.443619
 20
218.023983
 30
0.0
 10
22.322309
 20
219.451613
 30
0.0
 10
22.181515
 20
220.876815
 30
0.0
 10
22.019386
 20
222.298930
 30
0.0
 10
21.834074
 20
223.717294
 30
0.0
 10
21.623729
 20
225.131250
 30
0.0
 10
21.386503
 20
226.540135
 30
0.0
 10
21.120545
 20
227.943287
 30
0.0
 10
20.824007
 20
229.340050
 30
0.0
 10
20.495040
 20
230.729757
 30
0.0
 10
20.131794
 20
232.111752
 30
0.0
 10
19.732420
 20
233.485370
 30
0.0
 10
19.295068
 20
234.849951
 30
0.0
 10
18.817890
 20
236.204838
 30
0.0
 10
18.513257
 20
237.085693
 30
0.0
 10
18.209771
 20
237.971608
 30
0.0
 10
17.904502
 20
238.860396
 30
0.0
 10
17.594524
 20
239.749882
 30
0.0
 10
17.276909
 20
240.637883
 30
0.0
 10
16.948729
 20
241.522212
 30
0.0
 10
16.607057
 20
242.400696
 30
0.0
 10
16.248965
 20
243.271149
 30
0.0
 10
15.871526
 20
244.131387
 30
0.0
 10
15.471811
 20
244.979234
 30
0.0
 10
15.046895
 20
245.812506
 30
0.0
 10
14.593847
 20
246.629023
 30
0.0
 10
14.109742
 20
247.426600
 30
0.0
 10
13.591651
 20
248.203061
 30
0.0
 10
13.036647
 20
248.956219
 30
0.0
 10
12.441803
 20
249.683898
 30
0.0
 10
12.271745
 20
249.852040
 30
0.0
 10
12.093697
 20
250.012532
 30
0.0
 10
11.908106
 20
250.164762
 30
0.0
 10
11.715421
 20
250.308114
 30
0.0
 10
11.516088
 20
250.441972
 30
0.0
 10
11.310556
 20
250.565727
 30
0.0
 10
11.099272
 20
250.678759
 30
0.0
 10
10.882684
 20
250.780455
 30
0.0
 10
10.661240
 20
250.870202
 30
0.0
 10
10.435387
 20
250.947381
 30
0.0
 10
10.205574
 20
251.011384
 30
0.0
 10
9.972249
 20
251.061594
 30
0.0
 10
9.735858
 20
251.097394
 30
0.0
 10
9.496849
 20
251.118165
 30
0.0
 10
9.255672
 20
251.123302
 30
0.0
 10
9.013472
 20
251.112431
 30
0.0
  0
LWPOLYLINE
  5
101
100
AcDbEntity
  8
Layer_1
 62
7
100
AcDbPolyline
 90
161
 70
1
 10
282.460361
 20
235.255069
 30
0.0
 10
282.116894
 20
235.235991
 30
0.0
 10
281.771149
 20
235.214458
 30
0.0
 10
281.424442
 20
235.188352
 30
0.0
 10
281.078093
 20
235.155527
 30
0.0
 10
280.733413
 20
235.113860
 30
0.0
 10
280.391723
 20
235.061222
 30
0.0
 10
280.054338
 20
234.995481
 30
0.0
 10
279.722577
 20
234.914512
 30
0.0
 10
279.397754
 20
234.816183
 30
0.0
 10
279.081188
 20
234.698366
 30
0.0
 10
278.774192
 20
234.558929
 30
0.0
 10
278.478087
 20
234.395745
 30
0.0
 10
278.194189
 20
234.206682
 30
0.0
 10
277.923811
 20
233.989613
 30
0.0
 10
277.668276
 20
233.742409
 30
0.0
 10
277.428895
 20
233.462939
 30
0.0
 10
276.940978
 20
233.075572
 30
0.0
 10
276.455855
 20
232.683503
 30
0.0
 10
275.972024
 20
232.289258
 30
0.0
 10
275.487988
 20
231.895358
 30
0.0
 10
275.002244
 20
231.504330
 30
0.0
 10
274.513297
 20
231.118699
 30
0.0
 10
274.019642
 20
230.740987
 30
0.0
 10
273.519784
 20
230.373717
 30
0.0
 10
273.012219
 20
230.019415
 30
0.0
 10
272.495447
 20
229.680608
 30
0.0
 10
271.967974
 20
229.359814
 30
0.0
 10
271.428295
 20
229.059558
 30
0.0
 10
270.874911
 20
228.782371
 30
0.0
 10
270.306320
 20
228.530769
 30
0.0
 10
269.721028
 20
228.307280
 30
0.0
 10
269.117532
 20
228.114427
 30
0.0
 10
267.495491
 20
227.428359
 30
0.0
 10
265.873907
 20
226.740868
 30
0.0
 10
264.252690
 20
226.052235
 30
0.0
 10
262.631755
 20
225.362732
 30
0.0
 10
261.011007
 20
224.672639
 30
0.0
 10
259.390363
 20
223.982236
 30
0.0
 10
257.769727
 20
223.291799
 30
0.0
 10
256.149012
 20
222.601608
 30
0.0
 10
254.528128
 20
221.911941
 30
0.0
 10
252.906987
 20
221.223077
 30
0.0
 10
251.285499
 20
220.535292
 30
0.0
 10
249.663577
 20
219.848863
 30
0.0
 10
248.041126
 20
219.164071
 30
0.0
 10
246.418060
 20
218.481194
 30
0.0
 10
244.794289
 20
217.800508
 30
0.0
 10
243.169722
 20
217.122294
 30
0.0
 10
242.938763
 20
216.620580
 30
0.0
 10
242.680744
 20
216.121396
 30
0.0
 10
242.403082
 20
215.623567
 30
0.0
 10
242.113192
 20
215.125919
 30
0.0
 10
241.818487
 20
214.627284
 30
0.0
 10
241.526387
 20
214.126480
 30
0.0
 10
241.244303
 20
213.622338
 30
0.0
 10
240.979650
 20
213.113686
 30
0.0
 10
240.739843
 20
212.599348
 30
0.0
 10
240.532299
 20
212.078148
 30
0.0
 10
240.364431
 20
211.548916
 30
0.0
 10
240.243656
 20
211.010479
 30
0.0
 10
240.177388
 20
210.461658
 30
0.0
 10
240.173042
 20
209.901286
 30
0.0
 10
240.238032
 20
209.328183
 30
0.0
 10
240.379775
 20
208.741181
 30
0.0
 10
240.647090
 20
207.925945
 30
0.0
 10
240.972072
 20
207.140509
 30
0.0
 10
241.350792
 20
206.384303
 30
0.0
 10
241.779326
 20
205.656754
 30
0.0
 10
242.253753
 20
204.957300
 30
0.0
 10
242.770144
 20
204.285363
 30
0.0
 10
243.324572
 20
203.640375
 30
0.0
 10
243.913118
 20
203.021770
 30
0.0
 10
244.531854
 20
202.428976
 30
0.0
 10
245.176853
 20
201.861421
 30
0.0
 10
245.844193
 20
201.318539
 30
0.0
 10
246.529947
 20
200.799755
 30
0.0
 10
247.230192
 20
200.304503
 30
0.0
 10
247.940999
 20
199.832215
 30
0.0
 10
248.658448
 20
199.382316
 30
0.0
 10
249.378611
 20
198.954239
 30
0.0
 10
249.898225
 20
198.702821
 30
0.0
 10
250.426212
 20
198.462484
 30
0.0
 10
250.961954
 20
198.234541
 30
0.0
 10
251.504823
 20
198.020304
 30
0.0
 10
252.054196
 20
197.821086
 30
0.0
 10
252.609449
 20
197.638200
 30
0.0
 10
253.169956
 20
197.472959
 30
0.0
 10
253.735095
 20
197.326675
 30
0.0
 10
254.304238
 20
197.200657
 30
0.0
 10
254.876766
 20
197.096223
 30
0.0
 10
255.452050
 20
197.014681
 30
0.0
 10
256.029468
 20
196.957347
 30
0.0
 10
256.608394
 20
196.925532
 30
0.0
 10
257.188205
 20
196.920537
 30
0.0
 10
257.768279
 20
196.943708
 30
0.0
 10
258.347986
 20
196.996322
 30
0.0
 10
259.720478
 20
197.746311
 30
0.0
 10
261.116267
 20
198.453743
 30
0.0
 10
262.531366
 20
199.125793
 30
0.0
 10
263.961798
 20
199.769630
 30
0.0
 10
265.403576
 20
200.392426
 30
0.0
 10
266.852713
 20
201.001358
 30
0.0
 10
268.305235
 20
201.603594
 30
0.0
 10
269.757152
 20
202.206311
 30
0.0
 10
271.204487
 20
202.816679
 30
0.0
 10
272.643250
 20
203.441869
 30
0.0
 10
274.069463
 20
204.089055
 30
0.0
 10
275.479140
 20
204.765412
 30
0.0
 10
276.868303
 20
205.478108
 30
0.0
 10
278.232960
 20
206.234319
 30
0.0
 10
279.569139
 20
207.041218
 30
0.0
 10
280.872847
 20
207.905975
 30
0.0
 10
281.621518
 20
208.467592
 30
0.0
 10
282.339175
 20
209.065539
 30
0.0
 10
283.024975
 20
209.697973
 30
0.0
 10
283.677981
 20
210.363044
 30
0.0
 10
284.297402
 20
211.058911
 30
0.0
 10
284.882308
 20
211.783722
 30
0.0
 10
285.431879
 20
212.535639
 30
0.0
 10
285.945185
 20
213.312808
 30
0.0
 10
286.421407
 20
214.113391
 30
0.0
 10
286.859641
 20
214.935538
 30
0.0
 10
287.259014
 20
215.777404
 30
0.0
 10
287.618678
 20
216.637143
 30
0.0
 10
287.937758
 20
217.512910
 30
0.0
 10
288.215380
 20
218.402858
 30
0.0
 10
288.450697
 20
219.305145
 30
0.0
 10
288.642778
 20
220.217919
 30
0.0
 10
288.877022
 20
220.793704
 30
0.0
 10
289.097692
 20
221.379938
 30
0.0
 10
289.303319
 20
221.975520
 30
0.0
 10
289.492380
 20
222.579349
 30
0.0
 10
289.663434
 20
223.190312
 30
0.0
 10
289.814931
 20
223.807306
 30
0.0
 10
289.945403
 20
224.429231
 30
0.0
 10
290.053381
 20
225.054977
 30
0.0
 10
290.137370
 20
225.683441
 30
0.0
 10
290.195847
 20
226.313513
 30
0.0
 10
290.227343
 20
226.944096
 30
0.0
 10
290.230447
 20
227.574078
 30
0.0
 10
290.203636
 20
228.202359
 30
0.0
 10
290.145244
 20
228.827831
 30
0.0
 10
290.053917
 20
229.449389
 30
0.0
 10
289.928131
 20
230.065928
 30
0.0
 10
289.720105
 20
230.641041
 30
0.0
 10
289.458598
 20
231.188374
 30
0.0
 10
289.147702
 20
231.706715
 30
0.0
 10
288.791481
 20
232.194849
 30
0.0
 10
288.393971
 20
232.651567
 30
0.0
 10
287.959264
 20
233.075653
 30
0.0
 10
287.491424
 20
233.465896
 30
0.0
 10
286.994515
 20
233.821084
 30
0.0
 10
286.472602
 20
234.140004
 30
0.0
 10
285.929747
 20
234.421444
 30
0.0
 10
285.370016
 20
234.664189
 30
0.0
 10
284.797472
 20
234.867028
 30
0.0
 10
284.216179
 20
235.028750
 30
0.0
 10
283.630229
 20
235.148138
 30
0.0
 10
283.043658
 20
235.223983
 30
0.0
 10
282.460361
 20
235.255069
 30
0.0
  0
LWPOLYLINE
  5
102
100
AcDbEntity
  8
Layer_1
 62
7
100
AcDbPolyline
 90
145
 70
1
 10
-12.294306
 20
211.327917
 30
0.0
 10
-11.865597
 20
210.353536
 30
0.0
 10
-11.431819
 20
209.381337
 30
0.0
 10
-10.992810
 20
208.411446
 30
0.0
 10
-10.548407
 20
207.443991
 30
0.0
 10
-10.098450
 20
206.479099
 30
0.0
 10
-9.642777
 20
205.516891
 30
0.0
 10
-9.181226
 20
204.557496
 30
0.0
 10
-8.713634
 20
203.601039
 30
0.0
 10
-8.239840
 20
202.647647
 30
0.0
 10
-7.759683
 20
201.697445
 30
0.0
 10
-7.273000
 20
200.750558
 30
0.0
 10
-6.779630
 20
199.807114
 30
0.0
 10
-6.279411
 20
198.867238
 30
0.0
 10
-5.772181
 20
197.931056
 30
0.0
 10
-5.257779
 20
196.998693
 30
0.0
 10
-4.736042
 20
196.070278
 30
0.0
 10
-4.789359
 20
193.789013
 30
0.0
 10
-4.863696
 20
191.507072
 30
0.0
 10
-4.960498
 20
189.225127
 30
0.0
 10
-5.081214
 20
186.943863
 30
0.0
 10
-5.227293
 20
184.663951
 30
0.0
 10
-5.400181
 20
182.386073
 30
0.0
 10
-5.601327
 20
180.110905
 30
0.0
 10
-5.832178
 20
177.839123
 30
0.0
 10
-6.094182
 20
175.571405
 30
0.0
 10
-6.388787
 20
173.308432
 30
0.0
 10
-6.717441
 20
171.050877
 30
0.0
 10
-7.081593
 20
168.799421
 30
0.0
 10
-7.482688
 20
166.554741
 30
0.0
 10
-7.922176
 20
164.317512
 30
0.0
 10
-8.401505
 20
162.088416
 30
0.0
 10
-8.922121
 20
159.868126
 30
0.0
 10
-9.465254
 20
158.015913
 30
0.0
 10
-10.080154
 20
156.183185
 30
0.0
 10
-10.765874
 20
154.373426
 30
0.0
 10
-11.521465
 20
152.590132
 30
0.0
 10
-12.345981
 20
150.836792
 30
0.0
 10
-13.238472
 20
149.116896
 30
0.0
 10
-14.197993
 20
147.433937
 30
0.0
 10
-15.223594
 20
145.791401
 30
0.0
 10
-16.314329
 20
144.192784
 30
0.0
 10
-17.469248
 20
142.641573
 30
0.0
 10
-18.687405
 20
141.141259
 30
0.0
 10
-19.967853
 20
139.695333
 30
0.0
 10
-21.309642
 20
138.307288
 30
0.0
 10
-22.711825
 20
136.980610
 30
0.0
 10
-24.173455
 20
135.718791
 30
0.0
 10
-25.693584
 20
134.525324
 30
0.0
 10
-26.495612
 20
134.238174
 30
0.0
 10
-27.308080
 20
133.980141
 30
0.0
 10
-28.129682
 20
133.752185
 30
0.0
 10
-28.959113
 20
133.555264
 30
0.0
 10
-29.795069
 20
133.390337
 30
0.0
 10
-30.636241
 20
133.258364
 30
0.0
 10
-31.481327
 20
133.160300
 30
0.0
 10
-32.329021
 20
133.097108
 30
0.0
 10
-33.178016
 20
133.069732
 30
0.0
 10
-34.027008
 20
133.079158
 30
0.0
 10
-34.874691
 20
133.126326
 30
0.0
 10
-35.719760
 20
133.212198
 30
0.0
 10
-36.560907
 20
133.337736
 30
0.0
 10
-37.396832
 20
133.503894
 30
0.0
 10
-38.226224
 20
133.711632
 30
0.0
 10
-39.047781
 20
133.961910
 30
0.0
 10
-39.684449
 20
134.158433
 30
0.0
 10
-40.308067
 20
134.387439
 30
0.0
 10
-40.918291
 20
134.647391
 30
0.0
 10
-41.514773
 20
134.936759
 30
0.0
 10
-42.097170
 20
135.254016
 30
0.0
 10
-42.665136
 20
135.597622
 30
0.0
 10
-43.218326
 20
135.966052
 30
0.0
 10
-43.756394
 20
136.357773
 30
0.0
 10
-44.278993
 20
136.771252
 30
0.0
 10
-44.785780
 20
137.204957
 30
0.0
 10
-45.276409
 20
137.657356
 30
0.0
 10
-45.750531
 20
138.126920
 30
0.0
 10
-46.207804
 20
138.612114
 30
0.0
 10
-46.647882
 20
139.111410
 30
0.0
 10
-47.070419
 20
139.623274
 30
0.0
 10
-47.475069
 20
140.146172
 30
0.0
 10
-47.981376
 20
140.993499
 30
0.0
 10
-48.417638
 20
141.864400
 30
0.0
 10
-48.787502
 20
142.756445
 30
0.0
 10
-49.094610
 20
143.667216
 30
0.0
 10
-49.342610
 20
144.594282
 30
0.0
 10
-49.535153
 20
145.535225
 30
0.0
 10
-49.675881
 20
146.487621
 30
0.0
 10
-49.768441
 20
147.449042
 30
0.0
 10
-49.816481
 20
148.417067
 30
0.0
 10
-49.823649
 20
149.389269
 30
0.0
 10
-49.793590
 20
150.363226
 30
0.0
 10
-49.729949
 20
151.336517
 30
0.0
 10
-49.636372
 20
152.306713
 30
0.0
 10
-49.516507
 20
153.271393
 30
0.0
 10
-49.374002
 20
154.228132
 30
0.0
 10
-49.212503
 20
155.174505
 30
0.0
 10
-48.895316
 20
156.961720
 30
0.0
 10
-48.500281
 20
158.724819
 30
0.0
 10
-48.032715
 20
160.464840
 30
0.0
 10
-47.497932
 20
162.182825
 30
0.0
 10
-46.901247
 20
163.879808
 30
0.0
 10
-46.247970
 20
165.556826
 30
0.0
 10
-45.543425
 20
167.214921
 30
0.0
 10
-44.792917
 20
168.855129
 30
0.0
 10
-44.001769
 20
170.478488
 30
0.0
 10
-43.175290
 20
172.086037
 30
0.0
 10
-42.318796
 20
173.678812
 30
0.0
 10
-41.437605
 20
175.257854
 30
0.0
 10
-40.537028
 20
176.824198
 30
0.0
 10
-39.622380
 20
178.378884
 30
0.0
 10
-38.698977
 20
179.922950
 30
0.0
 10
-37.772134
 20
181.457432
 30
0.0
 10
-36.438171
 20
183.558876
 30
0.0
 10
-35.056956
 20
185.624821
 30
0.0
 10
-33.631940
 20
187.657778
 30
0.0
 10
-32.166577
 20
189.660260
 30
0.0
 10
-30.664314
 20
191.634780
 30
0.0
 10
-29.128604
 20
193.583852
 30
0.0
 10
-27.562901
 20
195.509985
 30
0.0
 10
-25.970651
 20
197.415690
 30
0.0
 10
-24.355308
 20
199.303483
 30
0.0
 10
-22.720323
 20
201.175878
 30
0.0
 10
-21.069146
 20
203.035381
 30
0.0
 10
-19.405230
 20
204.884507
 30
0.0
 10
-17.732024
 20
206.725770
 30
0.0
 10
-16.052980
 20
208.561679
 30
0.0
 10
-14.371550
 20
210.394749
 30
0.0
 10
-12.691183
 20
212.227492
 30
0.0
 10
-12.666379
 20
212.171267
 30
0.0
 10
-12.641574
 20
212.115043
 30
0.0
 10
-12.616770
 20
212.058819
 30
0.0
 10
-12.591965
 20
212.002597
 30
0.0
 10
-12.567161
 20
211.946373
 30
0.0
 10
-12.542356
 20
211.890148
 30
0.0
 10
-12.517552
 20
211.833924
 30
0.0
 10
-12.492747
 20
211.777700
 30
0.0
 10
-12.467943
 20
211.721476
 30
0.0
 10
-12.443138
 20
211.665251
 30
0.0
 10
-12.418334
 20
211.609027
 30
0.0
 10
-12.393529
 20
211.552805
 30
0.0
 10
-12.368725
 20
211.496581
 30
0.0
 10
-12.343920
 20
211.440357
 30
0.0
 10
-12.319116
 20
211.384133
 30
0.0
 10
-12.294306
 20
211.327917
 30
0.0
  0
LWPOLYLINE
  5
103
100
AcDbEntity
  8
Layer_1
 62
7
100
AcDbPolyline
 90
81
 70
1
 10
72.248889
 20
184.878403
 30
0.0
 10
72.289043
 20
184.317819
 30
0.0
 10
72.340456
 20
183.751766
 30
0.0
 10
72.398258
 20
183.181561
 30
0.0
 10
72.457572
 20
182.608509
 30
0.0
 10
72.513529
 20
182.033930
 30
0.0
 10
72.561255
 20
181.459128
 30
0.0
 10
72.595875
 20
180.885421
 30
0.0
 10
72.612527
 20
180.314119
 30
0.0
 10
72.606318
 20
179.746533
 30
0.0
 10
72.572389
 20
179.183974
 30
0.0
 10
72.505864
 20
178.627756
 30
0.0
 10
72.401870
 20
178.079192
 30
0.0
 10
72.255535
 20
177.539592
 30
0.0
 10
72.061987
 20
177.010267
 30
0.0
 10
71.816349
 20
176.492531
 30
0.0
 10
71.513751
 20
175.987694
 30
0.0
 10
70.565916
 20
173.916175
 30
0.0
 10
69.627239
 20
171.841190
 30
0.0
 10
68.696513
 20
169.763185
 30
0.0
 10
67.772531
 20
167.682606
 30
0.0
 10
66.854081
 20
165.599899
 30
0.0
 10
65.939958
 20
163.515510
 30
0.0
 10
65.028950
 20
161.429888
 30
0.0
 10
64.119853
 20
159.343478
 30
0.0
 10
63.211456
 20
157.256724
 30
0.0
 10
62.302548
 20
155.170075
 30
0.0
 10
61.391927
 20
153.083975
 30
0.0
 10
60.478379
 20
150.998875
 30
0.0
 10
59.560697
 20
148.915214
 30
0.0
 10
58.637672
 20
146.833447
 30
0.0
 10
57.708100
 20
144.754011
 30
0.0
 10
56.770767
 20
142.677361
 30
0.0
 10
56.832209
 20
143.420537
 30
0.0
 10
56.921513
 20
144.159152
 30
0.0
 10
57.036109
 20
144.893556
 30
0.0
 10
57.173422
 20
145.624100
 30
0.0
 10
57.330885
 20
146.351124
 30
0.0
 10
57.505925
 20
147.074982
 30
0.0
 10
57.695973
 20
147.796017
 30
0.0
 10
57.898456
 20
148.514580
 30
0.0
 10
58.110806
 20
149.231015
 30
0.0
 10
58.330448
 20
149.945676
 30
0.0
 10
58.554818
 20
150.658905
 30
0.0
 10
58.781338
 20
151.371050
 30
0.0
 10
59.007440
 20
152.082459
 30
0.0
 10
59.230556
 20
152.793484
 30
0.0
 10
59.448110
 20
153.504467
 30
0.0
 10
59.657536
 20
154.215757
 30
0.0
 10
60.321323
 20
156.194942
 30
0.0
 10
61.010800
 20
158.164994
 30
0.0
 10
61.723939
 20
160.126532
 30
0.0
 10
62.458704
 20
162.080178
 30
0.0
 10
63.213062
 20
164.026552
 30
0.0
 10
63.984976
 20
165.966274
 30
0.0
 10
64.772419
 20
167.899968
 30
0.0
 10
65.573348
 20
169.828248
 30
0.0
 10
66.385739
 20
171.751739
 30
0.0
 10
67.207551
 20
173.671059
 30
0.0
 10
68.036753
 20
175.586832
 30
0.0
 10
68.871313
 20
177.499675
 30
0.0
 10
69.709194
 20
179.410209
 30
0.0
 10
70.548362
 20
181.319056
 30
0.0
 10
71.386787
 20
183.226836
 30
0.0
 10
72.222433
 20
185.134167
 30
0.0
 10
72.224127
 20
185.118193
 30
0.0
 10
72.225820
 20
185.102219
 30
0.0
 10
72.227513
 20
185.086245
 30
0.0
 10
72.229207
 20
185.070272
 30
0.0
 10
72.230900
 20
185.054298
 30
0.0
 10
72.232593
 20
185.038324
 30
0.0
 10
72.234287
 20
185.022350
 30
0.0
 10
72.235980
 20
185.006376
 30
0.0
 10
72.237673
 20
184.990403
 30
0.0
 10
72.239367
 20
184.974429
 30
0.0
 10
72.241060
 20
184.958455
 30
0.0
 10
72.242753
 20
184.942481
 30
0.0
 10
72.244447
 20
184.926508
 30
0.0
 10
72.246140
 20
184.910534
 30
0.0
 10
72.247833
 20
184.894560
 30
0.0
 10
72.248889
 20
184.878403
 30
0.0
  0
ENDSEC
  0
SECTION
  2
OBJECTS
  0
DICTIONARY
  5
C
330
0
100
AcDbDictionary
  3
ACAD_GROUP
350
D
  3
ACAD_MLINESTYLE
350
17
  0
DICTIONARY
  5
D
330
C
100
AcDbDictionary
  0
DICTIONARY
  5
1A
330
C
100
AcDbDictionary
  0
DICTIONARY
  5
17
330
C
100
AcDbDictionary
  3
STANDARD
350
18
  0
DICTIONARY
  5
19
330
C
100
AcDbDictionary
  0
ENDSEC
  0
EOF
