<?xml version="1.0" encoding="UTF-8" standalone="no"?>
<!-- Created with Inkscape (http://www.inkscape.org/) -->

<svg
   xmlns:dc="http://purl.org/dc/elements/1.1/"
   xmlns:cc="http://creativecommons.org/ns#"
   xmlns:rdf="http://www.w3.org/1999/02/22-rdf-syntax-ns#"
   xmlns:svg="http://www.w3.org/2000/svg"
   xmlns="http://www.w3.org/2000/svg"
   xmlns:sodipodi="http://sodipodi.sourceforge.net/DTD/sodipodi-0.dtd"
   xmlns:inkscape="http://www.inkscape.org/namespaces/inkscape"
   width="744.09448819"
   height="1052.3622047"
   id="svg3783"
   version="1.1"
   inkscape:version="0.48.5 r10040"
   sodipodi:docname="omni.svg">
  <defs
     id="defs3785" />
  <sodipodi:namedview
     id="base"
     pagecolor="#ffffff"
     bordercolor="#666666"
     borderopacity="1.0"
     inkscape:pageopacity="0.0"
     inkscape:pageshadow="2"
     inkscape:zoom="0.64"
     inkscape:cx="358.68769"
     inkscape:cy="496.32702"
     inkscape:document-units="px"
     inkscape:current-layer="layer1"
     showgrid="false"
     inkscape:window-width="1280"
     inkscape:window-height="784"
     inkscape:window-x="0"
     inkscape:window-y="0"
     inkscape:window-maximized="0" />
  <metadata
     id="metadata3788">
    <rdf:RDF>
      <cc:Work
         rdf:about="">
        <dc:format>image/svg+xml</dc:format>
        <dc:type
           rdf:resource="http://purl.org/dc/dcmitype/StillImage" />
        <dc:title />
      </cc:Work>
    </rdf:RDF>
  </metadata>
  <g
     inkscape:label="Layer 1"
     inkscape:groupmode="layer"
     id="layer1">
    <path
       style="font-size:medium;font-style:normal;font-variant:normal;font-weight:normal;font-stretch:normal;text-indent:0;text-align:start;text-decoration:none;line-height:normal;letter-spacing:normal;word-spacing:normal;text-transform:none;direction:ltr;block-progression:tb;writing-mode:lr-tb;text-anchor:start;baseline-shift:baseline;color:#000000;fill-opacity:1;fill-rule:nonzero;stroke:none;stroke-width:1;marker:none;visibility:visible;display:inline;overflow:visible;enable-background:accumulate;font-family:Sans;-inkscape-font-specification:Sans"
       d="m 31.9375,162.59375 -24.1130548,12.72611 -22.0063362,16.64323 -22.016734,16.83642 -24.144247,13.30564 -59.052738,30.87647 -58.07848,32.79368 -55.69715,36.42504 -51.9088,41.77052 -3.35556,4.41865 3.0263,1.21767 5.7685,-1.08013 4.871,-2.47475 24.42165,-9.92278 24.68862,-9.49397 24.43506,-9.90972 23.66099,-11.17 18.27452,-18.00343 20.41324,-15.16393 22.04281,-12.81346 23.163267,-10.95203 10.968103,-5.48694 0.546612,3.64098 -5.705159,8.63753 -7.787211,9.50274 -51.965702,56.10236 -50.34628,58.13352 -43.42511,62.71464 -31.20221,69.84572 -5.96245,27.23714 0.54782,27.99612 8.78647,25.79226 18.75355,20.62556 32.54528,13.64151 34.6118,-0.86565 34.36983,-10.46003 31.81941,-15.14164 34.517679,-19.51415 34.377665,-19.94586 33.263952,-21.59027 31.176541,-24.44736 27.707736,-33.70239 17.999631,-39.2705 10.434461,-42.45841 5.012225,-43.26611 12.89708,-6.58526 12.58256,-7.16848 12.24118,-7.73693 11.87293,-8.29058 8.79187,31.09791 -0.58362,32.26974 -5.2249,32.56294 -5.13196,31.97751 -6.76568,29.02054 -7.88421,28.86576 -9.15659,28.39301 -10.582826,27.60232 -4.29631,2.18376 -5.316968,3.03367 -2.938096,3.25699 2.840304,2.85372 4.224394,-2.06134 3.851155,-1.11632 3.74126,-0.0817 3.894706,1.04248 24.037041,-9.85071 24.82284,-7.66226 25.16001,-6.40533 25.04854,-6.07996 3.26933,-4.57863 1.87636,-5.0802 2.61607,-4.26301 5.48849,-2.12707 24.94328,-10.60651 25.3592,-10.19456 24.93507,-10.69513 23.67089,-12.10821 2.15554,-11.37367 5.06772,-11.1037 5.97442,-10.9877 4.87567,-11.02567 10.81259,-22.36787 10.00433,-22.80298 8.19938,-23.38656 5.3977,-24.11862 7.11624,-12.94511 7.78571,-12.79794 10.27308,-8.95883 14.57838,-1.42776 13.23127,6.73922 6.05162,13.63803 2.10734,16.45542 1.39844,15.19138 -5.04376,45.85198 -13.36371,44.09662 -16.88865,43.30143 -15.61855,43.46637 -19.32311,55.92918 -17.26309,56.75352 -11.69291,57.81594 -2.61255,59.11642 4.94425,9.45902 8.58935,3.3848 9.85787,-1.65457 8.74984,-5.65908 35.09422,-19.81105 34.59942,-20.65768 32.74117,-23.20839 29.51946,-27.46322 22.57251,-27.10339 19.70897,-29.24964 17.76926,-30.5679 16.75338,-31.05814 -4.02965,10.56273 -4.90767,10.88806 -3.74552,10.89748 -0.5432,10.59099 15.11522,-3.90741 15.24907,-5.42082 15.41114,-5.45874 15.60141,-4.02116 13.69859,-3.12528 14.3882,-3.40279 11.3234,-6.86394 4.50417,-13.50873 6.18992,-22.07142 5.91756,-22.05642 7.264,-21.54146 10.22924,-20.52655 6.63978,-12.55531 7.05687,-12.32733 7.52645,-12.04309 8.04854,-11.70257 7.80426,37.76263 -0.40495,38.37506 -3.41083,38.57819 -1.21338,38.37199 6.75661,34.44095 11.91061,33.27413 17.41692,30.5079 23.27554,26.14226 15.46161,2.75907 14.67374,-5.71972 14.30348,-9.00499 14.35083,-7.09673 25.20029,-12.48157 23.75927,-14.77207 21.77921,-17.45088 19.26009,-20.518 4.08731,4.87114 4.60773,11.19116 7.04602,11.03323 11.4022,4.39733 23.19175,-5.15449 21.53714,-10.61356 20.86523,-12.6922 21.1759,-11.39041 21.7146,-12.63809 22.1647,-12.54424 21.7379,-12.66964 20.4346,-13.01431 1.0202,-1.41053 2.1011,-0.17698 2.4454,-0.93577 2.0534,-3.68691 0,-2.65179 -3.7128,0.11723 -4.6514,-0.35504 -2.8116,-4.06859 -9.4664,-2.84002 -9.5618,4.24468 -9.5488,6.78498 -9.4272,4.7809 -11.6285,6.16127 -11.4935,6.97574 -11.7223,6.12106 -12.3148,3.59722 -9.1697,-19.74605 -3.0178,-21.97278 0.031,-22.79954 -0.024,-22.22632 1.0457,-30.174 1.0594,-30.11406 2.3346,-29.96732 4.8714,-29.73381 2.5796,-4.96873 3.4071,-5.96527 0.6921,-4.35867 -5.5653,-0.14894 -25.1842,11.33313 -26.06316,9.24371 -26.45675,7.99497 -26.36501,7.58692 -5.1314,14.84673 0.13633,16.17818 1.90957,16.6121 0.18829,16.14853 -10.23358,44.09027 -16.28742,42.39099 -21.49224,39.98974 -25.84803,36.88648 -21.34069,-31.7164 -10.75395,-36.42012 -2.57401,-38.57589 3.19915,-38.18368 0.66307,-30.27474 -0.63863,-30.61132 -4.17865,-29.99416 -9.95701,-28.42328 -11.32535,-11.51325 -14.4949,-4.05004 -15.29187,2.49793 -13.71625,8.13063 -21.87604,11.2816 -21.78923,11.49308 -21.26007,12.37928 -20.28859,13.94023 -0.39177,-13.12711 -0.73737,-13.61966 -2.77804,-12.86535 -6.51382,-10.86418 -26.72683,11.43519 -26.01968,13.39084 -25.72867,14.13596 -25.8538,13.67053 -26.27117,61.54636 -25.35832,62.04869 -27.8678,60.81332 -33.79965,57.84024 -4.78817,7.17415 -5.65749,9.14754 -4.15477,4.53316 -0.28,-6.66901 14.90504,-75.91565 23.9631,-73.54697 27.51728,-72.58109 25.56759,-73.01801 5.32718,-30.08034 1.98718,-31.01697 -3.7865,-30.27653 -11.99383,-27.85901 -19.0505,-8.28836 -20.96088,0.20411 -21.32526,4.88076 -20.14367,5.74163 -18.72854,10.18905 -18.54944,10.55533 -18.55533,10.5605 -18.74624,10.20456 -5.42866,-15.6788 -6.66098,-16.14147 -9.54585,-13.58289 -14.08326,-8.00307 -20.59873,9.29931 -20.98089,8.49076 -20.71451,9.02541 -19.79962,10.90327 -6.90553,-16.91195 -13.16912,-11.62244 -16.75446,-4.42508 -17.66156,4.6801 -21.09274,11.93003 -21.34645,11.77339 -21.46223,11.34286 -21.440078,10.63843 -8.308541,-10.09976 -4.299291,-11.80469 -1.683476,-12.7939 -0.461098,-13.06736 -4.446117,-27.65362 -6.80347,-27.46491 -10.16274,-26.20077 -14.523926,-23.86121 -2.403224,-1.74354 -2.676891,-1.29557 -2.865379,-0.75034 z m 968.9063,56.1875 -14.37857,3.84308 -12.2479,8.85571 -12.19095,9.43941 -14.20771,5.59424 -21.88033,9.45659 -22.21394,9.12024 -21.91981,9.40565 -20.99795,10.3128 -7.38265,12.59955 -1.35897,13.70753 4.42304,13.12529 9.96339,10.85284 14.81659,11.10033 17.18897,6.76363 17.84221,0.43742 16.77633,-7.87831 27.992,-11.54792 27.56432,-14.23117 22.20473,-19.70531 11.9134,-27.97036 5.2035,-17.15932 -1.0297,-17.10265 -8.5931,-13.29197 z m -1044.4063,84.78125 6.544719,15.25449 7.90575,14.82628 7.339361,14.86177 4.845556,15.36092 -3.233366,53.5453 -7.945449,53.74279 -17.567743,50.24281 -32.100248,43.04537 -28.80458,15.87059 -33.07582,-3.31724 -26.82091,-19.08573 -10.03986,-31.43489 7.90973,-46.88523 18.76387,-43.64754 25.64022,-40.69614 28.538761,-38.03106 12.559474,-14.45321 13.015117,-15.17096 13.055065,-14.22024 12.679323,-11.60102 0.197752,0.44824 0.197746,0.44824 0.197754,0.44824 z M 256,397.28125 l 0.15855,21.97001 -7.09987,20.6496 -10.02482,20.11111 -8.61632,20.35457 -7.2473,16.64145 -7.26223,16.63505 -7.32279,16.60829 -7.42896,16.56117 9.58203,-38.83268 13.70738,-38.413 15.77361,-37.17297 z"
       id="path3817"
       inkscape:connector-curvature="0"
       sodipodi:nodetypes="cccccccccccccccccccccccccccccccccccccccccccccccccccccccccccccccccccccccccccccccccccccccccccccccccccccccccccccccccccccccccccccccccccccccccccccccccccccccccccccccccccccccccccccccccccccccccccccccccccccccccccccccccccccccccccccccccccccccccccccccccccccccccccccccccccccccccccccccccccccccccccccccccccccccccccccccccccccccccccccccccccccccccccccccccccc" />
  </g>
</svg>
