  0
SECTION
  2
HEADER
  9
$ACADVER
  1
AC1014
  9
$HANDSEED
  5
FFFF
  9
$MEASUREMENT
 70
     1
  0
ENDSEC
  0
SECTION
  2
TABLES
  0
TABLE
  2
VPORT
  5
8
330
0
100
AcDbSymbolTable
 70
     4
  0
VPORT
  5
2E
330
8
100
AcDbSymbolTableRecord
100
AcDbViewportTableRecord
  2
*ACTIVE
 70
     0
 10
0.0
 20
0.0
 11
1.0
 21
1.0
 12
210.0
 22
148.5
 13
0.0
 23
0.0
 14
10.0
 24
10.0
 15
10.0
 25
10.0
 16
0.0
 26
0.0
 36
1.0
 17
0.0
 27
0.0
 37
0.0
 40
341.0
 41
1.24
 42
50.0
 43
0.0
 44
0.0
 50
0.0
 51
0.0
 71
     0
 72
   100
 73
     1
 74
     3
 75
     0
 76
     0
 77
     0
 78
     0
  0
ENDTAB
  0
TABLE
  2
LTYPE
  5
5
330
0
100
AcDbSymbolTable
 70
     1
  0
LTYPE
  5
14
330
5
100
AcDbSymbolTableRecord
100
AcDbLinetypeTableRecord
  2
BYBLOCK
 70
     0
  3

 72
    65
 73
     0
 40
0.0
  0
LTYPE
  5
15
330
5
100
AcDbSymbolTableRecord
100
AcDbLinetypeTableRecord
  2
BYLAYER
 70
     0
  3

 72
    65
 73
     0
 40
0.0
  0
LTYPE
  5
16
330
5
100
AcDbSymbolTableRecord
100
AcDbLinetypeTableRecord
  2
CONTINUOUS
 70
     0
  3
Solid line
 72
    65
 73
     0
 40
0.0
  0
ENDTAB
  0
TABLE
  2
LAYER
  5
2
100
AcDbSymbolTable
 70
2
  0
LAYER
  5
50
100
AcDbSymbolTableRecord
100
AcDbLayerTableRecord
  2
0
 70
0
  6
CONTINUOUS
  0
LAYER
  5
51
100
AcDbSymbolTableRecord
100
AcDbLayerTableRecord
  2
Layer_1
 70
0
  6
CONTINUOUS
  0
ENDTAB
  0
TABLE
  2
STYLE
  5
3
330
0
100
AcDbSymbolTable
 70
     1
  0
STYLE
  5
11
330
3
100
AcDbSymbolTableRecord
100
AcDbTextStyleTableRecord
  2
STANDARD
 70
     0
 40
0.0
 41
1.0
 50
0.0
 71
     0
 42
2.5
  3
txt
  4

  0
ENDTAB
  0
TABLE
  2
VIEW
  5
6
330
0
100
AcDbSymbolTable
 70
     0
  0
ENDTAB
  0
TABLE
  2
UCS
  5
7
330
0
100
AcDbSymbolTable
 70
     0
  0
ENDTAB
  0
TABLE
  2
APPID
  5
9
330
0
100
AcDbSymbolTable
 70
     2
  0
APPID
  5
12
330
9
100
AcDbSymbolTableRecord
100
AcDbRegAppTableRecord
  2
ACAD
 70
     0
  0
ENDTAB
  0
TABLE
  2
DIMSTYLE
  5
A
330
0
100
AcDbSymbolTable
 70
     1
  0
DIMSTYLE
105
27
330
A
100
AcDbSymbolTableRecord
100
AcDbDimStyleTableRecord
  2
ISO-25
 70
     0
  3

  4

  5

  6

  7

 40
1.0
 41
2.5
 42
0.625
 43
3.75
 44
1.25
 45
0.0
 46
0.0
 47
0.0
 48
0.0
140
2.5
141
2.5
142
0.0
143
0.03937007874016
144
1.0
145
0.0
146
1.0
147
0.625
 71
     0
 72
     0
 73
     0
 74
     0
 75
     0
 76
     0
 77
     1
 78
     8
170
     0
171
     3
172
     1
173
     0
174
     0
175
     0
176
     0
177
     0
178
     0
270
     2
271
     2
272
     2
273
     2
274
     3
340
11
275
     0
280
     0
281
     0
282
     0
283
     0
284
     8
285
     0
286
     0
287
     3
288
     0
  0
ENDTAB
  0
TABLE
  2
BLOCK_RECORD
  5
1
330
0
100
AcDbSymbolTable
 70
     1
  0
BLOCK_RECORD
  5
1F
330
1
100
AcDbSymbolTableRecord
100
AcDbBlockTableRecord
  2
*MODEL_SPACE
  0
BLOCK_RECORD
  5
1B
330
1
100
AcDbSymbolTableRecord
100
AcDbBlockTableRecord
  2
*PAPER_SPACE
  0
ENDTAB
  0
ENDSEC
  0
SECTION
  2
BLOCKS
  0
BLOCK
  5
20
330
1F
100
AcDbEntity
  8
0
100
AcDbBlockBegin
  2
*MODEL_SPACE
 70
     0
 10
0.0
 20
0.0
 30
0.0
  3
*MODEL_SPACE
  1

  0
ENDBLK
  5
21
330
1F
100
AcDbEntity
  8
0
100
AcDbBlockEnd
  0
BLOCK
  5
1C
330
1B
100
AcDbEntity
 67
     1
  8
0
100
AcDbBlockBegin
  2
*PAPER_SPACE
  1

  0
ENDBLK
  5
1D
330
1B
100
AcDbEntity
 67
     1
  8
0
100
AcDbBlockEnd
  0
ENDSEC
  0
SECTION
  2
ENTITIES
  0
LWPOLYLINE
  5
100
100
AcDbEntity
  8
Layer_1
 62
7
100
AcDbPolyline
 90
49
 70
0
 10
-16.188719
 20
82.309985
 30
0.0
 10
-13.941414
 20
82.309985
 30
0.0
 10
-11.694110
 20
82.309985
 30
0.0
 10
-9.446805
 20
82.309985
 30
0.0
 10
-7.199500
 20
82.309985
 30
0.0
 10
-7.199500
 20
79.765024
 30
0.0
 10
-7.199500
 20
77.220065
 30
0.0
 10
-7.199500
 20
74.675104
 30
0.0
 10
-7.199500
 20
72.130142
 30
0.0
 10
-4.743836
 20
72.130142
 30
0.0
 10
-2.288172
 20
72.130142
 30
0.0
 10
0.167492
 20
72.130142
 30
0.0
 10
2.623156
 20
72.130142
 30
0.0
 10
2.623156
 20
74.675104
 30
0.0
 10
2.623156
 20
77.220065
 30
0.0
 10
2.623156
 20
79.765024
 30
0.0
 10
2.623156
 20
82.309985
 30
0.0
 10
4.880383
 20
82.309985
 30
0.0
 10
7.137609
 20
82.309985
 30
0.0
 10
9.394836
 20
82.309985
 30
0.0
 10
11.652062
 20
82.309985
 30
0.0
 10
11.652062
 20
75.037251
 30
0.0
 10
11.652062
 20
67.764517
 30
0.0
 10
11.652062
 20
60.491783
 30
0.0
 10
11.652062
 20
53.219049
 30
0.0
 10
9.394836
 20
53.219049
 30
0.0
 10
7.137609
 20
53.219049
 30
0.0
 10
4.880383
 20
53.219049
 30
0.0
 10
2.623156
 20
53.219049
 30
0.0
 10
2.623156
 20
56.160886
 30
0.0
 10
2.623156
 20
59.102719
 30
0.0
 10
2.623156
 20
62.044556
 30
0.0
 10
2.623156
 20
64.986392
 30
0.0
 10
0.167492
 20
64.986392
 30
0.0
 10
-2.288172
 20
64.986392
 30
0.0
 10
-4.743836
 20
64.986392
 30
0.0
 10
-7.199500
 20
64.986392
 30
0.0
 10
-7.199500
 20
62.044556
 30
0.0
 10
-7.199500
 20
59.102719
 30
0.0
 10
-7.199500
 20
56.160886
 30
0.0
 10
-7.199500
 20
53.219049
 30
0.0
 10
-9.446805
 20
53.219049
 30
0.0
 10
-11.694110
 20
53.219049
 30
0.0
 10
-13.941414
 20
53.219049
 30
0.0
 10
-16.188719
 20
53.219049
 30
0.0
 10
-16.188719
 20
60.491783
 30
0.0
 10
-16.188719
 20
67.764517
 30
0.0
 10
-16.188719
 20
75.037251
 30
0.0
 10
-16.188719
 20
82.309985
 30
0.0
  0
LWPOLYLINE
  5
101
100
AcDbEntity
  8
Layer_1
 62
7
100
AcDbPolyline
 90
33
 70
0
 10
35.563782
 20
58.021235
 30
0.0
 10
33.003939
 20
58.021235
 30
0.0
 10
30.444093
 20
58.021235
 30
0.0
 10
27.884250
 20
58.021235
 30
0.0
 10
25.324406
 20
58.021235
 30
0.0
 10
24.972179
 20
56.820688
 30
0.0
 10
24.619953
 20
55.620142
 30
0.0
 10
24.267726
 20
54.419594
 30
0.0
 10
23.915500
 20
53.219049
 30
0.0
 10
21.618586
 20
53.219049
 30
0.0
 10
19.321672
 20
53.219049
 30
0.0
 10
17.024758
 20
53.219049
 30
0.0
 10
14.727843
 20
53.219049
 30
0.0
 10
17.461320
 20
60.491783
 30
0.0
 10
20.194797
 20
67.764517
 30
0.0
 10
22.928273
 20
75.037251
 30
0.0
 10
25.661750
 20
82.309985
 30
0.0
 10
28.112452
 20
82.309985
 30
0.0
 10
30.563157
 20
82.309985
 30
0.0
 10
33.013859
 20
82.309985
 30
0.0
 10
35.464561
 20
82.309985
 30
0.0
 10
38.198038
 20
75.037251
 30
0.0
 10
40.931513
 20
67.764517
 30
0.0
 10
43.664990
 20
60.491783
 30
0.0
 10
46.398468
 20
53.219049
 30
0.0
 10
44.046984
 20
53.219049
 30
0.0
 10
41.695500
 20
53.219049
 30
0.0
 10
39.344016
 20
53.219049
 30
0.0
 10
36.992532
 20
53.219049
 30
0.0
 10
36.635343
 20
54.419594
 30
0.0
 10
36.278157
 20
55.620142
 30
0.0
 10
35.920968
 20
56.820688
 30
0.0
 10
35.563782
 20
58.021235
 30
0.0
  0
LWPOLYLINE
  5
102
100
AcDbEntity
  8
Layer_1
 62
7
100
AcDbPolyline
 90
13
 70
0
 10
33.678625
 20
64.311706
 30
0.0
 10
32.874952
 20
66.926120
 30
0.0
 10
32.071282
 20
69.540533
 30
0.0
 10
31.267609
 20
72.154947
 30
0.0
 10
30.463936
 20
74.769360
 30
0.0
 10
29.665224
 20
72.154947
 30
0.0
 10
28.866516
 20
69.540533
 30
0.0
 10
28.067804
 20
66.926120
 30
0.0
 10
27.269093
 20
64.311706
 30
0.0
 10
28.871477
 20
64.311706
 30
0.0
 10
30.473859
 20
64.311706
 30
0.0
 10
32.076243
 20
64.311706
 30
0.0
 10
33.678625
 20
64.311706
 30
0.0
  0
LWPOLYLINE
  5
103
100
AcDbEntity
  8
Layer_1
 62
7
100
AcDbPolyline
 90
85
 70
0
 10
67.948782
 20
65.105456
 30
0.0
 10
69.918272
 20
64.510142
 30
0.0
 10
71.887766
 20
63.914831
 30
0.0
 10
73.857256
 20
63.319517
 30
0.0
 10
75.826750
 20
62.724206
 30
0.0
 10
75.372807
 20
61.135462
 30
0.0
 10
74.804772
 20
59.683146
 30
0.0
 10
74.122650
 20
58.367260
 30
0.0
 10
73.326436
 20
57.187799
 30
0.0
 10
72.421050
 20
56.144760
 30
0.0
 10
71.411496
 20
55.238149
 30
0.0
 10
70.297771
 20
54.467965
 30
0.0
 10
69.079875
 20
53.834206
 30
0.0
 10
67.732969
 20
53.339352
 30
0.0
 10
66.212438
 20
52.985886
 30
0.0
 10
64.518283
 20
52.773804
 30
0.0
 10
62.650500
 20
52.703110
 30
0.0
 10
60.387066
 20
52.788686
 30
0.0
 10
58.339437
 20
53.045415
 30
0.0
 10
56.507611
 20
53.473298
 30
0.0
 10
54.891593
 20
54.072331
 30
0.0
 10
53.444236
 20
54.897086
 30
0.0
 10
52.098581
 20
55.982290
 30
0.0
 10
50.854627
 20
57.327942
 30
0.0
 10
49.712375
 20
58.934049
 30
0.0
 10
48.757397
 20
60.791918
 30
0.0
 10
48.075269
 20
62.892874
 30
0.0
 10
47.665987
 20
65.236915
 30
0.0
 10
47.529561
 20
67.824049
 30
0.0
 10
47.768925
 20
71.226001
 30
0.0
 10
48.487022
 20
74.208760
 30
0.0
 10
49.683848
 20
76.772328
 30
0.0
 10
51.359407
 20
78.916706
 30
0.0
 10
53.482683
 20
80.618292
 30
0.0
 10
56.002834
 20
81.833716
 30
0.0
 10
58.919869
 20
82.562978
 30
0.0
 10
62.233782
 20
82.806081
 30
0.0
 10
64.834541
 20
82.667157
 30
0.0
 10
67.140130
 20
82.250434
 30
0.0
 10
69.150555
 20
81.555907
 30
0.0
 10
70.865811
 20
80.583581
 30
0.0
 10
72.341675
 20
79.323487
 30
0.0
 10
73.614150
 20
77.765748
 30
0.0
 10
74.683236
 20
75.910362
 30
0.0
 10
75.548936
 20
73.757331
 30
0.0
 10
73.564561
 20
73.315806
 30
0.0
 10
71.580186
 20
72.874283
 30
0.0
 10
69.595811
 20
72.432761
 30
0.0
 10
67.611436
 20
71.991235
 30
0.0
 10
67.400585
 20
72.611343
 30
0.0
 10
67.184778
 20
73.142157
 30
0.0
 10
66.964021
 20
73.583686
 30
0.0
 10
66.738311
 20
73.935924
 30
0.0
 10
66.340186
 20
74.422083
 30
0.0
 10
65.899899
 20
74.848719
 30
0.0
 10
65.417452
 20
75.215833
 30
0.0
 10
64.892843
 20
75.523424
 30
0.0
 10
64.331006
 20
75.766497
 30
0.0
 10
63.736931
 20
75.940125
 30
0.0
 10
63.110615
 20
76.044311
 30
0.0
 10
62.452061
 20
76.079049
 30
0.0
 10
61.013382
 20
75.925247
 30
0.0
 10
59.753302
 20
75.463875
 30
0.0
 10
58.671818
 20
74.694936
 30
0.0
 10
57.768936
 20
73.618424
 30
0.0
 10
57.230668
 20
72.575376
 30
0.0
 10
56.846193
 20
71.271888
 30
0.0
 10
56.615513
 20
69.707956
 30
0.0
 10
56.538625
 20
67.883581
 30
0.0
 10
56.630406
 20
65.652395
 30
0.0
 10
56.905734
 20
63.800720
 30
0.0
 10
57.364616
 20
62.328565
 30
0.0
 10
58.007061
 20
61.235924
 30
0.0
 10
58.815687
 20
60.454572
 30
0.0
 10
59.773145
 20
59.896464
 30
0.0
 10
60.879437
 20
59.561604
 30
0.0
 10
62.134561
 20
59.449985
 30
0.0
 10
63.345020
 20
59.540525
 30
0.0
 10
64.396736
 20
59.812133
 30
0.0
 10
65.289707
 20
60.264820
 30
0.0
 10
66.023936
 20
60.898581
 30
0.0
 10
66.642801
 20
61.704729
 30
0.0
 10
67.169896
 20
62.674589
 30
0.0
 10
67.605224
 20
63.808165
 30
0.0
 10
67.948782
 20
65.105456
 30
0.0
  0
LWPOLYLINE
  5
104
100
AcDbEntity
  8
Layer_1
 62
7
100
AcDbPolyline
 90
49
 70
0
 10
80.251907
 20
82.309985
 30
0.0
 10
82.499211
 20
82.309985
 30
0.0
 10
84.746516
 20
82.309985
 30
0.0
 10
86.993820
 20
82.309985
 30
0.0
 10
89.241125
 20
82.309985
 30
0.0
 10
89.241125
 20
79.561626
 30
0.0
 10
89.241125
 20
76.813267
 30
0.0
 10
89.241125
 20
74.064908
 30
0.0
 10
89.241125
 20
71.316549
 30
0.0
 10
91.597570
 20
74.064908
 30
0.0
 10
93.954016
 20
76.813267
 30
0.0
 10
96.310461
 20
79.561626
 30
0.0
 10
98.666907
 20
82.309985
 30
0.0
 10
101.653391
 20
82.309985
 30
0.0
 10
104.639875
 20
82.309985
 30
0.0
 10
107.626359
 20
82.309985
 30
0.0
 10
110.612843
 20
82.309985
 30
0.0
 10
107.963702
 20
79.566588
 30
0.0
 10
105.314561
 20
76.823190
 30
0.0
 10
102.665423
 20
74.079790
 30
0.0
 10
100.016282
 20
71.336392
 30
0.0
 10
102.784484
 20
66.807056
 30
0.0
 10
105.552686
 20
62.277719
 30
0.0
 10
108.320891
 20
57.748386
 30
0.0
 10
111.089093
 20
53.219049
 30
0.0
 10
108.320891
 20
53.219049
 30
0.0
 10
105.552686
 20
53.219049
 30
0.0
 10
102.784484
 20
53.219049
 30
0.0
 10
100.016282
 20
53.219049
 30
0.0
 10
98.483352
 20
56.210495
 30
0.0
 10
96.950423
 20
59.201940
 30
0.0
 10
95.417490
 20
62.193386
 30
0.0
 10
93.884561
 20
65.184831
 30
0.0
 10
92.723702
 20
63.969402
 30
0.0
 10
91.562843
 20
62.753969
 30
0.0
 10
90.401984
 20
61.538540
 30
0.0
 10
89.241125
 20
60.323110
 30
0.0
 10
89.241125
 20
58.547094
 30
0.0
 10
89.241125
 20
56.771081
 30
0.0
 10
89.241125
 20
54.995065
 30
0.0
 10
89.241125
 20
53.219049
 30
0.0
 10
86.993820
 20
53.219049
 30
0.0
 10
84.746516
 20
53.219049
 30
0.0
 10
82.499211
 20
53.219049
 30
0.0
 10
80.251907
 20
53.219049
 30
0.0
 10
80.251907
 20
60.491783
 30
0.0
 10
80.251907
 20
67.764517
 30
0.0
 10
80.251907
 20
75.037251
 30
0.0
 10
80.251907
 20
82.309985
 30
0.0
  0
LWPOLYLINE
  5
105
100
AcDbEntity
  8
Layer_1
 62
7
100
AcDbPolyline
 90
37
 70
0
 10
-17.682356
 20
32.534049
 30
0.0
 10
-14.952600
 20
32.534049
 30
0.0
 10
-12.222845
 20
32.534049
 30
0.0
 10
-9.493089
 20
32.534049
 30
0.0
 10
-6.763335
 20
32.534049
 30
0.0
 10
-5.092140
 20
32.406024
 30
0.0
 10
-3.645699
 20
32.021976
 30
0.0
 10
-2.424013
 20
31.381916
 30
0.0
 10
-1.427081
 20
30.485832
 30
0.0
 10
-0.646774
 20
29.353393
 30
0.0
 10
-0.089408
 20
28.004328
 30
0.0
 10
0.245018
 20
26.438627
 30
0.0
 10
0.356504
 20
24.656301
 30
0.0
 10
0.235049
 20
22.819243
 30
0.0
 10
-0.129284
 20
21.194456
 30
0.0
 10
-0.736497
 20
19.781933
 30
0.0
 10
-1.586589
 20
18.581679
 30
0.0
 10
-2.678681
 20
17.624311
 30
0.0
 10
-4.026342
 20
16.940475
 30
0.0
 10
-5.629571
 20
16.530177
 30
0.0
 10
-7.488370
 20
16.393415
 30
0.0
 10
-8.387414
 20
16.393415
 30
0.0
 10
-9.286455
 20
16.393415
 30
0.0
 10
-10.185499
 20
16.393415
 30
0.0
 10
-11.084541
 20
16.393415
 30
0.0
 10
-11.084541
 20
14.012589
 30
0.0
 10
-11.084541
 20
11.631762
 30
0.0
 10
-11.084541
 20
9.250935
 30
0.0
 10
-11.084541
 20
6.870080
 30
0.0
 10
-12.733995
 20
6.870080
 30
0.0
 10
-14.383447
 20
6.870080
 30
0.0
 10
-16.032901
 20
6.870080
 30
0.0
 10
-17.682356
 20
6.870080
 30
0.0
 10
-17.682356
 20
13.286064
 30
0.0
 10
-17.682356
 20
19.702070
 30
0.0
 10
-17.682356
 20
26.118059
 30
0.0
 10
-17.682356
 20
32.534049
 30
0.0
  0
LWPOLYLINE
  5
106
100
AcDbEntity
  8
Layer_1
 62
7
100
AcDbPolyline
 90
29
 70
0
 10
-11.084541
 20
21.592730
 30
0.0
 10
-10.682147
 20
21.592730
 30
0.0
 10
-10.279753
 20
21.592730
 30
0.0
 10
-9.877358
 20
21.592730
 30
0.0
 10
-9.474964
 20
21.592730
 30
0.0
 10
-8.595867
 20
21.641958
 30
0.0
 10
-7.858146
 20
21.789665
 30
0.0
 10
-7.261803
 20
22.035848
 30
0.0
 10
-6.806837
 20
22.380506
 30
0.0
 10
-6.470610
 20
22.810491
 30
0.0
 10
-6.230445
 20
23.295188
 30
0.0
 10
-6.086342
 20
23.834597
 30
0.0
 10
-6.038301
 20
24.428722
 30
0.0
 10
-6.079998
 20
25.009694
 30
0.0
 10
-6.205069
 20
25.544722
 30
0.0
 10
-6.413514
 20
26.033802
 30
0.0
 10
-6.705332
 20
26.476933
 30
0.0
 10
-7.112265
 20
26.844553
 30
0.0
 10
-7.666012
 20
27.107138
 30
0.0
 10
-8.366574
 20
27.264697
 30
0.0
 10
-9.213952
 20
27.317227
 30
0.0
 10
-9.681600
 20
27.317227
 30
0.0
 10
-10.149248
 20
27.317227
 30
0.0
 10
-10.616893
 20
27.317227
 30
0.0
 10
-11.084541
 20
27.317227
 30
0.0
 10
-11.084541
 20
25.886101
 30
0.0
 10
-11.084541
 20
24.454980
 30
0.0
 10
-11.084541
 20
23.023854
 30
0.0
 10
-11.084541
 20
21.592730
 30
0.0
  0
LWPOLYLINE
  5
107
100
AcDbEntity
  8
Layer_1
 62
7
100
AcDbPolyline
 90
25
 70
0
 10
3.807668
 20
32.534049
 30
0.0
 10
5.449871
 20
32.534049
 30
0.0
 10
7.092074
 20
32.534049
 30
0.0
 10
8.734278
 20
32.534049
 30
0.0
 10
10.376481
 20
32.534049
 30
0.0
 10
10.376481
 20
27.697984
 30
0.0
 10
10.376481
 20
22.861920
 30
0.0
 10
10.376481
 20
18.025856
 30
0.0
 10
10.376481
 20
13.189798
 30
0.0
 10
12.939478
 20
13.189798
 30
0.0
 10
15.502475
 20
13.189798
 30
0.0
 10
18.065472
 20
13.189798
 30
0.0
 10
20.628469
 20
13.189798
 30
0.0
 10
20.628469
 20
11.609862
 30
0.0
 10
20.628469
 20
10.029953
 30
0.0
 10
20.628469
 20
8.450017
 30
0.0
 10
20.628469
 20
6.870080
 30
0.0
 10
16.423269
 20
6.870080
 30
0.0
 10
12.218068
 20
6.870080
 30
0.0
 10
8.012868
 20
6.870080
 30
0.0
 10
3.807668
 20
6.870080
 30
0.0
 10
3.807668
 20
13.286064
 30
0.0
 10
3.807668
 20
19.702070
 30
0.0
 10
3.807668
 20
26.118059
 30
0.0
 10
3.807668
 20
32.534049
 30
0.0
  0
LWPOLYLINE
  5
108
100
AcDbEntity
  8
Layer_1
 62
7
100
AcDbPolyline
 90
33
 70
0
 10
36.724234
 20
11.106546
 30
0.0
 10
34.853646
 20
11.106546
 30
0.0
 10
32.983057
 20
11.106546
 30
0.0
 10
31.112468
 20
11.106546
 30
0.0
 10
29.241880
 20
11.106546
 30
0.0
 10
28.984490
 20
10.047451
 30
0.0
 10
28.727104
 20
8.988328
 30
0.0
 10
28.469717
 20
7.929232
 30
0.0
 10
28.212330
 20
6.870080
 30
0.0
 10
26.533875
 20
6.870080
 30
0.0
 10
24.855420
 20
6.870080
 30
0.0
 10
23.176965
 20
6.870080
 30
0.0
 10
21.498510
 20
6.870080
 30
0.0
 10
23.495980
 20
13.286064
 30
0.0
 10
25.493451
 20
19.702070
 30
0.0
 10
27.490921
 20
26.118059
 30
0.0
 10
29.488390
 20
32.534049
 30
0.0
 10
31.279225
 20
32.534049
 30
0.0
 10
33.070061
 20
32.534049
 30
0.0
 10
34.860896
 20
32.534049
 30
0.0
 10
36.651732
 20
32.534049
 30
0.0
 10
38.649202
 20
26.118059
 30
0.0
 10
40.646672
 20
19.702070
 30
0.0
 10
42.644142
 20
13.286064
 30
0.0
 10
44.641612
 20
6.870080
 30
0.0
 10
42.923282
 20
6.870080
 30
0.0
 10
41.204947
 20
6.870080
 30
0.0
 10
39.486617
 20
6.870080
 30
0.0
 10
37.768284
 20
6.870080
 30
0.0
 10
37.507271
 20
7.929232
 30
0.0
 10
37.246261
 20
8.988328
 30
0.0
 10
36.985245
 20
10.047451
 30
0.0
 10
36.724234
 20
11.106546
 30
0.0
  0
LWPOLYLINE
  5
109
100
AcDbEntity
  8
Layer_1
 62
7
100
AcDbPolyline
 90
13
 70
0
 10
35.346668
 20
16.656009
 30
0.0
 10
34.759392
 20
18.962439
 30
0.0
 10
34.172113
 20
21.268869
 30
0.0
 10
33.584837
 20
23.575296
 30
0.0
 10
32.997558
 20
25.881726
 30
0.0
 10
32.413905
 20
23.575296
 30
0.0
 10
31.830253
 20
21.268869
 30
0.0
 10
31.246600
 20
18.962439
 30
0.0
 10
30.662948
 20
16.656009
 30
0.0
 10
31.833876
 20
16.656009
 30
0.0
 10
33.004808
 20
16.656009
 30
0.0
 10
34.175740
 20
16.656009
 30
0.0
 10
35.346668
 20
16.656009
 30
0.0
  0
LWPOLYLINE
  5
10a
100
AcDbEntity
  8
Layer_1
 62
7
100
AcDbPolyline
 90
41
 70
0
 10
46.773214
 20
32.534049
 30
0.0
 10
48.306660
 20
32.534049
 30
0.0
 10
49.840109
 20
32.534049
 30
0.0
 10
51.373557
 20
32.534049
 30
0.0
 10
52.907006
 20
32.534049
 30
0.0
 10
54.908100
 20
28.984686
 30
0.0
 10
56.909197
 20
25.435321
 30
0.0
 10
58.910291
 20
21.885956
 30
0.0
 10
60.911387
 20
18.336594
 30
0.0
 10
60.911387
 20
21.885956
 30
0.0
 10
60.911387
 20
25.435321
 30
0.0
 10
60.911387
 20
28.984686
 30
0.0
 10
60.911387
 20
32.534049
 30
0.0
 10
62.459334
 20
32.534049
 30
0.0
 10
64.007283
 20
32.534049
 30
0.0
 10
65.555233
 20
32.534049
 30
0.0
 10
67.103182
 20
32.534049
 30
0.0
 10
67.103182
 20
26.118059
 30
0.0
 10
67.103182
 20
19.702067
 30
0.0
 10
67.103182
 20
13.286064
 30
0.0
 10
67.103182
 20
6.870080
 30
0.0
 10
65.555233
 20
6.870080
 30
0.0
 10
64.007283
 20
6.870080
 30
0.0
 10
62.459334
 20
6.870080
 30
0.0
 10
60.911387
 20
6.870080
 30
0.0
 10
58.921167
 20
10.393202
 30
0.0
 10
56.930948
 20
13.916294
 30
0.0
 10
54.940728
 20
17.439404
 30
0.0
 10
52.950508
 20
20.962508
 30
0.0
 10
52.950508
 20
17.439404
 30
0.0
 10
52.950508
 20
13.916294
 30
0.0
 10
52.950508
 20
10.393202
 30
0.0
 10
52.950508
 20
6.870080
 30
0.0
 10
51.406185
 20
6.870080
 30
0.0
 10
49.861859
 20
6.870080
 30
0.0
 10
48.317537
 20
6.870080
 30
0.0
 10
46.773214
 20
6.870080
 30
0.0
 10
46.773214
 20
13.286064
 30
0.0
 10
46.773214
 20
19.702070
 30
0.0
 10
46.773214
 20
26.118059
 30
0.0
 10
46.773214
 20
32.534049
 30
0.0
  0
LWPOLYLINE
  5
10b
100
AcDbEntity
  8
Layer_1
 62
7
100
AcDbPolyline
 90
49
 70
0
 10
71.482390
 20
32.534049
 30
0.0
 10
75.883347
 20
32.534049
 30
0.0
 10
80.284309
 20
32.534049
 30
0.0
 10
84.685268
 20
32.534049
 30
0.0
 10
89.086227
 20
32.534049
 30
0.0
 10
89.086227
 20
31.164193
 30
0.0
 10
89.086227
 20
29.794342
 30
0.0
 10
89.086227
 20
28.424489
 30
0.0
 10
89.086227
 20
27.054636
 30
0.0
 10
86.331095
 20
27.054636
 30
0.0
 10
83.575965
 20
27.054636
 30
0.0
 10
80.820833
 20
27.054636
 30
0.0
 10
78.065703
 20
27.054636
 30
0.0
 10
78.065703
 20
26.034905
 30
0.0
 10
78.065703
 20
25.015174
 30
0.0
 10
78.065703
 20
23.995443
 30
0.0
 10
78.065703
 20
22.975712
 30
0.0
 10
80.621451
 20
22.975712
 30
0.0
 10
83.177197
 20
22.975712
 30
0.0
 10
85.732942
 20
22.975712
 30
0.0
 10
88.288690
 20
22.975712
 30
0.0
 10
88.288690
 20
21.667130
 30
0.0
 10
88.288690
 20
20.358550
 30
0.0
 10
88.288690
 20
19.049967
 30
0.0
 10
88.288690
 20
17.741385
 30
0.0
 10
85.732942
 20
17.741385
 30
0.0
 10
83.177197
 20
17.741385
 30
0.0
 10
80.621451
 20
17.741385
 30
0.0
 10
78.065703
 20
17.741385
 30
0.0
 10
78.065703
 20
16.476572
 30
0.0
 10
78.065703
 20
15.211759
 30
0.0
 10
78.065703
 20
13.946944
 30
0.0
 10
78.065703
 20
12.682137
 30
0.0
 10
80.900586
 20
12.682137
 30
0.0
 10
83.735472
 20
12.682137
 30
0.0
 10
86.570357
 20
12.682137
 30
0.0
 10
89.405243
 20
12.682137
 30
0.0
 10
89.405243
 20
11.229116
 30
0.0
 10
89.405243
 20
9.776094
 30
0.0
 10
89.405243
 20
8.323073
 30
0.0
 10
89.405243
 20
6.870080
 30
0.0
 10
84.924530
 20
6.870080
 30
0.0
 10
80.443815
 20
6.870080
 30
0.0
 10
75.963103
 20
6.870080
 30
0.0
 10
71.482390
 20
6.870080
 30
0.0
 10
71.482390
 20
13.286064
 30
0.0
 10
71.482390
 20
19.702067
 30
0.0
 10
71.482390
 20
26.118059
 30
0.0
 10
71.482390
 20
32.534049
 30
0.0
  0
LWPOLYLINE
  5
10c
100
AcDbEntity
  8
Layer_1
 62
7
100
AcDbPolyline
 90
33
 70
0
 10
91.464342
 20
32.534049
 30
0.0
 10
96.456204
 20
32.534049
 30
0.0
 10
101.448068
 20
32.534049
 30
0.0
 10
106.439928
 20
32.534049
 30
0.0
 10
111.431792
 20
32.534049
 30
0.0
 10
111.431792
 20
30.949746
 30
0.0
 10
111.431792
 20
29.365444
 30
0.0
 10
111.431792
 20
27.781138
 30
0.0
 10
111.431792
 20
26.196836
 30
0.0
 10
109.756962
 20
26.196836
 30
0.0
 10
108.082131
 20
26.196836
 30
0.0
 10
106.407303
 20
26.196836
 30
0.0
 10
104.732475
 20
26.196836
 30
0.0
 10
104.732475
 20
21.365152
 30
0.0
 10
104.732475
 20
16.533462
 30
0.0
 10
104.732475
 20
11.701810
 30
0.0
 10
104.732475
 20
6.870080
 30
0.0
 10
103.090272
 20
6.870080
 30
0.0
 10
101.448068
 20
6.870080
 30
0.0
 10
99.805863
 20
6.870080
 30
0.0
 10
98.163659
 20
6.870080
 30
0.0
 10
98.163659
 20
11.701810
 30
0.0
 10
98.163659
 20
16.533462
 30
0.0
 10
98.163659
 20
21.365152
 30
0.0
 10
98.163659
 20
26.196836
 30
0.0
 10
96.488831
 20
26.196836
 30
0.0
 10
94.813998
 20
26.196836
 30
0.0
 10
93.139170
 20
26.196836
 30
0.0
 10
91.464342
 20
26.196836
 30
0.0
 10
91.464342
 20
27.781138
 30
0.0
 10
91.464342
 20
29.365444
 30
0.0
 10
91.464342
 20
30.949746
 30
0.0
 10
91.464342
 20
32.534049
 30
0.0
  0
LWPOLYLINE
  5
10d
100
AcDbEntity
  8
Layer_1
 62
7
100
AcDbPolyline
 90
9
 70
0
 10
22.065843
 20
50.301518
 30
0.0
 10
35.728264
 20
50.301518
 30
0.0
 10
35.728264
 20
46.709800
 30
0.0
 10
31.144360
 20
46.709800
 30
0.0
 10
31.144360
 20
35.756050
 30
0.0
 10
26.649749
 20
35.756050
 30
0.0
 10
26.649749
 20
46.709800
 30
0.0
 10
22.065843
 20
46.709800
 30
0.0
 10
22.065843
 20
50.301518
 30
0.0
  0
LWPOLYLINE
  5
10e
100
AcDbEntity
  8
Layer_1
 62
7
100
AcDbPolyline
 90
13
 70
0
 10
37.792014
 20
50.301518
 30
0.0
 10
42.286626
 20
50.301518
 30
0.0
 10
42.286626
 20
45.211595
 30
0.0
 10
47.197953
 20
45.211595
 30
0.0
 10
47.197953
 20
50.301518
 30
0.0
 10
51.712405
 20
50.301518
 30
0.0
 10
51.712405
 20
35.756050
 30
0.0
 10
47.197953
 20
35.756050
 30
0.0
 10
47.197953
 20
41.639720
 30
0.0
 10
42.286626
 20
41.639720
 30
0.0
 10
42.286626
 20
35.756050
 30
0.0
 10
37.792014
 20
35.756050
 30
0.0
 10
37.792014
 20
50.301518
 30
0.0
  0
LWPOLYLINE
  5
10f
100
AcDbEntity
  8
Layer_1
 62
7
100
AcDbPolyline
 90
13
 70
0
 10
54.708812
 20
50.301518
 30
0.0
 10
66.753969
 20
50.301518
 30
0.0
 10
66.753969
 20
47.195970
 30
0.0
 10
59.213344
 20
47.195970
 30
0.0
 10
59.213344
 20
44.884175
 30
0.0
 10
66.208264
 20
44.884175
 30
0.0
 10
66.208264
 20
41.917534
 30
0.0
 10
59.213344
 20
41.917534
 30
0.0
 10
59.213344
 20
39.050111
 30
0.0
 10
66.972251
 20
39.050111
 30
0.0
 10
66.972251
 20
35.756050
 30
0.0
 10
54.708812
 20
35.756050
 30
0.0
 10
54.708812
 20
50.301518
 30
0.0
  0
ENDSEC
  0
SECTION
  2
OBJECTS
  0
DICTIONARY
  5
C
330
0
100
AcDbDictionary
  3
ACAD_GROUP
350
D
  3
ACAD_MLINESTYLE
350
17
  0
DICTIONARY
  5
D
330
C
100
AcDbDictionary
  0
DICTIONARY
  5
1A
330
C
100
AcDbDictionary
  0
DICTIONARY
  5
17
330
C
100
AcDbDictionary
  3
STANDARD
350
18
  0
DICTIONARY
  5
19
330
C
100
AcDbDictionary
  0
ENDSEC
  0
EOF
