  0
SECTION
  2
HEADER
  9
$ACADVER
  1
AC1014
  9
$HANDSEED
  5
FFFF
  9
$MEASUREMENT
 70
     1
  0
ENDSEC
  0
SECTION
  2
TABLES
  0
TABLE
  2
VPORT
  5
8
330
0
100
AcDbSymbolTable
 70
     4
  0
VPORT
  5
2E
330
8
100
AcDbSymbolTableRecord
100
AcDbViewportTableRecord
  2
*ACTIVE
 70
     0
 10
0.0
 20
0.0
 11
1.0
 21
1.0
 12
210.0
 22
148.5
 13
0.0
 23
0.0
 14
10.0
 24
10.0
 15
10.0
 25
10.0
 16
0.0
 26
0.0
 36
1.0
 17
0.0
 27
0.0
 37
0.0
 40
341.0
 41
1.24
 42
50.0
 43
0.0
 44
0.0
 50
0.0
 51
0.0
 71
     0
 72
   100
 73
     1
 74
     3
 75
     0
 76
     0
 77
     0
 78
     0
  0
ENDTAB
  0
TABLE
  2
LTYPE
  5
5
330
0
100
AcDbSymbolTable
 70
     1
  0
LTYPE
  5
14
330
5
100
AcDbSymbolTableRecord
100
AcDbLinetypeTableRecord
  2
BYBLOCK
 70
     0
  3

 72
    65
 73
     0
 40
0.0
  0
LTYPE
  5
15
330
5
100
AcDbSymbolTableRecord
100
AcDbLinetypeTableRecord
  2
BYLAYER
 70
     0
  3

 72
    65
 73
     0
 40
0.0
  0
LTYPE
  5
16
330
5
100
AcDbSymbolTableRecord
100
AcDbLinetypeTableRecord
  2
CONTINUOUS
 70
     0
  3
Solid line
 72
    65
 73
     0
 40
0.0
  0
ENDTAB
  0
TABLE
  2
LAYER
  5
2
100
AcDbSymbolTable
 70
2
  0
LAYER
  5
50
100
AcDbSymbolTableRecord
100
AcDbLayerTableRecord
  2
0
 70
0
  6
CONTINUOUS
  0
LAYER
  5
51
100
AcDbSymbolTableRecord
100
AcDbLayerTableRecord
  2
Ebene_1
 70
0
  6
CONTINUOUS
  0
ENDTAB
  0
TABLE
  2
STYLE
  5
3
330
0
100
AcDbSymbolTable
 70
     1
  0
STYLE
  5
11
330
3
100
AcDbSymbolTableRecord
100
AcDbTextStyleTableRecord
  2
STANDARD
 70
     0
 40
0.0
 41
1.0
 50
0.0
 71
     0
 42
2.5
  3
txt
  4

  0
ENDTAB
  0
TABLE
  2
VIEW
  5
6
330
0
100
AcDbSymbolTable
 70
     0
  0
ENDTAB
  0
TABLE
  2
UCS
  5
7
330
0
100
AcDbSymbolTable
 70
     0
  0
ENDTAB
  0
TABLE
  2
APPID
  5
9
330
0
100
AcDbSymbolTable
 70
     2
  0
APPID
  5
12
330
9
100
AcDbSymbolTableRecord
100
AcDbRegAppTableRecord
  2
ACAD
 70
     0
  0
ENDTAB
  0
TABLE
  2
DIMSTYLE
  5
A
330
0
100
AcDbSymbolTable
 70
     1
  0
DIMSTYLE
105
27
330
A
100
AcDbSymbolTableRecord
100
AcDbDimStyleTableRecord
  2
ISO-25
 70
     0
  3

  4

  5

  6

  7

 40
1.0
 41
2.5
 42
0.625
 43
3.75
 44
1.25
 45
0.0
 46
0.0
 47
0.0
 48
0.0
140
2.5
141
2.5
142
0.0
143
0.03937007874016
144
1.0
145
0.0
146
1.0
147
0.625
 71
     0
 72
     0
 73
     0
 74
     0
 75
     0
 76
     0
 77
     1
 78
     8
170
     0
171
     3
172
     1
173
     0
174
     0
175
     0
176
     0
177
     0
178
     0
270
     2
271
     2
272
     2
273
     2
274
     3
340
11
275
     0
280
     0
281
     0
282
     0
283
     0
284
     8
285
     0
286
     0
287
     3
288
     0
  0
ENDTAB
  0
TABLE
  2
BLOCK_RECORD
  5
1
330
0
100
AcDbSymbolTable
 70
     1
  0
BLOCK_RECORD
  5
1F
330
1
100
AcDbSymbolTableRecord
100
AcDbBlockTableRecord
  2
*MODEL_SPACE
  0
BLOCK_RECORD
  5
1B
330
1
100
AcDbSymbolTableRecord
100
AcDbBlockTableRecord
  2
*PAPER_SPACE
  0
ENDTAB
  0
ENDSEC
  0
SECTION
  2
BLOCKS
  0
BLOCK
  5
20
330
1F
100
AcDbEntity
  8
0
100
AcDbBlockBegin
  2
*MODEL_SPACE
 70
     0
 10
0.0
 20
0.0
 30
0.0
  3
*MODEL_SPACE
  1

  0
ENDBLK
  5
21
330
1F
100
AcDbEntity
  8
0
100
AcDbBlockEnd
  0
BLOCK
  5
1C
330
1B
100
AcDbEntity
 67
     1
  8
0
100
AcDbBlockBegin
  2
*PAPER_SPACE
  1

  0
ENDBLK
  5
1D
330
1B
100
AcDbEntity
 67
     1
  8
0
100
AcDbBlockEnd
  0
ENDSEC
  0
SECTION
  2
ENTITIES
  0
LWPOLYLINE
  5
100
100
AcDbEntity
  8
Ebene_1
 62
7
100
AcDbPolyline
 90
1217
 70
0
 10
102.896889
 20
9.715994
 30
0.0
 10
102.624352
 20
9.826879
 30
0.0
 10
102.310805
 20
9.889024
 30
0.0
 10
101.995008
 20
9.898055
 30
0.0
 10
101.715716
 20
9.849541
 30
0.0
 10
101.419778
 20
9.812881
 30
0.0
 10
101.151791
 20
9.904349
 30
0.0
 10
100.904113
 20
10.128603
 30
0.0
 10
100.669100
 20
10.490327
 30
0.0
 10
100.454454
 20
10.827667
 30
0.0
 10
100.199065
 20
11.131282
 30
0.0
 10
99.934928
 20
11.367925
 30
0.0
 10
99.694036
 20
11.504323
 30
0.0
 10
99.076193
 20
12.025249
 30
0.0
 10
98.310447
 20
13.105850
 30
0.0
 10
97.523791
 20
14.540391
 30
0.0
 10
96.843220
 20
16.123090
 30
0.0
 10
96.522765
 20
16.862484
 30
0.0
 10
96.154791
 20
17.473253
 30
0.0
 10
95.742745
 20
17.950595
 30
0.0
 10
95.290070
 20
18.289702
 30
0.0
 10
94.645674
 20
18.706104
 30
0.0
 10
94.381282
 20
19.023615
 30
0.0
 10
94.488226
 20
19.273483
 30
0.0
 10
94.957836
 20
19.486953
 30
0.0
 10
95.545079
 20
19.958897
 30
0.0
 10
95.810768
 20
20.778907
 30
0.0
 10
95.735082
 20
21.759198
 30
0.0
 10
95.298204
 20
22.711986
 30
0.0
 10
95.037820
 20
23.141627
 30
0.0
 10
94.861167
 20
23.566425
 30
0.0
 10
94.781414
 20
23.945116
 30
0.0
 10
94.811729
 20
24.236426
 30
0.0
 10
94.817724
 20
24.565057
 30
0.0
 10
94.622472
 20
25.001401
 30
0.0
 10
94.223815
 20
25.549030
 30
0.0
 10
93.619596
 20
26.211522
 30
0.0
 10
92.895757
 20
27.002060
 30
0.0
 10
92.460615
 20
27.653869
 30
0.0
 10
92.238812
 20
28.317896
 30
0.0
 10
92.154988
 20
29.145080
 30
0.0
 10
92.100247
 20
29.766113
 30
0.0
 10
91.997551
 20
30.344409
 30
0.0
 10
91.861597
 20
30.815356
 30
0.0
 10
91.707083
 20
31.114337
 30
0.0
 10
91.546535
 20
31.516252
 30
0.0
 10
91.464350
 20
32.258073
 30
0.0
 10
91.459225
 20
33.367469
 30
0.0
 10
91.529852
 20
34.872106
 30
0.0
 10
91.599195
 20
36.573604
 30
0.0
 10
91.567221
 20
38.065179
 30
0.0
 10
91.425282
 20
39.491940
 30
0.0
 10
91.164728
 20
40.998992
 30
0.0
 10
90.746865
 20
43.829162
 30
0.0
 10
90.463101
 20
47.377965
 30
0.0
 10
90.330294
 20
51.341356
 30
0.0
 10
90.365305
 20
55.415284
 30
0.0
 10
90.359192
 20
56.335636
 30
0.0
 10
90.294934
 20
57.301519
 30
0.0
 10
90.183358
 20
58.198224
 30
0.0
 10
90.035293
 20
58.911053
 30
0.0
 10
89.303170
 20
60.402529
 30
0.0
 10
87.982256
 20
61.957681
 30
0.0
 10
86.197139
 20
63.454105
 30
0.0
 10
84.072405
 20
64.769396
 30
0.0
 10
82.769923
 20
65.494453
 30
0.0
 10
81.936341
 20
66.118819
 30
0.0
 10
81.348137
 20
66.856644
 30
0.0
 10
80.781793
 20
67.922081
 30
0.0
 10
80.325225
 20
68.788057
 30
0.0
 10
79.765745
 20
69.734357
 30
0.0
 10
79.174233
 20
70.646524
 30
0.0
 10
78.621573
 20
71.410110
 30
0.0
 10
78.109830
 20
72.122033
 30
0.0
 10
77.629726
 20
72.893527
 30
0.0
 10
77.235130
 20
73.631628
 30
0.0
 10
76.979909
 20
74.243370
 30
0.0
 10
76.361260
 20
75.862273
 30
0.0
 10
75.627770
 20
77.330142
 30
0.0
 10
74.867464
 20
78.492017
 30
0.0
 10
74.168365
 20
79.192938
 30
0.0
 10
73.822576
 20
79.495568
 30
0.0
 10
73.490589
 20
79.920188
 30
0.0
 10
73.210122
 20
80.410459
 30
0.0
 10
73.018892
 20
80.910038
 30
0.0
 10
72.877775
 20
81.581721
 30
0.0
 10
72.917134
 20
82.137024
 30
0.0
 10
73.180425
 20
82.742639
 30
0.0
 10
73.711104
 20
83.565261
 30
0.0
 10
74.269961
 20
84.401764
 30
0.0
 10
74.492767
 20
84.864231
 30
0.0
 10
74.407185
 20
85.091744
 30
0.0
 10
74.040879
 20
85.223398
 30
0.0
 10
73.251486
 20
85.867835
 30
0.0
 10
73.323227
 20
87.146923
 30
0.0
 10
74.249053
 20
89.038255
 30
0.0
 10
76.021914
 20
91.519423
 30
0.0
 10
77.226542
 20
93.263630
 30
0.0
 10
77.940642
 20
94.870685
 30
0.0
 10
78.189200
 20
96.422585
 30
0.0
 10
77.997203
 20
98.001320
 30
0.0
 10
77.849522
 20
98.615122
 30
0.0
 10
77.723289
 20
99.180368
 30
0.0
 10
77.631907
 20
99.634291
 30
0.0
 10
77.588777
 20
99.914126
 30
0.0
 10
77.552243
 20
100.075907
 30
0.0
 10
77.478841
 20
100.208390
 30
0.0
 10
77.379223
 20
100.297906
 30
0.0
 10
77.264038
 20
100.330782
 30
0.0
 10
77.179845
 20
100.383498
 30
0.0
 10
77.164612
 20
100.527036
 30
0.0
 10
77.216107
 20
100.739471
 30
0.0
 10
77.332097
 20
100.998881
 30
0.0
 10
77.483939
 20
101.356643
 30
0.0
 10
77.467943
 20
101.616581
 30
0.0
 10
77.258601
 20
101.832568
 30
0.0
 10
76.830406
 20
102.058478
 30
0.0
 10
75.966378
 20
102.250804
 30
0.0
 10
75.099791
 20
102.142310
 30
0.0
 10
74.431031
 20
101.792772
 30
0.0
 10
74.160486
 20
101.261968
 30
0.0
 10
74.068315
 20
100.706261
 30
0.0
 10
73.768197
 20
100.475900
 30
0.0
 10
73.207997
 20
100.562148
 30
0.0
 10
72.335580
 20
100.956274
 30
0.0
 10
71.779431
 20
101.231102
 30
0.0
 10
71.269012
 20
101.456163
 30
0.0
 10
70.860890
 20
101.608230
 30
0.0
 10
70.611631
 20
101.664081
 30
0.0
 10
70.361129
 20
101.757457
 30
0.0
 10
69.949624
 20
102.011694
 30
0.0
 10
69.434200
 20
102.387970
 30
0.0
 10
68.871940
 20
102.847448
 30
0.0
 10
68.305682
 20
103.332943
 30
0.0
 10
67.779373
 20
103.780059
 30
0.0
 10
67.351759
 20
104.139145
 30
0.0
 10
67.081587
 20
104.360551
 30
0.0
 10
66.919807
 20
104.549222
 30
0.0
 10
66.787324
 20
104.819176
 30
0.0
 10
66.697807
 20
105.134382
 30
0.0
 10
66.664931
 20
105.458796
 30
0.0
 10
66.613318
 20
105.803903
 30
0.0
 10
66.472789
 20
106.175440
 30
0.0
 10
66.264805
 20
106.528771
 30
0.0
 10
66.010831
 20
106.819257
 30
0.0
 10
65.726725
 20
107.140398
 30
0.0
 10
65.436703
 20
107.577199
 30
0.0
 10
65.174756
 20
108.072270
 30
0.0
 10
64.974878
 20
108.568228
 30
0.0
 10
64.778891
 20
109.081982
 30
0.0
 10
64.597110
 20
109.377045
 30
0.0
 10
64.417748
 20
109.465951
 30
0.0
 10
64.229014
 20
109.361235
 30
0.0
 10
63.753670
 20
109.073696
 30
0.0
 10
63.095320
 20
109.041977
 30
0.0
 10
62.169926
 20
109.276854
 30
0.0
 10
60.893448
 20
109.789110
 30
0.0
 10
60.122386
 20
110.184040
 30
0.0
 10
59.399709
 20
110.653271
 30
0.0
 10
58.789972
 20
111.150002
 30
0.0
 10
58.357730
 20
111.627426
 30
0.0
 10
57.989914
 20
112.074328
 30
0.0
 10
57.539254
 20
112.517586
 30
0.0
 10
57.062841
 20
112.905983
 30
0.0
 10
56.617769
 20
113.188304
 30
0.0
 10
56.039928
 20
113.449837
 30
0.0
 10
55.550400
 20
113.532277
 30
0.0
 10
54.983554
 20
113.432982
 30
0.0
 10
54.173759
 20
113.149312
 30
0.0
 10
53.811467
 20
113.010953
 30
0.0
 10
53.449175
 20
112.872593
 30
0.0
 10
53.086882
 20
112.734231
 30
0.0
 10
52.724590
 20
112.595872
 30
0.0
 10
51.613040
 20
113.134498
 30
0.0
 10
50.501489
 20
113.673122
 30
0.0
 10
49.389938
 20
114.211749
 30
0.0
 10
48.278388
 20
114.750376
 30
0.0
 10
46.355312
 20
115.724957
 30
0.0
 10
44.741822
 20
116.629022
 30
0.0
 10
43.517872
 20
117.414954
 30
0.0
 10
42.763402
 20
118.035143
 30
0.0
 10
42.174232
 20
118.697530
 30
0.0
 10
41.897369
 20
119.203958
 30
0.0
 10
41.875243
 20
119.758816
 30
0.0
 10
42.050255
 20
120.566496
 30
0.0
 10
42.211088
 20
121.355203
 30
0.0
 10
42.211280
 20
122.001514
 30
0.0
 10
42.026492
 20
122.680072
 30
0.0
 10
41.632391
 20
123.565528
 30
0.0
 10
41.230100
 20
124.296593
 30
0.0
 10
40.706555
 20
125.105866
 30
0.0
 10
40.129529
 20
125.894914
 30
0.0
 10
39.566801
 20
126.565307
 30
0.0
 10
39.079262
 20
127.132515
 30
0.0
 10
38.706954
 20
127.640611
 30
0.0
 10
38.486395
 20
128.034076
 30
0.0
 10
38.454092
 20
128.257385
 30
0.0
 10
38.421808
 20
128.535828
 30
0.0
 10
38.201308
 20
129.079411
 30
0.0
 10
37.829094
 20
129.809686
 30
0.0
 10
37.341665
 20
130.648205
 30
0.0
 10
36.783822
 20
131.642731
 30
0.0
 10
36.332912
 20
132.628191
 30
0.0
 10
36.006810
 20
133.560476
 30
0.0
 10
35.823386
 20
134.395481
 30
0.0
 10
35.675035
 20
135.225804
 30
0.0
 10
35.475341
 20
135.789422
 30
0.0
 10
35.184197
 20
136.162900
 30
0.0
 10
34.761499
 20
136.422816
 30
0.0
 10
34.314106
 20
136.594545
 30
0.0
 10
33.990939
 20
136.615655
 30
0.0
 10
33.724617
 20
136.472137
 30
0.0
 10
33.447755
 20
136.150003
 30
0.0
 10
33.162242
 20
135.526659
 30
0.0
 10
33.186654
 20
134.712179
 30
0.0
 10
33.555453
 20
133.531757
 30
0.0
 10
34.303097
 20
131.810588
 30
0.0
 10
34.685322
 20
130.897159
 30
0.0
 10
35.035266
 20
129.902853
 30
0.0
 10
35.314195
 20
128.947728
 30
0.0
 10
35.483387
 20
128.151839
 30
0.0
 10
35.629476
 20
127.416038
 30
0.0
 10
35.845509
 20
126.624526
 30
0.0
 10
36.102359
 20
125.872370
 30
0.0
 10
36.370908
 20
125.254633
 30
0.0
 10
36.749249
 20
124.337860
 30
0.0
 10
36.667696
 20
124.043392
 30
0.0
 10
36.182237
 20
124.368230
 30
0.0
 10
35.348860
 20
125.309376
 30
0.0
 10
34.868981
 20
125.970637
 30
0.0
 10
34.582883
 20
126.514468
 30
0.0
 10
34.471535
 20
126.989668
 30
0.0
 10
34.515904
 20
127.445036
 30
0.0
 10
34.573271
 20
127.883844
 30
0.0
 10
34.478027
 20
128.253157
 30
0.0
 10
34.200337
 20
128.611266
 30
0.0
 10
33.710362
 20
129.016466
 30
0.0
 10
32.968335
 20
129.644778
 30
0.0
 10
32.564571
 20
130.206708
 30
0.0
 10
32.475014
 20
130.756468
 30
0.0
 10
32.675600
 20
131.348266
 30
0.0
 10
32.798147
 20
131.736471
 30
0.0
 10
32.761782
 20
132.210923
 30
0.0
 10
32.551188
 20
132.840095
 30
0.0
 10
32.151039
 20
133.692446
 30
0.0
 10
31.740107
 20
134.581522
 30
0.0
 10
31.508758
 20
135.309192
 30
0.0
 10
31.435790
 20
135.972378
 30
0.0
 10
31.499995
 20
136.668005
 30
0.0
 10
31.523504
 20
137.843850
 30
0.0
 10
31.206340
 20
138.891450
 30
0.0
 10
30.583436
 20
139.740293
 30
0.0
 10
29.689748
 20
140.319864
 30
0.0
 10
29.192258
 20
140.578865
 30
0.0
 10
28.849463
 20
140.903065
 30
0.0
 10
28.623606
 20
141.343225
 30
0.0
 10
28.476918
 20
141.950107
 30
0.0
 10
28.375487
 20
142.506327
 30
0.0
 10
28.251075
 20
143.124174
 30
0.0
 10
28.119447
 20
143.728381
 30
0.0
 10
27.996373
 20
144.243696
 30
0.0
 10
27.909824
 20
144.687533
 30
0.0
 10
27.885919
 20
145.069176
 30
0.0
 10
27.923935
 20
145.354915
 30
0.0
 10
28.023167
 20
145.511046
 30
0.0
 10
28.097549
 20
145.648982
 30
0.0
 10
28.076806
 20
145.886568
 30
0.0
 10
27.968856
 20
146.190454
 30
0.0
 10
27.781633
 20
146.527294
 30
0.0
 10
27.527238
 20
146.976177
 30
0.0
 10
27.420253
 20
147.359830
 30
0.0
 10
27.454277
 20
147.745772
 30
0.0
 10
27.622911
 20
148.201513
 30
0.0
 10
27.755979
 20
148.555936
 30
0.0
 10
27.833807
 20
148.896570
 30
0.0
 10
27.850571
 20
149.184693
 30
0.0
 10
27.800443
 20
149.381583
 30
0.0
 10
27.786134
 20
149.582017
 30
0.0
 10
27.900412
 20
149.879787
 30
0.0
 10
28.122557
 20
150.234704
 30
0.0
 10
28.431859
 20
150.606571
 30
0.0
 10
28.799024
 20
151.052877
 30
0.0
 10
29.178726
 20
151.610472
 30
0.0
 10
29.526184
 20
152.208207
 30
0.0
 10
29.796612
 20
152.774938
 30
0.0
 10
30.115689
 20
153.399194
 30
0.0
 10
30.595608
 20
154.153565
 30
0.0
 10
31.171353
 20
154.942975
 30
0.0
 10
31.777916
 20
155.672355
 30
0.0
 10
32.406067
 20
156.446553
 30
0.0
 10
33.040593
 20
157.357987
 30
0.0
 10
33.607504
 20
158.292952
 30
0.0
 10
34.032815
 20
159.137737
 30
0.0
 10
34.450154
 20
160.021366
 30
0.0
 10
34.813919
 20
160.591040
 30
0.0
 10
35.165274
 20
160.897178
 30
0.0
 10
35.545388
 20
160.990193
 30
0.0
 10
35.818560
 20
160.959467
 30
0.0
 10
36.035306
 20
160.871766
 30
0.0
 10
36.173759
 20
160.740536
 30
0.0
 10
36.212039
 20
160.579226
 30
0.0
 10
36.281932
 20
160.092548
 30
0.0
 10
36.602759
 20
160.046249
 30
0.0
 10
37.102504
 20
160.412266
 30
0.0
 10
37.709155
 20
161.162543
 30
0.0
 10
38.037664
 20
161.689006
 30
0.0
 10
38.260183
 20
162.136825
 30
0.0
 10
38.357041
 20
162.458603
 30
0.0
 10
38.308572
 20
162.606950
 30
0.0
 10
38.188382
 20
162.689698
 30
0.0
 10
38.089957
 20
162.832864
 30
0.0
 10
38.023455
 20
163.016336
 30
0.0
 10
37.999042
 20
163.219999
 30
0.0
 10
37.878045
 20
163.532490
 30
0.0
 10
37.548596
 20
164.012279
 30
0.0
 10
37.061012
 20
164.593995
 30
0.0
 10
36.465608
 20
165.212268
 30
0.0
 10
35.650129
 20
166.034438
 30
0.0
 10
35.254843
 20
166.556227
 30
0.0
 10
35.209053
 20
166.919475
 30
0.0
 10
35.442072
 20
167.266025
 30
0.0
 10
35.662937
 20
167.561525
 30
0.0
 10
35.762561
 20
167.839303
 30
0.0
 10
35.744414
 20
168.123204
 30
0.0
 10
35.611933
 20
168.437080
 30
0.0
 10
35.477299
 20
169.169594
 30
0.0
 10
35.668400
 20
170.012188
 30
0.0
 10
36.083998
 20
170.708139
 30
0.0
 10
36.622862
 20
171.000725
 30
0.0
 10
36.814223
 20
171.021242
 30
0.0
 10
36.916542
 20
171.074038
 30
0.0
 10
36.924416
 20
171.152673
 30
0.0
 10
36.832423
 20
171.250709
 30
0.0
 10
36.554383
 20
171.561723
 30
0.0
 10
36.366404
 20
172.016369
 30
0.0
 10
36.270358
 20
172.607729
 30
0.0
 10
36.268100
 20
173.328886
 30
0.0
 10
36.247413
 20
174.410988
 30
0.0
 10
36.014777
 20
175.203183
 30
0.0
 10
35.531387
 20
175.779644
 30
0.0
 10
34.758437
 20
176.214552
 30
0.0
 10
34.202868
 20
176.475331
 30
0.0
 10
33.589777
 20
176.809496
 30
0.0
 10
32.993631
 20
177.174025
 30
0.0
 10
32.488896
 20
177.525886
 30
0.0
 10
32.034448
 20
177.837626
 30
0.0
 10
31.575213
 20
178.092913
 30
0.0
 10
31.164755
 20
178.265404
 30
0.0
 10
30.856627
 20
178.328755
 30
0.0
 10
30.423193
 20
178.381956
 30
0.0
 10
29.671545
 20
178.526810
 30
0.0
 10
28.707353
 20
178.741194
 30
0.0
 10
27.636283
 20
179.002986
 30
0.0
 10
26.209398
 20
179.344831
 30
0.0
 10
25.286246
 20
179.484387
 30
0.0
 10
24.649251
 20
179.434101
 30
0.0
 10
24.080836
 20
179.206421
 30
0.0
 10
22.822937
 20
178.658768
 30
0.0
 10
21.635623
 20
178.324154
 30
0.0
 10
20.626856
 20
178.223954
 30
0.0
 10
19.904602
 20
178.379546
 30
0.0
 10
19.465743
 20
178.502640
 30
0.0
 10
18.874756
 20
178.408990
 30
0.0
 10
17.998103
 20
178.058157
 30
0.0
 10
16.702257
 20
177.409698
 30
0.0
 10
15.625545
 20
176.874791
 30
0.0
 10
14.568553
 20
176.398953
 30
0.0
 10
13.652770
 20
176.033966
 30
0.0
 10
12.999685
 20
175.831610
 30
0.0
 10
12.423435
 20
175.671810
 30
0.0
 10
11.716858
 20
175.422695
 30
0.0
 10
10.969486
 20
175.118350
 30
0.0
 10
10.270864
 20
174.792857
 30
0.0
 10
8.301328
 20
173.889820
 30
0.0
 10
6.272106
 20
173.102072
 30
0.0
 10
4.518775
 20
172.548601
 30
0.0
 10
3.376918
 20
172.348401
 30
0.0
 10
3.108358
 20
172.409395
 30
0.0
 10
3.249539
 20
172.579391
 30
0.0
 10
3.818491
 20
172.870086
 30
0.0
 10
4.833232
 20
173.293171
 30
0.0
 10
6.919091
 20
174.173416
 30
0.0
 10
8.780423
 20
175.052860
 30
0.0
 10
10.163580
 20
175.804026
 30
0.0
 10
10.814924
 20
176.299439
 30
0.0
 10
10.880309
 20
176.631829
 30
0.0
 10
10.638001
 20
176.813258
 30
0.0
 10
10.172549
 20
176.821132
 30
0.0
 10
9.568506
 20
176.632808
 30
0.0
 10
9.129955
 20
176.476183
 30
0.0
 10
8.727831
 20
176.441679
 30
0.0
 10
8.307427
 20
176.533076
 30
0.0
 10
7.814032
 20
176.754163
 30
0.0
 10
7.579048
 20
176.877286
 30
0.0
 10
7.344065
 20
177.000405
 30
0.0
 10
7.109078
 20
177.123525
 30
0.0
 10
6.874094
 20
177.246647
 30
0.0
 10
7.129708
 20
177.378828
 30
0.0
 10
7.385323
 20
177.511013
 30
0.0
 10
7.640934
 20
177.643197
 30
0.0
 10
7.896548
 20
177.775379
 30
0.0
 10
8.617417
 20
178.243114
 30
0.0
 10
9.056487
 20
178.768731
 30
0.0
 10
9.229049
 20
179.380667
 30
0.0
 10
9.150394
 20
180.107361
 30
0.0
 10
9.271010
 20
180.824629
 30
0.0
 10
10.016240
 20
181.438059
 30
0.0
 10
11.382484
 20
181.945734
 30
0.0
 10
13.366136
 20
182.345745
 30
0.0
 10
14.523188
 20
182.562181
 30
0.0
 10
15.531317
 20
182.839871
 30
0.0
 10
16.389199
 20
183.178374
 30
0.0
 10
17.095514
 20
183.577258
 30
0.0
 10
17.887255
 20
184.269047
 30
0.0
 10
18.064868
 20
184.758087
 30
0.0
 10
17.665219
 20
184.933982
 30
0.0
 10
16.725171
 20
184.686338
 30
0.0
 10
16.184467
 20
184.509441
 30
0.0
 10
15.648177
 20
184.448261
 30
0.0
 10
15.043702
 20
184.502343
 30
0.0
 10
14.298435
 20
184.671239
 30
0.0
 10
13.513617
 20
184.898216
 30
0.0
 10
13.159519
 20
185.073668
 30
0.0
 10
13.174730
 20
185.263866
 30
0.0
 10
13.497799
 20
185.535087
 30
0.0
 10
14.437398
 20
186.031993
 30
0.0
 10
15.615267
 20
186.381509
 30
0.0
 10
16.861673
 20
186.547537
 30
0.0
 10
18.006880
 20
186.493985
 30
0.0
 10
18.636792
 20
186.430579
 30
0.0
 10
19.223918
 20
186.463900
 30
0.0
 10
19.784883
 20
186.596353
 30
0.0
 10
20.336306
 20
186.830338
 30
0.0
 10
20.602280
 20
186.967879
 30
0.0
 10
20.868252
 20
187.105417
 30
0.0
 10
21.134227
 20
187.242958
 30
0.0
 10
21.400199
 20
187.380499
 30
0.0
 10
21.225114
 20
187.566870
 30
0.0
 10
21.050029
 20
187.753238
 30
0.0
 10
20.874944
 20
187.939609
 30
0.0
 10
20.699859
 20
188.125981
 30
0.0
 10
20.427929
 20
188.430896
 30
0.0
 10
20.205242
 20
188.710022
 30
0.0
 10
20.054778
 20
188.932476
 30
0.0
 10
19.999516
 20
189.067364
 30
0.0
 10
20.328728
 20
189.342796
 30
0.0
 10
21.128249
 20
189.647220
 30
0.0
 10
22.115897
 20
189.893657
 30
0.0
 10
23.009492
 20
189.995130
 30
0.0
 10
23.531928
 20
190.058698
 30
0.0
 10
24.281293
 20
190.231782
 30
0.0
 10
25.157477
 20
190.487946
 30
0.0
 10
26.060379
 20
190.800753
 30
0.0
 10
27.198779
 20
191.156062
 30
0.0
 10
28.716166
 20
191.527952
 30
0.0
 10
30.414512
 20
191.872306
 30
0.0
 10
32.095775
 20
192.145023
 30
0.0
 10
34.260191
 20
192.416980
 30
0.0
 10
35.829597
 20
192.514392
 30
0.0
 10
37.236040
 20
192.440712
 30
0.0
 10
38.911557
 20
192.199381
 30
0.0
 10
40.203426
 20
191.993850
 30
0.0
 10
41.561802
 20
191.792236
 30
0.0
 10
42.825223
 20
191.617704
 30
0.0
 10
43.832229
 20
191.493419
 30
0.0
 10
44.792351
 20
191.356982
 30
0.0
 10
45.928124
 20
191.149359
 30
0.0
 10
47.097576
 20
190.898772
 30
0.0
 10
48.158749
 20
190.633437
 30
0.0
 10
50.231231
 20
190.176853
 30
0.0
 10
52.142063
 20
190.030927
 30
0.0
 10
54.118182
 20
190.196831
 30
0.0
 10
56.386528
 20
190.675726
 30
0.0
 10
57.471034
 20
190.924279
 30
0.0
 10
58.453378
 20
191.097919
 30
0.0
 10
59.225512
 20
191.180841
 30
0.0
 10
59.679389
 20
191.157248
 30
0.0
 10
59.976289
 20
191.108508
 30
0.0
 10
60.321012
 20
191.122958
 30
0.0
 10
60.670789
 20
191.195263
 30
0.0
 10
60.982849
 20
191.320079
 30
0.0
 10
61.352638
 20
191.467548
 30
0.0
 10
61.721355
 20
191.496208
 30
0.0
 10
62.131077
 20
191.402552
 30
0.0
 10
62.623883
 20
191.183062
 30
0.0
 10
63.150556
 20
190.972361
 30
0.0
 10
63.748412
 20
190.851635
 30
0.0
 10
64.430572
 20
190.819312
 30
0.0
 10
65.210159
 20
190.873826
 30
0.0
 10
66.070970
 20
190.922958
 30
0.0
 10
66.935026
 20
190.859483
 30
0.0
 10
67.860207
 20
190.675384
 30
0.0
 10
68.904392
 20
190.362657
 30
0.0
 10
69.767667
 20
190.090527
 30
0.0
 10
70.585913
 20
189.867675
 30
0.0
 10
71.266808
 20
189.717104
 30
0.0
 10
71.718029
 20
189.661803
 30
0.0
 10
72.125859
 20
189.652631
 30
0.0
 10
72.272031
 20
189.597679
 30
0.0
 10
72.164664
 20
189.455738
 30
0.0
 10
71.811877
 20
189.185615
 30
0.0
 10
71.463294
 20
188.914128
 30
0.0
 10
71.342656
 20
188.743556
 30
0.0
 10
71.446755
 20
188.616113
 30
0.0
 10
71.772381
 20
188.474011
 30
0.0
 10
72.163729
 20
188.398850
 30
0.0
 10
72.780174
 20
188.368232
 30
0.0
 10
73.537136
 20
188.383133
 30
0.0
 10
74.350034
 20
188.444511
 30
0.0
 10
75.492528
 20
188.545371
 30
0.0
 10
76.138980
 20
188.488701
 30
0.0
 10
76.520830
 20
188.195828
 30
0.0
 10
76.869519
 20
187.588079
 30
0.0
 10
77.006859
 20
187.322491
 30
0.0
 10
77.144200
 20
187.056906
 30
0.0
 10
77.281540
 20
186.791318
 30
0.0
 10
77.418881
 20
186.525730
 30
0.0
 10
77.597158
 20
186.749312
 30
0.0
 10
77.775435
 20
186.972891
 30
0.0
 10
77.953712
 20
187.196473
 30
0.0
 10
78.131989
 20
187.420052
 30
0.0
 10
78.535215
 20
187.812392
 30
0.0
 10
79.090710
 20
188.194910
 30
0.0
 10
79.739222
 20
188.532189
 30
0.0
 10
80.421499
 20
188.788802
 30
0.0
 10
81.299422
 20
189.020219
 30
0.0
 10
81.999103
 20
189.096012
 30
0.0
 10
82.699906
 20
189.015590
 30
0.0
 10
83.581194
 20
188.778360
 30
0.0
 10
84.337488
 20
188.591548
 30
0.0
 10
85.120183
 20
188.479817
 30
0.0
 10
85.884023
 20
188.447386
 30
0.0
 10
86.583753
 20
188.498477
 30
0.0
 10
87.315961
 20
188.567373
 30
0.0
 10
87.900789
 20
188.524317
 30
0.0
 10
88.413417
 20
188.354744
 30
0.0
 10
88.929028
 20
188.044088
 30
0.0
 10
89.473227
 20
187.678156
 30
0.0
 10
89.841381
 20
187.553733
 30
0.0
 10
90.190188
 20
187.668775
 30
0.0
 10
90.676346
 20
188.021228
 30
0.0
 10
91.093428
 20
188.295732
 30
0.0
 10
91.621909
 20
188.572608
 30
0.0
 10
92.194009
 20
188.819595
 30
0.0
 10
92.741952
 20
189.004431
 30
0.0
 10
93.760591
 20
189.431086
 30
0.0
 10
94.330384
 20
189.976345
 30
0.0
 10
94.408497
 20
190.565233
 30
0.0
 10
93.952098
 20
191.122768
 30
0.0
 10
93.583174
 20
191.424346
 30
0.0
 10
93.587114
 20
191.679920
 30
0.0
 10
94.064448
 20
192.012308
 30
0.0
 10
95.115702
 20
192.544313
 30
0.0
 10
96.004417
 20
192.950654
 30
0.0
 10
96.649592
 20
193.172402
 30
0.0
 10
97.088860
 20
193.218867
 30
0.0
 10
97.359854
 20
193.099351
 30
0.0
 10
97.508872
 20
192.891977
 30
0.0
 10
97.557011
 20
192.656714
 30
0.0
 10
97.504105
 20
192.375643
 30
0.0
 10
97.349988
 20
192.030850
 30
0.0
 10
97.182795
 20
191.327123
 30
0.0
 10
97.323144
 20
190.647628
 30
0.0
 10
97.686846
 20
190.183395
 30
0.0
 10
98.189709
 20
190.125466
 30
0.0
 10
98.412382
 20
190.181394
 30
0.0
 10
98.667961
 20
190.199089
 30
0.0
 10
98.924883
 20
190.178741
 30
0.0
 10
99.151587
 20
190.120479
 30
0.0
 10
99.386739
 20
189.994588
 30
0.0
 10
99.458697
 20
189.822077
 30
0.0
 10
99.364713
 20
189.547111
 30
0.0
 10
99.102039
 20
189.113851
 30
0.0
 10
98.840450
 20
188.102217
 30
0.0
 10
99.660395
 20
187.939979
 30
0.0
 10
101.085353
 20
188.535220
 30
0.0
 10
102.638800
 20
189.796031
 30
0.0
 10
103.305387
 20
190.319096
 30
0.0
 10
104.086968
 20
190.610724
 30
0.0
 10
104.935603
 20
190.660858
 30
0.0
 10
105.803351
 20
190.459456
 30
0.0
 10
106.202094
 20
190.237463
 30
0.0
 10
106.264056
 20
189.925573
 30
0.0
 10
105.956651
 20
189.414531
 30
0.0
 10
105.247295
 20
188.595085
 30
0.0
 10
104.249696
 20
187.615937
 30
0.0
 10
103.317223
 20
187.026632
 30
0.0
 10
102.246988
 20
186.738252
 30
0.0
 10
100.836103
 20
186.661885
 30
0.0
 10
100.016696
 20
186.621194
 30
0.0
 10
99.206146
 20
186.509008
 30
0.0
 10
98.485231
 20
186.340152
 30
0.0
 10
97.934729
 20
186.129445
 30
0.0
 10
97.395373
 20
185.886674
 30
0.0
 10
96.949771
 20
185.782306
 30
0.0
 10
96.536219
 20
185.810900
 30
0.0
 10
96.093017
 20
185.967017
 30
0.0
 10
95.353848
 20
186.195708
 30
0.0
 10
94.951629
 20
186.102182
 30
0.0
 10
94.932492
 20
185.736696
 30
0.0
 10
95.342561
 20
185.149498
 30
0.0
 10
95.524675
 20
184.955648
 30
0.0
 10
95.706788
 20
184.761796
 30
0.0
 10
95.888902
 20
184.567946
 30
0.0
 10
96.071015
 20
184.374093
 30
0.0
 10
95.707673
 20
184.270972
 30
0.0
 10
95.344331
 20
184.167853
 30
0.0
 10
94.980989
 20
184.064732
 30
0.0
 10
94.617647
 20
183.961611
 30
0.0
 10
93.934975
 20
183.797606
 30
0.0
 10
93.150591
 20
183.655978
 30
0.0
 10
92.361404
 20
183.551861
 30
0.0
 10
91.664317
 20
183.500389
 30
0.0
 10
90.925132
 20
183.450233
 30
0.0
 10
90.465241
 20
183.342322
 30
0.0
 10
90.229325
 20
183.153025
 30
0.0
 10
90.162066
 20
182.858715
 30
0.0
 10
90.050647
 20
182.550232
 30
0.0
 10
89.713423
 20
182.227824
 30
0.0
 10
89.142199
 20
181.885517
 30
0.0
 10
88.328781
 20
181.517330
 30
0.0
 10
85.470554
 20
180.081896
 30
0.0
 10
83.223712
 20
178.479069
 30
0.0
 10
81.969273
 20
177.039885
 30
0.0
 10
82.088256
 20
176.095386
 30
0.0
 10
82.284187
 20
175.920284
 30
0.0
 10
82.504473
 20
175.640571
 30
0.0
 10
82.722144
 20
175.294764
 30
0.0
 10
82.910228
 20
174.921387
 30
0.0
 10
83.141235
 20
174.524650
 30
0.0
 10
83.447568
 20
174.203371
 30
0.0
 10
83.816801
 20
173.967795
 30
0.0
 10
84.236507
 20
173.828160
 30
0.0
 10
84.754632
 20
173.678314
 30
0.0
 10
85.479377
 20
173.407649
 30
0.0
 10
86.314669
 20
173.054580
 30
0.0
 10
87.164434
 20
172.657519
 30
0.0
 10
88.019881
 20
172.257918
 30
0.0
 10
88.870640
 20
171.897937
 30
0.0
 10
89.618277
 20
171.617050
 30
0.0
 10
90.164356
 20
171.454716
 30
0.0
 10
91.030785
 20
171.230552
 30
0.0
 10
91.407729
 20
170.924957
 30
0.0
 10
91.368542
 20
170.345780
 30
0.0
 10
90.986578
 20
169.300869
 30
0.0
 10
90.643183
 20
168.367713
 30
0.0
 10
90.511023
 20
167.739331
 30
0.0
 10
90.579651
 20
167.228421
 30
0.0
 10
90.838622
 20
166.647673
 30
0.0
 10
91.068648
 20
166.266055
 30
0.0
 10
91.318327
 20
165.955314
 30
0.0
 10
91.557549
 20
165.747398
 30
0.0
 10
91.756208
 20
165.674243
 30
0.0
 10
92.557595
 20
165.876097
 30
0.0
 10
93.303477
 20
166.414594
 30
0.0
 10
93.963884
 20
167.260230
 30
0.0
 10
94.508843
 20
168.383506
 30
0.0
 10
94.929862
 20
169.364460
 30
0.0
 10
95.395322
 20
170.040656
 30
0.0
 10
96.073459
 20
170.592790
 30
0.0
 10
97.132511
 20
171.201568
 30
0.0
 10
98.780272
 20
172.229760
 30
0.0
 10
99.879094
 20
173.267695
 30
0.0
 10
100.442824
 20
174.332889
 30
0.0
 10
100.485307
 20
175.442849
 30
0.0
 10
100.406367
 20
176.059993
 30
0.0
 10
100.476966
 20
176.499094
 30
0.0
 10
100.740976
 20
176.865811
 30
0.0
 10
101.242274
 20
177.265804
 30
0.0
 10
101.665982
 20
177.638707
 30
0.0
 10
102.102994
 20
178.143735
 30
0.0
 10
102.501835
 20
178.714631
 30
0.0
 10
102.811030
 20
179.285135
 30
0.0
 10
103.453167
 20
180.313121
 30
0.0
 10
104.297239
 20
180.957175
 30
0.0
 10
105.377487
 20
181.233679
 30
0.0
 10
106.728154
 20
181.159015
 30
0.0
 10
108.082821
 20
180.803587
 30
0.0
 10
109.355832
 20
180.244107
 30
0.0
 10
110.344296
 20
179.589489
 30
0.0
 10
110.845322
 20
178.948667
 30
0.0
 10
110.888601
 20
178.661670
 30
0.0
 10
110.866898
 20
178.319882
 30
0.0
 10
110.786513
 20
177.966133
 30
0.0
 10
110.653719
 20
177.643259
 30
0.0
 10
110.489511
 20
177.251701
 30
0.0
 10
110.483330
 20
176.918366
 30
0.0
 10
110.651955
 20
176.573203
 30
0.0
 10
111.012152
 20
176.146166
 30
0.0
 10
111.196850
 20
175.949565
 30
0.0
 10
111.381547
 20
175.752963
 30
0.0
 10
111.566242
 20
175.556362
 30
0.0
 10
111.750940
 20
175.359760
 30
0.0
 10
112.052536
 20
175.516100
 30
0.0
 10
112.354133
 20
175.672440
 30
0.0
 10
112.655730
 20
175.828779
 30
0.0
 10
112.957327
 20
175.985119
 30
0.0
 10
113.517030
 20
176.296238
 30
0.0
 10
114.149171
 20
176.681057
 30
0.0
 10
114.776204
 20
177.090660
 30
0.0
 10
115.320588
 20
177.476119
 30
0.0
 10
115.609806
 20
177.692533
 30
0.0
 10
115.899028
 20
177.908943
 30
0.0
 10
116.188246
 20
178.125354
 30
0.0
 10
116.477465
 20
178.341768
 30
0.0
 10
116.545412
 20
178.158089
 30
0.0
 10
116.613360
 20
177.974408
 30
0.0
 10
116.681305
 20
177.790726
 30
0.0
 10
116.749253
 20
177.607047
 30
0.0
 10
116.840778
 20
177.285269
 30
0.0
 10
116.889066
 20
176.952272
 30
0.0
 10
116.891042
 20
176.647342
 30
0.0
 10
116.843566
 20
176.409765
 30
0.0
 10
116.801967
 20
176.179113
 30
0.0
 10
116.819916
 20
175.893047
 30
0.0
 10
116.891866
 20
175.587968
 30
0.0
 10
117.012293
 20
175.300282
 30
0.0
 10
117.135819
 20
174.992905
 30
0.0
 10
117.184671
 20
174.681859
 30
0.0
 10
117.158255
 20
174.383150
 30
0.0
 10
117.055986
 20
174.112784
 30
0.0
 10
116.964394
 20
173.790497
 30
0.0
 10
117.008903
 20
173.378328
 30
0.0
 10
117.193570
 20
172.859782
 30
0.0
 10
117.522460
 20
172.218358
 30
0.0
 10
117.956230
 20
171.428582
 30
0.0
 10
118.110592
 20
170.974820
 30
0.0
 10
117.994307
 20
170.686118
 30
0.0
 10
117.616141
 20
170.391511
 30
0.0
 10
117.206981
 20
169.936973
 30
0.0
 10
117.245812
 20
169.582592
 30
0.0
 10
117.633921
 20
169.442655
 30
0.0
 10
118.272604
 20
169.631447
 30
0.0
 10
119.016093
 20
169.910777
 30
0.0
 10
119.759167
 20
169.973777
 30
0.0
 10
120.448873
 20
169.823666
 30
0.0
 10
121.032260
 20
169.463664
 30
0.0
 10
121.443145
 20
168.744485
 30
0.0
 10
121.160979
 20
167.959089
 30
0.0
 10
120.186604
 20
167.108570
 30
0.0
 10
118.520861
 20
166.194026
 30
0.0
 10
116.572040
 20
165.357706
 30
0.0
 10
114.842890
 20
164.853202
 30
0.0
 10
112.946803
 20
164.599679
 30
0.0
 10
110.497173
 20
164.516297
 30
0.0
 10
108.771096
 20
164.467441
 30
0.0
 10
107.509636
 20
164.285944
 30
0.0
 10
106.262815
 20
163.863452
 30
0.0
 10
104.580661
 20
163.091611
 30
0.0
 10
103.448204
 20
162.525600
 30
0.0
 10
102.520819
 20
162.018032
 30
0.0
 10
101.894208
 20
161.624411
 30
0.0
 10
101.664071
 20
161.400230
 30
0.0
 10
101.773352
 20
161.026292
 30
0.0
 10
102.159212
 20
160.943022
 30
0.0
 10
102.908679
 20
161.160731
 30
0.0
 10
104.108781
 20
161.689717
 30
0.0
 10
105.010438
 20
162.069698
 30
0.0
 10
105.932646
 20
162.378630
 30
0.0
 10
106.772139
 20
162.586238
 30
0.0
 10
107.425647
 20
162.662243
 30
0.0
 10
108.119310
 20
162.645677
 30
0.0
 10
108.449112
 20
162.556546
 30
0.0
 10
108.484107
 20
162.336288
 30
0.0
 10
108.293350
 20
161.926329
 30
0.0
 10
108.089498
 20
161.599290
 30
0.0
 10
107.825700
 20
161.253040
 30
0.0
 10
107.536044
 20
160.928871
 30
0.0
 10
107.254612
 20
160.668067
 30
0.0
 10
106.932670
 20
160.365347
 30
0.0
 10
106.794118
 20
160.082049
 30
0.0
 10
106.825524
 20
159.739784
 30
0.0
 10
107.013464
 20
159.260162
 30
0.0
 10
107.555128
 20
158.514054
 30
0.0
 10
108.359128
 20
158.013222
 30
0.0
 10
109.371532
 20
157.779483
 30
0.0
 10
110.538406
 20
157.834649
 30
0.0
 10
110.861423
 20
157.889152
 30
0.0
 10
111.184440
 20
157.943654
 30
0.0
 10
111.507455
 20
157.998160
 30
0.0
 10
111.830473
 20
158.052663
 30
0.0
 10
111.582109
 20
157.881317
 30
0.0
 10
111.333745
 20
157.709969
 30
0.0
 10
111.085380
 20
157.538623
 30
0.0
 10
110.837016
 20
157.367278
 30
0.0
 10
110.371858
 20
157.084006
 30
0.0
 10
109.839731
 20
156.819380
 30
0.0
 10
109.306260
 20
156.603020
 30
0.0
 10
108.837068
 20
156.464548
 30
0.0
 10
108.326195
 20
156.319663
 30
0.0
 10
107.679235
 20
156.085845
 30
0.0
 10
106.979143
 20
155.795382
 30
0.0
 10
106.308874
 20
155.480557
 30
0.0
 10
105.680766
 20
155.199927
 30
0.0
 10
105.110070
 20
155.010491
 30
0.0
 10
104.655678
 20
154.927884
 30
0.0
 10
104.376480
 20
154.967731
 30
0.0
 10
104.185294
 20
155.243826
 30
0.0
 10
104.407544
 20
155.587073
 30
0.0
 10
105.050049
 20
156.003456
 30
0.0
 10
106.119624
 20
156.498965
 30
0.0
 10
106.937115
 20
156.968066
 30
0.0
 10
107.126203
 20
157.356008
 30
0.0
 10
106.721483
 20
157.566752
 30
0.0
 10
105.757548
 20
157.504260
 30
0.0
 10
105.033814
 20
157.299702
 30
0.0
 10
103.923260
 20
156.904072
 30
0.0
 10
102.577172
 20
156.374361
 30
0.0
 10
101.146841
 20
155.767549
 30
0.0
 10
99.352547
 20
154.947885
 30
0.0
 10
98.277641
 20
154.356765
 30
0.0
 10
97.725326
 20
153.862978
 30
0.0
 10
97.498806
 20
153.335313
 30
0.0
 10
97.223783
 20
152.694538
 30
0.0
 10
96.634695
 20
152.166983
 30
0.0
 10
95.609009
 20
151.675310
 30
0.0
 10
94.024196
 20
151.142172
 30
0.0
 10
93.384263
 20
150.899021
 30
0.0
 10
92.731033
 20
150.568338
 30
0.0
 10
92.141067
 20
150.193573
 30
0.0
 10
91.690924
 20
149.818163
 30
0.0
 10
91.266100
 20
149.420775
 30
0.0
 10
90.745071
 20
148.986155
 30
0.0
 10
90.193869
 20
148.566897
 30
0.0
 10
89.678526
 20
148.215579
 30
0.0
 10
89.215558
 20
147.867903
 30
0.0
 10
88.806959
 20
147.458568
 30
0.0
 10
88.496983
 20
147.038636
 30
0.0
 10
88.329881
 20
146.659179
 30
0.0
 10
88.217157
 20
146.230744
 30
0.0
 10
88.125817
 20
146.064743
 30
0.0
 10
88.026078
 20
146.148335
 30
0.0
 10
87.888156
 20
146.468671
 30
0.0
 10
87.548270
 20
146.901436
 30
0.0
 10
87.204461
 20
146.656484
 30
0.0
 10
86.932071
 20
145.861027
 30
0.0
 10
86.806444
 20
144.642270
 30
0.0
 10
86.601899
 20
143.328477
 30
0.0
 10
86.029938
 20
142.212610
 30
0.0
 10
85.069680
 20
141.266565
 30
0.0
 10
83.700242
 20
140.462243
 30
0.0
 10
81.960506
 20
139.482167
 30
0.0
 10
80.193576
 20
138.229298
 30
0.0
 10
78.715048
 20
136.949886
 30
0.0
 10
77.840517
 20
135.890169
 30
0.0
 10
77.524177
 20
135.196408
 30
0.0
 10
77.390011
 20
134.469178
 30
0.0
 10
77.422541
 20
133.441180
 30
0.0
 10
77.606290
 20
131.845115
 30
0.0
 10
77.779637
 20
130.320426
 30
0.0
 10
77.821506
 20
129.293953
 30
0.0
 10
77.726068
 20
128.575875
 30
0.0
 10
77.487497
 20
127.976368
 30
0.0
 10
77.246490
 20
127.585905
 30
0.0
 10
76.996617
 20
127.321440
 30
0.0
 10
76.748448
 20
127.191344
 30
0.0
 10
76.512555
 20
127.203987
 30
0.0
 10
75.966215
 20
127.842939
 30
0.0
 10
75.479987
 20
129.079061
 30
0.0
 10
75.173832
 20
130.508762
 30
0.0
 10
75.167710
 20
131.728464
 30
0.0
 10
75.237966
 20
132.316940
 30
0.0
 10
75.175755
 20
132.774179
 30
0.0
 10
74.954779
 20
133.180370
 30
0.0
 10
74.548740
 20
133.615695
 30
0.0
 10
74.148218
 20
133.940115
 30
0.0
 10
73.766572
 20
134.144258
 30
0.0
 10
73.406949
 20
134.226907
 30
0.0
 10
73.072495
 20
134.186843
 30
0.0
 10
72.694574
 20
134.160793
 30
0.0
 10
72.145491
 20
134.242203
 30
0.0
 10
71.498746
 20
134.415431
 30
0.0
 10
70.827840
 20
134.664828
 30
0.0
 10
69.968079
 20
135.000786
 30
0.0
 10
69.316124
 20
135.153916
 30
0.0
 10
68.736314
 20
135.139495
 30
0.0
 10
68.092984
 20
134.972812
 30
0.0
 10
67.612170
 20
134.761684
 30
0.0
 10
67.173319
 20
134.471845
 30
0.0
 10
66.816831
 20
134.135120
 30
0.0
 10
66.583104
 20
133.783332
 30
0.0
 10
66.354681
 20
133.372479
 30
0.0
 10
66.094155
 20
133.157070
 30
0.0
 10
65.729514
 20
133.106468
 30
0.0
 10
65.188747
 20
133.190028
 30
0.0
 10
64.720241
 20
133.311813
 30
0.0
 10
64.201357
 20
133.480621
 30
0.0
 10
63.695222
 20
133.674146
 30
0.0
 10
63.264957
 20
133.870068
 30
0.0
 10
62.431959
 20
134.211108
 30
0.0
 10
61.685469
 20
134.294984
 30
0.0
 10
60.910806
 20
134.114402
 30
0.0
 10
59.993288
 20
133.662076
 30
0.0
 10
59.405398
 20
133.332197
 30
0.0
 10
58.663279
 20
132.927694
 30
0.0
 10
57.861980
 20
132.499831
 30
0.0
 10
57.096550
 20
132.099866
 30
0.0
 10
56.341629
 20
131.664072
 30
0.0
 10
55.735394
 20
131.216002
 30
0.0
 10
55.297771
 20
130.772670
 30
0.0
 10
55.048687
 20
130.351093
 30
0.0
 10
54.844218
 20
129.765566
 30
0.0
 10
54.518550
 20
128.802903
 30
0.0
 10
54.116501
 20
127.596677
 30
0.0
 10
53.682886
 20
126.280449
 30
0.0
 10
53.419577
 20
125.476384
 30
0.0
 10
53.156268
 20
124.672321
 30
0.0
 10
52.892959
 20
123.868259
 30
0.0
 10
52.629650
 20
123.064194
 30
0.0
 10
52.764139
 20
122.545181
 30
0.0
 10
52.898628
 20
122.026169
 30
0.0
 10
53.033117
 20
121.507160
 30
0.0
 10
53.167606
 20
120.988147
 30
0.0
 10
53.998666
 20
118.614156
 30
0.0
 10
55.078204
 20
117.156464
 30
0.0
 10
56.509657
 20
116.529180
 30
0.0
 10
58.396463
 20
116.646415
 30
0.0
 10
59.855365
 20
117.083470
 30
0.0
 10
60.994683
 20
117.701692
 30
0.0
 10
61.818404
 20
118.503971
 30
0.0
 10
62.330514
 20
119.493185
 30
0.0
 10
62.571907
 20
120.075308
 30
0.0
 10
62.881045
 20
120.481688
 30
0.0
 10
63.316741
 20
120.766942
 30
0.0
 10
63.937806
 20
120.985681
 30
0.0
 10
64.893451
 20
121.218731
 30
0.0
 10
65.603433
 20
121.306026
 30
0.0
 10
66.143468
 20
121.249417
 30
0.0
 10
66.589274
 20
121.050770
 30
0.0
 10
66.800664
 20
120.732883
 30
0.0
 10
66.654338
 20
119.983027
 30
0.0
 10
66.028986
 20
118.440883
 30
0.0
 10
64.803293
 20
115.746132
 30
0.0
 10
64.029345
 20
113.914679
 30
0.0
 10
63.907927
 20
112.936963
 30
0.0
 10
64.515505
 20
112.607361
 30
0.0
 10
65.928547
 20
112.720244
 30
0.0
 10
67.544822
 20
112.858352
 30
0.0
 10
68.937771
 20
112.800954
 30
0.0
 10
69.956122
 20
112.566368
 30
0.0
 10
70.448603
 20
112.172911
 30
0.0
 10
70.474418
 20
111.749360
 30
0.0
 10
70.419571
 20
110.922218
 30
0.0
 10
70.295106
 20
109.810869
 30
0.0
 10
70.112066
 20
108.534688
 30
0.0
 10
69.836100
 20
106.686982
 30
0.0
 10
69.767942
 20
105.602128
 30
0.0
 10
69.927433
 20
104.889735
 30
0.0
 10
70.334410
 20
104.159408
 30
0.0
 10
70.691345
 20
103.663569
 30
0.0
 10
71.124924
 20
103.184460
 30
0.0
 10
71.580396
 20
102.776700
 30
0.0
 10
72.003010
 20
102.494904
 30
0.0
 10
72.537094
 20
102.254981
 30
0.0
 10
72.984918
 20
102.176032
 30
0.0
 10
73.472719
 20
102.258540
 30
0.0
 10
74.126735
 20
102.502976
 30
0.0
 10
75.239179
 20
102.876028
 30
0.0
 10
76.162894
 20
102.955398
 30
0.0
 10
76.992049
 20
102.733416
 30
0.0
 10
77.820812
 20
102.202417
 30
0.0
 10
78.382372
 20
101.782462
 30
0.0
 10
78.777926
 20
101.609203
 30
0.0
 10
79.136671
 20
101.662010
 30
0.0
 10
79.587803
 20
101.920249
 30
0.0
 10
79.930664
 20
102.199643
 30
0.0
 10
80.289396
 20
102.583750
 30
0.0
 10
80.621456
 20
103.021926
 30
0.0
 10
80.884302
 20
103.463536
 30
0.0
 10
81.440025
 20
104.345706
 30
0.0
 10
82.103462
 20
105.037176
 30
0.0
 10
82.817019
 20
105.490081
 30
0.0
 10
83.523107
 20
105.656563
 30
0.0
 10
83.853520
 20
105.725191
 30
0.0
 10
84.241707
 20
105.906581
 30
0.0
 10
84.639276
 20
106.173143
 30
0.0
 10
84.997838
 20
106.497289
 30
0.0
 10
85.732181
 20
107.068603
 30
0.0
 10
86.438736
 20
107.349984
 30
0.0
 10
86.840234
 20
107.286826
 30
0.0
 10
86.659405
 20
106.824520
 30
0.0
 10
86.244234
 20
105.990269
 30
0.0
 10
85.977136
 20
104.839807
 30
0.0
 10
85.904777
 20
103.689412
 30
0.0
 10
86.073817
 20
102.855367
 30
0.0
 10
86.283650
 20
102.501720
 30
0.0
 10
86.461087
 20
102.398277
 30
0.0
 10
86.690615
 20
102.556383
 30
0.0
 10
87.056721
 20
102.987390
 30
0.0
 10
87.320670
 20
103.358984
 30
0.0
 10
87.455222
 20
103.665759
 30
0.0
 10
87.462447
 20
103.915845
 30
0.0
 10
87.344417
 20
104.117377
 30
0.0
 10
87.057001
 20
104.535024
 30
0.0
 10
87.062804
 20
104.954699
 30
0.0
 10
87.375702
 20
105.414702
 30
0.0
 10
88.009571
 20
105.953331
 30
0.0
 10
88.797597
 20
106.397027
 30
0.0
 10
89.524456
 20
106.499392
 30
0.0
 10
90.222886
 20
106.257217
 30
0.0
 10
90.925625
 20
105.667288
 30
0.0
 10
91.930738
 20
105.081259
 30
0.0
 10
93.540009
 20
104.541213
 30
0.0
 10
95.218856
 20
104.191762
 30
0.0
 10
96.432696
 20
104.177538
 30
0.0
 10
98.089805
 20
103.957927
 30
0.0
 10
100.269657
 20
102.895180
 30
0.0
 10
102.454166
 20
101.304299
 30
0.0
 10
104.125245
 20
99.500292
 30
0.0
 10
104.991786
 20
98.661672
 30
0.0
 10
106.212629
 20
97.955210
 30
0.0
 10
107.493303
 20
97.515796
 30
0.0
 10
108.539334
 20
97.478319
 30
0.0
 10
110.355620
 20
97.408949
 30
0.0
 10
112.185289
 20
96.491163
 30
0.0
 10
113.724792
 20
94.946786
 30
0.0
 10
114.670583
 20
92.997652
 30
0.0
 10
114.850430
 20
92.398864
 30
0.0
 10
115.047771
 20
91.877320
 30
0.0
 10
115.238694
 20
91.489053
 30
0.0
 10
115.399292
 20
91.290086
 30
0.0
 10
115.541738
 20
90.904215
 30
0.0
 10
115.261531
 20
90.237073
 30
0.0
 10
114.591556
 20
89.342699
 30
0.0
 10
113.564696
 20
88.275132
 30
0.0
 10
112.943011
 20
87.646013
 30
0.0
 10
112.588760
 20
87.184143
 30
0.0
 10
112.478944
 20
86.850076
 30
0.0
 10
112.590569
 20
86.604368
 30
0.0
 10
112.847213
 20
86.494360
 30
0.0
 10
113.217478
 20
86.609527
 30
0.0
 10
113.745902
 20
86.973622
 30
0.0
 10
114.477021
 20
87.610391
 30
0.0
 10
115.525482
 20
88.497159
 30
0.0
 10
116.291800
 20
88.909604
 30
0.0
 10
116.904375
 20
88.883724
 30
0.0
 10
117.491606
 20
88.455528
 30
0.0
 10
117.767975
 20
88.138683
 30
0.0
 10
117.836281
 20
87.875062
 30
0.0
 10
117.682013
 20
87.568349
 30
0.0
 10
117.290650
 20
87.122229
 30
0.0
 10
116.960645
 20
86.813401
 30
0.0
 10
116.611499
 20
86.557324
 30
0.0
 10
116.284830
 20
86.380650
 30
0.0
 10
116.022259
 20
86.310024
 30
0.0
 10
115.872892
 20
86.277148
 30
0.0
 10
115.876674
 20
86.202562
 30
0.0
 10
116.026407
 20
86.094782
 30
0.0
 10
116.314946
 20
85.962318
 30
0.0
 10
116.755046
 20
85.831968
 30
0.0
 10
117.139049
 20
85.839673
 30
0.0
 10
117.527654
 20
85.998487
 30
0.0
 10
117.981569
 20
86.321511
 30
0.0
 10
119.088089
 20
87.140598
 30
0.0
 10
119.923794
 20
87.490695
 30
0.0
 10
120.722636
 20
87.410423
 30
0.0
 10
121.718573
 20
86.938395
 30
0.0
 10
122.368920
 20
86.535455
 30
0.0
 10
122.804948
 20
86.168292
 30
0.0
 10
123.040809
 20
85.821873
 30
0.0
 10
123.090664
 20
85.481166
 30
0.0
 10
123.068904
 20
84.711371
 30
0.0
 10
123.226029
 20
84.300418
 30
0.0
 10
123.575104
 20
84.236060
 30
0.0
 10
124.129177
 20
84.506031
 30
0.0
 10
124.645798
 20
84.769740
 30
0.0
 10
125.275219
 20
84.878381
 30
0.0
 10
126.212699
 20
84.840818
 30
0.0
 10
127.653503
 20
84.665899
 30
0.0
 10
129.164300
 20
84.428640
 30
0.0
 10
130.147354
 20
84.149746
 30
0.0
 10
130.887256
 20
83.710611
 30
0.0
 10
131.668605
 20
82.992632
 30
0.0
 10
132.357554
 20
82.382402
 30
0.0
 10
133.101667
 20
81.878210
 30
0.0
 10
133.914535
 20
81.472109
 30
0.0
 10
134.809744
 20
81.156152
 30
0.0
 10
135.816955
 20
80.831984
 30
0.0
 10
136.413356
 20
80.511173
 30
0.0
 10
136.751193
 20
80.069456
 30
0.0
 10
136.982722
 20
79.382558
 30
0.0
 10
137.135780
 20
78.119241
 30
0.0
 10
136.935363
 20
76.813751
 30
0.0
 10
136.388715
 20
75.491586
 30
0.0
 10
135.503088
 20
74.178233
 30
0.0
 10
135.036955
 20
73.570925
 30
0.0
 10
134.573659
 20
72.912901
 30
0.0
 10
134.166791
 20
72.283450
 30
0.0
 10
133.869933
 20
71.761858
 30
0.0
 10
133.590581
 20
71.278013
 30
0.0
 10
133.231365
 20
70.751336
 30
0.0
 10
132.838597
 20
70.245419
 30
0.0
 10
132.458587
 20
69.823852
 30
0.0
 10
131.987335
 20
69.294891
 30
0.0
 10
131.753912
 20
68.775419
 30
0.0
 10
131.709857
 20
68.047605
 30
0.0
 10
131.806708
 20
66.893612
 30
0.0
 10
131.720051
 20
63.609008
 30
0.0
 10
131.012845
 20
59.927022
 30
0.0
 10
129.900082
 20
56.667637
 30
0.0
 10
128.596757
 20
54.650835
 30
0.0
 10
128.172439
 20
54.353536
 30
0.0
 10
127.732073
 20
54.185061
 30
0.0
 10
127.228439
 20
54.134450
 30
0.0
 10
126.614324
 20
54.190748
 30
0.0
 10
126.091118
 20
54.242541
 30
0.0
 10
125.661113
 20
54.225297
 30
0.0
 10
125.344375
 20
54.141751
 30
0.0
 10
125.160972
 20
53.994592
 30
0.0
 10
124.959838
 20
53.797451
 30
0.0
 10
124.587827
 20
53.544862
 30
0.0
 10
124.098014
 20
53.269351
 30
0.0
 10
123.543472
 20
53.003439
 30
0.0
 10
122.918435
 20
52.691631
 30
0.0
 10
122.236676
 20
52.291163
 30
0.0
 10
121.580580
 20
51.853637
 30
0.0
 10
121.032541
 20
51.430665
 30
0.0
 10
120.410114
 20
50.865938
 30
0.0
 10
120.117709
 20
50.437838
 30
0.0
 10
120.095132
 20
49.976323
 30
0.0
 10
120.282143
 20
49.311348
 30
0.0
 10
120.465709
 20
48.325408
 30
0.0
 10
120.395100
 20
47.294631
 30
0.0
 10
120.078297
 20
46.261525
 30
0.0
 10
119.523276
 20
45.268608
 30
0.0
 10
119.318930
 20
44.912870
 30
0.0
 10
119.151589
 20
44.499716
 30
0.0
 10
119.038520
 20
44.080410
 30
0.0
 10
118.996994
 20
43.706220
 30
0.0
 10
118.936014
 20
43.309932
 30
0.0
 10
118.769977
 20
42.830459
 30
0.0
 10
118.524240
 20
42.328253
 30
0.0
 10
118.224168
 20
41.863772
 30
0.0
 10
117.841299
 20
41.316969
 30
0.0
 10
117.370135
 20
40.590620
 30
0.0
 10
116.870463
 20
39.779411
 30
0.0
 10
116.402070
 20
38.978033
 30
0.0
 10
115.415690
 20
37.471059
 30
0.0
 10
114.475554
 20
36.657438
 30
0.0
 10
113.415626
 20
36.452621
 30
0.0
 10
112.069869
 20
36.772065
 30
0.0
 10
110.888125
 20
37.146450
 30
0.0
 10
110.030243
 20
37.308494
 30
0.0
 10
109.507350
 20
37.257299
 30
0.0
 10
109.330578
 20
36.991970
 30
0.0
 10
109.393025
 20
36.831321
 30
0.0
 10
109.563058
 20
36.645590
 30
0.0
 10
109.814702
 20
36.457786
 30
0.0
 10
110.121994
 20
36.290910
 30
0.0
 10
110.485781
 20
36.037780
 30
0.0
 10
110.891247
 20
35.615126
 30
0.0
 10
111.288932
 20
35.081820
 30
0.0
 10
111.629376
 20
34.496736
 30
0.0
 10
111.973298
 20
33.743773
 30
0.0
 10
112.135277
 20
33.181694
 30
0.0
 10
112.129999
 20
32.713989
 30
0.0
 10
111.972169
 20
32.244154
 30
0.0
 10
111.389299
 20
31.507111
 30
0.0
 10
110.442387
 20
30.898730
 30
0.0
 10
109.268729
 20
30.485179
 30
0.0
 10
108.005635
 20
30.332624
 30
0.0
 10
107.094274
 20
30.260637
 30
0.0
 10
106.581019
 20
30.030124
 30
0.0
 10
106.443735
 20
29.619259
 30
0.0
 10
106.660287
 20
29.006216
 30
0.0
 10
106.800995
 20
28.502257
 30
0.0
 10
106.754642
 20
27.917510
 30
0.0
 10
106.533496
 20
27.306764
 30
0.0
 10
106.149812
 20
26.724805
 30
0.0
 10
106.030288
 20
26.726498
 30
0.0
 10
105.771779
 20
26.810981
 30
0.0
 10
105.412340
 20
26.963613
 30
0.0
 10
104.990027
 20
27.169790
 30
0.0
 10
104.111854
 20
27.495794
 30
0.0
 10
103.601848
 20
27.402288
 30
0.0
 10
103.488098
 20
26.915406
 30
0.0
 10
103.798691
 20
26.061289
 30
0.0
 10
104.057233
 20
25.649922
 30
0.0
 10
104.373311
 20
25.279926
 30
0.0
 10
104.706915
 20
24.991830
 30
0.0
 10
105.018036
 20
24.826163
 30
0.0
 10
105.390426
 20
24.689240
 30
0.0
 10
105.529419
 20
24.546966
 30
0.0
 10
105.445194
 20
24.333160
 30
0.0
 10
105.147929
 20
23.981647
 30
0.0
 10
104.944728
 20
23.696910
 30
0.0
 10
104.809356
 20
23.383350
 30
0.0
 10
104.753534
 20
23.078844
 30
0.0
 10
104.788979
 20
22.821276
 30
0.0
 10
104.808889
 20
22.520196
 30
0.0
 10
104.695320
 20
22.116542
 30
0.0
 10
104.462299
 20
21.645713
 30
0.0
 10
104.123852
 20
21.143104
 30
0.0
 10
103.646096
 20
20.483477
 30
0.0
 10
103.452042
 20
20.041624
 30
0.0
 10
103.515738
 20
19.652022
 30
0.0
 10
103.811234
 20
19.149162
 30
0.0
 10
104.067951
 20
18.802985
 30
0.0
 10
104.354209
 20
18.490322
 30
0.0
 10
104.635081
 20
18.245503
 30
0.0
 10
104.875643
 20
18.102862
 30
0.0
 10
105.470019
 20
17.651081
 30
0.0
 10
105.741510
 20
16.920207
 30
0.0
 10
105.681266
 20
15.980238
 30
0.0
 10
105.280436
 20
14.901175
 30
0.0
 10
104.828001
 20
13.785562
 30
0.0
 10
104.624822
 20
12.743061
 30
0.0
 10
104.676722
 20
11.848304
 30
0.0
 10
104.989526
 20
11.175853
 30
0.0
 10
105.005003
 20
10.609236
 30
0.0
 10
104.451757
 20
10.030793
 30
0.0
 10
103.644257
 20
9.659953
 30
0.0
 10
102.896972
 20
9.716031
 30
0.0
 10
102.896969
 20
9.716031
 30
0.0
 10
102.896967
 20
9.716031
 30
0.0
 10
102.896964
 20
9.716031
 30
0.0
 10
102.896889
 20
9.715994
 30
0.0
  0
LWPOLYLINE
  5
101
100
AcDbEntity
  8
Ebene_1
 62
7
100
AcDbPolyline
 90
113
 70
0
 10
78.331295
 20
154.082107
 30
0.0
 10
79.125978
 20
155.374617
 30
0.0
 10
80.106041
 20
156.403582
 30
0.0
 10
81.169362
 20
157.083593
 30
0.0
 10
82.213821
 20
157.329245
 30
0.0
 10
82.757228
 20
157.287414
 30
0.0
 10
82.950107
 20
157.111522
 30
0.0
 10
82.797942
 20
156.725964
 30
0.0
 10
82.306215
 20
156.055147
 30
0.0
 10
82.133309
 20
155.835333
 30
0.0
 10
81.960402
 20
155.615519
 30
0.0
 10
81.787496
 20
155.395704
 30
0.0
 10
81.614590
 20
155.175890
 30
0.0
 10
81.791992
 20
155.032239
 30
0.0
 10
81.969394
 20
154.888588
 30
0.0
 10
82.146796
 20
154.744934
 30
0.0
 10
82.324198
 20
154.601283
 30
0.0
 10
82.711020
 20
154.332011
 30
0.0
 10
83.053456
 20
154.213289
 30
0.0
 10
83.410895
 20
154.237052
 30
0.0
 10
83.842728
 20
154.395246
 30
0.0
 10
84.172952
 20
154.589195
 30
0.0
 10
84.474099
 20
154.844815
 30
0.0
 10
84.712914
 20
155.128869
 30
0.0
 10
84.856145
 20
155.408125
 30
0.0
 10
84.992668
 20
155.702167
 30
0.0
 10
85.187827
 20
155.867907
 30
0.0
 10
85.464332
 20
155.915628
 30
0.0
 10
85.844889
 20
155.855605
 30
0.0
 10
86.215608
 20
155.801249
 30
0.0
 10
86.518260
 20
155.844570
 30
0.0
 10
86.760963
 20
155.988362
 30
0.0
 10
86.951834
 20
156.235408
 30
0.0
 10
87.054256
 20
157.166307
 30
0.0
 10
86.524070
 20
157.983374
 30
0.0
 10
85.628991
 20
158.446199
 30
0.0
 10
84.636734
 20
158.314376
 30
0.0
 10
83.930509
 20
158.200454
 30
0.0
 10
83.280952
 20
158.499999
 30
0.0
 10
82.849085
 20
159.081789
 30
0.0
 10
82.795926
 20
159.814593
 30
0.0
 10
82.814787
 20
160.142682
 30
0.0
 10
82.739724
 20
160.529166
 30
0.0
 10
82.584393
 20
160.927525
 30
0.0
 10
82.362451
 20
161.291236
 30
0.0
 10
81.764527
 20
161.821955
 30
0.0
 10
80.948781
 20
162.055178
 30
0.0
 10
79.832081
 20
161.998493
 30
0.0
 10
78.331296
 20
161.659499
 30
0.0
 10
77.702293
 20
161.499626
 30
0.0
 10
77.098482
 20
161.372138
 30
0.0
 10
76.588457
 20
161.289941
 30
0.0
 10
76.240813
 20
161.265952
 30
0.0
 10
76.026796
 20
161.250119
 30
0.0
 10
75.880608
 20
161.190102
 30
0.0
 10
75.815277
 20
161.095436
 30
0.0
 10
75.843827
 20
160.975647
 30
0.0
 10
75.897697
 20
160.853470
 30
0.0
 10
75.901301
 20
160.752305
 30
0.0
 10
75.857137
 20
160.682669
 30
0.0
 10
75.767702
 20
160.655068
 30
0.0
 10
75.597548
 20
160.601911
 30
0.0
 10
75.333603
 20
160.462637
 30
0.0
 10
75.011930
 20
160.258410
 30
0.0
 10
74.668594
 20
160.010382
 30
0.0
 10
74.461235
 20
159.851062
 30
0.0
 10
74.253875
 20
159.691745
 30
0.0
 10
74.046515
 20
159.532424
 30
0.0
 10
73.839156
 20
159.373104
 30
0.0
 10
74.072032
 20
159.284566
 30
0.0
 10
74.304909
 20
159.196027
 30
0.0
 10
74.537785
 20
159.107485
 30
0.0
 10
74.770662
 20
159.018946
 30
0.0
 10
75.271323
 20
158.871610
 30
0.0
 10
75.723522
 20
158.848750
 30
0.0
 10
76.190851
 20
158.956220
 30
0.0
 10
76.736904
 20
159.199868
 30
0.0
 10
77.330165
 20
159.476276
 30
0.0
 10
77.786343
 20
159.568001
 30
0.0
 10
78.258804
 20
159.474797
 30
0.0
 10
78.900914
 20
159.196425
 30
0.0
 10
79.402234
 20
159.001937
 30
0.0
 10
79.928267
 20
158.872741
 30
0.0
 10
80.418145
 20
158.819751
 30
0.0
 10
80.811001
 20
158.853883
 30
0.0
 10
81.130309
 20
158.903873
 30
0.0
 10
81.422507
 20
158.895124
 30
0.0
 10
81.655265
 20
158.832045
 30
0.0
 10
81.796255
 20
158.719066
 30
0.0
 10
81.778114
 20
158.572279
 30
0.0
 10
81.572325
 20
158.421555
 30
0.0
 10
81.210419
 20
158.282959
 30
0.0
 10
80.723927
 20
158.172562
 30
0.0
 10
79.415676
 20
157.818099
 30
0.0
 10
78.333398
 20
157.182016
 30
0.0
 10
77.351590
 20
156.163721
 30
0.0
 10
76.344747
 20
154.662624
 30
0.0
 10
75.658265
 20
153.473686
 30
0.0
 10
75.335626
 20
152.747297
 30
0.0
 10
75.322907
 20
152.293735
 30
0.0
 10
75.566188
 20
151.923276
 30
0.0
 10
75.863247
 20
151.632356
 30
0.0
 10
76.113688
 20
151.525774
 30
0.0
 10
76.396355
 20
151.598534
 30
0.0
 10
76.790092
 20
151.845628
 30
0.0
 10
77.130707
 20
152.175266
 30
0.0
 10
77.534827
 20
152.706812
 30
0.0
 10
77.951879
 20
153.366879
 30
0.0
 10
78.331296
 20
154.082084
 30
0.0
 10
78.331296
 20
154.082087
 30
0.0
 10
78.331296
 20
154.082092
 30
0.0
 10
78.331296
 20
154.082095
 30
0.0
 10
78.331295
 20
154.082107
 30
0.0
  0
LWPOLYLINE
  5
102
100
AcDbEntity
  8
Ebene_1
 62
7
100
AcDbPolyline
 90
17
 70
0
 10
84.387231
 20
152.024667
 30
0.0
 10
85.084509
 20
152.404916
 30
0.0
 10
85.430271
 20
152.682629
 30
0.0
 10
85.475150
 20
152.925247
 30
0.0
 10
85.269778
 20
153.200213
 30
0.0
 10
84.965489
 20
153.428296
 30
0.0
 10
84.601730
 20
153.477245
 30
0.0
 10
84.061305
 20
153.334960
 30
0.0
 10
83.227018
 20
152.989339
 30
0.0
 10
82.243469
 20
152.431894
 30
0.0
 10
81.728646
 20
151.894410
 30
0.0
 10
81.742371
 20
151.489407
 30
0.0
 10
82.344469
 20
151.329401
 30
0.0
 10
82.716008
 20
151.384262
 30
0.0
 10
83.225000
 20
151.533637
 30
0.0
 10
83.804417
 20
151.754707
 30
0.0
 10
84.387231
 20
152.024667
 30
0.0
  0
LWPOLYLINE
  5
103
100
AcDbEntity
  8
Ebene_1
 62
7
100
AcDbPolyline
 90
13
 70
0
 10
90.297433
 20
154.543334
 30
0.0
 10
90.695198
 20
154.843675
 30
0.0
 10
90.856601
 20
155.050815
 30
0.0
 10
90.796018
 20
155.218141
 30
0.0
 10
90.527824
 20
155.399051
 30
0.0
 10
89.776309
 20
155.513704
 30
0.0
 10
88.825791
 20
155.324833
 30
0.0
 10
88.010430
 20
154.940844
 30
0.0
 10
87.664385
 20
154.470137
 30
0.0
 10
87.938529
 20
154.108429
 30
0.0
 10
88.614856
 20
154.004123
 30
0.0
 10
89.474210
 20
154.151121
 30
0.0
 10
90.297433
 20
154.543334
 30
0.0
  0
LWPOLYLINE
  5
104
100
AcDbEntity
  8
Ebene_1
 62
7
100
AcDbPolyline
 90
1405
 70
0
 10
211.106379
 20
37.523516
 30
0.0
 10
210.682312
 20
38.003223
 30
0.0
 10
210.449459
 20
38.443233
 30
0.0
 10
210.378540
 20
38.933165
 30
0.0
 10
210.440284
 20
39.562631
 30
0.0
 10
210.494115
 20
40.190225
 30
0.0
 10
210.420229
 20
40.748879
 30
0.0
 10
210.199619
 20
41.310949
 30
0.0
 10
209.813274
 20
41.948794
 30
0.0
 10
209.495387
 20
42.445209
 30
0.0
 10
209.235060
 20
42.906171
 30
0.0
 10
209.059165
 20
43.280259
 30
0.0
 10
208.994561
 20
43.516045
 30
0.0
 10
208.891206
 20
43.795290
 30
0.0
 10
208.609794
 20
44.287702
 30
0.0
 10
208.193301
 20
44.923789
 30
0.0
 10
207.684711
 20
45.634052
 30
0.0
 10
207.002383
 20
46.619493
 30
0.0
 10
206.573097
 20
47.474020
 30
0.0
 10
206.318160
 20
48.402754
 30
0.0
 10
206.158863
 20
49.610814
 30
0.0
 10
205.783005
 20
52.141168
 30
0.0
 10
205.164761
 20
54.655689
 30
0.0
 10
204.339162
 20
57.035624
 30
0.0
 10
203.341241
 20
59.162211
 30
0.0
 10
202.827453
 20
60.177508
 30
0.0
 10
202.373275
 20
61.214940
 30
0.0
 10
202.027942
 20
62.152860
 30
0.0
 10
201.840696
 20
62.869617
 30
0.0
 10
201.815212
 20
64.215749
 30
0.0
 10
202.124626
 20
65.829682
 30
0.0
 10
202.761825
 20
67.685316
 30
0.0
 10
203.719687
 20
69.756556
 30
0.0
 10
203.967105
 20
70.237802
 30
0.0
 10
204.214524
 20
70.719050
 30
0.0
 10
204.461945
 20
71.200298
 30
0.0
 10
204.709364
 20
71.681543
 30
0.0
 10
204.570338
 20
72.100113
 30
0.0
 10
204.431310
 20
72.518685
 30
0.0
 10
204.292285
 20
72.937257
 30
0.0
 10
204.153259
 20
73.355827
 30
0.0
 10
203.951504
 20
74.077836
 30
0.0
 10
203.819822
 20
74.788350
 30
0.0
 10
203.768619
 20
75.411488
 30
0.0
 10
203.808296
 20
75.871369
 30
0.0
 10
203.858444
 20
76.303175
 30
0.0
 10
203.802471
 20
76.768116
 30
0.0
 10
203.641822
 20
77.259829
 30
0.0
 10
203.377935
 20
77.771955
 30
0.0
 10
203.087599
 20
78.327930
 30
0.0
 10
202.771293
 20
79.058635
 30
0.0
 10
202.467224
 20
79.869151
 30
0.0
 10
202.213597
 20
80.664569
 30
0.0
 10
201.890717
 20
81.596854
 30
0.0
 10
201.472512
 20
82.415555
 30
0.0
 10
200.920406
 20
83.183758
 30
0.0
 10
200.195832
 20
83.964551
 30
0.0
 10
198.941845
 20
85.325537
 30
0.0
 10
198.291978
 20
86.468018
 30
0.0
 10
198.161148
 20
87.644755
 30
0.0
 10
198.464269
 20
89.108506
 30
0.0
 10
198.955553
 20
92.172928
 30
0.0
 10
198.470864
 20
94.398640
 30
0.0
 10
197.075453
 20
95.664457
 30
0.0
 10
194.834569
 20
95.849209
 30
0.0
 10
194.030479
 20
95.749451
 30
0.0
 10
193.584096
 20
95.803175
 30
0.0
 10
193.358522
 20
96.077143
 30
0.0
 10
193.216857
 20
96.638113
 30
0.0
 10
193.052147
 20
97.144273
 30
0.0
 10
192.758856
 20
97.571735
 30
0.0
 10
192.303730
 20
97.956593
 30
0.0
 10
191.653521
 20
98.334946
 30
0.0
 10
190.780323
 20
98.712819
 30
0.0
 10
190.020027
 20
98.840888
 30
0.0
 10
189.203544
 20
98.719917
 30
0.0
 10
188.161778
 20
98.350665
 30
0.0
 10
187.692521
 20
98.175922
 30
0.0
 10
186.907644
 20
97.900837
 30
0.0
 10
185.916525
 20
97.563153
 30
0.0
 10
184.828533
 20
97.200604
 30
0.0
 10
183.435151
 20
96.770263
 30
0.0
 10
182.447850
 20
96.552791
 30
0.0
 10
181.694040
 20
96.523751
 30
0.0
 10
181.001134
 20
96.658709
 30
0.0
 10
180.326645
 20
96.792542
 30
0.0
 10
179.589834
 20
96.791413
 30
0.0
 10
178.674601
 20
96.645233
 30
0.0
 10
177.464850
 20
96.343535
 30
0.0
 10
176.227994
 20
96.034174
 30
0.0
 10
175.303871
 20
95.889465
 30
0.0
 10
174.545495
 20
95.897452
 30
0.0
 10
173.805867
 20
96.046214
 30
0.0
 10
171.962199
 20
96.945504
 30
0.0
 10
169.980223
 20
98.477764
 30
0.0
 10
168.305412
 20
100.241475
 30
0.0
 10
167.383240
 20
101.835119
 30
0.0
 10
166.734233
 20
103.175443
 30
0.0
 10
165.641082
 20
104.759004
 30
0.0
 10
164.462090
 20
106.121254
 30
0.0
 10
163.555573
 20
106.797656
 30
0.0
 10
163.231426
 20
106.906873
 30
0.0
 10
163.081321
 20
107.015923
 30
0.0
 10
163.097944
 20
107.137460
 30
0.0
 10
163.273949
 20
107.284128
 30
0.0
 10
163.452773
 20
107.430339
 30
0.0
 10
163.475266
 20
107.548694
 30
0.0
 10
163.334598
 20
107.651962
 30
0.0
 10
163.023968
 20
107.752913
 30
0.0
 10
162.536604
 20
107.987948
 30
0.0
 10
162.346818
 20
108.290781
 30
0.0
 10
162.467730
 20
108.553648
 30
0.0
 10
162.912462
 20
108.668780
 30
0.0
 10
163.195875
 20
108.683089
 30
0.0
 10
163.301299
 20
108.730991
 30
0.0
 10
163.233137
 20
108.829848
 30
0.0
 10
162.995793
 20
108.997013
 30
0.0
 10
162.812259
 20
109.133702
 30
0.0
 10
162.734665
 20
109.236233
 30
0.0
 10
162.763990
 20
109.301212
 30
0.0
 10
162.901218
 20
109.325229
 30
0.0
 10
163.031416
 20
109.403405
 30
0.0
 10
163.025686
 20
109.629888
 30
0.0
 10
162.885143
 20
110.000113
 30
0.0
 10
162.610910
 20
110.509502
 30
0.0
 10
162.246841
 20
111.166766
 30
0.0
 10
162.105885
 20
111.596706
 30
0.0
 10
162.176395
 20
111.924668
 30
0.0
 10
162.446716
 20
112.276007
 30
0.0
 10
163.342199
 20
113.817953
 30
0.0
 10
163.773248
 20
115.771250
 30
0.0
 10
163.712124
 20
117.834706
 30
0.0
 10
163.131091
 20
119.707135
 30
0.0
 10
162.890637
 20
120.578341
 30
0.0
 10
162.975917
 20
121.569480
 30
0.0
 10
163.379209
 20
122.647879
 30
0.0
 10
164.092803
 20
123.780860
 30
0.0
 10
164.486249
 20
124.351598
 30
0.0
 10
164.973093
 20
125.130080
 30
0.0
 10
165.491428
 20
126.013932
 30
0.0
 10
165.979356
 20
126.900785
 30
0.0
 10
166.966135
 20
128.485423
 30
0.0
 10
168.156692
 20
130.029077
 30
0.0
 10
169.268823
 20
131.199162
 30
0.0
 10
170.020316
 20
131.663099
 30
0.0
 10
170.782180
 20
132.056454
 30
0.0
 10
171.771914
 20
132.978601
 30
0.0
 10
172.629655
 20
134.042652
 30
0.0
 10
172.995539
 20
134.861726
 30
0.0
 10
173.181188
 20
136.132420
 30
0.0
 10
173.714531
 20
137.342183
 30
0.0
 10
174.560157
 20
138.431973
 30
0.0
 10
175.682662
 20
139.342735
 30
0.0
 10
176.369957
 20
139.837953
 30
0.0
 10
177.038446
 20
140.414446
 30
0.0
 10
177.611659
 20
141.000613
 30
0.0
 10
178.013131
 20
141.524852
 30
0.0
 10
178.502454
 20
142.261452
 30
0.0
 10
178.876644
 20
142.585618
 30
0.0
 10
179.275260
 20
142.549341
 30
0.0
 10
179.837856
 20
142.204604
 30
0.0
 10
180.198824
 20
142.008962
 30
0.0
 10
180.695623
 20
141.814999
 30
0.0
 10
181.262731
 20
141.645115
 30
0.0
 10
181.834632
 20
141.521725
 30
0.0
 10
182.594199
 20
141.447938
 30
0.0
 10
183.295318
 20
141.536454
 30
0.0
 10
184.099403
 20
141.828035
 30
0.0
 10
185.167877
 20
142.363444
 30
0.0
 10
187.161142
 20
143.310175
 30
0.0
 10
188.987165
 20
143.876807
 30
0.0
 10
190.891010
 20
144.116306
 30
0.0
 10
193.117758
 20
144.081644
 30
0.0
 10
194.542658
 20
144.023424
 30
0.0
 10
195.638719
 20
144.059055
 30
0.0
 10
196.524942
 20
144.199079
 30
0.0
 10
197.320329
 20
144.454042
 30
0.0
 10
198.420431
 20
144.740545
 30
0.0
 10
199.301786
 20
144.695082
 30
0.0
 10
199.824396
 20
144.355998
 30
0.0
 10
199.848272
 20
143.761638
 30
0.0
 10
199.798610
 20
143.528105
 30
0.0
 10
199.809955
 20
143.274186
 30
0.0
 10
199.877451
 20
143.030530
 30
0.0
 10
199.996244
 20
142.827773
 30
0.0
 10
200.130687
 20
142.586171
 30
0.0
 10
200.174519
 20
142.288082
 30
0.0
 10
200.127698
 20
141.923886
 30
0.0
 10
199.990177
 20
141.483958
 30
0.0
 10
199.835558
 20
140.968315
 30
0.0
 10
199.850996
 20
140.560036
 30
0.0
 10
200.066165
 20
140.154287
 30
0.0
 10
200.510772
 20
139.646237
 30
0.0
 10
200.931551
 20
139.276105
 30
0.0
 10
201.431977
 20
138.941830
 30
0.0
 10
201.949366
 20
138.680117
 30
0.0
 10
202.421038
 20
138.527666
 30
0.0
 10
204.097405
 20
138.149079
 30
0.0
 10
205.215027
 20
137.768324
 30
0.0
 10
205.934087
 20
137.312437
 30
0.0
 10
206.414774
 20
136.708447
 30
0.0
 10
206.745789
 20
136.254250
 30
0.0
 10
207.144801
 20
135.911514
 30
0.0
 10
207.632514
 20
135.666505
 30
0.0
 10
208.229646
 20
135.505498
 30
0.0
 10
208.787774
 20
135.375774
 30
0.0
 10
209.389379
 20
135.194796
 30
0.0
 10
209.962135
 20
134.986533
 30
0.0
 10
210.433722
 20
134.774957
 30
0.0
 10
210.983175
 20
134.519930
 30
0.0
 10
211.371970
 20
134.464786
 30
0.0
 10
211.732786
 20
134.628791
 30
0.0
 10
212.198294
 20
135.031209
 30
0.0
 10
212.523431
 20
135.388971
 30
0.0
 10
212.738634
 20
135.742491
 30
0.0
 10
212.837212
 20
136.077085
 30
0.0
 10
212.812461
 20
136.378067
 30
0.0
 10
212.768059
 20
136.661931
 30
0.0
 10
212.786318
 20
136.996432
 30
0.0
 10
212.861469
 20
137.339821
 30
0.0
 10
212.987763
 20
137.650353
 30
0.0
 10
213.550404
 20
138.174781
 30
0.0
 10
214.456876
 20
138.303158
 30
0.0
 10
215.695324
 20
138.036252
 30
0.0
 10
217.253896
 20
137.374830
 30
0.0
 10
219.458080
 20
136.522135
 30
0.0
 10
222.004368
 20
135.896675
 30
0.0
 10
224.397612
 20
135.591714
 30
0.0
 10
226.142677
 20
135.700522
 30
0.0
 10
226.740350
 20
135.826170
 30
0.0
 10
227.322772
 20
135.869499
 30
0.0
 10
227.886373
 20
135.830499
 30
0.0
 10
228.427568
 20
135.709158
 30
0.0
 10
229.948317
 20
135.416761
 30
0.0
 10
231.071922
 20
135.608991
 30
0.0
 10
231.822628
 20
136.297235
 30
0.0
 10
232.224687
 20
137.492887
 30
0.0
 10
232.314696
 20
137.947191
 30
0.0
 10
232.419409
 20
138.319228
 30
0.0
 10
232.525824
 20
138.570606
 30
0.0
 10
232.620939
 20
138.662929
 30
0.0
 10
232.763596
 20
138.847172
 30
0.0
 10
232.869737
 20
139.411182
 30
0.0
 10
232.941331
 20
140.371878
 30
0.0
 10
232.980351
 20
141.746182
 30
0.0
 10
233.014543
 20
142.231519
 30
0.0
 10
233.094019
 20
142.628970
 30
0.0
 10
233.206933
 20
142.897519
 30
0.0
 10
233.341432
 20
142.996150
 30
0.0
 10
233.465649
 20
143.041043
 30
0.0
 10
233.501647
 20
143.174209
 30
0.0
 10
233.449529
 20
143.393380
 30
0.0
 10
233.309400
 20
143.696281
 30
0.0
 10
232.911433
 20
144.123619
 30
0.0
 10
232.286381
 20
144.255704
 30
0.0
 10
231.365151
 20
144.091087
 30
0.0
 10
230.078653
 20
143.628310
 30
0.0
 10
229.478933
 20
143.414832
 30
0.0
 10
229.016103
 20
143.360148
 30
0.0
 10
228.571704
 20
143.471683
 30
0.0
 10
228.027278
 20
143.756857
 30
0.0
 10
227.212838
 20
144.138122
 30
0.0
 10
226.465333
 20
144.306310
 30
0.0
 10
225.862515
 20
144.254711
 30
0.0
 10
225.482130
 20
143.976609
 30
0.0
 10
225.061961
 20
143.802769
 30
0.0
 10
224.303398
 20
143.844086
 30
0.0
 10
223.416738
 20
144.066813
 30
0.0
 10
222.612260
 20
144.437199
 30
0.0
 10
222.131362
 20
144.884013
 30
0.0
 10
221.720898
 20
145.530624
 30
0.0
 10
221.434956
 20
146.269425
 30
0.0
 10
221.327624
 20
146.992820
 30
0.0
 10
221.268445
 20
147.279924
 30
0.0
 10
221.107319
 20
147.594399
 30
0.0
 10
220.868847
 20
147.898175
 30
0.0
 10
220.577644
 20
148.153171
 30
0.0
 10
220.209406
 20
148.437386
 30
0.0
 10
220.053648
 20
148.645107
 30
0.0
 10
220.097390
 20
148.820742
 30
0.0
 10
220.327652
 20
149.008696
 30
0.0
 10
220.581522
 20
149.121707
 30
0.0
 10
220.903142
 20
149.187498
 30
0.0
 10
221.251269
 20
149.201186
 30
0.0
 10
221.584655
 20
149.157857
 30
0.0
 10
221.977596
 20
149.127941
 30
0.0
 10
222.370523
 20
149.230173
 30
0.0
 10
222.779471
 20
149.471425
 30
0.0
 10
223.220475
 20
149.858566
 30
0.0
 10
223.678476
 20
150.244666
 30
0.0
 10
224.179714
 20
150.531573
 30
0.0
 10
224.720393
 20
150.717569
 30
0.0
 10
225.296719
 20
150.800926
 30
0.0
 10
225.834451
 20
150.873567
 30
0.0
 10
226.413390
 20
151.024378
 30
0.0
 10
226.963975
 20
151.231321
 30
0.0
 10
227.416645
 20
151.472364
 30
0.0
 10
228.474482
 20
151.845289
 30
0.0
 10
229.873308
 20
151.885215
 30
0.0
 10
231.429393
 20
151.606961
 30
0.0
 10
232.959013
 20
151.025344
 30
0.0
 10
234.849269
 20
150.302570
 30
0.0
 10
236.527027
 20
150.096372
 30
0.0
 10
237.889570
 20
150.403348
 30
0.0
 10
238.834182
 20
151.220088
 30
0.0
 10
239.108674
 20
151.684773
 30
0.0
 10
239.203538
 20
152.035919
 30
0.0
 10
239.120595
 20
152.379959
 30
0.0
 10
238.861671
 20
152.823333
 30
0.0
 10
238.466466
 20
153.238299
 30
0.0
 10
237.768534
 20
153.791076
 30
0.0
 10
236.866407
 20
154.409541
 30
0.0
 10
235.858626
 20
155.021559
 30
0.0
 10
235.235736
 20
155.375957
 30
0.0
 10
234.612849
 20
155.730352
 30
0.0
 10
233.989959
 20
156.084750
 30
0.0
 10
233.367069
 20
156.439148
 30
0.0
 10
233.483771
 20
156.664824
 30
0.0
 10
233.600475
 20
156.890500
 30
0.0
 10
233.717177
 20
157.116179
 30
0.0
 10
233.833879
 20
157.341855
 30
0.0
 10
234.000396
 20
157.707096
 30
0.0
 10
234.108707
 20
158.034248
 30
0.0
 10
234.149618
 20
158.287570
 30
0.0
 10
234.113942
 20
158.431309
 30
0.0
 10
234.063052
 20
158.538446
 30
0.0
 10
234.062487
 20
158.692108
 30
0.0
 10
234.109489
 20
158.871762
 30
0.0
 10
234.201140
 20
159.056888
 30
0.0
 10
234.312677
 20
159.261240
 30
0.0
 10
234.413814
 20
159.493241
 30
0.0
 10
234.493421
 20
159.724375
 30
0.0
 10
234.540369
 20
159.926116
 30
0.0
 10
234.459199
 20
160.177909
 30
0.0
 10
234.007206
 20
160.151662
 30
0.0
 10
233.043843
 20
159.810950
 30
0.0
 10
231.428564
 20
159.119324
 30
0.0
 10
230.508528
 20
158.686878
 30
0.0
 10
230.010414
 20
158.368179
 30
0.0
 10
229.864838
 20
158.099960
 30
0.0
 10
230.002410
 20
157.818957
 30
0.0
 10
230.216222
 20
157.627594
 30
0.0
 10
230.497851
 20
157.468669
 30
0.0
 10
230.810689
 20
157.358743
 30
0.0
 10
231.118122
 20
157.314369
 30
0.0
 10
231.398781
 20
157.275112
 30
0.0
 10
231.408997
 20
157.160883
 30
0.0
 10
231.132078
 20
156.951409
 30
0.0
 10
230.551321
 20
156.626419
 30
0.0
 10
229.827404
 20
156.268547
 30
0.0
 10
229.341753
 20
156.134212
 30
0.0
 10
228.934490
 20
156.213573
 30
0.0
 10
228.445735
 20
156.496789
 30
0.0
 10
228.052946
 20
156.786058
 30
0.0
 10
227.860259
 20
157.026429
 30
0.0
 10
227.851200
 20
157.256316
 30
0.0
 10
228.009286
 20
157.514121
 30
0.0
 10
228.174990
 20
157.757405
 30
0.0
 10
228.197766
 20
157.939319
 30
0.0
 10
228.069374
 20
158.085392
 30
0.0
 10
227.781606
 20
158.221144
 30
0.0
 10
227.512332
 20
158.349318
 30
0.0
 10
227.238117
 20
158.525862
 30
0.0
 10
226.991060
 20
158.727484
 30
0.0
 10
226.803263
 20
158.930896
 30
0.0
 10
225.764234
 20
159.091935
 30
0.0
 10
224.343197
 20
157.957884
 30
0.0
 10
222.935998
 20
155.966225
 30
0.0
 10
221.938486
 20
153.554441
 30
0.0
 10
221.713747
 20
152.636818
 30
0.0
 10
221.680865
 20
152.084851
 30
0.0
 10
221.871472
 20
151.713331
 30
0.0
 10
222.317206
 20
151.337052
 30
0.0
 10
222.519161
 20
151.184717
 30
0.0
 10
222.721116
 20
151.032382
 30
0.0
 10
222.923072
 20
150.880047
 30
0.0
 10
223.125027
 20
150.727712
 30
0.0
 10
222.754515
 20
150.651303
 30
0.0
 10
222.384002
 20
150.574891
 30
0.0
 10
222.013492
 20
150.498483
 30
0.0
 10
221.642980
 20
150.422074
 30
0.0
 10
220.991839
 20
150.324075
 30
0.0
 10
220.314514
 20
150.283187
 30
0.0
 10
219.691105
 20
150.300825
 30
0.0
 10
219.201715
 20
150.378451
 30
0.0
 10
218.446082
 20
150.460481
 30
0.0
 10
217.732935
 20
150.337974
 30
0.0
 10
217.202337
 20
150.056432
 30
0.0
 10
216.994348
 20
149.661352
 30
0.0
 10
216.954560
 20
149.555812
 30
0.0
 10
216.846229
 20
149.498451
 30
0.0
 10
216.685901
 20
149.493117
 30
0.0
 10
216.490118
 20
149.543697
 30
0.0
 10
216.256918
 20
149.587774
 30
0.0
 10
215.994711
 20
149.564745
 30
0.0
 10
215.735608
 20
149.481184
 30
0.0
 10
215.511707
 20
149.343652
 30
0.0
 10
215.295488
 20
149.086906
 30
0.0
 10
215.264461
 20
148.754821
 30
0.0
 10
215.434960
 20
148.249299
 30
0.0
 10
215.823315
 20
147.472250
 30
0.0
 10
216.239533
 20
146.639359
 30
0.0
 10
216.413280
 20
146.070407
 30
0.0
 10
216.365957
 20
145.587285
 30
0.0
 10
216.118968
 20
145.011877
 30
0.0
 10
215.695883
 20
144.388626
 30
0.0
 10
215.258297
 20
144.228422
 30
0.0
 10
214.776804
 20
144.535985
 30
0.0
 10
214.222000
 20
145.316025
 30
0.0
 10
213.911030
 20
145.868040
 30
0.0
 10
213.827275
 20
146.167884
 30
0.0
 10
213.986957
 20
146.310009
 30
0.0
 10
214.406302
 20
146.388878
 30
0.0
 10
214.941068
 20
146.560546
 30
0.0
 10
215.139767
 20
146.819908
 30
0.0
 10
214.993759
 20
147.081567
 30
0.0
 10
214.494412
 20
147.260132
 30
0.0
 10
213.128386
 20
147.647801
 30
0.0
 10
212.136677
 20
148.306985
 30
0.0
 10
211.532191
 20
149.224941
 30
0.0
 10
211.327828
 20
150.388924
 30
0.0
 10
211.111070
 20
151.397434
 30
0.0
 10
210.521677
 20
152.348579
 30
0.0
 10
209.650973
 20
153.133761
 30
0.0
 10
208.590281
 20
153.644377
 30
0.0
 10
208.003103
 20
153.861776
 30
0.0
 10
207.452259
 20
154.139739
 30
0.0
 10
206.999549
 20
154.442507
 30
0.0
 10
206.706775
 20
154.734314
 30
0.0
 10
206.431097
 20
155.032205
 30
0.0
 10
206.024926
 20
155.351534
 30
0.0
 10
205.542958
 20
155.654005
 30
0.0
 10
205.039889
 20
155.901331
 30
0.0
 10
204.538721
 20
156.145938
 30
0.0
 10
204.061932
 20
156.441019
 30
0.0
 10
203.663423
 20
156.749400
 30
0.0
 10
203.397104
 20
157.033928
 30
0.0
 10
203.151655
 20
157.326909
 30
0.0
 10
202.913434
 20
157.465451
 30
0.0
 10
202.644855
 20
157.459384
 30
0.0
 10
202.308339
 20
157.318518
 30
0.0
 10
202.057150
 20
157.146470
 30
0.0
 10
201.851449
 20
156.933959
 30
0.0
 10
201.712460
 20
156.707992
 30
0.0
 10
201.661415
 20
156.495569
 30
0.0
 10
202.357705
 20
155.367098
 30
0.0
 10
204.045292
 20
153.649646
 30
0.0
 10
206.122253
 20
151.897904
 30
0.0
 10
207.986672
 20
150.666574
 30
0.0
 10
209.289495
 20
149.967208
 30
0.0
 10
209.894094
 20
149.537541
 30
0.0
 10
209.798988
 20
149.379285
 30
0.0
 10
209.002689
 20
149.494158
 30
0.0
 10
208.163414
 20
149.604493
 30
0.0
 10
207.681816
 20
149.478362
 30
0.0
 10
207.543423
 20
149.104073
 30
0.0
 10
207.733767
 20
148.469940
 30
0.0
 10
207.904537
 20
148.010067
 30
0.0
 10
207.911282
 20
147.652065
 30
0.0
 10
207.732988
 20
147.310153
 30
0.0
 10
207.348627
 20
146.898549
 30
0.0
 10
207.157168
 20
146.714588
 30
0.0
 10
206.965708
 20
146.530624
 30
0.0
 10
206.774248
 20
146.346664
 30
0.0
 10
206.582789
 20
146.162700
 30
0.0
 10
206.626358
 20
146.410937
 30
0.0
 10
206.669925
 20
146.659174
 30
0.0
 10
206.713495
 20
146.907411
 30
0.0
 10
206.757061
 20
147.155648
 30
0.0
 10
206.565350
 20
148.420633
 30
0.0
 10
205.744617
 20
149.666841
 30
0.0
 10
204.548887
 20
150.617515
 30
0.0
 10
203.232179
 20
150.995908
 30
0.0
 10
202.477805
 20
151.382984
 30
0.0
 10
201.386412
 20
152.326766
 30
0.0
 10
200.294251
 20
153.501087
 30
0.0
 10
199.537566
 20
154.579780
 30
0.0
 10
199.009937
 20
155.367626
 30
0.0
 10
198.431235
 20
155.765480
 30
0.0
 10
197.779115
 20
155.780833
 30
0.0
 10
197.031232
 20
155.421209
 30
0.0
 10
195.889767
 20
154.734356
 30
0.0
 10
194.856608
 20
154.305861
 30
0.0
 10
193.888682
 20
154.122555
 30
0.0
 10
192.942918
 20
154.171272
 30
0.0
 10
191.809991
 20
154.227197
 30
0.0
 10
190.976671
 20
153.993271
 30
0.0
 10
190.508777
 20
153.505978
 30
0.0
 10
190.472125
 20
152.801791
 30
0.0
 10
190.535904
 20
152.440795
 30
0.0
 10
190.516290
 20
152.189880
 30
0.0
 10
190.411540
 20
152.043438
 30
0.0
 10
190.219900
 20
151.995869
 30
0.0
 10
189.967009
 20
151.930148
 30
0.0
 10
189.614423
 20
151.751205
 30
0.0
 10
189.208828
 20
151.486365
 30
0.0
 10
188.796919
 20
151.162964
 30
0.0
 10
188.400761
 20
150.839531
 30
0.0
 10
188.038049
 20
150.574606
 30
0.0
 10
187.748929
 20
150.395531
 30
0.0
 10
187.573539
 20
150.329652
 30
0.0
 10
187.153338
 20
149.988586
 30
0.0
 10
186.630841
 20
149.182684
 30
0.0
 10
186.185406
 20
148.236604
 30
0.0
 10
185.996394
 20
147.475016
 30
0.0
 10
185.772267
 20
146.830960
 30
0.0
 10
185.186233
 20
146.063231
 30
0.0
 10
184.364627
 20
145.308503
 30
0.0
 10
183.433793
 20
144.703456
 30
0.0
 10
183.045089
 20
144.558218
 30
0.0
 10
182.524948
 20
144.439282
 30
0.0
 10
181.941340
 20
144.358916
 30
0.0
 10
181.362243
 20
144.329401
 30
0.0
 10
180.705066
 20
144.295083
 30
0.0
 10
180.229575
 20
144.180501
 30
0.0
 10
179.892410
 20
143.968213
 30
0.0
 10
179.650221
 20
143.640785
 30
0.0
 10
179.424000
 20
143.259861
 30
0.0
 10
179.218328
 20
143.151242
 30
0.0
 10
178.920958
 20
143.330749
 30
0.0
 10
178.419650
 20
143.814199
 30
0.0
 10
177.858962
 20
144.312775
 30
0.0
 10
177.285534
 20
144.647017
 30
0.0
 10
176.559114
 20
144.877903
 30
0.0
 10
175.539454
 20
145.066408
 30
0.0
 10
175.035687
 20
145.485787
 30
0.0
 10
174.803602
 20
146.485793
 30
0.0
 10
174.850019
 20
147.974995
 30
0.0
 10
175.181757
 20
149.861964
 30
0.0
 10
175.357973
 20
150.751151
 30
0.0
 10
175.472592
 20
151.597591
 30
0.0
 10
175.515891
 20
152.305563
 30
0.0
 10
175.478144
 20
152.779341
 30
0.0
 10
175.475886
 20
153.618856
 30
0.0
 10
175.902902
 20
154.219758
 30
0.0
 10
176.699271
 20
154.537066
 30
0.0
 10
177.805060
 20
154.525805
 30
0.0
 10
180.370373
 20
154.189746
 30
0.0
 10
182.329480
 20
154.061713
 30
0.0
 10
183.670648
 20
154.141870
 30
0.0
 10
184.382150
 20
154.430391
 30
0.0
 10
184.841972
 20
155.237939
 30
0.0
 10
185.119114
 20
156.412811
 30
0.0
 10
185.179016
 20
157.702253
 30
0.0
 10
184.987105
 20
158.853511
 30
0.0
 10
184.741617
 20
159.417670
 30
0.0
 10
184.392641
 20
159.846360
 30
0.0
 10
183.876990
 20
160.196496
 30
0.0
 10
183.131480
 20
160.524992
 30
0.0
 10
182.152849
 20
161.006688
 30
0.0
 10
181.811986
 20
161.424047
 30
0.0
 10
182.112107
 20
161.720807
 30
0.0
 10
183.056417
 20
161.840717
 30
0.0
 10
183.581463
 20
161.891475
 30
0.0
 10
184.145651
 20
162.020987
 30
0.0
 10
184.681249
 20
162.209658
 30
0.0
 10
185.120534
 20
162.437891
 30
0.0
 10
185.492229
 20
162.649876
 30
0.0
 10
185.843807
 20
162.794309
 30
0.0
 10
186.135639
 20
162.858351
 30
0.0
 10
186.328106
 20
162.829164
 30
0.0
 10
186.888572
 20
162.835627
 30
0.0
 10
187.706615
 20
163.201618
 30
0.0
 10
188.547415
 20
163.791779
 30
0.0
 10
189.176146
 20
164.470760
 30
0.0
 10
189.436107
 20
164.794037
 30
0.0
 10
189.759020
 20
165.086826
 30
0.0
 10
190.103774
 20
165.316919
 30
0.0
 10
190.429250
 20
165.452120
 30
0.0
 10
190.845149
 20
165.647116
 30
0.0
 10
191.436106
 20
166.040023
 30
0.0
 10
192.123399
 20
166.573773
 30
0.0
 10
192.828311
 20
167.191295
 30
0.0
 10
193.703550
 20
167.952493
 30
0.0
 10
194.445619
 20
168.456875
 30
0.0
 10
195.152955
 20
168.759231
 30
0.0
 10
195.924009
 20
168.914349
 30
0.0
 10
196.928850
 20
169.193743
 30
0.0
 10
197.744616
 20
169.680072
 30
0.0
 10
198.179334
 20
170.216342
 30
0.0
 10
198.041029
 20
170.645565
 30
0.0
 10
197.757488
 20
171.061868
 30
0.0
 10
197.545576
 20
171.760552
 30
0.0
 10
197.451918
 20
172.519230
 30
0.0
 10
197.523142
 20
173.115512
 30
0.0
 10
197.666015
 20
173.356335
 30
0.0
 10
197.911350
 20
173.637637
 30
0.0
 10
198.224741
 20
173.924434
 30
0.0
 10
198.571779
 20
174.181739
 30
0.0
 10
198.785350
 20
174.321676
 30
0.0
 10
198.998922
 20
174.461613
 30
0.0
 10
199.212491
 20
174.601550
 30
0.0
 10
199.426062
 20
174.741487
 30
0.0
 10
199.371232
 20
174.398604
 30
0.0
 10
199.316405
 20
174.055721
 30
0.0
 10
199.261575
 20
173.712835
 30
0.0
 10
199.206745
 20
173.369952
 30
0.0
 10
199.112245
 20
172.656805
 30
0.0
 10
199.128163
 20
172.254906
 30
0.0
 10
199.275291
 20
172.092171
 30
0.0
 10
199.574452
 20
172.096517
 30
0.0
 10
199.861946
 20
172.167333
 30
0.0
 10
200.210790
 20
172.287630
 30
0.0
 10
200.576948
 20
172.440580
 30
0.0
 10
200.916390
 20
172.609352
 30
0.0
 10
201.308724
 20
172.800724
 30
0.0
 10
201.567943
 20
172.850531
 30
0.0
 10
201.739867
 20
172.753776
 30
0.0
 10
201.870321
 20
172.505477
 30
0.0
 10
201.902802
 20
171.945472
 30
0.0
 10
201.654644
 20
171.473368
 30
0.0
 10
201.250132
 20
171.226144
 30
0.0
 10
200.813563
 20
171.340788
 30
0.0
 10
200.605833
 20
171.480384
 30
0.0
 10
200.431392
 20
171.521930
 30
0.0
 10
200.282014
 20
171.465040
 30
0.0
 10
200.149474
 20
171.309324
 30
0.0
 10
200.024134
 20
171.153571
 30
0.0
 10
199.903472
 20
171.110518
 30
0.0
 10
199.777926
 20
171.181243
 30
0.0
 10
199.637935
 20
171.366815
 30
0.0
 10
199.518310
 20
171.525246
 30
0.0
 10
199.394803
 20
171.629445
 30
0.0
 10
199.281971
 20
171.670466
 30
0.0
 10
199.194366
 20
171.639368
 30
0.0
 10
199.188496
 20
171.497921
 30
0.0
 10
199.298182
 20
171.238489
 30
0.0
 10
199.504001
 20
170.898021
 30
0.0
 10
199.786528
 20
170.513457
 30
0.0
 10
200.231841
 20
170.000027
 30
0.0
 10
200.598083
 20
169.760869
 30
0.0
 10
201.020660
 20
169.753701
 30
0.0
 10
201.634979
 20
169.936247
 30
0.0
 10
202.209826
 20
170.100944
 30
0.0
 10
202.688594
 20
170.141623
 30
0.0
 10
203.143321
 20
170.054724
 30
0.0
 10
203.646061
 20
169.836677
 30
0.0
 10
204.193973
 20
169.601481
 30
0.0
 10
204.710586
 20
169.547447
 30
0.0
 10
205.370520
 20
169.687319
 30
0.0
 10
206.348398
 20
170.033837
 30
0.0
 10
207.251136
 20
170.346743
 30
0.0
 10
207.922331
 20
170.496814
 30
0.0
 10
208.447615
 20
170.494556
 30
0.0
 10
208.912621
 20
170.350716
 30
0.0
 10
209.315284
 20
170.206086
 30
0.0
 10
209.686550
 20
170.160879
 30
0.0
 10
210.050259
 20
170.215396
 30
0.0
 10
210.430257
 20
170.369936
 30
0.0
 10
211.359011
 20
170.925846
 30
0.0
 10
211.926520
 20
171.473927
 30
0.0
 10
212.178014
 20
172.077798
 30
0.0
 10
212.158738
 20
172.801088
 30
0.0
 10
212.098983
 20
173.793441
 30
0.0
 10
212.336332
 20
174.389302
 30
0.0
 10
212.874953
 20
174.592962
 30
0.0
 10
213.719015
 20
174.408716
 30
0.0
 10
214.290306
 20
174.219613
 30
0.0
 10
214.694883
 20
174.167569
 30
0.0
 10
215.006403
 20
174.256361
 30
0.0
 10
215.298525
 20
174.489770
 30
0.0
 10
215.532135
 20
174.777123
 30
0.0
 10
215.570294
 20
175.043488
 30
0.0
 10
215.394038
 20
175.370343
 30
0.0
 10
214.984395
 20
175.839179
 30
0.0
 10
214.588406
 20
176.292307
 30
0.0
 10
214.414676
 20
176.601123
 30
0.0
 10
214.447168
 20
176.826266
 30
0.0
 10
214.669841
 20
177.028365
 30
0.0
 10
214.999370
 20
177.142360
 30
0.0
 10
215.533453
 20
177.207723
 30
0.0
 10
216.198255
 20
177.219689
 30
0.0
 10
216.919951
 20
177.173506
 30
0.0
 10
218.282167
 20
177.182876
 30
0.0
 10
219.524086
 20
177.432970
 30
0.0
 10
220.361981
 20
177.834849
 30
0.0
 10
220.512126
 20
178.299564
 30
0.0
 10
219.973104
 20
178.633041
 30
0.0
 10
218.986360
 20
178.806712
 30
0.0
 10
217.739945
 20
178.806148
 30
0.0
 10
216.421911
 20
178.616520
 30
0.0
 10
215.458345
 20
178.431548
 30
0.0
 10
214.739344
 20
178.397329
 30
0.0
 10
214.087208
 20
178.526113
 30
0.0
 10
213.324228
 20
178.830156
 30
0.0
 10
212.259537
 20
179.480935
 30
0.0
 10
211.782731
 20
180.243878
 30
0.0
 10
211.880427
 20
181.178911
 30
0.0
 10
212.539250
 20
182.345965
 30
0.0
 10
213.505573
 20
183.758775
 30
0.0
 10
214.032784
 20
184.727884
 30
0.0
 10
214.173446
 20
185.380952
 30
0.0
 10
213.980116
 20
185.845639
 30
0.0
 10
213.460798
 20
186.248915
 30
0.0
 10
212.862214
 20
186.213208
 30
0.0
 10
212.100631
 20
185.705030
 30
0.0
 10
211.092322
 20
184.690907
 30
0.0
 10
210.437561
 20
184.022811
 30
0.0
 10
209.752864
 20
183.414187
 30
0.0
 10
209.119411
 20
182.932197
 30
0.0
 10
208.618376
 20
182.644009
 30
0.0
 10
208.194628
 20
182.407820
 30
0.0
 10
207.771608
 20
182.067417
 30
0.0
 10
207.398346
 20
181.668338
 30
0.0
 10
207.123891
 20
181.256127
 30
0.0
 10
206.869171
 20
180.709816
 30
0.0
 10
206.785111
 20
180.309833
 30
0.0
 10
206.872149
 20
179.942736
 30
0.0
 10
207.130721
 20
179.495072
 30
0.0
 10
207.383134
 20
179.174273
 30
0.0
 10
207.691321
 20
178.879356
 30
0.0
 10
208.016289
 20
178.643037
 30
0.0
 10
208.319048
 20
178.498034
 30
0.0
 10
208.855719
 20
178.199607
 30
0.0
 10
208.929777
 20
177.784421
 30
0.0
 10
208.537886
 20
177.242453
 30
0.0
 10
207.676725
 20
176.563678
 30
0.0
 10
207.318491
 20
176.237869
 30
0.0
 10
206.947697
 20
175.764447
 30
0.0
 10
206.608093
 20
175.206894
 30
0.0
 10
206.343428
 20
174.628706
 30
0.0
 10
206.040507
 20
173.972042
 30
0.0
 10
205.657250
 20
173.415099
 30
0.0
 10
205.182645
 20
172.944700
 30
0.0
 10
204.605692
 20
172.547658
 30
0.0
 10
203.900447
 20
172.160142
 30
0.0
 10
203.457576
 20
172.020631
 30
0.0
 10
203.114331
 20
172.121028
 30
0.0
 10
202.707968
 20
172.453235
 30
0.0
 10
202.429900
 20
172.762570
 30
0.0
 10
202.172082
 20
173.152966
 30
0.0
 10
201.963246
 20
173.574425
 30
0.0
 10
201.832134
 20
173.976950
 30
0.0
 10
201.682353
 20
174.417445
 30
0.0
 10
201.422683
 20
174.942291
 30
0.0
 10
201.089630
 20
175.485696
 30
0.0
 10
200.719693
 20
175.981879
 30
0.0
 10
200.491685
 20
176.254997
 30
0.0
 10
200.263678
 20
176.528115
 30
0.0
 10
200.035668
 20
176.801230
 30
0.0
 10
199.807661
 20
177.074347
 30
0.0
 10
199.518564
 20
176.898111
 30
0.0
 10
199.229466
 20
176.721874
 30
0.0
 10
198.940366
 20
176.545635
 30
0.0
 10
198.651269
 20
176.369399
 30
0.0
 10
198.149662
 20
176.096165
 30
0.0
 10
197.638738
 20
175.873337
 30
0.0
 10
197.178320
 20
175.723844
 30
0.0
 10
196.828227
 20
175.670611
 30
0.0
 10
196.024108
 20
175.871248
 30
0.0
 10
195.280195
 20
176.382155
 30
0.0
 10
194.719239
 20
177.088786
 30
0.0
 10
194.463992
 20
177.876604
 30
0.0
 10
194.417225
 20
178.291253
 30
0.0
 10
194.344629
 20
178.716545
 30
0.0
 10
194.256127
 20
179.102520
 30
0.0
 10
194.161641
 20
179.399218
 30
0.0
 10
194.246438
 20
180.056305
 30
0.0
 10
194.840521
 20
180.806104
 30
0.0
 10
195.781439
 20
181.496219
 30
0.0
 10
196.906735
 20
181.974264
 30
0.0
 10
198.308493
 20
182.584748
 30
0.0
 10
199.914883
 20
183.586588
 30
0.0
 10
201.330275
 20
184.702518
 30
0.0
 10
202.159037
 20
185.655260
 30
0.0
 10
202.435872
 20
186.078024
 30
0.0
 10
202.867918
 20
186.608345
 30
0.0
 10
203.396046
 20
187.178456
 30
0.0
 10
203.961122
 20
187.720585
 30
0.0
 10
204.491861
 20
188.222506
 30
0.0
 10
204.926489
 20
188.683130
 30
0.0
 10
205.220155
 20
189.051415
 30
0.0
 10
205.328012
 20
189.276310
 30
0.0
 10
205.452943
 20
189.449019
 30
0.0
 10
205.793103
 20
189.675208
 30
0.0
 10
206.296542
 20
189.925537
 30
0.0
 10
206.911304
 20
190.170658
 30
0.0
 10
207.657573
 20
190.443934
 30
0.0
 10
208.519076
 20
190.770925
 30
0.0
 10
209.389170
 20
191.110576
 30
0.0
 10
210.161220
 20
191.421837
 30
0.0
 10
211.059844
 20
191.729055
 30
0.0
 10
212.074619
 20
191.956111
 30
0.0
 10
213.215999
 20
192.104828
 30
0.0
 10
214.494440
 20
192.177027
 30
0.0
 10
216.661334
 20
192.141797
 30
0.0
 10
218.488328
 20
191.906152
 30
0.0
 10
220.043733
 20
191.456248
 30
0.0
 10
221.395871
 20
190.778237
 30
0.0
 10
222.003445
 20
190.443699
 30
0.0
 10
222.557806
 20
190.237034
 30
0.0
 10
223.073050
 20
190.154427
 30
0.0
 10
223.563284
 20
190.192062
 30
0.0
 10
225.191162
 20
190.017614
 30
0.0
 10
227.669581
 20
189.359458
 30
0.0
 10
229.980143
 20
188.533247
 30
0.0
 10
231.104446
 20
187.854641
 30
0.0
 10
230.954405
 20
187.372241
 30
0.0
 10
230.260291
 20
186.980082
 30
0.0
 10
229.234159
 20
186.754338
 30
0.0
 10
228.088074
 20
186.771187
 30
0.0
 10
227.446637
 20
186.874184
 30
0.0
 10
226.632036
 20
187.020400
 30
0.0
 10
225.748833
 20
187.190366
 30
0.0
 10
224.901582
 20
187.364613
 30
0.0
 10
223.979565
 20
187.538078
 30
0.0
 10
223.320596
 20
187.601566
 30
0.0
 10
222.876954
 20
187.555849
 30
0.0
 10
222.600932
 20
187.401697
 30
0.0
 10
222.472696
 20
187.204480
 30
0.0
 10
222.511606
 20
187.018160
 30
0.0
 10
222.728736
 20
186.826367
 30
0.0
 10
223.135173
 20
186.612742
 30
0.0
 10
223.526150
 20
186.378398
 30
0.0
 10
223.918712
 20
186.046511
 30
0.0
 10
224.267226
 20
185.661241
 30
0.0
 10
224.526046
 20
185.266756
 30
0.0
 10
225.271285
 20
184.352760
 30
0.0
 10
226.336519
 20
183.646058
 30
0.0
 10
227.484302
 20
183.263523
 30
0.0
 10
228.477199
 20
183.322016
 30
0.0
 10
229.077763
 20
183.587164
 30
0.0
 10
229.269637
 20
183.819329
 30
0.0
 10
229.048677
 20
184.090101
 30
0.0
 10
228.410745
 20
184.471076
 30
0.0
 10
227.902222
 20
184.810349
 30
0.0
 10
227.901376
 20
184.966288
 30
0.0
 10
228.342718
 20
184.922273
 30
0.0
 10
229.160891
 20
184.661683
 30
0.0
 10
229.948257
 20
184.519991
 30
0.0
 10
230.637540
 20
184.650953
 30
0.0
 10
231.078388
 20
184.991807
 30
0.0
 10
231.120448
 20
185.479777
 30
0.0
 10
231.118472
 20
185.717160
 30
0.0
 10
231.317633
 20
185.929978
 30
0.0
 10
231.733767
 20
186.128869
 30
0.0
 10
232.382774
 20
186.324463
 30
0.0
 10
233.676452
 20
186.669793
 30
0.0
 10
234.364699
 20
186.913548
 30
0.0
 10
234.606409
 20
187.135265
 30
0.0
 10
234.560468
 20
187.414467
 30
0.0
 10
234.175777
 20
188.380291
 30
0.0
 10
234.077423
 20
188.851862
 30
0.0
 10
234.296650
 20
188.985666
 30
0.0
 10
234.864707
 20
188.938185
 30
0.0
 10
235.234850
 20
188.863495
 30
0.0
 10
235.523529
 20
188.741832
 30
0.0
 10
235.703420
 20
188.589198
 30
0.0
 10
235.747190
 20
188.421586
 30
0.0
 10
235.771377
 20
188.234094
 30
0.0
 10
235.896396
 20
188.024251
 30
0.0
 10
236.101890
 20
187.817698
 30
0.0
 10
236.367503
 20
187.640076
 30
0.0
 10
236.798186
 20
187.491322
 30
0.0
 10
237.300872
 20
187.528525
 30
0.0
 10
237.993372
 20
187.780151
 30
0.0
 10
238.993494
 20
188.274672
 30
0.0
 10
240.636572
 20
189.035157
 30
0.0
 10
242.027566
 20
189.473767
 30
0.0
 10
243.108133
 20
189.577695
 30
0.0
 10
243.819928
 20
189.334134
 30
0.0
 10
244.164417
 20
189.157367
 30
0.0
 10
244.690014
 20
189.097000
 30
0.0
 10
245.484653
 20
189.152725
 30
0.0
 10
246.636258
 20
189.324228
 30
0.0
 10
247.566761
 20
189.461092
 30
0.0
 10
248.377371
 20
189.543128
 30
0.0
 10
248.980994
 20
189.564013
 30
0.0
 10
249.290535
 20
189.517384
 30
0.0
 10
249.433405
 20
189.467620
 30
0.0
 10
249.583208
 20
189.479953
 30
0.0
 10
249.722166
 20
189.549349
 30
0.0
 10
249.832495
 20
189.670775
 30
0.0
 10
249.864637
 20
190.063326
 30
0.0
 10
249.649417
 20
190.494121
 30
0.0
 10
249.310387
 20
190.799144
 30
0.0
 10
248.971082
 20
190.814384
 30
0.0
 10
248.452575
 20
190.731264
 30
0.0
 10
247.805646
 20
190.863395
 30
0.0
 10
247.313027
 20
191.115459
 30
0.0
 10
247.257457
 20
191.392127
 30
0.0
 10
248.915185
 20
191.245349
 30
0.0
 10
252.267133
 20
190.544114
 30
0.0
 10
255.658428
 20
189.674043
 30
0.0
 10
257.434182
 20
189.020752
 30
0.0
 10
257.835671
 20
188.890710
 30
0.0
 10
258.354062
 20
189.009398
 30
0.0
 10
258.802282
 20
189.297996
 30
0.0
 10
258.993262
 20
189.677675
 30
0.0
 10
258.877260
 20
189.860583
 30
0.0
 10
258.561417
 20
190.117668
 30
0.0
 10
258.093966
 20
190.414797
 30
0.0
 10
257.523149
 20
190.717839
 30
0.0
 10
256.085470
 20
191.736043
 30
0.0
 10
255.543739
 20
192.832919
 30
0.0
 10
255.914141
 20
193.812374
 30
0.0
 10
257.212854
 20
194.478309
 30
0.0
 10
258.125962
 20
194.575475
 30
0.0
 10
258.942603
 20
194.264890
 30
0.0
 10
259.857536
 20
193.416160
 30
0.0
 10
261.065526
 20
191.898885
 30
0.0
 10
262.463720
 20
190.010886
 30
0.0
 10
263.083842
 20
188.971087
 30
0.0
 10
263.092732
 20
188.334972
 30
0.0
 10
262.657232
 20
187.658017
 30
0.0
 10
262.314411
 20
187.142377
 30
0.0
 10
262.170734
 20
186.810063
 30
0.0
 10
262.215847
 20
186.604608
 30
0.0
 10
262.439407
 20
186.469536
 30
0.0
 10
263.156203
 20
186.474786
 30
0.0
 10
263.988875
 20
186.849046
 30
0.0
 10
264.719156
 20
187.455384
 30
0.0
 10
265.128779
 20
188.156858
 30
0.0
 10
265.188548
 20
188.948435
 30
0.0
 10
264.958892
 20
189.666166
 30
0.0
 10
264.446938
 20
190.297091
 30
0.0
 10
263.659806
 20
190.828253
 30
0.0
 10
262.991515
 20
191.272403
 30
0.0
 10
262.463935
 20
191.819493
 30
0.0
 10
262.117631
 20
192.416413
 30
0.0
 10
261.993182
 20
193.010045
 30
0.0
 10
262.061102
 20
193.169055
 30
0.0
 10
262.264579
 20
193.254520
 30
0.0
 10
262.603183
 20
193.266373
 30
0.0
 10
263.076487
 20
193.204519
 30
0.0
 10
263.879059
 20
193.178893
 30
0.0
 10
264.774717
 20
193.445748
 30
0.0
 10
265.926578
 20
194.076597
 30
0.0
 10
267.497760
 20
195.142956
 30
0.0
 10
267.984007
 20
195.414934
 30
0.0
 10
268.579671
 20
195.626047
 30
0.0
 10
269.249263
 20
195.766436
 30
0.0
 10
269.957288
 20
195.826239
 30
0.0
 10
271.165035
 20
195.912842
 30
0.0
 10
271.893820
 20
196.110905
 30
0.0
 10
272.155420
 20
196.426534
 30
0.0
 10
271.961610
 20
196.865833
 30
0.0
 10
271.819627
 20
197.063744
 30
0.0
 10
271.726525
 20
197.248983
 30
0.0
 10
271.690267
 20
197.400796
 30
0.0
 10
271.718823
 20
197.498422
 30
0.0
 10
272.842104
 20
197.861425
 30
0.0
 10
274.993058
 20
198.230758
 30
0.0
 10
277.301164
 20
198.484741
 30
0.0
 10
278.895903
 20
198.501675
 30
0.0
 10
279.673369
 20
198.423589
 30
0.0
 10
280.273212
 20
198.486827
 30
0.0
 10
280.832647
 20
198.727337
 30
0.0
 10
281.488885
 20
199.181077
 30
0.0
 10
281.943339
 20
199.550886
 30
0.0
 10
282.315499
 20
199.897859
 30
0.0
 10
282.566957
 20
200.183064
 30
0.0
 10
282.659311
 20
200.367570
 30
0.0
 10
282.200220
 20
200.591016
 30
0.0
 10
281.171184
 20
200.654556
 30
0.0
 10
280.094566
 20
200.564710
 30
0.0
 10
279.492727
 20
200.328005
 30
0.0
 10
279.222129
 20
200.042427
 30
0.0
 10
278.976813
 20
200.014600
 30
0.0
 10
278.820846
 20
200.216716
 30
0.0
 10
278.818306
 20
200.620935
 30
0.0
 10
278.798466
 20
200.960900
 30
0.0
 10
278.467879
 20
201.178581
 30
0.0
 10
277.661903
 20
201.327004
 30
0.0
 10
276.215901
 20
201.459211
 30
0.0
 10
272.311306
 20
201.788988
 30
0.0
 10
270.244858
 20
202.070860
 30
0.0
 10
269.570618
 20
202.405073
 30
0.0
 10
269.842638
 20
202.891873
 30
0.0
 10
270.537313
 20
203.282829
 30
0.0
 10
271.491481
 20
203.407436
 30
0.0
 10
272.583701
 20
203.266652
 30
0.0
 10
273.692530
 20
202.861443
 30
0.0
 10
274.194228
 20
202.654295
 30
0.0
 10
274.769684
 20
202.484660
 30
0.0
 10
275.347856
 20
202.370041
 30
0.0
 10
275.857702
 20
202.327945
 30
0.0
 10
276.299416
 20
202.301642
 30
0.0
 10
276.692092
 20
202.230028
 30
0.0
 10
276.993011
 20
202.124042
 30
0.0
 10
277.159460
 20
201.994618
 30
0.0
 10
277.325565
 20
201.865193
 30
0.0
 10
277.625542
 20
201.759208
 30
0.0
 10
278.016823
 20
201.687594
 30
0.0
 10
278.456839
 20
201.661291
 30
0.0
 10
279.917023
 20
201.543991
 30
0.0
 10
281.493395
 20
201.261458
 30
0.0
 10
282.720237
 20
200.917737
 30
0.0
 10
283.131830
 20
200.616868
 30
0.0
 10
283.130983
 20
200.504702
 30
0.0
 10
283.261029
 20
200.412850
 30
0.0
 10
283.499159
 20
200.350786
 30
0.0
 10
283.822696
 20
200.327982
 30
0.0
 10
284.244494
 20
200.282689
 30
0.0
 10
284.750166
 20
200.159363
 30
0.0
 10
285.276174
 20
199.976844
 30
0.0
 10
285.758986
 20
199.753962
 30
0.0
 10
286.423947
 20
199.484491
 30
0.0
 10
287.293222
 20
199.304913
 30
0.0
 10
288.453714
 20
199.203183
 30
0.0
 10
289.992322
 20
199.167259
 30
0.0
 10
291.589968
 20
199.133545
 30
0.0
 10
292.704751
 20
199.032340
 30
0.0
 10
293.484128
 20
198.840855
 30
0.0
 10
294.075547
 20
198.536309
 30
0.0
 10
294.431085
 20
198.279543
 30
0.0
 10
294.721517
 20
198.037481
 30
0.0
 10
294.916925
 20
197.837349
 30
0.0
 10
294.987387
 20
197.706381
 30
0.0
 10
294.851057
 20
197.549990
 30
0.0
 10
294.483288
 20
197.280637
 30
0.0
 10
293.940205
 20
196.936126
 30
0.0
 10
293.277922
 20
196.554259
 30
0.0
 10
292.086476
 20
195.758082
 30
0.0
 10
291.878385
 20
195.277700
 30
0.0
 10
292.608364
 20
195.164611
 30
0.0
 10
294.231125
 20
195.470312
 30
0.0
 10
295.343320
 20
195.729708
 30
0.0
 10
296.170720
 20
195.819480
 30
0.0
 10
296.940893
 20
195.741279
 30
0.0
 10
297.881415
 20
195.496756
 30
0.0
 10
298.708397
 20
195.286351
 30
0.0
 10
299.414161
 20
195.189958
 30
0.0
 10
300.047217
 20
195.204605
 30
0.0
 10
300.656069
 20
195.327335
 30
0.0
 10
301.280776
 20
195.449001
 30
0.0
 10
301.966249
 20
195.460911
 30
0.0
 10
302.765164
 20
195.359926
 30
0.0
 10
303.730194
 20
195.142877
 30
0.0
 10
304.722025
 20
194.918756
 30
0.0
 10
305.529059
 20
194.819818
 30
0.0
 10
306.234304
 20
194.841831
 30
0.0
 10
306.920770
 20
194.980597
 30
0.0
 10
368.251051
 20
189.944415
 30
0.0
 10
368.491476
 20
166.081035
 30
0.0
 10
338.378854
 20
138.590076
 30
0.0
 10
308.649909
 20
122.671154
 30
0.0
 10
308.308180
 20
122.535775
 30
0.0
 10
307.740976
 20
122.365982
 30
0.0
 10
307.027182
 20
122.183463
 30
0.0
 10
306.245689
 20
122.009922
 30
0.0
 10
305.026695
 20
121.674215
 30
0.0
 10
304.245148
 20
121.245593
 30
0.0
 10
303.874726
 20
120.701836
 30
0.0
 10
303.889119
 20
120.020729
 30
0.0
 10
303.879947
 20
119.743674
 30
0.0
 10
303.704286
 20
119.467667
 30
0.0
 10
303.358654
 20
119.189003
 30
0.0
 10
302.839563
 20
118.903973
 30
0.0
 10
302.346586
 20
118.617661
 30
0.0
 10
301.886106
 20
118.258593
 30
0.0
 10
301.509667
 20
117.872645
 30
0.0
 10
301.268807
 20
117.505706
 30
0.0
 10
301.071644
 20
117.167646
 30
0.0
 10
300.814178
 20
116.860334
 30
0.0
 10
300.529783
 20
116.617640
 30
0.0
 10
300.251828
 20
116.473436
 30
0.0
 10
299.959025
 20
116.321236
 30
0.0
 10
299.634213
 20
116.056768
 30
0.0
 10
299.316930
 20
115.717233
 30
0.0
 10
299.046719
 20
115.339822
 30
0.0
 10
298.709029
 20
114.887807
 30
0.0
 10
298.208020
 20
114.345136
 30
0.0
 10
297.611289
 20
113.780034
 30
0.0
 10
296.986438
 20
113.260717
 30
0.0
 10
296.282175
 20
112.675913
 30
0.0
 10
295.833681
 20
112.186548
 30
0.0
 10
295.606572
 20
111.745254
 30
0.0
 10
295.566457
 20
111.304668
 30
0.0
 10
295.657899
 20
108.757424
 30
0.0
 10
295.448671
 20
106.486712
 30
0.0
 10
294.948695
 20
104.551333
 30
0.0
 10
294.167879
 20
103.010092
 30
0.0
 10
293.448839
 20
102.013882
 30
0.0
 10
292.955133
 20
101.536297
 30
0.0
 10
292.495882
 20
101.467996
 30
0.0
 10
291.880194
 20
101.699630
 30
0.0
 10
291.503077
 20
101.935184
 30
0.0
 10
291.204884
 20
102.263056
 30
0.0
 10
290.984376
 20
102.685046
 30
0.0
 10
290.840304
 20
103.202949
 30
0.0
 10
290.657246
 20
103.857106
 30
0.0
 10
290.314933
 20
104.806047
 30
0.0
 10
289.862325
 20
105.922575
 30
0.0
 10
289.348370
 20
107.079491
 30
0.0
 10
286.791575
 20
112.670480
 30
0.0
 10
285.349369
 20
116.169338
 30
0.0
 10
284.774375
 20
118.261740
 30
0.0
 10
284.819220
 20
119.633357
 30
0.0
 10
284.860198
 20
120.539530
 30
0.0
 10
284.668479
 20
121.429667
 30
0.0
 10
284.324103
 20
122.074567
 30
0.0
 10
283.907120
 20
122.245035
 30
0.0
 10
283.745440
 20
122.153832
 30
0.0
 10
283.611715
 20
122.008341
 30
0.0
 10
283.519838
 20
121.828597
 30
0.0
 10
283.483702
 20
121.634625
 30
0.0
 10
283.179337
 20
120.739402
 30
0.0
 10
282.437315
 20
120.353455
 30
0.0
 10
281.450296
 20
120.503115
 30
0.0
 10
280.410923
 20
121.214704
 30
0.0
 10
280.189754
 20
121.435873
 30
0.0
 10
279.968582
 20
121.657042
 30
0.0
 10
279.747413
 20
121.878211
 30
0.0
 10
279.526244
 20
122.099380
 30
0.0
 10
279.716515
 20
122.169767
 30
0.0
 10
279.906784
 20
122.240153
 30
0.0
 10
280.097055
 20
122.310536
 30
0.0
 10
280.287326
 20
122.380923
 30
0.0
 10
280.756512
 20
122.695106
 30
0.0
 10
280.888448
 20
123.065698
 30
0.0
 10
280.696492
 20
123.347534
 30
0.0
 10
280.193996
 20
123.395444
 30
0.0
 10
279.895670
 20
123.423327
 30
0.0
 10
279.499410
 20
123.574023
 30
0.0
 10
279.056871
 20
123.822926
 30
0.0
 10
278.619709
 20
124.145427
 30
0.0
 10
278.204442
 20
124.475909
 30
0.0
 10
277.821514
 20
124.746549
 30
0.0
 10
277.513480
 20
124.929412
 30
0.0
 10
277.322892
 20
124.996572
 30
0.0
 10
277.195334
 20
125.049463
 30
0.0
 10
277.058916
 20
125.193476
 30
0.0
 10
276.929977
 20
125.406613
 30
0.0
 10
276.824861
 20
125.666878
 30
0.0
 10
276.357117
 20
126.351829
 30
0.0
 10
275.561157
 20
126.884980
 30
0.0
 10
274.656640
 20
127.161713
 30
0.0
 10
273.863226
 20
127.077414
 30
0.0
 10
272.252756
 20
126.887207
 30
0.0
 10
269.396436
 20
126.847879
 30
0.0
 10
266.462572
 20
126.947306
 30
0.0
 10
264.619483
 20
127.173361
 30
0.0
 10
264.232624
 20
127.360406
 30
0.0
 10
263.765597
 20
127.685509
 30
0.0
 10
263.277237
 20
128.102941
 30
0.0
 10
262.826384
 20
128.566971
 30
0.0
 10
262.226129
 20
129.218986
 30
0.0
 10
261.762756
 20
129.514270
 30
0.0
 10
261.206211
 20
129.520930
 30
0.0
 10
260.326426
 20
129.307088
 30
0.0
 10
259.448004
 20
129.107576
 30
0.0
 10
258.749995
 20
129.111923
 30
0.0
 10
257.960074
 20
129.367760
 30
0.0
 10
256.805927
 20
129.922702
 30
0.0
 10
255.770521
 20
130.490050
 30
0.0
 10
255.057588
 20
131.013426
 30
0.0
 10
254.557767
 20
131.592216
 30
0.0
 10
254.161699
 20
132.325804
 30
0.0
 10
253.548950
 20
133.313255
 30
0.0
 10
252.766695
 20
134.060317
 30
0.0
 10
251.941894
 20
134.475197
 30
0.0
 10
251.201504
 20
134.466110
 30
0.0
 10
250.990187
 20
134.314602
 30
0.0
 10
250.784984
 20
134.044120
 30
0.0
 10
250.609340
 20
133.692948
 30
0.0
 10
250.486714
 20
133.299369
 30
0.0
 10
250.428667
 20
132.758759
 30
0.0
 10
250.527123
 20
132.236695
 30
0.0
 10
250.810519
 20
131.650605
 30
0.0
 10
251.307284
 20
130.917908
 30
0.0
 10
251.736090
 20
130.271085
 30
0.0
 10
252.138795
 20
129.549940
 30
0.0
 10
252.470195
 20
128.842454
 30
0.0
 10
252.685079
 20
128.236607
 30
0.0
 10
253.054908
 20
127.310411
 30
0.0
 10
253.523033
 20
126.808761
 30
0.0
 10
254.039568
 20
126.759564
 30
0.0
 10
254.554629
 20
127.190723
 30
0.0
 10
254.807288
 20
127.503637
 30
0.0
 10
254.992993
 20
127.625836
 30
0.0
 10
255.154438
 20
127.564851
 30
0.0
 10
255.334321
 20
127.328213
 30
0.0
 10
255.448068
 20
127.108407
 30
0.0
 10
255.525109
 20
126.878328
 30
0.0
 10
255.558631
 20
126.665273
 30
0.0
 10
255.541839
 20
126.496524
 30
0.0
 10
255.749239
 20
126.018773
 30
0.0
 10
256.453572
 20
125.546426
 30
0.0
 10
257.360934
 20
125.224351
 30
0.0
 10
258.177411
 20
125.197427
 30
0.0
 10
258.602472
 20
125.396913
 30
0.0
 10
259.150189
 20
125.787063
 30
0.0
 10
259.749894
 20
126.311547
 30
0.0
 10
260.330927
 20
126.914041
 30
0.0
 10
261.056425
 20
127.667004
 30
0.0
 10
261.514979
 20
127.965584
 30
0.0
 10
261.720708
 20
127.812882
 30
0.0
 10
261.687725
 20
127.211994
 30
0.0
 10
261.717082
 20
126.641338
 30
0.0
 10
261.983065
 20
126.069460
 30
0.0
 10
262.454449
 20
125.542873
 30
0.0
 10
263.100013
 20
125.108095
 30
0.0
 10
264.283709
 20
124.388713
 30
0.0
 10
265.437606
 20
123.521239
 30
0.0
 10
266.312608
 20
122.711574
 30
0.0
 10
266.659628
 20
122.165629
 30
0.0
 10
266.591316
 20
121.951950
 30
0.0
 10
266.405315
 20
121.655572
 30
0.0
 10
266.130032
 20
121.315678
 30
0.0
 10
265.793878
 20
120.971445
 30
0.0
 10
265.405870
 20
120.556548
 30
0.0
 10
264.989397
 20
120.024237
 30
0.0
 10
264.594433
 20
119.443085
 30
0.0
 10
264.270950
 20
118.881660
 30
0.0
 10
263.352046
 20
117.499999
 30
0.0
 10
262.122059
 20
116.130296
 30
0.0
 10
260.895121
 20
115.081736
 30
0.0
 10
259.985355
 20
114.663508
 30
0.0
 10
259.168683
 20
114.517997
 30
0.0
 10
258.298998
 20
114.130348
 30
0.0
 10
257.505482
 20
113.573896
 30
0.0
 10
256.917323
 20
112.921971
 30
0.0
 10
256.631257
 20
112.576508
 30
0.0
 10
256.228051
 20
112.209264
 30
0.0
 10
255.761284
 20
111.864112
 30
0.0
 10
255.284532
 20
111.584923
 30
0.0
 10
252.840154
 20
110.416859
 30
0.0
 10
250.470969
 20
109.374107
 30
0.0
 10
248.494536
 20
108.590151
 30
0.0
 10
247.228414
 20
108.198477
 30
0.0
 10
246.540864
 20
108.100873
 30
0.0
 10
246.101672
 20
108.186008
 30
0.0
 10
245.763669
 20
108.536345
 30
0.0
 10
245.379675
 20
109.234354
 30
0.0
 10
245.111544
 20
109.869255
 30
0.0
 10
244.854786
 20
110.664588
 30
0.0
 10
244.638531
 20
111.518776
 30
0.0
 10
244.491908
 20
112.330233
 30
0.0
 10
244.325182
 20
113.230872
 30
0.0
 10
244.079570
 20
113.992398
 30
0.0
 10
243.738567
 20
114.654889
 30
0.0
 10
243.285659
 20
115.258424
 30
0.0
 10
242.913402
 20
115.708910
 30
0.0
 10
242.608554
 20
116.126093
 30
0.0
 10
242.402577
 20
116.463504
 30
0.0
 10
242.326928
 20
116.674671
 30
0.0
 10
242.221456
 20
116.908126
 30
0.0
 10
241.934278
 20
117.306223
 30
0.0
 10
241.509254
 20
117.813218
 30
0.0
 10
240.990244
 20
118.373381
 30
0.0
 10
240.362667
 20
119.098856
 30
0.0
 10
239.846900
 20
119.871233
 30
0.0
 10
239.433267
 20
120.707257
 30
0.0
 10
239.112095
 20
121.623678
 30
0.0
 10
238.838319
 20
122.429806
 30
0.0
 10
238.493150
 20
123.240179
 30
0.0
 10
238.120784
 20
123.960526
 30
0.0
 10
237.765401
 20
124.496584
 30
0.0
 10
235.848212
 20
126.923969
 30
0.0
 10
234.578782
 20
128.665204
 30
0.0
 10
233.797427
 20
129.956416
 30
0.0
 10
233.344463
 20
131.033734
 30
0.0
 10
232.911509
 20
132.131048
 30
0.0
 10
232.530591
 20
132.635405
 30
0.0
 10
232.218766
 20
132.536813
 30
0.0
 10
231.993096
 20
131.825280
 30
0.0
 10
231.951236
 20
131.583625
 30
0.0
 10
231.909377
 20
131.341969
 30
0.0
 10
231.867521
 20
131.100314
 30
0.0
 10
231.825662
 20
130.858658
 30
0.0
 10
231.543756
 20
131.214597
 30
0.0
 10
231.261847
 20
131.570535
 30
0.0
 10
230.979940
 20
131.926471
 30
0.0
 10
230.698034
 20
132.282410
 30
0.0
 10
229.684803
 20
133.353042
 30
0.0
 10
229.272118
 20
133.368593
 30
0.0
 10
229.491069
 20
132.470646
 30
0.0
 10
230.372731
 20
130.800760
 30
0.0
 10
231.022672
 20
129.695637
 30
0.0
 10
231.754858
 20
128.390043
 30
0.0
 10
232.479562
 20
127.047089
 30
0.0
 10
233.107072
 20
125.829876
 30
0.0
 10
233.685221
 20
124.713100
 30
0.0
 10
234.275537
 20
123.643604
 30
0.0
 10
234.808818
 20
122.742740
 30
0.0
 10
235.215873
 20
122.131842
 30
0.0
 10
235.523264
 20
121.641994
 30
0.0
 10
235.770014
 20
121.088232
 30
0.0
 10
235.934163
 20
120.529977
 30
0.0
 10
235.993759
 20
120.026647
 30
0.0
 10
236.075310
 20
119.149523
 30
0.0
 10
236.365124
 20
118.307753
 30
0.0
 10
236.930943
 20
117.359633
 30
0.0
 10
237.840500
 20
116.163460
 30
0.0
 10
238.276085
 20
115.563238
 30
0.0
 10
238.666336
 20
114.914590
 30
0.0
 10
238.968602
 20
114.295578
 30
0.0
 10
239.140241
 20
113.784276
 30
0.0
 10
239.353451
 20
113.219879
 30
0.0
 10
239.772687
 20
112.614326
 30
0.0
 10
240.421739
 20
111.939090
 30
0.0
 10
241.324398
 20
111.165640
 30
0.0
 10
242.757771
 20
109.893018
 30
0.0
 10
243.887015
 20
108.627124
 30
0.0
 10
244.685510
 20
107.402356
 30
0.0
 10
245.126623
 20
106.253113
 30
0.0
 10
245.284741
 20
105.841289
 30
0.0
 10
245.554528
 20
105.448822
 30
0.0
 10
245.914892
 20
105.100512
 30
0.0
 10
246.344734
 20
104.821160
 30
0.0
 10
246.979169
 20
104.555259
 30
0.0
 10
247.688916
 20
104.486693
 30
0.0
 10
248.775175
 20
104.627595
 30
0.0
 10
250.539146
 20
104.990098
 30
0.0
 10
251.850375
 20
105.296451
 30
0.0
 10
253.065224
 20
105.620272
 30
0.0
 10
254.048333
 20
105.922984
 30
0.0
 10
254.664348
 20
106.166000
 30
0.0
 10
254.899104
 20
106.287395
 30
0.0
 10
255.133856
 20
106.408793
 30
0.0
 10
255.368611
 20
106.530188
 30
0.0
 10
255.603367
 20
106.651583
 30
0.0
 10
255.659094
 20
106.321736
 30
0.0
 10
255.714819
 20
105.991891
 30
0.0
 10
255.770547
 20
105.662044
 30
0.0
 10
255.826274
 20
105.332197
 30
0.0
 10
255.872248
 20
104.477699
 30
0.0
 10
255.597917
 20
103.425470
 30
0.0
 10
254.840684
 20
101.744707
 30
0.0
 10
253.437946
 20
99.004605
 30
0.0
 10
251.904644
 20
96.119024
 30
0.0
 10
250.828703
 20
94.391635
 30
0.0
 10
249.755482
 20
93.206245
 30
0.0
 10
248.230345
 20
91.946668
 30
0.0
 10
247.165063
 20
91.070520
 30
0.0
 10
246.183867
 20
90.200198
 30
0.0
 10
245.395713
 20
89.436344
 30
0.0
 10
244.909569
 20
88.879593
 30
0.0
 10
244.461933
 20
88.299869
 30
0.0
 10
243.778636
 20
87.473465
 30
0.0
 10
242.952626
 20
86.510577
 30
0.0
 10
242.076848
 20
85.521388
 30
0.0
 10
240.083622
 20
82.763637
 30
0.0
 10
239.166332
 20
80.027800
 30
0.0
 10
239.304390
 20
77.165993
 30
0.0
 10
240.477209
 20
74.030318
 30
0.0
 10
240.839473
 20
73.238445
 30
0.0
 10
241.070486
 20
72.552817
 30
0.0
 10
241.169275
 20
71.977182
 30
0.0
 10
241.134858
 20
71.515275
 30
0.0
 10
241.084281
 20
71.065122
 30
0.0
 10
241.097602
 20
70.441236
 30
0.0
 10
241.169574
 20
69.726076
 30
0.0
 10
241.294940
 20
69.002108
 30
0.0
 10
241.463251
 20
68.073295
 30
0.0
 10
241.484926
 20
67.384199
 30
0.0
 10
241.345026
 20
66.770337
 30
0.0
 10
241.028632
 20
66.067220
 30
0.0
 10
240.440597
 20
65.070476
 30
0.0
 10
239.750129
 20
64.300473
 30
0.0
 10
238.794355
 20
63.613010
 30
0.0
 10
237.410396
 20
62.863894
 30
0.0
 10
236.730921
 20
62.498419
 30
0.0
 10
236.174492
 20
62.151568
 30
0.0
 10
235.798524
 20
61.862504
 30
0.0
 10
235.660441
 20
61.670384
 30
0.0
 10
235.542085
 20
61.414200
 30
0.0
 10
235.219827
 20
60.950692
 30
0.0
 10
234.742886
 20
60.345667
 30
0.0
 10
234.160481
 20
59.664927
 30
0.0
 10
233.578075
 20
58.982697
 30
0.0
 10
233.101134
 20
58.373611
 30
0.0
 10
232.778876
 20
57.904095
 30
0.0
 10
232.660520
 20
57.640573
 30
0.0
 10
232.714744
 20
57.404025
 30
0.0
 10
232.862385
 20
57.007955
 30
0.0
 10
233.080893
 20
56.507566
 30
0.0
 10
233.347720
 20
55.958071
 30
0.0
 10
233.841397
 20
54.404918
 30
0.0
 10
233.618981
 20
53.069202
 30
0.0
 10
232.674829
 20
51.938995
 30
0.0
 10
231.003300
 20
51.002379
 30
0.0
 10
230.287000
 20
50.549601
 30
0.0
 10
229.848811
 20
49.885016
 30
0.0
 10
229.678430
 20
48.982091
 30
0.0
 10
229.765552
 20
47.814278
 30
0.0
 10
229.828508
 20
47.233659
 30
0.0
 10
229.783440
 20
46.827211
 30
0.0
 10
229.613384
 20
46.540248
 30
0.0
 10
229.301373
 20
46.318080
 30
0.0
 10
228.986721
 20
46.085410
 30
0.0
 10
228.610846
 20
45.709247
 30
0.0
 10
228.220916
 20
45.241560
 30
0.0
 10
227.864089
 20
44.734316
 30
0.0
 10
226.432567
 20
42.886404
 30
0.0
 10
224.481610
 20
40.845698
 30
0.0
 10
222.452283
 20
39.038578
 30
0.0
 10
220.785656
 20
37.891435
 30
0.0
 10
219.848278
 20
37.451625
 30
0.0
 10
219.155685
 20
37.238948
 30
0.0
 10
218.537147
 20
37.223708
 30
0.0
 10
217.821928
 20
37.376258
 30
0.0
 10
217.117459
 20
37.517276
 30
0.0
 10
216.386701
 20
37.537398
 30
0.0
 10
215.533577
 20
37.431435
 30
0.0
 10
214.462016
 20
37.194174
 30
0.0
 10
212.975317
 20
36.825391
 30
0.0
 10
212.182295
 20
36.731640
 30
0.0
 10
211.690201
 20
36.951440
 30
0.0
 10
211.106286
 20
37.523307
 30
0.0
 10
211.106286
 20
37.523318
 30
0.0
 10
211.106289
 20
37.523327
 30
0.0
 10
211.106289
 20
37.523338
 30
0.0
 10
211.106379
 20
37.523516
 30
0.0
  0
LWPOLYLINE
  5
105
100
AcDbEntity
  8
Ebene_1
 62
7
100
AcDbPolyline
 90
89
 70
0
 10
255.009918
 20
143.838157
 30
0.0
 10
255.526582
 20
144.153506
 30
0.0
 10
255.824299
 20
144.508629
 30
0.0
 10
255.960680
 20
145.018300
 30
0.0
 10
255.993338
 20
145.797293
 30
0.0
 10
255.957824
 20
146.437291
 30
0.0
 10
255.855137
 20
146.978500
 30
0.0
 10
255.691059
 20
147.400050
 30
0.0
 10
255.471371
 20
147.681069
 30
0.0
 10
255.228327
 20
147.927351
 30
0.0
 10
254.952424
 20
148.277682
 30
0.0
 10
254.677582
 20
148.685383
 30
0.0
 10
254.437713
 20
149.103771
 30
0.0
 10
254.176459
 20
149.632393
 30
0.0
 10
254.092033
 20
149.903609
 30
0.0
 10
254.185936
 20
149.971085
 30
0.0
 10
254.459669
 20
149.888488
 30
0.0
 10
254.969783
 20
149.799655
 30
0.0
 10
255.466921
 20
149.878494
 30
0.0
 10
255.843845
 20
150.089447
 30
0.0
 10
255.993316
 20
150.396964
 30
0.0
 10
255.938940
 20
150.601282
 30
0.0
 10
255.790883
 20
150.913990
 30
0.0
 10
255.571763
 20
151.292520
 30
0.0
 10
255.304186
 20
151.694298
 30
0.0
 10
254.930058
 20
152.170043
 30
0.0
 10
254.623570
 20
152.413569
 30
0.0
 10
254.324064
 20
152.453221
 30
0.0
 10
253.970886
 20
152.317343
 30
0.0
 10
253.688204
 20
152.187049
 30
0.0
 10
253.486996
 20
152.142543
 30
0.0
 10
253.366693
 20
152.183821
 30
0.0
 10
253.326719
 20
152.310880
 30
0.0
 10
253.222393
 20
152.495453
 30
0.0
 10
252.938339
 20
152.747929
 30
0.0
 10
252.517935
 20
153.035079
 30
0.0
 10
252.004568
 20
153.323671
 30
0.0
 10
250.992640
 20
153.955047
 30
0.0
 10
250.372976
 20
154.614005
 30
0.0
 10
250.149140
 20
155.294883
 30
0.0
 10
250.324691
 20
155.992020
 30
0.0
 10
250.765389
 20
156.474468
 30
0.0
 10
251.408034
 20
156.816970
 30
0.0
 10
252.088117
 20
156.959235
 30
0.0
 10
252.641125
 20
156.840976
 30
0.0
 10
253.118744
 20
156.687176
 30
0.0
 10
253.359353
 20
156.887537
 30
0.0
 10
253.332598
 20
157.348197
 30
0.0
 10
253.008090
 20
157.975283
 30
0.0
 10
251.721984
 20
159.183256
 30
0.0
 10
250.214336
 20
159.514286
 30
0.0
 10
248.493636
 20
158.968934
 30
0.0
 10
246.568372
 20
157.547762
 30
0.0
 10
245.552973
 20
156.548435
 30
0.0
 10
245.091551
 20
155.869821
 30
0.0
 10
245.141510
 20
155.392230
 30
0.0
 10
245.660263
 20
154.995982
 30
0.0
 10
245.919111
 20
154.818337
 30
0.0
 10
246.131086
 20
154.598393
 30
0.0
 10
246.274311
 20
154.364120
 30
0.0
 10
246.326914
 20
154.143493
 30
0.0
 10
246.430876
 20
153.838235
 30
0.0
 10
246.713939
 20
153.373528
 30
0.0
 10
247.132876
 20
152.812536
 30
0.0
 10
247.644452
 20
152.218427
 30
0.0
 10
248.653924
 20
151.008904
 30
0.0
 10
249.232025
 20
149.952603
 30
0.0
 10
249.458477
 20
148.834012
 30
0.0
 10
249.413008
 20
147.437622
 30
0.0
 10
249.371451
 20
147.006327
 30
0.0
 10
249.329894
 20
146.575032
 30
0.0
 10
249.288337
 20
146.143737
 30
0.0
 10
249.246779
 20
145.712442
 30
0.0
 10
249.819273
 20
145.418689
 30
0.0
 10
250.391763
 20
145.124935
 30
0.0
 10
250.964257
 20
144.831178
 30
0.0
 10
251.536748
 20
144.537424
 30
0.0
 10
252.433782
 20
144.079891
 30
0.0
 10
253.183382
 20
143.702752
 30
0.0
 10
253.707127
 20
143.445092
 30
0.0
 10
253.926602
 20
143.346012
 30
0.0
 10
254.042982
 20
143.379769
 30
0.0
 10
254.286024
 20
143.483815
 30
0.0
 10
254.620181
 20
143.641998
 30
0.0
 10
255.009907
 20
143.838165
 30
0.0
 10
255.009912
 20
143.838162
 30
0.0
 10
255.009918
 20
143.838160
 30
0.0
 10
255.009924
 20
143.838160
 30
0.0
 10
255.009918
 20
143.838157
 30
0.0
  0
LWPOLYLINE
  5
106
100
AcDbEntity
  8
Ebene_1
 62
7
100
AcDbPolyline
 90
49
 70
0
 10
245.826938
 20
50.730331
 30
0.0
 10
245.258090
 20
51.113648
 30
0.0
 10
244.905826
 20
51.584140
 30
0.0
 10
244.683943
 20
52.323461
 30
0.0
 10
244.506231
 20
53.513259
 30
0.0
 10
244.420173
 20
54.499487
 30
0.0
 10
244.492910
 20
55.250893
 30
0.0
 10
244.778821
 20
55.994100
 30
0.0
 10
245.332295
 20
56.955732
 30
0.0
 10
245.892376
 20
57.926989
 30
0.0
 10
246.176744
 20
58.675626
 30
0.0
 10
246.242349
 20
59.449377
 30
0.0
 10
246.146145
 20
60.495976
 30
0.0
 10
246.073241
 20
62.109469
 30
0.0
 10
246.315862
 20
63.306901
 30
0.0
 10
246.881083
 20
64.105745
 30
0.0
 10
247.775973
 20
64.523470
 30
0.0
 10
249.009177
 20
65.114266
 30
0.0
 10
250.473255
 20
66.240832
 30
0.0
 10
251.816870
 20
67.592996
 30
0.0
 10
252.688677
 20
68.860580
 30
0.0
 10
252.820822
 20
69.146344
 30
0.0
 10
252.952964
 20
69.432108
 30
0.0
 10
253.085109
 20
69.717869
 30
0.0
 10
253.217251
 20
70.003633
 30
0.0
 10
253.309100
 20
69.802048
 30
0.0
 10
253.400949
 20
69.600459
 30
0.0
 10
253.492796
 20
69.398873
 30
0.0
 10
253.584645
 20
69.197285
 30
0.0
 10
254.079225
 20
67.815610
 30
0.0
 10
254.145421
 20
66.420263
 30
0.0
 10
253.736754
 20
64.570963
 30
0.0
 10
252.806756
 20
61.827433
 30
0.0
 10
252.160865
 20
59.988783
 30
0.0
 10
251.558781
 20
58.182643
 30
0.0
 10
251.067816
 20
56.616679
 30
0.0
 10
250.755285
 20
55.498557
 30
0.0
 10
250.161710
 20
53.324181
 30
0.0
 10
249.586279
 20
51.941309
 30
0.0
 10
248.908324
 20
51.139626
 30
0.0
 10
248.007183
 20
50.708817
 30
0.0
 10
247.152671
 20
50.457044
 30
0.0
 10
246.667855
 20
50.375092
 30
0.0
 10
246.307641
 20
50.465380
 30
0.0
 10
245.826938
 20
50.730322
 30
0.0
 10
245.826938
 20
50.730325
 30
0.0
 10
245.826938
 20
50.730325
 30
0.0
 10
245.826938
 20
50.730328
 30
0.0
 10
245.826938
 20
50.730331
 30
0.0
  0
LWPOLYLINE
  5
107
100
AcDbEntity
  8
Ebene_1
 62
7
100
AcDbPolyline
 90
17
 70
0
 10
34.701017
 20
162.962836
 30
0.0
 10
34.025332
 20
163.661985
 30
0.0
 10
33.722022
 20
164.170524
 30
0.0
 10
33.778766
 20
164.531918
 30
0.0
 10
34.183244
 20
164.789629
 30
0.0
 10
34.784902
 20
164.791322
 30
0.0
 10
35.476013
 20
164.459412
 30
0.0
 10
36.128511
 20
163.880752
 30
0.0
 10
36.614337
 20
163.142126
 30
0.0
 10
36.892382
 20
162.496929
 30
0.0
 10
36.957694
 20
162.154684
 30
0.0
 10
36.789654
 20
162.019590
 30
0.0
 10
36.367641
 20
161.995855
 30
0.0
 10
36.040794
 20
162.072162
 30
0.0
 10
35.617618
 20
162.279925
 30
0.0
 10
35.152796
 20
162.587415
 30
0.0
 10
34.701017
 20
162.962836
 30
0.0
  0
LWPOLYLINE
  5
108
100
AcDbEntity
  8
Ebene_1
 62
7
100
AcDbPolyline
 90
93
 70
0
 10
181.495277
 20
164.656358
 30
0.0
 10
181.828036
 20
164.810697
 30
0.0
 10
182.241252
 20
164.987859
 30
0.0
 10
182.682320
 20
165.165967
 30
0.0
 10
183.098626
 20
165.323142
 30
0.0
 10
183.703045
 20
165.632573
 30
0.0
 10
183.818321
 20
165.935525
 30
0.0
 10
183.451562
 20
166.215520
 30
0.0
 10
182.609874
 20
166.456081
 30
0.0
 10
182.043891
 20
166.584221
 30
0.0
 10
181.801231
 20
166.704989
 30
0.0
 10
181.848893
 20
166.866087
 30
0.0
 10
182.153876
 20
167.115216
 30
0.0
 10
182.373547
 20
167.316102
 30
0.0
 10
182.520807
 20
167.533405
 30
0.0
 10
182.582778
 20
167.740957
 30
0.0
 10
182.546569
 20
167.912596
 30
0.0
 10
182.538356
 20
168.077721
 30
0.0
 10
182.681392
 20
168.263161
 30
0.0
 10
182.952616
 20
168.448290
 30
0.0
 10
183.328959
 20
168.612476
 30
0.0
 10
183.717074
 20
168.773732
 30
0.0
 10
184.034910
 20
168.955204
 30
0.0
 10
184.249664
 20
169.134666
 30
0.0
 10
184.328537
 20
169.289894
 30
0.0
 10
184.213943
 20
169.936575
 30
0.0
 10
183.932881
 20
170.604832
 30
0.0
 10
183.579443
 20
171.119289
 30
0.0
 10
183.247707
 20
171.304568
 30
0.0
 10
182.671110
 20
171.268232
 30
0.0
 10
182.280924
 20
171.331472
 30
0.0
 10
182.084480
 20
171.491504
 30
0.0
 10
182.089109
 20
171.745537
 30
0.0
 10
182.123444
 20
171.953343
 30
0.0
 10
182.106483
 20
172.211151
 30
0.0
 10
182.043186
 20
172.486142
 30
0.0
 10
181.938484
 20
172.745510
 30
0.0
 10
181.858810
 20
173.497655
 30
0.0
 10
182.170598
 20
174.340410
 30
0.0
 10
182.734678
 20
175.030254
 30
0.0
 10
183.411882
 20
175.323675
 30
0.0
 10
183.502376
 20
175.293291
 30
0.0
 10
183.563963
 20
175.207109
 30
0.0
 10
183.591169
 20
175.078303
 30
0.0
 10
183.578554
 20
174.920035
 30
0.0
 10
183.607927
 20
174.751966
 30
0.0
 10
183.749507
 20
174.596504
 30
0.0
 10
183.980359
 20
174.470957
 30
0.0
 10
184.277545
 20
174.392630
 30
0.0
 10
184.473125
 20
174.362962
 30
0.0
 10
184.668705
 20
174.333295
 30
0.0
 10
184.864288
 20
174.303628
 30
0.0
 10
185.059868
 20
174.273961
 30
0.0
 10
184.872988
 20
174.075036
 30
0.0
 10
184.686112
 20
173.876115
 30
0.0
 10
184.499233
 20
173.677191
 30
0.0
 10
184.312354
 20
173.478269
 30
0.0
 10
184.125475
 20
173.279345
 30
0.0
 10
183.938596
 20
173.080423
 30
0.0
 10
183.751720
 20
172.881499
 30
0.0
 10
183.564840
 20
172.682577
 30
0.0
 10
183.775502
 20
172.602483
 30
0.0
 10
183.986167
 20
172.522388
 30
0.0
 10
184.196829
 20
172.442293
 30
0.0
 10
184.407494
 20
172.362199
 30
0.0
 10
185.080461
 20
171.957738
 30
0.0
 10
185.745727
 20
171.256257
 30
0.0
 10
186.407851
 20
170.251888
 30
0.0
 10
187.071395
 20
168.938770
 30
0.0
 10
187.368728
 20
168.359765
 30
0.0
 10
187.645413
 20
168.010936
 30
0.0
 10
187.935438
 20
167.862456
 30
0.0
 10
188.272784
 20
167.884498
 30
0.0
 10
188.865629
 20
167.920856
 30
0.0
 10
189.105049
 20
167.694164
 30
0.0
 10
188.974287
 20
167.300120
 30
0.0
 10
188.456595
 20
166.834422
 30
0.0
 10
188.067527
 20
166.547394
 30
0.0
 10
187.864098
 20
166.308270
 30
0.0
 10
187.835235
 20
166.095516
 30
0.0
 10
187.969864
 20
165.887595
 30
0.0
 10
188.016165
 20
165.689551
 30
0.0
 10
187.696128
 20
165.509355
 30
0.0
 10
186.959381
 20
165.329864
 30
0.0
 10
185.755554
 20
165.133934
 30
0.0
 10
184.656431
 20
164.971549
 30
0.0
 10
183.581085
 20
164.806114
 30
0.0
 10
182.652901
 20
164.657001
 30
0.0
 10
181.995262
 20
164.543582
 30
0.0
 10
181.468917
 20
164.456110
 30
0.0
 10
181.219356
 20
164.443664
 30
0.0
 10
181.232762
 20
164.509374
 30
0.0
 10
181.495277
 20
164.656358
 30
0.0
  0
LWPOLYLINE
  5
109
100
AcDbEntity
  8
Ebene_1
 62
7
100
AcDbPolyline
 90
41
 70
0
 10
175.874130
 20
166.497629
 30
0.0
 10
175.832801
 20
166.783148
 30
0.0
 10
175.873529
 20
167.161170
 30
0.0
 10
175.986829
 20
167.582475
 30
0.0
 10
176.163218
 20
167.997832
 30
0.0
 10
176.350524
 20
168.417243
 30
0.0
 10
176.441439
 20
168.759025
 30
0.0
 10
176.434327
 20
169.011510
 30
0.0
 10
176.327531
 20
169.163026
 30
0.0
 10
176.040683
 20
169.443931
 30
0.0
 10
176.036450
 20
169.729816
 30
0.0
 10
176.299645
 20
169.988701
 30
0.0
 10
176.815056
 20
170.188596
 30
0.0
 10
177.163908
 20
170.305343
 30
0.0
 10
177.507846
 20
170.471149
 30
0.0
 10
177.807250
 20
170.663929
 30
0.0
 10
178.022507
 20
170.861598
 30
0.0
 10
178.604881
 20
171.178516
 30
0.0
 10
179.476265
 20
171.316636
 30
0.0
 10
180.322212
 20
171.260869
 30
0.0
 10
180.828264
 20
170.996139
 30
0.0
 10
180.867137
 20
170.808441
 30
0.0
 10
180.820960
 20
170.543355
 30
0.0
 10
180.700022
 20
170.236128
 30
0.0
 10
180.514611
 20
169.922001
 30
0.0
 10
180.312977
 20
169.564194
 30
0.0
 10
180.147857
 20
169.138036
 30
0.0
 10
180.036289
 20
168.696936
 30
0.0
 10
179.995314
 20
168.294304
 30
0.0
 10
179.941048
 20
167.823385
 30
0.0
 10
179.732553
 20
167.481194
 30
0.0
 10
179.301284
 20
167.201048
 30
0.0
 10
178.578685
 20
166.916275
 30
0.0
 10
177.986001
 20
166.706914
 30
0.0
 10
177.419474
 20
166.500373
 30
0.0
 10
176.943320
 20
166.320456
 30
0.0
 10
176.621748
 20
166.190958
 30
0.0
 10
176.376728
 20
166.126324
 30
0.0
 10
176.167404
 20
166.157140
 30
0.0
 10
175.998347
 20
166.281535
 30
0.0
 10
175.874130
 20
166.497629
 30
0.0
  0
LWPOLYLINE
  5
10a
100
AcDbEntity
  8
Ebene_1
 62
7
100
AcDbPolyline
 90
61
 70
0
 10
242.827014
 20
192.253114
 30
0.0
 10
241.855001
 20
192.645854
 30
0.0
 10
241.415339
 20
192.898389
 30
0.0
 10
241.388189
 20
193.136737
 30
0.0
 10
241.653698
 20
193.486916
 30
0.0
 10
241.794467
 20
193.685016
 30
0.0
 10
241.866056
 20
193.848835
 30
0.0
 10
241.864080
 20
193.961357
 30
0.0
 10
241.784434
 20
194.005558
 30
0.0
 10
241.724124
 20
194.049427
 30
0.0
 10
241.774887
 20
194.161023
 30
0.0
 10
241.924383
 20
194.323470
 30
0.0
 10
242.160278
 20
194.519894
 30
0.0
 10
242.419564
 20
194.734078
 30
0.0
 10
242.632738
 20
194.944879
 30
0.0
 10
242.777735
 20
195.128030
 30
0.0
 10
242.832503
 20
195.259274
 30
0.0
 10
243.066271
 20
195.754272
 30
0.0
 10
243.641112
 20
196.395348
 30
0.0
 10
244.393576
 20
197.025903
 30
0.0
 10
245.160199
 20
197.489341
 30
0.0
 10
245.719428
 20
197.679812
 30
0.0
 10
246.502871
 20
197.861631
 30
0.0
 10
247.406626
 20
198.014203
 30
0.0
 10
248.326783
 20
198.116941
 30
0.0
 10
249.276955
 20
198.200549
 30
0.0
 10
250.262427
 20
198.301040
 30
0.0
 10
251.166816
 20
198.405773
 30
0.0
 10
251.873735
 20
198.502112
 30
0.0
 10
252.445653
 20
198.563202
 30
0.0
 10
252.925193
 20
198.561226
 30
0.0
 10
253.276035
 20
198.498909
 30
0.0
 10
253.461867
 20
198.379108
 30
0.0
 10
253.487606
 20
198.125376
 30
0.0
 10
253.119763
 20
197.905144
 30
0.0
 10
252.222519
 20
197.669460
 30
0.0
 10
250.660061
 20
197.369382
 30
0.0
 10
248.918913
 20
196.971573
 30
0.0
 10
247.515177
 20
196.455484
 30
0.0
 10
246.402222
 20
195.799400
 30
0.0
 10
245.533424
 20
194.981599
 30
0.0
 10
244.924205
 20
194.109729
 30
0.0
 10
244.701574
 20
193.380786
 30
0.0
 10
244.864063
 20
192.761816
 30
0.0
 10
245.410200
 20
192.219859
 30
0.0
 10
245.597694
 20
192.089069
 30
0.0
 10
245.785191
 20
191.958279
 30
0.0
 10
245.972686
 20
191.827489
 30
0.0
 10
246.160180
 20
191.696698
 30
0.0
 10
245.910187
 20
191.700424
 30
0.0
 10
245.660192
 20
191.704149
 30
0.0
 10
245.410200
 20
191.707874
 30
0.0
 10
245.160205
 20
191.711600
 30
0.0
 10
244.666728
 20
191.758937
 30
0.0
 10
244.062318
 20
191.876824
 30
0.0
 10
243.423530
 20
192.047487
 30
0.0
 10
242.826932
 20
192.253150
 30
0.0
 10
242.826932
 20
192.253153
 30
0.0
 10
242.826932
 20
192.253153
 30
0.0
 10
242.826932
 20
192.253156
 30
0.0
 10
242.827014
 20
192.253114
 30
0.0
  0
ENDSEC
  0
SECTION
  2
OBJECTS
  0
DICTIONARY
  5
C
330
0
100
AcDbDictionary
  3
ACAD_GROUP
350
D
  3
ACAD_MLINESTYLE
350
17
  0
DICTIONARY
  5
D
330
C
100
AcDbDictionary
  0
DICTIONARY
  5
1A
330
C
100
AcDbDictionary
  0
DICTIONARY
  5
17
330
C
100
AcDbDictionary
  3
STANDARD
350
18
  0
DICTIONARY
  5
19
330
C
100
AcDbDictionary
  0
ENDSEC
  0
EOF
