  0
SECTION
  2
HEADER
  9
$ACADVER
  1
AC1014
  9
$HANDSEED
  5
FFFF
  9
$MEASUREMENT
 70
     1
  0
ENDSEC
  0
SECTION
  2
TABLES
  0
TABLE
  2
VPORT
  5
8
330
0
100
AcDbSymbolTable
 70
     4
  0
VPORT
  5
2E
330
8
100
AcDbSymbolTableRecord
100
AcDbViewportTableRecord
  2
*ACTIVE
 70
     0
 10
0.0
 20
0.0
 11
1.0
 21
1.0
 12
210.0
 22
148.5
 13
0.0
 23
0.0
 14
10.0
 24
10.0
 15
10.0
 25
10.0
 16
0.0
 26
0.0
 36
1.0
 17
0.0
 27
0.0
 37
0.0
 40
341.0
 41
1.24
 42
50.0
 43
0.0
 44
0.0
 50
0.0
 51
0.0
 71
     0
 72
   100
 73
     1
 74
     3
 75
     0
 76
     0
 77
     0
 78
     0
  0
ENDTAB
  0
TABLE
  2
LTYPE
  5
5
330
0
100
AcDbSymbolTable
 70
     1
  0
LTYPE
  5
14
330
5
100
AcDbSymbolTableRecord
100
AcDbLinetypeTableRecord
  2
BYBLOCK
 70
     0
  3

 72
    65
 73
     0
 40
0.0
  0
LTYPE
  5
15
330
5
100
AcDbSymbolTableRecord
100
AcDbLinetypeTableRecord
  2
BYLAYER
 70
     0
  3

 72
    65
 73
     0
 40
0.0
  0
LTYPE
  5
16
330
5
100
AcDbSymbolTableRecord
100
AcDbLinetypeTableRecord
  2
CONTINUOUS
 70
     0
  3
Solid line
 72
    65
 73
     0
 40
0.0
  0
ENDTAB
  0
TABLE
  2
LAYER
  5
2
100
AcDbSymbolTable
 70
2
  0
LAYER
  5
50
100
AcDbSymbolTableRecord
100
AcDbLayerTableRecord
  2
0
 70
0
  6
CONTINUOUS
  0
LAYER
  5
51
100
AcDbSymbolTableRecord
100
AcDbLayerTableRecord
  2
Layer_1
 70
0
  6
CONTINUOUS
  0
ENDTAB
  0
TABLE
  2
STYLE
  5
3
330
0
100
AcDbSymbolTable
 70
     1
  0
STYLE
  5
11
330
3
100
AcDbSymbolTableRecord
100
AcDbTextStyleTableRecord
  2
STANDARD
 70
     0
 40
0.0
 41
1.0
 50
0.0
 71
     0
 42
2.5
  3
txt
  4

  0
ENDTAB
  0
TABLE
  2
VIEW
  5
6
330
0
100
AcDbSymbolTable
 70
     0
  0
ENDTAB
  0
TABLE
  2
UCS
  5
7
330
0
100
AcDbSymbolTable
 70
     0
  0
ENDTAB
  0
TABLE
  2
APPID
  5
9
330
0
100
AcDbSymbolTable
 70
     2
  0
APPID
  5
12
330
9
100
AcDbSymbolTableRecord
100
AcDbRegAppTableRecord
  2
ACAD
 70
     0
  0
ENDTAB
  0
TABLE
  2
DIMSTYLE
  5
A
330
0
100
AcDbSymbolTable
 70
     1
  0
DIMSTYLE
105
27
330
A
100
AcDbSymbolTableRecord
100
AcDbDimStyleTableRecord
  2
ISO-25
 70
     0
  3

  4

  5

  6

  7

 40
1.0
 41
2.5
 42
0.625
 43
3.75
 44
1.25
 45
0.0
 46
0.0
 47
0.0
 48
0.0
140
2.5
141
2.5
142
0.0
143
0.03937007874016
144
1.0
145
0.0
146
1.0
147
0.625
 71
     0
 72
     0
 73
     0
 74
     0
 75
     0
 76
     0
 77
     1
 78
     8
170
     0
171
     3
172
     1
173
     0
174
     0
175
     0
176
     0
177
     0
178
     0
270
     2
271
     2
272
     2
273
     2
274
     3
340
11
275
     0
280
     0
281
     0
282
     0
283
     0
284
     8
285
     0
286
     0
287
     3
288
     0
  0
ENDTAB
  0
TABLE
  2
BLOCK_RECORD
  5
1
330
0
100
AcDbSymbolTable
 70
     1
  0
BLOCK_RECORD
  5
1F
330
1
100
AcDbSymbolTableRecord
100
AcDbBlockTableRecord
  2
*MODEL_SPACE
  0
BLOCK_RECORD
  5
1B
330
1
100
AcDbSymbolTableRecord
100
AcDbBlockTableRecord
  2
*PAPER_SPACE
  0
ENDTAB
  0
ENDSEC
  0
SECTION
  2
BLOCKS
  0
BLOCK
  5
20
330
1F
100
AcDbEntity
  8
0
100
AcDbBlockBegin
  2
*MODEL_SPACE
 70
     0
 10
0.0
 20
0.0
 30
0.0
  3
*MODEL_SPACE
  1

  0
ENDBLK
  5
21
330
1F
100
AcDbEntity
  8
0
100
AcDbBlockEnd
  0
BLOCK
  5
1C
330
1B
100
AcDbEntity
 67
     1
  8
0
100
AcDbBlockBegin
  2
*PAPER_SPACE
  1

  0
ENDBLK
  5
1D
330
1B
100
AcDbEntity
 67
     1
  8
0
100
AcDbBlockEnd
  0
ENDSEC
  0
SECTION
  2
ENTITIES
  0
LWPOLYLINE
  5
100
100
AcDbEntity
  8
Layer_1
 62
7
100
AcDbPolyline
 90
45
 70
0
 10
3.231185
 20
34.229182
 30
0.0
 10
4.900541
 20
34.229182
 30
0.0
 10
6.569896
 20
34.229182
 30
0.0
 10
8.239252
 20
34.229182
 30
0.0
 10
9.908607
 20
34.229182
 30
0.0
 10
10.848079
 20
34.195688
 30
0.0
 10
11.692057
 20
34.095226
 30
0.0
 10
12.440540
 20
33.927797
 30
0.0
 10
13.093529
 20
33.693400
 30
0.0
 10
13.677052
 20
33.396359
 30
0.0
 10
14.207250
 20
33.041030
 30
0.0
 10
14.684122
 20
32.627413
 30
0.0
 10
15.107670
 20
32.155512
 30
0.0
 10
15.477252
 20
31.633988
 30
0.0
 10
15.792268
 20
31.071539
 30
0.0
 10
16.052720
 20
30.468165
 30
0.0
 10
16.258607
 20
29.823871
 30
0.0
 10
16.414868
 20
29.149180
 30
0.0
 10
16.526487
 20
28.454645
 30
0.0
 10
16.593462
 20
27.740273
 30
0.0
 10
16.615794
 20
27.006057
 30
0.0
 10
16.582300
 20
25.905346
 30
0.0
 10
16.481838
 20
24.934862
 30
0.0
 10
16.314409
 20
24.094605
 30
0.0
 10
16.080013
 20
23.384573
 30
0.0
 10
15.791031
 20
22.770035
 30
0.0
 10
15.449964
 20
22.206349
 30
0.0
 10
15.056812
 20
21.693512
 30
0.0
 10
14.611575
 20
21.231525
 30
0.0
 10
14.131598
 20
20.835892
 30
0.0
 10
13.634262
 20
20.512192
 30
0.0
 10
13.119567
 20
20.260424
 30
0.0
 10
12.587513
 20
20.080589
 30
0.0
 10
11.865691
 20
19.906958
 30
0.0
 10
11.178600
 20
19.782932
 30
0.0
 10
10.526238
 20
19.708519
 30
0.0
 10
9.908607
 20
19.683712
 30
0.0
 10
8.239251
 20
19.683712
 30
0.0
 10
6.569896
 20
19.683712
 30
0.0
 10
4.900540
 20
19.683712
 30
0.0
 10
3.231185
 20
19.683712
 30
0.0
 10
3.231185
 20
23.320077
 30
0.0
 10
3.231185
 20
26.956446
 30
0.0
 10
3.231185
 20
30.592811
 30
0.0
 10
3.231185
 20
34.229180
 30
0.0
  0
LWPOLYLINE
  5
101
100
AcDbEntity
  8
Layer_1
 62
7
100
AcDbPolyline
 90
33
 70
0
 10
7.725794
 20
30.935119
 30
0.0
 10
7.725794
 20
28.948263
 30
0.0
 10
7.725794
 20
26.961407
 30
0.0
 10
7.725794
 20
24.974551
 30
0.0
 10
7.725794
 20
22.987696
 30
0.0
 10
8.001126
 20
22.987696
 30
0.0
 10
8.276458
 20
22.987696
 30
0.0
 10
8.551790
 20
22.987696
 30
0.0
 10
8.827122
 20
22.987696
 30
0.0
 10
9.480721
 20
23.006915
 30
0.0
 10
10.032624
 20
23.064584
 30
0.0
 10
10.482831
 20
23.160703
 30
0.0
 10
10.831341
 20
23.295270
 30
0.0
 10
11.112869
 20
23.482544
 30
0.0
 10
11.362154
 20
23.726869
 30
0.0
 10
11.579197
 20
24.028246
 30
0.0
 10
11.763997
 20
24.386677
 30
0.0
 10
11.911579
 20
24.838740
 30
0.0
 10
12.016997
 20
25.411107
 30
0.0
 10
12.080251
 20
26.103779
 30
0.0
 10
12.101342
 20
26.916757
 30
0.0
 10
12.054207
 20
27.981491
 30
0.0
 10
11.912818
 20
28.863915
 30
0.0
 10
11.677176
 20
29.564029
 30
0.0
 10
11.347279
 20
30.081834
 30
0.0
 10
10.908231
 20
30.455138
 30
0.0
 10
10.345163
 20
30.721787
 30
0.0
 10
9.658075
 20
30.881781
 30
0.0
 10
8.846967
 20
30.935116
 30
0.0
 10
8.566674
 20
30.935116
 30
0.0
 10
8.286381
 20
30.935116
 30
0.0
 10
8.006088
 20
30.935116
 30
0.0
 10
7.725795
 20
30.935116
 30
0.0
  0
LWPOLYLINE
  5
102
100
AcDbEntity
  8
Layer_1
 62
7
100
AcDbPolyline
 90
41
 70
0
 10
18.401732
 20
26.946525
 30
0.0
 10
18.525755
 20
28.628897
 30
0.0
 10
18.897825
 20
30.114078
 30
0.0
 10
19.517942
 20
31.402064
 30
0.0
 10
20.386107
 20
32.492855
 30
0.0
 10
21.475646
 20
33.361016
 30
0.0
 10
22.759908
 20
33.981129
 30
0.0
 10
24.238891
 20
34.353199
 30
0.0
 10
25.912591
 20
34.477230
 30
0.0
 10
27.624109
 20
34.355059
 30
0.0
 10
29.127269
 20
33.988565
 30
0.0
 10
30.422077
 20
33.377755
 30
0.0
 10
31.508528
 20
32.522621
 30
0.0
 10
32.368002
 20
31.452294
 30
0.0
 10
32.981914
 20
30.186010
 30
0.0
 10
33.350268
 20
28.723778
 30
0.0
 10
33.473060
 20
27.065589
 30
0.0
 10
33.419099
 20
25.847676
 30
0.0
 10
33.257247
 20
24.743866
 30
0.0
 10
32.987499
 20
23.754160
 30
0.0
 10
32.609858
 20
22.878557
 30
0.0
 10
32.134838
 20
22.109612
 30
0.0
 10
31.563090
 20
21.429962
 30
0.0
 10
30.894607
 20
20.839612
 30
0.0
 10
30.129390
 20
20.338557
 30
0.0
 10
29.270520
 20
19.943542
 30
0.0
 10
28.311196
 20
19.661391
 30
0.0
 10
27.251418
 20
19.492097
 30
0.0
 10
26.091185
 20
19.435666
 30
0.0
 10
24.913579
 20
19.484655
 30
0.0
 10
23.841395
 20
19.631625
 30
0.0
 10
22.874634
 20
19.876571
 30
0.0
 10
22.013295
 20
20.219496
 30
0.0
 10
21.247448
 20
20.668461
 30
0.0
 10
20.557257
 20
21.231525
 30
0.0
 10
19.942722
 20
21.908695
 30
0.0
 10
19.403841
 20
22.699964
 30
0.0
 10
18.965420
 20
23.601614
 30
0.0
 10
18.652261
 20
24.609923
 30
0.0
 10
18.464364
 20
25.724893
 30
0.0
 10
18.401732
 20
26.946525
 30
0.0
  0
LWPOLYLINE
  5
103
100
AcDbEntity
  8
Layer_1
 62
7
100
AcDbPolyline
 90
33
 70
0
 10
22.896341
 20
26.926685
 30
0.0
 10
22.947188
 20
25.902871
 30
0.0
 10
23.099736
 20
25.034083
 30
0.0
 10
23.353985
 20
24.320332
 30
0.0
 10
23.709935
 20
23.761608
 30
0.0
 10
24.158276
 20
23.340547
 30
0.0
 10
24.679793
 20
23.039788
 30
0.0
 10
25.274487
 20
22.859335
 30
0.0
 10
25.942357
 20
22.799185
 30
0.0
 10
26.625721
 20
22.858096
 30
0.0
 10
27.227233
 20
23.034830
 30
0.0
 10
27.746893
 20
23.329385
 30
0.0
 10
28.184701
 20
23.741765
 30
0.0
 10
28.531964
 20
24.306687
 30
0.0
 10
28.780006
 20
25.058888
 30
0.0
 10
28.928836
 20
25.998366
 30
0.0
 10
28.978451
 20
27.125124
 30
0.0
 10
28.926355
 20
28.082580
 30
0.0
 10
28.770083
 20
28.901132
 30
0.0
 10
28.509637
 20
29.580782
 30
0.0
 10
28.145013
 20
30.121528
 30
0.0
 10
27.696043
 20
30.538241
 30
0.0
 10
27.172662
 20
30.835895
 30
0.0
 10
26.574871
 20
31.014491
 30
0.0
 10
25.902670
 20
31.074028
 30
0.0
 10
25.256504
 20
31.013870
 30
0.0
 10
24.677313
 20
30.833414
 30
0.0
 10
24.165097
 20
30.532661
 30
0.0
 10
23.719857
 20
30.111608
 30
0.0
 10
23.359565
 20
29.551637
 30
0.0
 10
23.102215
 20
28.834160
 30
0.0
 10
22.947808
 20
27.959176
 30
0.0
 10
22.896341
 20
26.926685
 30
0.0
  0
LWPOLYLINE
  5
104
100
AcDbEntity
  8
Layer_1
 62
7
100
AcDbPolyline
 90
77
 70
0
 10
45.379310
 20
34.229182
 30
0.0
 10
46.500483
 20
34.229182
 30
0.0
 10
47.621653
 20
34.229182
 30
0.0
 10
48.742826
 20
34.229182
 30
0.0
 10
49.863999
 20
34.229182
 30
0.0
 10
49.863999
 20
32.061253
 30
0.0
 10
49.863999
 20
29.893323
 30
0.0
 10
49.863999
 20
27.725394
 30
0.0
 10
49.863999
 20
25.557464
 30
0.0
 10
49.838570
 20
24.921223
 30
0.0
 10
49.762291
 20
24.302343
 30
0.0
 10
49.635170
 20
23.700832
 30
0.0
 10
49.457206
 20
23.116682
 30
0.0
 10
49.229617
 20
22.563538
 30
0.0
 10
48.943740
 20
22.045119
 30
0.0
 10
48.599578
 20
21.561429
 30
0.0
 10
48.197129
 20
21.112464
 30
0.0
 10
47.764900
 20
20.717449
 30
0.0
 10
47.321512
 20
20.385686
 30
0.0
 10
46.866971
 20
20.117174
 30
0.0
 10
46.401270
 20
19.911916
 30
0.0
 10
45.713554
 20
19.699217
 30
0.0
 10
44.960108
 20
19.547288
 30
0.0
 10
44.140936
 20
19.456133
 30
0.0
 10
43.256033
 20
19.425746
 30
0.0
 10
42.712807
 20
19.435060
 30
0.0
 10
42.144778
 20
19.462971
 30
0.0
 10
41.551947
 20
19.509482
 30
0.0
 10
40.934315
 20
19.574593
 30
0.0
 10
40.334661
 20
19.666990
 30
0.0
 10
39.785854
 20
19.795356
 30
0.0
 10
39.287902
 20
19.959685
 30
0.0
 10
38.840799
 20
20.159984
 30
0.0
 10
38.427798
 20
20.406169
 30
0.0
 10
38.032165
 20
20.698244
 30
0.0
 10
37.653894
 20
21.036208
 30
0.0
 10
37.292988
 20
21.420061
 30
0.0
 10
36.973005
 20
21.829958
 30
0.0
 10
36.707595
 20
22.246055
 30
0.0
 10
36.496758
 20
22.668356
 30
0.0
 10
36.340488
 20
23.096859
 30
0.0
 10
36.158173
 20
23.771542
 30
0.0
 10
36.027947
 20
24.406542
 30
0.0
 10
35.949814
 20
25.001856
 30
0.0
 10
35.923765
 20
25.557484
 30
0.0
 10
35.923765
 20
27.725414
 30
0.0
 10
35.923765
 20
29.893343
 30
0.0
 10
35.923765
 20
32.061273
 30
0.0
 10
35.923765
 20
34.229202
 30
0.0
 10
37.044935
 20
34.229202
 30
0.0
 10
38.166108
 20
34.229202
 30
0.0
 10
39.287278
 20
34.229202
 30
0.0
 10
40.408451
 20
34.229202
 30
0.0
 10
40.408451
 20
32.009183
 30
0.0
 10
40.408451
 20
29.789164
 30
0.0
 10
40.408451
 20
27.569144
 30
0.0
 10
40.408451
 20
25.349125
 30
0.0
 10
40.449376
 20
24.786055
 30
0.0
 10
40.572157
 20
24.287481
 30
0.0
 10
40.776796
 20
23.853398
 30
0.0
 10
41.063294
 20
23.483811
 30
0.0
 10
41.427298
 20
23.192976
 30
0.0
 10
41.854557
 20
22.985235
 30
0.0
 10
42.345074
 20
22.860591
 30
0.0
 10
42.898842
 20
22.819045
 30
0.0
 10
43.447640
 20
22.859973
 30
0.0
 10
43.933189
 20
22.982757
 30
0.0
 10
44.355489
 20
23.187396
 30
0.0
 10
44.714544
 20
23.473891
 30
0.0
 10
45.005374
 20
23.840376
 30
0.0
 10
45.213112
 20
24.275078
 30
0.0
 10
45.337755
 20
24.777995
 30
0.0
 10
45.379310
 20
25.349125
 30
0.0
 10
45.379310
 20
27.569144
 30
0.0
 10
45.379310
 20
29.789164
 30
0.0
 10
45.379310
 20
32.009183
 30
0.0
 10
45.379310
 20
34.229202
 30
0.0
  0
LWPOLYLINE
  5
105
100
AcDbEntity
  8
Layer_1
 62
7
100
AcDbPolyline
 90
53
 70
0
 10
52.870326
 20
34.229182
 30
0.0
 10
54.973762
 20
34.229182
 30
0.0
 10
57.077201
 20
34.229182
 30
0.0
 10
59.180637
 20
34.229182
 30
0.0
 10
61.284076
 20
34.229182
 30
0.0
 10
62.274396
 20
34.164062
 30
0.0
 10
63.141939
 20
33.968722
 30
0.0
 10
63.886701
 20
33.643165
 30
0.0
 10
64.508685
 20
33.187387
 30
0.0
 10
65.003530
 20
32.635474
 30
0.0
 10
65.356994
 20
32.021556
 30
0.0
 10
65.569076
 20
31.345631
 30
0.0
 10
65.639778
 20
30.607698
 30
0.0
 10
65.589539
 20
29.985715
 30
0.0
 10
65.438850
 20
29.409626
 30
0.0
 10
65.187706
 20
28.879426
 30
0.0
 10
64.836108
 20
28.395121
 30
0.0
 10
64.537206
 20
28.103659
 30
0.0
 10
64.176295
 20
27.844449
 30
0.0
 10
63.753376
 20
27.617489
 30
0.0
 10
63.268451
 20
27.422775
 30
0.0
 10
64.000182
 20
27.200150
 30
0.0
 10
64.627737
 20
26.909314
 30
0.0
 10
65.151119
 20
26.550269
 30
0.0
 10
65.570326
 20
26.123012
 30
0.0
 10
65.895880
 20
25.636837
 30
0.0
 10
66.128420
 20
25.091132
 30
0.0
 10
66.267951
 20
24.485900
 30
0.0
 10
66.314467
 20
23.821137
 30
0.0
 10
66.281594
 20
23.269850
 30
0.0
 10
66.182991
 20
22.747090
 30
0.0
 10
66.018661
 20
22.252857
 30
0.0
 10
65.788608
 20
21.787150
 30
0.0
 10
65.501486
 20
21.359271
 30
0.0
 10
65.166000
 20
20.978519
 30
0.0
 10
64.782150
 20
20.644896
 30
0.0
 10
64.349935
 20
20.358400
 30
0.0
 10
64.031187
 20
20.205854
 30
0.0
 10
63.640513
 20
20.075628
 30
0.0
 10
63.177908
 20
19.967729
 30
0.0
 10
62.643374
 20
19.882150
 30
0.0
 10
61.948215
 20
19.795333
 30
0.0
 10
61.380807
 20
19.733323
 30
0.0
 10
60.941145
 20
19.696115
 30
0.0
 10
60.629233
 20
19.683726
 30
0.0
 10
58.689505
 20
19.683726
 30
0.0
 10
56.749781
 20
19.683726
 30
0.0
 10
54.810053
 20
19.683726
 30
0.0
 10
52.870326
 20
19.683726
 30
0.0
 10
52.870326
 20
23.320091
 30
0.0
 10
52.870326
 20
26.956460
 30
0.0
 10
52.870326
 20
30.592825
 30
0.0
 10
52.870326
 20
34.229194
 30
0.0
  0
LWPOLYLINE
  5
106
100
AcDbEntity
  8
Layer_1
 62
7
100
AcDbPolyline
 90
29
 70
0
 10
57.404624
 20
28.524117
 30
0.0
 10
57.893277
 20
28.524117
 30
0.0
 10
58.381928
 20
28.524117
 30
0.0
 10
58.870582
 20
28.524117
 30
0.0
 10
59.359233
 20
28.524117
 30
0.0
 10
59.844779
 20
28.546440
 30
0.0
 10
60.249714
 20
28.613412
 30
0.0
 10
60.574039
 20
28.725033
 30
0.0
 10
60.817749
 20
28.881308
 30
0.0
 10
61.000059
 20
29.084703
 30
0.0
 10
61.130279
 20
29.327787
 30
0.0
 10
61.208415
 20
29.610562
 30
0.0
 10
61.234464
 20
29.933029
 30
0.0
 10
61.208415
 20
30.233158
 30
0.0
 10
61.130279
 20
30.498566
 30
0.0
 10
61.000059
 20
30.729252
 30
0.0
 10
60.817749
 20
30.925215
 30
0.0
 10
60.575898
 20
31.081479
 30
0.0
 10
60.257157
 20
31.193098
 30
0.0
 10
59.861523
 20
31.260072
 30
0.0
 10
59.388999
 20
31.282396
 30
0.0
 10
58.892906
 20
31.282396
 30
0.0
 10
58.396813
 20
31.282396
 30
0.0
 10
57.900717
 20
31.282396
 30
0.0
 10
57.404624
 20
31.282396
 30
0.0
 10
57.404624
 20
30.592825
 30
0.0
 10
57.404624
 20
29.903255
 30
0.0
 10
57.404624
 20
29.213684
 30
0.0
 10
57.404624
 20
28.524114
 30
0.0
  0
LWPOLYLINE
  5
107
100
AcDbEntity
  8
Layer_1
 62
7
100
AcDbPolyline
 90
29
 70
0
 10
57.404624
 20
22.809114
 30
0.0
 10
57.977611
 20
22.809114
 30
0.0
 10
58.550601
 20
22.809114
 30
0.0
 10
59.123588
 20
22.809114
 30
0.0
 10
59.696576
 20
22.809114
 30
0.0
 10
60.234212
 20
22.834542
 30
0.0
 10
60.686275
 20
22.910815
 30
0.0
 10
61.052766
 20
23.037940
 30
0.0
 10
61.333685
 20
23.215915
 30
0.0
 10
61.542038
 20
23.441636
 30
0.0
 10
61.690865
 20
23.702085
 30
0.0
 10
61.780163
 20
23.997261
 30
0.0
 10
61.809935
 20
24.327165
 30
0.0
 10
61.780163
 20
24.633500
 30
0.0
 10
61.690865
 20
24.907591
 30
0.0
 10
61.542038
 20
25.149436
 30
0.0
 10
61.333685
 20
25.359040
 30
0.0
 10
61.055865
 20
25.532668
 30
0.0
 10
60.688756
 20
25.656691
 30
0.0
 10
60.232352
 20
25.731107
 30
0.0
 10
59.686653
 20
25.755915
 30
0.0
 10
59.116146
 20
25.755915
 30
0.0
 10
58.545640
 20
25.755915
 30
0.0
 10
57.975130
 20
25.755915
 30
0.0
 10
57.404624
 20
25.755915
 30
0.0
 10
57.404624
 20
25.019216
 30
0.0
 10
57.404624
 20
24.282517
 30
0.0
 10
57.404624
 20
23.545818
 30
0.0
 10
57.404624
 20
22.809119
 30
0.0
  0
LWPOLYLINE
  5
108
100
AcDbEntity
  8
Layer_1
 62
7
100
AcDbPolyline
 90
25
 70
0
 10
68.656028
 20
34.229182
 30
0.0
 10
69.779682
 20
34.229182
 30
0.0
 10
70.903332
 20
34.229182
 30
0.0
 10
72.026986
 20
34.229182
 30
0.0
 10
73.150640
 20
34.229182
 30
0.0
 10
73.150640
 20
31.488266
 30
0.0
 10
73.150640
 20
28.747346
 30
0.0
 10
73.150640
 20
26.006429
 30
0.0
 10
73.150640
 20
23.265512
 30
0.0
 10
74.904329
 20
23.265512
 30
0.0
 10
76.658021
 20
23.265512
 30
0.0
 10
78.411711
 20
23.265512
 30
0.0
 10
80.165403
 20
23.265512
 30
0.0
 10
80.165403
 20
22.370064
 30
0.0
 10
80.165403
 20
21.474612
 30
0.0
 10
80.165403
 20
20.579163
 30
0.0
 10
80.165403
 20
19.683714
 30
0.0
 10
77.288060
 20
19.683714
 30
0.0
 10
74.410714
 20
19.683714
 30
0.0
 10
71.533371
 20
19.683714
 30
0.0
 10
68.656028
 20
19.683714
 30
0.0
 10
68.656028
 20
23.320080
 30
0.0
 10
68.656028
 20
26.956448
 30
0.0
 10
68.656028
 20
30.592814
 30
0.0
 10
68.656028
 20
34.229182
 30
0.0
  0
LWPOLYLINE
  5
109
100
AcDbEntity
  8
Layer_1
 62
7
100
AcDbPolyline
 90
49
 70
0
 10
82.219233
 20
34.229182
 30
0.0
 10
85.230521
 20
34.229182
 30
0.0
 10
88.241810
 20
34.229182
 30
0.0
 10
91.253101
 20
34.229182
 30
0.0
 10
94.264390
 20
34.229182
 30
0.0
 10
94.264390
 20
33.452795
 30
0.0
 10
94.264390
 20
32.676410
 30
0.0
 10
94.264390
 20
31.900022
 30
0.0
 10
94.264390
 20
31.123637
 30
0.0
 10
92.379233
 20
31.123637
 30
0.0
 10
90.494076
 20
31.123637
 30
0.0
 10
88.608922
 20
31.123637
 30
0.0
 10
86.723765
 20
31.123637
 30
0.0
 10
86.723765
 20
30.545689
 30
0.0
 10
86.723765
 20
29.967737
 30
0.0
 10
86.723765
 20
29.389788
 30
0.0
 10
86.723765
 20
28.811839
 30
0.0
 10
88.472495
 20
28.811839
 30
0.0
 10
90.221226
 20
28.811839
 30
0.0
 10
91.969954
 20
28.811839
 30
0.0
 10
93.718685
 20
28.811839
 30
0.0
 10
93.718685
 20
28.070179
 30
0.0
 10
93.718685
 20
27.328519
 30
0.0
 10
93.718685
 20
26.586859
 30
0.0
 10
93.718685
 20
25.845198
 30
0.0
 10
91.969954
 20
25.845198
 30
0.0
 10
90.221226
 20
25.845198
 30
0.0
 10
88.472495
 20
25.845198
 30
0.0
 10
86.723765
 20
25.845198
 30
0.0
 10
86.723765
 20
25.128343
 30
0.0
 10
86.723765
 20
24.411487
 30
0.0
 10
86.723765
 20
23.694631
 30
0.0
 10
86.723765
 20
22.977775
 30
0.0
 10
88.663489
 20
22.977775
 30
0.0
 10
90.603217
 20
22.977775
 30
0.0
 10
92.542944
 20
22.977775
 30
0.0
 10
94.482669
 20
22.977775
 30
0.0
 10
94.482669
 20
22.154260
 30
0.0
 10
94.482669
 20
21.330744
 30
0.0
 10
94.482669
 20
20.507230
 30
0.0
 10
94.482669
 20
19.683714
 30
0.0
 10
91.416810
 20
19.683714
 30
0.0
 10
88.350951
 20
19.683714
 30
0.0
 10
85.285092
 20
19.683714
 30
0.0
 10
82.219233
 20
19.683714
 30
0.0
 10
82.219233
 20
23.320080
 30
0.0
 10
82.219233
 20
26.956448
 30
0.0
 10
82.219233
 20
30.592814
 30
0.0
 10
82.219233
 20
34.229182
 30
0.0
  0
LWPOLYLINE
  5
10a
100
AcDbEntity
  8
Layer_1
 62
7
100
AcDbPolyline
 90
77
 70
0
 10
21.666029
 20
17.973182
 30
0.0
 10
22.787201
 20
17.973182
 30
0.0
 10
23.908373
 20
17.973182
 30
0.0
 10
25.029545
 20
17.973182
 30
0.0
 10
26.150716
 20
17.973182
 30
0.0
 10
26.150716
 20
15.805250
 30
0.0
 10
26.150716
 20
13.637318
 30
0.0
 10
26.150716
 20
11.469400
 30
0.0
 10
26.150716
 20
9.301453
 30
0.0
 10
26.125283
 20
8.665211
 30
0.0
 10
26.049006
 20
8.046326
 30
0.0
 10
25.921884
 20
7.444826
 30
0.0
 10
25.743919
 20
6.860682
 30
0.0
 10
25.516328
 20
6.307527
 30
0.0
 10
25.230451
 20
5.789113
 30
0.0
 10
24.886289
 20
5.305412
 30
0.0
 10
24.483841
 20
4.856453
 30
0.0
 10
24.051612
 20
4.461455
 30
0.0
 10
23.608226
 20
4.129674
 30
0.0
 10
23.153683
 20
3.861168
 30
0.0
 10
22.687982
 20
3.655908
 30
0.0
 10
22.000266
 20
3.443225
 30
0.0
 10
21.246821
 20
3.291305
 30
0.0
 10
20.427649
 20
3.200147
 30
0.0
 10
19.542747
 20
3.169752
 30
0.0
 10
18.999520
 20
3.179065
 30
0.0
 10
18.431492
 20
3.207005
 30
0.0
 10
17.838661
 20
3.253516
 30
0.0
 10
17.221029
 20
3.318624
 30
0.0
 10
16.621372
 20
3.411024
 30
0.0
 10
16.072568
 20
3.539378
 30
0.0
 10
15.574615
 20
3.703716
 30
0.0
 10
15.127513
 20
3.904010
 30
0.0
 10
14.714513
 20
4.150192
 30
0.0
 10
14.318877
 20
4.442264
 30
0.0
 10
13.940607
 20
4.780253
 30
0.0
 10
13.579700
 20
5.164104
 30
0.0
 10
13.259719
 20
5.574003
 30
0.0
 10
12.994308
 20
5.990083
 30
0.0
 10
12.783469
 20
6.412401
 30
0.0
 10
12.627200
 20
6.840899
 30
0.0
 10
12.444885
 20
7.515579
 30
0.0
 10
12.314660
 20
8.150579
 30
0.0
 10
12.236526
 20
8.745899
 30
0.0
 10
12.210483
 20
9.301510
 30
0.0
 10
12.210483
 20
11.469428
 30
0.0
 10
12.210483
 20
13.637374
 30
0.0
 10
12.210483
 20
15.805307
 30
0.0
 10
12.210483
 20
17.973239
 30
0.0
 10
13.331655
 20
17.973239
 30
0.0
 10
14.452827
 20
17.973239
 30
0.0
 10
15.573998
 20
17.973239
 30
0.0
 10
16.695170
 20
17.973239
 30
0.0
 10
16.695170
 20
15.753222
 30
0.0
 10
16.695170
 20
13.533206
 30
0.0
 10
16.695170
 20
11.313190
 30
0.0
 10
16.695170
 20
9.093173
 30
0.0
 10
16.736096
 20
8.530083
 30
0.0
 10
16.858876
 20
8.031510
 30
0.0
 10
17.063516
 20
7.597424
 30
0.0
 10
17.350014
 20
7.227854
 30
0.0
 10
17.714019
 20
6.937024
 30
0.0
 10
18.141278
 20
6.729280
 30
0.0
 10
18.631792
 20
6.604622
 30
0.0
 10
19.185561
 20
6.563079
 30
0.0
 10
19.734359
 20
6.604001
 30
0.0
 10
20.219909
 20
6.726796
 30
0.0
 10
20.642211
 20
6.931436
 30
0.0
 10
21.001264
 20
7.217919
 30
0.0
 10
21.292095
 20
7.584413
 30
0.0
 10
21.499832
 20
8.019120
 30
0.0
 10
21.624476
 20
8.522040
 30
0.0
 10
21.666030
 20
9.093173
 30
0.0
 10
21.666030
 20
11.313190
 30
0.0
 10
21.666030
 20
13.533206
 30
0.0
 10
21.666030
 20
15.753222
 30
0.0
 10
21.666030
 20
17.973239
 30
0.0
  0
LWPOLYLINE
  5
10b
100
AcDbEntity
  8
Layer_1
 62
7
100
AcDbPolyline
 90
41
 70
0
 10
29.176890
 20
17.973182
 30
0.0
 10
30.226127
 20
17.973182
 30
0.0
 10
31.275364
 20
17.973182
 30
0.0
 10
32.324604
 20
17.973182
 30
0.0
 10
33.373842
 20
17.973182
 30
0.0
 10
34.743060
 20
15.961525
 30
0.0
 10
36.112278
 20
13.949879
 30
0.0
 10
37.481499
 20
11.938199
 30
0.0
 10
38.850717
 20
9.926547
 30
0.0
 10
38.850717
 20
11.938199
 30
0.0
 10
38.850717
 20
13.949879
 30
0.0
 10
38.850717
 20
15.961525
 30
0.0
 10
38.850717
 20
17.973182
 30
0.0
 10
39.909877
 20
17.973182
 30
0.0
 10
40.969037
 20
17.973182
 30
0.0
 10
42.028197
 20
17.973182
 30
0.0
 10
43.087358
 20
17.973182
 30
0.0
 10
43.087358
 20
14.336806
 30
0.0
 10
43.087358
 20
10.700457
 30
0.0
 10
43.087358
 20
7.064080
 30
0.0
 10
43.087358
 20
3.427703
 30
0.0
 10
42.028197
 20
3.427703
 30
0.0
 10
40.969037
 20
3.427703
 30
0.0
 10
39.909877
 20
3.427703
 30
0.0
 10
38.850717
 20
3.427703
 30
0.0
 10
37.488938
 20
5.424482
 30
0.0
 10
36.127162
 20
7.421260
 30
0.0
 10
34.765384
 20
9.418039
 30
0.0
 10
33.403608
 20
11.414818
 30
0.0
 10
33.403608
 20
9.418039
 30
0.0
 10
33.403608
 20
7.421260
 30
0.0
 10
33.403608
 20
5.424482
 30
0.0
 10
33.403608
 20
3.427703
 30
0.0
 10
32.346928
 20
3.427703
 30
0.0
 10
31.290249
 20
3.427703
 30
0.0
 10
30.233569
 20
3.427703
 30
0.0
 10
29.176890
 20
3.427703
 30
0.0
 10
29.176890
 20
7.064080
 30
0.0
 10
29.176890
 20
10.700457
 30
0.0
 10
29.176890
 20
14.336806
 30
0.0
 10
29.176890
 20
17.973182
 30
0.0
  0
LWPOLYLINE
  5
10c
100
AcDbEntity
  8
Layer_1
 62
7
100
AcDbPolyline
 90
17
 70
0
 10
46.272278
 20
17.973182
 30
0.0
 10
47.398409
 20
17.973182
 30
0.0
 10
48.524544
 20
17.973182
 30
0.0
 10
49.650675
 20
17.973182
 30
0.0
 10
50.776810
 20
17.973182
 30
0.0
 10
50.776810
 20
14.336806
 30
0.0
 10
50.776810
 20
10.700457
 30
0.0
 10
50.776810
 20
7.064080
 30
0.0
 10
50.776810
 20
3.427703
 30
0.0
 10
49.650675
 20
3.427703
 30
0.0
 10
48.524544
 20
3.427703
 30
0.0
 10
47.398409
 20
3.427703
 30
0.0
 10
46.272278
 20
3.427703
 30
0.0
 10
46.272278
 20
7.064080
 30
0.0
 10
46.272278
 20
10.700457
 30
0.0
 10
46.272278
 20
14.336806
 30
0.0
 10
46.272278
 20
17.973182
 30
0.0
  0
LWPOLYLINE
  5
10d
100
AcDbEntity
  8
Layer_1
 62
7
100
AcDbPolyline
 90
41
 70
0
 10
53.425951
 20
10.690523
 30
0.0
 10
53.549973
 20
12.372906
 30
0.0
 10
53.922044
 20
13.858072
 30
0.0
 10
54.542159
 20
15.146061
 30
0.0
 10
55.410326
 20
16.236855
 30
0.0
 10
56.499864
 20
17.105016
 30
0.0
 10
57.784128
 20
17.725129
 30
0.0
 10
59.263108
 20
18.097199
 30
0.0
 10
60.936810
 20
18.221230
 30
0.0
 10
62.648327
 20
18.099059
 30
0.0
 10
64.151490
 20
17.732568
 30
0.0
 10
65.446298
 20
17.121755
 30
0.0
 10
66.532749
 20
16.266621
 30
0.0
 10
67.392223
 20
15.196291
 30
0.0
 10
68.006135
 20
13.930010
 30
0.0
 10
68.374486
 20
12.467761
 30
0.0
 10
68.497278
 20
10.809592
 30
0.0
 10
68.443320
 20
9.591662
 30
0.0
 10
68.281468
 20
8.487863
 30
0.0
 10
68.011720
 20
7.498166
 30
0.0
 10
67.634076
 20
6.622572
 30
0.0
 10
67.159056
 20
5.853629
 30
0.0
 10
66.587308
 20
5.173953
 30
0.0
 10
65.918825
 20
4.583629
 30
0.0
 10
65.153608
 20
4.082572
 30
0.0
 10
64.294738
 20
3.687545
 30
0.0
 10
63.335416
 20
3.405379
 30
0.0
 10
62.275638
 20
3.236102
 30
0.0
 10
61.115403
 20
3.179658
 30
0.0
 10
59.937797
 20
3.228652
 30
0.0
 10
58.865615
 20
3.375633
 30
0.0
 10
57.898854
 20
3.620574
 30
0.0
 10
57.037515
 20
3.963502
 30
0.0
 10
56.271668
 20
4.412461
 30
0.0
 10
55.581477
 20
4.975523
 30
0.0
 10
54.966941
 20
5.652687
 30
0.0
 10
54.428060
 20
6.443953
 30
0.0
 10
53.989639
 20
7.345597
 30
0.0
 10
53.676479
 20
8.353920
 30
0.0
 10
53.488582
 20
9.468896
 30
0.0
 10
53.425951
 20
10.690523
 30
0.0
  0
LWPOLYLINE
  5
10e
100
AcDbEntity
  8
Layer_1
 62
7
100
AcDbPolyline
 90
33
 70
0
 10
57.920560
 20
10.670767
 30
0.0
 10
57.971405
 20
9.646950
 30
0.0
 10
58.123955
 20
8.778185
 30
0.0
 10
58.378203
 20
8.064417
 30
0.0
 10
58.734153
 20
7.505701
 30
0.0
 10
59.182494
 20
7.084626
 30
0.0
 10
59.704012
 20
6.783862
 30
0.0
 10
60.298705
 20
6.603409
 30
0.0
 10
60.966576
 20
6.543267
 30
0.0
 10
61.649940
 20
6.602167
 30
0.0
 10
62.251452
 20
6.778923
 30
0.0
 10
62.771110
 20
7.073478
 30
0.0
 10
63.208919
 20
7.485833
 30
0.0
 10
63.556179
 20
8.050757
 30
0.0
 10
63.804221
 20
8.802964
 30
0.0
 10
63.953054
 20
9.742454
 30
0.0
 10
64.002669
 20
10.869198
 30
0.0
 10
63.950573
 20
11.826665
 30
0.0
 10
63.794301
 20
12.645222
 30
0.0
 10
63.533855
 20
13.324870
 30
0.0
 10
63.169233
 20
13.865607
 30
0.0
 10
62.720262
 20
14.282308
 30
0.0
 10
62.196881
 20
14.579968
 30
0.0
 10
61.599089
 20
14.758558
 30
0.0
 10
60.926890
 20
14.818110
 30
0.0
 10
60.280722
 20
14.757966
 30
0.0
 10
59.701532
 20
14.577513
 30
0.0
 10
59.189315
 20
14.276749
 30
0.0
 10
58.744076
 20
13.855701
 30
0.0
 10
58.383785
 20
13.295716
 30
0.0
 10
58.126435
 20
12.578251
 30
0.0
 10
57.972026
 20
11.703249
 30
0.0
 10
57.920560
 20
10.670767
 30
0.0
  0
LWPOLYLINE
  5
10f
100
AcDbEntity
  8
Layer_1
 62
7
100
AcDbPolyline
 90
41
 70
0
 10
70.967826
 20
17.973182
 30
0.0
 10
72.017063
 20
17.973182
 30
0.0
 10
73.066300
 20
17.973182
 30
0.0
 10
74.115541
 20
17.973182
 30
0.0
 10
75.164778
 20
17.973182
 30
0.0
 10
76.533996
 20
15.961525
 30
0.0
 10
77.903214
 20
13.949879
 30
0.0
 10
79.272435
 20
11.938199
 30
0.0
 10
80.641653
 20
9.926547
 30
0.0
 10
80.641653
 20
11.938199
 30
0.0
 10
80.641653
 20
13.949879
 30
0.0
 10
80.641653
 20
15.961525
 30
0.0
 10
80.641653
 20
17.973182
 30
0.0
 10
81.700813
 20
17.973182
 30
0.0
 10
82.759973
 20
17.973182
 30
0.0
 10
83.819134
 20
17.973182
 30
0.0
 10
84.878294
 20
17.973182
 30
0.0
 10
84.878294
 20
14.336806
 30
0.0
 10
84.878294
 20
10.700457
 30
0.0
 10
84.878294
 20
7.064080
 30
0.0
 10
84.878294
 20
3.427703
 30
0.0
 10
83.819134
 20
3.427703
 30
0.0
 10
82.759973
 20
3.427703
 30
0.0
 10
81.700813
 20
3.427703
 30
0.0
 10
80.641653
 20
3.427703
 30
0.0
 10
79.279877
 20
5.424482
 30
0.0
 10
77.918098
 20
7.421260
 30
0.0
 10
76.556322
 20
9.418039
 30
0.0
 10
75.194544
 20
11.414818
 30
0.0
 10
75.194544
 20
9.418039
 30
0.0
 10
75.194544
 20
7.421260
 30
0.0
 10
75.194544
 20
5.424482
 30
0.0
 10
75.194544
 20
3.427703
 30
0.0
 10
74.137864
 20
3.427703
 30
0.0
 10
73.081185
 20
3.427703
 30
0.0
 10
72.024505
 20
3.427703
 30
0.0
 10
70.967826
 20
3.427703
 30
0.0
 10
70.967826
 20
7.064080
 30
0.0
 10
70.967826
 20
10.700457
 30
0.0
 10
70.967826
 20
14.336806
 30
0.0
 10
70.967826
 20
17.973182
 30
0.0
  0
ENDSEC
  0
SECTION
  2
OBJECTS
  0
DICTIONARY
  5
C
330
0
100
AcDbDictionary
  3
ACAD_GROUP
350
D
  3
ACAD_MLINESTYLE
350
17
  0
DICTIONARY
  5
D
330
C
100
AcDbDictionary
  0
DICTIONARY
  5
1A
330
C
100
AcDbDictionary
  0
DICTIONARY
  5
17
330
C
100
AcDbDictionary
  3
STANDARD
350
18
  0
DICTIONARY
  5
19
330
C
100
AcDbDictionary
  0
ENDSEC
  0
EOF
