  0
SECTION
  2
HEADER
  9
$ACADVER
  1
AC1014
  9
$HANDSEED
  5
FFFF
  9
$MEASUREMENT
 70
     1
  0
ENDSEC
  0
SECTION
  2
TABLES
  0
TABLE
  2
VPORT
  5
8
330
0
100
AcDbSymbolTable
 70
     4
  0
VPORT
  5
2E
330
8
100
AcDbSymbolTableRecord
100
AcDbViewportTableRecord
  2
*ACTIVE
 70
     0
 10
0.0
 20
0.0
 11
1.0
 21
1.0
 12
210.0
 22
148.5
 13
0.0
 23
0.0
 14
10.0
 24
10.0
 15
10.0
 25
10.0
 16
0.0
 26
0.0
 36
1.0
 17
0.0
 27
0.0
 37
0.0
 40
341.0
 41
1.24
 42
50.0
 43
0.0
 44
0.0
 50
0.0
 51
0.0
 71
     0
 72
   100
 73
     1
 74
     3
 75
     0
 76
     0
 77
     0
 78
     0
  0
ENDTAB
  0
TABLE
  2
LTYPE
  5
5
330
0
100
AcDbSymbolTable
 70
     1
  0
LTYPE
  5
14
330
5
100
AcDbSymbolTableRecord
100
AcDbLinetypeTableRecord
  2
BYBLOCK
 70
     0
  3

 72
    65
 73
     0
 40
0.0
  0
LTYPE
  5
15
330
5
100
AcDbSymbolTableRecord
100
AcDbLinetypeTableRecord
  2
BYLAYER
 70
     0
  3

 72
    65
 73
     0
 40
0.0
  0
LTYPE
  5
16
330
5
100
AcDbSymbolTableRecord
100
AcDbLinetypeTableRecord
  2
CONTINUOUS
 70
     0
  3
Solid line
 72
    65
 73
     0
 40
0.0
  0
ENDTAB
  0
TABLE
  2
LAYER
  5
2
100
AcDbSymbolTable
 70
2
  0
LAYER
  5
50
100
AcDbSymbolTableRecord
100
AcDbLayerTableRecord
  2
0
 70
0
  6
CONTINUOUS
  0
LAYER
  5
51
100
AcDbSymbolTableRecord
100
AcDbLayerTableRecord
  2
Layer_1
 70
0
  6
CONTINUOUS
  0
ENDTAB
  0
TABLE
  2
STYLE
  5
3
330
0
100
AcDbSymbolTable
 70
     1
  0
STYLE
  5
11
330
3
100
AcDbSymbolTableRecord
100
AcDbTextStyleTableRecord
  2
STANDARD
 70
     0
 40
0.0
 41
1.0
 50
0.0
 71
     0
 42
2.5
  3
txt
  4

  0
ENDTAB
  0
TABLE
  2
VIEW
  5
6
330
0
100
AcDbSymbolTable
 70
     0
  0
ENDTAB
  0
TABLE
  2
UCS
  5
7
330
0
100
AcDbSymbolTable
 70
     0
  0
ENDTAB
  0
TABLE
  2
APPID
  5
9
330
0
100
AcDbSymbolTable
 70
     2
  0
APPID
  5
12
330
9
100
AcDbSymbolTableRecord
100
AcDbRegAppTableRecord
  2
ACAD
 70
     0
  0
ENDTAB
  0
TABLE
  2
DIMSTYLE
  5
A
330
0
100
AcDbSymbolTable
 70
     1
  0
DIMSTYLE
105
27
330
A
100
AcDbSymbolTableRecord
100
AcDbDimStyleTableRecord
  2
ISO-25
 70
     0
  3

  4

  5

  6

  7

 40
1.0
 41
2.5
 42
0.625
 43
3.75
 44
1.25
 45
0.0
 46
0.0
 47
0.0
 48
0.0
140
2.5
141
2.5
142
0.0
143
0.03937007874016
144
1.0
145
0.0
146
1.0
147
0.625
 71
     0
 72
     0
 73
     0
 74
     0
 75
     0
 76
     0
 77
     1
 78
     8
170
     0
171
     3
172
     1
173
     0
174
     0
175
     0
176
     0
177
     0
178
     0
270
     2
271
     2
272
     2
273
     2
274
     3
340
11
275
     0
280
     0
281
     0
282
     0
283
     0
284
     8
285
     0
286
     0
287
     3
288
     0
  0
ENDTAB
  0
TABLE
  2
BLOCK_RECORD
  5
1
330
0
100
AcDbSymbolTable
 70
     1
  0
BLOCK_RECORD
  5
1F
330
1
100
AcDbSymbolTableRecord
100
AcDbBlockTableRecord
  2
*MODEL_SPACE
  0
BLOCK_RECORD
  5
1B
330
1
100
AcDbSymbolTableRecord
100
AcDbBlockTableRecord
  2
*PAPER_SPACE
  0
ENDTAB
  0
ENDSEC
  0
SECTION
  2
BLOCKS
  0
BLOCK
  5
20
330
1F
100
AcDbEntity
  8
0
100
AcDbBlockBegin
  2
*MODEL_SPACE
 70
     0
 10
0.0
 20
0.0
 30
0.0
  3
*MODEL_SPACE
  1

  0
ENDBLK
  5
21
330
1F
100
AcDbEntity
  8
0
100
AcDbBlockEnd
  0
BLOCK
  5
1C
330
1B
100
AcDbEntity
 67
     1
  8
0
100
AcDbBlockBegin
  2
*PAPER_SPACE
  1

  0
ENDBLK
  5
1D
330
1B
100
AcDbEntity
 67
     1
  8
0
100
AcDbBlockEnd
  0
ENDSEC
  0
SECTION
  2
ENTITIES
  0
LWPOLYLINE
  5
100
100
AcDbEntity
  8
Layer_1
 62
7
100
AcDbPolyline
 90
133
 70
0
 10
17.348162
 20
7.743784
 30
0.0
 10
14.609725
 20
7.743784
 30
0.0
 10
11.871287
 20
7.743784
 30
0.0
 10
9.132850
 20
7.743784
 30
0.0
 10
6.394412
 20
7.743784
 30
0.0
 10
5.833827
 20
6.220772
 30
0.0
 10
5.273241
 20
4.697760
 30
0.0
 10
4.712654
 20
3.174776
 30
0.0
 10
4.152069
 20
1.651763
 30
0.0
 10
4.950779
 20
1.651763
 30
0.0
 10
5.749491
 20
1.651763
 30
0.0
 10
6.548202
 20
1.651763
 30
0.0
 10
7.346912
 20
1.651763
 30
0.0
 10
7.623480
 20
1.636806
 30
0.0
 10
7.857883
 20
1.592130
 30
0.0
 10
8.050120
 20
1.517708
 30
0.0
 10
8.200194
 20
1.413540
 30
0.0
 10
8.313050
 20
1.294470
 30
0.0
 10
8.393664
 20
1.155588
 30
0.0
 10
8.442035
 20
0.996838
 30
0.0
 10
8.458164
 20
0.818248
 30
0.0
 10
8.442035
 20
0.647080
 30
0.0
 10
8.393664
 20
0.490814
 30
0.0
 10
8.313050
 20
0.349421
 30
0.0
 10
8.200194
 20
0.222929
 30
0.0
 10
8.050120
 20
0.118760
 30
0.0
 10
7.857883
 20
0.044338
 30
0.0
 10
7.623480
 20
-0.000337
 30
0.0
 10
7.346912
 20
-0.015295
 30
0.0
 10
5.789178
 20
-0.015295
 30
0.0
 10
4.231444
 20
-0.015295
 30
0.0
 10
2.673709
 20
-0.015295
 30
0.0
 10
1.115975
 20
-0.015295
 30
0.0
 10
0.839402
 20
-0.000337
 30
0.0
 10
0.604998
 20
0.044338
 30
0.0
 10
0.412762
 20
0.118760
 30
0.0
 10
0.262694
 20
0.222929
 30
0.0
 10
0.149832
 20
0.349421
 30
0.0
 10
0.069217
 20
0.490814
 30
0.0
 10
0.020848
 20
0.647080
 30
0.0
 10
0.004725
 20
0.818248
 30
0.0
 10
0.020848
 20
0.996838
 30
0.0
 10
0.069217
 20
1.155588
 30
0.0
 10
0.149832
 20
1.294470
 30
0.0
 10
0.262694
 20
1.413540
 30
0.0
 10
0.412762
 20
1.517708
 30
0.0
 10
0.604998
 20
1.592130
 30
0.0
 10
0.839402
 20
1.636806
 30
0.0
 10
1.115975
 20
1.651763
 30
0.0
 10
1.438436
 20
1.651763
 30
0.0
 10
1.760897
 20
1.651763
 30
0.0
 10
2.083358
 20
1.651763
 30
0.0
 10
2.405819
 20
1.651763
 30
0.0
 10
4.246327
 20
6.622628
 30
0.0
 10
6.086834
 20
11.593464
 30
0.0
 10
7.927342
 20
16.564335
 30
0.0
 10
9.767850
 20
21.535194
 30
0.0
 10
8.537537
 20
21.535194
 30
0.0
 10
7.307225
 20
21.535194
 30
0.0
 10
6.076912
 20
21.535194
 30
0.0
 10
4.846600
 20
21.535194
 30
0.0
 10
4.570025
 20
21.548825
 30
0.0
 10
4.335620
 20
21.589750
 30
0.0
 10
4.143384
 20
21.657966
 30
0.0
 10
3.993319
 20
21.753476
 30
0.0
 10
3.880455
 20
21.881207
 30
0.0
 10
3.799839
 20
22.026311
 30
0.0
 10
3.751471
 20
22.188787
 30
0.0
 10
3.735350
 20
22.368633
 30
0.0
 10
3.751471
 20
22.547214
 30
0.0
 10
3.799839
 20
22.705959
 30
0.0
 10
3.880455
 20
22.844869
 30
0.0
 10
3.993319
 20
22.963944
 30
0.0
 10
4.143384
 20
23.068112
 30
0.0
 10
4.335620
 20
23.142520
 30
0.0
 10
4.570025
 20
23.187173
 30
0.0
 10
4.846600
 20
23.202074
 30
0.0
 10
6.945077
 20
23.202074
 30
0.0
 10
9.043553
 20
23.202074
 30
0.0
 10
11.142029
 20
23.202074
 30
0.0
 10
13.240506
 20
23.202074
 30
0.0
 10
15.274490
 20
17.814497
 30
0.0
 10
17.308475
 20
12.426929
 30
0.0
 10
19.342459
 20
7.039335
 30
0.0
 10
21.376444
 20
1.651769
 30
0.0
 10
21.698904
 20
1.651769
 30
0.0
 10
22.021365
 20
1.651769
 30
0.0
 10
22.343827
 20
1.651769
 30
0.0
 10
22.666287
 20
1.651769
 30
0.0
 10
22.942847
 20
1.636811
 30
0.0
 10
23.177246
 20
1.592135
 30
0.0
 10
23.369487
 20
1.517713
 30
0.0
 10
23.519569
 20
1.413545
 30
0.0
 10
23.632416
 20
1.294476
 30
0.0
 10
23.713027
 20
1.155594
 30
0.0
 10
23.761401
 20
0.996844
 30
0.0
 10
23.777538
 20
0.818254
 30
0.0
 10
23.761401
 20
0.647086
 30
0.0
 10
23.713027
 20
0.490820
 30
0.0
 10
23.632416
 20
0.349426
 30
0.0
 10
23.519569
 20
0.222934
 30
0.0
 10
23.369487
 20
0.118766
 30
0.0
 10
23.177246
 20
0.044344
 30
0.0
 10
22.942847
 20
-0.000332
 30
0.0
 10
22.666287
 20
-0.015289
 30
0.0
 10
21.113514
 20
-0.015289
 30
0.0
 10
19.560740
 20
-0.015289
 30
0.0
 10
18.007967
 20
-0.015289
 30
0.0
 10
16.455194
 20
-0.015289
 30
0.0
 10
16.169930
 20
-0.000332
 30
0.0
 10
15.929322
 20
0.044344
 30
0.0
 10
15.733368
 20
0.118766
 30
0.0
 10
15.582069
 20
0.222934
 30
0.0
 10
15.469198
 20
0.349426
 30
0.0
 10
15.388580
 20
0.490820
 30
0.0
 10
15.340214
 20
0.647086
 30
0.0
 10
15.324099
 20
0.818254
 30
0.0
 10
15.340214
 20
0.996844
 30
0.0
 10
15.388580
 20
1.155594
 30
0.0
 10
15.469198
 20
1.294476
 30
0.0
 10
15.582069
 20
1.413545
 30
0.0
 10
15.733368
 20
1.517713
 30
0.0
 10
15.929322
 20
1.592135
 30
0.0
 10
16.169930
 20
1.636811
 30
0.0
 10
16.455194
 20
1.651769
 30
0.0
 10
17.248944
 20
1.651769
 30
0.0
 10
18.042694
 20
1.651769
 30
0.0
 10
18.836444
 20
1.651769
 30
0.0
 10
19.630194
 20
1.651769
 30
0.0
 10
19.059686
 20
3.174781
 30
0.0
 10
18.489178
 20
4.697765
 30
0.0
 10
17.918670
 20
6.220777
 30
0.0
 10
17.348162
 20
7.743790
 30
0.0
  0
LWPOLYLINE
  5
101
100
AcDbEntity
  8
Layer_1
 62
7
100
AcDbPolyline
 90
17
 70
0
 10
16.713162
 20
9.410679
 30
0.0
 10
15.562225
 20
12.441802
 30
0.0
 10
14.411287
 20
15.472939
 30
0.0
 10
13.260350
 20
18.504068
 30
0.0
 10
12.109412
 20
21.535199
 30
0.0
 10
11.955623
 20
21.535199
 30
0.0
 10
11.801834
 20
21.535199
 30
0.0
 10
11.648045
 20
21.535199
 30
0.0
 10
11.494256
 20
21.535199
 30
0.0
 10
10.378045
 20
18.504068
 30
0.0
 10
9.261834
 20
15.472939
 30
0.0
 10
8.145623
 20
12.441802
 30
0.0
 10
7.029412
 20
9.410679
 30
0.0
 10
9.450350
 20
9.410679
 30
0.0
 10
11.871287
 20
9.410679
 30
0.0
 10
14.292225
 20
9.410679
 30
0.0
 10
16.713162
 20
9.410679
 30
0.0
  0
LWPOLYLINE
  5
102
100
AcDbEntity
  8
Layer_1
 62
7
100
AcDbPolyline
 90
85
 70
0
 10
26.293284
 20
1.651763
 30
0.0
 10
26.293284
 20
6.622628
 30
0.0
 10
26.293284
 20
11.593493
 30
0.0
 10
26.293284
 20
16.564338
 30
0.0
 10
26.293284
 20
21.535194
 30
0.0
 10
25.732698
 20
21.535194
 30
0.0
 10
25.172112
 20
21.535194
 30
0.0
 10
24.611526
 20
21.535194
 30
0.0
 10
24.050940
 20
21.535194
 30
0.0
 10
23.774367
 20
21.548825
 30
0.0
 10
23.539962
 20
21.589750
 30
0.0
 10
23.347726
 20
21.657966
 30
0.0
 10
23.197659
 20
21.753476
 30
0.0
 10
23.084796
 20
21.881207
 30
0.0
 10
23.004181
 20
22.026311
 30
0.0
 10
22.955812
 20
22.188787
 30
0.0
 10
22.939689
 20
22.368633
 30
0.0
 10
22.955812
 20
22.547214
 30
0.0
 10
23.004181
 20
22.705959
 30
0.0
 10
23.084796
 20
22.844869
 30
0.0
 10
23.197659
 20
22.963944
 30
0.0
 10
23.347726
 20
23.068112
 30
0.0
 10
23.539962
 20
23.142520
 30
0.0
 10
23.774367
 20
23.187173
 30
0.0
 10
24.050940
 20
23.202074
 30
0.0
 10
26.670316
 20
23.202074
 30
0.0
 10
29.289691
 20
23.202074
 30
0.0
 10
31.909066
 20
23.202074
 30
0.0
 10
34.528441
 20
23.202074
 30
0.0
 10
36.012992
 20
23.089200
 30
0.0
 10
37.351202
 20
22.750612
 30
0.0
 10
38.543069
 20
22.186311
 30
0.0
 10
39.588595
 20
21.396295
 30
0.0
 10
40.448066
 20
20.463627
 30
0.0
 10
41.061979
 20
19.451592
 30
0.0
 10
41.430332
 20
18.360191
 30
0.0
 10
41.553127
 20
17.189420
 30
0.0
 10
41.348477
 20
15.734616
 30
0.0
 10
40.734559
 20
14.426163
 30
0.0
 10
39.711370
 20
13.264085
 30
0.0
 10
38.278909
 20
12.248339
 30
0.0
 10
39.491847
 20
11.743556
 30
0.0
 10
40.531161
 20
11.161868
 30
0.0
 10
41.396847
 20
10.503302
 30
0.0
 10
42.088909
 20
9.767859
 30
0.0
 10
42.618477
 20
8.974109
 30
0.0
 10
42.996745
 20
8.140679
 30
0.0
 10
43.223711
 20
7.267540
 30
0.0
 10
43.299377
 20
6.354720
 30
0.0
 10
43.249754
 20
5.538646
 30
0.0
 10
43.100921
 20
4.757314
 30
0.0
 10
42.852879
 20
4.010695
 30
0.0
 10
42.505627
 20
3.298790
 30
0.0
 10
42.055412
 20
2.638982
 30
0.0
 10
41.498543
 20
2.028790
 30
0.0
 10
40.835021
 20
1.468212
 30
0.0
 10
40.064845
 20
0.957220
 30
0.0
 10
39.232640
 20
0.531827
 30
0.0
 10
38.363231
 20
0.227958
 30
0.0
 10
37.456624
 20
0.045642
 30
0.0
 10
36.512816
 20
-0.015120
 30
0.0
 10
33.397348
 20
-0.015120
 30
0.0
 10
30.281877
 20
-0.015120
 30
0.0
 10
27.166409
 20
-0.015120
 30
0.0
 10
24.050940
 20
-0.015120
 30
0.0
 10
23.774367
 20
-0.000162
 30
0.0
 10
23.539962
 20
0.044513
 30
0.0
 10
23.347726
 20
0.118935
 30
0.0
 10
23.197659
 20
0.223104
 30
0.0
 10
23.084797
 20
0.349596
 30
0.0
 10
23.004182
 20
0.490989
 30
0.0
 10
22.955812
 20
0.647255
 30
0.0
 10
22.939689
 20
0.818423
 30
0.0
 10
22.955812
 20
0.997013
 30
0.0
 10
23.004181
 20
1.155763
 30
0.0
 10
23.084797
 20
1.294645
 30
0.0
 10
23.197659
 20
1.413715
 30
0.0
 10
23.347726
 20
1.517883
 30
0.0
 10
23.539962
 20
1.592305
 30
0.0
 10
23.774367
 20
1.636981
 30
0.0
 10
24.050941
 20
1.651938
 30
0.0
 10
24.611526
 20
1.651938
 30
0.0
 10
25.172112
 20
1.651938
 30
0.0
 10
25.732698
 20
1.651938
 30
0.0
 10
26.293284
 20
1.651938
 30
0.0
  0
LWPOLYLINE
  5
103
100
AcDbEntity
  8
Layer_1
 62
7
100
AcDbPolyline
 90
33
 70
0
 10
27.960159
 20
12.883508
 30
0.0
 10
29.433557
 20
12.883508
 30
0.0
 10
30.906955
 20
12.883508
 30
0.0
 10
32.380355
 20
12.883508
 30
0.0
 10
33.853752
 20
12.883508
 30
0.0
 10
34.776481
 20
12.926914
 30
0.0
 10
35.659523
 20
13.057131
 30
0.0
 10
36.502885
 20
13.274160
 30
0.0
 10
37.306566
 20
13.578029
 30
0.0
 10
37.878303
 20
13.886836
 30
0.0
 10
38.383075
 20
14.257676
 30
0.0
 10
38.820881
 20
14.690520
 30
0.0
 10
39.191721
 20
15.185369
 30
0.0
 10
39.486885
 20
15.713700
 30
0.0
 10
39.697722
 20
16.246998
 30
0.0
 10
39.824231
 20
16.785261
 30
0.0
 10
39.866409
 20
17.328494
 30
0.0
 10
39.774622
 20
18.096189
 30
0.0
 10
39.499286
 20
18.831646
 30
0.0
 10
39.040401
 20
19.534862
 30
0.0
 10
38.397971
 20
20.205840
 30
0.0
 10
37.607935
 20
20.787497
 30
0.0
 10
36.706280
 20
21.202973
 30
0.0
 10
35.693012
 20
21.452263
 30
0.0
 10
34.568127
 20
21.535369
 30
0.0
 10
32.916134
 20
21.535369
 30
0.0
 10
31.264143
 20
21.535369
 30
0.0
 10
29.612150
 20
21.535369
 30
0.0
 10
27.960159
 20
21.535369
 30
0.0
 10
27.960159
 20
19.372404
 30
0.0
 10
27.960159
 20
17.209438
 30
0.0
 10
27.960159
 20
15.046473
 30
0.0
 10
27.960159
 20
12.883508
 30
0.0
  0
LWPOLYLINE
  5
104
100
AcDbEntity
  8
Layer_1
 62
7
100
AcDbPolyline
 90
37
 70
0
 10
27.960159
 20
1.651938
 30
0.0
 10
30.068557
 20
1.651938
 30
0.0
 10
32.176955
 20
1.651938
 30
0.0
 10
34.285355
 20
1.651938
 30
0.0
 10
36.393752
 20
1.651938
 30
0.0
 10
37.171371
 20
1.696586
 30
0.0
 10
37.896905
 20
1.830529
 30
0.0
 10
38.570355
 20
2.053766
 30
0.0
 10
39.191721
 20
2.366299
 30
0.0
 10
39.751057
 20
2.744562
 30
0.0
 10
40.238466
 20
3.165016
 30
0.0
 10
40.653948
 20
3.627635
 30
0.0
 10
40.997502
 20
4.132389
 30
0.0
 10
41.266624
 20
4.663221
 30
0.0
 10
41.458857
 20
5.203959
 30
0.0
 10
41.574201
 20
5.754631
 30
0.0
 10
41.612659
 20
6.315209
 30
0.0
 10
41.556839
 20
6.945242
 30
0.0
 10
41.389402
 20
7.565369
 30
0.0
 10
41.110355
 20
8.175561
 30
0.0
 10
40.719691
 20
8.775848
 30
0.0
 10
40.239710
 20
9.335184
 30
0.0
 10
39.672918
 20
9.822582
 30
0.0
 10
39.019319
 20
10.238070
 30
0.0
 10
38.278909
 20
10.581619
 30
0.0
 10
37.420658
 20
10.850746
 30
0.0
 10
36.413584
 20
11.042996
 30
0.0
 10
35.257689
 20
11.158340
 30
0.0
 10
33.952971
 20
11.196779
 30
0.0
 10
32.454768
 20
11.196779
 30
0.0
 10
30.956564
 20
11.196779
 30
0.0
 10
29.458361
 20
11.196779
 30
0.0
 10
27.960159
 20
11.196779
 30
0.0
 10
27.960159
 20
8.810561
 30
0.0
 10
27.960159
 20
6.424373
 30
0.0
 10
27.960159
 20
4.038155
 30
0.0
 10
27.960159
 20
1.651938
 30
0.0
  0
LWPOLYLINE
  5
105
100
AcDbEntity
  8
Layer_1
 62
7
100
AcDbPolyline
 90
41
 70
0
 10
65.142937
 20
11.533944
 30
0.0
 10
65.058589
 20
9.896829
 30
0.0
 10
64.805577
 20
8.319263
 30
0.0
 10
64.383900
 20
6.801218
 30
0.0
 10
63.793562
 20
5.342694
 30
0.0
 10
63.054371
 20
4.001997
 30
0.0
 10
62.186202
 20
2.817567
 30
0.0
 10
61.189057
 20
1.789431
 30
0.0
 10
60.062937
 20
0.917534
 30
0.0
 10
58.859900
 20
0.223013
 30
0.0
 10
57.612221
 20
-0.273077
 30
0.0
 10
56.319900
 20
-0.570737
 30
0.0
 10
54.982937
 20
-0.669966
 30
0.0
 10
53.028322
 20
-0.456634
 30
0.0
 10
51.192774
 20
0.183333
 30
0.0
 10
49.476290
 20
1.249935
 30
0.0
 10
47.878873
 20
2.743173
 30
0.0
 10
46.541899
 20
4.579960
 30
0.0
 10
45.586918
 20
6.657341
 30
0.0
 10
45.013931
 20
8.975345
 30
0.0
 10
44.822937
 20
11.533944
 30
0.0
 10
45.013934
 20
14.099993
 30
0.0
 10
45.586921
 20
16.420455
 30
0.0
 10
46.541899
 20
18.495370
 30
0.0
 10
47.878873
 20
20.324726
 30
0.0
 10
49.476290
 20
21.817955
 30
0.0
 10
51.192774
 20
22.884552
 30
0.0
 10
53.028322
 20
23.524519
 30
0.0
 10
54.982937
 20
23.737851
 30
0.0
 10
56.319900
 20
23.638619
 30
0.0
 10
57.612221
 20
23.340959
 30
0.0
 10
58.859900
 20
22.844869
 30
0.0
 10
60.062937
 20
22.150351
 30
0.0
 10
61.180379
 20
21.278456
 30
0.0
 10
62.171320
 20
20.250298
 30
0.0
 10
63.035767
 20
19.065876
 30
0.0
 10
63.773719
 20
17.725194
 30
0.0
 10
64.372738
 20
16.274109
 30
0.0
 10
64.800615
 20
14.758530
 30
0.0
 10
65.057347
 20
13.178481
 30
0.0
 10
65.142937
 20
11.533944
 30
0.0
  0
LWPOLYLINE
  5
106
100
AcDbEntity
  8
Layer_1
 62
7
100
AcDbPolyline
 90
33
 70
0
 10
63.456219
 20
11.533944
 30
0.0
 10
63.308619
 20
13.515821
 30
0.0
 10
62.865849
 20
15.393539
 30
0.0
 10
62.127915
 20
17.167080
 30
0.0
 10
61.094812
 20
18.836444
 30
0.0
 10
59.827281
 20
20.251540
 30
0.0
 10
58.386128
 20
21.262327
 30
0.0
 10
56.771345
 20
21.868806
 30
0.0
 10
54.982937
 20
22.070976
 30
0.0
 10
53.290013
 20
21.877487
 30
0.0
 10
51.723595
 20
21.297055
 30
0.0
 10
50.283683
 20
20.329676
 30
0.0
 10
48.970280
 20
18.975351
 30
0.0
 10
47.885073
 20
17.356837
 30
0.0
 10
47.109925
 20
15.577102
 30
0.0
 10
46.644839
 20
13.636132
 30
0.0
 10
46.489812
 20
11.533944
 30
0.0
 10
46.652284
 20
9.317653
 30
0.0
 10
47.139693
 20
7.312182
 30
0.0
 10
47.952048
 20
5.517559
 30
0.0
 10
49.089344
 20
3.933784
 30
0.0
 10
50.439955
 20
2.648911
 30
0.0
 10
51.872422
 20
1.731124
 30
0.0
 10
53.386750
 20
1.180480
 30
0.0
 10
54.982937
 20
0.996923
 30
0.0
 10
56.771345
 20
1.197837
 30
0.0
 10
58.386128
 20
1.800579
 30
0.0
 10
59.827281
 20
2.805177
 30
0.0
 10
61.094812
 20
4.211604
 30
0.0
 10
62.127915
 20
5.882190
 30
0.0
 10
62.865849
 20
7.659456
 30
0.0
 10
63.308619
 20
9.543374
 30
0.0
 10
63.456219
 20
11.533944
 30
0.0
  0
LWPOLYLINE
  5
107
100
AcDbEntity
  8
Layer_1
 62
7
100
AcDbPolyline
 90
105
 70
0
 10
73.611808
 20
21.535194
 30
0.0
 10
73.611808
 20
16.564335
 30
0.0
 10
73.611808
 20
11.593464
 30
0.0
 10
73.611808
 20
6.622628
 30
0.0
 10
73.611808
 20
1.651763
 30
0.0
 10
76.380010
 20
1.651763
 30
0.0
 10
79.148215
 20
1.651763
 30
0.0
 10
81.916420
 20
1.651763
 30
0.0
 10
84.684622
 20
1.651763
 30
0.0
 10
84.684622
 20
3.308718
 30
0.0
 10
84.684622
 20
4.965673
 30
0.0
 10
84.684622
 20
6.622628
 30
0.0
 10
84.684622
 20
8.279583
 30
0.0
 10
84.699495
 20
8.556132
 30
0.0
 10
84.744139
 20
8.790546
 30
0.0
 10
84.818556
 20
8.982768
 30
0.0
 10
84.922749
 20
9.132854
 30
0.0
 10
85.050480
 20
9.245714
 30
0.0
 10
85.195582
 20
9.326317
 30
0.0
 10
85.358057
 20
9.374690
 30
0.0
 10
85.537904
 20
9.390776
 30
0.0
 10
85.709046
 20
9.374690
 30
0.0
 10
85.865310
 20
9.326317
 30
0.0
 10
86.006700
 20
9.245714
 30
0.0
 10
86.133218
 20
9.132854
 30
0.0
 10
86.237386
 20
8.990218
 30
0.0
 10
86.311794
 20
8.800452
 30
0.0
 10
86.356447
 20
8.563583
 30
0.0
 10
86.371348
 20
8.279583
 30
0.0
 10
86.371348
 20
6.205899
 30
0.0
 10
86.371348
 20
4.132214
 30
0.0
 10
86.371348
 20
2.058558
 30
0.0
 10
86.371348
 20
-0.015126
 30
0.0
 10
81.767598
 20
-0.015126
 30
0.0
 10
77.163848
 20
-0.015126
 30
0.0
 10
72.560098
 20
-0.015126
 30
0.0
 10
67.956348
 20
-0.015126
 30
0.0
 10
67.679773
 20
-0.000168
 30
0.0
 10
67.445371
 20
0.044508
 30
0.0
 10
67.253135
 20
0.118930
 30
0.0
 10
67.103066
 20
0.223098
 30
0.0
 10
66.990206
 20
0.349590
 30
0.0
 10
66.909589
 20
0.490983
 30
0.0
 10
66.861219
 20
0.647250
 30
0.0
 10
66.845104
 20
0.818418
 30
0.0
 10
66.861219
 20
0.997008
 30
0.0
 10
66.909589
 20
1.155758
 30
0.0
 10
66.990203
 20
1.294639
 30
0.0
 10
67.103066
 20
1.413709
 30
0.0
 10
67.253135
 20
1.517877
 30
0.0
 10
67.445371
 20
1.592299
 30
0.0
 10
67.679773
 20
1.636975
 30
0.0
 10
67.956348
 20
1.651933
 30
0.0
 10
68.948537
 20
1.651933
 30
0.0
 10
69.940723
 20
1.651933
 30
0.0
 10
70.932912
 20
1.651933
 30
0.0
 10
71.925098
 20
1.651933
 30
0.0
 10
71.925098
 20
6.622797
 30
0.0
 10
71.925098
 20
11.593662
 30
0.0
 10
71.925098
 20
16.564507
 30
0.0
 10
71.925098
 20
21.535363
 30
0.0
 10
70.932912
 20
21.535363
 30
0.0
 10
69.940723
 20
21.535363
 30
0.0
 10
68.948537
 20
21.535363
 30
0.0
 10
67.956348
 20
21.535363
 30
0.0
 10
67.679773
 20
21.548994
 30
0.0
 10
67.445371
 20
21.589919
 30
0.0
 10
67.253135
 20
21.658135
 30
0.0
 10
67.103066
 20
21.753645
 30
0.0
 10
66.990203
 20
21.881376
 30
0.0
 10
66.909589
 20
22.026481
 30
0.0
 10
66.861219
 20
22.188956
 30
0.0
 10
66.845104
 20
22.368802
 30
0.0
 10
66.861219
 20
22.547384
 30
0.0
 10
66.909589
 20
22.706128
 30
0.0
 10
66.990203
 20
22.845038
 30
0.0
 10
67.103066
 20
22.964113
 30
0.0
 10
67.253135
 20
23.068281
 30
0.0
 10
67.445371
 20
23.142689
 30
0.0
 10
67.679773
 20
23.187342
 30
0.0
 10
67.956348
 20
23.202244
 30
0.0
 10
70.362403
 20
23.202244
 30
0.0
 10
72.768457
 20
23.202244
 30
0.0
 10
75.174512
 20
23.202244
 30
0.0
 10
77.580566
 20
23.202244
 30
0.0
 10
77.857130
 20
23.187342
 30
0.0
 10
78.091532
 20
23.142689
 30
0.0
 10
78.283771
 20
23.068281
 30
0.0
 10
78.433848
 20
22.964113
 30
0.0
 10
78.546700
 20
22.845038
 30
0.0
 10
78.627314
 20
22.706128
 30
0.0
 10
78.675684
 20
22.547384
 30
0.0
 10
78.691827
 20
22.368802
 30
0.0
 10
78.675684
 20
22.188956
 30
0.0
 10
78.627314
 20
22.026481
 30
0.0
 10
78.546700
 20
21.881376
 30
0.0
 10
78.433848
 20
21.753645
 30
0.0
 10
78.283771
 20
21.658135
 30
0.0
 10
78.091532
 20
21.589919
 30
0.0
 10
77.857130
 20
21.548994
 30
0.0
 10
77.580566
 20
21.535363
 30
0.0
 10
76.588380
 20
21.535363
 30
0.0
 10
75.596191
 20
21.535363
 30
0.0
 10
74.604005
 20
21.535363
 30
0.0
 10
73.611816
 20
21.535363
 30
0.0
  0
LWPOLYLINE
  5
108
100
AcDbEntity
  8
Layer_1
 62
7
100
AcDbPolyline
 90
97
 70
0
 10
98.888336
 20
21.535194
 30
0.0
 10
98.888336
 20
16.564335
 30
0.0
 10
98.888336
 20
11.593464
 30
0.0
 10
98.888336
 20
6.622628
 30
0.0
 10
98.888336
 20
1.651763
 30
0.0
 10
100.317086
 20
1.651763
 30
0.0
 10
101.745836
 20
1.651763
 30
0.0
 10
103.174586
 20
1.651763
 30
0.0
 10
104.603336
 20
1.651763
 30
0.0
 10
104.879896
 20
1.636806
 30
0.0
 10
105.114299
 20
1.592130
 30
0.0
 10
105.306537
 20
1.517708
 30
0.0
 10
105.456617
 20
1.413540
 30
0.0
 10
105.569467
 20
1.294470
 30
0.0
 10
105.650078
 20
1.155588
 30
0.0
 10
105.698451
 20
0.996838
 30
0.0
 10
105.714594
 20
0.818248
 30
0.0
 10
105.698451
 20
0.647080
 30
0.0
 10
105.650078
 20
0.490814
 30
0.0
 10
105.569467
 20
0.349421
 30
0.0
 10
105.456617
 20
0.222929
 30
0.0
 10
105.306537
 20
0.118760
 30
0.0
 10
105.114299
 20
0.044338
 30
0.0
 10
104.879896
 20
-0.000337
 30
0.0
 10
104.603336
 20
-0.015295
 30
0.0
 10
101.329117
 20
-0.015295
 30
0.0
 10
98.054899
 20
-0.015295
 30
0.0
 10
94.780679
 20
-0.015295
 30
0.0
 10
91.506461
 20
-0.015295
 30
0.0
 10
91.229886
 20
-0.000337
 30
0.0
 10
90.995480
 20
0.044338
 30
0.0
 10
90.803245
 20
0.118760
 30
0.0
 10
90.653179
 20
0.222929
 30
0.0
 10
90.540315
 20
0.349421
 30
0.0
 10
90.459701
 20
0.490814
 30
0.0
 10
90.411331
 20
0.647080
 30
0.0
 10
90.395216
 20
0.818248
 30
0.0
 10
90.411331
 20
0.996838
 30
0.0
 10
90.459701
 20
1.155588
 30
0.0
 10
90.540315
 20
1.294470
 30
0.0
 10
90.653179
 20
1.413540
 30
0.0
 10
90.803245
 20
1.517708
 30
0.0
 10
90.995480
 20
1.592130
 30
0.0
 10
91.229886
 20
1.636806
 30
0.0
 10
91.506461
 20
1.651763
 30
0.0
 10
92.935211
 20
1.651763
 30
0.0
 10
94.363961
 20
1.651763
 30
0.0
 10
95.792711
 20
1.651763
 30
0.0
 10
97.221461
 20
1.651763
 30
0.0
 10
97.221461
 20
6.622628
 30
0.0
 10
97.221461
 20
11.593464
 30
0.0
 10
97.221461
 20
16.564335
 30
0.0
 10
97.221461
 20
21.535194
 30
0.0
 10
95.792711
 20
21.535194
 30
0.0
 10
94.363961
 20
21.535194
 30
0.0
 10
92.935211
 20
21.535194
 30
0.0
 10
91.506461
 20
21.535194
 30
0.0
 10
91.229886
 20
21.548825
 30
0.0
 10
90.995480
 20
21.589750
 30
0.0
 10
90.803245
 20
21.657966
 30
0.0
 10
90.653179
 20
21.753476
 30
0.0
 10
90.540315
 20
21.881207
 30
0.0
 10
90.459701
 20
22.026311
 30
0.0
 10
90.411331
 20
22.188787
 30
0.0
 10
90.395216
 20
22.368633
 30
0.0
 10
90.411331
 20
22.547214
 30
0.0
 10
90.459701
 20
22.705959
 30
0.0
 10
90.540315
 20
22.844869
 30
0.0
 10
90.653179
 20
22.963944
 30
0.0
 10
90.803245
 20
23.068112
 30
0.0
 10
90.995480
 20
23.142520
 30
0.0
 10
91.229886
 20
23.187173
 30
0.0
 10
91.506461
 20
23.202074
 30
0.0
 10
94.780679
 20
23.202074
 30
0.0
 10
98.054899
 20
23.202074
 30
0.0
 10
101.329117
 20
23.202074
 30
0.0
 10
104.603336
 20
23.202074
 30
0.0
 10
104.879896
 20
23.187173
 30
0.0
 10
105.114299
 20
23.142520
 30
0.0
 10
105.306537
 20
23.068112
 30
0.0
 10
105.456617
 20
22.963944
 30
0.0
 10
105.569467
 20
22.844869
 30
0.0
 10
105.650078
 20
22.705959
 30
0.0
 10
105.698451
 20
22.547214
 30
0.0
 10
105.714594
 20
22.368633
 30
0.0
 10
105.698451
 20
22.188787
 30
0.0
 10
105.650078
 20
22.026311
 30
0.0
 10
105.569467
 20
21.881207
 30
0.0
 10
105.456617
 20
21.753476
 30
0.0
 10
105.306537
 20
21.657966
 30
0.0
 10
105.114299
 20
21.589750
 30
0.0
 10
104.879896
 20
21.548825
 30
0.0
 10
104.603336
 20
21.535194
 30
0.0
 10
103.174586
 20
21.535194
 30
0.0
 10
101.745836
 20
21.535194
 30
0.0
 10
100.317086
 20
21.535194
 30
0.0
 10
98.888336
 20
21.535194
 30
0.0
  0
LWPOLYLINE
  5
109
100
AcDbEntity
  8
Layer_1
 62
7
100
AcDbPolyline
 90
185
 70
0
 10
125.553927
 20
21.535194
 30
0.0
 10
125.553927
 20
21.674101
 30
0.0
 10
125.553927
 20
21.813005
 30
0.0
 10
125.553927
 20
21.951912
 30
0.0
 10
125.553927
 20
22.090819
 30
0.0
 10
125.567559
 20
22.367380
 30
0.0
 10
125.608484
 20
22.601779
 30
0.0
 10
125.676700
 20
22.794021
 30
0.0
 10
125.772206
 20
22.944101
 30
0.0
 10
125.899940
 20
23.056947
 30
0.0
 10
126.045045
 20
23.137558
 30
0.0
 10
126.207520
 20
23.185934
 30
0.0
 10
126.387363
 20
23.202077
 30
0.0
 10
126.565948
 20
23.185934
 30
0.0
 10
126.724692
 20
23.137558
 30
0.0
 10
126.863602
 20
23.056947
 30
0.0
 10
126.982677
 20
22.944101
 30
0.0
 10
127.086845
 20
22.794021
 30
0.0
 10
127.161256
 20
22.601779
 30
0.0
 10
127.205909
 20
22.367380
 30
0.0
 10
127.220811
 20
22.090819
 30
0.0
 10
127.220811
 20
21.029178
 30
0.0
 10
127.220811
 20
19.967540
 30
0.0
 10
127.220811
 20
18.905899
 30
0.0
 10
127.220811
 20
17.844258
 30
0.0
 10
127.205909
 20
17.567677
 30
0.0
 10
127.161256
 20
17.333269
 30
0.0
 10
127.086845
 20
17.141036
 30
0.0
 10
126.982677
 20
16.990976
 30
0.0
 10
126.863602
 20
16.878107
 30
0.0
 10
126.724692
 20
16.797487
 30
0.0
 10
126.565948
 20
16.749123
 30
0.0
 10
126.387363
 20
16.733008
 30
0.0
 10
126.216201
 20
16.747881
 30
0.0
 10
126.059929
 20
16.792526
 30
0.0
 10
125.918544
 20
16.866945
 30
0.0
 10
125.792052
 20
16.971133
 30
0.0
 10
125.695304
 20
17.108789
 30
0.0
 10
125.623365
 20
17.283660
 30
0.0
 10
125.576243
 20
17.495741
 30
0.0
 10
125.553919
 20
17.745040
 30
0.0
 10
125.408800
 20
18.557382
 30
0.0
 10
125.072693
 20
19.327564
 30
0.0
 10
124.545598
 20
20.055585
 30
0.0
 10
123.827512
 20
20.741444
 30
0.0
 10
122.960579
 20
21.323101
 30
0.0
 10
121.967151
 20
21.738577
 30
0.0
 10
120.847220
 20
21.987867
 30
0.0
 10
119.600794
 20
22.070976
 30
0.0
 10
118.292341
 20
21.981667
 30
0.0
 10
117.125279
 20
21.713770
 30
0.0
 10
116.099604
 20
21.267292
 30
0.0
 10
115.215323
 20
20.642226
 30
0.0
 10
114.503426
 20
19.905516
 30
0.0
 10
113.994929
 20
19.104321
 30
0.0
 10
113.689833
 20
18.238641
 30
0.0
 10
113.588137
 20
17.308476
 30
0.0
 10
113.616658
 20
16.823533
 30
0.0
 10
113.702234
 20
16.360923
 30
0.0
 10
113.844863
 20
15.920645
 30
0.0
 10
114.044544
 20
15.502694
 30
0.0
 10
114.291347
 20
15.114494
 30
0.0
 10
114.575359
 20
14.763497
 30
0.0
 10
114.896578
 20
14.449723
 30
0.0
 10
115.255012
 20
14.173173
 30
0.0
 10
115.644442
 20
13.936276
 30
0.0
 10
116.058676
 20
13.721702
 30
0.0
 10
116.497721
 20
13.529481
 30
0.0
 10
116.961573
 20
13.359583
 30
0.0
 10
117.504791
 20
13.208255
 30
0.0
 10
118.181955
 20
13.051989
 30
0.0
 10
118.993073
 20
12.890755
 30
0.0
 10
119.938137
 20
12.724583
 30
0.0
 10
121.503305
 20
12.445522
 30
0.0
 10
122.805548
 20
12.163977
 30
0.0
 10
123.844866
 20
11.879948
 30
0.0
 10
124.621262
 20
11.593464
 30
0.0
 10
125.431124
 20
11.169313
 30
0.0
 10
126.134334
 20
10.670739
 30
0.0
 10
126.730890
 20
10.097743
 30
0.0
 10
127.220794
 20
9.450354
 30
0.0
 10
127.611457
 20
8.734723
 30
0.0
 10
127.890504
 20
7.957116
 30
0.0
 10
128.057941
 20
7.117476
 30
0.0
 10
128.113762
 20
6.215833
 30
0.0
 10
127.971124
 20
4.839153
 30
0.0
 10
127.543238
 20
3.566669
 30
0.0
 10
126.830108
 20
2.398382
 30
0.0
 10
125.831730
 20
1.334263
 30
0.0
 10
124.591487
 20
0.457399
 30
0.0
 10
123.152812
 20
-0.168909
 30
0.0
 10
121.515705
 20
-0.544716
 30
0.0
 10
119.680169
 20
-0.669966
 30
0.0
 10
117.616413
 20
-0.500040
 30
0.0
 10
115.770942
 20
0.009682
 30
0.0
 10
114.143756
 20
0.859255
 30
0.0
 10
112.734855
 20
2.048624
 30
0.0
 10
112.734855
 20
1.810485
 30
0.0
 10
112.734855
 20
1.572374
 30
0.0
 10
112.734855
 20
1.334235
 30
0.0
 10
112.734855
 20
1.096124
 30
0.0
 10
112.719953
 20
0.819546
 30
0.0
 10
112.675306
 20
0.585161
 30
0.0
 10
112.600892
 20
0.392911
 30
0.0
 10
112.496716
 20
0.242854
 30
0.0
 10
112.377652
 20
0.129993
 30
0.0
 10
112.238742
 20
0.049362
 30
0.0
 10
112.079995
 20
0.000989
 30
0.0
 10
111.901405
 20
-0.015098
 30
0.0
 10
111.730248
 20
0.000989
 30
0.0
 10
111.573979
 20
0.049362
 30
0.0
 10
111.432594
 20
0.129993
 30
0.0
 10
111.306091
 20
0.242854
 30
0.0
 10
111.201908
 20
0.392911
 30
0.0
 10
111.127495
 20
0.585161
 30
0.0
 10
111.082847
 20
0.819546
 30
0.0
 10
111.067974
 20
1.096124
 30
0.0
 10
111.067974
 20
2.247055
 30
0.0
 10
111.067974
 20
3.397985
 30
0.0
 10
111.067974
 20
4.548944
 30
0.0
 10
111.067974
 20
5.699874
 30
0.0
 10
111.081606
 20
5.985116
 30
0.0
 10
111.122531
 20
6.225739
 30
0.0
 10
111.190744
 20
6.421686
 30
0.0
 10
111.286245
 20
6.573013
 30
0.0
 10
111.413987
 20
6.685874
 30
0.0
 10
111.559094
 20
6.766477
 30
0.0
 10
111.721564
 20
6.814850
 30
0.0
 10
111.901402
 20
6.830936
 30
0.0
 10
112.071311
 20
6.815978
 30
0.0
 10
112.223858
 20
6.771331
 30
0.0
 10
112.359045
 20
6.696909
 30
0.0
 10
112.476870
 20
6.592741
 30
0.0
 10
112.582285
 20
6.455073
 30
0.0
 10
112.660422
 20
6.280208
 30
0.0
 10
112.711272
 20
6.068118
 30
0.0
 10
112.734838
 20
5.818831
 30
0.0
 10
112.893585
 20
4.925852
 30
0.0
 10
113.270614
 20
4.072581
 30
0.0
 10
113.865928
 20
3.258991
 30
0.0
 10
114.679527
 20
2.485081
 30
0.0
 10
115.691553
 20
1.833966
 30
0.0
 10
116.862332
 20
1.368892
 30
0.0
 10
118.191864
 20
1.089831
 30
0.0
 10
119.680152
 20
0.996810
 30
0.0
 10
121.164703
 20
1.094798
 30
0.0
 10
122.483070
 20
1.388732
 30
0.0
 10
123.635251
 20
1.878614
 30
0.0
 10
124.621245
 20
2.564470
 30
0.0
 10
125.419945
 20
3.384269
 30
0.0
 10
125.990449
 20
4.275978
 30
0.0
 10
126.332756
 20
5.239654
 30
0.0
 10
126.446870
 20
6.275241
 30
0.0
 10
126.403450
 20
6.911482
 30
0.0
 10
126.273221
 20
7.510499
 30
0.0
 10
126.056184
 20
8.072347
 30
0.0
 10
125.752338
 20
8.596970
 30
0.0
 10
125.362894
 20
9.085610
 30
0.0
 10
124.889122
 20
9.519696
 30
0.0
 10
124.331019
 20
9.899200
 30
0.0
 10
123.688588
 20
10.224150
 30
0.0
 10
123.083345
 20
10.438696
 30
0.0
 10
122.220141
 20
10.665659
 30
0.0
 10
121.098970
 20
10.905040
 30
0.0
 10
119.719838
 20
11.156810
 30
0.0
 10
117.791270
 20
11.549946
 30
0.0
 10
116.152919
 20
12.034888
 30
0.0
 10
114.804785
 20
12.611581
 30
0.0
 10
113.746870
 20
13.280081
 30
0.0
 10
112.948158
 20
14.070106
 30
0.0
 10
112.377649
 20
15.011446
 30
0.0
 10
112.035344
 20
16.104090
 30
0.0
 10
111.921245
 20
17.348052
 30
0.0
 10
112.051471
 20
18.611840
 30
0.0
 10
112.442142
 20
19.783858
 30
0.0
 10
113.093266
 20
20.864103
 30
0.0
 10
114.004838
 20
21.852581
 30
0.0
 10
115.139648
 20
22.677325
 30
0.0
 10
116.440653
 20
23.266432
 30
0.0
 10
117.907850
 20
23.619902
 30
0.0
 10
119.541245
 20
23.737738
 30
0.0
 10
121.226715
 20
23.600059
 30
0.0
 10
122.790647
 20
23.187057
 30
0.0
 10
124.233043
 20
22.498731
 30
0.0
 10
125.553902
 20
21.535081
 30
0.0
  0
LWPOLYLINE
  5
10a
100
AcDbEntity
  8
Layer_1
 62
7
100
AcDbPolyline
 90
209
 70
0
 10
146.782330
 20
11.216444
 30
0.0
 10
144.019087
 20
11.216444
 30
0.0
 10
141.255843
 20
11.216444
 30
0.0
 10
138.492603
 20
11.216444
 30
0.0
 10
135.729359
 20
11.216444
 30
0.0
 10
135.729359
 20
8.825260
 30
0.0
 10
135.729359
 20
6.434104
 30
0.0
 10
135.729359
 20
4.042919
 30
0.0
 10
135.729359
 20
1.651763
 30
0.0
 10
136.289946
 20
1.651763
 30
0.0
 10
136.850532
 20
1.651763
 30
0.0
 10
137.411119
 20
1.651763
 30
0.0
 10
137.971705
 20
1.651763
 30
0.0
 10
138.248271
 20
1.636806
 30
0.0
 10
138.482674
 20
1.592130
 30
0.0
 10
138.674910
 20
1.517708
 30
0.0
 10
138.824984
 20
1.413540
 30
0.0
 10
138.937839
 20
1.294470
 30
0.0
 10
139.018453
 20
1.155588
 30
0.0
 10
139.066826
 20
0.996838
 30
0.0
 10
139.082969
 20
0.818248
 30
0.0
 10
139.066826
 20
0.647080
 30
0.0
 10
139.018453
 20
0.490814
 30
0.0
 10
138.937839
 20
0.349421
 30
0.0
 10
138.824984
 20
0.222929
 30
0.0
 10
138.674910
 20
0.118760
 30
0.0
 10
138.482674
 20
0.044338
 30
0.0
 10
138.248271
 20
-0.000337
 30
0.0
 10
137.971705
 20
-0.015295
 30
0.0
 10
136.523112
 20
-0.015295
 30
0.0
 10
135.074519
 20
-0.015295
 30
0.0
 10
133.625923
 20
-0.015295
 30
0.0
 10
132.177330
 20
-0.015295
 30
0.0
 10
131.900755
 20
-0.000337
 30
0.0
 10
131.666353
 20
0.044338
 30
0.0
 10
131.474117
 20
0.118760
 30
0.0
 10
131.324048
 20
0.222929
 30
0.0
 10
131.211187
 20
0.349421
 30
0.0
 10
131.130571
 20
0.490814
 30
0.0
 10
131.082201
 20
0.647080
 30
0.0
 10
131.066086
 20
0.818248
 30
0.0
 10
131.082201
 20
0.996838
 30
0.0
 10
131.130571
 20
1.155588
 30
0.0
 10
131.211185
 20
1.294470
 30
0.0
 10
131.324048
 20
1.413540
 30
0.0
 10
131.474117
 20
1.517708
 30
0.0
 10
131.666353
 20
1.592130
 30
0.0
 10
131.900755
 20
1.636806
 30
0.0
 10
132.177330
 20
1.651763
 30
0.0
 10
132.648619
 20
1.651763
 30
0.0
 10
133.119907
 20
1.651763
 30
0.0
 10
133.591196
 20
1.651763
 30
0.0
 10
134.062484
 20
1.651763
 30
0.0
 10
134.062484
 20
6.622628
 30
0.0
 10
134.062484
 20
11.593464
 30
0.0
 10
134.062484
 20
16.564335
 30
0.0
 10
134.062484
 20
21.535194
 30
0.0
 10
133.804516
 20
21.535194
 30
0.0
 10
133.546548
 20
21.535194
 30
0.0
 10
133.288577
 20
21.535194
 30
0.0
 10
133.030609
 20
21.535194
 30
0.0
 10
132.745356
 20
21.548825
 30
0.0
 10
132.504750
 20
21.589750
 30
0.0
 10
132.308792
 20
21.657966
 30
0.0
 10
132.157484
 20
21.753476
 30
0.0
 10
132.044621
 20
21.881207
 30
0.0
 10
131.964007
 20
22.026311
 30
0.0
 10
131.915637
 20
22.188787
 30
0.0
 10
131.899522
 20
22.368633
 30
0.0
 10
131.915637
 20
22.547214
 30
0.0
 10
131.964007
 20
22.705959
 30
0.0
 10
132.044621
 20
22.844869
 30
0.0
 10
132.157484
 20
22.963944
 30
0.0
 10
132.308792
 20
23.068112
 30
0.0
 10
132.504750
 20
23.142520
 30
0.0
 10
132.745356
 20
23.187173
 30
0.0
 10
133.030609
 20
23.202074
 30
0.0
 10
134.265884
 20
23.202074
 30
0.0
 10
135.501157
 20
23.202074
 30
0.0
 10
136.736430
 20
23.202074
 30
0.0
 10
137.971705
 20
23.202074
 30
0.0
 10
138.248271
 20
23.187173
 30
0.0
 10
138.482674
 20
23.142520
 30
0.0
 10
138.674910
 20
23.068112
 30
0.0
 10
138.824984
 20
22.963944
 30
0.0
 10
138.937839
 20
22.844869
 30
0.0
 10
139.018453
 20
22.705959
 30
0.0
 10
139.066826
 20
22.547214
 30
0.0
 10
139.082969
 20
22.368633
 30
0.0
 10
139.066826
 20
22.188787
 30
0.0
 10
139.018453
 20
22.026311
 30
0.0
 10
138.937839
 20
21.881207
 30
0.0
 10
138.824984
 20
21.753476
 30
0.0
 10
138.674910
 20
21.657966
 30
0.0
 10
138.482674
 20
21.589750
 30
0.0
 10
138.248271
 20
21.548825
 30
0.0
 10
137.971705
 20
21.535194
 30
0.0
 10
137.411119
 20
21.535194
 30
0.0
 10
136.850532
 20
21.535194
 30
0.0
 10
136.289946
 20
21.535194
 30
0.0
 10
135.729359
 20
21.535194
 30
0.0
 10
135.729359
 20
19.372229
 30
0.0
 10
135.729359
 20
17.209263
 30
0.0
 10
135.729359
 20
15.046298
 30
0.0
 10
135.729359
 20
12.883333
 30
0.0
 10
138.492603
 20
12.883333
 30
0.0
 10
141.255843
 20
12.883333
 30
0.0
 10
144.019087
 20
12.883333
 30
0.0
 10
146.782330
 20
12.883333
 30
0.0
 10
146.782330
 20
15.046298
 30
0.0
 10
146.782330
 20
17.209263
 30
0.0
 10
146.782330
 20
19.372229
 30
0.0
 10
146.782330
 20
21.535194
 30
0.0
 10
146.226705
 20
21.535194
 30
0.0
 10
145.671080
 20
21.535194
 30
0.0
 10
145.115455
 20
21.535194
 30
0.0
 10
144.559830
 20
21.535194
 30
0.0
 10
144.283249
 20
21.548825
 30
0.0
 10
144.048841
 20
21.589750
 30
0.0
 10
143.856608
 20
21.657966
 30
0.0
 10
143.706548
 20
21.753476
 30
0.0
 10
143.593679
 20
21.881207
 30
0.0
 10
143.513062
 20
22.026311
 30
0.0
 10
143.464695
 20
22.188787
 30
0.0
 10
143.448580
 20
22.368633
 30
0.0
 10
143.463453
 20
22.547214
 30
0.0
 10
143.508098
 20
22.705959
 30
0.0
 10
143.582514
 20
22.844869
 30
0.0
 10
143.686702
 20
22.963944
 30
0.0
 10
143.838001
 20
23.068112
 30
0.0
 10
144.033957
 20
23.142520
 30
0.0
 10
144.274565
 20
23.187173
 30
0.0
 10
144.559827
 20
23.202074
 30
0.0
 10
145.795100
 20
23.202074
 30
0.0
 10
147.030372
 20
23.202074
 30
0.0
 10
148.265648
 20
23.202074
 30
0.0
 10
149.500920
 20
23.202074
 30
0.0
 10
149.786162
 20
23.187173
 30
0.0
 10
150.026765
 20
23.142520
 30
0.0
 10
150.222723
 20
23.068112
 30
0.0
 10
150.374045
 20
22.963944
 30
0.0
 10
150.486895
 20
22.844869
 30
0.0
 10
150.567506
 20
22.705959
 30
0.0
 10
150.615879
 20
22.547214
 30
0.0
 10
150.632022
 20
22.368633
 30
0.0
 10
150.615879
 20
22.188787
 30
0.0
 10
150.567506
 20
22.026311
 30
0.0
 10
150.486895
 20
21.881207
 30
0.0
 10
150.374045
 20
21.753476
 30
0.0
 10
150.222723
 20
21.657966
 30
0.0
 10
150.026765
 20
21.589750
 30
0.0
 10
149.786162
 20
21.548825
 30
0.0
 10
149.500920
 20
21.535194
 30
0.0
 10
149.242952
 20
21.535194
 30
0.0
 10
148.984981
 20
21.535194
 30
0.0
 10
148.727013
 20
21.535194
 30
0.0
 10
148.469045
 20
21.535194
 30
0.0
 10
148.469045
 20
16.564335
 30
0.0
 10
148.469045
 20
11.593464
 30
0.0
 10
148.469045
 20
6.622628
 30
0.0
 10
148.469045
 20
1.651763
 30
0.0
 10
148.940334
 20
1.651763
 30
0.0
 10
149.411622
 20
1.651763
 30
0.0
 10
149.882914
 20
1.651763
 30
0.0
 10
150.354202
 20
1.651763
 30
0.0
 10
150.630763
 20
1.636806
 30
0.0
 10
150.865163
 20
1.592130
 30
0.0
 10
151.057401
 20
1.517708
 30
0.0
 10
151.207481
 20
1.413540
 30
0.0
 10
151.320331
 20
1.294470
 30
0.0
 10
151.400942
 20
1.155588
 30
0.0
 10
151.449318
 20
0.996838
 30
0.0
 10
151.465461
 20
0.818248
 30
0.0
 10
151.449318
 20
0.647080
 30
0.0
 10
151.400942
 20
0.490814
 30
0.0
 10
151.320331
 20
0.349421
 30
0.0
 10
151.207481
 20
0.222929
 30
0.0
 10
151.057401
 20
0.118760
 30
0.0
 10
150.865160
 20
0.044338
 30
0.0
 10
150.630760
 20
-0.000337
 30
0.0
 10
150.354202
 20
-0.015295
 30
0.0
 10
148.905609
 20
-0.015295
 30
0.0
 10
147.457016
 20
-0.015295
 30
0.0
 10
146.008420
 20
-0.015295
 30
0.0
 10
144.559827
 20
-0.015295
 30
0.0
 10
144.283247
 20
-0.000337
 30
0.0
 10
144.048838
 20
0.044338
 30
0.0
 10
143.856606
 20
0.118760
 30
0.0
 10
143.706545
 20
0.222929
 30
0.0
 10
143.593676
 20
0.349421
 30
0.0
 10
143.513059
 20
0.490814
 30
0.0
 10
143.464692
 20
0.647080
 30
0.0
 10
143.448577
 20
0.818248
 30
0.0
 10
143.463450
 20
0.996838
 30
0.0
 10
143.508095
 20
1.155588
 30
0.0
 10
143.582511
 20
1.294470
 30
0.0
 10
143.686699
 20
1.413540
 30
0.0
 10
143.837999
 20
1.517708
 30
0.0
 10
144.033954
 20
1.592130
 30
0.0
 10
144.274563
 20
1.636806
 30
0.0
 10
144.559824
 20
1.651763
 30
0.0
 10
145.115449
 20
1.651763
 30
0.0
 10
145.671074
 20
1.651763
 30
0.0
 10
146.226699
 20
1.651763
 30
0.0
 10
146.782324
 20
1.651763
 30
0.0
 10
146.782324
 20
4.042919
 30
0.0
 10
146.782324
 20
6.434104
 30
0.0
 10
146.782324
 20
8.825260
 30
0.0
 10
146.782324
 20
11.216444
 30
0.0
  0
ENDSEC
  0
SECTION
  2
OBJECTS
  0
DICTIONARY
  5
C
330
0
100
AcDbDictionary
  3
ACAD_GROUP
350
D
  3
ACAD_MLINESTYLE
350
17
  0
DICTIONARY
  5
D
330
C
100
AcDbDictionary
  0
DICTIONARY
  5
1A
330
C
100
AcDbDictionary
  0
DICTIONARY
  5
17
330
C
100
AcDbDictionary
  3
STANDARD
350
18
  0
DICTIONARY
  5
19
330
C
100
AcDbDictionary
  0
ENDSEC
  0
EOF
