<?xml version="1.0" encoding="UTF-8" standalone="no"?>
<!-- Created with Inkscape (http://www.inkscape.org/) -->

<svg
   xmlns:dc="http://purl.org/dc/elements/1.1/"
   xmlns:cc="http://creativecommons.org/ns#"
   xmlns:rdf="http://www.w3.org/1999/02/22-rdf-syntax-ns#"
   xmlns:svg="http://www.w3.org/2000/svg"
   xmlns="http://www.w3.org/2000/svg"
   xmlns:sodipodi="http://sodipodi.sourceforge.net/DTD/sodipodi-0.dtd"
   xmlns:inkscape="http://www.inkscape.org/namespaces/inkscape"
   width="744.09448819"
   height="1052.3622047"
   id="svg2"
   version="1.1"
   inkscape:version="0.48.5 r10040"
   sodipodi:docname="abolish.svg">
  <defs
     id="defs4" />
  <sodipodi:namedview
     id="base"
     pagecolor="#ffffff"
     bordercolor="#666666"
     borderopacity="1.0"
     inkscape:pageopacity="0.0"
     inkscape:pageshadow="2"
     inkscape:zoom="1.979899"
     inkscape:cx="160.30493"
     inkscape:cy="125.81581"
     inkscape:document-units="px"
     inkscape:current-layer="layer1"
     showgrid="false"
     inkscape:window-width="1280"
     inkscape:window-height="784"
     inkscape:window-x="0"
     inkscape:window-y="0"
     inkscape:window-maximized="0" />
  <metadata
     id="metadata7">
    <rdf:RDF>
      <cc:Work
         rdf:about="">
        <dc:format>image/svg+xml</dc:format>
        <dc:type
           rdf:resource="http://purl.org/dc/dcmitype/StillImage" />
        <dc:title></dc:title>
      </cc:Work>
    </rdf:RDF>
  </metadata>
  <g
     inkscape:label="Layer 1"
     inkscape:groupmode="layer"
     id="layer1">
    <g
       style="font-size:40px;font-style:normal;font-weight:normal;line-height:125%;letter-spacing:0px;word-spacing:0px;fill:#000000;fill-opacity:1;stroke:none;font-family:Sans"
       id="text2985">
      <path
         d="m 62.648438,1016.2986 -4.851563,0 -4.851562,0 -4.851563,0 -4.851562,0 -4.851563,0 -4.851562,0 -4.851563,0 -4.851562,0 -0.993164,2.6982 -0.993164,2.6983 -0.993164,2.6982 -0.993164,2.6982 -0.993164,2.6983 -0.993164,2.6982 -0.993164,2.6983 -0.993164,2.6982 1.415039,0 1.415039,0 1.415039,0 1.415039,0 1.415039,0 1.415039,0 1.415039,0 1.415039,0 0.508657,0.013 0.471307,0.04 0.433956,0.066 0.396605,0.092 0.359254,0.1186 0.321904,0.1451 0.284553,0.1713 0.247202,0.1978 0.214223,0.2021 0.185662,0.2198 0.1571,0.2373 0.128538,0.2548 0.09998,0.2725 0.07142,0.29 0.04285,0.3076 0.01429,0.3252 -0.01429,0.3098 -0.04285,0.2967 -0.07142,0.2834 -0.09998,0.2703 -0.128538,0.2571 -0.1571,0.2439 -0.185662,0.2307 -0.214223,0.2175 -0.247202,0.1978 -0.284553,0.1713 -0.321904,0.1451 -0.359254,0.1186 -0.396605,0.092 -0.433956,0.066 -0.471307,0.039 -0.508657,0.013 -2.759766,0 -2.759765,0 -2.759766,0 -2.759766,0 -2.759765,0 -2.759766,0 -2.7597654,0 -2.7597656,0 -0.5086682,-0.013 -0.4713142,-0.039 -0.4339604,-0.066 -0.3966065,-0.092 -0.3592527,-0.1186 -0.3218989,-0.1451 -0.2845451,-0.1713 -0.2471915,-0.1978 -0.2142333,-0.2175 -0.185669,-0.2307 -0.1571047,-0.2439 -0.1285402,-0.2571 -0.099976,-0.2703 -0.071411,-0.2834 -0.042847,-0.2967 -0.014282,-0.3098 0.014282,-0.3252 0.042847,-0.3076 0.071411,-0.29 0.099975,-0.2725 0.1285398,-0.2548 0.1571044,-0.2373 0.185669,-0.2198 0.2142338,-0.2021 0.2471915,-0.1978 0.2845451,-0.1713 0.3218989,-0.1451 0.3592527,-0.1186 0.3966065,-0.092 0.4339604,-0.066 0.4713142,-0.04 0.5086682,-0.013 0.5712891,0 0.571289,0 0.5712891,0 0.571289,0 0.5712891,0 0.5712891,0 0.571289,0 0.5712891,0 3.2607425,-8.8066 3.260742,-8.8067 3.260742,-8.8066 3.260742,-8.8067 3.260742,-8.80659 3.260743,-8.80664 3.260742,-8.80663 3.260742,-8.80664 -2.179688,0 -2.179687,0 -2.179688,0 -2.179687,0 -2.179688,0 -2.179687,0 -2.179688,0 -2.179687,0 -0.508673,-0.0121 -0.471317,-0.0362 -0.433962,-0.0604 -0.396607,-0.0846 -0.359252,-0.10876 -0.321897,-0.13295 -0.284542,-0.15712 -0.247187,-0.1813 -0.214238,-0.2186 -0.185673,-0.23399 -0.157106,-0.24938 -0.128541,-0.26477 -0.09998,-0.28016 -0.07141,-0.29554 -0.04284,-0.31093 -0.01428,-0.32632 0.01428,-0.32517 0.04284,-0.3076 0.07141,-0.29002 0.09998,-0.27246 0.128541,-0.25489 0.157106,-0.23731 0.185673,-0.21975 0.214238,-0.20217 0.247187,-0.19773 0.284542,-0.17137 0.321897,-0.145 0.359252,-0.11865 0.396607,-0.0923 0.433962,-0.0659 0.471317,-0.0396 0.508673,-0.0132 3.717773,0 3.717774,0 3.717773,0 3.717774,0 3.717773,0 3.717774,0 3.717773,0 3.717774,0 3.603516,9.54492 3.603515,9.54492 3.603516,9.54492 3.603515,9.54491 3.603516,9.54488 3.603516,9.545 3.603515,9.5449 3.603516,9.5449 0.571289,0 0.571289,0 0.571289,0 0.571289,0 0.571289,0 0.571289,0 0.571289,0 0.571289,0 0.50864,0.013 0.471294,0.04 0.433948,0.066 0.396602,0.092 0.359257,0.1186 0.321912,0.1451 0.284565,0.1713 0.24722,0.1978 0.214205,0.2021 0.185649,0.2198 0.157092,0.2373 0.128537,0.2548 0.09998,0.2725 0.07142,0.29 0.04287,0.3076 0.01431,0.3252 -0.01431,0.3098 -0.04287,0.2967 -0.07142,0.2834 -0.09998,0.2703 -0.128537,0.2571 -0.157092,0.2439 -0.185649,0.2307 -0.214205,0.2175 -0.24722,0.1978 -0.284565,0.1713 -0.321912,0.1451 -0.359257,0.1186 -0.396602,0.092 -0.433948,0.066 -0.471294,0.039 -0.50864,0.013 -2.750977,0 -2.750976,0 -2.750976,0 -2.750977,0 -2.750977,0 -2.750976,0 -2.750977,0 -2.750976,0 -0.525165,-0.013 -0.48561,-0.039 -0.446053,-0.066 -0.406496,-0.092 -0.366941,-0.1186 -0.327384,-0.1451 -0.287829,-0.1713 -0.248272,-0.1978 -0.214252,-0.2175 -0.185682,-0.2307 -0.157112,-0.2439 -0.128543,-0.2571 -0.09997,-0.2703 -0.0714,-0.2834 -0.04283,-0.2967 -0.01426,-0.3098 0.01426,-0.3252 0.04283,-0.3076 0.0714,-0.29 0.09997,-0.2725 0.128543,-0.2548 0.157112,-0.2373 0.185682,-0.2198 0.214252,-0.2021 0.248272,-0.1978 0.287829,-0.1713 0.327384,-0.1451 0.366941,-0.1186 0.406496,-0.092 0.446053,-0.066 0.48561,-0.04 0.525165,-0.013 1.40625,0 1.40625,0 1.40625,0 1.40625,0 1.40625,0 1.40625,0 1.40625,0 1.40625,0 -1.010742,-2.6982 -1.010743,-2.6983 -1.010742,-2.6982 -1.010742,-2.6983 -1.010742,-2.6982 -1.010743,-2.6982 -1.010742,-2.6983 -1.010742,-2.6982 m -2.25,-5.9063 -2.039063,-5.3701 -2.039062,-5.37013 -2.039063,-5.37011 -2.039062,-5.37011 -2.039063,-5.37011 -2.039062,-5.37012 -2.039063,-5.37011 -2.039062,-5.37011 -0.272461,0 -0.272461,0 -0.272461,0 -0.272461,0 -0.27246,0 -0.272461,0 -0.272461,0 -0.272461,0 -1.977539,5.37011 -1.977539,5.37011 -1.977539,5.37012 -1.97754,5.37011 -1.977539,5.37011 -1.977539,5.37011 -1.977539,5.37013 -1.977539,5.3701 4.289062,0 4.289063,0 4.289062,0 4.289063,0 4.289062,0 4.289063,0 4.289062,0 4.289063,0"
         style="font-size:144px;font-variant:normal;font-stretch:normal;font-family:Courier New;-inkscape-font-specification:Courier New"
         id="path3009"
         inkscape:connector-curvature="0"
         sodipodi:nodetypes="cccccccccccccccccccccccccccccccccccccccccccccccccccccccccccccccccccccccccccccccccccccccccccccccccccccccccccccccccccccccccccccccccccccccccccccccccccccccccccccccccccccccccccccccccccccccccccccccccccccccccccccccccccccccccccccccccccccccccccccccccccccccccccccccccccccccccccccccccccccccccccccccccccccccccc" />
      <path
         d="m 104.34375,1037.8845 0,-8.8066 0,-8.8067 0,-8.8066 0,-8.8067 0,-8.80659 0,-8.80664 0,-8.80663 0,-8.80664 -0.99316,0 -0.99317,0 -0.99316,0 -0.99317,0 -0.99316,0 -0.993164,0 -0.993164,0 -0.993164,0 -0.50867,-0.0121 -0.471315,-0.0362 -0.433961,-0.0604 -0.396607,-0.0846 -0.359252,-0.10876 -0.321898,-0.13295 -0.284544,-0.15712 -0.24719,-0.1813 -0.214236,-0.2186 -0.18567,-0.23399 -0.157106,-0.24938 -0.12854,-0.26477 -0.09998,-0.28016 -0.07141,-0.29554 -0.04284,-0.31093 -0.01428,-0.32632 0.01428,-0.32517 0.04284,-0.3076 0.07141,-0.29002 0.09998,-0.27246 0.12854,-0.25489 0.157106,-0.23731 0.18567,-0.21975 0.214236,-0.20217 0.24719,-0.19773 0.284544,-0.17137 0.321898,-0.145 0.359252,-0.11865 0.396607,-0.0923 0.433961,-0.0659 0.471315,-0.0396 0.50867,-0.0132 4.640622,0 4.64063,0 4.64062,0 4.64063,0 4.64062,0 4.64063,0 4.64062,0 4.64063,0 2.69493,0.1 2.56529,0.29995 2.43566,0.49989 2.30603,0.69983 2.1764,0.89977 2.04676,1.09972 1.91712,1.29966 1.7875,1.49961 1.63144,1.61721 1.41393,1.68752 1.1964,1.75782 0.97887,1.82813 0.76136,1.89843 0.54383,1.96874 0.32631,2.03905 0.10879,2.10935 -0.1813,2.64223 -0.54384,2.51259 -0.90638,2.38294 -1.26892,2.25329 -1.63147,2.12365 -1.994,1.994 -2.35656,1.86436 -2.71909,1.73471 2.22581,0.8603 2.072,0.9283 1.91821,0.9965 1.7644,1.0646 1.61059,1.1327 1.4568,1.2008 1.303,1.2689 1.14919,1.337 1.00522,1.3887 0.8712,1.4238 0.73717,1.459 0.60315,1.4941 0.46912,1.5293 0.33509,1.5645 0.20107,1.5996 0.067,1.6348 -0.044,1.4612 -0.13185,1.4304 -0.21974,1.3996 -0.30762,1.3689 -0.3955,1.3382 -0.48339,1.3073 -0.57127,1.2766 -0.65916,1.2459 -0.75039,1.1909 -0.84486,1.147 -0.93934,1.103 -1.03382,1.0591 -1.12829,1.0151 -1.22277,0.9712 -1.31724,0.9273 -1.41172,0.8833 -1.45791,0.8075 -1.49086,0.6998 -1.52381,0.5922 -1.55677,0.4845 -1.58972,0.3768 -1.62267,0.2692 -1.65562,0.1615 -1.68858,0.054 -5.51953,0 -5.51953,0 -5.51953,0 -5.51954,0 -5.51953,0 -5.51953,0 -5.51953,0 -5.519532,0 -0.50867,-0.013 -0.471315,-0.039 -0.433961,-0.066 -0.396607,-0.092 -0.359252,-0.1186 -0.321898,-0.1451 -0.284544,-0.1713 -0.24719,-0.1978 -0.214234,-0.2175 -0.185669,-0.2307 -0.157106,-0.2439 -0.12854,-0.2571 -0.09998,-0.2703 -0.07141,-0.2834 -0.04284,-0.2967 -0.01428,-0.3098 0.01428,-0.3252 0.04284,-0.3076 0.07141,-0.29 0.09998,-0.2725 0.12854,-0.2548 0.157106,-0.2373 0.18567,-0.2198 0.214236,-0.2021 0.24719,-0.1978 0.284544,-0.1713 0.321898,-0.1451 0.359252,-0.1186 0.396607,-0.092 0.433961,-0.066 0.471315,-0.04 0.50867,-0.013 0.993164,0 0.993164,0 0.993164,0 0.99316,0 0.99317,0 0.99316,0 0.99317,0 0.99316,0 m 5.90625,-39.79685 2.61035,0 2.61035,0 2.61035,0 2.61036,0 2.61035,0 2.61035,0 2.61035,0 2.61035,0 1.65233,-0.0385 1.61718,-0.11534 1.58202,-0.19225 1.54687,-0.26916 1.51172,-0.34608 1.47657,-0.42297 1.44142,-0.49989 1.40627,-0.5768 1.04258,-0.51964 0.98326,-0.57457 0.92394,-0.62951 0.86462,-0.68445 0.8053,-0.73938 0.74599,-0.79432 0.68666,-0.84925 0.62734,-0.90419 0.56028,-0.93382 0.48558,-0.93822 0.41088,-0.94262 0.33617,-0.94702 0.26148,-0.95142 0.18678,-0.95581 0.11207,-0.96022 0.0374,-0.96462 -0.0813,-1.37437 -0.24391,-1.34581 -0.40651,-1.31725 -0.56909,-1.2887 -0.73169,-1.26013 -0.89427,-1.23158 -1.05687,-1.20302 -1.21946,-1.17446 -1.35024,-1.1041 -1.44911,-0.95689 -1.54798,-0.80968 -1.64685,-0.66248 -1.74573,-0.51526 -1.8446,-0.36805 -1.94347,-0.22084 -2.04234,-0.0736 -2.92676,0 -2.92676,0 -2.92675,0 -2.92676,0 -2.92676,0 -2.92676,0 -2.92675,0 -2.92676,0 0,3.83203 0,3.83203 0,3.83203 0,3.83203 0,3.83204 0,3.83203 0,3.83203 0,3.83203 m 0,39.79685 3.73535,0 3.73535,0 3.73535,0 3.73535,0 3.73536,0 3.73535,0 3.73535,0 3.73535,0 1.40074,-0.039 1.3546,-0.1187 1.30846,-0.1977 1.26233,-0.2769 1.21619,-0.3559 1.17005,-0.4351 1.12392,-0.5141 1.07778,-0.5933 1.0228,-0.6515 0.95909,-0.6888 0.89538,-0.7262 0.83166,-0.7636 0.76795,-0.8009 0.70423,-0.8383 0.64052,-0.8756 0.5768,-0.9129 0.51084,-0.936 0.44274,-0.9449 0.37462,-0.9536 0.30652,-0.9624 0.2384,-0.9712 0.1703,-0.98 0.10219,-0.9887 0.0341,-0.9976 -0.0495,-1.1206 -0.14833,-1.1118 -0.24721,-1.103 -0.34607,-1.0943 -0.44494,-1.0854 -0.54381,-1.0767 -0.64269,-1.0679 -0.74155,-1.0591 -0.81191,-1.0228 -0.88881,-0.9591 -0.96571,-0.8953 -1.04261,-0.8317 -1.1195,-0.7679 -1.1964,-0.7043 -1.2733,-0.6405 -1.3502,-0.5768 -1.45461,-0.5109 -1.58644,-0.4427 -1.71826,-0.3746 -1.8501,-0.3066 -1.98193,-0.2384 -2.11376,-0.1703 -2.2456,-0.1021 -2.37742,-0.034 -2.6543,0 -2.6543,0 -2.65429,0 -2.6543,0 -2.6543,0 -2.6543,0 -2.65429,0 -2.6543,0 0,4.2275 0,4.2276 0,4.2275 0,4.2275 0,4.2276 0,4.2275 0,4.2276 0,4.2275"
         style="font-size:144px;font-variant:normal;font-stretch:normal;font-family:Courier New;-inkscape-font-specification:Courier New"
         id="path3011"
         inkscape:connector-curvature="0"
         sodipodi:nodetypes="ccccccccccccccccccccccccccccccccccccccccccccccccccccccccccccccccccccccccccccccccccccccccccccccccccccccccccccccccccccccccccccccccccccccccccccccccccccccccccccccccccccccccccccccccccccccccccccccccccccccccccccccccccccccccccccccccccccccccccccccccccccccccccccccccccccccccccccccccccccccccccccccccccccccccccccccccccc" />
      <path
         d="m 252,1002.8689 -0.0747,2.9268 -0.22414,2.874 -0.37355,2.8213 -0.52295,2.7685 -0.67236,2.7158 -0.82177,2.6631 -0.97117,2.6104 -1.12058,2.5576 -1.25246,2.4445 -1.36672,2.306 -1.48097,2.1676 -1.59521,2.0292 -1.70947,1.8907 -1.82372,1.7523 -1.93798,1.6139 -2.05222,1.4755 -2.11159,1.3184 -2.15113,1.1425 -2.19069,0.9668 -2.23022,0.791 -2.26977,0.6153 -2.30932,0.4394 -2.34887,0.2637 -2.38841,0.088 -3.51564,-0.189 -3.41016,-0.5669 -3.30469,-0.9448 -3.19922,-1.3228 -3.09374,-1.7007 -2.98828,-2.0786 -2.88281,-2.4565 -2.77733,-2.8345 -2.53785,-3.1476 -2.19947,-3.3607 -1.86108,-3.5738 -1.52271,-3.787 -1.18432,-4.0001 -0.84595,-4.2133 -0.50756,-4.4264 -0.16919,-4.6395 0.16919,-4.65489 0.50757,-4.43736 0.84595,-4.21984 1.18432,-4.00232 1.5227,-3.78479 1.86109,-3.56727 2.19946,-3.34975 2.53785,-3.13222 2.77733,-2.83445 2.88281,-2.45652 2.98828,-2.0786 3.09374,-1.70068 3.19922,-1.32276 3.30469,-0.94484 3.41016,-0.56691 3.51564,-0.18899 2.38841,0.0879 2.34887,0.26369 2.30932,0.43946 2.26977,0.61524 2.23022,0.79101 2.19069,0.96679 2.15113,1.14256 2.11159,1.31833 2.03575,1.47549 1.92369,1.6139 1.81163,1.75233 1.69958,1.89075 1.58753,2.02918 1.47547,2.16759 1.36342,2.30601 1.25137,2.44444 1.13706,2.54225 0.98546,2.59938 0.83385,2.6565 0.68224,2.71363 0.53064,2.77074 0.37904,2.82788 0.22744,2.885 0.0758,2.94212 m -5.97656,0 -0.13076,-3.55736 -0.39223,-3.46507 -0.6537,-3.3728 -0.91517,-3.28051 -1.17663,-3.18824 -1.4381,-3.09595 -1.69957,-3.00368 -1.96103,-2.91139 -2.16872,-2.68613 -2.32252,-2.32799 -2.47633,-1.96984 -2.63013,-1.61169 -2.78393,-1.25354 -2.93774,-0.8954 -3.09154,-0.53725 -3.24534,-0.1791 -3.05531,0.17141 -2.94324,0.51418 -2.83118,0.85694 -2.71912,1.19971 -2.60705,1.54248 -2.49499,1.88524 -2.38293,2.22801 -2.27087,2.57078 -2.05994,2.79604 -1.78528,2.93885 -1.51062,3.08168 -1.23597,3.22449 -0.9613,3.3673 -0.68664,3.51013 -0.41198,3.65294 -0.13733,3.79576 0.14392,4.0199 0.43177,3.8331 0.7196,3.6464 1.00744,3.4596 1.29529,3.2728 1.58313,3.0861 1.87097,2.8993 2.15882,2.7125 2.35656,2.439 2.42907,2.1137 2.50158,1.7886 2.57409,1.4634 2.64661,1.1381 2.71912,0.813 2.79163,0.4878 2.86415,0.1626 3.24534,-0.178 3.09154,-0.5339 2.93774,-0.8899 2.78393,-1.2458 2.63013,-1.6018 2.47633,-1.9578 2.32252,-2.3137 2.16872,-2.6697 1.96103,-2.9125 1.69957,-3.0069 1.4381,-3.1014 1.17663,-3.196 0.91517,-3.2904 0.6537,-3.3849 0.39223,-3.4793 0.13076,-3.5739"
         style="font-size:144px;font-variant:normal;font-stretch:normal;font-family:Courier New;-inkscape-font-specification:Courier New"
         id="path3013"
         inkscape:connector-curvature="0"
         sodipodi:nodetypes="cccccccccccccccccccccccccccccccccccccccccccccccccccccccccccccccccccccccccccccccccccccccccccccccccccccccccccccccccccccccccccccccccccccccccccccccccc" />
      <path
         d="m 292.00781,967.4314 0,8.80664 0,8.80664 0,8.80663 0,8.80669 0,8.8066 0,8.8066 0,8.8067 0,8.8066 4.9043,0 4.9043,0 4.90429,0 4.9043,0 4.9043,0 4.90429,0 4.9043,0 4.9043,0 0,-2.9355 0,-2.9356 0,-2.9355 0,-2.9356 0,-2.9355 0,-2.9356 0,-2.9355 0,-2.9356 0.0132,-0.5086 0.0395,-0.4713 0.0659,-0.434 0.0923,-0.3966 0.11866,-0.3592 0.14503,-0.3219 0.1714,-0.2846 0.19778,-0.2472 0.2186,-0.2142 0.23399,-0.1857 0.24938,-0.1571 0.26477,-0.1285 0.28016,-0.1 0.29554,-0.071 0.31093,-0.043 0.32632,-0.014 0.30979,0.014 0.29661,0.043 0.28343,0.071 0.27026,0.1 0.25709,0.1285 0.2439,0.1571 0.23073,0.1857 0.21756,0.2142 0.19773,0.2318 0.17137,0.2736 0.145,0.3153 0.11865,0.3571 0.0923,0.3988 0.0659,0.4405 0.0396,0.4823 0.0132,0.524 0,3.6738 0,3.6739 0,3.6738 0,3.6739 0,3.6738 0,3.6738 0,3.6739 0,3.6738 -8.15625,0 -8.15625,0 -8.15625,0 -8.15625,0 -8.15625,0 -8.15625,0 -8.15625,0 -8.15625,0 -0.50867,-0.013 -0.47132,-0.039 -0.43396,-0.066 -0.3966,-0.092 -0.35926,-0.1186 -0.32189,-0.1451 -0.28455,-0.1713 -0.24719,-0.1978 -0.21423,-0.2175 -0.18567,-0.2307 -0.15711,-0.2439 -0.12854,-0.2571 -0.1,-0.2703 -0.0714,-0.2834 -0.0428,-0.2967 -0.0143,-0.3098 0.0143,-0.3252 0.0428,-0.3076 0.0714,-0.29 0.1,-0.2725 0.12854,-0.2548 0.1571,-0.2373 0.18567,-0.2198 0.21424,-0.2021 0.24719,-0.1978 0.28455,-0.1713 0.32189,-0.1451 0.35926,-0.1186 0.3966,-0.092 0.43396,-0.066 0.47132,-0.04 0.50867,-0.013 1.75781,0 1.75781,0 1.75782,0 1.75781,0 1.75781,0 1.75781,0 1.75782,0 1.75781,0 0,-8.8066 0,-8.8067 0,-8.8066 0,-8.8067 0,-8.80659 0,-8.80664 0,-8.80663 0,-8.80664 -1.75781,0 -1.75782,0 -1.75781,0 -1.75781,0 -1.75781,0 -1.75782,0 -1.75781,0 -1.75781,0 -0.50867,-0.0121 -0.47132,-0.0362 -0.43396,-0.0604 -0.3966,-0.0846 -0.35926,-0.10876 -0.32189,-0.13295 -0.28455,-0.15712 -0.24719,-0.1813 -0.21424,-0.2186 -0.18567,-0.23399 -0.1571,-0.24938 -0.12854,-0.26477 -0.1,-0.28016 -0.0714,-0.29554 -0.0428,-0.31093 -0.0143,-0.32632 0.0143,-0.32517 0.0428,-0.3076 0.0714,-0.29002 0.1,-0.27246 0.12854,-0.25489 0.1571,-0.23731 0.18567,-0.21975 0.21424,-0.20217 0.24719,-0.19773 0.28455,-0.17137 0.32189,-0.145 0.35926,-0.11865 0.3966,-0.0923 0.43396,-0.0659 0.47132,-0.0396 0.50867,-0.0132 4.26269,0 4.2627,0 4.2627,0 4.26269,0 4.2627,0 4.26269,0 4.2627,0 4.26269,0 0.50865,0.0132 0.4713,0.0396 0.43396,0.0659 0.3966,0.0923 0.35926,0.11865 0.32191,0.145 0.28455,0.17137 0.24721,0.19773 0.21422,0.20217 0.18565,0.21975 0.1571,0.23731 0.12854,0.25489 0.1,0.27246 0.0714,0.29002 0.0429,0.3076 0.0143,0.32517 -0.0143,0.32632 -0.0429,0.31093 -0.0714,0.29554 -0.1,0.28016 -0.12854,0.26477 -0.1571,0.24938 -0.18565,0.23399 -0.21422,0.2186 -0.24721,0.1813 -0.28455,0.15712 -0.32191,0.13295 -0.35926,0.10876 -0.3966,0.0846 -0.43396,0.0604 -0.4713,0.0362 -0.50865,0.0121 -1.75781,0 -1.75782,0 -1.75781,0 -1.75781,0 -1.75781,0 -1.75782,0 -1.75781,0 -1.75781,0"
         style="font-size:144px;font-variant:normal;font-stretch:normal;font-family:Courier New;-inkscape-font-specification:Courier New"
         id="path3015"
         inkscape:connector-curvature="0"
         sodipodi:nodetypes="ccccccccccccccccccccccccccccccccccccccccccccccccccccccccccccccccccccccccccccccccccccccccccccccccccccccccccccccccccccccccccccccccccccccccccccccccccccccccccccccccccccccccccccccccccccccccccccccccccccccccccccccccc" />
      <path
         d="m 391.57031,967.4314 0,8.80664 0,8.80664 0,8.80663 0,8.80669 0,8.8066 0,8.8066 0,8.8067 0,8.8066 2.53125,0 2.53125,0 2.53125,0 2.53125,0 2.53125,0 2.53125,0 2.53125,0 2.53125,0 0.50865,0.013 0.4713,0.04 0.43395,0.066 0.3966,0.092 0.35926,0.1186 0.32191,0.1451 0.28456,0.1713 0.24721,0.1978 0.21421,0.2021 0.18565,0.2198 0.1571,0.2373 0.12854,0.2548 0.1,0.2725 0.0714,0.29 0.0429,0.3076 0.0143,0.3252 -0.0143,0.3098 -0.0429,0.2967 -0.0714,0.2834 -0.1,0.2703 -0.12854,0.2571 -0.1571,0.2439 -0.18565,0.2307 -0.21421,0.2175 -0.24721,0.1978 -0.28456,0.1713 -0.32191,0.1451 -0.35926,0.1186 -0.3966,0.092 -0.43395,0.066 -0.4713,0.039 -0.50865,0.013 -5.80078,0 -5.80078,0 -5.80078,0 -5.80079,0 -5.80078,0 -5.80078,0 -5.80078,0 -5.80078,0 -0.50867,-0.013 -0.47132,-0.039 -0.43396,-0.066 -0.39661,-0.092 -0.35925,-0.1186 -0.3219,-0.1451 -0.28454,-0.1713 -0.24718,-0.1978 -0.21424,-0.2175 -0.18568,-0.2307 -0.1571,-0.2439 -0.12854,-0.2571 -0.1,-0.2703 -0.0714,-0.2834 -0.0428,-0.2967 -0.0143,-0.3098 0.0143,-0.3252 0.0428,-0.3076 0.0714,-0.29 0.1,-0.2725 0.12854,-0.2548 0.1571,-0.2373 0.18568,-0.2198 0.21424,-0.2021 0.24718,-0.1978 0.28454,-0.1713 0.3219,-0.1451 0.35925,-0.1186 0.39661,-0.092 0.43396,-0.066 0.47132,-0.04 0.50867,-0.013 2.53125,0 2.53125,0 2.53125,0 2.53125,0 2.53125,0 2.53125,0 2.53125,0 2.53125,0 0,-8.8066 0,-8.8067 0,-8.8066 0,-8.8066 0,-8.80669 0,-8.80663 0,-8.80664 0,-8.80664 -2.53125,0 -2.53125,0 -2.53125,0 -2.53125,0 -2.53125,0 -2.53125,0 -2.53125,0 -2.53125,0 -0.50867,-0.0121 -0.47132,-0.0362 -0.43396,-0.0604 -0.39661,-0.0846 -0.35925,-0.10876 -0.3219,-0.13295 -0.28454,-0.15712 -0.24718,-0.1813 -0.21424,-0.2186 -0.18568,-0.23399 -0.1571,-0.24938 -0.12854,-0.26477 -0.1,-0.28016 -0.0714,-0.29554 -0.0428,-0.31093 -0.0143,-0.32632 0.0143,-0.32517 0.0428,-0.3076 0.0714,-0.29002 0.1,-0.27246 0.12854,-0.25489 0.1571,-0.23731 0.18568,-0.21975 0.21424,-0.20217 0.24718,-0.19773 0.28454,-0.17137 0.3219,-0.145 0.35925,-0.11865 0.39661,-0.0923 0.43396,-0.0659 0.47132,-0.0396 0.50867,-0.0132 5.80078,0 5.80078,0 5.80078,0 5.80078,0 5.80079,0 5.80078,0 5.80078,0 5.80078,0 0.50865,0.0132 0.4713,0.0396 0.43395,0.0659 0.3966,0.0923 0.35926,0.11865 0.32191,0.145 0.28456,0.17137 0.24721,0.19773 0.21421,0.20217 0.18565,0.21975 0.1571,0.23731 0.12854,0.25489 0.1,0.27246 0.0714,0.29002 0.0429,0.3076 0.0143,0.32517 -0.0143,0.32632 -0.0429,0.31093 -0.0714,0.29554 -0.1,0.28016 -0.12854,0.26477 -0.1571,0.24938 -0.18565,0.23399 -0.21421,0.2186 -0.24721,0.1813 -0.28456,0.15712 -0.32191,0.13295 -0.35926,0.10876 -0.3966,0.0846 -0.43395,0.0604 -0.4713,0.0362 -0.50865,0.0121 -2.53125,0 -2.53125,0 -2.53125,0 -2.53125,0 -2.53125,0 -2.53125,0 -2.53125,0 -2.53125,0"
         style="font-size:144px;font-variant:normal;font-stretch:normal;font-family:Courier New;-inkscape-font-specification:Courier New"
         id="path3017"
         inkscape:connector-curvature="0"
         sodipodi:nodetypes="ccccccccccccccccccccccccccccccccccccccccccccccccccccccccccccccccccccccccccccccccccccccccccccccccccccccccccccccccccccccccccccccccccccccccccccccccccccccccccccccccccccccccccccccccccccccccccccccccc" />
      <path
         d="m 496.05469,967.4314 0,-0.24609 0,-0.2461 0,-0.24609 0,-0.24609 0,-0.2461 0,-0.24609 0,-0.2461 0,-0.24609 0.0121,-0.50864 0.0362,-0.4713 0.0604,-0.43395 0.0846,-0.3966 0.10877,-0.35926 0.13294,-0.32191 0.15712,-0.28456 0.1813,-0.24722 0.2186,-0.21421 0.234,-0.18564 0.24938,-0.1571 0.26476,-0.12853 0.28016,-0.1 0.29554,-0.0714 0.31092,-0.0429 0.32632,-0.0143 0.32517,0.0143 0.30761,0.0429 0.29002,0.0714 0.27246,0.1 0.25489,0.12853 0.23731,0.1571 0.21975,0.18564 0.20217,0.21421 0.19773,0.24722 0.17137,0.28456 0.14501,0.32191 0.11865,0.35926 0.0923,0.3966 0.0659,0.43395 0.0396,0.4713 0.0132,0.50864 0,1.88086 0,1.88086 0,1.88086 0,1.88085 0,1.88086 0,1.88086 0,1.88086 0,1.88086 -0.0132,0.50869 -0.0396,0.47132 -0.0659,0.43397 -0.0923,0.39661 -0.11865,0.35925 -0.14501,0.32189 -0.17137,0.28454 -0.19773,0.24717 -0.20217,0.21425 -0.21975,0.18568 -0.23731,0.15712 -0.25489,0.12854 -0.27246,0.1 -0.29002,0.0714 -0.30761,0.0428 -0.32517,0.0143 -0.30983,-0.0132 -0.29665,-0.0395 -0.28346,-0.0659 -0.27026,-0.0923 -0.25708,-0.11866 -0.24389,-0.14503 -0.23069,-0.1714 -0.21751,-0.19777 -0.18239,-0.2274 -0.16042,-0.26036 -0.13844,-0.29333 -0.11646,-0.32629 -0.0945,-0.35925 -0.0725,-0.39222 -0.0505,-0.42519 -0.0285,-0.45815 -0.17251,-1.45786 -0.34169,-1.42052 -0.51087,-1.38317 -0.68006,-1.34582 -0.84924,-1.30847 -1.01842,-1.27113 -1.18761,-1.23378 -1.35679,-1.19643 -1.47988,-1.1041 -1.59193,-0.95689 -1.70398,-0.80968 -1.81604,-0.66248 -1.9281,-0.51526 -2.04016,-0.36805 -2.1522,-0.22085 -2.26427,-0.0736 -2.38075,0.0791 -2.2555,0.23732 -2.13025,0.39552 -2.00501,0.55372 -1.87976,0.71191 -1.75451,0.8701 -1.62926,1.0283 -1.50402,1.1865 -1.35133,1.27663 -1.17115,1.33376 -0.99097,1.39088 -0.81079,1.448 -0.63061,1.50512 -0.45044,1.56225 -0.27026,1.61937 -0.0901,1.67649 0.0253,0.86904 0.0758,0.84926 0.12634,0.82947 0.17688,0.8097 0.22742,0.78991 0.27796,0.77013 0.32849,0.75036 0.37904,0.73057 0.42077,0.70424 0.45373,0.67127 0.48669,0.63832 0.51965,0.60535 0.55261,0.57238 0.58557,0.53942 0.61854,0.50646 0.6515,0.47349 0.67895,0.42958 0.70092,0.40981 0.72289,0.39002 0.74487,0.37024 0.76685,0.35046 0.78882,0.33068 0.8108,0.31091 0.83278,0.29112 0.90306,0.26588 1.02172,0.27028 1.14038,0.27466 1.25903,0.27906 1.37768,0.28344 1.49635,0.28784 1.61499,0.29222 1.73366,0.29662 2.88939,0.4933 2.65648,0.49549 2.42357,0.49766 2.19068,0.4999 1.95776,0.5021 1.72486,0.5043 1.49196,0.5064 1.25905,0.5087 1.48203,0.7185 1.38756,0.7844 1.29308,0.8504 1.19861,0.9162 1.10413,0.9822 1.00965,1.0481 0.91518,1.114 0.8207,1.1799 0.74155,1.2404 0.64269,1.2953 0.54381,1.3502 0.44494,1.4051 0.34607,1.4601 0.24721,1.515 0.14833,1.5699 0.0495,1.6249 -0.12637,2.4851 -0.37904,2.3929 -0.63172,2.3005 -0.88441,2.2083 -1.13708,2.116 -1.38976,2.0236 -1.64244,1.9314 -1.89512,1.8391 -2.10939,1.6644 -2.28517,1.4426 -2.46095,1.2205 -2.63672,0.9987 -2.81249,0.7767 -2.98828,0.5549 -3.16404,0.3328 -3.33983,0.111 -3.75294,-0.1505 -3.55958,-0.4516 -3.36621,-0.7525 -3.17286,-1.0536 -2.97949,-1.3546 -2.78613,-1.6557 -2.59276,-1.9566 -2.39941,-2.2577 0,0.4219 0,0.4219 0,0.4218 0,0.4219 0,0.4219 0,0.4219 0,0.4218 0,0.4219 -0.0132,0.5087 -0.0396,0.4713 -0.0659,0.4339 -0.0923,0.3966 -0.11865,0.3593 -0.14502,0.3219 -0.17138,0.2845 -0.19775,0.2472 -0.20215,0.2142 -0.21973,0.1857 -0.23731,0.1571 -0.25488,0.1286 -0.27246,0.1 -0.29004,0.071 -0.30761,0.043 -0.32519,0.014 -0.30982,-0.014 -0.29664,-0.043 -0.28345,-0.071 -0.27026,-0.1 -0.25708,-0.1286 -0.24389,-0.1571 -0.23071,-0.1857 -0.21753,-0.2142 -0.19776,-0.2472 -0.17139,-0.2845 -0.14502,-0.3219 -0.11865,-0.3593 -0.0923,-0.3966 -0.0659,-0.4339 -0.0396,-0.4713 -0.0132,-0.5087 0,-2.0391 0,-2.039 0,-2.0391 0,-2.039 0,-2.0391 0,-2.0391 0,-2.039 0,-2.0391 0.0121,-0.5251 0.0363,-0.4856 0.0604,-0.4461 0.0846,-0.4065 0.10877,-0.3669 0.13293,-0.3274 0.15711,-0.2879 0.18128,-0.2483 0.21862,-0.2142 0.23401,-0.1857 0.24939,-0.1571 0.26477,-0.1285 0.28015,-0.1 0.29553,-0.071 0.31092,-0.043 0.3263,-0.014 0.30871,0.013 0.29333,0.039 0.27795,0.066 0.26257,0.092 0.2472,0.1187 0.23181,0.145 0.21644,0.1713 0.20105,0.1978 0.19885,0.2274 0.17467,0.2604 0.15051,0.2933 0.12635,0.3263 0.10217,0.3593 0.078,0.3922 0.0538,0.4252 0.0297,0.4581 0.18457,1.5996 0.37792,1.5645 0.57129,1.5293 0.76465,1.4941 0.958,1.459 1.15137,1.4238 1.34474,1.3887 1.53809,1.3535 1.72265,1.236 1.86327,1.0711 2.0039,0.9064 2.14453,0.7416 2.28516,0.5767 2.42578,0.412 2.56642,0.2472 2.70704,0.082 2.70372,-0.087 2.5565,-0.2604 2.4093,-0.4339 2.26208,-0.6075 2.11487,-0.7812 1.96766,-0.9547 1.82044,-1.1283 1.67324,-1.3019 1.51609,-1.4205 1.31395,-1.4843 1.11181,-1.5479 0.90966,-1.6117 0.70753,-1.6754 0.50538,-1.7392 0.30323,-1.8028 0.1011,-1.8666 -0.0385,-1.1437 -0.11537,-1.1107 -0.19227,-1.0777 -0.26917,-1.0448 -0.34606,-1.0119 -0.42297,-0.9789 -0.49986,-0.9459 -0.57676,-0.913 -0.65261,-0.8899 -0.72731,-0.8415 -0.80201,-0.7932 -0.87671,-0.7449 -0.95141,-0.6965 -1.02612,-0.6482 -1.10081,-0.5999 -1.17552,-0.5515 -0.95802,-0.3746 -1.18654,-0.3856 -1.41505,-0.3966 -1.64355,-0.4076 -1.87207,-0.4186 -2.10058,-0.4296 -2.32909,-0.4405 -2.5576,-0.4516 -3.5453,-0.6558 -3.28821,-0.7372 -3.03114,-0.8185 -2.77404,-0.8998 -2.51697,-0.981 -2.25988,-1.06244 -2.0028,-1.14368 -1.74572,-1.22498 -1.51612,-1.33263 -1.31397,-1.46666 -1.11182,-1.6007 -0.90967,-1.73474 -0.70752,-1.86878 -0.50536,-2.00281 -0.30322,-2.13686 -0.10107,-2.27089 0.11536,-2.27964 0.34607,-2.19835 0.57678,-2.11705 0.80749,-2.03577 1.03821,-1.95447 1.26892,-1.87317 1.49963,-1.79189 1.73035,-1.71059 1.93688,-1.56553 2.0841,-1.35679 2.23132,-1.14806 2.37854,-0.93933 2.52575,-0.73059 2.67298,-0.52186 2.8202,-0.31313 2.96742,-0.1044 3.0399,0.12197 2.93224,0.36587 2.82457,0.60975 2.71692,0.85364 2.60925,1.09753 2.5016,1.34142 2.39393,1.58531 2.28628,1.8292"
         style="font-size:144px;font-variant:normal;font-stretch:normal;font-family:Courier New;-inkscape-font-specification:Courier New"
         id="path3019"
         inkscape:connector-curvature="0"
         sodipodi:nodetypes="ccccccccccccccccccccccccccccccccccccccccccccccccccccccccccccccccccccccccccccccccccccccccccccccccccccccccccccccccccccccccccccccccccccccccccccccccccccccccccccccccccccccccccccccccccccccccccccccccccccccccccccccccccccccccccccccccccccccccccccccccccccccccccccccccccccccccccccccccccccccccccccccccccccccccccccccccccccccccccccccccccccccccccccccccccccccccccccccccccccccccccccccccc" />
      <path
         d="m 581.27344,1003.9939 -4.89551,0 -4.8955,0 -4.89551,0 -4.89551,0 -4.89551,0 -4.8955,0 -4.89551,0 -4.89551,0 0,4.2363 0,4.2364 0,4.2363 0,4.2363 0,4.2363 0,4.2364 0,4.2363 0,4.2363 0.99316,0 0.99317,0 0.99316,0 0.99317,0 0.99316,0 0.99316,0 0.99317,0 0.99316,0 0.50865,0.013 0.47131,0.04 0.43395,0.066 0.39661,0.092 0.35926,0.1186 0.3219,0.1451 0.28456,0.1713 0.2472,0.1978 0.21422,0.2021 0.18566,0.2198 0.1571,0.2373 0.12853,0.2548 0.1,0.2725 0.0714,0.29 0.0429,0.3076 0.0143,0.3252 -0.0143,0.3098 -0.0429,0.2967 -0.0714,0.2834 -0.1,0.2703 -0.12853,0.2571 -0.1571,0.2439 -0.18566,0.2307 -0.21422,0.2175 -0.2472,0.1978 -0.28456,0.1713 -0.3219,0.1451 -0.35926,0.1186 -0.39661,0.092 -0.43395,0.066 -0.47131,0.039 -0.50865,0.013 -2.56641,0 -2.5664,0 -2.56641,0 -2.5664,0 -2.56641,0 -2.56641,0 -2.5664,0 -2.56641,0 -0.50867,-0.013 -0.47132,-0.039 -0.43396,-0.066 -0.3966,-0.092 -0.35926,-0.1186 -0.32189,-0.1451 -0.28455,-0.1713 -0.24719,-0.1978 -0.21423,-0.2175 -0.18567,-0.2307 -0.15711,-0.2439 -0.12854,-0.2571 -0.1,-0.2703 -0.0714,-0.2834 -0.0428,-0.2967 -0.0143,-0.3098 0.0143,-0.3252 0.0428,-0.3076 0.0714,-0.29 0.1,-0.2725 0.12854,-0.2548 0.1571,-0.2373 0.18567,-0.2198 0.21424,-0.2021 0.24719,-0.1978 0.28455,-0.1713 0.32189,-0.1451 0.35926,-0.1186 0.3966,-0.092 0.43396,-0.066 0.47132,-0.04 0.50867,-0.013 0.83496,0 0.83496,0 0.83496,0 0.83497,0 0.83496,0 0.83496,0 0.83496,0 0.83496,0 0,-8.8066 0,-8.8067 0,-8.8066 0,-8.8066 0,-8.80669 0,-8.80663 0,-8.80664 0,-8.80664 -0.45703,0 -0.45703,0 -0.45703,0 -0.45703,0 -0.45704,0 -0.45703,0 -0.45703,0 -0.45703,0 -0.52515,-0.0121 -0.4856,-0.0362 -0.44605,-0.0604 -0.40649,-0.0846 -0.36695,-0.10876 -0.32739,-0.13295 -0.28783,-0.15712 -0.24829,-0.1813 -0.21424,-0.2186 -0.18567,-0.23399 -0.15711,-0.24938 -0.12854,-0.26477 -0.1,-0.28016 -0.0714,-0.29554 -0.0428,-0.31093 -0.0143,-0.32632 0.0143,-0.32517 0.0428,-0.3076 0.0714,-0.29002 0.1,-0.27246 0.12854,-0.25489 0.15711,-0.23731 0.18567,-0.21975 0.21424,-0.20217 0.24829,-0.19773 0.28783,-0.17137 0.32739,-0.145 0.36695,-0.11865 0.40649,-0.0923 0.44605,-0.0659 0.4856,-0.0396 0.52515,-0.0132 2.18848,0 2.18847,0 2.18848,0 2.18848,0 2.18847,0 2.18848,0 2.18847,0 2.18848,0 0.50865,0.0132 0.47131,0.0396 0.43395,0.0659 0.39661,0.0923 0.35926,0.11865 0.3219,0.145 0.28456,0.17137 0.2472,0.19773 0.21422,0.20217 0.18566,0.21975 0.1571,0.23731 0.12853,0.25489 0.1,0.27246 0.0714,0.29002 0.0429,0.3076 0.0143,0.32517 -0.0143,0.32632 -0.0429,0.31093 -0.0714,0.29554 -0.1,0.28016 -0.12853,0.26477 -0.1571,0.24938 -0.18566,0.23399 -0.21422,0.2186 -0.2472,0.1813 -0.28456,0.15712 -0.3219,0.13295 -0.35926,0.10876 -0.39661,0.0846 -0.43395,0.0604 -0.47131,0.0362 -0.50865,0.0121 -0.99316,0 -0.99317,0 -0.99316,0 -0.99316,0 -0.99317,0 -0.99316,0 -0.99317,0 -0.99316,0 0,3.83203 0,3.83203 0,3.83203 0,3.83204 0,3.83203 0,3.83203 0,3.83203 0,3.83203 4.89551,0 4.89551,0 4.8955,0 4.89551,0 4.89551,0 4.89551,0 4.8955,0 4.89551,0 0,-3.83203 0,-3.83203 0,-3.83203 0,-3.83203 0,-3.83204 0,-3.83203 0,-3.83203 0,-3.83203 -0.98437,0 -0.98438,0 -0.98437,0 -0.98438,0 -0.98437,0 -0.98438,0 -0.98437,0 -0.98438,0 -0.50869,-0.0121 -0.47132,-0.0362 -0.43397,-0.0604 -0.39661,-0.0846 -0.35925,-0.10876 -0.32189,-0.13295 -0.28454,-0.15712 -0.24717,-0.1813 -0.21425,-0.2186 -0.18568,-0.23399 -0.15711,-0.24938 -0.12854,-0.26477 -0.1,-0.28016 -0.0714,-0.29554 -0.0428,-0.31093 -0.0143,-0.32632 0.0132,-0.32517 0.0395,-0.3076 0.0659,-0.29002 0.0923,-0.27246 0.11865,-0.25489 0.14503,-0.23731 0.1714,-0.21975 0.19777,-0.20217 0.24827,-0.19773 0.28783,-0.17137 0.32739,-0.145 0.36694,-0.11865 0.40649,-0.0923 0.44606,-0.0659 0.48561,-0.0396 0.52516,-0.0132 2.18848,0 2.18847,0 2.18848,0 2.18847,0 2.18848,0 2.18848,0 2.18847,0 2.18848,0 0.52512,0.0132 0.48558,0.0396 0.44603,0.0659 0.4065,0.0923 0.36694,0.11865 0.32741,0.145 0.28785,0.17137 0.24832,0.19773 0.21421,0.20217 0.18565,0.21975 0.15709,0.23731 0.12854,0.25489 0.1,0.27246 0.0714,0.29002 0.0429,0.3076 0.0143,0.32517 -0.0143,0.32632 -0.0429,0.31093 -0.0714,0.29554 -0.1,0.28016 -0.12854,0.26477 -0.15709,0.24938 -0.18565,0.23399 -0.21421,0.2186 -0.24832,0.1813 -0.28785,0.15712 -0.32741,0.13295 -0.36694,0.10876 -0.4065,0.0846 -0.44603,0.0604 -0.48558,0.0362 -0.52512,0.0121 -0.45703,0 -0.45703,0 -0.45703,0 -0.45704,0 -0.45703,0 -0.45703,0 -0.45703,0 -0.45703,0 0,8.80664 0,8.80664 0,8.80663 0,8.80669 0,8.8066 0,8.8066 0,8.8067 0,8.8066 0.83496,0 0.83496,0 0.83496,0 0.83496,0 0.83497,0 0.83496,0 0.83496,0 0.83496,0 0.50864,0.013 0.4713,0.04 0.43394,0.066 0.39661,0.092 0.35925,0.1186 0.32191,0.1451 0.28457,0.1713 0.24722,0.1978 0.21421,0.2021 0.18564,0.2198 0.1571,0.2373 0.12853,0.2548 0.1,0.2725 0.0714,0.29 0.0429,0.3076 0.0143,0.3252 -0.0143,0.3098 -0.0429,0.2967 -0.0714,0.2834 -0.1,0.2703 -0.12853,0.2571 -0.1571,0.2439 -0.18564,0.2307 -0.21421,0.2175 -0.24722,0.1978 -0.28457,0.1713 -0.32191,0.1451 -0.35925,0.1186 -0.39661,0.092 -0.43394,0.066 -0.4713,0.039 -0.50864,0.013 -2.56641,0 -2.5664,0 -2.56641,0 -2.5664,0 -2.56641,0 -2.56641,0 -2.5664,0 -2.56641,0 -0.50869,-0.013 -0.47132,-0.039 -0.43397,-0.066 -0.39661,-0.092 -0.35925,-0.1186 -0.32189,-0.1451 -0.28454,-0.1713 -0.24717,-0.1978 -0.21425,-0.2175 -0.18568,-0.2307 -0.15711,-0.2439 -0.12854,-0.2571 -0.1,-0.2703 -0.0714,-0.2834 -0.0428,-0.2967 -0.0143,-0.3098 0.0132,-0.3252 0.0395,-0.3076 0.0659,-0.29 0.0923,-0.2725 0.11865,-0.2548 0.14503,-0.2373 0.1714,-0.2198 0.19777,-0.2021 0.24827,-0.1978 0.28783,-0.1713 0.32739,-0.1451 0.36694,-0.1186 0.40649,-0.092 0.44606,-0.066 0.48561,-0.04 0.52516,-0.013 0.98438,0 0.98437,0 0.98438,0 0.98437,0 0.98438,0 0.98437,0 0.98438,0 0.98437,0 0,-4.2363 0,-4.2363 0,-4.2364 0,-4.2363 0,-4.2363 0,-4.2363 0,-4.2364 0,-4.2363"
         style="font-size:144px;font-variant:normal;font-stretch:normal;font-family:Courier New;-inkscape-font-specification:Courier New"
         id="path3021"
         inkscape:connector-curvature="0"
         sodipodi:nodetypes="ccccccccccccccccccccccccccccccccccccccccccccccccccccccccccccccccccccccccccccccccccccccccccccccccccccccccccccccccccccccccccccccccccccccccccccccccccccccccccccccccccccccccccccccccccccccccccccccccccccccccccccccccccccccccccccccccccccccccccccccccccccccccccccccccccccccccccccccccccccccccccccccccccccccccccccccccccccccccccccccccccccccccccccccccccccccccccccccccccccccccccccccccccccccccccccccccccccccccccccccccccccccccccccccccc" />
    </g>
  </g>
</svg>
