  0
SECTION
  2
HEADER
  9
$ACADVER
  1
AC1014
  9
$HANDSEED
  5
FFFF
  9
$MEASUREMENT
 70
     1
  0
ENDSEC
  0
SECTION
  2
TABLES
  0
TABLE
  2
VPORT
  5
8
330
0
100
AcDbSymbolTable
 70
     4
  0
VPORT
  5
2E
330
8
100
AcDbSymbolTableRecord
100
AcDbViewportTableRecord
  2
*ACTIVE
 70
     0
 10
0.0
 20
0.0
 11
1.0
 21
1.0
 12
210.0
 22
148.5
 13
0.0
 23
0.0
 14
10.0
 24
10.0
 15
10.0
 25
10.0
 16
0.0
 26
0.0
 36
1.0
 17
0.0
 27
0.0
 37
0.0
 40
341.0
 41
1.24
 42
50.0
 43
0.0
 44
0.0
 50
0.0
 51
0.0
 71
     0
 72
   100
 73
     1
 74
     3
 75
     0
 76
     0
 77
     0
 78
     0
  0
ENDTAB
  0
TABLE
  2
LTYPE
  5
5
330
0
100
AcDbSymbolTable
 70
     1
  0
LTYPE
  5
14
330
5
100
AcDbSymbolTableRecord
100
AcDbLinetypeTableRecord
  2
BYBLOCK
 70
     0
  3

 72
    65
 73
     0
 40
0.0
  0
LTYPE
  5
15
330
5
100
AcDbSymbolTableRecord
100
AcDbLinetypeTableRecord
  2
BYLAYER
 70
     0
  3

 72
    65
 73
     0
 40
0.0
  0
LTYPE
  5
16
330
5
100
AcDbSymbolTableRecord
100
AcDbLinetypeTableRecord
  2
CONTINUOUS
 70
     0
  3
Solid line
 72
    65
 73
     0
 40
0.0
  0
ENDTAB
  0
TABLE
  2
LAYER
  5
2
100
AcDbSymbolTable
 70
2
  0
LAYER
  5
50
100
AcDbSymbolTableRecord
100
AcDbLayerTableRecord
  2
0
 70
0
  6
CONTINUOUS
  0
LAYER
  5
51
100
AcDbSymbolTableRecord
100
AcDbLayerTableRecord
  2
Layer_1
 70
0
  6
CONTINUOUS
  0
ENDTAB
  0
TABLE
  2
STYLE
  5
3
330
0
100
AcDbSymbolTable
 70
     1
  0
STYLE
  5
11
330
3
100
AcDbSymbolTableRecord
100
AcDbTextStyleTableRecord
  2
STANDARD
 70
     0
 40
0.0
 41
1.0
 50
0.0
 71
     0
 42
2.5
  3
txt
  4

  0
ENDTAB
  0
TABLE
  2
VIEW
  5
6
330
0
100
AcDbSymbolTable
 70
     0
  0
ENDTAB
  0
TABLE
  2
UCS
  5
7
330
0
100
AcDbSymbolTable
 70
     0
  0
ENDTAB
  0
TABLE
  2
APPID
  5
9
330
0
100
AcDbSymbolTable
 70
     2
  0
APPID
  5
12
330
9
100
AcDbSymbolTableRecord
100
AcDbRegAppTableRecord
  2
ACAD
 70
     0
  0
ENDTAB
  0
TABLE
  2
DIMSTYLE
  5
A
330
0
100
AcDbSymbolTable
 70
     1
  0
DIMSTYLE
105
27
330
A
100
AcDbSymbolTableRecord
100
AcDbDimStyleTableRecord
  2
ISO-25
 70
     0
  3

  4

  5

  6

  7

 40
1.0
 41
2.5
 42
0.625
 43
3.75
 44
1.25
 45
0.0
 46
0.0
 47
0.0
 48
0.0
140
2.5
141
2.5
142
0.0
143
0.03937007874016
144
1.0
145
0.0
146
1.0
147
0.625
 71
     0
 72
     0
 73
     0
 74
     0
 75
     0
 76
     0
 77
     1
 78
     8
170
     0
171
     3
172
     1
173
     0
174
     0
175
     0
176
     0
177
     0
178
     0
270
     2
271
     2
272
     2
273
     2
274
     3
340
11
275
     0
280
     0
281
     0
282
     0
283
     0
284
     8
285
     0
286
     0
287
     3
288
     0
  0
ENDTAB
  0
TABLE
  2
BLOCK_RECORD
  5
1
330
0
100
AcDbSymbolTable
 70
     1
  0
BLOCK_RECORD
  5
1F
330
1
100
AcDbSymbolTableRecord
100
AcDbBlockTableRecord
  2
*MODEL_SPACE
  0
BLOCK_RECORD
  5
1B
330
1
100
AcDbSymbolTableRecord
100
AcDbBlockTableRecord
  2
*PAPER_SPACE
  0
ENDTAB
  0
ENDSEC
  0
SECTION
  2
BLOCKS
  0
BLOCK
  5
20
330
1F
100
AcDbEntity
  8
0
100
AcDbBlockBegin
  2
*MODEL_SPACE
 70
     0
 10
0.0
 20
0.0
 30
0.0
  3
*MODEL_SPACE
  1

  0
ENDBLK
  5
21
330
1F
100
AcDbEntity
  8
0
100
AcDbBlockEnd
  0
BLOCK
  5
1C
330
1B
100
AcDbEntity
 67
     1
  8
0
100
AcDbBlockBegin
  2
*PAPER_SPACE
  1

  0
ENDBLK
  5
1D
330
1B
100
AcDbEntity
 67
     1
  8
0
100
AcDbBlockEnd
  0
ENDSEC
  0
SECTION
  2
ENTITIES
  0
LWPOLYLINE
  5
100
100
AcDbEntity
  8
Layer_1
 62
7
100
AcDbPolyline
 90
265
 70
0
 10
17.680781
 20
10.177951
 30
0.0
 10
16.311563
 20
10.177951
 30
0.0
 10
14.942344
 20
10.177951
 30
0.0
 10
13.573125
 20
10.177951
 30
0.0
 10
12.203906
 20
10.177951
 30
0.0
 10
10.834687
 20
10.177951
 30
0.0
 10
9.465469
 20
10.177951
 30
0.0
 10
8.096250
 20
10.177951
 30
0.0
 10
6.727031
 20
10.177951
 30
0.0
 10
6.446738
 20
9.416459
 30
0.0
 10
6.166445
 20
8.654938
 30
0.0
 10
5.886153
 20
7.893446
 30
0.0
 10
5.605860
 20
7.131954
 30
0.0
 10
5.325567
 20
6.370434
 30
0.0
 10
5.045274
 20
5.608942
 30
0.0
 10
4.764981
 20
4.847422
 30
0.0
 10
4.484688
 20
4.085930
 30
0.0
 10
4.884043
 20
4.085930
 30
0.0
 10
5.283399
 20
4.085930
 30
0.0
 10
5.682754
 20
4.085930
 30
0.0
 10
6.082110
 20
4.085930
 30
0.0
 10
6.481465
 20
4.085930
 30
0.0
 10
6.880820
 20
4.085930
 30
0.0
 10
7.280176
 20
4.085930
 30
0.0
 10
7.679531
 20
4.085930
 30
0.0
 10
7.823086
 20
4.082261
 30
0.0
 10
7.956099
 20
4.070972
 30
0.0
 10
8.078571
 20
4.052346
 30
0.0
 10
8.190502
 20
4.026381
 30
0.0
 10
8.291891
 20
3.992910
 30
0.0
 10
8.382740
 20
3.951959
 30
0.0
 10
8.463047
 20
3.903614
 30
0.0
 10
8.532813
 20
3.847791
 30
0.0
 10
8.593271
 20
3.790754
 30
0.0
 10
8.645669
 20
3.728721
 30
0.0
 10
8.690006
 20
3.661750
 30
0.0
 10
8.726283
 20
3.589840
 30
0.0
 10
8.754499
 20
3.512934
 30
0.0
 10
8.774655
 20
3.431090
 30
0.0
 10
8.786749
 20
3.344278
 30
0.0
 10
8.790782
 20
3.252500
 30
0.0
 10
8.786749
 20
3.165067
 30
0.0
 10
8.774655
 20
3.081332
 30
0.0
 10
8.754499
 20
3.001350
 30
0.0
 10
8.726283
 20
2.925065
 30
0.0
 10
8.690006
 20
2.852506
 30
0.0
 10
8.645669
 20
2.783672
 30
0.0
 10
8.593271
 20
2.718563
 30
0.0
 10
8.532813
 20
2.657180
 30
0.0
 10
8.463047
 20
2.601356
 30
0.0
 10
8.382740
 20
2.553012
 30
0.0
 10
8.291891
 20
2.512061
 30
0.0
 10
8.190502
 20
2.478590
 30
0.0
 10
8.078571
 20
2.452625
 30
0.0
 10
7.956099
 20
2.433999
 30
0.0
 10
7.823086
 20
2.422992
 30
0.0
 10
7.679531
 20
2.419323
 30
0.0
 10
6.900664
 20
2.419323
 30
0.0
 10
6.121797
 20
2.419323
 30
0.0
 10
5.342930
 20
2.419323
 30
0.0
 10
4.564062
 20
2.419323
 30
0.0
 10
3.785195
 20
2.419323
 30
0.0
 10
3.006328
 20
2.419323
 30
0.0
 10
2.227461
 20
2.419323
 30
0.0
 10
1.448594
 20
2.419323
 30
0.0
 10
1.305036
 20
2.422992
 30
0.0
 10
1.172021
 20
2.433999
 30
0.0
 10
1.049548
 20
2.452625
 30
0.0
 10
0.937617
 20
2.478590
 30
0.0
 10
0.836228
 20
2.512061
 30
0.0
 10
0.745381
 20
2.553012
 30
0.0
 10
0.665076
 20
2.601356
 30
0.0
 10
0.595313
 20
2.657180
 30
0.0
 10
0.534851
 20
2.718563
 30
0.0
 10
0.482451
 20
2.783672
 30
0.0
 10
0.438113
 20
2.852506
 30
0.0
 10
0.401836
 20
2.925065
 30
0.0
 10
0.373621
 20
3.001350
 30
0.0
 10
0.353467
 20
3.081332
 30
0.0
 10
0.341374
 20
3.165067
 30
0.0
 10
0.337344
 20
3.252500
 30
0.0
 10
0.341374
 20
3.344278
 30
0.0
 10
0.353467
 20
3.431090
 30
0.0
 10
0.373621
 20
3.512934
 30
0.0
 10
0.401836
 20
3.589840
 30
0.0
 10
0.438112
 20
3.661750
 30
0.0
 10
0.482451
 20
3.728721
 30
0.0
 10
0.534851
 20
3.790754
 30
0.0
 10
0.595312
 20
3.847791
 30
0.0
 10
0.665075
 20
3.903614
 30
0.0
 10
0.745380
 20
3.951959
 30
0.0
 10
0.836227
 20
3.992910
 30
0.0
 10
0.937616
 20
4.026381
 30
0.0
 10
1.049547
 20
4.052346
 30
0.0
 10
1.172021
 20
4.070972
 30
0.0
 10
1.305036
 20
4.082261
 30
0.0
 10
1.448594
 20
4.085930
 30
0.0
 10
1.609824
 20
4.085930
 30
0.0
 10
1.771054
 20
4.085930
 30
0.0
 10
1.932285
 20
4.085930
 30
0.0
 10
2.093515
 20
4.085930
 30
0.0
 10
2.254746
 20
4.085930
 30
0.0
 10
2.415976
 20
4.085930
 30
0.0
 10
2.577207
 20
4.085930
 30
0.0
 10
2.738437
 20
4.085930
 30
0.0
 10
3.658691
 20
6.571348
 30
0.0
 10
4.578945
 20
9.056795
 30
0.0
 10
5.499199
 20
11.542213
 30
0.0
 10
6.419453
 20
14.027659
 30
0.0
 10
7.339707
 20
16.513075
 30
0.0
 10
8.259961
 20
18.998504
 30
0.0
 10
9.180215
 20
21.483931
 30
0.0
 10
10.100469
 20
23.969360
 30
0.0
 10
9.485312
 20
23.969360
 30
0.0
 10
8.870156
 20
23.969360
 30
0.0
 10
8.255000
 20
23.969360
 30
0.0
 10
7.639844
 20
23.969360
 30
0.0
 10
7.024687
 20
23.969360
 30
0.0
 10
6.409531
 20
23.969360
 30
0.0
 10
5.794375
 20
23.969360
 30
0.0
 10
5.179219
 20
23.969360
 30
0.0
 10
5.035660
 20
23.972775
 30
0.0
 10
4.902644
 20
23.982992
 30
0.0
 10
4.780170
 20
24.000038
 30
0.0
 10
4.668239
 20
24.023914
 30
0.0
 10
4.566850
 20
24.054608
 30
0.0
 10
4.476003
 20
24.092130
 30
0.0
 10
4.395699
 20
24.136473
 30
0.0
 10
4.325937
 20
24.187640
 30
0.0
 10
4.265475
 20
24.249333
 30
0.0
 10
4.213074
 20
24.315371
 30
0.0
 10
4.168735
 20
24.385751
 30
0.0
 10
4.132458
 20
24.460475
 30
0.0
 10
4.104241
 20
24.539542
 30
0.0
 10
4.084088
 20
24.622950
 30
0.0
 10
4.071997
 20
24.710702
 30
0.0
 10
4.067967
 20
24.802797
 30
0.0
 10
4.071997
 20
24.894567
 30
0.0
 10
4.084088
 20
24.981378
 30
0.0
 10
4.104241
 20
25.063228
 30
0.0
 10
4.132458
 20
25.140123
 30
0.0
 10
4.168735
 20
25.212058
 30
0.0
 10
4.213074
 20
25.279032
 30
0.0
 10
4.265475
 20
25.341051
 30
0.0
 10
4.325937
 20
25.398108
 30
0.0
 10
4.395699
 20
25.453911
 30
0.0
 10
4.476003
 20
25.502276
 30
0.0
 10
4.566850
 20
25.543198
 30
0.0
 10
4.668239
 20
25.576684
 30
0.0
 10
4.780170
 20
25.602733
 30
0.0
 10
4.902644
 20
25.621331
 30
0.0
 10
5.035660
 20
25.632507
 30
0.0
 10
5.179219
 20
25.636233
 30
0.0
 10
6.228457
 20
25.636233
 30
0.0
 10
7.277695
 20
25.636233
 30
0.0
 10
8.326933
 20
25.636233
 30
0.0
 10
9.376172
 20
25.636233
 30
0.0
 10
10.425410
 20
25.636233
 30
0.0
 10
11.474648
 20
25.636233
 30
0.0
 10
12.523887
 20
25.636233
 30
0.0
 10
13.573125
 20
25.636233
 30
0.0
 10
14.590117
 20
22.942444
 30
0.0
 10
15.607109
 20
20.248656
 30
0.0
 10
16.624102
 20
17.554867
 30
0.0
 10
17.641094
 20
14.861081
 30
0.0
 10
18.658086
 20
12.167304
 30
0.0
 10
19.675078
 20
9.473493
 30
0.0
 10
20.692070
 20
6.779710
 30
0.0
 10
21.709062
 20
4.085927
 30
0.0
 10
21.870293
 20
4.085927
 30
0.0
 10
22.031523
 20
4.085927
 30
0.0
 10
22.192754
 20
4.085927
 30
0.0
 10
22.353984
 20
4.085927
 30
0.0
 10
22.515215
 20
4.085927
 30
0.0
 10
22.676445
 20
4.085927
 30
0.0
 10
22.837676
 20
4.085927
 30
0.0
 10
22.998906
 20
4.085927
 30
0.0
 10
23.142456
 20
4.082258
 30
0.0
 10
23.275465
 20
4.070969
 30
0.0
 10
23.397935
 20
4.052343
 30
0.0
 10
23.509865
 20
4.026378
 30
0.0
 10
23.611255
 20
3.992907
 30
0.0
 10
23.702106
 20
3.951956
 30
0.0
 10
23.782416
 20
3.903612
 30
0.0
 10
23.852187
 20
3.847788
 30
0.0
 10
23.912641
 20
3.790751
 30
0.0
 10
23.965035
 20
3.728719
 30
0.0
 10
24.009370
 20
3.661747
 30
0.0
 10
24.045646
 20
3.589837
 30
0.0
 10
24.073863
 20
3.512931
 30
0.0
 10
24.094019
 20
3.431087
 30
0.0
 10
24.106118
 20
3.344275
 30
0.0
 10
24.110156
 20
3.252497
 30
0.0
 10
24.106118
 20
3.165064
 30
0.0
 10
24.094019
 20
3.081329
 30
0.0
 10
24.073863
 20
3.001347
 30
0.0
 10
24.045646
 20
2.925063
 30
0.0
 10
24.009370
 20
2.852503
 30
0.0
 10
23.965035
 20
2.783669
 30
0.0
 10
23.912641
 20
2.718561
 30
0.0
 10
23.852187
 20
2.657177
 30
0.0
 10
23.782416
 20
2.601354
 30
0.0
 10
23.702106
 20
2.553009
 30
0.0
 10
23.611255
 20
2.512059
 30
0.0
 10
23.509865
 20
2.478587
 30
0.0
 10
23.397935
 20
2.452623
 30
0.0
 10
23.275465
 20
2.433996
 30
0.0
 10
23.142456
 20
2.422989
 30
0.0
 10
22.998906
 20
2.419320
 30
0.0
 10
22.222519
 20
2.419320
 30
0.0
 10
21.446133
 20
2.419320
 30
0.0
 10
20.669746
 20
2.419320
 30
0.0
 10
19.893359
 20
2.419320
 30
0.0
 10
19.116972
 20
2.419320
 30
0.0
 10
18.340586
 20
2.419320
 30
0.0
 10
17.564199
 20
2.419320
 30
0.0
 10
16.787812
 20
2.419320
 30
0.0
 10
16.639599
 20
2.422989
 30
0.0
 10
16.502549
 20
2.433996
 30
0.0
 10
16.376663
 20
2.452623
 30
0.0
 10
16.261941
 20
2.478587
 30
0.0
 10
16.158382
 20
2.512059
 30
0.0
 10
16.065987
 20
2.553009
 30
0.0
 10
15.984755
 20
2.601354
 30
0.0
 10
15.914687
 20
2.657177
 30
0.0
 10
15.854221
 20
2.718561
 30
0.0
 10
15.801817
 20
2.783669
 30
0.0
 10
15.757477
 20
2.852503
 30
0.0
 10
15.721199
 20
2.925063
 30
0.0
 10
15.692985
 20
3.001347
 30
0.0
 10
15.672835
 20
3.081329
 30
0.0
 10
15.660747
 20
3.165064
 30
0.0
 10
15.656723
 20
3.252497
 30
0.0
 10
15.660747
 20
3.344275
 30
0.0
 10
15.672835
 20
3.431087
 30
0.0
 10
15.692985
 20
3.512931
 30
0.0
 10
15.721199
 20
3.589837
 30
0.0
 10
15.757477
 20
3.661747
 30
0.0
 10
15.801817
 20
3.728719
 30
0.0
 10
15.854221
 20
3.790751
 30
0.0
 10
15.914687
 20
3.847788
 30
0.0
 10
15.984755
 20
3.903612
 30
0.0
 10
16.065987
 20
3.951956
 30
0.0
 10
16.158382
 20
3.992907
 30
0.0
 10
16.261941
 20
4.026378
 30
0.0
 10
16.376663
 20
4.052343
 30
0.0
 10
16.502549
 20
4.070969
 30
0.0
 10
16.639599
 20
4.082258
 30
0.0
 10
16.787812
 20
4.085927
 30
0.0
 10
17.184687
 20
4.085927
 30
0.0
 10
17.581562
 20
4.085927
 30
0.0
 10
17.978437
 20
4.085927
 30
0.0
 10
18.375312
 20
4.085927
 30
0.0
 10
18.772187
 20
4.085927
 30
0.0
 10
19.169062
 20
4.085927
 30
0.0
 10
19.565937
 20
4.085927
 30
0.0
 10
19.962812
 20
4.085927
 30
0.0
 10
19.677559
 20
4.847419
 30
0.0
 10
19.392304
 20
5.608939
 30
0.0
 10
19.107051
 20
6.370431
 30
0.0
 10
18.821797
 20
7.131952
 30
0.0
 10
18.536543
 20
7.893444
 30
0.0
 10
18.251289
 20
8.654936
 30
0.0
 10
17.966035
 20
9.416456
 30
0.0
 10
17.680781
 20
10.177948
 30
0.0
  0
LWPOLYLINE
  5
101
100
AcDbEntity
  8
Layer_1
 62
7
100
AcDbPolyline
 90
33
 70
0
 10
17.045781
 20
11.844837
 30
0.0
 10
16.470312
 20
13.360399
 30
0.0
 10
15.894844
 20
14.875969
 30
0.0
 10
15.319375
 20
16.391533
 30
0.0
 10
14.743906
 20
17.907097
 30
0.0
 10
14.168437
 20
19.422662
 30
0.0
 10
13.592969
 20
20.938229
 30
0.0
 10
13.017500
 20
22.453793
 30
0.0
 10
12.442031
 20
23.969358
 30
0.0
 10
12.365137
 20
23.969358
 30
0.0
 10
12.288242
 20
23.969358
 30
0.0
 10
12.211347
 20
23.969358
 30
0.0
 10
12.134453
 20
23.969358
 30
0.0
 10
12.057559
 20
23.969358
 30
0.0
 10
11.980664
 20
23.969358
 30
0.0
 10
11.903769
 20
23.969358
 30
0.0
 10
11.826875
 20
23.969358
 30
0.0
 10
11.268769
 20
22.453793
 30
0.0
 10
10.710664
 20
20.938229
 30
0.0
 10
10.152559
 20
19.422662
 30
0.0
 10
9.594453
 20
17.907097
 30
0.0
 10
9.036347
 20
16.391533
 30
0.0
 10
8.478242
 20
14.875969
 30
0.0
 10
7.920137
 20
13.360399
 30
0.0
 10
7.362031
 20
11.844837
 30
0.0
 10
8.572500
 20
11.844837
 30
0.0
 10
9.782969
 20
11.844837
 30
0.0
 10
10.993437
 20
11.844837
 30
0.0
 10
12.203906
 20
11.844837
 30
0.0
 10
13.414375
 20
11.844837
 30
0.0
 10
14.624844
 20
11.844837
 30
0.0
 10
15.835312
 20
11.844837
 30
0.0
 10
17.045781
 20
11.844837
 30
0.0
  0
LWPOLYLINE
  5
102
100
AcDbEntity
  8
Layer_1
 62
7
100
AcDbPolyline
 90
169
 70
0
 10
29.448125
 20
4.085930
 30
0.0
 10
29.448125
 20
6.571348
 30
0.0
 10
29.448125
 20
9.056795
 30
0.0
 10
29.448125
 20
11.542213
 30
0.0
 10
29.448125
 20
14.027659
 30
0.0
 10
29.448125
 20
16.513075
 30
0.0
 10
29.448125
 20
18.998504
 30
0.0
 10
29.448125
 20
21.483931
 30
0.0
 10
29.448125
 20
23.969360
 30
0.0
 10
29.167833
 20
23.969360
 30
0.0
 10
28.887539
 20
23.969360
 30
0.0
 10
28.607247
 20
23.969360
 30
0.0
 10
28.326952
 20
23.969360
 30
0.0
 10
28.046660
 20
23.969360
 30
0.0
 10
27.766367
 20
23.969360
 30
0.0
 10
27.486074
 20
23.969360
 30
0.0
 10
27.205781
 20
23.969360
 30
0.0
 10
27.062223
 20
23.972775
 30
0.0
 10
26.929208
 20
23.982992
 30
0.0
 10
26.806734
 20
24.000038
 30
0.0
 10
26.694803
 20
24.023914
 30
0.0
 10
26.593414
 20
24.054608
 30
0.0
 10
26.502567
 20
24.092130
 30
0.0
 10
26.422263
 20
24.136473
 30
0.0
 10
26.352500
 20
24.187640
 30
0.0
 10
26.292038
 20
24.249333
 30
0.0
 10
26.239638
 20
24.315371
 30
0.0
 10
26.195299
 20
24.385751
 30
0.0
 10
26.159022
 20
24.460475
 30
0.0
 10
26.130806
 20
24.539542
 30
0.0
 10
26.110652
 20
24.622950
 30
0.0
 10
26.098562
 20
24.710702
 30
0.0
 10
26.094532
 20
24.802797
 30
0.0
 10
26.098562
 20
24.894567
 30
0.0
 10
26.110652
 20
24.981378
 30
0.0
 10
26.130806
 20
25.063228
 30
0.0
 10
26.159022
 20
25.140123
 30
0.0
 10
26.195299
 20
25.212058
 30
0.0
 10
26.239638
 20
25.279032
 30
0.0
 10
26.292038
 20
25.341051
 30
0.0
 10
26.352500
 20
25.398108
 30
0.0
 10
26.422263
 20
25.453911
 30
0.0
 10
26.502567
 20
25.502276
 30
0.0
 10
26.593414
 20
25.543198
 30
0.0
 10
26.694803
 20
25.576684
 30
0.0
 10
26.806734
 20
25.602733
 30
0.0
 10
26.929208
 20
25.621331
 30
0.0
 10
27.062223
 20
25.632507
 30
0.0
 10
27.205781
 20
25.636233
 30
0.0
 10
28.515468
 20
25.636233
 30
0.0
 10
29.825157
 20
25.636233
 30
0.0
 10
31.134843
 20
25.636233
 30
0.0
 10
32.444532
 20
25.636233
 30
0.0
 10
33.754218
 20
25.636233
 30
0.0
 10
35.063907
 20
25.636233
 30
0.0
 10
36.373593
 20
25.636233
 30
0.0
 10
37.683282
 20
25.636233
 30
0.0
 10
38.443851
 20
25.608010
 30
0.0
 10
39.167833
 20
25.523358
 30
0.0
 10
39.855230
 20
25.382278
 30
0.0
 10
40.506043
 20
25.184770
 30
0.0
 10
41.120272
 20
24.930835
 30
0.0
 10
41.697913
 20
24.620470
 30
0.0
 10
42.238967
 20
24.253677
 30
0.0
 10
42.743439
 20
23.830453
 30
0.0
 10
43.203868
 20
23.374041
 30
0.0
 10
43.602910
 20
22.897785
 30
0.0
 10
43.940561
 20
22.401689
 30
0.0
 10
44.216820
 20
21.885750
 30
0.0
 10
44.431692
 20
21.349971
 30
0.0
 10
44.585173
 20
20.794349
 30
0.0
 10
44.677265
 20
20.218884
 30
0.0
 10
44.707968
 20
19.623578
 30
0.0
 10
44.656801
 20
18.877882
 30
0.0
 10
44.503317
 20
18.168774
 30
0.0
 10
44.247517
 20
17.496255
 30
0.0
 10
43.889399
 20
16.860327
 30
0.0
 10
43.428962
 20
16.260985
 30
0.0
 10
42.866211
 20
15.698234
 30
0.0
 10
42.201138
 20
15.172070
 30
0.0
 10
41.433750
 20
14.682497
 30
0.0
 10
42.061923
 20
14.439701
 30
0.0
 10
42.646687
 20
14.177714
 30
0.0
 10
43.188049
 20
13.896480
 30
0.0
 10
43.686002
 20
13.596026
 30
0.0
 10
44.140546
 20
13.276353
 30
0.0
 10
44.551687
 20
12.937460
 30
0.0
 10
44.919423
 20
12.579349
 30
0.0
 10
45.243750
 20
12.202017
 30
0.0
 10
45.527445
 20
11.810095
 30
0.0
 10
45.773317
 20
11.408267
 30
0.0
 10
45.981363
 20
10.996505
 30
0.0
 10
46.151586
 20
10.574837
 30
0.0
 10
46.283982
 20
10.143235
 30
0.0
 10
46.378551
 20
9.701698
 30
0.0
 10
46.435298
 20
9.250255
 30
0.0
 10
46.454207
 20
8.788878
 30
0.0
 10
46.441789
 20
8.376495
 30
0.0
 10
46.404578
 20
7.972805
 30
0.0
 10
46.342562
 20
7.577806
 30
0.0
 10
46.255745
 20
7.191472
 30
0.0
 10
46.144126
 20
6.813803
 30
0.0
 10
46.007703
 20
6.444853
 30
0.0
 10
45.846478
 20
6.084569
 30
0.0
 10
45.660448
 20
5.732948
 30
0.0
 10
45.448672
 20
5.396849
 30
0.0
 10
45.210233
 20
5.073141
 30
0.0
 10
44.945131
 20
4.761849
 30
0.0
 10
44.653364
 20
4.462948
 30
0.0
 10
44.334935
 20
4.176464
 30
0.0
 10
43.989842
 20
3.902370
 30
0.0
 10
43.618088
 20
3.640665
 30
0.0
 10
43.219669
 20
3.391378
 30
0.0
 10
42.808215
 20
3.163484
 30
0.0
 10
42.387461
 20
2.965985
 30
0.0
 10
41.957408
 20
2.798853
 30
0.0
 10
41.518053
 20
2.662116
 30
0.0
 10
41.069398
 20
2.555775
 30
0.0
 10
40.611445
 20
2.479801
 30
0.0
 10
40.144192
 20
2.434222
 30
0.0
 10
39.667637
 20
2.418982
 30
0.0
 10
38.109903
 20
2.418982
 30
0.0
 10
36.552169
 20
2.418982
 30
0.0
 10
34.994435
 20
2.418982
 30
0.0
 10
33.436698
 20
2.418982
 30
0.0
 10
31.878964
 20
2.418982
 30
0.0
 10
30.321230
 20
2.418982
 30
0.0
 10
28.763496
 20
2.418982
 30
0.0
 10
27.205762
 20
2.418982
 30
0.0
 10
27.062204
 20
2.422651
 30
0.0
 10
26.929188
 20
2.433657
 30
0.0
 10
26.806715
 20
2.452284
 30
0.0
 10
26.694783
 20
2.478248
 30
0.0
 10
26.593394
 20
2.511720
 30
0.0
 10
26.502548
 20
2.552670
 30
0.0
 10
26.422243
 20
2.601015
 30
0.0
 10
26.352481
 20
2.656839
 30
0.0
 10
26.292019
 20
2.718222
 30
0.0
 10
26.239619
 20
2.783331
 30
0.0
 10
26.195280
 20
2.852165
 30
0.0
 10
26.159003
 20
2.924724
 30
0.0
 10
26.130787
 20
3.001009
 30
0.0
 10
26.110633
 20
3.080990
 30
0.0
 10
26.098543
 20
3.164726
 30
0.0
 10
26.094513
 20
3.252158
 30
0.0
 10
26.098543
 20
3.343937
 30
0.0
 10
26.110633
 20
3.430748
 30
0.0
 10
26.130787
 20
3.512593
 30
0.0
 10
26.159003
 20
3.589498
 30
0.0
 10
26.195280
 20
3.661409
 30
0.0
 10
26.239619
 20
3.728380
 30
0.0
 10
26.292019
 20
3.790412
 30
0.0
 10
26.352481
 20
3.847449
 30
0.0
 10
26.422244
 20
3.903273
 30
0.0
 10
26.502549
 20
3.951618
 30
0.0
 10
26.593395
 20
3.992568
 30
0.0
 10
26.694784
 20
4.026040
 30
0.0
 10
26.806715
 20
4.052004
 30
0.0
 10
26.929189
 20
4.070631
 30
0.0
 10
27.062205
 20
4.081920
 30
0.0
 10
27.205762
 20
4.085589
 30
0.0
 10
27.486055
 20
4.085589
 30
0.0
 10
27.766348
 20
4.085589
 30
0.0
 10
28.046641
 20
4.085589
 30
0.0
 10
28.326933
 20
4.085589
 30
0.0
 10
28.607228
 20
4.085589
 30
0.0
 10
28.887520
 20
4.085589
 30
0.0
 10
29.167814
 20
4.085589
 30
0.0
 10
29.448106
 20
4.085589
 30
0.0
  0
LWPOLYLINE
  5
103
100
AcDbEntity
  8
Layer_1
 62
7
100
AcDbPolyline
 90
65
 70
0
 10
31.114981
 20
15.317144
 30
0.0
 10
31.851680
 20
15.317144
 30
0.0
 10
32.588379
 20
15.317144
 30
0.0
 10
33.325077
 20
15.317144
 30
0.0
 10
34.061779
 20
15.317144
 30
0.0
 10
34.798478
 20
15.317144
 30
0.0
 10
35.535177
 20
15.317144
 30
0.0
 10
36.271875
 20
15.317144
 30
0.0
 10
37.008574
 20
15.317144
 30
0.0
 10
37.474898
 20
15.328010
 30
0.0
 10
37.931303
 20
15.360561
 30
0.0
 10
38.377784
 20
15.414818
 30
0.0
 10
38.814345
 20
15.490781
 30
0.0
 10
39.240986
 20
15.588453
 30
0.0
 10
39.657707
 20
15.707824
 30
0.0
 10
40.064507
 20
15.848904
 30
0.0
 10
40.461388
 20
16.011690
 30
0.0
 10
40.755627
 20
16.158344
 30
0.0
 10
41.033125
 20
16.320500
 30
0.0
 10
41.293882
 20
16.498162
 30
0.0
 10
41.537896
 20
16.691329
 30
0.0
 10
41.765170
 20
16.899999
 30
0.0
 10
41.975705
 20
17.124173
 30
0.0
 10
42.169496
 20
17.363851
 30
0.0
 10
42.346545
 20
17.619033
 30
0.0
 10
42.504668
 20
17.882578
 30
0.0
 10
42.641710
 20
18.147364
 30
0.0
 10
42.757669
 20
18.413393
 30
0.0
 10
42.852544
 20
18.680663
 30
0.0
 10
42.926340
 20
18.949175
 30
0.0
 10
42.979053
 20
19.218925
 30
0.0
 10
43.010682
 20
19.489921
 30
0.0
 10
43.021237
 20
19.762158
 30
0.0
 10
42.998292
 20
20.150036
 30
0.0
 10
42.929455
 20
20.529853
 30
0.0
 10
42.814729
 20
20.901611
 30
0.0
 10
42.654119
 20
21.265310
 30
0.0
 10
42.447620
 20
21.620947
 30
0.0
 10
42.195237
 20
21.968526
 30
0.0
 10
41.896965
 20
22.308045
 30
0.0
 10
41.552806
 20
22.639504
 30
0.0
 10
41.171739
 20
22.951105
 30
0.0
 10
40.762768
 20
23.221161
 30
0.0
 10
40.325893
 20
23.449671
 30
0.0
 10
39.861115
 20
23.636637
 30
0.0
 10
39.368432
 20
23.782055
 30
0.0
 10
38.847845
 20
23.885927
 30
0.0
 10
38.299354
 20
23.948253
 30
0.0
 10
37.722960
 20
23.969025
 30
0.0
 10
36.896964
 20
23.969025
 30
0.0
 10
36.070967
 20
23.969025
 30
0.0
 10
35.244973
 20
23.969025
 30
0.0
 10
34.418976
 20
23.969025
 30
0.0
 10
33.592980
 20
23.969025
 30
0.0
 10
32.766983
 20
23.969025
 30
0.0
 10
31.940989
 20
23.969025
 30
0.0
 10
31.114992
 20
23.969025
 30
0.0
 10
31.114992
 20
22.887541
 30
0.0
 10
31.114992
 20
21.806057
 30
0.0
 10
31.114992
 20
20.724573
 30
0.0
 10
31.114992
 20
19.643089
 30
0.0
 10
31.114992
 20
18.561602
 30
0.0
 10
31.114992
 20
17.480118
 30
0.0
 10
31.114992
 20
16.398634
 30
0.0
 10
31.114992
 20
15.317150
 30
0.0
  0
LWPOLYLINE
  5
104
100
AcDbEntity
  8
Layer_1
 62
7
100
AcDbPolyline
 90
73
 70
0
 10
31.114992
 20
4.085594
 30
0.0
 10
32.169191
 20
4.085594
 30
0.0
 10
33.223390
 20
4.085594
 30
0.0
 10
34.277589
 20
4.085594
 30
0.0
 10
35.331787
 20
4.085594
 30
0.0
 10
36.385989
 20
4.085594
 30
0.0
 10
37.440188
 20
4.085594
 30
0.0
 10
38.494387
 20
4.085594
 30
0.0
 10
39.548585
 20
4.085594
 30
0.0
 10
39.943905
 20
4.096601
 30
0.0
 10
40.326204
 20
4.130101
 30
0.0
 10
40.695480
 20
4.185896
 30
0.0
 10
41.051738
 20
4.264043
 30
0.0
 10
41.394974
 20
4.364486
 30
0.0
 10
41.725188
 20
4.487281
 30
0.0
 10
42.042383
 20
4.632371
 30
0.0
 10
42.346556
 20
4.799814
 30
0.0
 10
42.635213
 20
4.983682
 30
0.0
 10
42.905890
 20
5.178076
 30
0.0
 10
43.158586
 20
5.383026
 30
0.0
 10
43.393299
 20
5.598531
 30
0.0
 10
43.610031
 20
5.824563
 30
0.0
 10
43.808781
 20
6.061150
 30
0.0
 10
43.989550
 20
6.308263
 30
0.0
 10
44.152335
 20
6.565904
 30
0.0
 10
44.296506
 20
6.830064
 30
0.0
 10
44.421457
 20
7.096736
 30
0.0
 10
44.527183
 20
7.365863
 30
0.0
 10
44.613690
 20
7.637474
 30
0.0
 10
44.680972
 20
7.911568
 30
0.0
 10
44.729034
 20
8.188146
 30
0.0
 10
44.757874
 20
8.467179
 30
0.0
 10
44.767498
 20
8.748724
 30
0.0
 10
44.753528
 20
9.064982
 30
0.0
 10
44.711666
 20
9.378757
 30
0.0
 10
44.641898
 20
9.690048
 30
0.0
 10
44.544229
 20
9.998883
 30
0.0
 10
44.418657
 20
10.305207
 30
0.0
 10
44.265182
 20
10.609076
 30
0.0
 10
44.083801
 20
10.910461
 30
0.0
 10
43.874519
 20
11.209363
 30
0.0
 10
43.645380
 20
11.498020
 30
0.0
 10
43.394538
 20
11.768699
 30
0.0
 10
43.121993
 20
12.021373
 30
0.0
 10
42.827745
 20
12.256097
 30
0.0
 10
42.511797
 20
12.472815
 30
0.0
 10
42.174147
 20
12.671584
 30
0.0
 10
41.814793
 20
12.852348
 30
0.0
 10
41.433737
 20
13.015133
 30
0.0
 10
41.023213
 20
13.159321
 30
0.0
 10
40.575485
 20
13.284261
 30
0.0
 10
40.090554
 20
13.389981
 30
0.0
 10
39.568414
 20
13.476510
 30
0.0
 10
39.009070
 20
13.543792
 30
0.0
 10
38.412520
 20
13.591855
 30
0.0
 10
37.778761
 20
13.620669
 30
0.0
 10
37.107801
 20
13.630265
 30
0.0
 10
36.358698
 20
13.630265
 30
0.0
 10
35.609596
 20
13.630265
 30
0.0
 10
34.860496
 20
13.630265
 30
0.0
 10
34.111394
 20
13.630265
 30
0.0
 10
33.362291
 20
13.630265
 30
0.0
 10
32.613189
 20
13.630265
 30
0.0
 10
31.864089
 20
13.630265
 30
0.0
 10
31.114987
 20
13.630265
 30
0.0
 10
31.114987
 20
12.437171
 30
0.0
 10
31.114987
 20
11.244048
 30
0.0
 10
31.114987
 20
10.050953
 30
0.0
 10
31.114987
 20
8.857859
 30
0.0
 10
31.114987
 20
7.664736
 30
0.0
 10
31.114987
 20
6.471642
 30
0.0
 10
31.114987
 20
5.278519
 30
0.0
 10
31.114987
 20
4.085425
 30
0.0
  0
LWPOLYLINE
  5
105
100
AcDbEntity
  8
Layer_1
 62
7
100
AcDbPolyline
 90
81
 70
0
 10
71.120000
 20
13.968110
 30
0.0
 10
71.098918
 20
13.142102
 30
0.0
 10
71.035661
 20
12.330996
 30
0.0
 10
70.930237
 20
11.534762
 30
0.0
 10
70.782648
 20
10.753430
 30
0.0
 10
70.592894
 20
9.986971
 30
0.0
 10
70.360972
 20
9.235385
 30
0.0
 10
70.086886
 20
8.498672
 30
0.0
 10
69.770633
 20
7.776860
 30
0.0
 10
69.417161
 20
7.086968
 30
0.0
 10
69.031443
 20
6.436164
 30
0.0
 10
68.613480
 20
5.824419
 30
0.0
 10
68.163276
 20
5.251734
 30
0.0
 10
67.680826
 20
4.718136
 30
0.0
 10
67.166132
 20
4.223598
 30
0.0
 10
66.619191
 20
3.768120
 30
0.0
 10
66.040008
 20
3.351701
 30
0.0
 10
65.444071
 20
2.979619
 30
0.0
 10
64.836974
 20
2.657180
 30
0.0
 10
64.218713
 20
2.384328
 30
0.0
 10
63.589295
 20
2.161090
 30
0.0
 10
62.948716
 20
1.987438
 30
0.0
 10
62.296974
 20
1.863430
 30
0.0
 10
61.634071
 20
1.789008
 30
0.0
 10
60.960008
 20
1.764172
 30
0.0
 10
59.967817
 20
1.817512
 30
0.0
 10
59.005394
 20
1.977504
 30
0.0
 10
58.072737
 20
2.244148
 30
0.0
 10
57.169846
 20
2.617471
 30
0.0
 10
56.296724
 20
3.097447
 30
0.0
 10
55.453365
 20
3.684074
 30
0.0
 10
54.639772
 20
4.377353
 30
0.0
 10
53.855947
 20
5.177312
 30
0.0
 10
53.139710
 20
6.065634
 30
0.0
 10
52.518970
 20
7.014098
 30
0.0
 10
51.993732
 20
8.022704
 30
0.0
 10
51.563990
 20
9.091480
 30
0.0
 10
51.229748
 20
10.220397
 30
0.0
 10
50.991002
 20
11.409484
 30
0.0
 10
50.847758
 20
12.658712
 30
0.0
 10
50.800008
 20
13.968082
 30
0.0
 10
50.847758
 20
15.281796
 30
0.0
 10
50.991005
 20
16.534117
 30
0.0
 10
51.229751
 20
17.725050
 30
0.0
 10
51.563992
 20
18.854593
 30
0.0
 10
51.993732
 20
19.922745
 30
0.0
 10
52.518973
 20
20.929508
 30
0.0
 10
53.139710
 20
21.874882
 30
0.0
 10
53.855947
 20
22.758864
 30
0.0
 10
54.639772
 20
23.558809
 30
0.0
 10
55.453365
 20
24.252093
 30
0.0
 10
56.296724
 20
24.838721
 30
0.0
 10
57.169846
 20
25.318690
 30
0.0
 10
58.072737
 20
25.692003
 30
0.0
 10
59.005394
 20
25.958657
 30
0.0
 10
59.967817
 20
26.118652
 30
0.0
 10
60.960008
 20
26.171989
 30
0.0
 10
61.634071
 20
26.147182
 30
0.0
 10
62.296974
 20
26.072763
 30
0.0
 10
62.948716
 20
25.948737
 30
0.0
 10
63.589295
 20
25.775103
 30
0.0
 10
64.218713
 20
25.551862
 30
0.0
 10
64.836974
 20
25.279013
 30
0.0
 10
65.444071
 20
24.956557
 30
0.0
 10
66.040008
 20
24.584495
 30
0.0
 10
66.614542
 20
24.168079
 30
0.0
 10
67.157450
 20
23.712600
 30
0.0
 10
67.668733
 20
23.218054
 30
0.0
 10
68.148392
 20
22.684442
 30
0.0
 10
68.596428
 20
22.111762
 30
0.0
 10
69.012839
 20
21.500020
 30
0.0
 10
69.397626
 20
20.849213
 30
0.0
 10
69.750790
 20
20.159338
 30
0.0
 10
70.071694
 20
19.441858
 30
0.0
 10
70.349813
 20
18.708256
 30
0.0
 10
70.585144
 20
17.958532
 30
0.0
 10
70.777687
 20
17.192686
 30
0.0
 10
70.927445
 20
16.410721
 30
0.0
 10
71.034419
 20
15.612631
 30
0.0
 10
71.098608
 20
14.798420
 30
0.0
 10
71.120000
 20
13.968088
 30
0.0
  0
LWPOLYLINE
  5
106
100
AcDbEntity
  8
Layer_1
 62
7
100
AcDbPolyline
 90
65
 70
0
 10
69.433282
 20
13.968088
 30
0.0
 10
69.396379
 20
14.972054
 30
0.0
 10
69.285683
 20
15.949974
 30
0.0
 10
69.101194
 20
16.901853
 30
0.0
 10
68.842913
 20
17.827686
 30
0.0
 10
68.510841
 20
18.727478
 30
0.0
 10
68.104978
 20
19.601224
 30
0.0
 10
67.625321
 20
20.448929
 30
0.0
 10
67.071875
 20
21.270588
 30
0.0
 10
66.459814
 20
22.028673
 30
0.0
 10
65.804347
 20
22.685684
 30
0.0
 10
65.105472
 20
23.241617
 30
0.0
 10
64.363191
 20
23.696471
 30
0.0
 10
63.577504
 20
24.050248
 30
0.0
 10
62.748408
 20
24.302950
 30
0.0
 10
61.875907
 20
24.454574
 30
0.0
 10
60.960000
 20
24.505120
 30
0.0
 10
60.097724
 20
24.456744
 30
0.0
 10
59.267076
 20
24.311631
 30
0.0
 10
58.468054
 20
24.069784
 30
0.0
 10
57.700658
 20
23.731199
 30
0.0
 10
56.964890
 20
23.295877
 30
0.0
 10
56.260749
 20
22.763820
 30
0.0
 10
55.588233
 20
22.135026
 30
0.0
 10
54.947343
 20
21.409495
 30
0.0
 10
54.365982
 20
20.620390
 30
0.0
 10
53.862137
 20
19.790981
 30
0.0
 10
53.435806
 20
18.921263
 30
0.0
 10
53.086988
 20
18.011240
 30
0.0
 10
52.815688
 20
17.060913
 30
0.0
 10
52.621902
 20
16.070277
 30
0.0
 10
52.505633
 20
15.039336
 30
0.0
 10
52.466875
 20
13.968088
 30
0.0
 10
52.507492
 20
12.833583
 30
0.0
 10
52.629348
 20
11.751797
 30
0.0
 10
52.832435
 20
10.722702
 30
0.0
 10
53.116757
 20
9.746326
 30
0.0
 10
53.482316
 20
8.822669
 30
0.0
 10
53.929111
 20
7.951703
 30
0.0
 10
54.457140
 20
7.133456
 30
0.0
 10
55.066407
 20
6.367928
 30
0.0
 10
55.731481
 20
5.679588
 30
0.0
 10
56.417018
 20
5.083055
 30
0.0
 10
57.123020
 20
4.578272
 30
0.0
 10
57.849485
 20
4.165268
 30
0.0
 10
58.596417
 20
3.844071
 30
0.0
 10
59.363813
 20
3.614625
 30
0.0
 10
60.151673
 20
3.476957
 30
0.0
 10
60.960000
 20
3.431067
 30
0.0
 10
61.875907
 20
3.481303
 30
0.0
 10
62.748408
 20
3.631981
 30
0.0
 10
63.577504
 20
3.883131
 30
0.0
 10
64.363191
 20
4.234723
 30
0.0
 10
65.105472
 20
4.686787
 30
0.0
 10
65.804347
 20
5.239321
 30
0.0
 10
66.459814
 20
5.892299
 30
0.0
 10
67.071875
 20
6.645748
 30
0.0
 10
67.625321
 20
7.467720
 30
0.0
 10
68.104978
 20
8.316334
 30
0.0
 10
68.510841
 20
9.191618
 30
0.0
 10
68.842913
 20
10.093600
 30
0.0
 10
69.101194
 20
11.022224
 30
0.0
 10
69.285683
 20
11.977518
 30
0.0
 10
69.396379
 20
12.959454
 30
0.0
 10
69.433282
 20
13.968088
 30
0.0
  0
LWPOLYLINE
  5
107
100
AcDbEntity
  8
Layer_1
 62
7
100
AcDbPolyline
 90
209
 70
0
 10
82.411093
 20
23.969360
 30
0.0
 10
82.411093
 20
21.483931
 30
0.0
 10
82.411093
 20
18.998501
 30
0.0
 10
82.411093
 20
16.513075
 30
0.0
 10
82.411093
 20
14.027631
 30
0.0
 10
82.411093
 20
11.542213
 30
0.0
 10
82.411093
 20
9.056795
 30
0.0
 10
82.411093
 20
6.571348
 30
0.0
 10
82.411093
 20
4.085930
 30
0.0
 10
83.795195
 20
4.085930
 30
0.0
 10
85.179298
 20
4.085930
 30
0.0
 10
86.563398
 20
4.085930
 30
0.0
 10
87.947500
 20
4.085930
 30
0.0
 10
89.331602
 20
4.085930
 30
0.0
 10
90.715702
 20
4.085930
 30
0.0
 10
92.099805
 20
4.085930
 30
0.0
 10
93.483907
 20
4.085930
 30
0.0
 10
93.483907
 20
4.914393
 30
0.0
 10
93.483907
 20
5.742885
 30
0.0
 10
93.483907
 20
6.571348
 30
0.0
 10
93.483907
 20
7.399840
 30
0.0
 10
93.483907
 20
8.228303
 30
0.0
 10
93.483907
 20
9.056795
 30
0.0
 10
93.483907
 20
9.885258
 30
0.0
 10
93.483907
 20
10.713750
 30
0.0
 10
93.487632
 20
10.857288
 30
0.0
 10
93.498780
 20
10.990299
 30
0.0
 10
93.517379
 20
11.112784
 30
0.0
 10
93.543428
 20
11.224713
 30
0.0
 10
93.576916
 20
11.326087
 30
0.0
 10
93.617847
 20
11.416934
 30
0.0
 10
93.666220
 20
11.497255
 30
0.0
 10
93.722038
 20
11.567020
 30
0.0
 10
93.783731
 20
11.627472
 30
0.0
 10
93.849769
 20
11.679881
 30
0.0
 10
93.920149
 20
11.724218
 30
0.0
 10
93.994873
 20
11.760484
 30
0.0
 10
94.073940
 20
11.788706
 30
0.0
 10
94.157348
 20
11.808744
 30
0.0
 10
94.245100
 20
11.820879
 30
0.0
 10
94.337195
 20
11.824830
 30
0.0
 10
94.424624
 20
11.820879
 30
0.0
 10
94.508334
 20
11.808744
 30
0.0
 10
94.588324
 20
11.788706
 30
0.0
 10
94.664598
 20
11.760484
 30
0.0
 10
94.737154
 20
11.724218
 30
0.0
 10
94.805988
 20
11.679881
 30
0.0
 10
94.871105
 20
11.627472
 30
0.0
 10
94.932506
 20
11.567020
 30
0.0
 10
94.988309
 20
11.501601
 30
0.0
 10
95.036674
 20
11.424385
 30
0.0
 10
95.077596
 20
11.335400
 30
0.0
 10
95.111082
 20
11.234619
 30
0.0
 10
95.137131
 20
11.122069
 30
0.0
 10
95.155729
 20
10.997750
 30
0.0
 10
95.166905
 20
10.861634
 30
0.0
 10
95.170631
 20
10.713750
 30
0.0
 10
95.170631
 20
9.676922
 30
0.0
 10
95.170631
 20
8.640065
 30
0.0
 10
95.170631
 20
7.603237
 30
0.0
 10
95.170631
 20
6.566381
 30
0.0
 10
95.170631
 20
5.529553
 30
0.0
 10
95.170631
 20
4.492725
 30
0.0
 10
95.170631
 20
3.455869
 30
0.0
 10
95.170631
 20
2.419041
 30
0.0
 10
92.868756
 20
2.419041
 30
0.0
 10
90.566881
 20
2.419041
 30
0.0
 10
88.265006
 20
2.419041
 30
0.0
 10
85.963131
 20
2.419041
 30
0.0
 10
83.661256
 20
2.419041
 30
0.0
 10
81.359381
 20
2.419041
 30
0.0
 10
79.057506
 20
2.419041
 30
0.0
 10
76.755631
 20
2.419041
 30
0.0
 10
76.612073
 20
2.422710
 30
0.0
 10
76.479056
 20
2.433716
 30
0.0
 10
76.356583
 20
2.452343
 30
0.0
 10
76.244653
 20
2.478308
 30
0.0
 10
76.143262
 20
2.511779
 30
0.0
 10
76.052418
 20
2.552730
 30
0.0
 10
75.972111
 20
2.601074
 30
0.0
 10
75.902349
 20
2.656898
 30
0.0
 10
75.841888
 20
2.718281
 30
0.0
 10
75.789488
 20
2.783390
 30
0.0
 10
75.745148
 20
2.852224
 30
0.0
 10
75.708871
 20
2.924783
 30
0.0
 10
75.680649
 20
3.001068
 30
0.0
 10
75.660498
 20
3.081050
 30
0.0
 10
75.648419
 20
3.164785
 30
0.0
 10
75.644383
 20
3.252217
 30
0.0
 10
75.648419
 20
3.343996
 30
0.0
 10
75.660498
 20
3.430808
 30
0.0
 10
75.680649
 20
3.512652
 30
0.0
 10
75.708871
 20
3.589558
 30
0.0
 10
75.745148
 20
3.661468
 30
0.0
 10
75.789485
 20
3.728439
 30
0.0
 10
75.841885
 20
3.790472
 30
0.0
 10
75.902349
 20
3.847509
 30
0.0
 10
75.972111
 20
3.903332
 30
0.0
 10
76.052418
 20
3.951677
 30
0.0
 10
76.143262
 20
3.992627
 30
0.0
 10
76.244653
 20
4.026099
 30
0.0
 10
76.356583
 20
4.052063
 30
0.0
 10
76.479056
 20
4.070690
 30
0.0
 10
76.612073
 20
4.081979
 30
0.0
 10
76.755631
 20
4.085648
 30
0.0
 10
77.251724
 20
4.085648
 30
0.0
 10
77.747817
 20
4.085648
 30
0.0
 10
78.243913
 20
4.085648
 30
0.0
 10
78.740006
 20
4.085648
 30
0.0
 10
79.236099
 20
4.085648
 30
0.0
 10
79.732192
 20
4.085648
 30
0.0
 10
80.228288
 20
4.085648
 30
0.0
 10
80.724381
 20
4.085648
 30
0.0
 10
80.724381
 20
6.571066
 30
0.0
 10
80.724381
 20
9.056512
 30
0.0
 10
80.724381
 20
11.541931
 30
0.0
 10
80.724381
 20
14.027377
 30
0.0
 10
80.724381
 20
16.512793
 30
0.0
 10
80.724381
 20
18.998222
 30
0.0
 10
80.724381
 20
21.483649
 30
0.0
 10
80.724381
 20
23.969078
 30
0.0
 10
80.228288
 20
23.969078
 30
0.0
 10
79.732192
 20
23.969078
 30
0.0
 10
79.236099
 20
23.969078
 30
0.0
 10
78.740006
 20
23.969078
 30
0.0
 10
78.243913
 20
23.969078
 30
0.0
 10
77.747817
 20
23.969078
 30
0.0
 10
77.251724
 20
23.969078
 30
0.0
 10
76.755631
 20
23.969078
 30
0.0
 10
76.612073
 20
23.972493
 30
0.0
 10
76.479056
 20
23.982710
 30
0.0
 10
76.356583
 20
23.999756
 30
0.0
 10
76.244653
 20
24.023632
 30
0.0
 10
76.143262
 20
24.054326
 30
0.0
 10
76.052418
 20
24.091848
 30
0.0
 10
75.972111
 20
24.136190
 30
0.0
 10
75.902349
 20
24.187357
 30
0.0
 10
75.841885
 20
24.249051
 30
0.0
 10
75.789485
 20
24.315088
 30
0.0
 10
75.745148
 20
24.385469
 30
0.0
 10
75.708871
 20
24.460193
 30
0.0
 10
75.680649
 20
24.539260
 30
0.0
 10
75.660498
 20
24.622668
 30
0.0
 10
75.648419
 20
24.710420
 30
0.0
 10
75.644383
 20
24.802514
 30
0.0
 10
75.648419
 20
24.894285
 30
0.0
 10
75.660498
 20
24.981096
 30
0.0
 10
75.680649
 20
25.062946
 30
0.0
 10
75.708871
 20
25.139840
 30
0.0
 10
75.745148
 20
25.211776
 30
0.0
 10
75.789485
 20
25.278750
 30
0.0
 10
75.841885
 20
25.340769
 30
0.0
 10
75.902349
 20
25.397825
 30
0.0
 10
75.972111
 20
25.453629
 30
0.0
 10
76.052418
 20
25.501994
 30
0.0
 10
76.143262
 20
25.542916
 30
0.0
 10
76.244653
 20
25.576402
 30
0.0
 10
76.356583
 20
25.602451
 30
0.0
 10
76.479056
 20
25.621049
 30
0.0
 10
76.612073
 20
25.632225
 30
0.0
 10
76.755631
 20
25.635950
 30
0.0
 10
77.958656
 20
25.635950
 30
0.0
 10
79.161685
 20
25.635950
 30
0.0
 10
80.364714
 20
25.635950
 30
0.0
 10
81.567740
 20
25.635950
 30
0.0
 10
82.770768
 20
25.635950
 30
0.0
 10
83.973794
 20
25.635950
 30
0.0
 10
85.176823
 20
25.635950
 30
0.0
 10
86.379849
 20
25.635950
 30
0.0
 10
86.523401
 20
25.632225
 30
0.0
 10
86.656412
 20
25.621049
 30
0.0
 10
86.778886
 20
25.602451
 30
0.0
 10
86.890815
 20
25.576402
 30
0.0
 10
86.992206
 20
25.542916
 30
0.0
 10
87.083056
 20
25.501994
 30
0.0
 10
87.163362
 20
25.453629
 30
0.0
 10
87.233131
 20
25.397825
 30
0.0
 10
87.293588
 20
25.340769
 30
0.0
 10
87.345983
 20
25.278750
 30
0.0
 10
87.390320
 20
25.211776
 30
0.0
 10
87.426597
 20
25.139840
 30
0.0
 10
87.454819
 20
25.062946
 30
0.0
 10
87.474970
 20
24.981096
 30
0.0
 10
87.487077
 20
24.894285
 30
0.0
 10
87.491113
 20
24.802514
 30
0.0
 10
87.487077
 20
24.710420
 30
0.0
 10
87.474970
 20
24.622668
 30
0.0
 10
87.454819
 20
24.539260
 30
0.0
 10
87.426597
 20
24.460193
 30
0.0
 10
87.390320
 20
24.385469
 30
0.0
 10
87.345983
 20
24.315088
 30
0.0
 10
87.293588
 20
24.249051
 30
0.0
 10
87.233131
 20
24.187357
 30
0.0
 10
87.163362
 20
24.136190
 30
0.0
 10
87.083056
 20
24.091848
 30
0.0
 10
86.992206
 20
24.054326
 30
0.0
 10
86.890815
 20
24.023632
 30
0.0
 10
86.778886
 20
23.999756
 30
0.0
 10
86.656412
 20
23.982710
 30
0.0
 10
86.523401
 20
23.972493
 30
0.0
 10
86.379849
 20
23.969078
 30
0.0
 10
85.883756
 20
23.969078
 30
0.0
 10
85.387660
 20
23.969078
 30
0.0
 10
84.891567
 20
23.969078
 30
0.0
 10
84.395474
 20
23.969078
 30
0.0
 10
83.899381
 20
23.969078
 30
0.0
 10
83.403285
 20
23.969078
 30
0.0
 10
82.907192
 20
23.969078
 30
0.0
 10
82.411099
 20
23.969078
 30
0.0
  0
LWPOLYLINE
  5
108
100
AcDbEntity
  8
Layer_1
 62
7
100
AcDbPolyline
 90
193
 70
0
 10
110.509843
 20
23.969360
 30
0.0
 10
110.509843
 20
21.483931
 30
0.0
 10
110.509843
 20
18.998501
 30
0.0
 10
110.509843
 20
16.513075
 30
0.0
 10
110.509843
 20
14.027631
 30
0.0
 10
110.509843
 20
11.542213
 30
0.0
 10
110.509843
 20
9.056795
 30
0.0
 10
110.509843
 20
6.571348
 30
0.0
 10
110.509843
 20
4.085930
 30
0.0
 10
111.224218
 20
4.085930
 30
0.0
 10
111.938593
 20
4.085930
 30
0.0
 10
112.652968
 20
4.085930
 30
0.0
 10
113.367343
 20
4.085930
 30
0.0
 10
114.081718
 20
4.085930
 30
0.0
 10
114.796093
 20
4.085930
 30
0.0
 10
115.510468
 20
4.085930
 30
0.0
 10
116.224843
 20
4.085930
 30
0.0
 10
116.368395
 20
4.082261
 30
0.0
 10
116.501407
 20
4.070972
 30
0.0
 10
116.623877
 20
4.052346
 30
0.0
 10
116.735806
 20
4.026381
 30
0.0
 10
116.837198
 20
3.992910
 30
0.0
 10
116.928048
 20
3.951959
 30
0.0
 10
117.008357
 20
3.903614
 30
0.0
 10
117.078125
 20
3.847791
 30
0.0
 10
117.138580
 20
3.790754
 30
0.0
 10
117.190974
 20
3.728721
 30
0.0
 10
117.235311
 20
3.661750
 30
0.0
 10
117.271588
 20
3.589840
 30
0.0
 10
117.299811
 20
3.512934
 30
0.0
 10
117.319961
 20
3.431090
 30
0.0
 10
117.332069
 20
3.344278
 30
0.0
 10
117.336104
 20
3.252500
 30
0.0
 10
117.332069
 20
3.165067
 30
0.0
 10
117.319961
 20
3.081332
 30
0.0
 10
117.299811
 20
3.001350
 30
0.0
 10
117.271588
 20
2.925065
 30
0.0
 10
117.235311
 20
2.852506
 30
0.0
 10
117.190974
 20
2.783672
 30
0.0
 10
117.138580
 20
2.718563
 30
0.0
 10
117.078125
 20
2.657180
 30
0.0
 10
117.008357
 20
2.601356
 30
0.0
 10
116.928048
 20
2.553012
 30
0.0
 10
116.837198
 20
2.512061
 30
0.0
 10
116.735806
 20
2.478590
 30
0.0
 10
116.623877
 20
2.452625
 30
0.0
 10
116.501407
 20
2.433999
 30
0.0
 10
116.368395
 20
2.422992
 30
0.0
 10
116.224843
 20
2.419323
 30
0.0
 10
114.587734
 20
2.419323
 30
0.0
 10
112.950625
 20
2.419323
 30
0.0
 10
111.313516
 20
2.419323
 30
0.0
 10
109.676404
 20
2.419323
 30
0.0
 10
108.039295
 20
2.419323
 30
0.0
 10
106.402186
 20
2.419323
 30
0.0
 10
104.765077
 20
2.419323
 30
0.0
 10
103.127968
 20
2.419323
 30
0.0
 10
102.984410
 20
2.422992
 30
0.0
 10
102.851393
 20
2.433999
 30
0.0
 10
102.728920
 20
2.452625
 30
0.0
 10
102.616988
 20
2.478590
 30
0.0
 10
102.515599
 20
2.512061
 30
0.0
 10
102.424752
 20
2.553012
 30
0.0
 10
102.344449
 20
2.601356
 30
0.0
 10
102.274689
 20
2.657180
 30
0.0
 10
102.214226
 20
2.718563
 30
0.0
 10
102.161823
 20
2.783672
 30
0.0
 10
102.117485
 20
2.852506
 30
0.0
 10
102.081209
 20
2.925065
 30
0.0
 10
102.052986
 20
3.001350
 30
0.0
 10
102.032836
 20
3.081332
 30
0.0
 10
102.020757
 20
3.165067
 30
0.0
 10
102.016721
 20
3.252500
 30
0.0
 10
102.020757
 20
3.344278
 30
0.0
 10
102.032836
 20
3.431090
 30
0.0
 10
102.052986
 20
3.512934
 30
0.0
 10
102.081209
 20
3.589840
 30
0.0
 10
102.117485
 20
3.661750
 30
0.0
 10
102.161823
 20
3.728721
 30
0.0
 10
102.214226
 20
3.790754
 30
0.0
 10
102.274689
 20
3.847791
 30
0.0
 10
102.344449
 20
3.903614
 30
0.0
 10
102.424752
 20
3.951959
 30
0.0
 10
102.515599
 20
3.992910
 30
0.0
 10
102.616988
 20
4.026381
 30
0.0
 10
102.728920
 20
4.052346
 30
0.0
 10
102.851393
 20
4.070972
 30
0.0
 10
102.984410
 20
4.082261
 30
0.0
 10
103.127968
 20
4.085930
 30
0.0
 10
103.842343
 20
4.085930
 30
0.0
 10
104.556718
 20
4.085930
 30
0.0
 10
105.271093
 20
4.085930
 30
0.0
 10
105.985468
 20
4.085930
 30
0.0
 10
106.699843
 20
4.085930
 30
0.0
 10
107.414218
 20
4.085930
 30
0.0
 10
108.128593
 20
4.085930
 30
0.0
 10
108.842968
 20
4.085930
 30
0.0
 10
108.842968
 20
6.571348
 30
0.0
 10
108.842968
 20
9.056795
 30
0.0
 10
108.842968
 20
11.542213
 30
0.0
 10
108.842968
 20
14.027631
 30
0.0
 10
108.842968
 20
16.513075
 30
0.0
 10
108.842968
 20
18.998501
 30
0.0
 10
108.842968
 20
21.483931
 30
0.0
 10
108.842968
 20
23.969360
 30
0.0
 10
108.128593
 20
23.969360
 30
0.0
 10
107.414218
 20
23.969360
 30
0.0
 10
106.699843
 20
23.969360
 30
0.0
 10
105.985468
 20
23.969360
 30
0.0
 10
105.271093
 20
23.969360
 30
0.0
 10
104.556718
 20
23.969360
 30
0.0
 10
103.842343
 20
23.969360
 30
0.0
 10
103.127968
 20
23.969360
 30
0.0
 10
102.984410
 20
23.972775
 30
0.0
 10
102.851393
 20
23.982992
 30
0.0
 10
102.728920
 20
24.000038
 30
0.0
 10
102.616988
 20
24.023914
 30
0.0
 10
102.515599
 20
24.054608
 30
0.0
 10
102.424752
 20
24.092130
 30
0.0
 10
102.344449
 20
24.136473
 30
0.0
 10
102.274689
 20
24.187640
 30
0.0
 10
102.214226
 20
24.249333
 30
0.0
 10
102.161823
 20
24.315371
 30
0.0
 10
102.117485
 20
24.385751
 30
0.0
 10
102.081209
 20
24.460475
 30
0.0
 10
102.052986
 20
24.539542
 30
0.0
 10
102.032836
 20
24.622950
 30
0.0
 10
102.020757
 20
24.710702
 30
0.0
 10
102.016721
 20
24.802797
 30
0.0
 10
102.020757
 20
24.894567
 30
0.0
 10
102.032836
 20
24.981378
 30
0.0
 10
102.052986
 20
25.063228
 30
0.0
 10
102.081209
 20
25.140123
 30
0.0
 10
102.117485
 20
25.212058
 30
0.0
 10
102.161823
 20
25.279032
 30
0.0
 10
102.214226
 20
25.341051
 30
0.0
 10
102.274689
 20
25.398108
 30
0.0
 10
102.344449
 20
25.453911
 30
0.0
 10
102.424752
 20
25.502276
 30
0.0
 10
102.515599
 20
25.543198
 30
0.0
 10
102.616988
 20
25.576684
 30
0.0
 10
102.728920
 20
25.602733
 30
0.0
 10
102.851393
 20
25.621331
 30
0.0
 10
102.984410
 20
25.632507
 30
0.0
 10
103.127968
 20
25.636233
 30
0.0
 10
104.765077
 20
25.636233
 30
0.0
 10
106.402186
 20
25.636233
 30
0.0
 10
108.039295
 20
25.636233
 30
0.0
 10
109.676404
 20
25.636233
 30
0.0
 10
111.313516
 20
25.636233
 30
0.0
 10
112.950625
 20
25.636233
 30
0.0
 10
114.587734
 20
25.636233
 30
0.0
 10
116.224843
 20
25.636233
 30
0.0
 10
116.368395
 20
25.632507
 30
0.0
 10
116.501407
 20
25.621331
 30
0.0
 10
116.623877
 20
25.602733
 30
0.0
 10
116.735806
 20
25.576684
 30
0.0
 10
116.837198
 20
25.543198
 30
0.0
 10
116.928048
 20
25.502276
 30
0.0
 10
117.008357
 20
25.453911
 30
0.0
 10
117.078125
 20
25.398108
 30
0.0
 10
117.138580
 20
25.341051
 30
0.0
 10
117.190974
 20
25.279032
 30
0.0
 10
117.235311
 20
25.212058
 30
0.0
 10
117.271588
 20
25.140123
 30
0.0
 10
117.299811
 20
25.063228
 30
0.0
 10
117.319961
 20
24.981378
 30
0.0
 10
117.332069
 20
24.894567
 30
0.0
 10
117.336104
 20
24.802797
 30
0.0
 10
117.332069
 20
24.710702
 30
0.0
 10
117.319961
 20
24.622950
 30
0.0
 10
117.299811
 20
24.539542
 30
0.0
 10
117.271588
 20
24.460475
 30
0.0
 10
117.235311
 20
24.385751
 30
0.0
 10
117.190974
 20
24.315371
 30
0.0
 10
117.138580
 20
24.249333
 30
0.0
 10
117.078125
 20
24.187640
 30
0.0
 10
117.008357
 20
24.136473
 30
0.0
 10
116.928048
 20
24.092130
 30
0.0
 10
116.837198
 20
24.054608
 30
0.0
 10
116.735806
 20
24.023914
 30
0.0
 10
116.623877
 20
24.000038
 30
0.0
 10
116.501407
 20
23.982992
 30
0.0
 10
116.368395
 20
23.972775
 30
0.0
 10
116.224843
 20
23.969360
 30
0.0
 10
115.510468
 20
23.969360
 30
0.0
 10
114.796093
 20
23.969360
 30
0.0
 10
114.081718
 20
23.969360
 30
0.0
 10
113.367343
 20
23.969360
 30
0.0
 10
112.652968
 20
23.969360
 30
0.0
 10
111.938593
 20
23.969360
 30
0.0
 10
111.224218
 20
23.969360
 30
0.0
 10
110.509843
 20
23.969360
 30
0.0
  0
LWPOLYLINE
  5
109
100
AcDbEntity
  8
Layer_1
 62
7
100
AcDbPolyline
 90
369
 70
0
 10
139.997657
 20
23.969360
 30
0.0
 10
139.997657
 20
24.038813
 30
0.0
 10
139.997657
 20
24.108267
 30
0.0
 10
139.997657
 20
24.177719
 30
0.0
 10
139.997657
 20
24.247172
 30
0.0
 10
139.997657
 20
24.316626
 30
0.0
 10
139.997657
 20
24.386078
 30
0.0
 10
139.997657
 20
24.455533
 30
0.0
 10
139.997657
 20
24.524985
 30
0.0
 10
140.001072
 20
24.668535
 30
0.0
 10
140.011288
 20
24.801546
 30
0.0
 10
140.028335
 20
24.924017
 30
0.0
 10
140.052211
 20
25.035946
 30
0.0
 10
140.082908
 20
25.137337
 30
0.0
 10
140.120426
 20
25.228187
 30
0.0
 10
140.164769
 20
25.308496
 30
0.0
 10
140.215936
 20
25.378267
 30
0.0
 10
140.277630
 20
25.438722
 30
0.0
 10
140.343670
 20
25.491114
 30
0.0
 10
140.414050
 20
25.535451
 30
0.0
 10
140.488772
 20
25.571725
 30
0.0
 10
140.567839
 20
25.599947
 30
0.0
 10
140.651247
 20
25.620098
 30
0.0
 10
140.738995
 20
25.632205
 30
0.0
 10
140.831090
 20
25.636241
 30
0.0
 10
140.922860
 20
25.632205
 30
0.0
 10
141.009675
 20
25.620098
 30
0.0
 10
141.091525
 20
25.599947
 30
0.0
 10
141.168419
 20
25.571725
 30
0.0
 10
141.240355
 20
25.535451
 30
0.0
 10
141.307329
 20
25.491114
 30
0.0
 10
141.369347
 20
25.438722
 30
0.0
 10
141.426404
 20
25.378267
 30
0.0
 10
141.482208
 20
25.308496
 30
0.0
 10
141.530572
 20
25.228187
 30
0.0
 10
141.571497
 20
25.137337
 30
0.0
 10
141.604983
 20
25.035946
 30
0.0
 10
141.631032
 20
24.924017
 30
0.0
 10
141.649631
 20
24.801546
 30
0.0
 10
141.660807
 20
24.668535
 30
0.0
 10
141.664532
 20
24.524985
 30
0.0
 10
141.664532
 20
23.994165
 30
0.0
 10
141.664532
 20
23.463344
 30
0.0
 10
141.664532
 20
22.932524
 30
0.0
 10
141.664532
 20
22.401706
 30
0.0
 10
141.664532
 20
21.870886
 30
0.0
 10
141.664532
 20
21.340065
 30
0.0
 10
141.664532
 20
20.809245
 30
0.0
 10
141.664532
 20
20.278424
 30
0.0
 10
141.660807
 20
20.134861
 30
0.0
 10
141.649631
 20
20.001844
 30
0.0
 10
141.631032
 20
19.879368
 30
0.0
 10
141.604983
 20
19.767436
 30
0.0
 10
141.571497
 20
19.666047
 30
0.0
 10
141.530572
 20
19.575203
 30
0.0
 10
141.482208
 20
19.494899
 30
0.0
 10
141.426404
 20
19.425142
 30
0.0
 10
141.369347
 20
19.364676
 30
0.0
 10
141.307329
 20
19.312273
 30
0.0
 10
141.240355
 20
19.267931
 30
0.0
 10
141.168419
 20
19.231654
 30
0.0
 10
141.091525
 20
19.203431
 30
0.0
 10
141.009675
 20
19.183281
 30
0.0
 10
140.922860
 20
19.171202
 30
0.0
 10
140.831090
 20
19.167166
 30
0.0
 10
140.743649
 20
19.170891
 30
0.0
 10
140.659928
 20
19.182039
 30
0.0
 10
140.579929
 20
19.200637
 30
0.0
 10
140.503656
 20
19.226687
 30
0.0
 10
140.431102
 20
19.260175
 30
0.0
 10
140.362271
 20
19.301106
 30
0.0
 10
140.297165
 20
19.349479
 30
0.0
 10
140.235779
 20
19.405294
 30
0.0
 10
140.184305
 20
19.469471
 30
0.0
 10
140.139031
 20
19.542950
 30
0.0
 10
140.099960
 20
19.625735
 30
0.0
 10
140.067092
 20
19.717821
 30
0.0
 10
140.040422
 20
19.819209
 30
0.0
 10
140.019961
 20
19.929902
 30
0.0
 10
140.005709
 20
20.049901
 30
0.0
 10
139.997665
 20
20.179201
 30
0.0
 10
139.948979
 20
20.590641
 30
0.0
 10
139.852547
 20
20.991543
 30
0.0
 10
139.708368
 20
21.381905
 30
0.0
 10
139.516440
 20
21.761725
 30
0.0
 10
139.276765
 20
22.131004
 30
0.0
 10
138.989345
 20
22.489746
 30
0.0
 10
138.654175
 20
22.837946
 30
0.0
 10
138.271258
 20
23.175605
 30
0.0
 10
137.853603
 20
23.487206
 30
0.0
 10
137.404325
 20
23.757262
 30
0.0
 10
136.923424
 20
23.985772
 30
0.0
 10
136.410898
 20
24.172738
 30
0.0
 10
135.866745
 20
24.318156
 30
0.0
 10
135.290966
 20
24.422028
 30
0.0
 10
134.683568
 20
24.484357
 30
0.0
 10
134.044540
 20
24.505128
 30
0.0
 10
133.372640
 20
24.482805
 30
0.0
 10
132.736088
 20
24.415828
 30
0.0
 10
132.134884
 20
24.304203
 30
0.0
 10
131.569025
 20
24.147931
 30
0.0
 10
131.038515
 20
23.947014
 30
0.0
 10
130.543354
 20
23.701453
 30
0.0
 10
130.083540
 20
23.411243
 30
0.0
 10
129.659072
 20
23.076387
 30
0.0
 10
129.277697
 20
22.716093
 30
0.0
 10
128.947172
 20
22.339677
 30
0.0
 10
128.667499
 20
21.947139
 30
0.0
 10
128.438676
 20
21.538482
 30
0.0
 10
128.260704
 20
21.113703
 30
0.0
 10
128.133579
 20
20.672802
 30
0.0
 10
128.057306
 20
20.215779
 30
0.0
 10
128.031878
 20
19.742637
 30
0.0
 10
128.039018
 20
19.497374
 30
0.0
 10
128.060410
 20
19.257694
 30
0.0
 10
128.096066
 20
19.023599
 30
0.0
 10
128.145986
 20
18.795084
 30
0.0
 10
128.210169
 20
18.572154
 30
0.0
 10
128.288615
 20
18.354806
 30
0.0
 10
128.381323
 20
18.143038
 30
0.0
 10
128.488296
 20
17.936855
 30
0.0
 10
128.607047
 20
17.738103
 30
0.0
 10
128.735099
 20
17.548655
 30
0.0
 10
128.872454
 20
17.368507
 30
0.0
 10
129.019111
 20
17.197664
 30
0.0
 10
129.175070
 20
17.036126
 30
0.0
 10
129.340331
 20
16.883889
 30
0.0
 10
129.514896
 20
16.740955
 30
0.0
 10
129.698764
 20
16.607326
 30
0.0
 10
129.890379
 20
16.486089
 30
0.0
 10
130.088194
 20
16.370431
 30
0.0
 10
130.292210
 20
16.260359
 30
0.0
 10
130.502429
 20
16.155869
 30
0.0
 10
130.718851
 20
16.056961
 30
0.0
 10
130.941473
 20
15.963636
 30
0.0
 10
131.170299
 20
15.875890
 30
0.0
 10
131.405328
 20
15.793730
 30
0.0
 10
131.660192
 20
15.718693
 30
0.0
 10
131.948544
 20
15.642414
 30
0.0
 10
132.270384
 20
15.564898
 30
0.0
 10
132.625711
 20
15.486141
 30
0.0
 10
133.014522
 20
15.406148
 30
0.0
 10
133.436826
 20
15.324914
 30
0.0
 10
133.892612
 20
15.242443
 30
0.0
 10
134.381889
 20
15.158730
 30
0.0
 10
135.197339
 20
15.019510
 30
0.0
 10
135.947057
 20
14.879671
 30
0.0
 10
136.631042
 20
14.739221
 30
0.0
 10
137.249301
 20
14.598138
 30
0.0
 10
137.801824
 20
14.456434
 30
0.0
 10
138.288618
 20
14.314109
 30
0.0
 10
138.709682
 20
14.171192
 30
0.0
 10
139.065014
 20
14.027625
 30
0.0
 10
139.483276
 20
13.824849
 30
0.0
 10
139.874876
 20
13.603474
 30
0.0
 10
140.239812
 20
13.363472
 30
0.0
 10
140.578086
 20
13.104900
 30
0.0
 10
140.889696
 20
12.827701
 30
0.0
 10
141.174642
 20
12.531904
 30
0.0
 10
141.432926
 20
12.217509
 30
0.0
 10
141.664546
 20
11.884515
 30
0.0
 10
141.873828
 20
11.534446
 30
0.0
 10
142.055209
 20
11.168884
 30
0.0
 10
142.208685
 20
10.787827
 30
0.0
 10
142.334257
 20
10.391277
 30
0.0
 10
142.431925
 20
9.979204
 30
0.0
 10
142.501693
 20
9.551637
 30
0.0
 10
142.543555
 20
9.108577
 30
0.0
 10
142.557525
 20
8.649994
 30
0.0
 10
142.521861
 20
7.948643
 30
0.0
 10
142.414887
 20
7.273314
 30
0.0
 10
142.236602
 20
6.624062
 30
0.0
 10
141.987002
 20
6.000830
 30
0.0
 10
141.666093
 20
5.403648
 30
0.0
 10
141.273871
 20
4.832543
 30
0.0
 10
140.810338
 20
4.287459
 30
0.0
 10
140.275493
 20
3.768424
 30
0.0
 10
139.680177
 20
3.298694
 30
0.0
 10
139.035251
 20
2.891560
 30
0.0
 10
138.340716
 20
2.547108
 30
0.0
 10
137.596575
 20
2.265252
 30
0.0
 10
136.802828
 20
2.046050
 30
0.0
 10
135.959469
 20
1.889445
 30
0.0
 10
135.066507
 20
1.795522
 30
0.0
 10
134.123932
 20
1.764195
 30
0.0
 10
133.064769
 20
1.806669
 30
0.0
 10
132.060177
 20
1.934121
 30
0.0
 10
131.110157
 20
2.146493
 30
0.0
 10
130.214706
 20
2.443843
 30
0.0
 10
129.373828
 20
2.826141
 30
0.0
 10
128.587520
 20
3.293416
 30
0.0
 10
127.855785
 20
3.845612
 30
0.0
 10
127.178618
 20
4.482785
 30
0.0
 10
127.178618
 20
4.363716
 30
0.0
 10
127.178618
 20
4.244646
 30
0.0
 10
127.178618
 20
4.125605
 30
0.0
 10
127.178618
 20
4.006535
 30
0.0
 10
127.178618
 20
3.887466
 30
0.0
 10
127.178618
 20
3.768396
 30
0.0
 10
127.178618
 20
3.649355
 30
0.0
 10
127.178618
 20
3.530285
 30
0.0
 10
127.174893
 20
3.386719
 30
0.0
 10
127.163717
 20
3.253707
 30
0.0
 10
127.145119
 20
3.131251
 30
0.0
 10
127.119070
 20
3.019322
 30
0.0
 10
127.085584
 20
2.917919
 30
0.0
 10
127.044656
 20
2.827072
 30
0.0
 10
126.996289
 20
2.746780
 30
0.0
 10
126.940479
 20
2.677015
 30
0.0
 10
126.883428
 20
2.616563
 30
0.0
 10
126.821415
 20
2.564154
 30
0.0
 10
126.754441
 20
2.519817
 30
0.0
 10
126.682508
 20
2.483523
 30
0.0
 10
126.605614
 20
2.455301
 30
0.0
 10
126.523758
 20
2.435263
 30
0.0
 10
126.436944
 20
2.423127
 30
0.0
 10
126.345168
 20
2.419176
 30
0.0
 10
126.257730
 20
2.423127
 30
0.0
 10
126.174012
 20
2.435263
 30
0.0
 10
126.094016
 20
2.455301
 30
0.0
 10
126.017742
 20
2.483523
 30
0.0
 10
125.945189
 20
2.519817
 30
0.0
 10
125.876358
 20
2.564154
 30
0.0
 10
125.811246
 20
2.616563
 30
0.0
 10
125.749854
 20
2.677015
 30
0.0
 10
125.694042
 20
2.746780
 30
0.0
 10
125.645672
 20
2.827072
 30
0.0
 10
125.604744
 20
2.917919
 30
0.0
 10
125.571258
 20
3.019322
 30
0.0
 10
125.545209
 20
3.131251
 30
0.0
 10
125.526611
 20
3.253707
 30
0.0
 10
125.515435
 20
3.386719
 30
0.0
 10
125.511710
 20
3.530285
 30
0.0
 10
125.511710
 20
4.105765
 30
0.0
 10
125.511710
 20
4.681216
 30
0.0
 10
125.511710
 20
5.256695
 30
0.0
 10
125.511710
 20
5.832146
 30
0.0
 10
125.511710
 20
6.407625
 30
0.0
 10
125.511710
 20
6.983105
 30
0.0
 10
125.511710
 20
7.558556
 30
0.0
 10
125.511710
 20
8.134035
 30
0.0
 10
125.515124
 20
8.282230
 30
0.0
 10
125.525369
 20
8.419277
 30
0.0
 10
125.542415
 20
8.545177
 30
0.0
 10
125.566291
 20
8.659900
 30
0.0
 10
125.596989
 20
8.763447
 30
0.0
 10
125.634504
 20
8.855847
 30
0.0
 10
125.678844
 20
8.937099
 30
0.0
 10
125.730006
 20
9.007174
 30
0.0
 10
125.791705
 20
9.067626
 30
0.0
 10
125.857748
 20
9.120035
 30
0.0
 10
125.928131
 20
9.164372
 30
0.0
 10
126.002855
 20
9.200638
 30
0.0
 10
126.081920
 20
9.228860
 30
0.0
 10
126.165325
 20
9.248898
 30
0.0
 10
126.253073
 20
9.261033
 30
0.0
 10
126.345163
 20
9.264984
 30
0.0
 10
126.432287
 20
9.261315
 30
0.0
 10
126.515072
 20
9.250309
 30
0.0
 10
126.593515
 20
9.231682
 30
0.0
 10
126.667618
 20
9.205718
 30
0.0
 10
126.737384
 20
9.172218
 30
0.0
 10
126.802806
 20
9.131296
 30
0.0
 10
126.863890
 20
9.082951
 30
0.0
 10
126.920631
 20
9.027127
 30
0.0
 10
126.976751
 20
8.962950
 30
0.0
 10
127.026046
 20
8.889459
 30
0.0
 10
127.068524
 20
8.806684
 30
0.0
 10
127.104182
 20
8.714595
 30
0.0
 10
127.133017
 20
8.613192
 30
0.0
 10
127.155030
 20
8.502505
 30
0.0
 10
127.170214
 20
8.382504
 30
0.0
 10
127.178596
 20
8.253218
 30
0.0
 10
127.230686
 20
7.801775
 30
0.0
 10
127.337343
 20
7.360238
 30
0.0
 10
127.498574
 20
6.928636
 30
0.0
 10
127.714375
 20
6.506968
 30
0.0
 10
127.984744
 20
6.095205
 30
0.0
 10
128.309686
 20
5.693377
 30
0.0
 10
128.689202
 20
5.301455
 30
0.0
 10
129.123285
 20
4.919468
 30
0.0
 10
129.609455
 20
4.570641
 30
0.0
 10
130.135311
 20
4.268353
 30
0.0
 10
130.700856
 20
4.012547
 30
0.0
 10
131.306090
 20
3.803251
 30
0.0
 10
131.951013
 20
3.640493
 30
0.0
 10
132.635622
 20
3.524217
 30
0.0
 10
133.359923
 20
3.454452
 30
0.0
 10
134.123910
 20
3.431310
 30
0.0
 10
134.886960
 20
3.455863
 30
0.0
 10
135.608461
 20
3.529354
 30
0.0
 10
136.288419
 20
3.651810
 30
0.0
 10
136.926828
 20
3.823260
 30
0.0
 10
137.523691
 20
4.043732
 30
0.0
 10
138.079009
 20
4.313170
 30
0.0
 10
138.592777
 20
4.631601
 30
0.0
 10
139.065003
 20
4.999026
 30
0.0
 10
139.492877
 20
5.399923
 30
0.0
 10
139.863703
 20
5.818825
 30
0.0
 10
140.177480
 20
6.255677
 30
0.0
 10
140.434207
 20
6.710535
 30
0.0
 10
140.633887
 20
7.183370
 30
0.0
 10
140.776517
 20
7.674211
 30
0.0
 10
140.862095
 20
8.183001
 30
0.0
 10
140.890628
 20
8.709797
 30
0.0
 10
140.879762
 20
9.032574
 30
0.0
 10
140.847202
 20
9.346039
 30
0.0
 10
140.792939
 20
9.650189
 30
0.0
 10
140.716974
 20
9.945055
 30
0.0
 10
140.619308
 20
10.230636
 30
0.0
 10
140.499936
 20
10.506903
 30
0.0
 10
140.358865
 20
10.773857
 30
0.0
 10
140.196090
 20
11.031526
 30
0.0
 10
140.011909
 20
11.282676
 30
0.0
 10
139.806646
 20
11.520166
 30
0.0
 10
139.580301
 20
11.744024
 30
0.0
 10
139.332874
 20
11.954252
 30
0.0
 10
139.064365
 20
12.150819
 30
0.0
 10
138.774771
 20
12.333756
 30
0.0
 10
138.464098
 20
12.503061
 30
0.0
 10
138.132340
 20
12.658707
 30
0.0
 10
137.861966
 20
12.764427
 30
0.0
 10
137.527098
 20
12.873252
 30
0.0
 10
137.127739
 20
12.985181
 30
0.0
 10
136.663893
 20
13.100215
 30
0.0
 10
136.135553
 20
13.218353
 30
0.0
 10
135.542723
 20
13.339596
 30
0.0
 10
134.885402
 20
13.463915
 30
0.0
 10
134.163590
 20
13.591366
 30
0.0
 10
133.163028
 20
13.776448
 30
0.0
 10
132.235022
 20
13.984502
 30
0.0
 10
131.379567
 20
14.215501
 30
0.0
 10
130.596671
 20
14.469444
 30
0.0
 10
129.886326
 20
14.746304
 30
0.0
 10
129.248538
 20
15.046149
 30
0.0
 10
128.683303
 20
15.368920
 30
0.0
 10
128.190622
 20
15.714637
 30
0.0
 10
127.762739
 20
16.090735
 30
0.0
 10
127.391908
 20
16.504659
 30
0.0
 10
127.078128
 20
16.956412
 30
0.0
 10
126.821398
 20
17.445994
 30
0.0
 10
126.621721
 20
17.973405
 30
0.0
 10
126.479097
 20
18.538643
 30
0.0
 10
126.393521
 20
19.141712
 30
0.0
 10
126.364997
 20
19.782608
 30
0.0
 10
126.397554
 20
20.425973
 30
0.0
 10
126.495223
 20
21.046396
 30
0.0
 10
126.658003
 20
21.643875
 30
0.0
 10
126.885895
 20
22.218414
 30
0.0
 10
127.178901
 20
22.770009
 30
0.0
 10
127.537018
 20
23.298659
 30
0.0
 10
127.960247
 20
23.804371
 30
0.0
 10
128.448590
 20
24.287137
 30
0.0
 10
128.995221
 20
24.728964
 30
0.0
 10
129.583400
 20
25.111881
 30
0.0
 10
130.213128
 20
25.435889
 30
0.0
 10
130.884405
 20
25.700989
 30
0.0
 10
131.597228
 20
25.907177
 30
0.0
 10
132.351602
 20
26.054458
 30
0.0
 10
133.147525
 20
26.142830
 30
0.0
 10
133.984997
 20
26.172294
 30
0.0
 10
134.842925
 20
26.137871
 30
0.0
 10
135.670468
 20
26.034615
 30
0.0
 10
136.467624
 20
25.862530
 30
0.0
 10
137.234399
 20
25.621614
 30
0.0
 10
137.970788
 20
25.311866
 30
0.0
 10
138.676795
 20
24.933288
 30
0.0
 10
139.352415
 20
24.485878
 30
0.0
 10
139.997654
 20
23.969637
 30
0.0
  0
LWPOLYLINE
  5
10a
100
AcDbEntity
  8
Layer_1
 62
7
100
AcDbPolyline
 90
417
 70
0
 10
164.048282
 20
13.650610
 30
0.0
 10
162.666660
 20
13.650610
 30
0.0
 10
161.285041
 20
13.650610
 30
0.0
 10
159.903420
 20
13.650610
 30
0.0
 10
158.521798
 20
13.650610
 30
0.0
 10
157.140176
 20
13.650610
 30
0.0
 10
155.758557
 20
13.650610
 30
0.0
 10
154.376936
 20
13.650610
 30
0.0
 10
152.995314
 20
13.650610
 30
0.0
 10
152.995314
 20
12.455032
 30
0.0
 10
152.995314
 20
11.259426
 30
0.0
 10
152.995314
 20
10.063848
 30
0.0
 10
152.995314
 20
8.868270
 30
0.0
 10
152.995314
 20
7.672692
 30
0.0
 10
152.995314
 20
6.477086
 30
0.0
 10
152.995314
 20
5.281508
 30
0.0
 10
152.995314
 20
4.085930
 30
0.0
 10
153.275606
 20
4.085930
 30
0.0
 10
153.555900
 20
4.085930
 30
0.0
 10
153.836192
 20
4.085930
 30
0.0
 10
154.116487
 20
4.085930
 30
0.0
 10
154.396779
 20
4.085930
 30
0.0
 10
154.677070
 20
4.085930
 30
0.0
 10
154.957365
 20
4.085930
 30
0.0
 10
155.237657
 20
4.085930
 30
0.0
 10
155.381209
 20
4.082261
 30
0.0
 10
155.514223
 20
4.070972
 30
0.0
 10
155.636694
 20
4.052346
 30
0.0
 10
155.748626
 20
4.026381
 30
0.0
 10
155.850017
 20
3.992910
 30
0.0
 10
155.940864
 20
3.951959
 30
0.0
 10
156.021174
 20
3.903614
 30
0.0
 10
156.090939
 20
3.847791
 30
0.0
 10
156.151397
 20
3.790754
 30
0.0
 10
156.203794
 20
3.728721
 30
0.0
 10
156.248131
 20
3.661750
 30
0.0
 10
156.284405
 20
3.589840
 30
0.0
 10
156.312627
 20
3.512934
 30
0.0
 10
156.332778
 20
3.431090
 30
0.0
 10
156.344885
 20
3.344278
 30
0.0
 10
156.348921
 20
3.252500
 30
0.0
 10
156.344885
 20
3.165067
 30
0.0
 10
156.332778
 20
3.081332
 30
0.0
 10
156.312627
 20
3.001350
 30
0.0
 10
156.284405
 20
2.925065
 30
0.0
 10
156.248131
 20
2.852506
 30
0.0
 10
156.203794
 20
2.783672
 30
0.0
 10
156.151397
 20
2.718563
 30
0.0
 10
156.090939
 20
2.657180
 30
0.0
 10
156.021174
 20
2.601356
 30
0.0
 10
155.940864
 20
2.553012
 30
0.0
 10
155.850017
 20
2.512061
 30
0.0
 10
155.748626
 20
2.478590
 30
0.0
 10
155.636694
 20
2.452625
 30
0.0
 10
155.514223
 20
2.433999
 30
0.0
 10
155.381209
 20
2.422992
 30
0.0
 10
155.237657
 20
2.419323
 30
0.0
 10
154.513359
 20
2.419323
 30
0.0
 10
153.789064
 20
2.419323
 30
0.0
 10
153.064766
 20
2.419323
 30
0.0
 10
152.340471
 20
2.419323
 30
0.0
 10
151.616173
 20
2.419323
 30
0.0
 10
150.891875
 20
2.419323
 30
0.0
 10
150.167580
 20
2.419323
 30
0.0
 10
149.443282
 20
2.419323
 30
0.0
 10
149.299724
 20
2.422992
 30
0.0
 10
149.166707
 20
2.433999
 30
0.0
 10
149.044234
 20
2.452625
 30
0.0
 10
148.932305
 20
2.478590
 30
0.0
 10
148.830913
 20
2.512061
 30
0.0
 10
148.740069
 20
2.553012
 30
0.0
 10
148.659763
 20
2.601356
 30
0.0
 10
148.590000
 20
2.657180
 30
0.0
 10
148.529540
 20
2.718563
 30
0.0
 10
148.477139
 20
2.783672
 30
0.0
 10
148.432799
 20
2.852506
 30
0.0
 10
148.396523
 20
2.925065
 30
0.0
 10
148.368300
 20
3.001350
 30
0.0
 10
148.348150
 20
3.081332
 30
0.0
 10
148.336071
 20
3.165067
 30
0.0
 10
148.332035
 20
3.252500
 30
0.0
 10
148.336071
 20
3.344278
 30
0.0
 10
148.348150
 20
3.431090
 30
0.0
 10
148.368300
 20
3.512934
 30
0.0
 10
148.396523
 20
3.589840
 30
0.0
 10
148.432799
 20
3.661750
 30
0.0
 10
148.477137
 20
3.728721
 30
0.0
 10
148.529537
 20
3.790754
 30
0.0
 10
148.590000
 20
3.847791
 30
0.0
 10
148.659763
 20
3.903614
 30
0.0
 10
148.740069
 20
3.951959
 30
0.0
 10
148.830913
 20
3.992910
 30
0.0
 10
148.932305
 20
4.026381
 30
0.0
 10
149.044234
 20
4.052346
 30
0.0
 10
149.166707
 20
4.070972
 30
0.0
 10
149.299724
 20
4.082261
 30
0.0
 10
149.443282
 20
4.085930
 30
0.0
 10
149.678926
 20
4.085930
 30
0.0
 10
149.914570
 20
4.085930
 30
0.0
 10
150.150215
 20
4.085930
 30
0.0
 10
150.385862
 20
4.085930
 30
0.0
 10
150.621506
 20
4.085930
 30
0.0
 10
150.857150
 20
4.085930
 30
0.0
 10
151.092795
 20
4.085930
 30
0.0
 10
151.328439
 20
4.085930
 30
0.0
 10
151.328439
 20
6.571348
 30
0.0
 10
151.328439
 20
9.056795
 30
0.0
 10
151.328439
 20
11.542213
 30
0.0
 10
151.328439
 20
14.027631
 30
0.0
 10
151.328439
 20
16.513075
 30
0.0
 10
151.328439
 20
18.998501
 30
0.0
 10
151.328439
 20
21.483931
 30
0.0
 10
151.328439
 20
23.969360
 30
0.0
 10
151.199455
 20
23.969360
 30
0.0
 10
151.070471
 20
23.969360
 30
0.0
 10
150.941487
 20
23.969360
 30
0.0
 10
150.812503
 20
23.969360
 30
0.0
 10
150.683516
 20
23.969360
 30
0.0
 10
150.554532
 20
23.969360
 30
0.0
 10
150.425548
 20
23.969360
 30
0.0
 10
150.296564
 20
23.969360
 30
0.0
 10
150.148355
 20
23.972775
 30
0.0
 10
150.011308
 20
23.982992
 30
0.0
 10
149.885423
 20
24.000038
 30
0.0
 10
149.770702
 20
24.023914
 30
0.0
 10
149.667141
 20
24.054608
 30
0.0
 10
149.574744
 20
24.092130
 30
0.0
 10
149.493512
 20
24.136473
 30
0.0
 10
149.423439
 20
24.187640
 30
0.0
 10
149.362976
 20
24.249333
 30
0.0
 10
149.310575
 20
24.315371
 30
0.0
 10
149.266235
 20
24.385751
 30
0.0
 10
149.229959
 20
24.460475
 30
0.0
 10
149.201736
 20
24.539542
 30
0.0
 10
149.181586
 20
24.622950
 30
0.0
 10
149.169507
 20
24.710702
 30
0.0
 10
149.165471
 20
24.802797
 30
0.0
 10
149.169507
 20
24.894567
 30
0.0
 10
149.181586
 20
24.981378
 30
0.0
 10
149.201736
 20
25.063228
 30
0.0
 10
149.229959
 20
25.140123
 30
0.0
 10
149.266235
 20
25.212058
 30
0.0
 10
149.310575
 20
25.279032
 30
0.0
 10
149.362976
 20
25.341051
 30
0.0
 10
149.423439
 20
25.398108
 30
0.0
 10
149.493512
 20
25.453911
 30
0.0
 10
149.574744
 20
25.502276
 30
0.0
 10
149.667141
 20
25.543198
 30
0.0
 10
149.770702
 20
25.576684
 30
0.0
 10
149.885423
 20
25.602733
 30
0.0
 10
150.011308
 20
25.621331
 30
0.0
 10
150.148355
 20
25.632507
 30
0.0
 10
150.296564
 20
25.636233
 30
0.0
 10
150.914202
 20
25.636233
 30
0.0
 10
151.531836
 20
25.636233
 30
0.0
 10
152.149474
 20
25.636233
 30
0.0
 10
152.767112
 20
25.636233
 30
0.0
 10
153.384747
 20
25.636233
 30
0.0
 10
154.002384
 20
25.636233
 30
0.0
 10
154.620019
 20
25.636233
 30
0.0
 10
155.237657
 20
25.636233
 30
0.0
 10
155.381209
 20
25.632507
 30
0.0
 10
155.514223
 20
25.621331
 30
0.0
 10
155.636694
 20
25.602733
 30
0.0
 10
155.748626
 20
25.576684
 30
0.0
 10
155.850017
 20
25.543198
 30
0.0
 10
155.940864
 20
25.502276
 30
0.0
 10
156.021174
 20
25.453911
 30
0.0
 10
156.090939
 20
25.398108
 30
0.0
 10
156.151397
 20
25.341051
 30
0.0
 10
156.203794
 20
25.279032
 30
0.0
 10
156.248131
 20
25.212058
 30
0.0
 10
156.284405
 20
25.140123
 30
0.0
 10
156.312627
 20
25.063228
 30
0.0
 10
156.332778
 20
24.981378
 30
0.0
 10
156.344885
 20
24.894567
 30
0.0
 10
156.348921
 20
24.802797
 30
0.0
 10
156.344885
 20
24.710702
 30
0.0
 10
156.332778
 20
24.622950
 30
0.0
 10
156.312627
 20
24.539542
 30
0.0
 10
156.284405
 20
24.460475
 30
0.0
 10
156.248131
 20
24.385751
 30
0.0
 10
156.203794
 20
24.315371
 30
0.0
 10
156.151397
 20
24.249333
 30
0.0
 10
156.090939
 20
24.187640
 30
0.0
 10
156.021174
 20
24.136473
 30
0.0
 10
155.940864
 20
24.092130
 30
0.0
 10
155.850017
 20
24.054608
 30
0.0
 10
155.748626
 20
24.023914
 30
0.0
 10
155.636694
 20
24.000038
 30
0.0
 10
155.514223
 20
23.982992
 30
0.0
 10
155.381209
 20
23.972775
 30
0.0
 10
155.237657
 20
23.969360
 30
0.0
 10
154.957365
 20
23.969360
 30
0.0
 10
154.677070
 20
23.969360
 30
0.0
 10
154.396779
 20
23.969360
 30
0.0
 10
154.116487
 20
23.969360
 30
0.0
 10
153.836192
 20
23.969360
 30
0.0
 10
153.555900
 20
23.969360
 30
0.0
 10
153.275606
 20
23.969360
 30
0.0
 10
152.995314
 20
23.969360
 30
0.0
 10
152.995314
 20
22.887876
 30
0.0
 10
152.995314
 20
21.806392
 30
0.0
 10
152.995314
 20
20.724908
 30
0.0
 10
152.995314
 20
19.643422
 30
0.0
 10
152.995314
 20
18.561938
 30
0.0
 10
152.995314
 20
17.480453
 30
0.0
 10
152.995314
 20
16.398969
 30
0.0
 10
152.995314
 20
15.317485
 30
0.0
 10
154.376936
 20
15.317485
 30
0.0
 10
155.758557
 20
15.317485
 30
0.0
 10
157.140176
 20
15.317485
 30
0.0
 10
158.521798
 20
15.317485
 30
0.0
 10
159.903420
 20
15.317485
 30
0.0
 10
161.285041
 20
15.317485
 30
0.0
 10
162.666660
 20
15.317485
 30
0.0
 10
164.048282
 20
15.317485
 30
0.0
 10
164.048282
 20
16.398969
 30
0.0
 10
164.048282
 20
17.480453
 30
0.0
 10
164.048282
 20
18.561938
 30
0.0
 10
164.048282
 20
19.643422
 30
0.0
 10
164.048282
 20
20.724908
 30
0.0
 10
164.048282
 20
21.806392
 30
0.0
 10
164.048282
 20
22.887876
 30
0.0
 10
164.048282
 20
23.969360
 30
0.0
 10
163.770471
 20
23.969360
 30
0.0
 10
163.492657
 20
23.969360
 30
0.0
 10
163.214846
 20
23.969360
 30
0.0
 10
162.937032
 20
23.969360
 30
0.0
 10
162.659221
 20
23.969360
 30
0.0
 10
162.381407
 20
23.969360
 30
0.0
 10
162.103596
 20
23.969360
 30
0.0
 10
161.825782
 20
23.969360
 30
0.0
 10
161.682218
 20
23.972775
 30
0.0
 10
161.549201
 20
23.982992
 30
0.0
 10
161.426725
 20
24.000038
 30
0.0
 10
161.314793
 20
24.023914
 30
0.0
 10
161.213405
 20
24.054608
 30
0.0
 10
161.122560
 20
24.092130
 30
0.0
 10
161.042257
 20
24.136473
 30
0.0
 10
160.972500
 20
24.187640
 30
0.0
 10
160.912034
 20
24.249333
 30
0.0
 10
160.859631
 20
24.315371
 30
0.0
 10
160.815291
 20
24.385751
 30
0.0
 10
160.779014
 20
24.460475
 30
0.0
 10
160.750792
 20
24.539542
 30
0.0
 10
160.730641
 20
24.622950
 30
0.0
 10
160.718562
 20
24.710702
 30
0.0
 10
160.714526
 20
24.802797
 30
0.0
 10
160.718252
 20
24.894567
 30
0.0
 10
160.729399
 20
24.981378
 30
0.0
 10
160.747998
 20
25.063228
 30
0.0
 10
160.774047
 20
25.140123
 30
0.0
 10
160.807533
 20
25.212058
 30
0.0
 10
160.848463
 20
25.279032
 30
0.0
 10
160.896836
 20
25.341051
 30
0.0
 10
160.952651
 20
25.398108
 30
0.0
 10
161.022719
 20
25.453911
 30
0.0
 10
161.103951
 20
25.502276
 30
0.0
 10
161.196347
 20
25.543198
 30
0.0
 10
161.299906
 20
25.576684
 30
0.0
 10
161.414627
 20
25.602733
 30
0.0
 10
161.540515
 20
25.621331
 30
0.0
 10
161.677564
 20
25.632507
 30
0.0
 10
161.825776
 20
25.636233
 30
0.0
 10
162.443414
 20
25.636233
 30
0.0
 10
163.061049
 20
25.636233
 30
0.0
 10
163.678687
 20
25.636233
 30
0.0
 10
164.296321
 20
25.636233
 30
0.0
 10
164.913959
 20
25.636233
 30
0.0
 10
165.531597
 20
25.636233
 30
0.0
 10
166.149232
 20
25.636233
 30
0.0
 10
166.766869
 20
25.636233
 30
0.0
 10
166.915070
 20
25.632507
 30
0.0
 10
167.052111
 20
25.621331
 30
0.0
 10
167.177991
 20
25.602733
 30
0.0
 10
167.292714
 20
25.576684
 30
0.0
 10
167.396273
 20
25.543198
 30
0.0
 10
167.488675
 20
25.502276
 30
0.0
 10
167.569913
 20
25.453911
 30
0.0
 10
167.639994
 20
25.398108
 30
0.0
 10
167.700449
 20
25.341051
 30
0.0
 10
167.752844
 20
25.279032
 30
0.0
 10
167.797178
 20
25.212058
 30
0.0
 10
167.833455
 20
25.140123
 30
0.0
 10
167.861677
 20
25.063228
 30
0.0
 10
167.881828
 20
24.981378
 30
0.0
 10
167.893935
 20
24.894567
 30
0.0
 10
167.897971
 20
24.802797
 30
0.0
 10
167.893935
 20
24.710702
 30
0.0
 10
167.881828
 20
24.622950
 30
0.0
 10
167.861677
 20
24.539542
 30
0.0
 10
167.833455
 20
24.460475
 30
0.0
 10
167.797178
 20
24.385751
 30
0.0
 10
167.752844
 20
24.315371
 30
0.0
 10
167.700449
 20
24.249333
 30
0.0
 10
167.639994
 20
24.187640
 30
0.0
 10
167.569913
 20
24.136473
 30
0.0
 10
167.488675
 20
24.092130
 30
0.0
 10
167.396273
 20
24.054608
 30
0.0
 10
167.292714
 20
24.023914
 30
0.0
 10
167.177991
 20
24.000038
 30
0.0
 10
167.052111
 20
23.982992
 30
0.0
 10
166.915070
 20
23.972775
 30
0.0
 10
166.766869
 20
23.969360
 30
0.0
 10
166.637885
 20
23.969360
 30
0.0
 10
166.508901
 20
23.969360
 30
0.0
 10
166.379917
 20
23.969360
 30
0.0
 10
166.250930
 20
23.969360
 30
0.0
 10
166.121946
 20
23.969360
 30
0.0
 10
165.992962
 20
23.969360
 30
0.0
 10
165.863978
 20
23.969360
 30
0.0
 10
165.734994
 20
23.969360
 30
0.0
 10
165.734994
 20
21.483931
 30
0.0
 10
165.734994
 20
18.998501
 30
0.0
 10
165.734994
 20
16.513075
 30
0.0
 10
165.734994
 20
14.027631
 30
0.0
 10
165.734994
 20
11.542213
 30
0.0
 10
165.734994
 20
9.056795
 30
0.0
 10
165.734994
 20
6.571348
 30
0.0
 10
165.734994
 20
4.085930
 30
0.0
 10
165.970639
 20
4.085930
 30
0.0
 10
166.206283
 20
4.085930
 30
0.0
 10
166.441927
 20
4.085930
 30
0.0
 10
166.677571
 20
4.085930
 30
0.0
 10
166.913219
 20
4.085930
 30
0.0
 10
167.148863
 20
4.085930
 30
0.0
 10
167.384507
 20
4.085930
 30
0.0
 10
167.620151
 20
4.085930
 30
0.0
 10
167.763701
 20
4.082261
 30
0.0
 10
167.896712
 20
4.070972
 30
0.0
 10
168.019180
 20
4.052346
 30
0.0
 10
168.131112
 20
4.026381
 30
0.0
 10
168.232500
 20
3.992910
 30
0.0
 10
168.323350
 20
3.951959
 30
0.0
 10
168.403662
 20
3.903614
 30
0.0
 10
168.473433
 20
3.847791
 30
0.0
 10
168.533888
 20
3.790754
 30
0.0
 10
168.586280
 20
3.728721
 30
0.0
 10
168.630617
 20
3.661750
 30
0.0
 10
168.666891
 20
3.589840
 30
0.0
 10
168.695113
 20
3.512934
 30
0.0
 10
168.715264
 20
3.431090
 30
0.0
 10
168.727371
 20
3.344278
 30
0.0
 10
168.731407
 20
3.252500
 30
0.0
 10
168.727371
 20
3.165067
 30
0.0
 10
168.715264
 20
3.081332
 30
0.0
 10
168.695113
 20
3.001350
 30
0.0
 10
168.666891
 20
2.925065
 30
0.0
 10
168.630617
 20
2.852506
 30
0.0
 10
168.586280
 20
2.783672
 30
0.0
 10
168.533888
 20
2.718563
 30
0.0
 10
168.473433
 20
2.657180
 30
0.0
 10
168.403662
 20
2.601356
 30
0.0
 10
168.323350
 20
2.553012
 30
0.0
 10
168.232500
 20
2.512061
 30
0.0
 10
168.131112
 20
2.478590
 30
0.0
 10
168.019180
 20
2.452625
 30
0.0
 10
167.896712
 20
2.433999
 30
0.0
 10
167.763701
 20
2.422992
 30
0.0
 10
167.620151
 20
2.419323
 30
0.0
 10
166.895853
 20
2.419323
 30
0.0
 10
166.171558
 20
2.419323
 30
0.0
 10
165.447260
 20
2.419323
 30
0.0
 10
164.722965
 20
2.419323
 30
0.0
 10
163.998667
 20
2.419323
 30
0.0
 10
163.274369
 20
2.419323
 30
0.0
 10
162.550074
 20
2.419323
 30
0.0
 10
161.825776
 20
2.419323
 30
0.0
 10
161.682213
 20
2.422992
 30
0.0
 10
161.549196
 20
2.433999
 30
0.0
 10
161.426720
 20
2.452625
 30
0.0
 10
161.314788
 20
2.478590
 30
0.0
 10
161.213399
 20
2.512061
 30
0.0
 10
161.122555
 20
2.553012
 30
0.0
 10
161.042251
 20
2.601356
 30
0.0
 10
160.972494
 20
2.657180
 30
0.0
 10
160.912028
 20
2.718563
 30
0.0
 10
160.859625
 20
2.783672
 30
0.0
 10
160.815285
 20
2.852506
 30
0.0
 10
160.779008
 20
2.925065
 30
0.0
 10
160.750786
 20
3.001350
 30
0.0
 10
160.730636
 20
3.081332
 30
0.0
 10
160.718556
 20
3.165067
 30
0.0
 10
160.714521
 20
3.252500
 30
0.0
 10
160.718246
 20
3.344278
 30
0.0
 10
160.729394
 20
3.431090
 30
0.0
 10
160.747992
 20
3.512934
 30
0.0
 10
160.774041
 20
3.589840
 30
0.0
 10
160.807527
 20
3.661750
 30
0.0
 10
160.848458
 20
3.728721
 30
0.0
 10
160.896831
 20
3.790754
 30
0.0
 10
160.952646
 20
3.847791
 30
0.0
 10
161.022713
 20
3.903614
 30
0.0
 10
161.103945
 20
3.951959
 30
0.0
 10
161.196342
 20
3.992910
 30
0.0
 10
161.299900
 20
4.026381
 30
0.0
 10
161.414621
 20
4.052346
 30
0.0
 10
161.540509
 20
4.070972
 30
0.0
 10
161.677559
 20
4.082261
 30
0.0
 10
161.825771
 20
4.085930
 30
0.0
 10
162.103585
 20
4.085930
 30
0.0
 10
162.381396
 20
4.085930
 30
0.0
 10
162.659210
 20
4.085930
 30
0.0
 10
162.937021
 20
4.085930
 30
0.0
 10
163.214835
 20
4.085930
 30
0.0
 10
163.492646
 20
4.085930
 30
0.0
 10
163.770460
 20
4.085930
 30
0.0
 10
164.048271
 20
4.085930
 30
0.0
 10
164.048271
 20
5.281508
 30
0.0
 10
164.048271
 20
6.477086
 30
0.0
 10
164.048271
 20
7.672692
 30
0.0
 10
164.048271
 20
8.868270
 30
0.0
 10
164.048271
 20
10.063848
 30
0.0
 10
164.048271
 20
11.259426
 30
0.0
 10
164.048271
 20
12.455032
 30
0.0
 10
164.048271
 20
13.650610
 30
0.0
  0
ENDSEC
  0
SECTION
  2
OBJECTS
  0
DICTIONARY
  5
C
330
0
100
AcDbDictionary
  3
ACAD_GROUP
350
D
  3
ACAD_MLINESTYLE
350
17
  0
DICTIONARY
  5
D
330
C
100
AcDbDictionary
  0
DICTIONARY
  5
1A
330
C
100
AcDbDictionary
  0
DICTIONARY
  5
17
330
C
100
AcDbDictionary
  3
STANDARD
350
18
  0
DICTIONARY
  5
19
330
C
100
AcDbDictionary
  0
ENDSEC
  0
EOF
